<svg width="28" height="28" viewBox="0 0 28 28" fill="none" xmlns="http://www.w3.org/2000/svg">
<path d="M13.9737 0C12.9231 0 11.8724 0.106262 10.8218 0.371917C10.8218 0.425048 10.8218 0.478178 10.8218 0.531309V17.7989C10.8218 18.1708 10.5066 18.4364 10.1914 18.4364H8.93058C8.66792 18.4364 8.45779 18.2239 8.45779 17.9583V1.11575C3.46717 3.24099 0 8.23529 0 13.9734C0 21.7306 6.25141 28 14.0263 28C21.8011 28 28 21.7306 28 14.0266C28 6.32258 21.6961 0 13.9737 0ZM13.7111 19.8178C13.7111 20.1366 13.4484 20.4023 13.1332 20.4023H11.8724C11.5572 20.4023 11.2946 20.1366 11.2946 19.8178V10.945C11.2946 10.6262 11.5572 10.3605 11.8724 10.3605H13.1332C13.4484 10.3605 13.7111 10.6262 13.7111 10.945V19.8178ZM16.5478 20.6679C16.5478 20.9867 16.2852 21.2524 15.97 21.2524H14.7092C14.394 21.2524 14.1313 20.9867 14.1313 20.6679V10.0949C14.1313 9.77609 14.394 9.51044 14.7092 9.51044H15.97C16.2852 9.51044 16.5478 9.77609 16.5478 10.0949V20.6679ZM19.3846 19.074C19.3846 19.3928 19.122 19.6584 18.8068 19.6584H17.546C17.2308 19.6584 16.9681 19.3928 16.9681 19.074V11.7951C16.9681 11.4763 17.2308 11.2106 17.546 11.2106H18.8068C19.122 11.2106 19.3846 11.4763 19.3846 11.7951V19.074Z" fill="white"/>
</svg>
