<svg width="36" height="11" viewBox="0 0 36 11" fill="none" xmlns="http://www.w3.org/2000/svg">
<path d="M2.28752 4.84362V1.66562H4.94752C5.23685 1.66562 5.50752 1.68429 5.75952 1.72162C6.02085 1.74962 6.24952 1.81962 6.44552 1.93162C6.64152 2.04362 6.79552 2.20229 6.90752 2.40762C7.01952 2.61296 7.07552 2.89296 7.07552 3.24762C7.07552 3.77962 6.90752 4.18096 6.57152 4.45162C6.24485 4.71296 5.70352 4.84362 4.94752 4.84362H2.28752ZM0.95752 0.545624V10.5416H5.78752C6.28219 10.5416 6.71619 10.4623 7.08952 10.3036C7.47219 10.1356 7.78952 9.92096 8.04152 9.65962C8.30285 9.38896 8.49885 9.08096 8.62952 8.73562C8.76019 8.39029 8.82552 8.03562 8.82552 7.67162C8.82552 7.05562 8.66219 6.53296 8.33552 6.10362C8.00885 5.67429 7.53752 5.39429 6.92152 5.26362V5.23562C7.39752 5.04896 7.76152 4.76429 8.01352 4.38162C8.27485 3.98962 8.40552 3.52762 8.40552 2.99562C8.40552 2.49162 8.28885 2.06696 8.05552 1.72162C7.83152 1.37629 7.55619 1.10562 7.22952 0.909624C7.08019 0.816291 6.89819 0.746291 6.68352 0.699625C6.47819 0.652958 6.25419 0.620291 6.01152 0.601624C5.76885 0.573624 5.52152 0.559624 5.26952 0.559624C5.02685 0.550291 4.79819 0.545624 4.58352 0.545624H0.95752ZM2.28752 9.42163V5.96362H5.32552C5.60552 5.96362 5.87619 5.99162 6.13752 6.04762C6.39885 6.09429 6.62752 6.18296 6.82352 6.31362C7.02885 6.43496 7.19219 6.60296 7.31352 6.81762C7.43485 7.03229 7.49552 7.30296 7.49552 7.62962C7.49552 8.18962 7.32752 8.62829 6.99152 8.94563C6.66485 9.26296 6.20752 9.42163 5.61952 9.42163H2.28752Z" fill="#F6504B"/>
<path d="M11.1015 0.545624V10.5416H18.0455V9.42163H12.4315V5.96362H17.6255V4.84362H12.4315V1.66562H18.0035V0.545624H11.1015Z" fill="#F6504B"/>
<path d="M22.4881 1.66562V10.5416H23.8181V1.66562H27.1501V0.545624H19.1561V1.66562H22.4881Z" fill="#F6504B"/>
<path d="M29.256 6.41162L30.95 1.74962H30.978L32.644 6.41162H29.256ZM30.25 0.545624L26.358 10.5416H27.716L28.836 7.53162H33.064L34.156 10.5416H35.626L31.72 0.545624H30.25Z" fill="#F6504B"/>
</svg>
