<svg width="48" height="48" viewBox="0 0 48 48" fill="none" xmlns="http://www.w3.org/2000/svg">
<path d="M24 48C37.2548 48 48 37.2548 48 24C48 10.7452 37.2548 0 24 0C10.7452 0 0 10.7452 0 24C0 37.2548 10.7452 48 24 48Z" fill="url(#paint0_linear)"/>
<path d="M24 46.5C11.5935 46.5 1.5 36.4065 1.5 24C1.5 11.5935 11.5935 1.5 24 1.5C36.4065 1.5 46.5 11.5935 46.5 24C46.5 36.4065 36.4065 46.5 24 46.5ZM24 3.40531C12.6441 3.40531 3.40531 12.6441 3.40531 24C3.40531 35.3559 12.6441 44.5947 24 44.5947C35.3559 44.5947 44.5959 35.3559 44.5959 24C44.5959 12.6441 35.3559 3.40531 24 3.40531Z" fill="#28646E"/>
<path d="M22.5119 19.8894C22.3818 19.8898 22.2548 19.8504 22.1477 19.7766C22.0406 19.7029 21.9585 19.5982 21.9125 19.4766C21.8665 19.3549 21.8586 19.2222 21.89 19.096C21.9214 18.9698 21.9905 18.8561 22.0882 18.7703C23.8955 17.1784 24.6951 15.8633 24.8372 15.616C25.3686 14.6903 26.2221 14.2115 27.1184 14.3339C27.2865 14.3568 27.4385 14.4455 27.5412 14.5806C27.6438 14.7156 27.6886 14.8859 27.6657 15.0539C27.6429 15.222 27.5541 15.3741 27.4191 15.4767C27.2841 15.5794 27.1138 15.6242 26.9457 15.6013C26.4229 15.5315 26.0727 16.0335 25.9466 16.2539C25.7874 16.5319 24.8923 18.0037 22.9355 19.7303C22.8183 19.8329 22.6677 19.8895 22.5119 19.8894Z" fill="#28646E"/>
<path d="M11.745 30.7346C11.6136 30.7344 11.4854 30.6938 11.3778 30.6183C11.2703 30.5428 11.1886 30.436 11.1438 30.3125C11.099 30.189 11.0933 30.0546 11.1275 29.9278C11.1616 29.8009 11.234 29.6876 11.3348 29.6032C12.0767 29.0171 12.8641 28.4909 13.6895 28.0297C13.8402 27.9619 14.0114 27.9551 14.1672 28.0106C14.3229 28.0661 14.4512 28.1797 14.525 28.3276C14.5989 28.4756 14.6127 28.6463 14.5636 28.8042C14.5144 28.9621 14.4061 29.0948 14.2613 29.1746C13.525 29.5927 12.8207 30.0646 12.1539 30.5865C12.0394 30.6826 11.8945 30.7351 11.745 30.7346Z" fill="#28646E"/>
<path d="M27.8294 24.6649C28.0829 24.9024 28.378 24.7996 28.6498 24.5424C30.5037 22.7755 32.4678 20.0008 33.1229 18.5608C33.2625 18.2535 33.5453 18.082 33.849 18.2033C34.2053 18.3478 34.2004 18.9612 33.8772 19.6273C33.02 21.3906 31.8323 23.3327 29.4861 25.762C29.4365 25.8087 29.3972 25.8652 29.3706 25.9279C29.3441 25.9906 29.3309 26.0582 29.3319 26.1263C29.333 26.1944 29.3482 26.2615 29.3767 26.3234C29.4051 26.3853 29.4462 26.4406 29.4972 26.4857C29.7041 26.6718 30.0396 26.6596 30.3543 26.34C31.5727 25.0971 32.3931 24.1359 33.0984 23.138C33.2784 22.8759 33.4964 22.7706 33.7106 22.8184C34.0192 22.8796 34.0682 23.1759 33.9739 23.5322C33.8208 24.1078 32.2021 26.2261 31.5617 26.9449C29.8229 28.8845 28.0829 29.9473 24.7364 31.6873C23.5682 32.2996 22.6939 32.8751 22.1649 33.769C21.6837 34.582 21.5392 34.8478 21.4902 34.9506C21.3959 35.1417 21.3804 35.3623 21.447 35.5647C21.5137 35.7672 21.6571 35.9353 21.8466 36.0331C21.9431 36.0793 22.0481 36.1053 22.1551 36.1095C22.2621 36.1138 22.3688 36.0962 22.4687 36.0578C22.5687 36.0194 22.6597 35.961 22.7363 35.8862C22.813 35.8115 22.8735 35.7218 22.9143 35.6229C22.9143 35.6131 22.8898 35.6363 23.5192 34.5722C23.9918 33.812 24.6773 33.2073 25.4906 32.8335C28.8384 31.3078 30.2098 30.1004 32.1519 28.1584C33.0384 27.2718 34.2629 25.3727 34.6008 24.8106C35.5364 23.2359 35.0453 21.8853 34.2004 21.6563C34.1841 21.6523 34.169 21.6446 34.1562 21.6337C34.1434 21.6228 34.1333 21.6091 34.1268 21.5936C34.1203 21.5782 34.1174 21.5614 34.1185 21.5446C34.1196 21.5279 34.1246 21.5116 34.1331 21.4971C34.787 20.3767 35.0845 19.6029 35.2082 19.0029C35.3747 18.1873 35.1433 17.198 34.0241 16.9567C34.0101 16.9533 33.9969 16.9471 33.9853 16.9385C33.9737 16.9299 33.964 16.919 33.9567 16.9066C33.9494 16.8941 33.9446 16.8804 33.9427 16.866C33.9409 16.8517 33.9419 16.8372 33.9457 16.8233C34.0155 16.5649 34.0853 16.2392 34.1331 16.0249C34.3682 14.9657 33.6984 14.0069 32.8939 13.8343C32.6345 13.7762 32.3658 13.7742 32.1056 13.8285C31.8454 13.8828 31.5998 13.9921 31.3853 14.149C31.3554 14.1691 31.3192 14.1777 31.2834 14.1732C31.2476 14.1687 31.2147 14.1514 31.1906 14.1245C31.0851 14.0064 30.9567 13.9109 30.8131 13.844C30.6695 13.777 30.5139 13.74 30.3555 13.7351C29.6539 13.7229 28.9645 13.9384 28.46 15.0159C28.0988 15.7861 27.5613 16.8208 25.9866 18.5669C24.5257 20.1869 22.4919 21.7665 21.2368 22.5906C21.0164 22.7351 20.7078 22.7008 20.747 22.4057C20.8057 21.9355 21.309 18.7824 21.3947 17.8531C21.5343 16.3433 20.7225 15.649 19.8115 15.5265C19.0621 15.4249 17.9245 15.6404 17.3013 17.3473C16.9339 18.3478 16.1747 19.991 15.5294 22.6384C15.0751 24.5008 15.0004 26.6718 15.4155 29.1661C15.4419 29.3166 15.4127 29.4715 15.3335 29.602C14.8364 30.42 14.109 31.4963 13.7025 32.4355C13.6214 32.6176 13.6107 32.8233 13.6724 33.0128C13.7342 33.2023 13.864 33.3622 14.0368 33.4616C14.1311 33.5131 14.2349 33.5448 14.3418 33.5548C14.4488 33.5647 14.5567 33.5527 14.6589 33.5194C14.761 33.4862 14.8553 33.4324 14.936 33.3614C15.0166 33.2904 15.0819 33.2037 15.1278 33.1065C15.3727 32.5971 15.8625 31.6371 16.0596 31.2441C16.3976 30.5522 16.6217 30.0955 16.7135 29.8078C16.7968 29.5457 16.8457 29.242 16.6951 28.5514C16.4404 27.3894 16.351 25.2049 16.8249 23.28C17.3416 21.2867 17.9712 19.3243 18.7106 17.4024C18.9017 16.931 19.1723 16.7841 19.4453 16.8086C19.7184 16.8331 20.2327 16.9641 20.0845 17.9241C19.82 19.6494 19.4453 21.8424 19.3217 22.5771C19.2617 22.9384 19.1919 23.7833 19.8592 24.169C20.3796 24.4702 20.9527 24.3024 21.5857 23.88C23.011 22.9298 25.4661 20.9939 27.009 19.2612C28.6278 17.4429 29.1433 16.3604 29.5596 15.3808C29.7494 14.9339 30.2368 14.9375 30.4094 14.9878C30.5821 15.038 30.7902 15.2706 30.6433 15.7629C30.2845 16.958 28.8066 19.6959 25.9584 22.2637C25.6364 22.5551 25.6817 22.8992 25.8457 23.0792C26.0098 23.2592 26.3 23.3669 26.6319 23.0792C29.191 20.8971 30.6519 18.289 31.3082 16.8943C31.5268 16.4298 31.7142 15.9511 31.869 15.4616C32.0086 15.0563 32.3208 14.9118 32.5388 14.9571C32.8498 15.0233 33.0555 15.3429 32.9564 15.8682C32.7974 16.5403 32.5637 17.1925 32.2596 17.8127C31.4392 19.5539 29.7066 21.8841 27.838 23.8849C27.7829 23.9335 27.7386 23.9932 27.7079 24.0601C27.6773 24.1269 27.6611 24.1995 27.6603 24.273C27.6595 24.3465 27.6741 24.4194 27.7033 24.4869C27.7324 24.5544 27.7754 24.615 27.8294 24.6649V24.6649Z" fill="#28646E"/>
<path d="M16.2576 15.993C16.3568 15.9061 16.3176 15.7946 16.2894 15.7053C16.1523 15.2657 15.3674 13.4265 15.1616 13.0567C15.0576 12.8706 14.9265 12.8449 14.7857 12.8987C14.6008 12.9697 14.3719 13.1436 14.0216 13.4473C13.6714 13.751 13.4731 13.9591 13.3788 14.133C13.3065 14.2665 13.3151 14.4 13.4865 14.5261C13.8257 14.7783 15.5474 15.7959 15.9661 15.9955C16.0506 16.0346 16.1559 16.0873 16.2551 15.9955L16.2576 15.993Z" fill="#28646E"/>
<path d="M30.4496 32.2739C30.3185 32.2825 30.2818 32.3964 30.25 32.4821C30.092 32.9156 29.5973 34.8539 29.5373 35.2727C29.5067 35.4821 29.5949 35.5825 29.7393 35.6254C29.9291 35.6817 30.2144 35.6854 30.6798 35.6535C31.1451 35.6217 31.4255 35.5813 31.6067 35.4993C31.7451 35.438 31.8185 35.3266 31.7598 35.1221C31.6434 34.7168 30.894 32.8617 30.6798 32.4527C30.6369 32.3707 30.5842 32.2641 30.4532 32.2739H30.4496Z" fill="#28646E"/>
<path d="M31.5688 31.3751C31.5088 31.4914 31.5847 31.582 31.6435 31.6543C31.9313 32.0143 33.3308 33.4432 33.6566 33.7126C33.8206 33.8486 33.9517 33.8253 34.0631 33.7237C34.21 33.5902 34.3619 33.349 34.5761 32.9351C34.7904 32.5212 34.9019 32.2592 34.9264 32.0632C34.9459 31.9139 34.8884 31.7926 34.6815 31.7363C34.2737 31.6249 32.2998 31.3004 31.8394 31.2722C31.7464 31.2661 31.6288 31.2551 31.5676 31.3726L31.5688 31.3751Z" fill="#28646E"/>
<path d="M15.5815 17.1931C15.5583 17.0633 15.4419 17.0388 15.3525 17.0168C14.9044 16.9066 12.9232 16.6274 12.5007 16.6115C12.2889 16.6041 12.1983 16.7033 12.1713 16.8564C12.1358 17.0511 12.164 17.3351 12.246 17.7931C12.3281 18.2511 12.3991 18.5278 12.4995 18.6992C12.5766 18.829 12.6954 18.8902 12.8913 18.8106C13.2832 18.6502 15.0452 17.7086 15.4272 17.4466C15.5044 17.3939 15.6048 17.3315 15.5815 17.2017V17.1931Z" fill="#28646E"/>
<path d="M24.0029 42.8595C24.3972 42.8595 24.7168 42.5399 24.7168 42.1456C24.7168 41.7514 24.3972 41.4318 24.0029 41.4318C23.6087 41.4318 23.2891 41.7514 23.2891 42.1456C23.2891 42.5399 23.6087 42.8595 24.0029 42.8595Z" fill="#28646E"/>
<path d="M24.0029 6.56814C24.3972 6.56814 24.7168 6.24852 24.7168 5.85426C24.7168 5.45999 24.3972 5.14038 24.0029 5.14038C23.6087 5.14038 23.2891 5.45999 23.2891 5.85426C23.2891 6.24852 23.6087 6.56814 24.0029 6.56814Z" fill="#28646E"/>
<path d="M28.6983 42.2412C29.0925 42.2412 29.4121 41.9216 29.4121 41.5274C29.4121 41.1331 29.0925 40.8135 28.6983 40.8135C28.304 40.8135 27.9844 41.1331 27.9844 41.5274C27.9844 41.9216 28.304 42.2412 28.6983 42.2412Z" fill="#28646E"/>
<path d="M19.3037 7.18654C19.698 7.18654 20.0176 6.86693 20.0176 6.47267C20.0176 6.0784 19.698 5.75879 19.3037 5.75879C18.9095 5.75879 18.5898 6.0784 18.5898 6.47267C18.5898 6.86693 18.9095 7.18654 19.3037 7.18654Z" fill="#28646E"/>
<path d="M33.0733 40.429C33.4675 40.429 33.7871 40.1094 33.7871 39.7151C33.7871 39.3208 33.4675 39.0012 33.0733 39.0012C32.679 39.0012 32.3594 39.3208 32.3594 39.7151C32.3594 40.1094 32.679 40.429 33.0733 40.429Z" fill="#28646E"/>
<path d="M14.9248 8.9988C15.3191 8.9988 15.6387 8.67919 15.6387 8.28492C15.6387 7.89066 15.3191 7.57104 14.9248 7.57104C14.5306 7.57104 14.2109 7.89066 14.2109 8.28492C14.2109 8.67919 14.5306 8.9988 14.9248 8.9988Z" fill="#28646E"/>
<path d="M36.8311 37.5454C37.2253 37.5454 37.5449 37.2258 37.5449 36.8316C37.5449 36.4373 37.2253 36.1177 36.8311 36.1177C36.4368 36.1177 36.1172 36.4373 36.1172 36.8316C36.1172 37.2258 36.4368 37.5454 36.8311 37.5454Z" fill="#28646E"/>
<path d="M11.167 11.8825C11.5613 11.8825 11.8809 11.5629 11.8809 11.1686C11.8809 10.7743 11.5613 10.4547 11.167 10.4547C10.7727 10.4547 10.4531 10.7743 10.4531 11.1686C10.4531 11.5629 10.7727 11.8825 11.167 11.8825Z" fill="#28646E"/>
<path d="M39.7139 33.7874C40.1081 33.7874 40.4278 33.4678 40.4278 33.0735C40.4278 32.6792 40.1081 32.3596 39.7139 32.3596C39.3196 32.3596 39 32.6792 39 33.0735C39 33.4678 39.3196 33.7874 39.7139 33.7874Z" fill="#28646E"/>
<path d="M8.28419 15.6404C8.67845 15.6404 8.99807 15.3208 8.99807 14.9265C8.99807 14.5323 8.67845 14.2126 8.28419 14.2126C7.88993 14.2126 7.57031 14.5323 7.57031 14.9265C7.57031 15.3208 7.88993 15.6404 8.28419 15.6404Z" fill="#28646E"/>
<path d="M41.5264 29.4098C41.9206 29.4098 42.2403 29.0902 42.2403 28.6959C42.2403 28.3017 41.9206 27.9821 41.5264 27.9821C41.1321 27.9821 40.8125 28.3017 40.8125 28.6959C40.8125 29.0902 41.1321 29.4098 41.5264 29.4098Z" fill="#28646E"/>
<path d="M6.4756 20.018C6.86986 20.018 7.18947 19.6983 7.18947 19.3041C7.18947 18.9098 6.86986 18.5902 6.4756 18.5902C6.08133 18.5902 5.76172 18.9098 5.76172 19.3041C5.76172 19.6983 6.08133 20.018 6.4756 20.018Z" fill="#28646E"/>
<path d="M42.1475 24.7138C42.5417 24.7138 42.8613 24.3942 42.8613 23.9999C42.8613 23.6056 42.5417 23.286 42.1475 23.286C41.7532 23.286 41.4336 23.6056 41.4336 23.9999C41.4336 24.3942 41.7532 24.7138 42.1475 24.7138Z" fill="#28646E"/>
<path d="M5.8545 24.7138C6.24877 24.7138 6.56838 24.3942 6.56838 23.9999C6.56838 23.6056 6.24877 23.286 5.8545 23.286C5.46024 23.286 5.14062 23.6056 5.14062 23.9999C5.14062 24.3942 5.46024 24.7138 5.8545 24.7138Z" fill="#28646E"/>
<path d="M41.5264 20.018C41.9206 20.018 42.2403 19.6983 42.2403 19.3041C42.2403 18.9098 41.9206 18.5902 41.5264 18.5902C41.1321 18.5902 40.8125 18.9098 40.8125 19.3041C40.8125 19.6983 41.1321 20.018 41.5264 20.018Z" fill="#28646E"/>
<path d="M6.4756 29.4098C6.86986 29.4098 7.18947 29.0902 7.18947 28.6959C7.18947 28.3017 6.86986 27.9821 6.4756 27.9821C6.08133 27.9821 5.76172 28.3017 5.76172 28.6959C5.76172 29.0902 6.08133 29.4098 6.4756 29.4098Z" fill="#28646E"/>
<path d="M39.7139 15.6404C40.1081 15.6404 40.4278 15.3208 40.4278 14.9265C40.4278 14.5323 40.1081 14.2126 39.7139 14.2126C39.3196 14.2126 39 14.5323 39 14.9265C39 15.3208 39.3196 15.6404 39.7139 15.6404Z" fill="#28646E"/>
<path d="M8.28419 33.7874C8.67845 33.7874 8.99807 33.4678 8.99807 33.0735C8.99807 32.6792 8.67845 32.3596 8.28419 32.3596C7.88993 32.3596 7.57031 32.6792 7.57031 33.0735C7.57031 33.4678 7.88993 33.7874 8.28419 33.7874Z" fill="#28646E"/>
<path d="M36.8311 11.8825C37.2253 11.8825 37.5449 11.5629 37.5449 11.1686C37.5449 10.7743 37.2253 10.4547 36.8311 10.4547C36.4368 10.4547 36.1172 10.7743 36.1172 11.1686C36.1172 11.5629 36.4368 11.8825 36.8311 11.8825Z" fill="#28646E"/>
<path d="M11.167 37.5454C11.5613 37.5454 11.8809 37.2258 11.8809 36.8316C11.8809 36.4373 11.5613 36.1177 11.167 36.1177C10.7727 36.1177 10.4531 36.4373 10.4531 36.8316C10.4531 37.2258 10.7727 37.5454 11.167 37.5454Z" fill="#28646E"/>
<path d="M33.0733 8.9988C33.4675 8.9988 33.7871 8.67919 33.7871 8.28492C33.7871 7.89066 33.4675 7.57104 33.0733 7.57104C32.679 7.57104 32.3594 7.89066 32.3594 8.28492C32.3594 8.67919 32.679 8.9988 33.0733 8.9988Z" fill="#28646E"/>
<path d="M14.9248 40.429C15.3191 40.429 15.6387 40.1094 15.6387 39.7151C15.6387 39.3208 15.3191 39.0012 14.9248 39.0012C14.5306 39.0012 14.2109 39.3208 14.2109 39.7151C14.2109 40.1094 14.5306 40.429 14.9248 40.429Z" fill="#28646E"/>
<path d="M28.6983 7.18654C29.0925 7.18654 29.4121 6.86693 29.4121 6.47267C29.4121 6.0784 29.0925 5.75879 28.6983 5.75879C28.304 5.75879 27.9844 6.0784 27.9844 6.47267C27.9844 6.86693 28.304 7.18654 28.6983 7.18654Z" fill="#28646E"/>
<path d="M19.3037 42.2412C19.698 42.2412 20.0176 41.9216 20.0176 41.5274C20.0176 41.1331 19.698 40.8135 19.3037 40.8135C18.9095 40.8135 18.5898 41.1331 18.5898 41.5274C18.5898 41.9216 18.9095 42.2412 19.3037 42.2412Z" fill="#28646E"/>
<defs>
<linearGradient id="paint0_linear" x1="0" y1="24" x2="48" y2="24" gradientUnits="userSpaceOnUse">
<stop stop-color="#D2F0F0"/>
<stop offset="1" stop-color="#F0E6B4"/>
</linearGradient>
</defs>
</svg>
