<svg width="248" height="60" viewBox="0 0 248 60" fill="none" xmlns="http://www.w3.org/2000/svg">
<path fill-rule="evenodd" clip-rule="evenodd" d="M26.8976 57.1622C22.4103 59.0109 17.9884 60 14.1216 60C10.711 60 7.86953 59.2094 5.94726 57.6859C3.84442 56.0219 2.3234 53.0907 1.34554 48.9855C0.366198 44.8737 -0.0774032 39.5434 0.0110199 33.03C0.0986999 26.803 0.542301 21.7478 1.3708 17.7773C2.19113 13.8457 3.39339 10.9508 5.02662 9.0377C6.14491 5.17051 7.7655 2.58506 9.96865 1.22569C12.2617 -0.196679 15.76 -0.333642 19.7405 0.569435C23.7352 1.47544 28.2774 3.44199 32.7127 6.31199C36.2147 8.57041 39.739 11.4972 42.5826 14.8407C48.5598 20.2566 53.3153 27.4761 52.3827 35.0251C51.607 41.1951 46.2578 49.5828 33.5992 54.8346C31.6286 55.6575 29.6565 56.3049 27.761 56.7773L27.7521 56.7817L27.6964 56.8074C27.5715 56.866 27.4445 56.9249 27.3167 56.9821C27.1777 57.0447 27.038 57.1055 26.8976 57.1622ZM40.1075 45.0392C37.4184 47.2544 34.0494 49.3173 29.8988 51.0414C25.4115 52.8904 20.9881 53.8802 17.1213 53.8802C15.9391 53.8802 14.8319 53.7803 13.8087 53.5964L13.9611 53.7242C15.2629 54.7496 17.1161 55.3627 19.3712 55.5428C20.52 55.6348 21.7676 55.6139 23.0909 55.4799C24.3556 55.3521 25.6901 55.121 27.0729 54.787C33.2834 52.0342 37.4838 48.5299 40.1075 45.0392ZM43.4386 37.9083C43.4936 37.6267 43.5367 37.3531 43.565 37.0843C44.1178 32.6195 42.3917 28.2015 39.4997 24.2329C36.61 20.2661 32.5737 16.7754 28.565 14.18C23.0478 10.6033 17.4787 8.50669 13.2433 8.19688C11.8872 9.85911 10.8321 12.4962 10.0935 16.1839C9.33854 19.9526 8.9202 24.787 8.83327 30.7313C8.69803 40.1558 9.67811 46.8464 11.6948 50.7777C13.5866 51.6519 16.1501 51.9653 19.1268 51.6965C22.1465 51.4233 25.569 50.5525 29.1 49.0862C35.9814 46.2228 40.5222 42.4416 43.2551 38.7132C43.3257 38.436 43.3874 38.1687 43.4386 37.9083ZM15.5675 6.43138C19.8349 7.19419 24.8401 9.26109 29.7137 12.4123C33.7099 14.9982 37.7454 18.457 40.7718 22.4322C43.507 26.0233 45.4315 30.0531 45.7399 34.2521C46.1842 33.1058 46.4569 31.9973 46.584 30.965C47.2119 25.8263 44.8192 20.7305 41.133 16.3659C39.2798 14.6817 37.2921 13.1711 35.3045 11.893C29.4656 8.11521 23.3295 5.88023 18.8741 5.88023C18.2685 5.88023 17.7068 5.92088 17.1904 5.99998C16.5877 6.09226 16.0468 6.23692 15.5675 6.43138ZM8.0865 9.1201C7.68228 9.36729 7.29218 9.68333 6.93254 10.0539C5.8254 14.0797 5.22872 19.6776 5.13213 26.9183C5.05411 32.577 5.37585 37.2627 6.08621 40.9585C6.6108 43.6871 7.34493 45.8599 8.27598 47.4833C7.14431 43.2671 6.62863 37.6611 6.73043 30.7031C6.80845 25.0144 7.18444 20.3042 7.87993 16.5062C8.51747 13.0217 9.42771 10.2887 10.6374 8.26902C10.1239 8.3386 9.64988 8.44664 9.21742 8.59275C8.8028 8.73301 8.42533 8.90879 8.0865 9.1201ZM26.5959 5.25694C22.4036 3.21348 18.3517 2.0676 15.1737 2.0676C13.455 2.0676 12.0967 2.3939 11.107 3.01939C9.95973 3.72654 8.94993 4.96104 8.11919 6.77122C9.31996 6.30064 10.7451 6.08567 12.3234 6.10508C12.7543 5.68284 13.1927 5.32505 13.6884 5.0189C15.5363 3.86094 18.1816 3.55406 21.2251 3.95652C22.9015 4.17845 24.7108 4.6168 26.5959 5.25694ZM9.90103 52.1869L9.79849 52.1228L9.60381 51.9972C9.3861 51.8536 9.17656 51.705 8.97222 51.5511L8.96627 51.5467C6.86418 49.8831 5.33795 46.9519 4.35713 42.8463C3.37556 38.7345 2.93195 33.4043 3.03004 26.8909C3.06719 23.6869 3.2106 20.789 3.45358 18.1875C2.65702 21.9983 2.21714 26.9286 2.13243 33.0381C2.04549 39.2831 2.43931 44.3364 3.30645 48.1835C4.17508 52.0389 5.50886 54.6368 7.25948 56.0303C8.55165 57.0469 10.3959 57.6603 12.6421 57.8427C14.3385 57.9807 16.2534 57.8719 18.3101 57.5131C16.0208 57.2095 14.0918 56.4913 12.6667 55.359C11.7141 54.6021 10.8856 53.5968 10.1782 52.352C10.0846 52.2978 9.99168 52.2425 9.90103 52.1869ZM48.2596 25.2275C48.747 27.1838 48.9112 29.1965 48.663 31.2316C48.3458 33.7749 47.2631 36.6991 45.193 39.6145C44.2545 42.9521 42.0417 46.7076 38.2165 50.18C46.2035 45.4105 49.6988 39.3263 50.2658 34.7772C50.676 31.5256 49.8616 28.2843 48.2596 25.2275ZM145.845 22.2711C146.38 22.6282 146.737 22.8834 146.941 23.0875L149.566 18.3421C148.241 17.4492 146.66 16.6583 144.851 15.995C143.041 15.3317 141.053 15 138.912 15C137.383 15 135.93 15.2041 134.579 15.6123C133.228 16.046 132.055 16.6328 131.036 17.4237C130.042 18.2146 129.252 19.184 128.666 20.3831C128.079 21.5822 127.799 22.9344 127.799 24.4651C127.799 25.6132 127.977 26.6082 128.334 27.4501C128.691 28.2665 129.226 29.0064 129.94 29.6442C130.654 30.282 131.546 30.8433 132.616 31.3025C133.687 31.7872 134.961 32.1954 136.414 32.6036C137.612 32.9353 138.708 33.2415 139.677 33.5221C140.645 33.8282 141.486 34.1344 142.174 34.466C142.863 34.8232 143.372 35.2059 143.755 35.6651C144.137 36.1244 144.316 36.6601 144.316 37.3234C144.316 39.3899 142.684 40.4105 139.422 40.4105C138.249 40.4105 137.102 40.2574 135.981 39.9767C134.859 39.6961 133.84 39.3389 132.922 38.9307C132.004 38.5225 131.214 38.1143 130.552 37.7061C129.863 37.2979 129.405 36.9663 129.15 36.7112L126.524 41.7626C128.309 43.0127 130.297 43.9567 132.54 44.6455C134.757 45.3344 137.026 45.666 139.32 45.666C140.824 45.666 142.251 45.5129 143.602 45.1813C144.978 44.8496 146.176 44.3394 147.221 43.625C148.266 42.9107 149.107 41.9922 149.719 40.8442C150.331 39.6961 150.637 38.3184 150.637 36.7112C150.637 35.3335 150.407 34.1854 149.948 33.2159C149.49 32.2464 148.827 31.4556 147.986 30.7667C147.145 30.0779 146.125 29.5166 144.902 29.0574C143.678 28.5982 142.327 28.19 140.849 27.7818C140.499 27.6884 140.161 27.5998 139.836 27.5145L139.836 27.5145C139.094 27.32 138.418 27.1427 137.816 26.9654C136.949 26.7102 136.236 26.4296 135.649 26.1234C135.089 25.8173 134.655 25.4601 134.349 25.0519C134.044 24.6437 133.891 24.108 133.891 23.4957C133.891 22.4241 134.298 21.5822 135.089 20.9954C135.879 20.4087 137.102 20.1025 138.733 20.1025C139.651 20.1025 140.543 20.2046 141.435 20.4342C142.327 20.6638 143.143 20.9444 143.908 21.2761C144.672 21.6077 145.31 21.9394 145.845 22.2711ZM90.636 30.2297C90.636 28.801 90.4321 27.4489 90.0243 26.2498C89.6165 25.0252 89.0302 23.9792 88.2656 23.1118C87.5009 22.2443 86.5324 21.5555 85.4109 21.0708C84.2894 20.586 82.9894 20.3564 81.5621 20.3564H76.4134V40.2051H81.5621C83.0149 40.2051 84.3148 39.95 85.4618 39.4397C86.5833 38.9295 87.5264 38.2407 88.291 37.3477C89.0557 36.4548 89.6165 35.4088 90.0243 34.1842C90.4321 32.9596 90.636 31.6329 90.636 30.2297ZM70.5 45.3331V15.2029H81.5876C84.0855 15.2029 86.2519 15.5856 88.1381 16.402C90.0242 17.1929 91.5791 18.2644 92.8535 19.6165C94.1024 20.9687 95.0456 22.576 95.6828 24.3874C96.32 26.1988 96.6258 28.1632 96.6258 30.2297C96.6258 32.5259 96.269 34.5924 95.5808 36.4548C94.8671 38.3172 93.8731 39.899 92.5476 41.2001C91.2222 42.5012 89.642 43.5217 87.8068 44.2616C85.9461 44.9759 83.8815 45.3331 81.5876 45.3331H70.5ZM122.141 40.1804V45.3338H100.96V15.2036H121.759V20.3316H106.899V27.5772H119.745V32.348H106.899V40.1804H122.141ZM180.662 45.3338V25.3831L172.812 40.2313H169.575L161.724 25.3831V45.3338H155.785V15.2036H162.158L171.181 32.348L180.28 15.2036H186.601V45.3338H180.662ZM197.943 34.0323C197.535 32.8077 197.331 31.5576 197.331 30.2565C197.331 29.0064 197.51 27.7818 197.917 26.5827C198.3 25.3836 198.861 24.3121 199.6 23.3681C200.364 22.4241 201.282 21.6588 202.403 21.072C203.525 20.4852 204.799 20.2046 206.227 20.2046C207.603 20.2046 208.852 20.4597 209.948 21.0209C211.07 21.5567 211.987 22.2966 212.752 23.2406C213.517 24.159 214.103 25.2305 214.511 26.4551C214.918 27.6797 215.122 28.9298 215.122 30.231C215.122 31.4811 214.918 32.7057 214.536 33.9048C214.154 35.1038 213.593 36.1754 212.828 37.1449C212.064 38.1143 211.121 38.8797 210.025 39.4665C208.929 40.0532 207.654 40.3339 206.227 40.3339C204.825 40.3339 203.576 40.0533 202.48 39.492C201.358 38.9307 200.441 38.1908 199.676 37.2469C198.912 36.3284 198.351 35.2569 197.943 34.0323ZM200.11 44.2373C201.919 45.1047 203.933 45.5384 206.176 45.5384C208.317 45.5384 210.305 45.1047 212.166 44.3139C213.975 43.4719 215.556 42.3494 216.881 40.9462C218.181 39.543 219.226 37.9357 219.965 36.0988C220.704 34.2874 221.087 32.374 221.087 30.3585C221.087 28.4451 220.73 26.5827 220.016 24.7458C219.302 22.9089 218.308 21.2761 217.008 19.8219C215.708 18.3932 214.154 17.2196 212.344 16.3267C210.509 15.4337 208.495 15 206.303 15C204.162 15 202.174 15.4082 200.339 16.2501C198.504 17.092 196.923 18.2146 195.598 19.6178C194.273 21.0209 193.228 22.6537 192.463 24.4906C191.698 26.3275 191.316 28.241 191.316 30.2565C191.316 32.1699 191.673 34.0578 192.386 35.8947C193.1 37.7316 194.12 39.3644 195.42 40.7931C196.719 42.2218 198.3 43.3699 200.11 44.2373ZM244 23.0875C243.796 22.8834 243.439 22.6282 242.904 22.2711C242.369 21.9394 241.731 21.6077 240.967 21.2761C240.202 20.9444 239.386 20.6638 238.494 20.4342C237.602 20.2046 236.71 20.1025 235.793 20.1025C234.161 20.1025 232.938 20.4087 232.148 20.9954C231.357 21.5822 230.95 22.4241 230.95 23.4957C230.95 24.108 231.103 24.6437 231.409 25.0519C231.714 25.4601 232.148 25.8173 232.708 26.1234C233.295 26.4296 234.008 26.7102 234.875 26.9654C235.477 27.1427 236.154 27.32 236.895 27.5145C237.22 27.5998 237.558 27.6884 237.908 27.7818C239.386 28.19 240.737 28.5982 241.961 29.0574C243.184 29.5166 244.204 30.0779 245.045 30.7667C245.886 31.4556 246.549 32.2464 247.008 33.2159C247.466 34.1854 247.696 35.3335 247.696 36.7112C247.696 38.3184 247.39 39.6961 246.778 40.8442C246.166 41.9922 245.325 42.9107 244.28 43.625C243.235 44.3394 242.037 44.8496 240.661 45.1813C239.31 45.5129 237.883 45.666 236.379 45.666C234.085 45.666 231.816 45.3344 229.599 44.6455C227.356 43.9567 225.368 43.0127 223.583 41.7626L226.209 36.7112C226.464 36.9663 226.922 37.2979 227.611 37.7061C228.273 38.1143 229.064 38.5225 229.981 38.9307C230.899 39.3389 231.918 39.6961 233.04 39.9767C234.161 40.2574 235.308 40.4105 236.481 40.4105C239.743 40.4105 241.375 39.3899 241.375 37.3234C241.375 36.6601 241.196 36.1244 240.814 35.6651C240.432 35.2059 239.922 34.8232 239.233 34.466C238.545 34.1344 237.704 33.8282 236.736 33.5221C235.767 33.2415 234.671 32.9353 233.473 32.6036C232.02 32.1954 230.746 31.7872 229.675 31.3025C228.605 30.8433 227.713 30.282 226.999 29.6442C226.285 29.0064 225.75 28.2665 225.393 27.4501C225.036 26.6082 224.858 25.6132 224.858 24.4651C224.858 22.9344 225.138 21.5822 225.725 20.3831C226.311 19.184 227.101 18.2146 228.095 17.4237C229.115 16.6328 230.287 16.046 231.638 15.6123C232.989 15.2041 234.442 15 235.971 15C238.112 15 240.1 15.3317 241.91 15.995C243.72 16.6583 245.3 17.4492 246.625 18.3421L244 23.0875Z" fill="#ED6C53"/>
</svg>
