<svg version="1.2" xmlns="http://www.w3.org/2000/svg" viewBox="0 0 295 40" width="295" height="40"><defs><clipPath clipPathUnits="userSpaceOnUse" id="cp1"><path d="m0 0h294.83v39.42h-294.83z"/></clipPath></defs><style>.a{fill:#fff}.b{fill:#e50913}</style><g clip-path="url(#cp1)"><path class="a" d="m54.5 17.5v5.4h7.6v5.1h-7.6v5.8h9.8v5.3h-16.3v-26.8h16.3v5.2z"/><path fill-rule="evenodd" class="a" d="m86 38.9l-5-10.1h-2.6v10.1h-6.5v-26.8h10.8q3.2 0 5.4 1.1 2.2 1.1 3.3 3.1 1.1 1.9 1.1 4.2 0 2.7-1.5 4.8-1.5 2.1-4.4 3l6.2 10.6zm-7.7-14.7h4.1q1.7 0 2.6-0.9 0.9-0.9 0.9-2.5 0-1.5-0.9-2.4-0.9-0.9-2.6-0.9h-4.1z"/><path class="a" d="m108.9 39.3q-2.9 0-5.2-0.9-2.3-1-3.7-2.8-1.4-1.9-1.5-4.6h6.9q0.2 1.5 1 2.3 0.9 0.8 2.3 0.8 1.4 0 2.3-0.6 0.8-0.7 0.8-1.9 0-1-0.7-1.7-0.6-0.6-1.6-1-0.9-0.4-2.7-1-2.6-0.8-4.2-1.6-1.7-0.8-2.8-2.4-1.2-1.5-1.2-4 0-3.8 2.7-5.9 2.7-2.1 7-2.1 4.4 0 7.1 2.1 2.7 2.1 2.9 5.9h-7.1q0-1.3-0.9-2-0.9-0.8-2.2-0.8-1.2 0-1.9 0.7-0.8 0.6-0.8 1.8 0 1.2 1.3 2 1.2 0.7 3.7 1.5 2.6 0.9 4.2 1.7 1.6 0.8 2.8 2.4 1.2 1.5 1.2 3.9 0 2.3-1.2 4.2-1.1 1.8-3.3 2.9-2.2 1.1-5.2 1.1z"/><path class="a" d="m125.6 12.3h6.5v26.8h-6.5z"/><path class="a" d="m149.4 39.3q-2.9 0-5.2-0.9-2.3-1-3.7-2.8-1.4-1.9-1.4-4.6h6.9q0.1 1.5 1 2.3 0.9 0.8 2.3 0.8 1.4 0 2.2-0.6 0.9-0.7 0.9-1.9 0-1-0.7-1.7-0.7-0.6-1.6-1-1-0.4-2.8-1-2.6-0.8-4.2-1.6-1.6-0.8-2.8-2.4-1.2-1.5-1.2-4 0-3.8 2.7-5.9 2.7-2.1 7-2.1 4.4 0 7.1 2.1 2.7 2.1 2.9 5.9h-7q-0.1-1.3-1-2-0.8-0.8-2.2-0.8-1.2 0-1.9 0.7-0.7 0.6-0.7 1.8 0 1.2 1.2 2 1.2 0.7 3.8 1.5 2.6 0.9 4.2 1.7 1.6 0.8 2.8 2.4 1.1 1.5 1.1 3.9 0 2.3-1.1 4.2-1.2 1.8-3.4 2.9-2.2 1.1-5.2 1.1z"/><path class="a" d="m185.3 12.3v5.2h-7v21.6h-6.5v-21.6h-7.1v-5.2z"/><path class="a" d="m198.1 17.5v5.4h7.6v5.1h-7.6v5.8h9.8v5.3h-16.3v-26.8h16.3v5.2z"/><path class="a" d="m238.9 39.1h-6.5l-10.8-16.6v16.6h-6.5v-26.8h6.5l10.8 16.6v-16.6h6.5z"/><path class="a" d="m245.5 25.6q0-3.9 1.7-7 1.7-3.2 4.8-4.9 3.1-1.8 6.9-1.8 4.8 0 8.1 2.6 3.4 2.5 4.5 6.8h-7.1q-0.8-1.6-2.3-2.5-1.4-0.9-3.3-0.9-3 0-4.8 2.1-1.9 2.1-1.9 5.6 0 3.5 1.9 5.6 1.8 2.1 4.8 2.1 1.9 0 3.3-0.8 1.5-0.9 2.3-2.6h7.1q-1.1 4.4-4.5 6.9-3.3 2.5-8.1 2.5-3.8 0-6.9-1.8-3.1-1.7-4.8-4.8-1.7-3.1-1.7-7.1z"/><path class="a" d="m285 17.5v5.4h7.6v5.1h-7.6v5.8h9.8v5.3h-16.3v-26.8h16.3v5.2z"/><path class="a" d="m0.2 2.2c0-1.1 0.9-2 2-2h34.8c1.1 0 2 0.9 2 2v35.1c0 1.1-0.9 2-2 2h-34.8c-1.1 0-2-0.9-2-2z"/><path fill-rule="evenodd" d="m29.8 21q0 2.3-1 4.3-1.1 1.9-3.3 3.1-2.2 1.2-5.5 1.2h-4.1v9.8h-6.5v-27.1h10.6q3.2 0 5.4 1.1 2.2 1.1 3.3 3.1 1.1 1.9 1.1 4.5zm-10.3 3.4q1.8 0 2.8-0.9 0.9-0.9 0.9-2.5 0-1.6-0.9-2.5-1-0.9-2.8-0.9h-3.6v6.8z"/><path class="b" d="m9.4 5.4h20.4v4.4h-20.4z"/></g></svg>