<?xml version="1.0" encoding="utf-8"?>
<!-- Generator: Adobe Illustrator 24.0.1, SVG Export Plug-In . SVG Version: 6.00 Build 0)  -->
<svg version="1.1" id="home" xmlns="http://www.w3.org/2000/svg" xmlns:xlink="http://www.w3.org/1999/xlink" x="0px" y="0px"
	 viewBox="0 0 24 24" style="enable-background:new 0 0 24 24;" xml:space="preserve">
<style type="text/css">
	.st0{fill:none;}
	.st1{fill:#FD3B4C;}
	.st2{fill-rule:evenodd;clip-rule:evenodd;fill:#F4863B;}
	.st3{fill:#FFFFFF;}
	.st4{fill-rule:evenodd;clip-rule:evenodd;fill:#5C7BFC;}
	.st5{fill-rule:evenodd;clip-rule:evenodd;fill:#FEB92B;}
	.st6{fill-rule:evenodd;clip-rule:evenodd;fill:#3EAF66;}
	.st7{fill:#8F4DDB;}
	.st8{fill:#1D1E22;}
	.st9{fill:#FD565F;}
	.st10{fill:#25282D;}
	.st11{fill:#E6E6E6;}
	.st12{fill-rule:evenodd;clip-rule:evenodd;fill:#FD3B4C;}
	.st13{fill-rule:evenodd;clip-rule:evenodd;fill:#FFFFFF;}
	.st14{fill:#12B263;}
	.st15{fill:#3EAF66;}
	.st16{fill:#DC001A;}
	.st17{fill:#F6504B;}
	.st18{fill:#DB001A;}
	.st19{fill:#F54F4A;}
	.st20{fill:#231F20;}
	.st21{fill-rule:evenodd;clip-rule:evenodd;}
</style>
<g>
	<path d="M12,6.1c-3.2,0-5.9,2.6-5.9,5.9c0,3.2,2.6,5.9,5.9,5.9c3.2,0,5.9-2.6,5.9-5.9C17.9,8.8,15.2,6.1,12,6.1z M12,16.1
		c-2.2,0-4.1-1.8-4.1-4.1C7.9,9.8,9.8,8,12,8c2.2,0,4.1,1.8,4.1,4C16.1,14.3,14.2,16.1,12,16.1z"/>
	<path d="M12,5.7c0.5,0,0.9-0.4,0.9-0.9V1.2c0-0.5-0.4-0.9-0.9-0.9s-0.9,0.4-0.9,0.9v3.5C11.1,5.3,11.5,5.7,12,5.7z"/>
	<path d="M12,18.3c-0.5,0-0.9,0.4-0.9,0.9v3.5c0,0.5,0.4,0.9,0.9,0.9s0.9-0.4,0.9-0.9v-3.5C12.9,18.7,12.5,18.3,12,18.3z"/>
	<path d="M22.8,11.1h-3.5c-0.5,0-0.9,0.4-0.9,0.9s0.4,0.9,0.9,0.9h3.5c0.5,0,0.9-0.4,0.9-0.9S23.3,11.1,22.8,11.1z"/>
	<path d="M5.7,12c0-0.5-0.4-0.9-0.9-0.9H1.2c-0.5,0-0.9,0.4-0.9,0.9s0.4,0.9,0.9,0.9h3.5C5.3,12.9,5.7,12.5,5.7,12z"/>
	<path d="M17.8,7.5L20.3,5c0.4-0.4,0.4-0.9,0-1.3c-0.4-0.4-0.9-0.4-1.3,0l-2.5,2.5c-0.4,0.4-0.4,0.9,0,1.3
		C16.8,7.9,17.4,7.9,17.8,7.5z"/>
	<path d="M6.2,16.5L3.7,19c-0.4,0.4-0.4,0.9,0,1.3c0.4,0.4,0.9,0.4,1.3,0l2.5-2.5c0.4-0.4,0.4-0.9,0-1.3C7.2,16.1,6.6,16.1,6.2,16.5
		z"/>
	<path d="M17.8,16.5c-0.4-0.4-0.9-0.4-1.3,0c-0.4,0.4-0.4,0.9,0,1.3l2.5,2.5c0.4,0.4,0.9,0.4,1.3,0c0.4-0.4,0.4-0.9,0-1.3L17.8,16.5
		z"/>
	<path d="M6.2,7.5c0.4,0.4,0.9,0.4,1.3,0c0.4-0.4,0.4-0.9,0-1.3L5,3.7c-0.4-0.4-0.9-0.4-1.3,0C3.4,4.1,3.4,4.7,3.7,5L6.2,7.5z"/>
</g>
</svg>
