<svg width="217" height="44" viewBox="0 0 217 44" fill="none" xmlns="http://www.w3.org/2000/svg">
<g clip-path="url(#clip0_1401_131)">
<path d="M84.1426 36.4875L74.1655 7.36084H64.795L54.817 36.4875H59.9765L62.746 28.1329H76.2139L78.9833 36.4875H84.1426ZM69.4992 7.9741L74.8098 23.9168H64.1497L69.4992 7.9741Z" fill="black"/>
<path d="M90.4556 15.831H85.7514V36.4876H90.4935V24.9134C90.4935 21.3115 92.276 20.085 95.9565 20.085H97.246V15.3711C93.3006 15.3711 91.2523 17.7465 90.4556 20.8516V15.831Z" fill="black"/>
<path d="M108.203 36.9476C113.098 36.9476 117.005 34.2646 118.029 29.3595H113.249C112.49 32.0425 110.897 33.5756 108.203 33.5756C104.789 33.5756 102.778 30.7393 102.778 26.1399C102.778 21.6181 104.751 18.743 108.203 18.743C110.935 18.743 112.49 20.6594 113.021 23.0358H117.84C116.967 18.4364 113.439 15.3711 108.203 15.3711C102.057 15.3711 97.9602 19.7017 97.9602 26.1399C97.9602 32.5791 102.019 36.9476 108.203 36.9476Z" fill="black"/>
<path d="M131.863 15.371C128.335 15.371 126.324 17.5174 125.376 20.0461V7.36084H120.672V36.4875H125.414V24.4922C125.414 20.5448 127.083 18.7817 129.739 18.7817C132.432 18.7817 134.064 20.506 134.064 24.4155V24.4922V36.4875H138.806V23.5723V23.4957C138.806 18.8962 136.568 15.371 131.863 15.371Z" fill="black"/>
<path d="M164.954 35.9899L161.54 15.8311H153.117L149.703 35.9899L145.454 15.8311H141.015L145.416 36.4876H153.99L157.329 16.291L160.667 36.4876H169.241L173.642 15.8311H169.204L164.954 35.9899Z" fill="black"/>
<path d="M184.47 15.3711C179.462 15.3711 175.972 17.9386 175.479 22.0014H180.259C180.524 20.2762 181.928 18.743 184.47 18.743C187.315 18.743 188.681 20.6983 188.681 23.1125V23.1891V23.4569L183.256 24.0323C179.386 24.4156 174.796 25.45 174.796 30.2406C174.796 34.1501 177.907 36.9476 181.776 36.9476C185.684 36.9476 187.429 35.1078 188.719 32.387V36.4876H193.423V23.3803V23.3036C193.423 19.0885 190.767 15.3711 184.47 15.3711ZM183.598 33.9201C181.435 33.9201 179.613 32.5791 179.613 30.2406C179.613 27.5586 182.421 27.1753 185.001 26.8686L188.681 26.4854V27.7119C188.681 31.1605 186.973 33.9201 183.598 33.9201Z" fill="black"/>
<path d="M205.594 33.5757L199.372 15.8311H194.592L201.156 34.2646H205.367L202.37 44H207.263L216.027 15.8311H211.057L205.594 33.5757Z" fill="black"/>
<path d="M0.235352 22.0073C0.235352 9.85282 10.0102 0 22.068 0C34.1258 0 43.9006 9.85282 43.9006 22.0073V43.6439C43.8889 31.5952 34.1185 21.8326 22.068 21.8326C10.0102 21.8326 0.235352 31.6078 0.235352 43.6653V22.0073Z" fill="black"/>
</g>
<defs>
<clipPath id="clip0_1401_131">
<rect width="216" height="44" fill="white" transform="translate(0.235352)"/>
</clipPath>
</defs>
</svg>
