<svg width="223" height="44" viewBox="0 0 223 44" fill="none" xmlns="http://www.w3.org/2000/svg">
<g clip-path="url(#clip0_1401_132)">
<path d="M86.1043 36.4891L75.7746 7.36304H66.0727L55.7433 36.4891H61.0849L63.9522 28.1345H77.8951L80.7626 36.4891H86.1043ZM70.9434 7.97654L76.4417 23.9187H65.4056L70.9434 7.97654Z" fill="white"/>
<path d="M92.6396 15.8329H87.7689V36.4891H92.679V24.9153C92.679 21.3131 94.5246 20.0861 98.3351 20.0861H99.6702V15.373C95.5849 15.373 93.4644 17.7493 92.6396 20.8532V15.8329Z" fill="white"/>
<path d="M111.014 36.949C116.08 36.949 120.125 34.2665 121.187 29.3605H116.237C115.452 32.0429 113.802 33.5762 111.014 33.5762C107.479 33.5762 105.397 30.7401 105.397 26.1413C105.397 21.6193 107.44 18.7448 111.014 18.7448C113.842 18.7448 115.452 20.6612 116.002 23.0374H120.989C120.087 18.4386 116.434 15.373 111.014 15.373C104.651 15.373 100.409 19.703 100.409 26.1413C100.409 32.5796 104.612 36.949 111.014 36.949Z" fill="white"/>
<path d="M135.509 15.373C131.856 15.373 129.775 17.5188 128.792 20.0487V7.36304H123.923V36.4891H128.832V24.4938C128.832 20.5459 130.56 18.7832 133.309 18.7832C136.098 18.7832 137.787 20.5085 137.787 24.417V24.4938V36.4891H142.697V23.5741V23.4973C142.697 18.8985 140.379 15.373 135.509 15.373Z" fill="white"/>
<path d="M169.767 35.9909L166.233 15.833H157.513L153.978 35.9909L149.579 15.833H144.984L149.539 36.4892H158.417L161.872 16.2929L165.329 36.4892H174.205L178.762 15.833H174.166L169.767 35.9909Z" fill="white"/>
<path d="M189.972 15.373C184.788 15.373 181.174 17.9403 180.663 22.0024H185.612C185.887 20.2781 187.341 18.7448 189.972 18.7448C192.918 18.7448 194.332 20.6996 194.332 23.1142V23.191V23.4589L188.715 24.034C184.709 24.417 179.956 25.452 179.956 30.2418C179.956 34.1513 183.176 36.949 187.183 36.949C191.229 36.949 193.035 35.1095 194.371 32.3886V36.4891H199.241V23.382V23.3052C199.241 19.0905 196.492 15.373 189.972 15.373ZM189.068 33.9209C186.829 33.9209 184.944 32.5797 184.944 30.2418C184.944 27.5594 187.851 27.1763 190.521 26.8701L194.332 26.487V27.713C194.332 31.1616 192.564 33.9209 189.068 33.9209Z" fill="white"/>
<path d="M211.842 33.5763L205.4 15.833H200.452L207.247 34.2666H211.606L208.503 43.9999H213.57L222.643 15.833H217.498L211.842 33.5763Z" fill="white"/>
<path d="M-0.764648 22.0065C-0.764648 9.85256 9.35515 0 21.8385 0C34.3219 0 44.4417 9.85256 44.4417 22.0065V43.6411C44.4295 31.5943 34.3143 21.8317 21.8385 21.8317C9.35515 21.8317 -0.764648 31.6064 -0.764648 43.6634V22.0065Z" fill="white"/>
</g>
<defs>
<clipPath id="clip0_1401_132">
<rect width="222" height="44" fill="white" transform="translate(0.235352)"/>
</clipPath>
</defs>
</svg>
