<svg width="233" height="44" viewBox="0 0 233 44" fill="none" xmlns="http://www.w3.org/2000/svg">
<path d="M37.7143 0H6.28571C2.81421 0 0 2.81421 0 6.28571V37.7143C0 41.1858 2.81421 44 6.28571 44H37.7143C41.1858 44 44 41.1858 44 37.7143V6.28571C44 2.81421 41.1858 0 37.7143 0Z" fill="url(#paint0_radial_1502_20752)"/>
<path opacity="0.95" d="M19.9052 11.5234H9.42899C8.59545 11.5234 7.79606 11.8546 7.20665 12.444C6.61725 13.0334 6.28613 13.8328 6.28613 14.6663V29.333C6.28733 29.9982 6.49955 30.6458 6.89227 31.1827C7.28499 31.7196 7.83793 32.1182 8.47152 32.3208C9.10511 32.5235 9.78665 32.5198 10.4181 32.3105C11.0494 32.1012 11.5982 31.6968 11.9852 31.1558L22.4614 16.4892C22.7959 16.0194 22.9946 15.4666 23.036 14.8913C23.0773 14.3161 22.9594 13.7406 22.6955 13.2278C22.4315 12.7151 22.0316 12.2848 21.5395 11.9842C21.0473 11.6836 20.4819 11.5242 19.9052 11.5234ZM11.5242 18.8568C11.1098 18.8568 10.7048 18.7339 10.3602 18.5036C10.0156 18.2735 9.74707 17.9462 9.58848 17.5634C9.4299 17.1805 9.38841 16.7592 9.46925 16.3528C9.55009 15.9464 9.74964 15.573 10.0427 15.28C10.3357 14.987 10.7091 14.7874 11.1154 14.7065C11.5219 14.6258 11.9432 14.6672 12.3261 14.8257C12.7089 14.9844 13.0362 15.253 13.2663 15.5975C13.4966 15.9421 13.6195 16.3471 13.6195 16.7615C13.6195 17.3172 13.3987 17.8501 13.0058 18.2431C12.6128 18.636 12.0799 18.8568 11.5242 18.8568Z" fill="black"/>
<path opacity="0.95" d="M27.7616 31.4295C29.2081 31.4295 30.3807 30.2569 30.3807 28.8105C30.3807 27.364 29.2081 26.1914 27.7616 26.1914C26.3152 26.1914 25.1426 27.364 25.1426 28.8105C25.1426 30.2569 26.3152 31.4295 27.7616 31.4295Z" fill="black"/>
<path opacity="0.95" d="M37.7144 14.6663V29.333C37.7156 30.1172 37.4235 30.8736 36.8955 31.4536C36.3675 32.0335 35.6418 32.395 34.8608 32.4672C34.0798 32.5395 33.3002 32.3171 32.6748 31.8437C32.0494 31.3704 31.6237 30.6804 31.4811 29.9091C31.4476 29.7189 31.4301 29.5261 31.4287 29.333V26.9444C31.4231 26.2809 31.2077 25.6363 30.8133 25.1028C30.419 24.5692 29.866 24.1742 29.2334 23.9742C28.6008 23.7742 27.9212 23.7795 27.2918 23.9894C26.6624 24.1992 26.1156 24.6029 25.7297 25.1425L24.0954 27.4368L21.4659 31.1244C20.9643 31.7621 20.2356 32.1811 19.4322 32.2938C18.6288 32.4067 17.813 32.2044 17.1553 31.7294C16.4976 31.2544 16.0491 30.5435 15.9035 29.7454C15.758 28.9473 15.9267 28.1238 16.3744 27.4472L26.8506 12.7806C27.1401 12.3944 27.5147 12.0802 27.9453 11.8622C28.3759 11.6442 28.8508 11.5283 29.3335 11.5234H34.5716C35.4051 11.5234 36.2045 11.8546 36.7939 12.444C37.3833 13.0334 37.7144 13.8328 37.7144 14.6663Z" fill="white"/>
<g opacity="0.95">
<path d="M64.0938 11.5234H57.3576L50.2861 32.4758H55.7338L57.1061 28.0758H64.3452L65.728 32.4758H71.1652L64.0938 11.5234ZM58.3109 24.2206L60.6366 16.7615H60.7623L63.0985 24.1892L58.3109 24.2206Z" fill="#FFFDFA"/>
<path d="M86.0832 21.5592L81.4842 21.6849C81.4413 21.3607 81.3068 21.0554 81.0965 20.8049C80.874 20.5407 80.5897 20.3356 80.2689 20.2078C79.9007 20.0547 79.5047 19.9798 79.1061 19.9878C78.5918 19.9705 78.082 20.0898 77.6289 20.3335C77.4718 20.4087 77.336 20.522 77.2338 20.6629C77.1314 20.8038 77.0658 20.9681 77.043 21.1407C77.0201 21.3132 77.0406 21.4889 77.1027 21.6516C77.1647 21.8143 77.2663 21.959 77.3983 22.0726C77.8061 22.3605 78.2766 22.5473 78.7708 22.6173L81.7984 23.183C83.0824 23.3549 84.2955 23.8728 85.308 24.6811C85.6896 25.0311 85.9911 25.4594 86.1918 25.9368C86.3926 26.4142 86.4877 26.9293 86.4708 27.4468C86.4818 28.4657 86.1415 29.4572 85.507 30.2545C84.8261 31.0886 83.9371 31.7283 82.9299 32.1087C81.7336 32.5673 80.4603 32.7914 79.1794 32.7687C77.3159 32.8845 75.4627 32.4157 73.8783 31.4278C73.2615 31.0061 72.744 30.4549 72.3622 29.8125C71.9805 29.1702 71.7435 28.4521 71.668 27.7087L76.6023 27.583C76.6458 27.848 76.7437 28.1011 76.8897 28.3264C77.0358 28.5518 77.2267 28.7445 77.4508 28.8926C77.9784 29.2071 78.5866 29.36 79.2003 29.3326C79.7466 29.3574 80.2896 29.2344 80.7718 28.9764C80.9535 28.8922 81.1074 28.7576 81.2151 28.5887C81.3228 28.4198 81.3798 28.2234 81.3794 28.023C81.3818 27.8527 81.3396 27.6848 81.2568 27.5359C81.1742 27.3869 81.0538 27.2624 80.908 27.1745C80.4699 26.9067 79.9812 26.7319 79.4727 26.6611L76.728 26.1478C75.4215 25.9819 74.1951 25.427 73.2079 24.5554C72.8226 24.1673 72.5223 23.7033 72.3257 23.1929C72.1291 22.6826 72.0407 22.137 72.0661 21.5907C72.0311 20.624 72.3267 19.6743 72.9041 18.8983C73.5254 18.1059 74.362 17.5093 75.3137 17.1802C76.4999 16.7583 77.753 16.556 79.0118 16.583C80.7877 16.4851 82.5489 16.9547 84.0403 17.924C84.6297 18.3399 85.1189 18.882 85.4723 19.5109C85.8257 20.1397 86.0344 20.8395 86.0832 21.5592Z" fill="#FFFDFA"/>
<path d="M102.07 21.5605L97.4286 21.6862C97.3858 21.3619 97.2513 21.0567 97.041 20.8062C96.8186 20.542 96.5342 20.3368 96.2133 20.209C95.8451 20.056 95.4492 19.9811 95.0505 19.989C94.5362 19.9718 94.0265 20.0911 93.5733 20.3348C93.4163 20.41 93.2805 20.5232 93.1782 20.6641C93.0759 20.805 93.0104 20.9693 92.9875 21.1419C92.9646 21.3145 92.9851 21.4902 93.0471 21.6529C93.1092 21.8156 93.2109 21.9602 93.3429 22.0738C93.7506 22.3618 94.2211 22.5486 94.7152 22.6186L97.7429 23.1843C99.0269 23.3562 100.24 23.874 101.252 24.6824C101.642 25.0285 101.951 25.4551 102.159 25.9327C102.367 26.4102 102.469 26.9273 102.457 27.4481C102.468 28.4669 102.128 29.4585 101.493 30.2557C100.812 31.0898 99.9235 31.7294 98.9162 32.11C97.72 32.5685 96.4466 32.7926 95.1657 32.77C93.3022 32.8858 91.4491 32.4169 89.8648 31.429C89.2478 31.0074 88.7304 30.4561 88.3487 29.8137C87.9668 29.1714 87.7298 28.4534 87.6543 27.71L92.5886 27.5843C92.6322 27.8492 92.73 28.1023 92.876 28.3277C93.0221 28.553 93.2132 28.7458 93.4372 28.8938C93.9637 29.212 94.572 29.3686 95.1867 29.3443C95.733 29.3691 96.2759 29.2461 96.7581 28.9881C96.94 28.904 97.0939 28.7693 97.2016 28.6004C97.3093 28.4315 97.3663 28.2352 97.3657 28.0348C97.3682 27.8644 97.3259 27.6965 97.2433 27.5476C97.1605 27.3986 97.0402 27.2741 96.8943 27.1862C96.4562 26.9183 95.9677 26.7436 95.4591 26.6728L92.7143 26.1595C91.4079 25.9936 90.1815 25.4388 89.1943 24.5671C88.8091 24.179 88.5086 23.715 88.3121 23.2046C88.1156 22.6943 88.0271 22.1487 88.0524 21.6024C88.0175 20.6357 88.3131 19.6861 88.8905 18.91C89.5118 18.1176 90.3485 17.5211 91.3 17.1919C92.4862 16.77 93.7394 16.5677 94.9981 16.5948C96.7741 16.4968 98.5353 16.9664 100.027 17.9357C100.615 18.3505 101.103 18.8909 101.457 19.5179C101.81 20.1448 102.019 20.8425 102.07 21.5605Z" fill="#FFFDFA"/>
<path d="M119.136 25.8238V24.5771C119.156 23.4069 118.964 22.2428 118.57 21.1409C118.236 20.1949 117.701 19.3331 116.999 18.6161C116.322 17.9331 115.503 17.4074 114.6 17.0761C113.616 16.7201 112.577 16.5426 111.53 16.5523C110.086 16.5239 108.659 16.8859 107.403 17.5999C106.243 18.2698 105.301 19.259 104.689 20.4495C104.025 21.7564 103.691 23.2058 103.715 24.6714C103.677 26.1707 104.008 27.6566 104.679 28.998C105.293 30.1845 106.249 31.1591 107.424 31.7952C108.716 32.4659 110.158 32.8009 111.614 32.7695C112.851 32.7934 114.081 32.58 115.239 32.1409C116.237 31.7781 117.13 31.1734 117.837 30.3809C118.482 29.609 118.913 28.6802 119.084 27.6885L114.495 27.5628C114.369 27.8973 114.169 28.1984 113.908 28.4428C113.639 28.6882 113.322 28.8739 112.976 28.9876C112.586 29.1092 112.18 29.1693 111.771 29.1657C111.194 29.1795 110.623 29.0423 110.116 28.7676C109.666 28.5025 109.302 28.1132 109.068 27.6466C108.806 27.1238 108.676 26.5445 108.691 25.96V25.8342L119.136 25.8238ZM109.068 21.5495C109.321 21.1152 109.681 20.7541 110.116 20.5019C110.577 20.2681 111.086 20.1463 111.604 20.1463C112.12 20.1463 112.63 20.2681 113.091 20.5019C113.522 20.7312 113.883 21.0711 114.139 21.4866C114.385 21.9175 114.515 22.4049 114.516 22.9009H108.702C108.705 22.4263 108.832 21.9609 109.068 21.5495Z" fill="#FFFDFA"/>
<path d="M130.283 32.2455C130.052 32.3188 129.706 32.4026 129.235 32.4969C128.726 32.61 128.206 32.6767 127.684 32.6959C126.664 32.7726 125.638 32.6297 124.678 32.2769C123.887 31.9893 123.212 31.4478 122.761 30.7369C122.299 29.9326 122.078 29.0128 122.122 28.0864V20.4388H120.026V16.7617H122.122V12.9902H127.119V16.7617H129.958V20.4388H127.119V27.5312C127.108 27.7884 127.163 28.0441 127.276 28.275C127.367 28.455 127.519 28.5964 127.705 28.6731C127.928 28.7539 128.161 28.7929 128.397 28.7883C128.601 28.7852 128.803 28.7677 129.004 28.7359L129.486 28.6312L130.283 32.2455Z" fill="#FFFDFA"/>
<path d="M132.305 11.5234H138.59L143.912 24.493H144.153L149.465 11.5234H155.75V32.4758H150.858V19.6111H150.68L145.62 32.3396H142.477L137.448 19.5377H137.239V32.4758H132.305V11.5234Z" fill="#FFFDFA"/>
<path d="M201.479 32.2455C201.242 32.3223 200.892 32.4061 200.431 32.4969C199.922 32.6093 199.402 32.6759 198.881 32.6959C197.857 32.7718 196.828 32.629 195.864 32.2769C195.075 31.9894 194.404 31.4476 193.957 30.7369C193.491 29.9344 193.269 29.0133 193.318 28.0864V20.4388H191.223V16.7617H193.318V12.9902H198.315V16.7617H201.154V20.4388H198.315V27.5312C198.307 27.787 198.357 28.0415 198.462 28.275C198.557 28.4557 198.713 28.5968 198.902 28.6731C199.12 28.7531 199.351 28.7922 199.583 28.7883C199.787 28.7856 199.989 28.7681 200.19 28.736L200.683 28.6312L201.479 32.2455Z" fill="#FFFDFA"/>
<path d="M170.176 17.924C169.506 17.4483 168.758 17.0937 167.965 16.8764C167.064 16.6297 166.134 16.5098 165.2 16.5202C163.963 16.4907 162.735 16.7117 161.585 17.1697C160.66 17.5461 159.85 18.1605 159.239 18.9507C158.671 19.6999 158.309 20.5848 158.191 21.5173L162.801 21.6745C162.896 21.1971 163.169 20.7738 163.565 20.4907C164.043 20.1868 164.602 20.0368 165.168 20.0611C165.689 20.0349 166.202 20.1864 166.624 20.4907C166.806 20.6347 166.95 20.8203 167.045 21.0319C167.14 21.2433 167.183 21.4745 167.169 21.7059V21.7583C167.175 21.9029 167.144 22.0468 167.08 22.1767C167.016 22.3066 166.921 22.4185 166.802 22.5021C166.435 22.7121 166.028 22.8475 165.608 22.9002C165.063 22.9945 164.341 23.0783 163.45 23.1621C162.689 23.222 161.935 23.3518 161.198 23.5497C160.532 23.7306 159.903 24.0209 159.333 24.4087C158.794 24.7838 158.359 25.2881 158.065 25.8754C157.741 26.562 157.582 27.316 157.604 28.0754C157.568 28.9853 157.801 29.8857 158.275 30.663C158.723 31.3438 159.36 31.8789 160.108 32.203C161.585 32.7824 163.211 32.8632 164.739 32.4335C165.3 32.2605 165.821 31.9755 166.268 31.5954C166.697 31.2167 167.052 30.762 167.316 30.2545H167.441V32.4754H172.145V21.7897C172.16 21.032 171.987 20.2823 171.641 19.6077C171.297 18.9332 170.789 18.3547 170.165 17.924H170.176ZM167.19 26.8811C167.202 27.3605 167.066 27.8321 166.802 28.2326C166.537 28.6186 166.176 28.929 165.755 29.1335C165.302 29.3571 164.804 29.4684 164.299 29.4583C163.796 29.4804 163.298 29.3369 162.884 29.0497C162.709 28.9091 162.572 28.7275 162.484 28.5209C162.397 28.3144 162.362 28.0893 162.381 27.8659C162.376 27.5527 162.468 27.2455 162.643 26.9859C162.838 26.719 163.098 26.5062 163.398 26.3678C163.783 26.2009 164.188 26.0847 164.602 26.0221L165.336 25.9173L166.069 25.7707C166.31 25.7183 166.53 25.6554 166.729 25.5926C166.905 25.5398 167.077 25.4732 167.242 25.3935L167.19 26.8811Z" fill="#FFFDFA"/>
<path d="M189.117 19.3601C189.588 20.3205 189.818 21.3812 189.787 22.4505V32.4762H184.779V23.4353C184.834 22.6945 184.597 21.9618 184.119 21.3924C183.883 21.1422 183.594 20.9468 183.274 20.82C182.953 20.6934 182.61 20.6384 182.265 20.6591C181.783 20.6507 181.308 20.7662 180.882 20.9943C180.482 21.2213 180.16 21.5648 179.96 21.9791C179.731 22.4559 179.617 22.9796 179.625 23.5086V32.4762H174.628V16.762H179.384V19.6429H179.552C179.879 18.7122 180.505 17.9162 181.333 17.3801C182.242 16.8014 183.305 16.5127 184.381 16.5524C185.392 16.5277 186.391 16.7852 187.262 17.2962C188.062 17.7971 188.704 18.5121 189.117 19.3601Z" fill="#FFFDFA"/>
<path d="M208.497 11.5234H203.5V32.4758H208.497V11.5234Z" fill="#FFFDFA"/>
<path d="M225.899 25.8238V24.5771C225.919 23.4069 225.727 22.2428 225.333 21.1409C224.999 20.1949 224.462 19.3331 223.762 18.6161C223.084 17.9331 222.266 17.4074 221.363 17.0761C220.379 16.7201 219.339 16.5426 218.293 16.5523C216.847 16.5239 215.421 16.8859 214.165 17.5999C213.006 18.2698 212.064 19.259 211.452 20.4495C210.787 21.7668 210.456 23.2274 210.488 24.7028C210.451 26.2022 210.781 27.688 211.452 29.0295C212.066 30.2159 213.022 31.1905 214.197 31.8266C215.49 32.4973 216.931 32.8323 218.387 32.8009C219.625 32.8248 220.854 32.6114 222.012 32.1723C223.009 31.7991 223.899 31.1834 224.6 30.3809C225.245 29.609 225.676 28.6802 225.846 27.6885L221.258 27.5628C221.132 27.8973 220.931 28.1984 220.671 28.4428C220.402 28.6882 220.084 28.8739 219.739 28.9876C219.349 29.1092 218.943 29.1693 218.534 29.1657C217.957 29.1795 217.386 29.0423 216.879 28.7676C216.428 28.5025 216.065 28.1132 215.831 27.6466C215.569 27.1238 215.439 26.5445 215.454 25.96V25.8342L225.899 25.8238ZM215.81 21.5495C216.063 21.1152 216.423 20.7541 216.858 20.5019C217.319 20.2681 217.828 20.1463 218.345 20.1463C218.862 20.1463 219.372 20.2681 219.833 20.5019C220.264 20.7312 220.625 21.0711 220.881 21.4866C221.126 21.9175 221.256 22.4049 221.258 22.9009H215.443C215.447 22.4263 215.573 21.9609 215.81 21.5495Z" fill="#FFFDFA"/>
</g>
<defs>
<radialGradient id="paint0_radial_1502_20752" cx="0" cy="0" r="1" gradientUnits="userSpaceOnUse" gradientTransform="translate(98.3819 -39.7467) scale(19.8)">
<stop stop-color="#FFC942"/>
<stop offset="0.28" stop-color="#FEC73E"/>
<stop offset="0.57" stop-color="#FBC131"/>
<stop offset="0.86" stop-color="#F5B71D"/>
<stop offset="1" stop-color="#F2B110"/>
</radialGradient>
</defs>
</svg>
