<svg width="265" height="40" viewBox="0 0 265 40" fill="none" xmlns="http://www.w3.org/2000/svg">
<path fill-rule="evenodd" clip-rule="evenodd" d="M173.952 20.1152C173.952 19.0211 173.696 18.0425 173.185 17.1803C172.673 16.3181 171.965 15.6356 171.062 15.1329C170.16 14.6307 169.128 14.3796 167.97 14.3796C166.78 14.3796 165.738 14.6307 164.843 15.1329C163.947 15.6356 163.247 16.3181 162.743 17.1803C162.239 18.0425 161.987 19.0211 161.987 20.1152C161.987 21.2101 162.239 22.1886 162.743 23.0508C163.247 23.9134 163.947 24.5955 164.843 25.0978C165.738 25.6004 166.78 25.8515 167.97 25.8515C169.128 25.8515 170.16 25.6004 171.062 25.0978C171.965 24.5955 172.673 23.9095 173.185 23.0399C173.696 22.17 173.952 21.1952 173.952 20.1152ZM176.435 20.1152C176.435 21.2551 176.229 22.3164 175.815 23.2984C175.401 24.2808 174.813 25.1391 174.054 25.8742C173.294 26.609 172.398 27.1826 171.367 27.5949C170.336 28.0068 169.204 28.2134 167.97 28.2134C166.735 28.2134 165.599 28.0068 164.561 27.5949C163.522 27.1826 162.627 26.609 161.874 25.8742C161.122 25.1391 160.538 24.2808 160.124 23.2984C159.711 22.3164 159.504 21.2551 159.504 20.1152C159.504 18.9762 159.711 17.9153 160.124 16.9327C160.538 15.9507 161.122 15.092 161.874 14.357C162.627 13.6228 163.522 13.0491 164.561 12.6362C165.599 12.2239 166.735 12.0177 167.97 12.0177C169.204 12.0177 170.336 12.2239 171.367 12.6362C172.398 13.0491 173.294 13.6228 174.054 14.357C174.813 15.092 175.401 15.9507 175.815 16.9327C176.229 17.9153 176.435 18.9762 176.435 20.1152ZM134.099 19.3524C133.704 19.5919 133.276 19.7114 132.814 19.7114H128.054V14.5963H132.814C133.276 14.5963 133.704 14.7084 134.099 14.9326C134.493 15.157 134.81 15.4563 135.049 15.8304C135.287 16.2043 135.406 16.6231 135.406 17.0866C135.406 17.5658 135.287 18.0029 135.049 18.3991C134.81 18.7958 134.493 19.1134 134.099 19.3524ZM135.496 12.9024C134.766 12.4762 133.968 12.2631 133.104 12.2631H125.64V27.968H128.054V22.0449H132.925C133.834 22.0449 134.665 21.8242 135.417 21.3832C136.17 20.9418 136.773 20.3475 137.228 19.5993C137.682 18.8516 137.909 18.0144 137.909 17.0866C137.909 16.1743 137.689 15.3553 137.25 14.6298C136.81 13.9049 136.226 13.3286 135.496 12.9024ZM145.005 14.593H149.759C150.315 14.593 150.822 14.7015 151.28 14.9178C151.738 15.1347 152.102 15.4368 152.373 15.8253C152.643 16.2136 152.779 16.6618 152.779 17.1694C152.779 17.6323 152.669 18.062 152.452 18.4579C152.233 18.8535 151.925 19.1713 151.528 19.4099C151.13 19.6485 150.668 19.7685 150.142 19.7685H145.005V14.593ZM154.378 19.9589C154.994 19.1295 155.302 18.2075 155.302 17.1917C155.302 16.221 155.061 15.3624 154.581 14.6154C154.1 13.8687 153.477 13.29 152.71 12.8791C151.944 12.4685 151.133 12.2631 150.277 12.2631H142.572V27.9457H145.005V22.098H149.308L153.071 27.9457L156.068 27.968L152.012 21.7624C152.974 21.3889 153.762 20.7878 154.378 19.9589ZM183.632 14.5963V27.968H186.037V14.5963H191.159V12.2631H178.644V14.5963H183.632ZM207.816 20.1152C207.816 19.0211 207.56 18.0425 207.048 17.1803C206.537 16.3181 205.829 15.6356 204.926 15.1329C204.023 14.6307 202.992 14.3796 201.833 14.3796C200.644 14.3796 199.602 14.6307 198.706 15.1329C197.811 15.6356 197.111 16.3181 196.607 17.1803C196.102 18.0425 195.85 19.0211 195.85 20.1152C195.85 21.2101 196.102 22.1886 196.607 23.0508C197.111 23.9134 197.811 24.5955 198.706 25.0978C199.602 25.6004 200.644 25.8515 201.833 25.8515C202.992 25.8515 204.023 25.6004 204.926 25.0978C205.829 24.5955 206.537 23.9095 207.048 23.0399C207.56 22.17 207.816 21.1952 207.816 20.1152ZM210.299 20.1152C210.299 21.2551 210.092 22.3164 209.678 23.2984C209.264 24.2808 208.677 25.1391 207.918 25.8742C207.157 26.609 206.262 27.1826 205.231 27.5949C204.2 28.0068 203.067 28.2134 201.833 28.2134C200.599 28.2134 199.462 28.0068 198.424 27.5949C197.386 27.1826 196.49 26.609 195.738 25.8742C194.985 25.1391 194.402 24.2808 193.988 23.2984C193.574 22.3164 193.367 21.2551 193.367 20.1152C193.367 18.9762 193.574 17.9153 193.988 16.9327C194.402 15.9507 194.985 15.092 195.738 14.357C196.49 13.6228 197.386 13.0491 198.424 12.6362C199.462 12.2239 200.599 12.0177 201.833 12.0177C203.067 12.0177 204.2 12.2239 205.231 12.6362C206.262 13.0491 207.157 13.6228 207.918 14.357C208.677 15.092 209.264 15.9507 209.678 16.9327C210.092 17.9153 210.299 18.9762 210.299 20.1152ZM226.526 26.9579C227.143 26.6039 227.632 26.2455 227.989 25.8837L226.805 23.8704C226.298 24.3228 225.658 24.7567 224.884 25.1712C224.109 25.586 223.193 25.7932 222.136 25.7932C221.093 25.7932 220.121 25.5782 219.22 25.1481C218.318 24.7184 217.589 24.0819 217.03 23.2368C216.471 22.3925 216.192 21.3372 216.192 20.07C216.192 18.9095 216.464 17.9069 217.008 17.062C217.552 16.2175 218.255 15.5688 219.119 15.1166C219.983 14.6643 220.891 14.4379 221.845 14.4379C222.813 14.4379 223.696 14.6383 224.492 15.0373C225.29 15.4374 226.016 15.946 226.671 16.5646L228.213 14.7095C227.84 14.2572 227.337 13.8275 226.705 13.4202C226.071 13.0131 225.349 12.6778 224.537 12.4137C223.725 12.1502 222.857 12.0177 221.934 12.0177C220.832 12.0177 219.79 12.2181 218.806 12.6169C217.823 13.0172 216.948 13.5785 216.181 14.3023C215.414 15.0264 214.814 15.8781 214.382 16.8583C213.95 17.8386 213.735 18.9095 213.735 20.07C213.735 21.3071 213.939 22.4267 214.349 23.4293C214.759 24.4321 215.332 25.2882 216.069 25.9965C216.807 26.7054 217.667 27.252 218.65 27.6368C219.633 28.0211 220.691 28.2134 221.823 28.2134C222.731 28.2134 223.588 28.0925 224.392 27.8516C225.196 27.6105 225.908 27.3122 226.526 26.9579ZM246.097 20.1152C246.097 19.0211 245.84 18.0425 245.329 17.1803C244.817 16.3181 244.11 15.6356 243.207 15.1329C242.304 14.6307 241.272 14.3796 240.114 14.3796C238.925 14.3796 237.882 14.6307 236.987 15.1329C236.091 15.6356 235.391 16.3181 234.887 17.1803C234.383 18.0425 234.131 19.0211 234.131 20.1152C234.131 21.2101 234.383 22.1886 234.887 23.0508C235.391 23.9134 236.091 24.5955 236.987 25.0978C237.882 25.6004 238.925 25.8515 240.114 25.8515C241.272 25.8515 242.304 25.6004 243.207 25.0978C244.11 24.5955 244.817 23.9095 245.329 23.0399C245.84 22.17 246.097 21.1952 246.097 20.1152ZM248.58 20.1152C248.58 21.2551 248.373 22.3164 247.959 23.2984C247.545 24.2808 246.958 25.1391 246.198 25.8742C245.438 26.609 244.542 27.1826 243.512 27.5949C242.48 28.0068 241.348 28.2134 240.114 28.2134C238.879 28.2134 237.743 28.0068 236.705 27.5949C235.667 27.1826 234.771 26.609 234.018 25.8742C233.265 25.1391 232.683 24.2808 232.269 23.2984C231.855 22.3164 231.648 21.2551 231.648 20.1152C231.648 18.9762 231.855 17.9153 232.269 16.9327C232.683 15.9507 233.265 15.092 234.018 14.357C234.771 13.6228 235.667 13.0491 236.705 12.6362C237.743 12.2239 238.879 12.0177 240.114 12.0177C241.348 12.0177 242.48 12.2239 243.512 12.6362C244.542 13.0491 245.438 13.6228 246.198 14.357C246.958 15.092 247.545 15.9507 247.959 16.9327C248.373 17.9153 248.58 18.9762 248.58 20.1152ZM264.285 27.968V25.6348H255.667V12.2631H253.242V27.968H264.285ZM53.5904 25.0626C52.9961 25.4439 52.2319 25.6348 51.2963 25.6348H46.0849V21.058H51.1852C51.6898 21.058 52.1944 21.1251 52.6996 21.2598C53.2042 21.3947 53.6274 21.6267 53.969 21.9554C54.3106 22.2845 54.4811 22.7331 54.4811 23.3013C54.4811 24.0946 54.184 24.6812 53.5904 25.0626ZM46.0849 14.5965H50.8065C51.6083 14.5965 52.2838 14.7534 52.8331 15.0675C53.3823 15.3818 53.657 15.9053 53.657 16.6383C53.657 17.2965 53.3972 17.8048 52.8775 18.1639C52.3576 18.5225 51.7564 18.7098 51.0739 18.7245H46.0849V14.5965ZM55.4053 20.1606C54.9527 19.8317 54.4589 19.577 53.9246 19.3977C54.6372 19.0986 55.1789 18.6683 55.5502 18.1076C55.9209 17.5465 56.1068 16.915 56.1068 16.2121C56.1068 14.9256 55.6762 13.9457 54.8152 13.2723C53.9541 12.5998 52.6774 12.2631 50.9849 12.2631H43.6797V27.968H51.3407C51.9942 27.968 52.6472 27.8976 53.3008 27.7549C53.9541 27.6131 54.5551 27.37 55.1049 27.0259C55.654 26.682 56.096 26.2109 56.4302 25.6124C56.7642 25.0144 56.9307 24.2589 56.9307 23.3463C56.9307 22.5986 56.7899 21.9628 56.5077 21.4394C56.2254 20.9161 55.8582 20.4899 55.4053 20.1606ZM66.5866 18.0514L64.976 21.8209H70.6134L68.9581 17.9616C68.7639 17.4683 68.5698 16.9635 68.3762 16.4473C68.1825 15.9312 67.9882 15.3968 67.7948 14.8431C67.5858 15.4116 67.3842 15.9651 67.1905 16.5034C66.9969 17.0421 66.7952 17.5578 66.5866 18.0514ZM59.8754 27.968L66.5643 12.2631H69.1815L75.8257 27.968H73.2086L71.598 24.1537H63.9914L62.3585 27.968H59.8754ZM92.3152 14.5963V17.4233V24.2675L82.2474 12.2631H79.9974V14.5963V27.968H82.4031V21.4392V16.2973L92.4263 27.968H94.7207V26.3886V14.5963V12.2631H92.3152V14.5963ZM110.236 24.8834C111.046 24.3822 111.642 23.7164 112.021 22.8864C112.4 22.0564 112.59 21.1325 112.59 20.1152C112.59 19.1284 112.4 18.216 112.021 17.3786C111.642 16.541 111.042 15.8676 110.225 15.3594C109.407 14.8509 108.358 14.5963 107.079 14.5963H102.774V25.6348H107.079C108.373 25.6348 109.425 25.3847 110.236 24.8834ZM113.08 14.5848C113.75 15.3106 114.252 16.1482 114.586 17.0977C114.921 18.0479 115.088 19.0536 115.088 20.1152C115.088 21.5513 114.79 22.864 114.196 24.0531C113.601 25.2422 112.716 26.1924 111.541 26.9025C110.366 27.6129 108.916 27.968 107.191 27.968H100.365V12.2631H107.191C108.485 12.2631 109.622 12.4688 110.604 12.88C111.586 13.2914 112.411 13.8599 113.08 14.5848Z" fill="white"/>
<mask id="mask0" style="mask-type:alpha" maskUnits="userSpaceOnUse" x="0" y="0" width="33" height="40">
<path d="M0 0H32.3895V40H0V0Z" fill="white"/>
</mask>
<g mask="url(#mask0)">
<path fill-rule="evenodd" clip-rule="evenodd" d="M27.7224 27.3176C27.7224 30.6758 24.9986 33.4072 21.6501 33.4072H10.0075L22.107 21.2737C25.239 21.5129 27.7224 24.1166 27.7224 27.3176ZM8.29051 20.7243V6.6126H21.6501C21.8783 6.6126 22.1035 6.62498 22.3252 6.64993L8.29051 20.7243ZM30.1503 12.7029C30.1503 9.86013 28.7562 7.33829 26.6174 5.78855L32.3895 0L28.9363 0.019797L24.3507 4.61868C23.5018 4.33265 22.5937 4.17757 21.6501 4.17757H5.8626V26.6024L24.8699 7.541C26.582 8.61932 27.7224 10.5299 27.7224 12.7029C27.7224 16.0609 24.9986 18.7925 21.6501 18.7925H21.1473L0 40H3.43346L7.57943 35.8422H21.6501C26.3371 35.8422 30.1503 32.0181 30.1503 27.3176C30.1503 24.2177 28.4868 21.5071 26.0132 20.015C28.4892 18.5232 30.1503 15.8042 30.1503 12.7029Z" fill="white"/>
</g>
</svg>
