<svg width="117" height="44" viewBox="0 0 117 44" fill="none" xmlns="http://www.w3.org/2000/svg">
<path fill-rule="evenodd" clip-rule="evenodd" d="M22.5646 0.0826076C22.2899 0.25007 22.3117 -1.14045 22.3117 16.2151C22.3117 27.2354 22.3248 32.0181 22.355 32.0985C22.4195 32.2696 22.6359 32.4744 22.8001 32.5201C22.9952 32.5743 26.0443 32.5732 26.2399 32.5189C26.426 32.4672 26.6705 32.2039 26.7015 32.0219C26.7142 31.9475 26.7301 29.0922 26.7369 25.6768C26.748 20.1116 26.7566 19.4055 26.8195 18.8746C26.9813 17.5102 27.2041 16.6082 27.5509 15.9126C28.1918 14.6275 29.4521 13.7437 31.2074 13.3486C31.5608 13.2691 31.722 13.259 32.6274 13.2597C33.5306 13.2603 33.6975 13.271 34.0697 13.3519C35.8974 13.749 37.001 14.7892 37.5244 16.6084C37.6571 17.0697 37.7742 17.6754 37.8835 18.466C37.9178 18.714 37.9384 20.7061 37.9554 25.4317C37.9773 31.4734 37.9852 32.0608 38.0467 32.1727C38.135 32.3337 38.235 32.4212 38.4187 32.4979C38.5456 32.551 38.8228 32.5606 40.1944 32.5599C42.0121 32.5589 42.05 32.5535 42.2527 32.2694L42.3508 32.1318V25.3091C42.3508 18.1312 42.353 18.2333 42.1647 16.9812C41.7265 14.0671 40.5128 12.0835 38.2449 10.575C37.1239 9.8294 35.7362 9.33424 34.2412 9.14644C33.7311 9.08238 32.4024 9.08176 31.9125 9.14537C30.1062 9.37992 28.6214 10.0539 27.33 11.2252C26.9978 11.5265 26.9002 11.5659 26.798 11.4397C26.7274 11.3526 26.7239 11.1128 26.7231 6.31752C26.7222 1.50393 26.7189 1.27968 26.6463 1.12333C26.5596 0.93626 26.3443 0.717975 26.189 0.659431C26.0371 0.602234 22.9563 -0.00020422 22.8165 5.19356e-08C22.7523 8.17607e-05 22.6389 0.0372592 22.5646 0.0826076ZM113.928 0.321279C113.074 0.495972 112.32 0.66801 112.253 0.703594C112.103 0.782688 111.98 0.913667 111.879 1.1029C111.806 1.23981 111.802 1.47137 111.783 6.52963C111.763 11.7542 111.761 11.814 111.681 11.8731C111.553 11.9662 111.439 11.9132 110.885 11.5043C108.686 9.87973 107.209 9.26978 105.083 9.10775C103.804 9.01031 102.246 9.19804 100.983 9.6018C99.1124 10.1998 97.5768 11.1738 96.0485 12.7319C94.2319 14.5837 93.1961 16.7453 92.8406 19.4261C92.7519 20.0955 92.7388 21.9519 92.8183 22.5923C93.0914 24.791 93.8985 26.8175 95.1901 28.5474C95.6626 29.1802 96.7853 30.317 97.3934 30.7783C98.6614 31.7403 100.087 32.4445 101.538 32.8256C103.942 33.4567 106.252 33.2997 108.315 32.3649C108.958 32.0735 110.036 31.4044 110.967 30.7184C111.465 30.3518 111.574 30.3093 111.698 30.4328C111.777 30.5121 111.783 30.5641 111.784 31.1819C111.785 32.1219 111.838 32.2878 112.192 32.4688C112.37 32.5597 112.391 32.5608 114.008 32.5599C115.837 32.5589 115.874 32.5537 116.077 32.2694L116.175 32.1318L116.185 16.2288L116.195 0.325814L116.059 0.17694C115.846 -0.0557662 115.734 -0.0481673 113.928 0.321279ZM11.0174 9.11428C8.94205 9.25429 6.98178 9.90016 5.36133 10.9778C3.94801 11.9178 2.66535 13.2264 1.7458 14.6666C1.17482 15.5608 0.560326 17.0719 0.313524 18.1887C-0.0490581 19.8294 -0.0991047 21.6672 0.173557 23.3277C0.58537 25.8358 1.73039 28.0097 3.63797 29.9052C5.4899 31.7454 7.64394 32.7744 10.3618 33.117C11.1307 33.214 12.7237 33.2152 13.4506 33.1195C16.1478 32.7641 18.3962 31.6285 20.3553 29.6321C20.8326 29.1457 20.8844 29.0382 20.7989 28.7109C20.7594 28.5595 20.6076 28.3909 19.6431 27.4269C18.1576 25.9424 18.2353 25.9617 17.326 26.8515C15.6889 28.4535 14.4624 29.0468 12.5378 29.1676C10.2074 29.3138 8.21909 28.6213 6.69126 27.1313C5.12294 25.6017 4.37719 23.4581 4.47262 20.7539C4.55065 18.5409 5.1582 16.8711 6.39008 15.4836C7.42456 14.3186 8.69897 13.587 10.2771 13.2523C10.964 13.1066 12.378 13.0683 13.1285 13.175C14.6716 13.3944 15.8187 14.01 17.2457 15.3845C17.4592 15.5901 17.674 15.7793 17.7231 15.8048C17.8397 15.8656 18.1819 15.862 18.2935 15.7988C18.4511 15.7097 20.5544 13.6112 20.596 13.5015C20.6535 13.3504 20.6464 13.0939 20.5804 12.9358C20.5204 12.7923 19.7944 12.117 19.125 11.5822C18.1742 10.8224 16.8823 10.0834 15.8936 9.73364C14.4042 9.20682 12.7535 8.99716 11.0174 9.11428ZM54.1267 9.11285C52.963 9.19632 51.8082 9.46976 50.7538 9.91152C48.265 10.9542 45.972 13.2178 44.8215 15.7679C43.485 18.7299 43.3676 22.5467 44.5164 25.6839C44.7619 26.3545 45.3152 27.4298 45.7529 28.0872C47.1602 30.2007 49.0221 31.7183 51.184 32.5138C53.5575 33.3872 56.5608 33.4332 59.0398 32.6341C61.4135 31.869 63.4737 30.2502 65.0865 27.8829C65.3712 27.465 65.3926 27.4186 65.3926 27.2198C65.3926 26.8604 65.3244 26.8166 63.7176 26.1432C62.5691 25.6619 62.2853 25.5579 62.0788 25.543C61.9376 25.5328 61.7922 25.5447 61.7445 25.5702C61.698 25.5951 61.4989 25.8591 61.302 26.1568C60.6918 27.0799 59.9131 27.7699 58.8729 28.3095C57.6802 28.9282 56.6425 29.1757 55.2403 29.1759C52.73 29.1763 50.8774 28.2181 49.5416 26.2283C49.0899 25.5556 48.5893 24.3904 48.4177 23.6127C48.3554 23.3303 48.4263 23.1259 48.6297 23.0019C48.7641 22.9199 48.8128 22.9194 57.0788 22.9184C65.0562 22.9174 65.3993 22.9143 65.5577 22.8423C65.7657 22.7479 65.9327 22.5518 65.9687 22.36C66.0221 22.0753 65.9525 20.0295 65.868 19.4007C65.5462 17.0047 64.8026 15.0813 63.5575 13.4238C61.2482 10.3498 57.9432 8.83909 54.1267 9.11285ZM78.2413 9.11167C76.0261 9.28322 74.0909 10.0142 72.2961 11.3574C69.9601 13.1055 68.4259 15.3982 67.7855 18.0983C67.5274 19.1866 67.4796 19.659 67.4796 21.1215C67.4796 22.2878 67.4905 22.5189 67.5693 23.0213C67.912 25.2072 68.7322 27.1151 70.0453 28.7815C70.4601 29.3078 71.4522 30.2966 71.9498 30.6794C73.6984 32.0251 75.6012 32.8362 77.6694 33.1177C78.2915 33.2023 79.7182 33.2144 80.284 33.1397C82.0814 32.9026 83.5814 32.2402 85.5041 30.8346C85.8023 30.6166 86.0844 30.4179 86.131 30.393C86.2507 30.3289 86.39 30.3756 86.4461 30.4986C86.482 30.5774 86.4939 32.2194 86.4939 37.088C86.4939 43.2899 86.4972 43.5784 86.5686 43.7115C86.6468 43.8574 86.8627 44 87.0054 44C87.1751 44 90.3336 43.3487 90.4443 43.2909C90.6055 43.2068 90.7683 43.0254 90.8427 42.8472C90.8997 42.7108 90.9062 41.1238 90.9062 27.2775V11.8597L90.813 11.7214C90.7006 11.5546 90.5669 11.4813 90.3735 11.4805C90.294 11.4802 89.541 11.6178 88.7 11.7863C87.7849 11.9697 87.0697 12.0927 86.9185 12.0927C86.5026 12.0927 86.2038 11.9716 85.6973 11.5977C83.5978 10.0478 82.1029 9.37228 80.2868 9.15248C79.7736 9.09038 78.7738 9.07041 78.2413 9.11167ZM56.2301 13.1534C58.5431 13.5508 60.3251 15.2477 61.2093 17.8948C61.3295 18.2546 61.4289 18.6328 61.4401 18.7734C61.458 18.9965 61.4494 19.0326 61.3503 19.1504C61.29 19.2221 61.1729 19.2995 61.0901 19.3225C60.9905 19.3502 58.8921 19.3644 54.8957 19.3646C48.8763 19.3648 48.8513 19.3645 48.6781 19.2807C48.5428 19.2151 48.4897 19.1585 48.4389 19.0253C48.3767 18.8621 48.3784 18.836 48.475 18.4643C49.0347 16.3118 50.3089 14.6041 52.0057 13.7326C53.2298 13.1038 54.7378 12.897 56.2301 13.1534ZM80.7904 13.2344C82.6084 13.6304 84.0866 14.6106 85.098 16.0905C86.0928 17.5461 86.5518 19.355 86.4823 21.5464C86.4035 24.0271 85.673 25.8488 84.1776 27.2936C82.9961 28.435 81.5415 29.0578 79.8033 29.1664C78.4205 29.2528 77.244 29.0333 76.0965 28.4748C74.2424 27.5725 72.9722 26.1457 72.3609 24.279C72.0351 23.284 71.9292 22.5122 71.9305 21.142C71.9315 19.9671 71.9779 19.5339 72.1995 18.6294C72.9078 15.739 75.2036 13.6144 78.0936 13.175C78.683 13.0853 80.2664 13.1202 80.7904 13.2344ZM106.151 13.2324C108.256 13.6916 110.046 15.117 110.981 17.077C111.577 18.3291 111.807 19.5704 111.772 21.3667C111.752 22.4474 111.694 22.9392 111.498 23.7158C110.799 26.4787 108.743 28.5135 106.112 29.0463C105.231 29.2246 103.953 29.2244 103.071 29.0459C101.731 28.7745 100.52 28.1328 99.4905 27.1481C98.2676 25.9786 97.5543 24.5023 97.296 22.6062C97.1991 21.8946 97.1983 20.4022 97.2945 19.6962C97.6235 17.282 98.6411 15.5582 100.446 14.3582C101.289 13.7971 102.127 13.4442 103.058 13.2579C103.747 13.1201 103.729 13.1213 104.797 13.1345C105.59 13.1442 105.825 13.1613 106.151 13.2324Z" fill="white"/>
</svg>
