<svg width="174" height="44" viewBox="0 0 174 44" fill="none" xmlns="http://www.w3.org/2000/svg">
  <path fill-rule="evenodd" clip-rule="evenodd" d="M19.9534 1.5242L2.22088 11.7621V32.2379L19.9534 42.4758L37.6861 32.2379V11.7621L19.9534 1.5242ZM39.0061 11L19.9534 0L0.900879 11V33L19.9534 44L39.0061 33V11Z" fill="#BA3FD9"/>
  <path fill-rule="evenodd" clip-rule="evenodd" d="M19.9458 14.11C18.584 14.11 17.4761 13.0014 17.4761 11.6385C17.4761 10.2757 18.584 9.16697 19.9458 9.16697C21.3077 9.16697 22.4156 10.2757 22.4156 11.6385C22.4156 13.0014 21.3077 14.11 19.9458 14.11ZM19.9458 10.5136C19.326 10.5136 18.8218 11.0183 18.8218 11.6385C18.8218 12.2587 19.326 12.7634 19.9458 12.7634C20.5657 12.7634 21.07 12.2587 21.07 11.6385C21.07 11.0183 20.5657 10.5136 19.9458 10.5136Z" fill="#BA3FD9"/>
  <path d="M19.3095 14.5188C19.5216 14.5678 19.7426 14.5936 19.9694 14.5936C20.1963 14.5936 20.4172 14.5677 20.6295 14.5188V19.1418C20.4172 19.0929 20.1963 19.067 19.9694 19.067C19.7426 19.067 19.5216 19.0928 19.3095 19.1418V14.5188Z" fill="#BA3FD9"/>
  <path d="M17.8254 20.0004L13.8203 17.688C13.7566 17.8963 13.6685 18.1006 13.5551 18.297C13.4417 18.4935 13.3088 18.6719 13.1603 18.8311L17.164 21.1427C17.2961 20.7115 17.5251 20.3222 17.8254 20.0004Z" fill="#BA3FD9"/>
  <path d="M17.164 22.8578L13.1603 25.1696C13.3088 25.3289 13.4417 25.5073 13.5552 25.7037C13.6686 25.9002 13.7566 26.1043 13.8203 26.3127L17.8254 24.0003C17.525 23.6784 17.2961 23.2892 17.164 22.8578Z" fill="#BA3FD9"/>
  <path d="M19.3095 24.8587V29.4818C19.5217 29.4327 19.7426 29.407 19.9695 29.407C20.1964 29.407 20.4173 29.4327 20.6295 29.4818V24.8587C20.4172 24.9078 20.1963 24.9335 19.9694 24.9335C19.7426 24.9335 19.5216 24.9078 19.3095 24.8587Z" fill="#BA3FD9"/>
  <path d="M22.1135 24.0003L26.1187 26.3127C26.1823 26.1043 26.2705 25.9 26.3838 25.7035C26.4973 25.507 26.6302 25.3286 26.7787 25.1694L22.7749 22.8578C22.6428 23.2892 22.4139 23.6784 22.1135 24.0003Z" fill="#BA3FD9"/>
  <path d="M22.7749 21.1427L26.7787 18.8311C26.6302 18.6718 26.4973 18.4934 26.3838 18.2969C26.2703 18.1004 26.1823 17.8962 26.1187 17.688L22.1135 20.0004C22.4138 20.3222 22.6428 20.7115 22.7749 21.1427Z" fill="#BA3FD9"/>
  <path fill-rule="evenodd" clip-rule="evenodd" d="M13.1244 18.0756C12.4435 19.255 10.9295 19.6601 9.7492 18.9786C8.56899 18.2973 8.16273 16.7835 8.84366 15.6041C9.5246 14.4247 11.0387 14.0195 12.219 14.7009C13.3992 15.3823 13.8054 16.8962 13.1244 18.0756ZM10.0099 16.2774C9.69996 16.8142 9.88487 17.5032 10.422 17.8133C10.9592 18.1234 11.6483 17.9391 11.9582 17.4023C12.2681 16.8654 12.0833 16.1764 11.5461 15.8663C11.009 15.5561 10.3198 15.7406 10.0099 16.2774Z" fill="#BA3FD9"/>
  <path fill-rule="evenodd" clip-rule="evenodd" d="M13.1481 25.9659C13.829 27.1453 13.4228 28.6589 12.2425 29.3405C11.0623 30.0218 9.54823 29.6168 8.86731 28.4374C8.18636 27.258 8.59257 25.7442 9.77278 25.0626C10.953 24.3813 12.4671 24.7865 13.1481 25.9659ZM10.0335 27.764C10.3434 28.3008 11.0326 28.4851 11.5697 28.1752C12.1069 27.865 12.2918 27.1759 11.9818 26.6391C11.6719 26.1023 10.9828 25.918 10.4456 26.2279C9.90846 26.5381 9.72359 27.2272 10.0335 27.764Z" fill="#BA3FD9"/>
  <path fill-rule="evenodd" clip-rule="evenodd" d="M19.9931 29.8905C21.355 29.8905 22.4628 30.9993 22.4628 32.362C22.4628 33.7249 21.355 34.8335 19.9931 34.8335C18.6312 34.8335 17.5233 33.7249 17.5233 32.362C17.5233 30.9993 18.6312 29.8905 19.9931 29.8905ZM19.9931 33.4868C20.613 33.4868 21.1171 32.9824 21.1171 32.362C21.1171 31.7418 20.613 31.2371 19.9931 31.2371C19.3732 31.2371 18.8689 31.7418 18.8689 32.362C18.8689 32.9824 19.3732 33.4868 19.9931 33.4868Z" fill="#BA3FD9"/>
  <path fill-rule="evenodd" clip-rule="evenodd" d="M26.8146 25.9249C27.4955 24.7455 29.0095 24.3402 30.1898 25.0218C31.3699 25.7031 31.7762 27.217 31.0953 28.3964C30.4144 29.5758 28.9002 29.9808 27.7201 29.2995C26.5398 28.6181 26.1337 27.1043 26.8146 25.9249ZM29.9291 27.7229C30.2391 27.1861 30.0541 26.4973 29.5168 26.1871C28.9798 25.8769 28.2906 26.0613 27.9808 26.5981C27.6708 27.1349 27.8556 27.8239 28.3929 28.1341C28.9299 28.4443 29.6191 28.2597 29.9291 27.7229Z" fill="#BA3FD9"/>
  <path fill-rule="evenodd" clip-rule="evenodd" d="M26.7908 18.0345C26.1099 16.8551 26.516 15.3414 27.6963 14.6599C28.8766 13.9786 30.3907 14.3836 31.0716 15.563C31.7525 16.7424 31.3464 18.2563 30.1663 18.9377C28.986 19.6191 27.4717 19.2139 26.7908 18.0345ZM29.9054 16.2363C29.5956 15.6995 28.9063 15.5152 28.3693 15.8253C27.8321 16.1354 27.6473 16.8244 27.957 17.3612C28.267 17.898 28.9563 18.0825 29.4933 17.7723C30.0305 17.4622 30.2153 16.7732 29.9054 16.2363Z" fill="#BA3FD9"/>
  <path fill-rule="evenodd" clip-rule="evenodd" d="M19.9458 20.8536C19.326 20.8536 18.8218 21.3582 18.8218 21.9784C18.8218 22.5986 19.326 23.1033 19.9458 23.1033C20.5657 23.1033 21.07 22.5986 21.07 21.9784C21.07 21.3582 20.5657 20.8536 19.9458 20.8536ZM19.9458 24.4499C18.584 24.4499 17.4761 23.3413 17.4761 21.9784C17.4761 20.6156 18.584 19.5069 19.9458 19.5069C21.3077 19.5069 22.4156 20.6156 22.4156 21.9784C22.4156 23.3413 21.3077 24.4499 19.9458 24.4499Z" fill="#BA3FD9"/>
  <path d="M57.9168 28.5124C59.9438 28.5124 61.8102 27.6494 63.1347 26.2647L61.3486 24.6191C60.4856 25.6024 59.2615 26.2246 57.9168 26.2246C55.3681 26.2246 53.2207 24.017 53.2207 21.3679C53.2207 18.7389 55.3681 16.5313 57.9168 16.5313C59.2414 16.5313 60.4856 17.1534 61.3486 18.1368L63.1347 16.4711C61.8102 15.1064 59.9438 14.2435 57.9168 14.2435C54.0034 14.2435 50.672 17.4946 50.672 21.3679C50.672 25.2412 54.0034 28.5124 57.9168 28.5124Z" fill="white"/>
  <path d="M70.5259 28.5124C73.5763 28.5124 76.0649 26.064 76.0649 23.0737C76.0649 20.0835 73.5763 17.6552 70.5259 17.6552C67.4553 17.6552 64.9467 20.0835 64.9467 23.0737C64.9467 26.064 67.4553 28.5124 70.5259 28.5124ZM70.5259 26.4252C68.7799 26.4252 67.355 24.9201 67.355 23.0737C67.355 21.2274 68.7799 19.7423 70.5259 19.7423C72.2518 19.7423 73.6566 21.2274 73.6566 23.0737C73.6566 24.9201 72.2518 26.4252 70.5259 26.4252Z" fill="white"/>
  <path d="M81.626 28.5124C84.0342 28.5124 85.7 27.228 85.7 25.2211C85.7 23.0738 83.7934 22.4918 82.0474 22.0101C80.462 21.5284 79.8198 21.3478 79.8198 20.6655C79.8198 19.943 80.5423 19.5216 81.4654 19.5216C82.4087 19.5216 83.4924 19.9229 84.4758 20.5451L85.419 18.8994C84.2952 18.1569 82.8703 17.6552 81.4654 17.6552C79.1375 17.6552 77.552 18.9797 77.552 20.9063C77.552 22.7928 78.9769 23.4149 81.2246 24.017C82.4689 24.3381 83.4322 24.6191 83.4322 25.4419C83.4322 26.1644 82.7699 26.6259 81.6661 26.6259C80.5222 26.6259 79.2177 26.1644 78.1139 25.3616L77.0704 26.9671C78.3146 27.9505 80.0205 28.5124 81.626 28.5124Z" fill="white"/>
  <path d="M99.9975 17.6552C98.4522 17.6552 97.2079 18.3375 96.5055 19.4212C95.8432 18.3174 94.6993 17.6552 93.3145 17.6552C92.01 17.6552 90.9665 18.2974 90.4447 19.3008V17.896H87.9963V28.2716H90.4447V21.9098C90.4447 20.6454 91.3879 19.7423 92.7125 19.7423C93.8965 19.7423 94.7394 20.7056 94.7394 22.0703V28.2716H97.1075V21.9098C97.1075 20.6454 98.0508 19.7423 99.3753 19.7423C100.579 19.7423 101.402 20.7056 101.402 22.0703V28.2716H103.79V21.6689C103.79 19.3209 102.165 17.6552 99.9975 17.6552Z" fill="white"/>
  <path d="M111.449 28.5124C114.5 28.5124 116.988 26.064 116.988 23.0737C116.988 20.0835 114.5 17.6552 111.449 17.6552C108.379 17.6552 105.87 20.0835 105.87 23.0737C105.87 26.064 108.379 28.5124 111.449 28.5124ZM111.449 26.4252C109.703 26.4252 108.278 24.9201 108.278 23.0737C108.278 21.2274 109.703 19.7423 111.449 19.7423C113.175 19.7423 114.58 21.2274 114.58 23.0737C114.58 24.9201 113.175 26.4252 111.449 26.4252Z" fill="white"/>
  <path d="M122.549 28.5124C124.958 28.5124 126.623 27.228 126.623 25.2211C126.623 23.0738 124.717 22.4918 122.971 22.0101C121.385 21.5284 120.743 21.3478 120.743 20.6655C120.743 19.943 121.466 19.5216 122.389 19.5216C123.332 19.5216 124.416 19.9229 125.399 20.5451L126.342 18.8994C125.219 18.1569 123.794 17.6552 122.389 17.6552C120.061 17.6552 118.475 18.9797 118.475 20.9063C118.475 22.7928 119.9 23.4149 122.148 24.017C123.392 24.3381 124.356 24.6191 124.356 25.4419C124.356 26.1644 123.693 26.6259 122.589 26.6259C121.446 26.6259 120.141 26.1644 119.037 25.3616L117.994 26.9671C119.238 27.9505 120.944 28.5124 122.549 28.5124Z" fill="white"/>
  <path d="M144.703 14.4843V20.1036H137.819V14.4843H135.31V28.2716H137.819V22.3914H144.703V28.2716H147.191V14.4843H144.703Z" fill="white"/>
  <path d="M157.291 17.896V24.1775C157.291 25.4419 156.187 26.4252 154.782 26.4252C153.498 26.4252 152.595 25.4419 152.595 24.017V17.896H150.227V24.4986C150.227 26.8668 151.812 28.5124 154.08 28.5124C155.465 28.5124 156.669 27.8702 157.291 26.9069V28.2716H159.759V17.896H157.291Z" fill="white"/>
  <path d="M168.732 17.6552C167.207 17.6552 165.943 18.3576 165.14 19.5216V14.2435H162.691V28.2716H165.14V26.646C165.943 27.81 167.207 28.5124 168.732 28.5124C171.482 28.5124 173.509 26.2647 173.509 23.0737C173.509 19.9029 171.482 17.6552 168.732 17.6552ZM168.07 26.4252C166.364 26.4252 165.14 25.0204 165.14 23.0737C165.14 21.1271 166.364 19.7423 168.07 19.7423C169.836 19.7423 171.08 21.1271 171.08 23.0737C171.08 25.0204 169.836 26.4252 168.07 26.4252Z" fill="white"/>
  </svg>
  