<svg width="135" height="41" viewBox="0 0 135 41" fill="none" xmlns="http://www.w3.org/2000/svg">
<path d="M32.4501 8.15985C32.294 8.00378 32.2048 7.82541 32.2048 7.62475C32.2048 7.42408 32.294 7.24572 32.4501 7.08965C32.7845 6.7998 33.275 6.7998 33.5872 7.08965C33.7433 7.24572 33.8324 7.42408 33.8324 7.62475C33.8324 7.82541 33.7433 8.00378 33.5872 8.15985C33.4311 8.29363 33.2082 8.36051 33.0075 8.36051C32.8068 8.4051 32.6062 8.31592 32.4501 8.15985ZM30.4435 10.278C30.3097 10.1219 30.2428 9.94353 30.2428 9.74286C30.2428 9.5422 30.332 9.36383 30.4435 9.20776C30.7333 8.91791 31.2238 8.91791 31.5137 9.20776C31.6474 9.36383 31.7143 9.5422 31.7143 9.74286C31.7143 9.94353 31.6252 10.1219 31.5137 10.278C31.3576 10.4117 31.1792 10.4786 30.9786 10.4786C30.7779 10.4786 30.5995 10.4117 30.4435 10.278ZM28.2585 12.3738C28.1247 12.24 28.0578 12.0393 28.0578 11.8387C28.0578 11.638 28.147 11.4597 28.2585 11.3036C28.5483 11.0137 29.0388 11.0137 29.3287 11.3036C29.4624 11.4374 29.5293 11.638 29.5293 11.8387C29.5293 12.0393 29.4401 12.2177 29.3287 12.3738C29.1726 12.5299 28.9942 12.5745 28.7936 12.5745C28.5929 12.5745 28.3922 12.5076 28.2585 12.3738ZM26.1849 14.4696C26.0289 14.3358 25.9397 14.1352 25.9397 13.9345C25.9397 13.7338 26.0289 13.5555 26.1849 13.3994C26.5194 13.1096 27.0099 13.1096 27.322 13.3994C27.4781 13.5332 27.5673 13.7338 27.5673 13.9345C27.5673 14.1352 27.4781 14.3358 27.322 14.4696C27.166 14.6257 26.943 14.6703 26.7423 14.6703C26.5417 14.6703 26.341 14.6257 26.1849 14.4696ZM24.1783 16.5431C24.0222 16.4094 23.9776 16.2087 23.9776 16.008C23.9776 15.8074 24.0668 15.629 24.1783 15.4729C24.4681 15.1831 24.9587 15.1831 25.2485 15.4729C25.4046 15.6067 25.4492 15.8074 25.4492 16.008C25.4492 16.2087 25.36 16.4094 25.2485 16.5431C25.1147 16.6992 24.9141 16.7438 24.7134 16.7438C24.4904 16.7884 24.2898 16.7215 24.1783 16.5431ZM21.748 18.1038C21.748 17.9032 21.8372 17.7248 21.9487 17.5687C22.2386 17.2789 22.7291 17.2789 23.0189 17.5687C23.175 17.7248 23.2196 17.9032 23.2196 18.1038C23.2196 18.3045 23.1304 18.4829 23.0189 18.6389C22.8851 18.7727 22.6845 18.8396 22.4838 18.8396C22.2831 18.8396 22.1048 18.7504 21.9487 18.6389C21.8372 18.5275 21.748 18.3045 21.748 18.1038ZM17.8685 22.7414C17.7348 22.6076 17.6679 22.407 17.6679 22.2063C17.6679 22.0056 17.7571 21.8273 17.8685 21.6712C18.1584 21.3814 18.6489 21.3814 18.9388 21.6712C19.0948 21.8273 19.1394 22.0056 19.1394 22.2063C19.1394 22.407 19.0502 22.5853 18.9388 22.7414C18.805 22.8975 18.6043 22.9421 18.4037 22.9421C18.1807 22.9867 18.0246 22.8975 17.8685 22.7414ZM15.6835 24.8372C15.5275 24.7034 15.4383 24.5028 15.4383 24.3021C15.4383 24.1015 15.5275 23.9231 15.6835 23.767C16.018 23.4772 16.5085 23.4772 16.8206 23.767C16.9767 23.9231 17.0659 24.1015 17.0659 24.3021C17.0659 24.5028 16.9767 24.6812 16.8206 24.8372C16.6646 24.9933 16.4416 25.0379 16.2409 25.0379C16.0626 25.0825 15.8619 24.9933 15.6835 24.8372ZM13.6769 26.9553C13.5431 26.8216 13.4762 26.6209 13.4762 26.4202C13.4762 26.2196 13.5654 26.0189 13.6769 25.8851C13.9668 25.5953 14.4573 25.5953 14.7471 25.8851C14.8809 26.0189 14.9478 26.2196 14.9478 26.4202C14.9478 26.6209 14.8586 26.7993 14.7471 26.9553C14.591 27.1114 14.4127 27.156 14.212 27.156C14.0113 27.156 13.8553 27.0891 13.6769 26.9553ZM11.6034 29.0512C11.4473 28.9174 11.4027 28.7167 11.4027 28.5161C11.4027 28.3154 11.4919 28.137 11.6034 27.9809C11.8932 27.6911 12.3837 27.6911 12.6736 27.9809C12.8074 28.137 12.8743 28.3154 12.8743 28.5161C12.8743 28.7167 12.7851 28.9174 12.6736 29.0512C12.5175 29.2072 12.3391 29.2518 12.1385 29.2518C11.9155 29.2518 11.7149 29.2072 11.6034 29.0512ZM9.41838 31.147C9.26231 31.0132 9.17313 30.8125 9.17313 30.6119C9.17313 30.4112 9.26231 30.2328 9.41838 30.0768C9.75282 29.7869 10.2433 29.7869 10.5332 30.0768C10.6892 30.2328 10.7784 30.4112 10.7784 30.6119C10.7784 30.8125 10.6892 31.0132 10.5332 31.147C10.3771 31.2808 10.1541 31.3476 9.95348 31.3476C9.75282 31.3476 9.55216 31.303 9.41838 31.147ZM7.36715 33.2205C7.21108 33.0644 7.16649 32.8861 7.16649 32.6854C7.16649 32.4847 7.25567 32.3064 7.36715 32.1503C7.657 31.8604 8.14751 31.8604 8.43736 32.1503C8.59343 32.3064 8.63802 32.4847 8.63802 32.6854C8.63802 32.8861 8.54884 33.0644 8.43736 33.2205C8.30358 33.3543 8.10292 33.4212 7.90226 33.4212C7.74618 33.4658 7.54552 33.3989 7.36715 33.2205ZM8.43736 8.15985C8.57113 8.00378 8.63802 7.82541 8.63802 7.62475C8.63802 7.42408 8.54884 7.24572 8.43736 7.08965C8.14751 6.7998 7.657 6.7998 7.36715 7.08965C7.21108 7.24572 7.16649 7.42408 7.16649 7.62475C7.16649 7.82541 7.25567 8.00378 7.36715 8.15985C7.50093 8.29363 7.70159 8.36051 7.90226 8.36051C8.10292 8.4051 8.30358 8.31592 8.43736 8.15985ZM10.5332 10.278C10.6892 10.1219 10.7784 9.94353 10.7784 9.74286C10.7784 9.5422 10.6892 9.36383 10.5332 9.20776C10.1987 8.91791 9.70823 8.91791 9.39609 9.20776C9.24001 9.36383 9.15083 9.5422 9.15083 9.74286C9.15083 9.94353 9.24001 10.1219 9.39609 10.278C9.55216 10.4117 9.77512 10.4786 9.97578 10.4786C10.1541 10.4786 10.3548 10.4117 10.5332 10.278ZM12.6513 12.3738C12.7851 12.24 12.852 12.0393 12.852 11.8387C12.852 11.638 12.7628 11.4597 12.6513 11.3036C12.3614 11.0137 11.8709 11.0137 11.5811 11.3036C11.4473 11.4374 11.3804 11.638 11.3804 11.8387C11.3804 12.0393 11.4696 12.2177 11.5811 12.3738C11.7372 12.5299 11.9155 12.5745 12.1162 12.5745C12.2946 12.5745 12.4952 12.5076 12.6513 12.3738ZM14.7471 14.4696C14.8809 14.3358 14.9478 14.1352 14.9478 13.9345C14.9478 13.7338 14.8586 13.5555 14.7471 13.3994C14.4573 13.1096 13.9668 13.1096 13.6769 13.3994C13.5431 13.5332 13.4762 13.7338 13.4762 13.9345C13.4762 14.1352 13.5654 14.3358 13.6769 14.4696C13.833 14.6257 14.0113 14.6703 14.212 14.6703C14.3681 14.6703 14.591 14.6257 14.7471 14.4696ZM16.7983 16.5431C16.9544 16.4094 17.0436 16.2087 17.0436 16.008C17.0436 15.8074 16.9544 15.629 16.7983 15.4729C16.5085 15.1831 15.9734 15.1831 15.6835 15.4729C15.5275 15.6067 15.4383 15.8074 15.4383 16.008C15.4383 16.2087 15.5275 16.4094 15.6835 16.5431C15.8396 16.6992 16.0626 16.7438 16.2632 16.7438C16.4639 16.7884 16.6646 16.7215 16.7983 16.5431ZM19.1394 18.1038C19.1394 17.9032 19.0502 17.7248 18.9388 17.5687C18.6489 17.2789 18.1584 17.2789 17.8685 17.5687C17.7125 17.7248 17.6679 17.9032 17.6679 18.1038C17.6679 18.3045 17.7571 18.4829 17.8685 18.6389C18.0023 18.7727 18.203 18.8396 18.4037 18.8396C18.6043 18.8396 18.7827 18.7504 18.9388 18.6389C19.0948 18.5275 19.1394 18.3045 19.1394 18.1038ZM21.0123 20.7794C21.1683 20.6233 21.2129 20.4449 21.2129 20.2443C21.2129 20.0436 21.1238 19.8652 21.0123 19.7092C20.7224 19.4193 20.2319 19.4193 19.9421 19.7092C19.786 19.8652 19.7414 20.0436 19.7414 20.2443C19.7414 20.4449 19.8306 20.6233 19.9421 20.7794C20.0758 20.9131 20.2765 20.98 20.4772 20.98C20.6778 20.98 20.9008 20.8908 21.0123 20.7794ZM23.1081 22.7414C23.2642 22.6076 23.3534 22.407 23.3534 22.2063C23.3534 22.0056 23.2642 21.8273 23.1081 21.6712C22.7737 21.3814 22.2831 21.3814 21.9933 21.6712C21.8372 21.8273 21.748 22.0056 21.748 22.2063C21.748 22.407 21.8372 22.5853 21.9933 22.7414C22.1494 22.8975 22.3723 22.9421 22.573 22.9421C22.7291 22.9867 22.952 22.8975 23.1081 22.7414ZM25.2262 24.8372C25.36 24.7034 25.4269 24.5028 25.4269 24.3021C25.4269 24.1015 25.3377 23.9231 25.2262 23.767C24.9364 23.4772 24.4459 23.4772 24.156 23.767C24.0222 23.9231 23.9553 24.1015 23.9553 24.3021C23.9553 24.5028 24.0445 24.6812 24.156 24.8372C24.3121 24.9933 24.4904 25.0379 24.6911 25.0379C24.8695 25.0825 25.0701 24.9933 25.2262 24.8372ZM27.322 26.9553C27.4558 26.8216 27.5227 26.6209 27.5227 26.4202C27.5227 26.2196 27.4335 26.0189 27.322 25.8851C27.0322 25.5953 26.5417 25.5953 26.2518 25.8851C26.118 26.0189 26.0512 26.2196 26.0512 26.4202C26.0512 26.6209 26.1403 26.7993 26.2518 26.9553C26.4079 27.1114 26.5863 27.156 26.7869 27.156C26.9876 27.156 27.166 27.0891 27.322 26.9553ZM29.2841 29.0512C29.4401 28.9174 29.4847 28.7167 29.4847 28.5161C29.4847 28.3154 29.3956 28.137 29.2841 27.9809C28.9942 27.6911 28.5037 27.6911 28.2139 27.9809C28.0801 28.137 28.0132 28.3154 28.0132 28.5161C28.0132 28.7167 28.1024 28.9174 28.2139 29.0512C28.3699 29.2072 28.5483 29.2518 28.749 29.2518C28.9496 29.2518 29.1726 29.2072 29.2841 29.0512ZM31.5137 31.147C31.6697 31.0132 31.7143 30.8125 31.7143 30.6119C31.7143 30.4112 31.6252 30.2328 31.5137 30.0768C31.2238 29.7869 30.7333 29.7869 30.4435 30.0768C30.2874 30.2328 30.2428 30.4112 30.2428 30.6119C30.2428 30.8125 30.332 31.0132 30.4435 31.147C30.5772 31.2808 30.7779 31.3476 30.9786 31.3476C31.1792 31.3476 31.3799 31.303 31.5137 31.147ZM33.5872 33.2205C33.7433 33.0644 33.8324 32.8861 33.8324 32.6854C33.8324 32.4847 33.7433 32.3064 33.5872 32.1503C33.2528 31.8604 32.7622 31.8604 32.4724 32.1503C32.3163 32.3064 32.2271 32.4847 32.2271 32.6854C32.2271 32.8861 32.3163 33.0644 32.4724 33.2205C32.6285 33.3543 32.8514 33.4212 33.0521 33.4212C33.2305 33.4658 33.4311 33.3989 33.5872 33.2205ZM13.3871 8.71725C15.5275 7.3349 17.8463 6.66602 20.4326 6.62143C22.9743 6.62143 25.3154 7.3126 27.4781 8.71725L31.9819 4.21347C28.4591 1.56025 24.6465 0.200195 20.4326 0.200195C16.2186 0.200195 12.3614 1.56025 8.92787 4.21347L13.3871 8.71725ZM8.88328 27.2006C7.45634 25.0379 6.74287 22.6968 6.74287 20.1997C6.74287 17.6579 7.43404 15.3169 8.88328 13.1987L4.42409 8.73955C1.79316 12.1731 0.5 15.9857 0.5 20.2443C0.5 24.4136 1.81546 28.2708 4.46868 31.749L8.88328 27.2006ZM27.5004 31.6821C25.36 33.109 23.0412 33.8448 20.4995 33.8894C17.9131 33.8894 15.5498 33.1982 13.4094 31.7267L8.90557 36.1859C12.3837 38.8837 16.2409 40.2437 20.4995 40.1991C24.7134 40.1545 28.526 38.8168 31.9819 36.1859L27.5004 31.6821ZM31.8704 13.1541C33.2973 15.3168 34.0331 17.7025 34.0108 20.2888C33.9662 22.786 33.275 25.0825 31.8704 27.1783L36.3742 31.6375C39.0274 28.2039 40.3875 24.3913 40.3875 20.1997C40.432 15.9411 39.072 12.0839 36.3742 8.60577L31.8704 13.1541ZM36.5749 33.0644C38.2916 33.0644 39.7409 34.4468 39.7409 36.2305C39.7409 37.9472 38.3585 39.3965 36.5749 39.3965C34.8581 39.3965 33.4088 38.0141 33.4088 36.2305C33.4311 34.4691 34.8135 33.0644 36.5749 33.0644ZM4.3795 33.0644C6.09628 33.0644 7.50093 34.4468 7.50093 36.2305C7.50093 37.9472 6.11858 39.3965 4.3795 39.3965C2.64041 39.3965 1.25806 38.0141 1.25806 36.2305C1.25806 34.4691 2.66271 33.0644 4.3795 33.0644ZM36.6194 0.891371C38.3362 0.891371 39.7409 2.27372 39.7409 4.0574C39.7409 5.81878 38.3585 7.22342 36.6194 7.22342C34.8804 7.22342 33.498 5.84107 33.498 4.0574C33.5203 2.29602 34.9027 0.891371 36.6194 0.891371ZM4.3349 0.891371C6.05169 0.891371 7.50093 2.27372 7.50093 4.0128C7.50093 5.72959 6.11858 7.13423 4.3349 7.13423C2.61812 7.13423 1.16888 5.75189 1.16888 4.0128C1.19117 2.29602 2.57352 0.891371 4.3349 0.891371ZM63.709 26.1304L62.1483 24.748C61.2119 25.8628 59.3167 26.5094 57.7337 26.5094C55.0805 26.5094 52.9401 24.9041 52.6948 22.3401H64.4894C65.0245 16.8107 61.7916 14.1798 57.533 14.1798C53.3637 14.1798 50.3315 17.1674 50.3315 21.3814C50.3315 25.796 53.3191 28.6275 57.6668 28.6275C59.8518 28.6052 62.2821 27.7803 63.709 26.1304ZM62.349 20.3557H52.7171C53.1184 17.7025 55.2143 16.2087 57.6445 16.2087C60.3423 16.2087 62.1929 17.6356 62.349 20.2666V20.3557V20.3557ZM70.2194 8.65036H67.923V28.36H70.2194V8.65036ZM76.7299 14.4696H74.5894V28.36H76.8859V20.6233C76.8859 18.0815 78.7365 16.4762 80.9884 16.4539C81.9248 16.4539 82.6606 16.6992 83.3963 17.2343L84.422 15.2723C83.5524 14.6257 82.4153 14.2021 81.189 14.2466C79.5837 14.2466 77.867 14.7372 76.9305 16.5431L76.7299 14.4696ZM85.7597 21.4259C85.7597 25.6399 88.792 28.6052 92.9613 28.6052C97.1307 28.6052 100.163 25.6622 100.163 21.4259C100.163 17.1228 97.1752 14.1352 92.9613 14.1352C88.8366 14.1352 85.7597 17.1228 85.7597 21.4259ZM97.8887 21.4259C97.8441 24.3244 95.7929 26.4202 92.939 26.4202C90.1074 26.4202 88.0562 24.3244 88.0562 21.4259C88.0562 18.3045 90.152 16.2533 92.9836 16.2533C95.7483 16.2756 97.8887 18.3491 97.8887 21.4259ZM103.485 14.425V28.36H105.781V20.8908C105.781 18.3937 107.543 16.3871 110.04 16.3425C112.693 16.3425 114.254 18.0147 114.254 20.6902V28.36H116.55V20.6902C116.55 16.5877 113.964 14.2466 110.441 14.2466C108.591 14.2466 106.874 15.027 105.692 16.6546L105.559 14.4473L103.485 14.425ZM134.231 8.65036H131.935V16.9668C130.954 15.0716 128.702 14.1798 126.74 14.1798C122.816 14.1798 119.739 16.7215 119.739 21.3814C119.739 25.9743 122.816 28.5829 126.784 28.5829C128.836 28.5829 130.887 27.6911 131.979 25.7514L132.113 28.2931H134.276L134.231 8.65036ZM126.94 16.3425C129.683 16.3425 131.868 18.3937 131.868 21.3368C131.868 24.369 129.705 26.4202 126.94 26.4202C124.243 26.4202 122.058 24.5697 122.058 21.3814C122.058 18.1484 124.198 16.3871 126.851 16.3425H126.94V16.3425Z" fill="black"/>
</svg>
