<svg width="100" height="100" xmlns="http://www.w3.org/2000/svg"><g fill-rule="nonzero" fill="none"><circle fill="#00EF8B" cx="50" cy="50" r="50"/><path fill="#FFF" d="M57.82 42.18h14.12V56.3H57.82zM43.71 61.59a5.3 5.3 0 11-5.3-5.3h5.3V42.18h-5.3C27.69 42.18 19 50.87 19 61.59S27.69 81 38.41 81s19.41-8.69 19.41-19.41v-5.3H43.71v5.3zM63.12 35.12H79V21H63.12c-10.715.011-19.399 8.695-19.41 19.41v1.77h14.11v-1.77a5.3 5.3 0 015.3-5.29z"/><path fill="#16FF99" d="M43.71 56.29h14.11V42.18H43.71z"/></g></svg>