<svg width="129" height="44" viewBox="0 0 129 44" fill="none" xmlns="http://www.w3.org/2000/svg">
<g clip-path="url(#clip0_1478_233)">
<path fill-rule="evenodd" clip-rule="evenodd" d="M94.4447 15.1775C94.4447 8.96827 89.3686 3.95996 83.1874 3.95996C76.962 3.95996 71.8501 9.00392 71.8501 15.2572V37.7931H76.6493V15.2572C76.6493 11.6823 79.5846 8.75907 83.1874 8.75907C86.7462 8.75907 89.6455 11.6467 89.6455 15.1775C89.6455 18.7224 86.7717 21.596 83.2269 21.596H80.141V26.395H83.2269C89.4223 26.395 94.4447 21.3729 94.4447 15.1775Z" fill="black"/>
<path fill-rule="evenodd" clip-rule="evenodd" d="M106.021 15.1775C106.021 8.96827 111.097 3.95996 117.278 3.95996C123.503 3.95996 128.615 9.00392 128.615 15.2572V26.4117H123.816V15.2572C123.816 11.6823 120.881 8.75907 117.278 8.75907C113.719 8.75907 110.82 11.6467 110.82 15.1775C110.82 18.7224 113.693 21.596 117.238 21.596H120.324V26.395H117.238C111.043 26.395 106.021 21.3729 106.021 15.1775Z" fill="black"/>
<path fill-rule="evenodd" clip-rule="evenodd" d="M11.1126 21.6567C14.6249 21.6567 17.4721 18.8094 17.4721 15.2972C17.4721 11.7849 14.6249 8.93768 11.1126 8.93768C7.60035 8.93768 4.7531 11.7849 4.7531 15.2972C4.7531 18.8094 7.60035 21.6567 11.1126 21.6567ZM11.1126 26.3952C17.2419 26.3952 22.2106 21.4264 22.2106 15.2972C22.2106 9.16795 17.2419 4.19922 11.1126 4.19922C4.98337 4.19922 0.0146484 9.16795 0.0146484 15.2972C0.0146484 21.4264 4.98337 26.3952 11.1126 26.3952Z" fill="black"/>
<path fill-rule="evenodd" clip-rule="evenodd" d="M11.1384 34.9876C12.8314 34.9876 14.4551 34.315 15.6523 33.1177C16.8494 31.9207 17.522 30.297 17.522 28.604H22.2604C22.2604 31.5538 21.0887 34.3827 19.0029 36.4685C16.9171 38.5541 14.0882 39.7261 11.1384 39.7261C8.18865 39.7261 5.35972 38.5541 3.27392 36.4685C1.18814 34.3827 0.0163572 31.5536 0.0163574 28.604H4.75482C4.75482 30.297 5.42737 31.9207 6.62453 33.1177C7.82167 34.315 9.44536 34.9876 11.1384 34.9876Z" fill="black"/>
<path fill-rule="evenodd" clip-rule="evenodd" d="M34.2351 19.2496V3.83887H38.981V19.2496C38.981 20.5602 40.0433 21.6226 41.3541 21.6226H44.2017V26.3686H41.3541C37.4223 26.3686 34.2351 23.1812 34.2351 19.2496Z" fill="black"/>
<path d="M97.7969 12.5977H102.596V26.6951H97.7969V12.5977Z" fill="black"/>
<path d="M97.7969 8.51447H102.596V3.71533H97.7969V8.51447Z" fill="black"/>
<path d="M25.8101 12.5977H30.6092V26.395H25.8101V12.5977Z" fill="black"/>
<path d="M25.8101 8.51447H30.6092V3.71533H25.8101V8.51447Z" fill="black"/>
<path fill-rule="evenodd" clip-rule="evenodd" d="M64.8031 15.5971C64.8031 19.2415 61.8485 22.1959 58.2042 22.1959C54.5599 22.1959 51.6053 19.2415 51.6053 15.5971C51.6053 11.9527 54.5599 8.99833 58.2042 8.99833C61.8485 8.99833 64.8031 11.9527 64.8031 15.5971ZM69.602 15.5971C69.602 21.892 64.4991 26.995 58.2042 26.995C51.9093 26.995 46.8064 21.892 46.8064 15.5971C46.8064 9.30223 51.9093 4.19922 58.2042 4.19922C64.4991 4.19922 69.602 9.30223 69.602 15.5971Z" fill="black"/>
<path d="M38.9807 9.4917H43.7266V14.2377H38.9807V9.4917Z" fill="black"/>
<path d="M8.57446 0H13.5386V5.41538H8.57446V0Z" fill="black"/>
<path d="M8.57446 38.3589H13.5386V43.9999H8.57446V38.3589Z" fill="black"/>
</g>
<defs>
<clipPath id="clip0_1478_233">
<rect width="128.615" height="44" fill="white"/>
</clipPath>
</defs>
</svg>
