<svg width="231" height="44" viewBox="0 0 231 44" fill="none" xmlns="http://www.w3.org/2000/svg">
<g clip-path="url(#clip0_1237_168)">
<path fill-rule="evenodd" clip-rule="evenodd" d="M8.41062 0V17.4875C11.1838 13.8496 14.5872 12.7646 18.1167 12.7646C26.9404 12.7646 30.8481 18.8278 30.8481 28.0821L30.8412 39.8721C28.2749 40.1497 25.7123 40.4399 23.1536 40.7425L23.1588 28.1459C23.1588 22.4018 20.1966 19.9766 16.0999 19.9766C11.562 19.9766 8.41062 23.8698 8.41062 28.5927L8.40329 42.631C5.83793 42.9845 3.27656 43.3506 0.719238 43.7292L0.721396 0H8.41062ZM216.548 12.3178C221.401 12.3178 225.056 13.2752 228.649 16.4663L224.363 21.5721C222.157 19.466 219.636 18.7639 216.674 18.7639C213.018 18.7639 211.001 19.9127 211.001 21.8913C211.001 23.9336 212.829 25.0824 216.8 25.3377C217.293 25.3699 217.798 25.409 218.309 25.4584L218.693 25.4975C224.145 26.0806 230.098 27.941 230.098 35.4217C230.098 38.494 228.729 41.3318 225.999 43.254L226.004 43.2372C218.192 42.1158 210.342 41.111 202.456 40.2248L202.367 40.1446L206.148 34.592C208.354 37.0811 213.396 38.932 216.863 38.9958C219.762 39.0596 222.472 37.5279 222.472 35.2303C222.472 33.0603 220.708 32.1667 216.296 31.9115C210.434 31.4647 203.438 29.2947 203.438 22.1466C203.438 14.8707 210.875 12.3178 216.548 12.3178ZM184.79 12.7008C192.101 12.7008 197.963 18.2533 197.963 28.1459L197.97 39.7339C195.409 39.4611 192.845 39.2009 190.276 38.9532L190.274 28.2097C190.274 23.423 187.689 19.7851 182.773 19.7851C178.046 19.7851 174.832 23.8059 174.832 28.5927L174.838 37.6192C172.298 37.4252 169.755 37.2434 167.209 37.074L167.206 13.1475H174.076L174.58 17.4237C177.731 14.2963 180.883 12.7008 184.79 12.7008ZM44.0757 13.2114V31.3763C44.0757 34.3184 45.052 36.8266 46.9459 38.3227L46.9395 38.2997C43.8838 38.5661 40.8332 38.8503 37.7877 39.1521C36.886 36.9921 36.3865 34.4043 36.3865 31.4401V13.2114H44.0757ZM67.1434 13.2114L67.1383 36.8029C63.7588 37.0093 60.3851 37.2374 57.0173 37.487L57.0248 37.5127C58.6 35.8889 59.5172 33.5504 59.5172 30.9933V13.2114H67.1434ZM143.894 12.4455C148.054 12.4455 152.024 14.424 153.789 17.5513L154.041 13.2114H161.415L161.422 36.7105C157.877 36.501 154.325 36.3154 150.768 36.1538L150.764 36.1714C156.116 31.0894 154.057 19.4022 144.587 19.4022C139.482 19.4022 135.385 22.9124 135.385 28.9118C135.385 31.7586 136.308 34.0594 137.823 35.6912L137.828 35.673C134.774 35.5848 131.715 35.5142 128.653 35.4614C128.03 33.5455 127.696 31.3587 127.696 28.9118C127.696 18.0619 134.818 12.3816 143.894 12.4455ZM89.3209 12.6369C93.0395 12.6369 96.758 14.1687 98.5228 18.5087C101.296 14.0411 104.888 12.7646 108.922 12.7646C117.746 12.7646 122.095 18.2534 122.095 27.6992L122.101 35.3757C119.753 35.3548 117.402 35.3443 115.049 35.3443L114.405 35.3493L114.405 27.6992C114.405 23.5507 112.704 20.0404 108.544 20.0404C104.384 20.0404 101.8 23.6783 101.8 27.8268L101.799 35.4554C99.2314 35.4985 96.6666 35.5541 94.1049 35.6222L94.1109 27.8268C94.1109 23.6783 91.968 19.9128 87.7452 19.9128C83.5855 19.9128 81.1274 23.6783 81.1274 27.8268L81.1218 36.0745C78.5555 36.1852 75.9924 36.3084 73.4326 36.444L73.4382 13.1475H80.5602L81.1274 16.9769C82.7661 13.7858 86.3587 12.6369 89.3209 12.6369Z" fill="white"/>
</g>
<defs>
<clipPath id="clip0_1237_168">
<rect width="230.098" height="44" fill="white"/>
</clipPath>
</defs>
</svg>
