<svg width="198" height="44" viewBox="0 0 198 44" fill="none" xmlns="http://www.w3.org/2000/svg">
<path d="M8.61793 44H0L9.72552 0H18.3586L14.3834 18.04H15.9462L30.6938 0H40.7076V0.758621L23.3352 21.6207V22.7586L34.3048 43.6207V44H24.7766L15.309 25.96H12.5628L8.61793 44ZM96.6786 0.758621L74.6938 33.5159L72.3876 44H63.7545L66.1669 32.8786L57.989 0H67.1379L72.0993 20.9986H73.2828L87.2717 0H96.6786V0.758621ZM110.288 0H119.043L120.53 39.8579H121.713L139.252 0H148.28V0.758621L128.571 44H112.503L110.288 0ZM160.6 43.2414L170.143 0H197.241V7.92H176.986L174.817 17.9793H192.523V25.8993H173.011L170.75 36.08H190.05V44H160.585V43.2414H160.6Z" fill="black"/>
</svg>
