<svg width="173" height="29" viewBox="0 0 173 29" fill="none" xmlns="http://www.w3.org/2000/svg">
<path d="M72.9443 3.31467V5.98352H74.7115H76.4788V3.31467V0.645815H74.7115H72.9443V3.31467Z" fill="#1D1E22"/>
<path d="M49.949 15.916L49.9706 27.9475H51.6657H53.3608L53.3824 15.916L53.3969 3.89177H51.6657H49.9346L49.949 15.916Z" fill="#1D1E22"/>
<path d="M59.6001 7.20975V9.51795H57.5805H55.5608V11.0688V12.6196H57.5805H59.6001V17.3225C59.6073 23.2878 59.6434 23.7206 60.2998 25.0983C60.7614 26.0576 61.4395 26.7429 62.4133 27.2189C63.7333 27.8609 64.606 27.9835 68.0034 27.9835H70.4198V26.3966V24.8097H68.1549C66.4526 24.8097 65.7601 24.7809 65.3923 24.7088C64.0723 24.4275 63.4375 23.7927 63.1201 22.4294C63.0696 22.2275 63.0336 20.3232 63.0119 17.3586L62.9759 12.6196H66.6978H70.4198V11.0688V9.51795H66.7051H62.9903V7.20975V4.90155H61.2952H59.6001V7.20975Z" fill="#1D1E22"/>
<path d="M154.77 5.96192C154.467 6.55339 154.157 7.13766 154.077 7.27471C154.005 7.40454 153.948 7.52717 153.962 7.53438C153.976 7.54159 155.808 8.51536 158.045 9.69831C160.273 10.8813 162.098 11.8695 162.098 11.8983C162.098 11.9272 160.273 12.9154 158.045 14.0983C155.808 15.2813 153.976 16.255 153.969 16.2622C153.948 16.2767 155.246 18.7652 155.318 18.8445C155.347 18.8734 157.071 18.217 159.148 17.3803C161.572 16.3993 163.022 15.8511 163.18 15.8511C163.339 15.8511 164.803 16.4065 167.212 17.3731C169.29 18.217 171.021 18.8734 171.05 18.8445C171.122 18.7652 172.42 16.2767 172.399 16.2622C172.384 16.255 170.552 15.2741 168.323 14.0911C166.087 12.9154 164.262 11.92 164.262 11.8983C164.262 11.8767 166.087 10.8813 168.323 9.70553C170.552 8.52258 172.384 7.54159 172.399 7.53438C172.42 7.51995 171.122 5.03143 171.043 4.95208C171.014 4.92323 169.29 5.57962 167.212 6.41635C164.796 7.39733 163.339 7.94553 163.18 7.94553C163.022 7.94553 161.572 7.39733 159.163 6.42356C157.092 5.58684 155.376 4.90159 155.361 4.90159C155.34 4.90159 155.08 5.37766 154.77 5.96192Z" fill="#24F7DE"/>
<path d="M0.380371 17.4885V27.9835H1.96726H3.55414L3.56857 19.1763L3.59021 10.3691L7.2689 19.2124L10.9476 28.0557L12.1594 28.0412L13.3712 28.0196L17.0643 19.1691L20.7574 10.3186L20.7791 19.1547L20.7935 27.9835H22.4525H24.1115V17.4885V6.99337H21.6014H19.0912L15.7443 14.9711C13.905 19.3566 12.3758 22.956 12.3469 22.9704C12.3253 22.9921 10.7961 19.3999 8.95677 14.9999L5.61709 6.99337H2.99873H0.380371V17.4885Z" fill="#1D1E22"/>
<path d="M140.142 9.09242C138.569 9.25833 137.105 9.74882 136.066 10.4485C135.547 10.7947 134.84 11.5377 134.544 12.0426C134.09 12.8072 133.931 13.4419 133.931 14.459C133.931 15.4688 134.025 15.9088 134.4 16.695C135.02 17.979 136.16 18.8878 137.841 19.4288C138.67 19.7029 139.247 19.7967 141.765 20.0852C144.859 20.4314 145.479 20.5685 146.229 21.0446C147.059 21.5711 147.384 22.7973 146.958 23.7567C146.547 24.68 145.248 25.3075 143.409 25.4518C141.988 25.5672 140.596 25.4013 139.521 24.9829C138.49 24.579 137.466 23.7928 137.105 23.1291L136.961 22.8623H135.143H133.325L133.426 23.1436C134.018 24.8242 135.446 26.4183 137.177 27.3128C140.149 28.8491 144.671 28.8996 147.549 27.421C149.035 26.6636 149.944 25.6321 150.391 24.1967C150.572 23.6052 150.565 22.0328 150.384 21.3114C149.901 19.4432 148.718 18.2891 146.59 17.6111C145.624 17.301 145.01 17.2 142.479 16.9114C141.252 16.7744 140.005 16.6085 139.694 16.5508C138.028 16.2046 137.285 15.5121 137.285 14.3003C137.285 13.8891 137.321 13.7521 137.502 13.4419C138.057 12.4682 139.384 11.9705 141.433 11.9705C143.525 11.9705 145.054 12.5042 146.258 13.6583L146.756 14.1344H148.516C149.908 14.1344 150.269 14.1128 150.269 14.0406C150.269 13.8675 149.685 12.735 149.367 12.295C148.754 11.4439 147.744 10.6072 146.669 10.059C145.097 9.27275 142.342 8.8616 140.142 9.09242Z" fill="#1D1E22"/>
<path d="M107.135 9.12846C104.689 9.41698 102.792 10.3114 101.306 11.855C99.9864 13.2327 99.1785 14.834 98.789 16.8393C98.6159 17.7481 98.6159 19.7678 98.789 20.655C99.4815 24.1029 101.681 26.714 104.848 27.8321C106.067 28.2649 106.796 28.373 108.361 28.373C109.933 28.373 110.611 28.2793 111.801 27.9042C114.297 27.1108 116.288 25.3003 117.024 23.158C117.103 22.9416 117.161 22.754 117.161 22.7396C117.161 22.7324 116.396 22.718 115.466 22.718H113.778L113.67 22.9199C113.569 23.1219 112.891 23.8144 112.544 24.0668C111.152 25.1127 108.556 25.5599 106.68 25.0694C104.415 24.4852 102.749 22.718 102.23 20.3521C102.15 20.0058 102.085 19.6019 102.085 19.4504V19.1835H109.746H117.399L117.348 18.3829C117.024 12.9875 113.396 9.27272 108.303 9.12846C107.798 9.10682 107.272 9.11403 107.135 9.12846ZM109.479 12.1796C111.044 12.5547 112.22 13.4635 113.028 14.9278C113.266 15.3606 113.554 16.0963 113.554 16.2622C113.554 16.356 112.819 16.3704 107.921 16.3704H102.287L102.338 16.1685C102.36 16.0603 102.482 15.7357 102.598 15.4399C103.218 13.8891 104.552 12.6917 106.132 12.2662C106.875 12.0642 106.911 12.0642 107.964 12.0498C108.664 12.0426 109.046 12.0786 109.479 12.1796Z" fill="#1D1E22"/>
<path d="M129.509 9.44582C127.071 9.64778 125.203 10.7225 124.302 12.4393L124.085 12.8432L124.071 11.1986L124.049 9.55401L122.376 9.53237L120.695 9.51795V18.7507V27.9835H122.39H124.085V22.3573C124.085 16.1035 124.085 16.0675 124.554 15.1009C125.138 13.9035 126.386 13.1894 128.377 12.9081C128.658 12.872 129.683 12.8143 130.671 12.7927L132.452 12.7422V11.0543V9.37368L131.32 9.3809C130.692 9.38811 129.877 9.41696 129.509 9.44582Z" fill="#1D1E22"/>
<path d="M28.4395 15.2452C28.4395 18.9167 28.4683 21.1744 28.5188 21.5278C28.6847 22.7252 29.0598 23.8288 29.6513 24.8387C30.1201 25.6465 31.368 26.8944 32.1398 27.3272C33.2217 27.9331 34.1811 28.2288 35.4001 28.3298C36.8211 28.4452 37.9103 28.2577 39.0788 27.6951C40.2906 27.1108 41.2211 26.2885 41.9424 25.1705L42.2886 24.6295V26.3029V27.9836H43.9837H45.6788V18.7508V9.51801H43.9837H42.2958L42.2742 15.0865C42.2454 20.5829 42.2454 20.6695 42.0867 21.2393C42.0001 21.5567 41.7765 22.1265 41.5962 22.5016C40.9975 23.7134 39.9299 24.6006 38.5739 25.0262C37.8454 25.2498 36.6624 25.3003 35.869 25.1416C33.8998 24.7449 32.6447 23.4898 32.0604 21.3619L31.8729 20.6623L31.844 15.0865L31.8224 9.51801H30.1273H28.4395V15.2452Z" fill="#1D1E22"/>
<path d="M73.0668 9.56844C73.038 9.59008 73.0164 13.7448 73.0164 18.8012V27.9835H74.7114H76.4065V18.7507V9.51795H74.7619C73.8531 9.51795 73.0885 9.53959 73.0668 9.56844Z" fill="#1D1E22"/>
<path d="M78.7148 9.57569C78.7148 9.60455 80.6624 13.8314 83.0427 18.9672L87.3634 28.3082L88.6762 28.3298C89.448 28.337 90.025 28.3154 90.0611 28.2793C90.1188 28.2216 98.623 9.60455 98.623 9.53242C98.623 9.5252 97.8368 9.5252 96.8775 9.53242L95.1247 9.55406L91.9942 16.6013C90.2703 20.4819 88.8421 23.6557 88.8204 23.6557C88.7916 23.6557 87.3562 20.4819 85.625 16.6013L82.4873 9.55406L80.5975 9.53242C79.566 9.5252 78.7148 9.53963 78.7148 9.57569Z" fill="#1D1E22"/>
</svg>
