<?xml version="1.0" encoding="utf-8"?>
<!-- Generator: Adobe Illustrator 27.0.1, SVG Export Plug-In . SVG Version: 6.00 Build 0)  -->
<svg version="1.1" id="Layer_1" xmlns="http://www.w3.org/2000/svg" xmlns:xlink="http://www.w3.org/1999/xlink" x="0px" y="0px"
	 viewBox="0 0 1034.9 377.4" style="enable-background:new 0 0 1034.9 377.4;" xml:space="preserve">
<g>
	<polygon points="446.2,168.3 430.5,168.3 430.5,129.9 407.1,129.9 407.1,168.3 391.4,168.3 391.4,114.1 446.2,114.1 	"/>
	<g>
		<rect x="608.1" y="114.2" width="15.8" height="54.1"/>
		<rect x="644.9" y="114.2" width="15.8" height="54.1"/>
		<rect x="626.5" y="114.2" width="15.8" height="54.1"/>
	</g>
	<g>
		<path d="M882.8,143.9H867c0-7.7-6.3-13.9-13.9-13.9v-15.8C869.5,114.2,882.8,127.5,882.8,143.9L882.8,143.9z"/>
		<polygon points="883.3,166.9 830.7,166.9 830.7,114.2 846.5,114.2 846.5,151.1 883.3,151.1 		"/>
	</g>
	<g>
		<rect x="946.4" y="133.3" width="15.8" height="15.9"/>
		<rect x="983.2" y="133.3" width="15.8" height="15.9"/>
		<rect x="964.8" y="133.3" width="15.8" height="15.9"/>
		<rect x="964.8" y="114.2" width="15.8" height="15.9"/>
		<rect x="946.4" y="152.4" width="15.8" height="15.9"/>
		<rect x="983.2" y="152.4" width="15.8" height="15.9"/>
		<rect x="946.4" y="114.2" width="15.8" height="15.9"/>
		<rect x="983.2" y="114.2" width="15.8" height="15.9"/>
	</g>
	<g>
		<polygon points="771.8,167.6 756,167.6 756,129.2 732.7,129.2 732.7,167.6 717,167.6 717,113.4 771.8,113.4 		"/>
		<path d="M752.3,140.5c0,4.4-3.5,7.9-7.9,7.9s-7.9-3.5-7.9-7.9c0-4.4,3.5-7.9,7.9-7.9S752.3,136.2,752.3,140.5z"/>
	</g>
	<g>
		<polygon points="524.9,114.2 509.3,141.3 540.5,141.3 		"/>
		<polygon points="509.3,141.2 493.7,168.3 524.9,168.3 		"/>
		<polygon points="540.5,141.2 524.9,168.3 556.1,168.3 		"/>
	</g>
	<path d="M395.4,264v-43.3h14.8l13.2,24.8v-24.8h12V264h-14.1l-13.8-26.2V264H395.4L395.4,264z"/>
	<path d="M533.1,264l-2.3-7.2h-14.9l-2.4,7.2h-13l15.9-43.3h14.1l16,43.3H533.1z M519,247.2h8.6l-4.3-13.3L519,247.2L519,247.2z"/>
	<path d="M609.9,264v-43.3h17.9l7.4,26.6l7.5-26.6h16.9V264h-11.9v-27.8l-8,27.8h-9.6l-8-28.1V264H609.9L609.9,264z"/>
	<path d="M754.4,264l-2.3-7.2h-14.9l-2.4,7.2h-13l15.9-43.3h14.1l16,43.3H754.4L754.4,264z M740.3,247.2h8.6l-4.3-13.3L740.3,247.2
		L740.3,247.2z"/>
	<path d="M838.7,264v-43.3h17.8c13.6,0,23,7.6,23,21.1v1c0,13.6-9.4,21.1-23,21.1L838.7,264L838.7,264z M851.3,253.7h4.5
		c6.4,0,10.4-2.7,10.4-10.9v-1c0-8.2-4.1-10.9-10.3-10.9h-4.6V253.7L851.3,253.7z"/>
	<path d="M980.7,264l-2.3-7.2h-14.9l-2.4,7.2h-13l15.9-43.3h14.1l16,43.3H980.7L980.7,264z M966.6,247.2h8.6l-4.3-13.3L966.6,247.2
		L966.6,247.2z"/>
	<g>
		<rect x="180.8" y="188.7" width="53.4" height="53.4"/>
		<path d="M127.3,135.2L127.3,135.2c29.5,0,53.4,23.9,53.4,53.4h-53.4V135.2L127.3,135.2z"/>
		<polygon points="127.3,188.7 96.5,242.1 158.2,242.1 		"/>
		<circle cx="234.4" cy="161.9" r="26.7"/>
	</g>
	<path d="M178.8,331.6c-38.2,0-74-14.9-101-41.8c-27-27-41.8-62.9-41.8-101s14.9-74,41.8-101s62.9-41.8,101-41.8s74,14.9,101,41.8
		s41.8,62.9,41.8,101s-14.9,74-41.8,101C252.8,316.7,216.9,331.6,178.8,331.6L178.8,331.6z M178.8,63.5c-33.4,0-64.9,13-88.5,36.7
		c-23.6,23.6-36.7,55.1-36.7,88.5s13,64.9,36.7,88.5s55.1,36.7,88.5,36.7s64.9-13,88.5-36.7c23.6-23.6,36.7-55.1,36.7-88.5
		s-13-64.9-36.7-88.5S212.2,63.5,178.8,63.5L178.8,63.5z"/>
</g>
</svg>
