<svg width="377" height="44" viewBox="0 0 377 44" fill="none" xmlns="http://www.w3.org/2000/svg">
<path d="M65.7139 42.9806V1.021H81.5299L98.7185 31.7117L101.941 29.6137C100.031 26.6563 98.6787 23.999 97.8828 21.6412C97.0872 19.2434 96.6893 16.4461 96.6893 13.2493V1.021H107.611V42.9806H94.7198L74.4872 6.77548L71.2645 8.75356C74.8455 14.7079 76.6358 20.6822 76.6358 26.6764V42.9806H65.7139Z" fill="black"/>
<path d="M116.188 42.9806V1.021H148.536V9.95256H127.229V17.3853H143.702V25.7172H127.229V34.0494H148.536V42.9806H116.188Z" fill="black"/>
<path d="M154.994 25.8971V1.021H166.274V24.3986C166.274 31.1922 168.999 34.5887 174.45 34.5887C179.901 34.5887 182.627 31.1922 182.627 24.3986V1.021H193.907V25.8971C193.907 31.6916 192.176 36.1672 188.714 39.3242C185.293 42.4413 180.538 43.9998 174.45 43.9998C168.283 43.9998 163.488 42.4413 160.067 39.3242C156.685 36.1672 154.994 31.6916 154.994 25.8971Z" fill="black"/>
<path d="M211.946 42.9806V9.65281H198.458V1.021H236.834V9.65281H223.286V42.9806H211.946Z" fill="black"/>
<path d="M241.79 42.9806V1.021H263.812C268.388 1.021 271.969 2.00005 274.556 3.95819C277.183 5.91638 278.494 8.55363 278.494 11.8707C278.494 14.588 277.779 16.6659 276.347 18.1047C275.032 19.4233 273.462 20.3225 271.63 20.8021C269.802 21.2815 267.494 21.5812 264.709 21.7011V25.2379C268.886 25.3176 271.93 25.9372 273.839 27.0961C275.788 28.2549 277.081 30.5127 277.719 33.8696L279.57 42.9806H267.632L266.02 33.2701C265.743 31.1922 265.085 29.7135 264.051 28.8343C263.017 27.9552 261.444 27.5157 259.335 27.5157H252.891V42.9806H241.79ZM252.891 19.3633H261.186C262.938 19.3633 264.329 18.9437 265.363 18.1047C266.4 17.2654 266.917 16.0864 266.917 14.5679C266.917 13.0493 266.4 11.8905 265.363 11.0913C264.37 10.252 262.976 9.83266 261.186 9.83266H252.891V19.3633Z" fill="black"/>
<path d="M282.713 22.1809C282.713 15.7072 284.742 10.3922 288.801 6.23617C292.858 2.08023 298.47 0.00222113 305.631 0.00222113C312.792 -0.0777214 318.424 2.00029 322.522 6.23617C326.661 10.4723 328.687 15.7872 328.608 22.1809C328.608 28.6148 326.6 33.8698 322.58 37.9459C318.562 41.982 312.913 44 305.631 44C298.391 44 292.759 41.982 288.741 37.9459C284.723 33.8698 282.713 28.6148 282.713 22.1809ZM316.673 22.121C316.673 18.1648 315.696 15.0078 313.747 12.65C311.8 10.2523 309.113 9.05354 305.692 9.05354C302.268 9.05354 299.562 10.2523 297.574 12.65C295.624 15.0477 294.651 18.2047 294.651 22.121C294.651 25.9974 295.624 29.1142 297.574 31.4721C299.524 33.7898 302.23 34.9486 305.692 34.9486C309.113 34.9486 311.8 33.7898 313.747 31.4721C315.696 29.1142 316.673 25.9974 316.673 22.121Z" fill="black"/>
<path d="M335.042 42.9806V1.021H350.86L368.048 31.7117L371.271 29.6137C369.363 26.6563 368.009 23.999 367.212 21.6412C366.417 19.2434 366.019 16.4461 366.019 13.2493V1.021H376.942V42.9806H364.049L343.818 6.77548L340.595 8.75356C344.175 14.7079 345.965 20.6822 345.965 26.6764V42.9806H335.042Z" fill="black"/>
<path fill-rule="evenodd" clip-rule="evenodd" d="M43.8093 0H3.10313L14.6918 13.7222C16.6184 12.0271 19.1421 11 21.9048 11C27.9534 11 32.8569 15.925 32.8569 22C32.8569 24.7404 31.8592 27.2467 30.2089 29.1726L43.8093 40.9258V0ZM38.4471 44L27.6767 31.3503C26.0006 32.3961 24.0228 33 21.9048 33C15.8559 33 10.9523 28.075 10.9523 22C10.9523 19.8916 11.5428 17.922 12.5669 16.2484L0 5.25734V44H38.4471Z" fill="black"/>
</svg>
