<svg width="170" height="44" viewBox="0 0 170 44" fill="none" xmlns="http://www.w3.org/2000/svg">
  <g clip-path="url(#clip0_606_153)">
  <path d="M37.5541 6.44588C28.9741 -2.15612 15.0371 -2.15612 6.45712 6.44588C-2.14488 15.0479 -2.14488 28.9629 6.45712 37.5429C15.0591 46.1449 28.9741 46.1449 37.5541 37.5429C46.1451 28.9739 46.1451 15.0369 37.5541 6.44588ZM35.6621 35.6619C28.1161 43.2079 15.8621 43.2079 8.32711 35.6619C0.792115 28.1159 0.781115 15.8619 8.32711 8.32688C15.8731 0.791885 28.1271 0.780885 35.6621 8.32688C43.2301 15.8839 43.2301 28.1269 35.6621 35.6619Z" fill="#141521"/>
  <path d="M33.8801 34.8259V9.17388C32.7581 8.11788 31.5041 7.19388 30.1621 6.46788V30.9869L13.9701 6.37988C12.5621 7.12788 11.2641 8.05188 10.1201 9.15188V34.8149C11.2421 35.8709 12.4961 36.7949 13.8381 37.5209V13.0019L30.0301 37.6199C31.4381 36.8719 32.7361 35.9259 33.8801 34.8259Z" fill="#141521"/>
  <path d="M77.9681 6.40186H77.8911V6.48986V33.5499L68.0461 6.45686L68.0241 6.40186H67.9691H61.4901H54.2411H54.1641V6.48986V37.5099V37.5979H54.2411H61.4901H61.5781V37.5099V10.4169L71.4561 37.5429L71.4781 37.5979H71.5331H77.9681H85.2171H85.3051V37.5099V6.48986V6.40186H85.2171H77.9681Z" fill="#141521"/>
  <path d="M169.125 6.40186H155.287H155.221L155.21 6.46786L148.423 33.6709L141.636 6.46786L141.625 6.40186H141.559H127.677H127.6V6.48986V37.5099V37.5979H127.677H134.926H135.014V37.5099V10.6149L141.713 37.5319L141.724 37.5979H141.79H155.012H155.078L155.1 37.5319L161.799 10.6149V37.5099V37.5979H161.876H169.125H169.213V37.5099V6.48986V6.40186H169.125Z" fill="#141521"/>
  <path d="M115.346 6.40186H115.302L115.28 6.44586L106.469 21.7579L97.6252 6.44586L97.6032 6.40186H97.5482H89.1772H89.0342L89.1002 6.53386L102.74 30.1619V37.5099V37.5979H102.828H110.077H110.154V37.5099V30.1619L123.794 6.53386L123.871 6.40186H123.728H115.346Z" fill="#141521"/>
  </g>
  <defs>
  <clipPath id="clip0_606_153">
  <rect width="169.213" height="44" fill="white"/>
  </clipPath>
  </defs>
  </svg>
  