<svg width="170" height="44" viewBox="0 0 170 44" fill="none" xmlns="http://www.w3.org/2000/svg">
  <g clip-path="url(#clip0_606_151)">
  <path d="M37.6933 6.44588C29.1133 -2.15612 15.1763 -2.15612 6.59628 6.44588C-2.00572 15.0479 -2.00572 28.9629 6.59628 37.5429C15.1983 46.1449 29.1133 46.1449 37.6933 37.5429C46.2843 28.9739 46.2843 15.0369 37.6933 6.44588ZM35.8013 35.6619C28.2553 43.2079 16.0013 43.2079 8.46627 35.6619C0.931275 28.1159 0.920275 15.8619 8.46627 8.32688C16.0123 0.791885 28.2663 0.780885 35.8013 8.32688C43.3693 15.8839 43.3693 28.1269 35.8013 35.6619Z" fill="white"/>
  <path d="M34.0193 34.8259V9.17388C32.8973 8.11788 31.6433 7.19388 30.3013 6.46788V30.9869L14.1093 6.37988C12.7013 7.12788 11.4033 8.05188 10.2593 9.15188V34.8149C11.3813 35.8709 12.6353 36.7949 13.9773 37.5209V13.0019L30.1693 37.6199C31.5773 36.8719 32.8753 35.9259 34.0193 34.8259Z" fill="white"/>
  <path d="M78.1072 6.40186H78.0302V6.48986V33.5499L68.1852 6.45686L68.1632 6.40186H68.1082H61.6292H54.3802H54.3032V6.48986V37.5099V37.5979H54.3802H61.6292H61.7172V37.5099V10.4169L71.5952 37.5429L71.6172 37.5979H71.6722H78.1072H85.3562H85.4442V37.5099V6.48986V6.40186H85.3562H78.1072Z" fill="white"/>
  <path d="M169.264 6.40186H155.426H155.36L155.349 6.46786L148.562 33.6709L141.775 6.46786L141.764 6.40186H141.698H127.816H127.739V6.48986V37.5099V37.5979H127.816H135.065H135.153V37.5099V10.6149L141.852 37.5319L141.863 37.5979H141.929H155.151H155.217L155.239 37.5319L161.938 10.6149V37.5099V37.5979H162.015H169.264H169.352V37.5099V6.48986V6.40186H169.264Z" fill="white"/>
  <path d="M115.485 6.40186H115.441L115.419 6.44586L106.608 21.7579L97.7643 6.44586L97.7423 6.40186H97.6873H89.3163H89.1733L89.2393 6.53386L102.879 30.1619V37.5099V37.5979H102.967H110.216H110.293V37.5099V30.1619L123.933 6.53386L124.01 6.40186H123.867H115.485Z" fill="white"/>
  </g>
  <defs>
  <clipPath id="clip0_606_151">
  <rect width="169.213" height="44" fill="white" transform="translate(0.13916)"/>
  </clipPath>
  </defs>
  </svg>
  