<svg width="216" viewBox="0 0 216 40" fill="none" xmlns="http://www.w3.org/2000/svg">
<path d="M72.883 21.8202H80.987C82.1251 21.8202 83.0481 22.75 83.0481 23.8969C83.0481 25.0439 82.1251 25.9736 80.987 25.9736H71.2122C71.0597 25.9736 70.9121 26.0285 70.7961 26.1285L67.8447 28.6725C67.3929 29.062 67.6663 29.8075 68.2609 29.8075H80.4975C80.5024 29.8075 80.5063 29.8034 80.5063 29.7982C80.5063 29.7929 80.5112 29.7887 80.5171 29.7891C80.6705 29.8013 80.8268 29.8075 80.983 29.8075C84.2295 29.8075 86.8606 27.1612 86.8606 23.8969C86.8606 20.797 84.488 18.2546 81.4686 18.0063C81.4637 18.0059 81.4597 18.0015 81.4597 17.9963C81.4597 17.9908 81.4558 17.9864 81.4499 17.9864H72.7193C71.5809 17.9864 70.6581 17.0566 70.6581 15.9097C70.6581 14.7628 71.5809 13.8331 72.7193 13.8331H82.4809C82.6411 13.8331 82.7964 13.7721 82.9144 13.6624L85.6547 11.1184C86.0842 10.7204 85.804 9.99915 85.2212 9.99915H72.883C72.8824 9.99915 72.882 9.99964 72.882 10.0002C72.882 10.0008 72.8816 10.0013 72.881 10.0013C72.8285 9.99993 72.7759 9.99915 72.7231 9.99915C69.4772 9.99915 66.8457 12.6454 66.8457 15.9097C66.8457 19.174 69.4772 21.8202 72.7231 21.8202C72.7759 21.8202 72.8285 21.8195 72.881 21.8182C72.8816 21.8182 72.882 21.8186 72.882 21.8192C72.882 21.8198 72.8824 21.8202 72.883 21.8202Z" fill="white"/>
<path d="M120.085 9.99915C119.731 9.99915 119.443 10.2879 119.443 10.6441V29.1625C119.443 29.5187 119.731 29.8075 120.085 29.8075H134.924C135.102 29.8075 135.271 29.7337 135.392 29.6036L137.25 27.6118C137.634 27.1999 137.343 26.5257 136.782 26.5257H123.825C123.471 26.5257 123.184 26.2371 123.184 25.8809V10.6441C123.184 10.2879 122.897 9.99915 122.542 9.99915H120.085Z" fill="white"/>
<path fill-rule="evenodd" clip-rule="evenodd" d="M96.3169 9.99915C96.3159 9.99915 96.315 9.99993 96.315 10.0009C96.315 10.0019 96.314 10.0026 96.313 10.0027C94.417 10.0849 92.8936 11.6112 92.811 13.5119C92.811 13.5128 92.811 13.5135 92.81 13.5135C92.809 13.5135 92.809 13.5138 92.808 13.5141C92.808 13.5145 92.808 13.5149 92.808 13.5153V25.9719C92.808 25.9729 92.809 25.9736 92.81 25.9736C92.811 25.9736 92.811 25.9744 92.811 25.9753C92.809 26.0277 92.808 26.0804 92.808 26.1334C92.808 28.1084 94.363 29.7195 96.313 29.8039C96.314 29.804 96.315 29.8048 96.315 29.8057V29.8065L96.3159 29.8071C96.3159 29.8073 96.3159 29.8075 96.3169 29.8075H109.782C109.783 29.8075 109.783 29.8067 109.783 29.8057L109.784 29.8047V29.8041L109.785 29.8039C111.735 29.7195 113.29 28.1084 113.29 26.1334C113.29 26.0804 113.289 26.0277 113.287 25.9753C113.287 25.9744 113.288 25.9736 113.289 25.9736C113.29 25.9736 113.29 25.9729 113.29 25.9719V13.5153C113.29 13.5143 113.29 13.5135 113.289 13.5135C113.288 13.5135 113.287 13.5128 113.287 13.5119C113.205 11.6112 111.682 10.0849 109.785 10.0027C109.784 10.0026 109.783 10.0019 109.783 10.0009C109.783 9.99993 109.783 9.99915 109.782 9.99915H96.3169ZM98.8262 13.5135V13.514L98.8252 13.5146C98.8252 13.5152 98.8252 13.5157 98.8243 13.5158C97.6389 13.5675 96.6875 14.5276 96.6364 15.7231C96.6364 15.7237 96.6354 15.7242 96.6344 15.7242C96.6344 15.7242 96.6334 15.7247 96.6334 15.7253V23.5609C96.6334 23.5615 96.6344 23.562 96.6344 23.562C96.6354 23.562 96.6354 23.5625 96.6354 23.5631C96.6344 23.596 96.6334 23.6292 96.6334 23.6624C96.6334 24.9049 97.6055 25.9182 98.8243 25.9714C98.8252 25.9714 98.8252 25.9719 98.8252 25.9725L98.8262 25.9731V25.9735V25.9736H107.272V25.9735L107.273 25.9731V25.9725C107.273 25.9719 107.274 25.9714 107.274 25.9714C108.493 25.9182 109.465 24.9049 109.465 23.6624C109.465 23.6292 109.464 23.596 109.463 23.5631V23.5628V23.5625L109.464 23.562C109.465 23.562 109.465 23.5615 109.465 23.5609V15.7253C109.465 15.7247 109.465 15.7242 109.464 15.7242C109.463 15.7242 109.463 15.7237 109.463 15.7231C109.412 14.5276 108.459 13.5675 107.274 13.5158C107.274 13.5157 107.273 13.5152 107.273 13.5146V13.5141V13.5137L107.272 13.5135H98.8262Z" fill="white"/>
<path fill-rule="evenodd" clip-rule="evenodd" d="M158.829 29.1625C158.829 29.5187 159.114 29.8075 159.465 29.8075H161.982C162.333 29.8075 162.618 29.5187 162.618 29.1625V13.8347C162.618 13.8337 162.617 13.8331 162.617 13.8331L162.616 13.8329L162.615 13.8326C162.615 13.8323 162.615 13.8318 162.615 13.8313C162.617 13.7789 162.618 13.7262 162.618 13.6733C162.618 11.6982 161.078 10.0871 159.146 10.0027C159.145 10.0026 159.144 10.0019 159.144 10.0009C159.144 9.99993 159.143 9.99915 159.142 9.99915H146.216C146.215 9.99915 146.214 9.99993 146.214 10.0008C146.214 10.0018 146.214 10.0026 146.213 10.0025C146.161 10.0003 146.109 9.99915 146.056 9.99915C144.05 9.99915 142.425 11.6442 142.425 13.6733C142.425 13.7262 142.426 13.7789 142.428 13.8313C142.429 13.8323 142.428 13.8331 142.427 13.8331C142.426 13.8331 142.425 13.8337 142.425 13.8347V29.1625C142.425 29.5187 142.71 29.8075 143.061 29.8075H145.578C145.93 29.8075 146.214 29.5187 146.214 29.1625V22.7846C146.214 22.4285 146.499 22.1398 146.851 22.1398H158.193C158.544 22.1398 158.829 22.4285 158.829 22.7846V29.1625ZM146.214 18.6194V15.4305C146.214 14.1953 147.203 13.1941 148.424 13.1941H156.618C157.839 13.1941 158.829 14.1953 158.829 15.4305V18.6194C158.829 18.9756 158.544 19.2643 158.193 19.2643H146.851C146.499 19.2643 146.214 18.9756 146.214 18.6194Z" fill="white"/>
<path fill-rule="evenodd" clip-rule="evenodd" d="M211.955 29.8075C211.6 29.8075 211.312 29.5187 211.312 29.1625V22.7846C211.312 22.4285 211.025 22.1398 210.67 22.1398H199.202C198.848 22.1398 198.56 22.4285 198.56 22.7846V29.1625C198.56 29.5187 198.272 29.8075 197.917 29.8075H195.376C195.022 29.8075 194.734 29.5187 194.734 29.1625V13.8347V13.8342V13.8337C194.734 13.8334 194.735 13.8331 194.735 13.8331C194.736 13.8331 194.737 13.8323 194.737 13.8313C194.735 13.7789 194.734 13.7262 194.734 13.6733C194.734 11.6442 196.376 9.99915 198.401 9.99915C198.454 9.99915 198.506 10.0003 198.558 10.0025C198.559 10.0026 198.56 10.0018 198.56 10.0008C198.56 9.99993 198.561 9.99915 198.562 9.99915H211.629C211.63 9.99915 211.631 9.99993 211.631 10.0009C211.631 10.0019 211.632 10.0026 211.633 10.0027C213.583 10.0871 215.138 11.6982 215.138 13.6733C215.138 13.7262 215.137 13.7789 215.134 13.8313C215.134 13.8323 215.135 13.8331 215.136 13.8331C215.137 13.8331 215.137 13.8333 215.137 13.8335C215.138 13.8338 215.138 13.8342 215.138 13.8347V29.1625C215.138 29.5187 214.85 29.8075 214.495 29.8075H211.955ZM198.56 15.4305V18.6194C198.56 18.9756 198.848 19.2643 199.203 19.2643H210.67C211.025 19.2643 211.313 18.9756 211.313 18.6194V15.4305C211.313 14.1953 210.313 13.1941 209.081 13.1941H200.792C199.559 13.1941 198.56 14.1953 198.56 15.4305Z" fill="white"/>
<path d="M172.091 9.99915C172.278 9.99915 172.455 10.0819 172.575 10.2256L183.863 23.6811C184.246 24.1373 184.983 23.8622 184.983 23.2626V10.6441C184.983 10.2879 185.268 9.99915 185.619 9.99915H188.136C188.487 9.99915 188.772 10.2879 188.772 10.6441V29.1625C188.772 29.5187 188.487 29.8075 188.136 29.8075H185.007C184.994 29.8075 184.983 29.7967 184.983 29.7834C184.983 29.7775 184.981 29.7719 184.977 29.7675L173.5 16.4059C173.114 15.9572 172.385 16.2343 172.385 16.8301V29.1625C172.385 29.5187 172.1 29.8075 171.749 29.8075H169.216C168.864 29.8075 168.579 29.5187 168.579 29.1625V10.6441C168.579 10.2879 168.864 9.99915 169.216 9.99915H172.091Z" fill="white"/>
<path d="M8.33526 30.4895C8.64909 30.1759 9.07458 29.9998 9.51825 29.9998H50.4512C51.1968 29.9998 51.5701 30.9014 51.0426 31.4286L42.9544 39.5104C42.6406 39.8239 42.2151 40.0001 41.7714 40.0001H0.838454C0.0928427 40.0001 -0.280453 39.0984 0.246959 38.5713L8.33526 30.4895Z" fill="url(#gradient1)"/>
<path d="M8.33526 0.48967C8.64909 0.176132 9.07458 0 9.51825 0H50.4512C51.1968 0 51.5701 0.901692 51.0426 1.42871L42.9544 9.51053C42.6406 9.82416 42.2151 10.0003 41.7714 10.0003H0.838454C0.0928427 10.0003 -0.280453 9.0986 0.246959 8.57149L8.33526 0.48967Z" fill="url(#gradient2)"/>
<path d="M42.9544 15.2968C42.6406 14.9831 42.2151 14.807 41.7714 14.807H0.838454C0.0928427 14.807 -0.280453 15.7087 0.246959 16.2358L8.33526 24.3176C8.64909 24.6312 9.07458 24.8073 9.51825 24.8073H50.4512C51.1968 24.8073 51.5701 23.9056 51.0426 23.3786L42.9544 15.2968Z" fill="url(#gradient3)"/>
<defs>
<linearGradient id="gradient1" x1="34.6748" y1="-11.2187" x2="6.34571" y2="43.0428" gradientUnits="userSpaceOnUse">
<stop stop-color="#00FFA3"/>
<stop offset="1" stop-color="#DC1FFF"/>
</linearGradient>
<linearGradient id="gradient2" x1="34.6748" y1="-11.0253" x2="6.34572" y2="43.2362" gradientUnits="userSpaceOnUse">
<stop stop-color="#00FFA3"/>
<stop offset="1" stop-color="#DC1FFF"/>
</linearGradient>
<linearGradient id="gradient3" x1="34.6748" y1="-11.2187" x2="6.34571" y2="43.0428" gradientUnits="userSpaceOnUse">
<stop stop-color="#00FFA3"/>
<stop offset="1" stop-color="#DC1FFF"/>
</linearGradient>
</defs>
</svg>
