<svg width="141" height="44" viewBox="0 0 141 44" fill="none" xmlns="http://www.w3.org/2000/svg" class="jss1443"><path d="M126.548 42.279c-2.843 0-5.359-.6-7.549-1.8-2.151-1.24-3.842-2.963-5.071-5.17-1.191-2.245-1.786-4.878-1.786-7.898v-.697c0-3.02.595-5.633 1.786-7.84 1.191-2.245 2.862-3.968 5.013-5.168 2.152-1.24 4.649-1.859 7.492-1.859 2.804 0 5.243.639 7.318 1.917 2.074 1.239 3.688 2.98 4.84 5.226 1.153 2.207 1.729 4.782 1.729 7.725v1.69a.803.803 0 0 1-.8.806h-19.17c-.454 0-.822.383-.758.836.228 1.597.933 2.925 2.115 3.985 1.383 1.239 3.074 1.858 5.071 1.858 2.036 0 3.534-.445 4.495-1.336a9.722 9.722 0 0 0 1.799-2.212c.232-.397.73-.57 1.134-.356l4.522 2.389a.735.735 0 0 1 .285 1.024c-.507.82-1.166 1.7-1.978 2.64-.999 1.162-2.343 2.168-4.033 3.02-1.691.813-3.842 1.22-6.454 1.22Zm-6.768-19.452c-.137.478.243.925.737.925h11.549c.471 0 .846-.41.743-.874-.28-1.264-.907-2.309-1.882-3.133-1.152-1.006-2.67-1.51-4.552-1.51-1.959 0-3.515.504-4.668 1.51-.93.813-1.573 1.84-1.927 3.082ZM13.361 42.279c-3.726 0-6.78-.814-9.162-2.44C2.012 38.346.62 36.264.02 33.595a.771.771 0 0 1 .568-.91l5.156-1.343c.445-.116.89.17 1.015.616.27.967.646 1.755 1.13 2.364a5.675 5.675 0 0 0 2.362 1.684c.96.31 1.998.465 3.111.465 1.69 0 2.94-.29 3.746-.871.807-.62 1.21-1.375 1.21-2.265 0-.89-.384-1.568-1.152-2.033-.769-.503-1.998-.91-3.688-1.22l-1.614-.29c-1.997-.387-3.822-.91-5.474-1.568-1.652-.696-2.977-1.645-3.976-2.846-.999-1.2-1.498-2.748-1.498-4.645 0-2.865 1.037-5.053 3.111-6.563 2.075-1.549 4.802-2.323 8.183-2.323 3.189 0 5.84.716 7.952 2.149 1.88 1.275 3.183 2.903 3.907 4.883a.762.762 0 0 1-.506.982l-5.156 1.6c-.45.139-.916-.144-1.069-.593-.35-1.03-.907-1.792-1.67-2.284-.922-.62-2.075-.93-3.458-.93s-2.44.252-3.17.756c-.73.464-1.094 1.122-1.094 1.974 0 .93.384 1.626 1.152 2.09.769.427 1.806.756 3.112.988l1.614.29c2.15.388 4.09.91 5.82 1.569 1.767.62 3.15 1.529 4.148 2.73 1.038 1.16 1.556 2.748 1.556 4.761 0 3.02-1.095 5.363-3.284 7.027-2.151 1.627-5.052 2.44-8.701 2.44ZM67.872 8.014c.922.852 2.036 1.278 3.342 1.278 1.345 0 2.459-.426 3.342-1.278.884-.851 1.326-1.974 1.326-3.368s-.442-2.517-1.326-3.368C73.673.426 72.56 0 71.214 0c-1.306 0-2.42.426-3.342 1.278-.883.851-1.325 1.974-1.325 3.368s.442 2.517 1.325 3.368Zm41.081 24.609a.257.257 0 0 0 .227-.043.264.264 0 0 0 .103-.208V1.62a.804.804 0 0 0-.801-.806h-5.66c-.442 0-.8.36-.8.806v14.35h-1.037c-.385-.697-.942-1.355-1.672-1.974-.73-.62-1.69-1.123-2.88-1.51-1.153-.426-2.594-.639-4.323-.639-2.305 0-4.437.58-6.396 1.742-1.96 1.123-3.534 2.788-4.725 4.995-1.19 2.207-1.787 4.878-1.787 8.014v.93c0 .564.02 1.113.058 1.647a.368.368 0 0 0 .148.267.362.362 0 0 0 .297.063 31.574 31.574 0 0 1 6.435-.79.363.363 0 0 0 .355-.392 14.316 14.316 0 0 1-.032-.97v-.58c0-2.788.75-4.898 2.247-6.33 1.499-1.472 3.362-2.208 5.59-2.208 2.267 0 4.13.736 5.59 2.207 1.498 1.433 2.247 3.543 2.247 6.33v.581c0 1.056-.108 2.018-.323 2.885a.331.331 0 0 0 .238.403c1.997.505 3.742 1.033 5.229 1.483.6.18 1.157.35 1.672.499Z" fill="#000"></path><path d="M34.938 18.7h7.036c.442 0 .8-.361.8-.806v-4.427a.804.804 0 0 0-.8-.807h-7.036V4.523a.804.804 0 0 0-.8-.806h-5.66a.803.803 0 0 0-.8.75v18.165C27.678 30.561 29.306 44 50.584 44c11.674 0 17.59-2.066 22.814-3.891 4.132-1.443 7.832-2.735 13.607-2.735 8.973 0 15.797 2.063 20.276 3.418.479.144.997.052 1.397-.248.401-.3.637-.774.637-1.277v-3.902a.46.46 0 0 0-.331-.443c-.524-.151-1.092-.323-1.703-.507-4.479-1.355-11.303-3.418-20.276-3.418-5.775 0-9.475 1.292-13.607 2.735-5.224 1.825-11.14 3.891-22.814 3.891-16.447 0-15.77-11.38-15.69-18.923h.044Z" fill="#000"></path><path d="M46.894 34.76c0 .183.133.338.313.363.996.137 2.07.21 3.23.21 1.179 0 2.3-.022 3.367-.062a.366.366 0 0 0 .35-.366v-9.817c0-2.052.596-3.562 1.787-4.53 1.19-1.006 2.708-1.51 4.552-1.51h2.773c.442 0 .8-.36.8-.806v-4.891a.803.803 0 0 0-.8-.807h-2.658c-1.306 0-2.458.271-3.457.813-.96.542-1.652 1.394-2.074 2.556h-1.038v-2.446a.803.803 0 0 0-.8-.807h-5.545c-.442 0-.8.362-.8.807V34.76Zm26.504-3.319 1.2-.417a.368.368 0 0 0 .247-.347v-17.21a.804.804 0 0 0-.8-.807h-5.66a.804.804 0 0 0-.801.807v19.36c0 .114.053.223.144.292.09.07.208.092.318.061 1.962-.554 3.692-1.159 5.352-1.739Z" fill="#000"></path></svg>