<svg width="253" height="45" viewBox="0 0 253 45" fill="none" xmlns="http://www.w3.org/2000/svg">
<g clip-path="url(#clip0_224_39)">
<path d="M81.8961 14.4067L76.1781 30.8737C76.155 30.9523 76.105 31.0201 76.0369 31.065C75.9688 31.1098 75.8871 31.1289 75.8064 31.1186H75.3633C75.2811 31.1268 75.1986 31.1072 75.1287 31.0629C75.0588 31.0185 75.0055 30.952 74.9773 30.8737L70.6888 19.3483L66.4003 30.8737C66.3722 30.952 66.3189 31.0185 66.249 31.0629C66.1791 31.1072 66.0966 31.1268 66.0144 31.1186H65.5712C65.489 31.1268 65.4065 31.1072 65.3366 31.0629C65.2667 31.0185 65.2134 30.952 65.1853 30.8737L59.2814 14.4067C59.1957 14.1474 59.2814 13.9889 59.5387 13.9889H61.3256C61.4096 13.9816 61.4935 14.0033 61.5637 14.0505C61.6338 14.0976 61.686 14.1673 61.7116 14.2483L65.8285 26.7102L70.0456 15.2567C70.0712 15.1758 70.1233 15.1061 70.1935 15.0589C70.2636 15.0118 70.3475 14.9901 70.4315 14.9974H70.8032C70.8872 14.9901 70.9711 15.0118 71.0413 15.0589C71.1114 15.1061 71.1635 15.1758 71.1892 15.2567L75.4777 26.6669L79.5088 14.205C79.5345 14.1241 79.5866 14.0544 79.6568 14.0072C79.7269 13.9601 79.8108 13.9384 79.8948 13.9457H81.6531C81.9104 13.9457 81.9962 14.1042 81.9104 14.3491" fill="white"/>
<path d="M107.027 22.3737C107.027 24.0834 106.524 25.7546 105.581 27.1761C104.639 28.5976 103.299 29.7056 101.732 30.3598C100.165 31.0141 98.44 31.1853 96.7763 30.8517C95.1125 30.5182 93.5842 29.6949 92.3847 28.486C91.1852 27.2771 90.3683 25.7369 90.0374 24.0601C89.7064 22.3833 89.8763 20.6453 90.5254 19.0658C91.1746 17.4863 92.274 16.1362 93.6844 15.1864C95.0949 14.2366 96.7532 13.7296 98.4496 13.7296C99.5575 13.7048 100.659 13.9014 101.691 14.308C102.724 14.7147 103.666 15.3234 104.463 16.0989C105.26 16.8745 105.898 17.8016 106.338 18.8266C106.778 19.8517 107.012 20.9544 107.027 22.0712C107.034 22.1815 107.034 22.2922 107.027 22.4025V22.3737ZM104.668 22.4025C104.668 18.4118 102.08 15.6601 98.5067 15.6601C94.933 15.6601 92.3599 18.4118 92.3599 22.4025C92.3599 26.3932 94.933 29.1305 98.5067 29.1305C102.08 29.1305 104.668 26.3788 104.668 22.4025Z" fill="white"/>
<path d="M129.598 30.1103C129.637 30.1478 129.667 30.1926 129.687 30.2421C129.708 30.2916 129.719 30.3447 129.719 30.3984C129.719 30.4521 129.708 30.5052 129.687 30.5547C129.667 30.6041 129.637 30.649 129.598 30.6865C129.554 30.726 129.502 30.7555 129.445 30.7729C129.388 30.7903 129.328 30.7952 129.27 30.7874H127.626C127.572 30.7874 127.52 30.7743 127.472 30.7492C127.425 30.7241 127.384 30.6878 127.354 30.6433L123.323 24.4916H119.034V30.4416C119.034 30.5333 118.998 30.6213 118.934 30.6861C118.87 30.7509 118.782 30.7874 118.691 30.7874H117.119C117.028 30.7874 116.941 30.7509 116.876 30.6861C116.812 30.6213 116.776 30.5333 116.776 30.4416V14.2916C116.776 14.1999 116.812 14.1119 116.876 14.0471C116.941 13.9822 117.028 13.9458 117.119 13.9458H123.309C127.597 13.9458 129.77 16.2365 129.77 19.2187C129.795 20.4028 129.4 21.5571 128.656 22.4736C127.912 23.3902 126.867 24.0087 125.71 24.2179L129.598 30.1103ZM122.808 22.5611C126.211 22.5611 127.354 21.1204 127.354 19.2187C127.354 17.317 126.211 15.8475 122.808 15.8475H118.977V22.5323L122.808 22.5611Z" fill="white"/>
<path d="M156.187 13.6721H156.702C156.786 13.6715 156.867 13.7019 156.93 13.7577C156.994 13.8134 157.034 13.8907 157.045 13.9747V30.4417C157.049 30.4845 157.044 30.5276 157.031 30.5685C157.018 30.6094 156.996 30.6471 156.968 30.6795C156.94 30.7118 156.906 30.7381 156.868 30.7566C156.829 30.7752 156.787 30.7857 156.745 30.7874H155.129C155.087 30.7914 155.044 30.7866 155.003 30.7733C154.963 30.7601 154.925 30.7387 154.893 30.7104C154.861 30.6821 154.835 30.6475 154.817 30.6087C154.798 30.57 154.788 30.5278 154.786 30.4849V18.7289L148.454 27.9637C148.44 27.9969 148.419 28.0269 148.393 28.0518C148.368 28.0766 148.337 28.0957 148.303 28.1079C148.27 28.1201 148.234 28.1251 148.198 28.1226C148.163 28.1201 148.128 28.1101 148.096 28.0934C148.069 28.0817 148.044 28.064 148.024 28.0416C148.005 28.0191 147.99 27.9925 147.982 27.9637L141.635 18.7289V30.384C141.639 30.4268 141.634 30.47 141.621 30.5109C141.608 30.5517 141.586 30.5895 141.558 30.6218C141.53 30.6542 141.496 30.6804 141.457 30.699C141.419 30.7176 141.377 30.728 141.335 30.7298H139.719C139.677 30.7338 139.634 30.729 139.593 30.7157C139.553 30.7024 139.515 30.681 139.483 30.6527C139.451 30.6244 139.425 30.5898 139.407 30.5511C139.388 30.5123 139.378 30.4702 139.376 30.4273V14.0179C139.376 13.931 139.408 13.8471 139.466 13.7831C139.525 13.719 139.605 13.6794 139.691 13.6721H140.234C140.318 13.6732 140.402 13.6947 140.476 13.7348C140.551 13.7749 140.615 13.8325 140.663 13.9026L148.211 24.4917L155.815 13.9026C155.863 13.8325 155.927 13.7749 156.002 13.7348C156.077 13.6947 156.16 13.6732 156.244 13.6721" fill="white"/>
<path d="M182.461 14.2916V30.4416C182.458 30.5322 182.42 30.6181 182.357 30.6822C182.293 30.7462 182.208 30.7838 182.118 30.7874H180.546C180.455 30.7874 180.367 30.7509 180.303 30.6861C180.239 30.6213 180.202 30.5333 180.202 30.4416V23.0509H169.796V30.4128C169.796 30.5045 169.76 30.5924 169.695 30.6573C169.631 30.7221 169.544 30.7586 169.453 30.7586H167.88C167.789 30.7586 167.702 30.7221 167.638 30.6573C167.573 30.5924 167.537 30.5045 167.537 30.4128V14.2916C167.537 14.1999 167.573 14.1119 167.638 14.0471C167.702 13.9822 167.789 13.9458 167.88 13.9458H169.453C169.544 13.9458 169.631 13.9822 169.695 14.0471C169.76 14.1119 169.796 14.1999 169.796 14.2916V21.1492H180.202V14.2916C180.202 14.1999 180.239 14.1119 180.303 14.0471C180.367 13.9822 180.455 13.9458 180.546 13.9458H182.118C182.208 13.9494 182.293 13.9869 182.357 14.051C182.42 14.1151 182.458 14.201 182.461 14.2916Z" fill="white"/>
<path d="M209.193 22.3737C209.193 24.0833 208.69 25.7545 207.748 27.1761C206.805 28.5976 205.466 29.7055 203.898 30.3598C202.331 31.014 200.607 31.1852 198.943 30.8517C197.279 30.5181 195.751 29.6949 194.551 28.486C193.352 27.2771 192.535 25.7368 192.204 24.06C191.873 22.3832 192.043 20.6452 192.692 19.0657C193.341 17.4862 194.44 16.1362 195.851 15.1864C197.261 14.2365 198.92 13.7296 200.616 13.7296C201.723 13.7067 202.824 13.9046 203.856 14.3119C204.887 14.7193 205.828 15.328 206.625 16.1032C207.422 16.8784 208.06 17.8047 208.5 18.8289C208.941 19.8531 209.176 20.9549 209.193 22.0711V22.4025V22.3737ZM206.82 22.4025C206.82 18.4118 204.247 15.6601 200.673 15.6601C197.099 15.6601 194.512 18.4118 194.512 22.4025C194.512 26.3932 197.085 29.1305 200.673 29.1305C204.261 29.1305 206.82 26.3788 206.82 22.4025Z" fill="white"/>
<path d="M230.707 29.2026V30.4416C230.711 30.4844 230.706 30.5276 230.693 30.5684C230.68 30.6093 230.658 30.6471 230.63 30.6794C230.602 30.7117 230.568 30.738 230.529 30.7566C230.491 30.7751 230.449 30.7856 230.407 30.7874H219.228C219.137 30.7874 219.05 30.7509 218.985 30.6861C218.921 30.6213 218.885 30.5333 218.885 30.4416V14.2916C218.885 14.1999 218.921 14.1119 218.985 14.0471C219.05 13.9822 219.137 13.9458 219.228 13.9458H220.8C220.89 13.9494 220.975 13.9869 221.039 14.051C221.103 14.1151 221.14 14.201 221.143 14.2916V28.8136H230.364C230.406 28.8097 230.449 28.8145 230.489 28.8277C230.53 28.841 230.568 28.8624 230.6 28.8907C230.632 28.919 230.658 28.9536 230.676 28.9924C230.695 29.0311 230.705 29.0732 230.707 29.1162" fill="white"/>
<path d="M252.421 29.2025V30.4415C252.425 30.5271 252.396 30.6109 252.34 30.6753C252.284 30.7398 252.205 30.7799 252.121 30.7873H240.041C239.95 30.7873 239.863 30.7508 239.799 30.686C239.734 30.6211 239.698 30.5332 239.698 30.4415V14.2914C239.698 14.1997 239.734 14.1118 239.799 14.047C239.863 13.9821 239.95 13.9457 240.041 13.9457H251.806C251.891 13.9416 251.974 13.9709 252.038 14.0273C252.102 14.0837 252.142 14.1629 252.149 14.2482V15.5304C252.151 15.574 252.144 15.6174 252.13 15.6584C252.115 15.6993 252.092 15.7369 252.063 15.769C252.034 15.8012 251.999 15.8272 251.959 15.8455C251.92 15.8639 251.878 15.8743 251.835 15.8762H241.957V21.1491H250.705C250.789 21.1484 250.871 21.1789 250.934 21.2346C250.997 21.2904 251.038 21.3676 251.048 21.4516V22.7482C251.05 22.7899 251.044 22.8315 251.03 22.8707C251.016 22.9099 250.994 22.9459 250.967 22.9767C250.939 23.0075 250.905 23.0324 250.868 23.0501C250.83 23.0677 250.79 23.0778 250.748 23.0796H241.957V28.8423H252.078C252.163 28.8383 252.246 28.8675 252.31 28.9239C252.374 28.9804 252.414 29.0595 252.421 29.1449" fill="white"/>
<path d="M22 44.3442C17.6488 44.3442 13.3953 43.0438 9.77746 40.6075C6.15958 38.1712 3.33979 34.7084 1.67466 30.657C0.0095322 26.6056 -0.426141 22.1475 0.422734 17.8465C1.27161 13.5456 3.36691 9.59489 6.44366 6.49407C9.52042 3.39324 13.4404 1.28156 17.708 0.426041C21.9756 -0.429475 26.3991 0.00960677 30.419 1.68776C34.439 3.36591 37.8749 6.20777 40.2923 9.85395C42.7097 13.5001 44 17.7869 44 22.1721C43.9962 28.0513 41.6772 33.6887 37.5522 37.8459C33.4272 42.0032 27.8336 44.3404 22 44.3442ZM22 0.979674C17.8411 0.979674 13.7755 2.22259 10.3175 4.55124C6.85948 6.8799 4.16428 10.1897 2.57273 14.0621C0.981171 17.9345 0.564748 22.1956 1.37612 26.3065C2.18748 30.4175 4.1902 34.1936 7.13101 37.1574C10.0718 40.1212 13.8186 42.1396 17.8977 42.9573C21.9767 43.7751 26.2047 43.3554 30.0471 41.7514C33.8894 40.1474 37.1735 37.4311 39.4841 33.946C41.7947 30.4609 43.0279 26.3636 43.0279 22.1721C43.0242 16.5527 40.8075 11.1645 36.8648 7.19101C32.9221 3.21748 27.5758 0.98349 22 0.979674Z" fill="white"/>
<path d="M23.8012 42.1689C19.8911 42.1689 16.0688 41.0003 12.8176 38.8109C9.56647 36.6216 7.0325 33.5098 5.53616 29.869C4.03982 26.2283 3.6483 22.2221 4.41113 18.3571C5.17396 14.4921 7.05687 10.9419 9.82175 8.15538C12.5866 5.36887 16.1093 3.47123 19.9443 2.70244C23.7793 1.93364 27.7544 2.32821 31.3669 3.83626C34.9794 5.34431 38.067 7.8981 40.2394 11.1747C42.4117 14.4513 43.5712 18.3035 43.5712 22.2442C43.5674 27.5274 41.4833 32.5931 37.7765 36.3289C34.0698 40.0646 29.0434 42.165 23.8012 42.1689ZM23.8012 3.184C20.0579 3.184 16.3987 4.30271 13.2862 6.39865C10.1737 8.4946 7.74787 11.4736 6.31536 14.9591C4.88286 18.4445 4.50805 22.2798 5.23833 25.9799C5.96862 29.68 7.7712 33.0788 10.4181 35.7464C13.0651 38.4141 16.4375 40.2307 20.1088 40.9667C23.7802 41.7027 27.5857 41.325 31.0441 39.8813C34.5025 38.4376 37.4584 35.9927 39.5381 32.8559C41.6178 29.7191 42.7278 26.0312 42.7278 22.2586C42.7203 17.2021 40.7238 12.3548 37.176 8.77925C33.6282 5.20371 28.8186 3.19162 23.8012 3.184Z" fill="white"/>
<path d="M25.6022 40.0077C22.1331 40.0077 18.742 38.9709 15.8575 37.0285C12.9731 35.0861 10.725 32.3253 9.39741 29.0953C8.06986 25.8652 7.72251 22.3109 8.39929 18.8819C9.07607 15.4528 10.7466 12.303 13.1996 9.83085C15.6526 7.35865 18.7779 5.67507 22.1803 4.99299C25.5828 4.31091 29.1095 4.66098 32.3145 5.99892C35.5195 7.33687 38.2589 9.60259 40.1862 12.5096C42.1135 15.4166 43.1422 18.8343 43.1422 22.3305C43.1384 27.0176 41.2892 31.5116 38.0007 34.8259C34.7121 38.1402 30.253 40.0039 25.6022 40.0077ZM25.6022 5.4313C22.2721 5.43132 19.0168 6.42729 16.2487 8.29309C13.4806 10.1589 11.3241 12.8106 10.0524 15.9124C8.7806 19.0142 8.45076 22.4266 9.10461 25.7175C9.75846 29.0084 11.3666 32.0297 13.7254 34.3988C16.0841 36.7679 19.0875 38.3784 22.355 39.0261C25.6225 39.6739 29.0073 39.3299 32.0807 38.0376C35.1541 36.7453 37.7778 34.563 39.6197 31.7669C41.4616 28.9708 42.4388 25.6867 42.4274 22.3305C42.4199 17.8369 40.6443 13.5298 37.4902 10.3537C34.3361 7.17765 30.0609 5.39188 25.6022 5.38808" fill="white"/>
<path d="M27.4036 37.8323C24.3784 37.8323 21.4211 36.9282 18.9058 35.2344C16.3904 33.5405 14.4299 31.133 13.2722 28.3162C12.1145 25.4994 11.8116 22.3999 12.4018 19.4096C12.992 16.4194 14.4488 13.6726 16.5879 11.5168C18.727 9.36088 21.4525 7.89272 24.4195 7.29792C27.3866 6.70311 30.462 7.00839 33.257 8.17514C36.0519 9.34188 38.4407 11.3177 40.1214 13.8527C41.8021 16.3878 42.6992 19.3682 42.6992 22.417C42.6992 24.4414 42.3036 26.4459 41.5349 28.3162C40.7662 30.1865 39.6395 31.8858 38.2192 33.3173C36.7989 34.7487 35.1127 35.8842 33.257 36.6589C31.4012 37.4336 29.4122 37.8323 27.4036 37.8323ZM27.4036 7.57799C24.4915 7.57799 21.6448 8.44828 19.2234 10.0788C16.8021 11.7093 14.9149 14.0269 13.8005 16.7384C12.6861 19.4498 12.3945 22.4335 12.9626 25.312C13.5308 28.1905 14.9331 30.8345 16.9922 32.9098C19.0514 34.9851 21.6749 36.3983 24.5311 36.9709C27.3872 37.5435 30.3477 37.2496 33.0381 36.1265C35.7286 35.0034 38.0281 33.1014 39.646 30.6611C41.2639 28.2209 42.1274 25.3519 42.1274 22.417C42.1293 20.4678 41.7497 18.5373 41.0105 16.7361C40.2712 14.9349 39.1867 13.2983 37.8191 11.92C36.4515 10.5417 34.8276 9.44874 33.0404 8.70368C31.2531 7.95862 29.3377 7.57609 27.4036 7.57799Z" fill="white"/>
<path d="M29.2048 35.6714C26.6207 35.6714 24.0946 34.8991 21.9459 33.4522C19.7973 32.0053 18.1226 29.9488 17.1337 27.5426C16.1448 25.1365 15.8861 22.4889 16.3902 19.9346C16.8944 17.3803 18.1387 15.034 19.966 13.1925C21.7933 11.3509 24.1213 10.0968 26.6558 9.58872C29.1903 9.08063 31.8174 9.3414 34.2048 10.338C36.5922 11.3347 38.6328 13.0224 40.0685 15.1879C41.5041 17.3533 42.2704 19.8992 42.2704 22.5035C42.2666 25.9947 40.8889 29.3418 38.4394 31.8104C35.9899 34.279 32.6689 35.6676 29.2048 35.6714ZM29.2048 9.73909C26.7077 9.73624 24.2659 10.4799 22.1882 11.876C20.1106 13.2721 18.4905 15.2579 17.533 17.5821C16.5754 19.9064 16.3234 22.4646 16.8088 24.9333C17.2942 27.4019 18.4953 29.6699 20.26 31.4505C22.0247 33.231 24.2738 34.444 26.7227 34.936C29.1716 35.4281 31.7103 35.177 34.0176 34.2146C36.3249 33.2521 38.2971 31.6216 39.6847 29.5293C41.0723 27.437 41.813 24.9769 41.813 22.4603C41.8149 20.7904 41.4901 19.1365 40.8573 17.5932C40.2246 16.0499 39.2961 14.6474 38.1252 13.4659C36.9542 12.2845 35.5637 11.3472 34.033 10.7077C32.5024 10.0682 30.8617 9.73909 29.2048 9.73909Z" fill="white"/>
<path d="M31.0058 33.496C28.8627 33.496 26.7677 32.8556 24.9858 31.6556C23.2039 30.4557 21.8151 28.7501 20.995 26.7547C20.1749 24.7593 19.9603 22.5635 20.3784 20.4452C20.7965 18.3268 21.8285 16.381 23.3438 14.8538C24.8592 13.3265 26.79 12.2865 28.8919 11.8651C30.9938 11.4437 33.1724 11.66 35.1524 12.4865C37.1323 13.3131 38.8246 14.7128 40.0153 16.5086C41.2059 18.3045 41.8414 20.4158 41.8414 22.5756C41.8414 25.4719 40.6998 28.2495 38.6677 30.2975C36.6356 32.3455 33.8796 33.496 31.0058 33.496ZM31.0058 11.9866C28.9219 11.9724 26.8808 12.5821 25.1412 13.7385C23.4016 14.8949 22.042 16.5459 21.2347 18.4821C20.4274 20.4184 20.2089 22.5526 20.6067 24.6142C21.0046 26.6758 22.0009 28.5718 23.4694 30.062C24.938 31.5521 26.8125 32.5691 28.8553 32.9842C30.8981 33.3992 33.0172 33.1934 34.9439 32.393C36.8705 31.5927 38.5179 30.2337 39.6772 28.4884C40.8365 26.7432 41.4554 24.6903 41.4554 22.5901C41.4516 19.7828 40.3435 17.0917 38.3739 15.1067C36.4043 13.1217 33.734 12.0049 30.9486 12.001" fill="white"/>
</g>
<defs>
<clipPath id="clip0_224_39">
<rect width="252.421" height="44.3442" fill="white"/>
</clipPath>
</defs>
</svg>
