<svg width="48" height="48" viewBox="0 0 48 48" fill="none" xmlns="http://www.w3.org/2000/svg">
<path d="M33.9024 17.9039C33.7344 18.0719 33.5088 18.1679 33.2736 18.1679H10.9776C10.1904 18.1679 9.79201 17.2079 10.3392 16.6367L13.9968 12.8495C14.1648 12.6767 14.3952 12.5759 14.6352 12.5759H37.0128C37.8048 12.5759 38.2032 13.5455 37.6416 14.1167L33.9024 17.9039ZM33.9024 34.8287C33.7344 34.9919 33.5088 35.0879 33.2736 35.0879H10.9776C10.1904 35.0879 9.79201 34.1519 10.3392 33.5951L13.9968 29.8991C14.1648 29.7311 14.3952 29.6351 14.6352 29.6351H37.0128C37.8048 29.6351 38.2032 30.5807 37.6416 31.1375L33.9024 34.8287ZM33.2736 21.1055C33.5088 21.1055 33.7344 21.1967 33.9024 21.3647L37.6416 25.0607C38.2032 25.6127 37.8048 26.5631 37.0128 26.5631H14.6352C14.3952 26.5631 14.1648 26.4671 13.9968 26.2991L10.3392 22.6031C9.78721 22.0463 10.1856 21.1103 10.9776 21.1103L33.2736 21.1055Z" fill="#00FFAD"/>
<rect width="48" height="48" rx="4" fill="#E9E9E9"/>
<path d="M24 0C37.2528 0 48 10.7472 48 24C48 37.2528 37.2528 48 24 48C10.7472 48 0 37.2528 0 24C0 10.7472 10.7472 0 24 0Z" fill="#E9E9E9"/>
<path fill-rule="evenodd" clip-rule="evenodd" d="M11.0978 21.7104H33.3074C33.5858 21.7104 33.8498 21.8208 34.0418 22.0176L37.5554 25.5552C38.2034 26.208 37.7426 27.3216 36.821 27.3216H14.6114C14.333 27.3216 14.069 27.2112 13.877 27.0144L10.3634 23.4768C9.71063 22.824 10.1762 21.7104 11.0978 21.7104ZM10.3634 17.0208L13.877 13.4832C14.0738 13.2864 14.3378 13.176 14.6114 13.176H36.8162C37.7378 13.176 38.2034 14.2896 37.5506 14.9424L34.0418 18.48C33.845 18.6768 33.581 18.7872 33.3074 18.7872H11.0978C10.1762 18.7872 9.71063 17.6736 10.3634 17.0208ZM37.5506 32.0112L34.037 35.5488C33.8402 35.7456 33.5762 35.856 33.3026 35.856H11.0978C10.1762 35.856 9.71063 34.7424 10.3634 34.0896L13.877 30.552C14.0738 30.3552 14.3378 30.2448 14.6114 30.2448H36.8162C37.7378 30.2448 38.2034 31.3584 37.5506 32.0112Z" fill="url(#paint0_linear_1694_7960)"/>
<defs>
<linearGradient id="paint0_linear_1694_7960" x1="11.6412" y1="36.8319" x2="36.2729" y2="12.2002" gradientUnits="userSpaceOnUse">
<stop stop-color="#CB4EE8"/>
<stop offset="1" stop-color="#10F4B1"/>
</linearGradient>
</defs>
</svg>
