<svg width="36" height="36" viewBox="0 0 36 36" fill="none" xmlns="http://www.w3.org/2000/svg">
<rect width="36" height="36" rx="4" fill="#21B6CC"/>
<path d="M18 6C24.6275 6 30 11.3725 30 18C30 24.6275 24.6275 30 18 30C11.3725 30 6 24.6275 6 18C6 11.3725 11.3725 6 18 6Z" fill="#EEEEEE"/>
<path d="M18.0002 27.0433C22.9946 27.0433 27.0433 22.9946 27.0433 18.0002C27.0433 13.0058 22.9946 8.95703 18.0002 8.95703C13.0058 8.95703 8.95703 13.0058 8.95703 18.0002C8.95703 22.9946 13.0058 27.0433 18.0002 27.0433Z" fill="#C5E3E8"/>
<rect x="18" y="14" width="5.65686" height="5.65686" rx="1" transform="rotate(45 18 14)" fill="#21B6CC"/>
</svg>
