<svg width="24" height="24" viewBox="0 0 24 24" fill="none" xmlns="http://www.w3.org/2000/svg">
<path fill-rule="evenodd" clip-rule="evenodd" d="M10.1155 3.17395H1C0.447715 3.17395 0 3.62167 0 4.17395C0 4.72623 0.447715 5.17395 1 5.17395L10.1155 5.17395C10.5449 6.99619 12.1212 8.34783 14 8.34783C15.8788 8.34783 17.4551 6.99619 17.8845 5.17395L23 5.17395C23.5523 5.17395 24 4.72623 24 4.17395C24 3.62167 23.5523 3.17395 23 3.17395H17.8845C17.4551 1.35167 15.8788 0 14 0C12.1212 0 10.5449 1.35167 10.1155 3.17395ZM14 6.34783C12.9748 6.34783 12 5.45561 12 4.17391C12 2.89222 12.9748 2 14 2C15.0252 2 16 2.89222 16 4.17391C16 5.45561 15.0252 6.34783 14 6.34783ZM3.11554 13.5217C3.54494 15.344 5.1212 16.6956 7 16.6956C8.88101 16.6956 10.4588 15.3408 10.886 13.5153C10.9234 13.5195 10.9614 13.5217 11 13.5217H23C23.5523 13.5217 24 13.074 24 12.5217C24 11.9694 23.5523 11.5217 23 11.5217H11C10.9614 11.5217 10.9234 11.5239 10.886 11.5282C10.4588 9.70263 8.88103 8.34778 7 8.34778C5.12117 8.34778 3.54489 9.69945 3.11552 11.5217H1C0.447715 11.5217 0 11.9694 0 12.5217C0 13.074 0.447715 13.5217 1 13.5217H3.11554ZM7 14.6956C5.97481 14.6956 5.00002 13.8034 5 12.5217C5 11.24 5.9748 10.3478 7 10.3478C8.0252 10.3478 9 11.24 9 12.5217C9 13.8034 8.0252 14.6956 7 14.6956ZM1 18.826H13.1156C13.545 17.0038 15.1212 15.6522 17 15.6522C18.881 15.6522 20.4587 17.007 20.886 18.8325C20.9234 18.8282 20.9614 18.826 21 18.826H23C23.5523 18.826 24 19.2738 24 19.826C24 20.3783 23.5523 20.826 23 20.826H21C20.9615 20.826 20.9234 20.8239 20.886 20.8196C20.4588 22.6452 18.8811 24 17 24C15.1212 24 13.5449 22.6483 13.1155 20.826H1C0.447715 20.826 0 20.3783 0 19.826C0 19.2738 0.447715 18.826 1 18.826ZM15 19.8261C15 21.1078 15.9748 22 17 22C18.0252 22 19 21.1078 19 19.8261C19 18.5444 18.0252 17.6522 17 17.6522C15.9748 17.6522 15 18.5444 15 19.8261Z" />
</svg>
