<svg width="41" height="40" viewBox="0 0 41 40" fill="none" xmlns="http://www.w3.org/2000/svg">
<g clip-path="url(#clip0)">
<path fill-rule="evenodd" clip-rule="evenodd" d="M19.8062 40.0001C20.1519 40.0001 20.4897 39.8976 20.7771 39.7056C21.0645 39.5135 21.2885 39.2406 21.4208 38.9213C21.553 38.6019 21.5877 38.2505 21.5202 37.9115C21.4528 37.5725 21.2864 37.2611 21.0419 37.0167C20.7975 36.7723 20.4861 36.6059 20.1471 36.5385C19.8081 36.471 19.4568 36.5056 19.1374 36.6379C18.8181 36.7702 18.5452 36.9942 18.3531 37.2816C18.1611 37.569 18.0586 37.9068 18.0586 38.2525C18.0577 38.4822 18.1022 38.7099 18.1897 38.9224C18.2772 39.1348 18.4059 39.3279 18.5683 39.4903C18.7308 39.6528 18.9238 39.7815 19.1363 39.869C19.3488 39.9565 19.5764 40.001 19.8062 40.0001Z" fill="url(#paint0_linear)"/>
<path fill-rule="evenodd" clip-rule="evenodd" d="M10.0976 37.2817C10.2759 37.3844 10.4728 37.4509 10.6769 37.4772C10.881 37.5035 11.0883 37.4892 11.2868 37.4351C11.4854 37.3809 11.6713 37.288 11.8337 37.1618C11.9962 37.0355 12.1321 36.8783 12.2336 36.6993C12.816 35.9225 12.4276 34.9517 11.6512 34.3693C11.4636 34.2611 11.2546 34.1953 11.0388 34.1765C10.8231 34.1577 10.6059 34.1863 10.4023 34.2603C10.1988 34.3343 10.014 34.452 9.86072 34.605C9.70747 34.758 9.58955 34.9427 9.51522 35.1461C9.39065 35.318 9.30623 35.5158 9.26815 35.7247C9.23007 35.9336 9.2393 36.1484 9.29517 36.3533C9.35105 36.5582 9.45214 36.7479 9.591 36.9086C9.72987 37.0692 9.90299 37.1967 10.0976 37.2817V37.2817Z" fill="url(#paint1_linear)"/>
<path fill-rule="evenodd" clip-rule="evenodd" d="M2.52371 30.2916C2.64674 30.5293 2.81619 30.7398 3.02204 30.9107C3.2279 31.0817 3.46596 31.2096 3.72214 31.2869C3.97831 31.3642 4.2474 31.3893 4.51345 31.3607C4.7795 31.3321 5.03711 31.2504 5.27102 31.1205C5.50493 30.9905 5.71039 30.815 5.87523 30.6042C6.04007 30.3934 6.16094 30.1517 6.23068 29.8934C6.30042 29.635 6.31761 29.3653 6.28124 29.1002C6.24486 28.8351 6.15566 28.58 6.01891 28.35C5.7362 27.9134 5.30479 27.5941 4.80466 27.4513C4.30452 27.3085 3.76956 27.3518 3.29891 27.5732C2.86298 27.8561 2.54428 28.2874 2.40176 28.7871C2.25925 29.2869 2.30257 29.8213 2.52371 30.2916V30.2916Z" fill="url(#paint2_linear)"/>
<path fill-rule="evenodd" clip-rule="evenodd" d="M0.000403626 20.3884C-0.0152341 20.6474 0.0242736 20.9069 0.116317 21.1495C0.20836 21.3922 0.350843 21.6125 0.534354 21.796C0.717864 21.9795 0.938225 22.122 1.18088 22.2141C1.42353 22.3061 1.68295 22.3456 1.942 22.33C2.45662 22.3289 2.94986 22.124 3.31375 21.7601C3.67765 21.3962 3.88255 20.903 3.8836 20.3884C3.84937 19.8847 3.63382 19.4105 3.27685 19.0535C2.91988 18.6966 2.44567 18.481 1.942 18.4468C1.42738 18.4478 0.934144 18.6527 0.570253 19.0166C0.206361 19.3805 0.00146056 19.8738 0.000403626 20.3884V20.3884Z" fill="url(#paint3_linear)"/>
<path fill-rule="evenodd" clip-rule="evenodd" d="M2.52463 10.486C2.25697 10.9788 2.18832 11.5553 2.33282 12.0972C2.47731 12.639 2.82395 13.1048 3.30143 13.3988C3.79425 13.6666 4.37097 13.7352 4.91287 13.5906C5.45478 13.4461 5.92066 13.0993 6.21463 12.6216C6.4951 12.1317 6.57084 11.5509 6.42538 11.0054C6.27991 10.46 5.92501 9.99401 5.43783 9.70883C4.27223 9.12603 3.10703 9.32042 2.52463 10.486Z" fill="url(#paint4_linear)"/>
<path fill-rule="evenodd" clip-rule="evenodd" d="M9.70832 2.91276C8.54312 3.49516 8.15473 5.04876 8.73753 6.21356C9.11551 6.70154 9.64957 7.04494 10.2504 7.18633C10.8512 7.32773 11.4824 7.25855 12.0383 6.99036C12.3196 6.83754 12.5655 6.62701 12.7598 6.37257C12.9541 6.11813 13.0924 5.82551 13.1657 5.51388C13.2391 5.20226 13.2458 4.87865 13.1853 4.56426C13.1249 4.24988 12.9988 3.9518 12.8151 3.68956C12.4867 3.19678 11.9864 2.84412 11.4119 2.70048C10.8374 2.55683 10.23 2.63252 9.70832 2.91276V2.91276Z" fill="url(#paint5_linear)"/>
<path fill-rule="evenodd" clip-rule="evenodd" d="M19.8058 0C19.14 0.0118127 18.5048 0.281568 18.0339 0.752448C17.563 1.22333 17.2933 1.85858 17.2815 2.5244C17.2772 2.85856 17.3394 3.19022 17.4644 3.50016C17.5894 3.8101 17.7746 4.09214 18.0094 4.32993C18.2442 4.56771 18.5239 4.75651 18.8323 4.88537C19.1406 5.01422 19.4715 5.08058 19.8057 5.08058C20.1398 5.08058 20.4707 5.01422 20.779 4.88537C21.0874 4.75651 21.3671 4.56771 21.6019 4.32993C21.8367 4.09214 22.0219 3.8101 22.1469 3.50016C22.2719 3.19022 22.3341 2.85856 22.3299 2.5244C22.318 1.85865 22.0483 1.22345 21.5775 0.752585C21.1068 0.281715 20.4716 0.0119151 19.8058 0V0Z" fill="url(#paint6_linear)"/>
<path fill-rule="evenodd" clip-rule="evenodd" d="M30.0966 2.52386C29.7845 2.31 29.4305 2.16481 29.0582 2.09786C28.6858 2.03092 28.3034 2.04374 27.9364 2.1355C27.5693 2.22725 27.2259 2.39585 26.9288 2.63014C26.6318 2.86443 26.3878 3.15909 26.213 3.49466C26.0214 3.81331 25.8945 4.16661 25.8396 4.53436C25.7847 4.9021 25.8028 5.27706 25.893 5.63778C25.9832 5.9985 26.1436 6.3379 26.3651 6.63655C26.5866 6.9352 26.8648 7.18724 27.1838 7.37826C28.7374 8.15506 30.4846 7.76666 31.2614 6.40746C31.6155 5.73674 31.6919 4.95371 31.474 4.22721C31.2561 3.50072 30.7614 2.88896 30.0966 2.52386V2.52386Z" fill="url(#paint7_linear)"/>
<path fill-rule="evenodd" clip-rule="evenodd" d="M38.0578 9.90292C37.087 8.34972 35.145 7.76692 33.5918 8.73772C33.2179 8.92454 32.8877 9.18816 32.6227 9.51133C32.3577 9.83451 32.1639 10.21 32.0539 10.6132C31.9439 11.0164 31.9203 11.4382 31.9845 11.8512C32.0487 12.2642 32.1994 12.6589 32.4266 13.0097C32.8696 13.7501 33.572 14.2993 34.3974 14.5506C35.2228 14.802 36.1121 14.7375 36.8926 14.3697C38.4462 13.3981 39.0286 11.4561 38.0578 9.90292Z" fill="url(#paint8_linear)"/>
<path fill-rule="evenodd" clip-rule="evenodd" d="M40.9687 20.3882C40.9431 19.5212 40.5874 18.6966 39.9741 18.0831C39.3609 17.4696 38.5366 17.1134 37.6695 17.0874C36.8069 17.1064 35.986 17.4624 35.3826 18.0792C34.7793 18.696 34.4414 19.5246 34.4414 20.3874C34.4414 21.2502 34.7793 22.0788 35.3826 22.6956C35.986 23.3124 36.8069 23.6684 37.6695 23.6874C38.5363 23.6614 39.3604 23.3055 39.9736 22.6923C40.5868 22.0791 40.9427 21.255 40.9687 20.3882Z" fill="url(#paint9_linear)"/>
<path fill-rule="evenodd" clip-rule="evenodd" d="M38.4473 31.0693C39.4181 29.5161 38.8357 27.1857 37.0873 26.2149C36.6805 25.9803 36.231 25.8292 35.7651 25.7707C35.2992 25.7121 34.8262 25.7472 34.3741 25.8739C33.9219 26.0006 33.4996 26.2163 33.1319 26.5084C32.7642 26.8005 32.4586 27.1631 32.2329 27.5749C31.9601 27.9608 31.7729 28.4005 31.6837 28.8646C31.5945 29.3287 31.6054 29.8065 31.7157 30.266C31.826 30.7256 32.0332 31.1563 32.3233 31.5293C32.6134 31.9024 32.9799 32.2092 33.3981 32.4293C34.2513 32.9038 35.2558 33.0272 36.1985 32.7733C37.1412 32.5194 37.9479 31.9081 38.4473 31.0693Z" fill="url(#paint10_linear)"/>
</g>
<defs>
<linearGradient id="paint0_linear" x1="19.8062" y1="36.5049" x2="19.8062" y2="40.0001" gradientUnits="userSpaceOnUse">
<stop stop-color="#1c9367"/>
<stop offset="1" stop-color="#25D695"/>
</linearGradient>
<linearGradient id="paint1_linear" x1="10.8796" y1="34.1709" x2="10.8796" y2="37.49" gradientUnits="userSpaceOnUse">
<stop stop-color="#1c9367"/>
<stop offset="1" stop-color="#25D695"/>
</linearGradient>
<linearGradient id="paint2_linear" x1="4.30957" y1="27.3687" x2="4.30957" y2="31.3721" gradientUnits="userSpaceOnUse">
<stop stop-color="#1c9367"/>
<stop offset="1" stop-color="#25D695"/>
</linearGradient>
<linearGradient id="paint3_linear" x1="1.94034" y1="18.4468" x2="1.94034" y2="22.3333" gradientUnits="userSpaceOnUse">
<stop stop-color="#1c9367"/>
<stop offset="1" stop-color="#25D695"/>
</linearGradient>
<linearGradient id="paint4_linear" x1="4.37825" y1="9.39062" x2="4.37825" y2="13.6647" gradientUnits="userSpaceOnUse">
<stop stop-color="#1c9367"/>
<stop offset="1" stop-color="#25D695"/>
</linearGradient>
<linearGradient id="paint5_linear" x1="10.848" y1="2.62939" x2="10.848" y2="7.25798" gradientUnits="userSpaceOnUse">
<stop stop-color="#1c9367"/>
<stop offset="1" stop-color="#25D695"/>
</linearGradient>
<linearGradient id="paint6_linear" x1="19.8057" y1="0" x2="19.8057" y2="5.08058" gradientUnits="userSpaceOnUse">
<stop stop-color="#1c9367"/>
<stop offset="1" stop-color="#25D695"/>
</linearGradient>
<linearGradient id="paint7_linear" x1="28.7022" y1="2.05566" x2="28.7022" y2="7.77417" gradientUnits="userSpaceOnUse">
<stop stop-color="#1c9367"/>
<stop offset="1" stop-color="#25D695"/>
</linearGradient>
<linearGradient id="paint8_linear" x1="35.2408" y1="8.26318" x2="35.2408" y2="14.7015" gradientUnits="userSpaceOnUse">
<stop stop-color="#1c9367"/>
<stop offset="1" stop-color="#25D695"/>
</linearGradient>
<linearGradient id="paint9_linear" x1="37.7051" y1="17.0874" x2="37.7051" y2="23.6874" gradientUnits="userSpaceOnUse">
<stop stop-color="#1c9367"/>
<stop offset="1" stop-color="#25D695"/>
</linearGradient>
<linearGradient id="paint10_linear" x1="35.2695" y1="25.7432" x2="35.2695" y2="32.9025" gradientUnits="userSpaceOnUse">
<stop stop-color="#1c9367"/>
<stop offset="1" stop-color="#25D695"/>
</linearGradient>
<clipPath id="clip0">
<rect width="40.9708" height="40" fill="white"/>
</clipPath>
</defs>
</svg>
