<?xml version="1.0" encoding="utf-8"?>
<!-- Generator: Adobe Illustrator 24.0.1, SVG Export Plug-In . SVG Version: 6.00 Build 0)  -->
<svg version="1.1" id="Layer_1" xmlns="http://www.w3.org/2000/svg" xmlns:xlink="http://www.w3.org/1999/xlink" x="0px" y="0px"
	 viewBox="0 0 24 24" style="enable-background:new 0 0 24 24;" xml:space="preserve">
<style type="text/css">
	.st0{fill-rule:evenodd;clip-rule:evenodd;}
	.st1{fill:none;}
</style>
<g id="validators" transform="translate(525)">
	<path id="Combined-Shape-11" d="M-503,23.5c0,0.3-0.2,0.5-0.5,0.5h-1c-0.3,0-0.5-0.2-0.5-0.5V14c0-0.5-0.4-0.9-0.9-1l-0.1,0h-14
		c-0.5,0-0.9,0.4-1,0.9l0,0.1v9.5c0,0.3-0.2,0.5-0.5,0.5h-1c-0.3,0-0.5-0.2-0.5-0.5V14c0-1.6,1.2-2.9,2.8-3l0.2,0h14
		c1.6,0,2.9,1.2,3,2.8l0,0.2V23.5z M-513,0c3,0,5.5,2.5,5.5,5.5S-510,11-513,11c-3,0-5.5-2.5-5.5-5.5S-516,0-513,0z M-513,2
		c-1.9,0-3.5,1.6-3.5,3.5S-514.9,9-513,9s3.5-1.6,3.5-3.5S-511.1,2-513,2z"/>
</g>
</svg>
