<svg width="21" height="24" viewBox="0 0 21 24" fill="none" xmlns="http://www.w3.org/2000/svg">
<path d="M8.48633 9C7.89299 9 7.31297 9.17595 6.81962 9.50559C6.32627 9.83523 5.94175 10.3038 5.71469 10.8519C5.48763 11.4001 5.42822 12.0033 5.54397 12.5853C5.65973 13.1672 5.94545 13.7018 6.36501 14.1213C6.78457 14.5409 7.31911 14.8266 7.90106 14.9424C8.483 15.0581 9.0862 14.9987 9.63438 14.7716C10.1826 14.5446 10.6511 14.1601 10.9807 13.6667C11.3104 13.1734 11.4863 12.5933 11.4863 12C11.4863 11.2043 11.1703 10.4413 10.6076 9.87868C10.045 9.31607 9.28198 9 8.48633 9Z" fill="#25D695"/>
<path d="M8.4855 9.06757e-06C6.90933 -0.00193127 5.34832 0.30755 3.89211 0.910677C2.43591 1.5138 1.11321 2.39869 0 3.51451L4.245 7.75951C5.08387 6.91979 6.15296 6.34774 7.31701 6.11574C8.48106 5.88374 9.68777 6.0022 10.7845 6.45615C11.8812 6.9101 12.8186 7.67913 13.4782 8.66596C14.1377 9.65278 14.4898 10.8131 14.4898 12C14.4898 13.1869 14.1377 14.3472 13.4782 15.3341C12.8186 16.3209 11.8812 17.0899 10.7845 17.5439C9.68777 17.9978 8.48106 18.1163 7.31701 17.8843C6.15296 17.6523 5.08387 17.0802 4.245 16.2405L0 20.4855C1.39543 21.8809 3.11343 22.9105 5.00185 23.4833C6.89027 24.0562 8.89081 24.1544 10.8263 23.7694C12.7617 23.3844 14.5724 22.528 16.0978 21.2761C17.6232 20.0242 18.8164 18.4154 19.5716 16.5923C20.3268 14.7691 20.6207 12.7878 20.4273 10.824C20.2339 8.86008 19.5591 6.9742 18.4628 5.33337C17.3665 3.69254 15.8825 2.34741 14.1421 1.41712C12.4018 0.486821 10.4589 8.09751e-05 8.4855 9.06757e-06Z" fill="#25D695"/>
</svg>
