<svg width="28" height="28" viewBox="0 0 28 28" fill="none" xmlns="http://www.w3.org/2000/svg">
<path d="M0 14C0 6.26801 6.26801 0 14 0C21.732 0 28 6.26801 28 14C28 21.732 21.732 28 14 28C6.26801 28 0 21.732 0 14Z" fill="white"/>
<path d="M16.2677 12.4674L16.3107 11.7669L13.994 10.3224L11.6848 11.7669L11.7806 13.3439H18.0046L17.6438 19.2855H10.3504L10.2005 16.8002L10.1538 16.0357H11.9454L11.9915 16.8002L12.0344 17.4976H15.9598L16.1029 15.1312H10.1009L9.83594 10.8163L13.994 8.21289L18.1583 10.8163L18.0587 12.4674H16.2677Z" fill="#E1AB4C"/>
<path d="M17.8129 19.4634H10.1836L9.96526 15.8552H12.1146L12.1998 17.3178H15.7974L15.918 15.3097H9.93291L9.65234 10.7224L13.9989 8.00195L18.3448 10.7242L18.2279 12.6527H16.0792L16.1271 11.8689L13.9989 10.5332L11.8745 11.8627L11.9541 13.1616H18.1955L17.8129 19.4634ZM10.5152 19.1069H17.4739L17.816 13.5224H11.6138L11.5 11.6717L13.9989 10.1115L16.4972 11.6717L16.4593 12.2894H17.8963L17.9803 10.9115L13.9989 8.42311L10.0256 10.9115L10.2744 14.9551H16.2988L16.132 17.6811H11.8676L11.778 16.2192H10.3472L10.5152 19.1069Z" fill="#E1AB4C"/>
<path d="M13.4085 4.16312L6.51321 8.48105C6.34539 8.58582 6.20896 8.73394 6.1183 8.90978C6.02764 9.08562 5.98612 9.28266 5.99812 9.48013L6.7608 21.9661C6.77732 22.2462 6.90041 22.5094 7.10481 22.7017C7.30921 22.8939 7.57943 23.0007 7.86003 23H20.142C20.4225 23.0004 20.6926 22.8935 20.8969 22.7013C21.1012 22.5091 21.2244 22.2461 21.2412 21.9661L22.0027 9.47453C22.0147 9.27682 21.9731 9.07952 21.8823 8.90346C21.7916 8.7274 21.655 8.5791 21.4869 8.47421L14.5755 4.16312C14.4007 4.05335 14.1984 3.99512 13.992 3.99512C13.7855 3.99512 13.5833 4.05335 13.4085 4.16312ZM19.2953 21.395H8.70235C8.60342 21.3952 8.50818 21.3576 8.43612 21.2898C8.36407 21.222 8.32066 21.1292 8.31478 21.0305L7.63546 9.91684C7.6315 9.8471 7.64625 9.77757 7.67819 9.71544C7.71013 9.65332 7.75809 9.60086 7.81711 9.56349L13.7929 5.82162C13.8548 5.78288 13.9264 5.76234 13.9995 5.76234C14.0725 5.76234 14.1441 5.78288 14.206 5.82162L20.1849 9.56038C20.2442 9.59731 20.2924 9.64959 20.3244 9.71169C20.3564 9.77379 20.3709 9.84339 20.3666 9.91311L19.6879 21.0274C19.6816 21.1269 19.6374 21.2202 19.5644 21.2881C19.4913 21.3559 19.395 21.3931 19.2953 21.3919V21.395Z" fill="#E1AB4C"/>
</svg>
