<svg width="28" height="28" viewBox="0 0 28 28" fill="none" xmlns="http://www.w3.org/2000/svg">
  <g clip-path="url(#clip0_1746_4962)">
  <path d="M26.3397 0H1.66027C0.743328 0 0 0.743358 0 1.66034V26.3397C0 27.2566 0.743328 28 1.66027 28H26.3397C27.2567 28 28 27.2566 28 26.3397V1.66034C28 0.743358 27.2567 0 26.3397 0Z" fill="white"/>
  <path d="M18.9998 13.7939C18.9998 14.4781 18.8428 15.1061 18.5288 15.678C18.2147 16.2388 17.7325 16.693 17.082 17.0406C16.4316 17.3883 15.6242 17.5621 14.6597 17.5621H12.8765V21.8012H10V9.99219H14.6597C15.6017 9.99219 16.398 10.1548 17.0484 10.48C17.6989 10.8053 18.1867 11.2538 18.512 11.8258C18.8372 12.3977 18.9998 13.0538 18.9998 13.7939ZM14.441 15.2743C14.9905 15.2743 15.3999 15.1453 15.669 14.8874C15.9382 14.6295 16.0727 14.265 16.0727 13.7939C16.0727 13.3229 15.9382 12.9585 15.669 12.7005C15.3999 12.4426 14.9905 12.3136 14.441 12.3136H12.8765V15.2743H14.441Z" fill="black"/>
  <path d="M18.9998 7H10V8.90048H18.9998V7Z" fill="#E50913"/>
  </g>
  <defs>
  <clipPath id="clip0_1746_4962">
  <rect width="28" height="28" rx="14" fill="white"/>
  </clipPath>
  </defs>
  </svg>
  