<svg width="28" height="28" viewBox="0 0 28 28" fill="none" xmlns="http://www.w3.org/2000/svg">
<path fill-rule="evenodd" clip-rule="evenodd" d="M14 0C21.732 0 28 6.268 28 14C28 21.732 21.732 28 14 28C6.268 28 0 21.732 0 14C0 6.268 6.268 0 14 0Z" fill="white"/>
<path fill-rule="evenodd" clip-rule="evenodd" d="M13.9734 5.92285C18.4342 5.92285 22.0503 9.53902 22.0503 13.9998C22.0503 18.4605 18.4342 22.0767 13.9734 22.0767C9.51266 22.0767 5.89648 18.4605 5.89648 13.9998C5.89648 9.53902 9.51266 5.92285 13.9734 5.92285Z" fill="#E6E6E6"/>
<path fill-rule="evenodd" clip-rule="evenodd" d="M14.2207 2.3944C14.1095 2.29205 14.052 2.29011 14.0424 2.29011C14.0328 2.29011 13.9754 2.29205 13.8641 2.3944C13.75 2.49946 13.6135 2.68073 13.4665 2.96042C13.173 3.51867 12.8921 4.36248 12.65 5.45128C12.3778 6.67567 12.1627 8.17221 12.0269 9.84751C12.6824 10.1647 13.3565 10.5095 14.0423 10.8798C14.7281 10.5094 15.4022 10.1646 16.0579 9.84731C15.9222 8.17212 15.707 6.67562 15.4348 5.45128C15.1927 4.36248 14.9118 3.51867 14.6183 2.96042C14.4713 2.68073 14.3348 2.49946 14.2207 2.3944ZM13.4685 11.194C12.965 10.9265 12.4689 10.6733 11.9831 10.4355C11.9463 10.9748 11.9176 11.5308 11.8976 12.1004C12.1546 11.9465 12.4153 11.7933 12.6795 11.6408C12.9436 11.4884 13.2068 11.3394 13.4685 11.194ZM11.4981 9.5957C11.8915 5.00184 12.8823 1.74219 14.0424 1.74219C15.2025 1.74219 16.1933 5.00174 16.5867 9.59551C20.7642 7.63919 24.0841 6.86703 24.6642 7.87107C25.2443 8.87512 22.915 11.3624 19.131 13.9998C22.915 16.6371 25.2443 19.1245 24.6642 20.1285C24.0841 21.1326 20.7642 20.3603 16.5867 18.404C16.1933 22.9978 15.2025 26.2574 14.0424 26.2574C12.8823 26.2574 11.8915 22.9977 11.4981 18.4039C7.32049 20.3603 4.00034 21.1326 3.42027 20.1285C2.84021 19.1245 5.16945 16.6371 8.9535 13.9998C5.16945 11.3624 2.84021 8.87512 3.42027 7.87107C4.00034 6.86698 7.32049 7.63924 11.4981 9.5957ZM9.43631 13.6678C8.05237 12.7127 6.86296 11.7781 5.93801 10.9303C5.11548 10.1763 4.52472 9.51125 4.18768 8.97813C4.01882 8.71098 3.92999 8.50229 3.89605 8.35101C3.863 8.20373 3.89001 8.15327 3.89471 8.14513H3.89471C3.89944 8.13695 3.92975 8.08825 4.07411 8.04315C4.2223 7.99688 4.4477 7.96936 4.76365 7.98197C5.39427 8.00711 6.26598 8.1859 7.33062 8.52074C8.52778 8.89733 9.93222 9.45943 11.4519 10.1796C11.399 10.9054 11.3607 11.6611 11.3388 12.4396C10.6749 12.848 10.039 13.259 9.43631 13.6678ZM9.43631 14.3317C8.05237 15.2869 6.86296 16.2214 5.93801 17.0693C5.11548 17.8233 4.52472 18.4883 4.18768 19.0215C4.01882 19.2886 3.92999 19.4973 3.89605 19.6485C3.86299 19.7959 3.89002 19.8463 3.89471 19.8544C3.89942 19.8625 3.9297 19.9113 4.07411 19.9564C4.2223 20.0027 4.4477 20.0302 4.76365 20.0176C5.39427 19.9925 6.26598 19.8136 7.33062 19.4788C8.52778 19.1022 9.93222 18.5401 11.4519 17.82C11.399 17.0941 11.3607 16.3384 11.3388 15.5599C10.6749 15.1515 10.039 14.7405 9.43631 14.3317ZM11.3242 14.9063C10.8405 14.6042 10.373 14.3013 9.92394 13.9998C10.373 13.6982 10.8405 13.3953 11.3242 13.0933C11.3193 13.3926 11.3169 13.6949 11.3169 13.9998C11.3169 14.3047 11.3193 14.607 11.3242 14.9063ZM11.8789 15.248C11.8696 14.8379 11.8648 14.4215 11.8648 13.9998C11.8648 13.5781 11.8696 13.1617 11.8789 12.7516C12.2296 12.5385 12.5879 12.3262 12.9533 12.1154C13.3188 11.9045 13.6821 11.7004 14.0423 11.5034C14.4024 11.7004 14.7657 11.9045 15.1312 12.1154C15.4967 12.3263 15.8552 12.5387 16.2059 12.7518C16.2153 13.1619 16.22 13.5782 16.22 13.9998C16.22 14.4214 16.2153 14.8377 16.2059 15.2477C15.8552 15.4609 15.4967 15.6733 15.1312 15.8841C14.7657 16.095 14.4024 16.2991 14.0423 16.4962C13.6821 16.2991 13.3188 16.095 12.9533 15.8841C12.5879 15.6733 12.2296 15.4611 11.8789 15.248ZM11.8976 15.8992C11.9176 16.4688 11.9463 17.0247 11.9831 17.564C12.4689 17.3262 12.965 17.0731 13.4685 16.8055C13.2068 16.6601 12.9436 16.5111 12.6795 16.3587C12.4153 16.2063 12.1546 16.053 11.8976 15.8992ZM14.0423 17.1198C13.3565 17.4901 12.6824 17.8349 12.0269 18.1521C12.1627 19.8273 12.3778 21.3239 12.65 22.5483C12.8921 23.6371 13.173 24.4809 13.4665 25.0392C13.6135 25.3188 13.75 25.5001 13.8641 25.6052C13.9754 25.7075 14.0328 25.7094 14.0424 25.7094C14.052 25.7094 14.1095 25.7075 14.2207 25.6052C14.3348 25.5001 14.4713 25.3188 14.6183 25.0392C14.9118 24.4809 15.1927 23.6371 15.4348 22.5483C15.707 21.3239 15.9222 19.8274 16.0579 18.1522C15.4022 17.835 14.7281 17.4901 14.0423 17.1198ZM16.633 17.8201C18.1524 18.5402 19.5568 19.1023 20.7539 19.4788C21.8185 19.8136 22.6902 19.9925 23.3208 20.0176C23.6368 20.0302 23.8622 20.0027 24.0103 19.9564C24.1548 19.9113 24.185 19.8625 24.1898 19.8544C24.1944 19.8463 24.2215 19.7959 24.1884 19.6485C24.1545 19.4973 24.0657 19.2886 23.8968 19.0215C23.5598 18.4883 22.969 17.8233 22.1465 17.0693C21.2215 16.2214 20.0321 15.2869 18.6482 14.3317C18.0455 14.7404 17.4097 15.1514 16.7461 15.5597C16.7241 16.3383 16.6858 17.0942 16.633 17.8201ZM18.6482 13.6678C20.0321 12.7127 21.2215 11.7781 22.1465 10.9303C22.969 10.1763 23.5598 9.51125 23.8968 8.97813C24.0657 8.71098 24.1545 8.50229 24.1884 8.35101C24.2215 8.20363 24.1944 8.15322 24.1898 8.14513C24.185 8.137 24.1548 8.08825 24.0103 8.04315C23.8622 7.99688 23.6368 7.96936 23.3208 7.98197C22.6902 8.00711 21.8185 8.1859 20.7539 8.52074C19.5568 8.89733 18.1524 9.45933 16.633 10.1794C16.6858 10.9054 16.7241 11.6612 16.7461 12.4399C17.4097 12.8481 18.0455 13.2591 18.6482 13.6678ZM16.7606 13.0935C17.2442 13.3955 17.7116 13.6983 18.1605 13.9998C17.7116 14.3013 17.2442 14.604 16.7606 14.9061C16.7655 14.6068 16.768 14.3046 16.768 13.9998C16.768 13.695 16.7655 13.3927 16.7606 13.0935ZM16.1872 12.1006C16.1673 11.5308 16.1386 10.9748 16.1017 10.4354C15.6159 10.6732 15.1197 10.9264 14.616 11.194C14.8777 11.3394 15.1408 11.4884 15.405 11.6408C15.6693 11.7934 15.9301 11.9467 16.1872 12.1006ZM16.1017 17.5642C15.6159 17.3263 15.1197 17.0732 14.616 16.8055C14.8777 16.6601 15.1408 16.5111 15.405 16.3587C15.6693 16.2062 15.9301 16.0529 16.1872 15.899C16.1673 16.4687 16.1386 17.0248 16.1017 17.5642Z" fill="black"/>
<path fill-rule="evenodd" clip-rule="evenodd" d="M6.20763 10.5674C6.68367 10.5674 7.0696 10.9535 7.0696 11.4297C7.0696 11.906 6.68367 12.2921 6.20763 12.2921C5.73159 12.2921 5.3457 11.906 5.3457 11.4297C5.3457 10.9535 5.73159 10.5674 6.20763 10.5674Z" fill="black"/>
<path fill-rule="evenodd" clip-rule="evenodd" d="M19.9054 7.61426C20.3816 7.61426 20.7677 8.00034 20.7677 8.47662C20.7677 8.9529 20.3816 9.33899 19.9054 9.33899C19.4291 9.33899 19.043 8.9529 19.043 8.47662C19.043 8.00034 19.4291 7.61426 19.9054 7.61426Z" fill="black"/>
<path fill-rule="evenodd" clip-rule="evenodd" d="M12.3038 21.1494C12.7801 21.1494 13.1662 21.5353 13.1662 22.0114C13.1662 22.4874 12.7801 22.8734 12.3038 22.8734C11.8275 22.8734 11.4414 22.4874 11.4414 22.0114C11.4414 21.5353 11.8275 21.1494 12.3038 21.1494Z" fill="black"/>
<path fill-rule="evenodd" clip-rule="evenodd" d="M13.9933 12.5332C14.7996 12.5332 15.4533 13.1869 15.4533 13.9933C15.4533 14.7996 14.7996 15.4533 13.9933 15.4533C13.1869 15.4533 12.5332 14.7996 12.5332 13.9933C12.5332 13.1869 13.1869 12.5332 13.9933 12.5332Z" fill="black"/>
</svg>
