<svg width="28" height="28" viewBox="0 0 28 28" fill="none" xmlns="http://www.w3.org/2000/svg">
<path d="M0 14C0 6.26801 6.26801 0 14 0C21.732 0 28 6.26801 28 14C28 21.732 21.732 28 14 28C6.26801 28 0 21.732 0 14Z" fill="url(#paint0_linear_1317_2900)"/>
<path fill-rule="evenodd" clip-rule="evenodd" d="M14.0598 3.36524C15.915 3.36411 17.7392 3.84043 19.3567 4.74834C20.9743 5.65624 22.3307 6.96513 23.2952 8.54893C22.5492 8.53831 21.8085 8.67599 21.1163 8.95397C20.4239 9.23194 19.7939 9.64466 19.2626 10.1681C18.7312 10.6916 18.3094 11.3155 18.0214 12.0033C17.7334 12.6912 17.5852 13.4294 17.5852 14.1751C17.5852 14.9207 17.7334 15.6589 18.0214 16.3468C18.3094 17.0347 18.7312 17.6585 19.2626 18.182C19.7939 18.7055 20.4239 19.1182 21.1163 19.3962C21.8085 19.6742 22.5492 19.8118 23.2952 19.8012C22.3128 21.4124 20.9256 22.7386 19.2713 23.6479C17.6172 24.5572 15.7537 25.0179 13.8661 24.9844C11.9785 24.9508 10.1326 24.424 8.51188 23.4564C6.89114 22.4888 5.552 21.1142 4.6276 19.469C3.70319 17.8239 3.22571 15.9656 3.24262 14.0788C3.25953 12.1921 3.77024 10.3426 4.72398 8.7143C5.67772 7.08597 7.04127 5.73548 8.6791 4.79707C10.3169 3.85867 12.172 3.36503 14.0598 3.36524Z" fill="#FFC780"/>
<path fill-rule="evenodd" clip-rule="evenodd" d="M23.2939 8.54594C22.548 8.53531 21.8073 8.67299 21.115 8.95096C20.4227 9.22894 19.7926 9.64166 19.2613 10.1652C18.73 10.6887 18.3081 11.3124 18.0202 12.0003C17.7321 12.6882 17.5839 13.4264 17.5839 14.1721C17.5839 14.9177 17.7321 15.656 18.0202 16.3438C18.3081 17.0317 18.73 17.6555 19.2613 18.179C19.7926 18.7025 20.4227 19.1152 21.115 19.3932C21.8073 19.6711 22.548 19.8088 23.2939 19.7982L23.2608 19.853C22.1615 20.8493 20.7962 21.5047 19.3309 21.7395C17.8657 21.9744 16.3637 21.7785 15.0079 21.1756C13.6521 20.5728 12.5008 19.589 11.6942 18.3441C10.8876 17.0992 10.4605 15.6468 10.4649 14.1637C10.4692 12.6805 10.9048 11.2307 11.7187 9.99052C12.5326 8.75035 13.6896 7.77337 15.049 7.17848C16.4083 6.5836 17.9114 6.39646 19.3752 6.63985C20.839 6.88324 22.2005 7.54666 23.2939 8.54936V8.54594Z" fill="url(#paint1_linear_1317_2900)"/>
<defs>
<linearGradient id="paint0_linear_1317_2900" x1="14" y1="0" x2="14" y2="28" gradientUnits="userSpaceOnUse">
<stop stop-color="#1D100B"/>
<stop offset="1" stop-color="#513662"/>
</linearGradient>
<linearGradient id="paint1_linear_1317_2900" x1="16.8769" y1="21.8363" x2="16.8769" y2="6.53183" gradientUnits="userSpaceOnUse">
<stop stop-color="#FFC780"/>
<stop offset="1" stop-color="#964B48"/>
</linearGradient>
</defs>
</svg>
