<svg width="181" height="40" viewBox="0 0 181 40" fill="none" xmlns="http://www.w3.org/2000/svg">
<g clip-path="url(#clip0_1009_1246)">
<path d="M24.9725 1.33058C13.8773 5.59953 12.8609 16.5323 9.67946 21.6381C6.46032 26.8046 -0.914576 29.6552 0.0939206 32.2881C1.10241 34.9209 8.48609 32.0931 14.3276 33.7731C20.1 35.4329 28.1539 42.8764 39.249 38.6076C44.9013 36.4332 48.9942 31.957 50.876 26.6553C51.0786 26.0862 50.7002 25.4776 50.0998 25.4214C49.7265 25.3863 49.3683 25.5821 49.2 25.9176C47.4977 29.3162 44.5773 32.1151 40.7553 33.5852C34.4458 36.0125 27.5423 34.1068 23.3024 29.3268C22.3395 28.2413 21.5159 27.0057 20.8658 25.6401C20.687 25.2642 20.517 24.8822 20.3663 24.487C20.2148 24.0918 20.0859 23.694 19.9677 23.2944C23.3025 21.7365 27.1507 20.0863 31.5132 18.4081C35.7908 16.7623 39.6836 15.4275 43.1499 14.3596C45.4948 13.6377 47.644 13.037 49.5845 12.5461C49.7247 12.511 49.8634 12.4758 50.0007 12.4416C50.2944 12.3687 50.5957 12.5259 50.7045 12.8087L50.7063 12.8139C50.7701 12.9817 50.8252 13.1503 50.885 13.3189C51.2688 14.407 51.556 15.5065 51.7463 16.6086C51.8295 17.0908 52.3553 17.3534 52.7863 17.1215C54.3791 16.2644 55.8364 15.4284 57.1384 14.6239C61.9899 11.6293 64.6796 9.08948 64.1276 7.65013C63.5766 6.20987 59.8825 6.12732 54.2775 7.15481C52.4962 7.48151 50.5214 7.92061 48.3932 8.46422C48.0252 8.55816 47.6526 8.65564 47.276 8.75578C45.485 9.23175 43.596 9.77712 41.6288 10.3875C37.9708 11.523 34.0463 12.8833 29.9948 14.4421C26.2044 15.9008 22.612 17.4131 19.3175 18.9201C19.2772 12.5241 23.1351 6.47773 29.4445 4.05038C33.2656 2.58026 37.3049 2.70057 40.8393 4.08548C41.1881 4.22249 41.5852 4.12764 41.84 3.85103C42.2483 3.40752 42.1229 2.70145 41.5928 2.4134C36.6548 -0.262482 30.6248 -0.843852 24.9725 1.33058Z" fill="black"/>
<path d="M89.8253 28.1779H78.7071V21.4059H89.2271C89.5636 21.4059 89.7881 21.1789 89.7881 20.8384V17.3957C89.7881 17.0552 89.5636 16.8282 89.2271 16.8282H78.7071V10.8507H89.7881C90.1247 10.8507 90.3492 10.6237 90.3492 10.2832V6.84044C90.3492 6.49994 90.1247 6.27295 89.7881 6.27295H74.1431C73.8065 6.27295 73.582 6.49994 73.582 6.84044V32.1881C73.582 32.5286 73.8065 32.7556 74.1431 32.7556H89.8253C90.1622 32.7556 91.3348 32.5286 91.3348 32.1881V28.7453C91.3348 28.4049 90.1622 28.1779 89.8253 28.1779Z" fill="black"/>
<path d="M106.146 14.6718L101.695 26.9294L97.206 14.6718C97.0939 14.3691 96.8319 14.2178 96.5328 14.2178H92.6798C92.2683 14.2178 92.0813 14.4448 92.2308 14.8609L99.1141 32.3016C99.2261 32.6043 99.4881 32.7556 99.7872 32.7556H103.603C103.902 32.7556 104.164 32.6043 104.276 32.3016L111.122 14.8609C111.271 14.4448 111.084 14.2178 110.673 14.2178H106.82C106.521 14.2178 106.259 14.3691 106.146 14.6718Z" fill="black"/>
<path d="M136.512 13.8018C133.52 13.8018 131.35 15.2394 130.041 17.2445C128.881 15.0124 126.824 13.8018 124.392 13.8018C121.736 13.8018 119.791 15.2772 118.594 17.2445V17.2067L118.444 14.7854C118.407 14.4449 118.22 14.2179 117.883 14.2179H114.217C113.881 14.2179 113.656 14.4449 113.656 14.7854V32.1882C113.656 32.5288 113.881 32.7557 114.217 32.7557H118.033C118.37 32.7557 118.594 32.5288 118.594 32.1882V22.0492C118.594 21.1791 119.866 18.4173 122.634 18.4173C124.43 18.4173 126.076 19.4766 126.076 22.541V32.1882C126.076 32.5288 126.3 32.7557 126.637 32.7557H130.452C130.789 32.7557 131.013 32.5288 131.013 32.1882V21.9735C131.013 20.6494 132.285 18.4173 135.053 18.4173C136.812 18.4173 138.457 19.4766 138.457 22.541V32.1882C138.457 32.5288 138.682 32.7557 139.018 32.7557H142.834C143.17 32.7557 143.395 32.5288 143.395 32.1882V21.633C143.395 16.677 140.515 13.8018 136.512 13.8018Z" fill="black"/>
<path d="M155.068 33.2476C160.342 33.2476 164.569 28.9725 164.569 23.5247C164.569 18.0768 160.342 13.8018 155.068 13.8018C149.793 13.8018 145.566 18.0768 145.566 23.5247C145.566 28.9725 149.793 33.2476 155.068 33.2476ZM155.068 28.632C152.412 28.632 150.317 26.5134 150.317 23.5247C150.317 20.5359 152.412 18.4173 155.068 18.4173C157.686 18.4173 159.819 20.5359 159.819 23.5247C159.819 26.5134 157.686 28.632 155.068 28.632Z" fill="black"/>
<path d="M171.475 19.4009C171.475 18.4551 172.335 17.812 173.495 17.812C174.804 17.812 175.665 18.3038 177.086 19.2496C177.423 19.5144 177.685 19.5901 177.909 19.2875L179.33 17.3958C179.517 17.1688 179.592 16.8662 179.368 16.6014C177.834 14.7854 175.44 13.8018 173.084 13.8018C169.792 13.8018 166.724 15.8825 166.724 19.4388C166.724 25.6811 175.59 24.5461 175.59 27.497C175.59 28.6699 174.43 29.0482 173.233 29.0482C171.774 29.0482 170.166 28.3294 168.67 27.3457C168.333 27.0809 168.071 27.0052 167.846 27.3079L166.388 29.3887C166.238 29.6157 166.163 29.8805 166.388 30.1453C167.697 31.6964 170.241 33.2476 173.383 33.2476C176.75 33.2476 180.378 31.1668 180.378 27.5727C180.378 20.7629 171.475 22.4275 171.475 19.4009Z" fill="black"/>
</g>
<defs>
<clipPath id="clip0_1009_1246">
<rect width="180.541" height="40" fill="white"/>
</clipPath>
</defs>
</svg>
