<svg width="332" height="45" viewBox="0 0 332 45" fill="none" xmlns="http://www.w3.org/2000/svg">
  <g clip-path="url(#clip0_1608_19915)">
  <path d="M61.3019 19.6731V25.7759H69.8829V31.4489H61.3019V38.0675H72.3464V43.9554H54.0098V13.7852H72.3464V19.6731H61.3019Z" fill="white"/>
  <path d="M96.7478 43.7718L91.1137 32.3827H88.1808V43.7718H80.8887V13.6016H93.1274C95.4873 13.6016 97.4917 14.017 99.1404 14.8479C100.818 15.6788 102.069 16.8249 102.893 18.2861C103.717 19.7187 104.129 21.3232 104.129 23.0996C104.129 25.1052 103.561 26.896 102.424 28.4718C101.315 30.0476 99.6663 31.165 97.4772 31.8241L104.386 43.7718H96.7478ZM88.1808 27.1825H92.7014C94.0374 27.1825 95.0323 26.853 95.6861 26.194C96.3684 25.535 96.7095 24.6038 96.7095 23.4004C96.7095 22.2544 96.3684 21.3518 95.6861 20.6928C95.0323 20.0339 94.0374 19.7044 92.7014 19.7044H88.1808V27.1825Z" fill="white"/>
  <path d="M122.553 44.2563C120.364 44.2563 118.402 43.8982 116.668 43.1819C114.934 42.4656 113.541 41.4055 112.489 40.0015C111.466 38.5976 110.926 36.9071 110.869 34.9302H118.63C118.744 36.0476 119.128 36.9071 119.781 37.5089C120.435 38.0819 121.288 38.3684 122.34 38.3684C123.421 38.3684 124.273 38.1249 124.899 37.6378C125.524 37.1221 125.837 36.4201 125.837 35.5319C125.837 34.7869 125.581 34.1709 125.069 33.6838C124.586 33.1968 123.975 32.7957 123.236 32.4805C122.525 32.1653 121.502 31.8071 120.165 31.4061C118.232 30.8043 116.654 30.2027 115.432 29.601C114.21 28.9993 113.158 28.1111 112.276 26.9364C111.395 25.7617 110.954 24.2288 110.954 22.3378C110.954 19.5299 111.963 17.338 113.982 15.7622C116.001 14.1577 118.63 13.3555 121.871 13.3555C125.169 13.3555 127.827 14.1577 129.846 15.7622C131.864 17.338 132.944 19.5443 133.087 22.3808H125.197C125.141 21.4066 124.785 20.6473 124.131 20.1029C123.477 19.5299 122.639 19.2434 121.615 19.2434C120.734 19.2434 120.023 19.4869 119.483 19.974C118.943 20.4324 118.673 21.1057 118.673 21.994C118.673 22.9681 119.128 23.7274 120.037 24.2718C120.947 24.8161 122.369 25.4035 124.302 26.0338C126.235 26.6928 127.799 27.3232 128.992 27.9248C130.215 28.5266 131.267 29.4004 132.148 30.5465C133.03 31.6926 133.47 33.1681 133.47 34.9732C133.47 36.6923 133.03 38.2538 132.148 39.6577C131.295 41.0617 130.044 42.1791 128.396 43.01C126.747 43.8409 124.799 44.2563 122.553 44.2563Z" fill="white"/>
  <path d="M148.661 13.7852V43.9554H141.369V13.7852H148.661Z" fill="white"/>
  <path d="M168.189 44.2563C166 44.2563 164.038 43.8982 162.304 43.1819C160.569 42.4656 159.177 41.4055 158.125 40.0015C157.101 38.5976 156.561 36.9071 156.504 34.9302H164.266C164.379 36.0476 164.763 36.9071 165.417 37.5089C166.071 38.0819 166.924 38.3684 167.975 38.3684C169.056 38.3684 169.908 38.1249 170.534 37.6378C171.16 37.1221 171.472 36.4201 171.472 35.5319C171.472 34.7869 171.216 34.1709 170.705 33.6838C170.221 33.1968 169.61 32.7957 168.871 32.4805C168.16 32.1653 167.137 31.8071 165.8 31.4061C163.867 30.8043 162.29 30.2027 161.067 29.601C159.845 28.9993 158.792 28.1111 157.911 26.9364C157.03 25.7617 156.589 24.2288 156.589 22.3378C156.589 19.5299 157.599 17.338 159.617 15.7622C161.636 14.1577 164.265 13.3555 167.506 13.3555C170.804 13.3555 173.462 14.1577 175.481 15.7622C177.499 17.338 178.579 19.5443 178.722 22.3808H170.832C170.775 21.4066 170.42 20.6473 169.767 20.1029C169.113 19.5299 168.274 19.2434 167.25 19.2434C166.369 19.2434 165.658 19.4869 165.118 19.974C164.578 20.4324 164.308 21.1057 164.308 21.994C164.308 22.9681 164.763 23.7274 165.672 24.2718C166.582 24.8161 168.004 25.4035 169.937 26.0338C171.87 26.6928 173.434 27.3232 174.628 27.9248C175.85 28.5266 176.902 29.4004 177.783 30.5465C178.665 31.6926 179.105 33.1681 179.105 34.9732C179.105 36.6923 178.665 38.2538 177.783 39.6577C176.931 41.0617 175.68 42.1791 174.031 43.01C172.382 43.8409 170.434 44.2563 168.189 44.2563Z" fill="white"/>
  <path d="M208.541 13.7852V19.6731H200.609V43.9554H193.317V19.6731H185.385V13.7852H208.541Z" fill="white"/>
  <path d="M222.903 19.6731V25.7759H231.484V31.4489H222.903V38.0675H233.948V43.9554H215.611V13.7852H233.948V19.6731H222.903Z" fill="white"/>
  <path d="M268.874 43.9554H261.582L249.386 25.3461V43.9554H242.094V13.7852H249.386L261.582 32.4804V13.7852H268.874V43.9554Z" fill="white"/>
  <path d="M276.336 28.8273C276.336 25.8476 276.976 23.1973 278.255 20.8765C279.534 18.5271 281.311 16.7077 283.586 15.4184C285.888 14.1004 288.49 13.4414 291.389 13.4414C294.943 13.4414 297.985 14.3869 300.515 16.2779C303.046 18.1689 304.737 20.7476 305.59 24.0138H297.573C296.976 22.7532 296.123 21.7933 295.014 21.1344C293.934 20.4754 292.697 20.1459 291.304 20.1459C289.058 20.1459 287.239 20.9338 285.846 22.5096C284.453 24.0855 283.756 26.1914 283.756 28.8273C283.756 31.4633 284.453 33.5692 285.846 35.1451C287.239 36.7209 289.058 37.5088 291.304 37.5088C292.697 37.5088 293.934 37.1793 295.014 36.5203C296.123 35.8614 296.976 34.9015 297.573 33.6408H305.59C304.737 36.9072 303.046 39.4858 300.515 41.3768C297.985 43.2391 294.943 44.1703 291.389 44.1703C288.49 44.1703 285.888 43.5257 283.586 42.2363C281.311 40.9184 279.534 39.099 278.255 36.7782C276.976 34.4574 276.336 31.8071 276.336 28.8273Z" fill="white"/>
  <path d="M320.759 19.6731V25.7759H329.34V31.4489H320.759V38.0675H331.804V43.9554H313.467V13.7852H331.804V19.6731H320.759Z" fill="white"/>
  <path d="M41.2979 0.265625H2.82456C1.39512 0.265625 0.236328 1.43348 0.236328 2.87411V41.6466C0.236328 43.0872 1.39512 44.2551 2.82456 44.2551H41.2979C42.7274 44.2551 43.8861 43.0872 43.8861 41.6466V2.87411C43.8861 1.43348 42.7274 0.265625 41.2979 0.265625Z" fill="white"/>
  <path d="M33.5767 23.6191C33.5767 25.3833 33.175 27.0029 32.3714 28.478C31.5679 29.9241 30.3339 31.0954 28.6694 31.992C27.005 32.8886 24.9388 33.3369 22.4708 33.3369H17.9078V44.2695H10.5469V13.8145H22.4708C24.8814 13.8145 26.9189 14.2338 28.5834 15.0726C30.2478 15.9113 31.4962 17.0682 32.3284 18.5432C33.1606 20.0183 33.5767 21.7102 33.5767 23.6191ZM21.9111 27.4368C23.3173 27.4368 24.3648 27.1042 25.0535 26.439C25.7423 25.7738 26.0866 24.8338 26.0866 23.6191C26.0866 22.4043 25.7423 21.4643 25.0535 20.7991C24.3648 20.1339 23.3173 19.8013 21.9111 19.8013H17.9078V27.4368H21.9111Z" fill="black"/>
  <path d="M33.5767 6.09961H10.5469V11.0009H33.5767V6.09961Z" fill="#E50913"/>
  </g>
  <defs>
  <clipPath id="clip0_1608_19915">
  <rect width="331.812" height="44.3442" fill="white"/>
  </clipPath>
  </defs>
  </svg>
  