<svg width="161" height="45" viewBox="0 0 161 45" fill="none" xmlns="http://www.w3.org/2000/svg">
<g clip-path="url(#clip0_1367_26167)">
<path d="M63.7676 13.8586C64.8126 13.5469 65.9981 13.2597 67.3242 12.9969C68.6809 12.7097 70.1537 12.5691 71.7426 12.5691C74.1442 12.5691 75.9042 13.1558 77.0226 14.3291C78.147 15.5025 78.7031 17.0791 78.7031 19.0591C78.7031 19.6091 78.6481 20.1958 78.5442 20.8191C78.4648 21.418 78.3609 22.0475 78.2326 22.6952L75.6537 33.4508H70.9237L73.3498 23.2025C73.4781 22.628 73.6126 22.0414 73.7409 21.4425C73.8692 20.8436 73.9487 20.2691 73.9731 19.7191C73.9976 18.8086 73.7776 18.0508 73.307 17.4519C72.8609 16.853 71.9748 16.5536 70.6487 16.5536C69.5303 16.5536 68.5648 16.6697 67.752 16.908L63.8042 33.4508H59.0742L63.7676 13.8586ZM88.3464 34.0008C85.9203 34.0008 84.0687 33.2858 82.7914 31.8497C81.5142 30.4136 80.8726 28.5252 80.8726 26.1786C80.8726 24.6691 81.1048 23.1047 81.5753 21.4852C82.0459 19.8658 82.7609 18.393 83.7264 17.0669C84.692 15.7347 85.902 14.6408 87.3626 13.7791C88.8231 12.9175 90.5403 12.4897 92.5264 12.4897C94.9526 12.4897 96.8042 13.2047 98.0814 14.6408C99.3587 16.0464 100 17.9286 100 20.2752C100 21.8152 99.7681 23.3919 99.2976 25.0052C98.8514 26.6247 98.1487 28.0975 97.1831 29.4236C96.242 30.7558 95.032 31.8497 93.547 32.7114C92.0864 33.573 90.3509 34.0008 88.3464 34.0008ZM91.9459 16.4802C90.9314 16.4802 90.0148 16.7797 89.2081 17.3786C88.4259 17.953 87.7598 18.6925 87.2159 19.6091C86.6964 20.5197 86.2931 21.528 86.0059 22.6219C85.7187 23.6914 85.5781 24.7364 85.5781 25.7508C85.5781 27.0525 85.8225 28.0852 86.3237 28.843C86.8187 29.6008 87.6926 29.9797 88.9453 29.9797C89.9598 29.9797 90.8642 29.6925 91.6464 29.118C92.4531 28.5191 93.1192 27.7736 93.6387 26.8875C94.1887 25.9769 94.6042 24.9686 94.8914 23.8747C95.1787 22.7808 95.3192 21.7358 95.3192 20.7458C95.3192 19.4441 95.0687 18.4114 94.5737 17.6536C94.0787 16.8714 93.2048 16.4802 91.952 16.4802H91.9459ZM105.494 13.8586C106.539 13.5469 107.713 13.2597 109.014 12.9969C110.316 12.7097 111.752 12.5691 113.316 12.5691C114.49 12.5691 115.468 12.7402 116.25 13.0764C117.056 13.4125 117.735 13.8952 118.285 14.5247C119.043 14.0786 119.953 13.6508 121.023 13.2352C122.116 12.7891 123.357 12.5691 124.738 12.5691C125.936 12.5691 126.956 12.7402 127.788 13.0764C128.619 13.4125 129.297 13.883 129.823 14.4819C130.342 15.0808 130.721 15.7958 130.959 16.633C131.191 17.4397 131.314 18.3258 131.314 19.2914C131.314 20.3608 131.167 21.4975 130.886 22.6952L128.307 33.4508H123.577L126.003 23.2025C126.131 22.7075 126.248 22.1697 126.358 21.6014C126.486 21.0025 126.553 20.4036 126.553 19.8047C126.553 19.3891 126.498 18.9858 126.394 18.5947C126.315 18.1791 126.162 17.8247 125.924 17.5375C125.691 17.2502 125.361 17.018 124.946 16.8347C124.555 16.6514 124.048 16.5597 123.418 16.5597C122.74 16.5597 122.074 16.688 121.426 16.9508C120.772 17.2136 120.228 17.4825 119.782 17.7697C119.886 18.2647 119.941 18.8025 119.941 19.3708C119.941 19.8902 119.904 20.4402 119.825 21.0147C119.745 21.5891 119.641 22.1514 119.513 22.6952L116.934 33.4508H112.204L114.63 23.2025C114.759 22.7319 114.875 22.2002 114.985 21.6014C115.113 20.978 115.18 20.3608 115.18 19.7619C115.18 18.9002 114.973 18.1608 114.557 17.5314C114.166 16.8775 113.408 16.5536 112.29 16.5536C111.77 16.5536 111.275 16.5902 110.805 16.6697C110.334 16.7247 109.906 16.798 109.515 16.9019L105.568 33.4447H100.838L105.531 13.8525H105.494V13.8586ZM137.248 33.4569H132.554L137.443 13.003H142.173L137.248 33.4569ZM140.768 9.9108C140.065 9.9108 139.454 9.70303 138.928 9.28747C138.409 8.87191 138.146 8.24247 138.146 7.41136C138.146 6.4458 138.47 5.65136 139.124 5.02803C139.802 4.40469 140.572 4.08691 141.434 4.08691C142.136 4.08691 142.748 4.30691 143.273 4.75303C143.823 5.16858 144.092 5.79803 144.092 6.62914C144.092 7.59469 143.75 8.38914 143.078 9.01247C142.399 9.61136 141.629 9.9108 140.768 9.9108ZM142.937 25.7141C142.937 23.9419 143.212 22.2614 143.756 20.6664C144.33 19.0469 145.137 17.6414 146.182 16.4436C147.227 15.2152 148.504 14.2558 150.014 13.5469C151.523 12.838 153.246 12.4897 155.178 12.4897C156.192 12.4897 157.121 12.5814 157.952 12.7647C158.814 12.9236 159.62 13.168 160.378 13.5102L158.698 17.3052C158.227 17.0975 157.708 16.9141 157.133 16.7552C156.559 16.5964 155.856 16.523 155.019 16.523C153.894 16.523 152.88 16.7552 151.969 17.2258C151.083 17.6719 150.325 18.283 149.702 19.0652C149.079 19.8475 148.596 20.7702 148.254 21.8397C147.918 22.9091 147.746 24.0458 147.746 25.2436C147.746 25.9219 147.814 26.5452 147.942 27.1197C148.101 27.6697 148.333 28.1647 148.645 28.6047C148.987 29.0202 149.439 29.3502 150.014 29.5825C150.588 29.8147 151.303 29.9369 152.165 29.9369C153.026 29.9369 153.9 29.8208 154.707 29.5825C155.538 29.3502 156.18 29.1119 156.626 28.8797L157.017 32.7541C156.418 33.0414 155.624 33.3164 154.634 33.573C153.644 33.8602 152.519 34.0008 151.273 34.0008C149.836 34.0008 148.602 33.793 147.557 33.3775C146.512 32.9314 145.638 32.3447 144.935 31.6175C144.255 30.855 143.736 29.9634 143.408 28.9958C143.096 27.9814 142.937 26.8814 142.937 25.708V25.7141Z" fill="white"/>
<path d="M41.2488 11.873C38.3154 12.808 35.4371 13.908 32.6321 15.1853C16.6515 22.4025 5.9632 33.3475 8.75598 39.6175C9.32431 40.803 10.2654 41.7564 11.4388 42.3369C15.2399 44.2619 19.5604 44.8975 23.7526 44.1458C27.9449 43.3942 31.7826 41.298 34.6915 38.1692C37.6059 35.0319 39.4336 31.0403 39.9043 26.7842C40.3749 22.5247 39.4704 18.2225 37.3132 14.5192L41.2426 11.873H41.2488Z" fill="url(#paint0_linear_1367_26167)"/>
<path d="M36.0184 12.4167C33.1052 8.34685 28.7612 5.52869 23.8573 4.52725C18.9454 3.51681 13.8331 4.39395 9.53899 6.98392C5.25732 9.55753 2.1138 13.6622 0.745098 18.4667C-0.616825 23.2616 -0.0988524 28.3955 2.19343 32.8217C5.93954 27.395 14.2445 21.18 24.7984 16.4806C28.4284 14.855 32.1807 13.4984 36.0184 12.4228V12.4167Z" fill="url(#paint1_linear_1367_26167)"/>
<path d="M53.7337 10.5405C48.1237 9.56274 47.3476 9.96607 44.9031 15.1116C45.8809 9.50163 45.4776 8.71941 40.332 6.28107C45.942 7.25885 46.7181 6.85552 49.1626 1.70996C48.1848 7.31996 48.5881 8.09607 53.7337 10.5405Z" fill="#4A13E5"/>
</g>
<defs>
<linearGradient id="paint0_linear_1367_26167" x1="13.5104" y1="32.4553" x2="64.0126" y2="20.6669" gradientUnits="userSpaceOnUse">
<stop stop-color="#2810B3"/>
<stop offset="1" stop-color="#8A76FF"/>
</linearGradient>
<linearGradient id="paint1_linear_1367_26167" x1="26.2834" y1="7.46058" x2="-16.2743" y2="34.6306" gradientUnits="userSpaceOnUse">
<stop stop-color="#6000FF"/>
<stop offset="1" stop-color="#7472C9"/>
</linearGradient>
<clipPath id="clip0_1367_26167">
<rect width="160.38" height="44" fill="white" transform="translate(0 0.451172)"/>
</clipPath>
</defs>
</svg>
