<svg width="151" height="40" viewBox="0 0 151 40" fill="none" xmlns="http://www.w3.org/2000/svg">
<path fill-rule="evenodd" clip-rule="evenodd" d="M0 39.1537V0H24.1871V6.19159H6.63698V16.5702H22.539V22.5835H6.63698V32.9621H24.1871V39.1537H0ZM42.4499 39.1537H36.0357L25.1225 12.2494H32.2049L39.3319 31.4476L46.2806 12.2494H53.0067L42.4499 39.1537ZM55.9913 12.2495V39.1537H62.3611V23.2072C62.3611 19.7773 64.4992 17.2383 67.929 17.2383C71.5815 17.2383 73.1405 19.6882 73.1405 22.7617V39.1537H79.4211V23.2072C79.4211 19.9109 81.6038 17.2383 84.9891 17.2383C88.5971 17.2383 90.2006 19.5991 90.2006 22.7617V39.1537H96.3922V21.6926C96.3922 14.5657 91.7597 11.4922 86.9044 11.4922C83.4301 11.4922 80.2674 12.7394 78.1739 16.2583C76.7485 13.0957 73.6305 11.4922 70.1116 11.4922C67.0381 11.4922 63.6973 12.9176 62.1383 15.6793V12.2495H55.9913ZM127.261 25.7016C127.261 33.9866 121.336 40 113.274 40C105.256 40 99.3764 33.9866 99.3764 25.7016C99.3764 17.461 105.301 11.4477 113.274 11.4477C121.336 11.4477 127.261 17.461 127.261 25.7016ZM120.802 25.7016C120.802 20.1336 117.283 17.2383 113.274 17.2383C109.354 17.2383 105.746 20.0891 105.746 25.7016C105.746 31.314 109.354 34.2539 113.274 34.2539C117.238 34.2539 120.802 31.3141 120.802 25.7016ZM139.911 34.9221C136.481 34.9221 134.655 32.784 134.432 30.3341L128.909 31.8931C129.221 34.922 132.205 40 140 40C146.86 40 150.156 35.5011 150.156 31.4031C150.156 27.4388 147.483 24.3653 142.406 23.2517L138.308 22.4053C136.659 22.0935 135.59 21.0245 135.59 19.5991C135.59 17.951 137.194 16.5256 139.466 16.5256C143.074 16.5256 144.232 18.9755 144.454 20.5345L149.844 18.9755C149.399 16.3029 146.993 11.4476 139.466 11.4476C133.898 11.4476 129.577 15.4565 129.577 20.1336C129.577 23.8307 132.027 26.9042 136.793 27.9733L140.757 28.8641C142.94 29.3096 143.92 30.4232 143.92 31.8485C143.92 33.4967 142.584 34.9221 139.911 34.9221Z" fill="black"/>
</svg>
