<svg width="143" height="45" viewBox="0 0 143 45" fill="none" xmlns="http://www.w3.org/2000/svg">
<path d="M72.1813 32.3314C72.2761 32.3299 72.3703 32.3478 72.458 32.3842C72.5457 32.4206 72.6251 32.4746 72.6914 32.543C72.7666 32.6189 72.8248 32.71 72.8623 32.8104C72.8999 32.9107 72.9157 33.0179 72.909 33.1249V34.8556C72.9123 35.0481 72.8425 35.2346 72.7139 35.3771C72.6454 35.4493 72.5626 35.5061 72.4708 35.5439C72.379 35.5816 72.2804 35.5995 72.1813 35.5962H57.9881C57.8858 35.6133 57.7809 35.6054 57.6822 35.5735C57.5834 35.5415 57.4937 35.4863 57.4204 35.4124C57.347 35.3386 57.2922 35.2481 57.2605 35.1487C57.2288 35.0492 57.221 34.9436 57.2379 34.8405V11.3666C57.2379 11.1662 57.317 10.974 57.4576 10.8322C57.5983 10.6905 57.7891 10.6109 57.9881 10.6109H59.7735C59.9651 10.6015 60.153 10.6664 60.2986 10.7923C60.3723 10.8642 60.4293 10.9516 60.4656 11.0483C60.5019 11.1449 60.5166 11.2485 60.5087 11.3515V32.3314H72.1813Z" fill="white"/>
<path d="M93.8087 32.7546C92.8523 33.7365 91.7195 34.5264 90.4704 35.0823C89.1699 35.655 87.7637 35.9435 86.3445 35.9288C85.3709 35.9324 84.4015 35.8001 83.4638 35.5358C82.5497 35.2737 81.6724 34.8953 80.8533 34.4097C80.0366 33.9234 79.281 33.3398 78.6027 32.6715C77.9357 31.9914 77.3561 31.2297 76.8774 30.4042C76.394 29.5743 76.0183 28.6853 75.7596 27.759C75.2396 25.8495 75.2396 23.8341 75.7596 21.9246C76.017 21.0026 76.3928 20.1185 76.8774 19.2946C77.3576 18.4701 77.9371 17.7086 78.6027 17.0273C79.9422 15.6774 81.603 14.6964 83.4263 14.1781C84.3664 13.9133 85.3384 13.781 86.3145 13.7851C87.7337 13.7704 89.1399 14.0589 90.4404 14.6315C91.6895 15.1874 92.8223 15.9774 93.7787 16.9593V14.9641C93.76 14.8607 93.7665 14.7543 93.7976 14.654C93.8287 14.5537 93.8835 14.4625 93.9572 14.3882C94.031 14.3139 94.1215 14.2587 94.2211 14.2274C94.3206 14.196 94.4262 14.1895 94.5288 14.2083H96.2467C96.7718 14.2083 96.9969 14.4577 96.9969 14.9641V34.8556C97.0016 34.9549 96.9852 35.0541 96.949 35.1466C96.9128 35.2391 96.8575 35.3228 96.7869 35.3922C96.6466 35.5245 96.4613 35.5975 96.2692 35.5963H94.5288C94.4264 35.5999 94.3242 35.5823 94.2287 35.5446C94.1333 35.5069 94.0465 35.4499 93.9737 35.3771C93.8397 35.237 93.7644 35.0502 93.7637 34.8556L93.8087 32.7546ZM93.9737 24.8645C93.9765 23.8265 93.7725 22.7985 93.3736 21.8415C92.6072 19.9601 91.155 18.4457 89.3152 17.6092C88.3843 17.1852 87.3736 16.9687 86.352 16.9744C85.3376 16.9679 84.334 17.1845 83.4113 17.6092C81.5839 18.4487 80.147 19.9641 79.3979 21.8415C79.0038 22.7999 78.8009 23.8271 78.8009 24.8645C78.8009 25.9019 79.0038 26.9291 79.3979 27.8875C79.7758 28.8313 80.3225 29.6971 81.0108 30.442C81.6943 31.1734 82.5088 31.7683 83.4113 32.1953C84.3299 32.6348 85.3351 32.8596 86.352 32.8529C87.3759 32.8581 88.3882 32.6335 89.3152 32.1953C90.2257 31.7706 91.0479 31.1756 91.7382 30.442C92.4333 29.698 92.9876 28.8323 93.3736 27.8875C93.7726 26.9305 93.9767 25.9025 93.9737 24.8645Z" fill="white"/>
<path d="M104.161 14.8355C104.371 15.4023 104.649 16.1128 104.979 16.9743L106.066 19.7706L107.274 22.8768L108.475 25.8998L109.525 28.5299L110.275 30.4041C110.447 29.9431 110.695 29.3159 111.025 28.5299C111.355 27.7439 111.678 26.8596 112.045 25.8847L113.223 22.8617C113.638 21.7986 114.036 20.7632 114.416 19.7555C114.806 18.7504 115.166 17.8208 115.489 16.9592C115.811 16.0976 116.089 15.3797 116.299 14.8204C116.367 14.6424 116.481 14.4859 116.629 14.367C116.79 14.2493 116.986 14.1906 117.184 14.2007H119.037C119.525 14.2007 119.787 14.3972 119.787 14.7902C119.794 14.8277 119.794 14.866 119.787 14.9035C119.787 14.9489 119.787 15.0018 119.742 15.0547C119.716 15.1151 119.699 15.1786 119.69 15.2436L111.723 34.9689C111.723 35.0294 111.663 35.0898 111.633 35.1654C111.6 35.241 111.554 35.3102 111.498 35.3695C111.427 35.436 111.346 35.4897 111.258 35.5282C111.124 35.5791 110.981 35.6022 110.838 35.5962H109.735C109.594 35.6023 109.454 35.5791 109.322 35.5282C109.231 35.4897 109.148 35.436 109.075 35.3695C109.018 35.3119 108.974 35.2422 108.947 35.1654C108.921 35.097 108.888 35.0313 108.85 34.9689L100.823 15.3192C100.823 15.3192 100.823 15.2436 100.823 15.1983C100.796 15.0895 100.784 14.9778 100.785 14.8658C100.785 14.4728 101.04 14.2763 101.535 14.2763H103.283C103.481 14.2713 103.675 14.3295 103.838 14.4425C103.976 14.5455 104.086 14.6803 104.161 14.8355V14.8355Z" fill="white"/>
<path d="M139.119 32.7545C138.164 33.7381 137.031 34.5283 135.781 35.0822C134.483 35.6541 133.079 35.9425 131.662 35.9287C130.689 35.9323 129.719 35.8 128.782 35.5357C127.866 35.2764 126.989 34.8978 126.171 34.4096C125.353 33.9252 124.597 33.3414 123.92 32.6714C123.251 31.9915 122.669 31.2298 122.188 30.4041C121.703 29.5755 121.33 28.6861 121.077 27.7589C120.688 26.3454 120.585 24.8671 120.776 23.4127C120.967 21.9583 121.447 20.5576 122.188 19.2945C122.671 18.4698 123.253 17.7083 123.92 17.0272C125.278 15.6899 126.955 14.7269 128.789 14.2309C129.729 13.9653 130.701 13.833 131.677 13.8379C133.094 13.824 134.498 14.1125 135.796 14.6843C137.046 15.2383 138.179 16.0284 139.134 17.0121V14.964C139.117 14.8609 139.125 14.7552 139.157 14.6558C139.188 14.5563 139.243 14.4659 139.316 14.392C139.39 14.3181 139.479 14.2629 139.578 14.231C139.677 14.199 139.782 14.1912 139.884 14.2082H141.542C142.067 14.2082 142.33 14.4576 142.33 14.964V34.8555C142.333 34.9553 142.315 35.0547 142.278 35.1472C142.24 35.2396 142.184 35.3231 142.112 35.3921C141.972 35.5244 141.787 35.5974 141.594 35.5962H139.854C139.752 35.5998 139.649 35.5822 139.554 35.5445C139.458 35.5068 139.372 35.4498 139.299 35.377C139.165 35.2369 139.09 35.0501 139.089 34.8555L139.119 32.7545ZM139.291 24.8644C139.298 23.826 139.094 22.7973 138.691 21.8414C138.297 20.9223 137.737 20.0845 137.041 19.37C136.344 18.65 135.52 18.0681 134.61 17.6545C133.682 17.2306 132.674 17.014 131.655 17.0196C130.64 17.0131 129.637 17.2297 128.714 17.6545C127.814 18.0687 126.999 18.6508 126.314 19.37C125.621 20.0983 125.071 20.9523 124.693 21.8867C124.299 22.8451 124.096 23.8723 124.096 24.9097C124.096 25.9471 124.299 26.9744 124.693 27.9328C125.073 28.8771 125.623 29.743 126.314 30.4872C126.996 31.2203 127.81 31.8155 128.714 32.2406C129.633 32.6801 130.638 32.9048 131.655 32.8981C132.676 32.9035 133.686 32.6788 134.61 32.2406C135.528 31.7981 136.353 31.1823 137.041 30.4268C137.731 29.6806 138.283 28.8153 138.669 27.8723C139.077 26.9227 139.289 25.8992 139.291 24.8644V24.8644Z" fill="white"/>
<path d="M32.0172 44.0456H11.5976C8.57183 43.9681 5.69582 42.7027 3.58294 40.5193C1.47007 38.3358 0.287537 35.4072 0.287537 32.3578C0.287537 29.3085 1.47007 26.3798 3.58294 24.1964C5.69582 22.013 8.57183 20.7476 11.5976 20.67H32.0172C35.043 20.7476 37.919 22.013 40.0319 24.1964C42.1448 26.3798 43.3273 29.3085 43.3273 32.3578C43.3273 35.4072 42.1448 38.3358 40.0319 40.5193C37.919 42.7027 35.043 43.9681 32.0172 44.0456V44.0456ZM11.5976 23.4815C9.30538 23.5489 7.12944 24.5136 5.53171 26.1709C3.93398 27.8282 3.04025 30.0475 3.04025 32.3578C3.04025 34.6682 3.93398 36.8875 5.53171 38.5448C7.12944 40.2021 9.30538 41.1668 11.5976 41.2342H32.0172C34.3095 41.1668 36.4854 40.2021 38.0832 38.5448C39.6809 36.8875 40.5746 34.6682 40.5746 32.3578C40.5746 30.0475 39.6809 27.8282 38.0832 26.1709C36.4854 24.5136 34.3095 23.5489 32.0172 23.4815H11.5976Z" fill="url(#paint0_linear_401_1722)"/>
<path style="mix-blend-mode:multiply" d="M32.0172 44.0456H11.5976C8.57183 43.9681 5.69582 42.7027 3.58294 40.5193C1.47007 38.3358 0.287537 35.4072 0.287537 32.3578C0.287537 29.3085 1.47007 26.3798 3.58294 24.1964C5.69582 22.013 8.57183 20.7476 11.5976 20.67H32.0172C35.043 20.7476 37.919 22.013 40.0319 24.1964C42.1448 26.3798 43.3273 29.3085 43.3273 32.3578C43.3273 35.4072 42.1448 38.3358 40.0319 40.5193C37.919 42.7027 35.043 43.9681 32.0172 44.0456V44.0456ZM11.5976 23.4815C9.30538 23.5489 7.12944 24.5136 5.53171 26.1709C3.93398 27.8282 3.04025 30.0475 3.04025 32.3578C3.04025 34.6682 3.93398 36.8875 5.53171 38.5448C7.12944 40.2021 9.30538 41.1668 11.5976 41.2342H32.0172C34.3095 41.1668 36.4854 40.2021 38.0832 38.5448C39.6809 36.8875 40.5746 34.6682 40.5746 32.3578C40.5746 30.0475 39.6809 27.8282 38.0832 26.1709C36.4854 24.5136 34.3095 23.5489 32.0172 23.4815H11.5976Z" fill="url(#paint1_linear_401_1722)"/>
<path d="M20.4046 24.8871V32.3616C20.4046 34.7147 19.4767 36.9715 17.8251 38.6354C16.1735 40.2994 13.9334 41.2342 11.5976 41.2342C9.26186 41.2342 7.02177 40.2994 5.37014 38.6354C3.71851 36.9715 2.79063 34.7147 2.79063 32.3616V11.684C2.79063 9.33086 3.71851 7.07408 5.37014 5.41015C7.02177 3.74621 9.26186 2.81142 11.5976 2.81142C13.9334 2.81142 16.1735 3.74621 17.8251 5.41015C19.4767 7.07408 20.4046 9.33086 20.4046 11.684V19.2416H23.1952V11.684C23.1952 8.58523 21.9734 5.61335 19.7984 3.42217C17.6234 1.23099 14.6735 0 11.5976 0C8.52174 0 5.57184 1.23099 3.39686 3.42217C1.22189 5.61335 0 8.58523 0 11.684V32.3616C0 35.4604 1.22189 38.4322 3.39686 40.6234C5.57184 42.8146 8.52174 44.0456 11.5976 44.0456C14.6735 44.0456 17.6234 42.8146 19.7984 40.6234C21.9734 38.4322 23.1952 35.4604 23.1952 32.3616V24.8871H20.4046Z" fill="url(#paint2_linear_401_1722)"/>
<defs>
<linearGradient id="paint0_linear_401_1722" x1="6.1056e-06" y1="32.3616" x2="43.6074" y2="32.3616" gradientUnits="userSpaceOnUse">
<stop stop-color="#E2205C"/>
<stop offset="0.53" stop-color="#E6213C"/>
<stop offset="0.99" stop-color="#F07F3E"/>
</linearGradient>
<linearGradient id="paint1_linear_401_1722" x1="4.10343" y1="42.655" x2="39.6273" y2="22.2965" gradientUnits="userSpaceOnUse">
<stop offset="0.02" stop-color="#2A2A28"/>
<stop offset="0.08" stop-color="#1D1D1B" stop-opacity="0.5"/>
<stop offset="0.45" stop-color="white"/>
</linearGradient>
<linearGradient id="paint2_linear_401_1722" x1="11.5976" y1="44.0456" x2="11.5976" y2="0" gradientUnits="userSpaceOnUse">
<stop stop-color="#E2205C"/>
<stop offset="0.53" stop-color="#E6213C"/>
<stop offset="1" stop-color="#C7559A"/>
</linearGradient>
</defs>
</svg>
