<svg width="144" height="45" viewBox="0 0 144 45" fill="none" xmlns="http://www.w3.org/2000/svg">
<path d="M72.9231 32.9473C73.0179 32.9458 73.112 32.9638 73.1998 33.0002C73.2875 33.0366 73.3669 33.0906 73.4332 33.159C73.5083 33.2349 73.5666 33.326 73.6041 33.4263C73.6416 33.5267 73.6575 33.6339 73.6507 33.7409V35.4716C73.654 35.6641 73.5842 35.8506 73.4557 35.993C73.3872 36.0652 73.3043 36.1221 73.2126 36.1598C73.1208 36.1976 73.0221 36.2155 72.9231 36.2122H58.7299C58.6275 36.2292 58.5227 36.2214 58.4239 36.1894C58.3252 36.1575 58.2355 36.1023 58.1621 36.0284C58.0888 35.9545 58.034 35.8641 58.0023 35.7646C57.9705 35.6652 57.9628 35.5595 57.9797 35.4565V11.9826C57.9797 11.7822 58.0587 11.5899 58.1994 11.4482C58.3401 11.3065 58.5309 11.2268 58.7299 11.2268H60.5153C60.7069 11.2174 60.8948 11.2823 61.0404 11.4082C61.114 11.4802 61.1711 11.5676 61.2074 11.6642C61.2437 11.7609 61.2584 11.8644 61.2504 11.9675V32.9473H72.9231Z" fill="black"/>
<path d="M94.5504 33.3706C93.5941 34.3525 92.4612 35.1424 91.2122 35.6983C89.9117 36.2709 88.5055 36.5594 87.0863 36.5447C86.1126 36.5483 85.1432 36.4161 84.2056 36.1517C83.2915 35.8897 82.4142 35.5112 81.595 35.0257C80.7783 34.5393 80.0227 33.9557 79.3445 33.2874C78.6775 32.6074 78.0978 31.8456 77.6191 31.0201C77.1357 30.1902 76.7601 29.3013 76.5014 28.375C75.9814 26.4655 75.9814 24.4501 76.5014 22.5405C76.7588 21.6186 77.1345 20.7344 77.6191 19.9105C78.0994 19.0861 78.6789 18.3245 79.3445 17.6432C80.6839 16.2934 82.3448 15.3124 84.1681 14.794C85.1082 14.5292 86.0801 14.397 87.0562 14.401C88.4755 14.3863 89.8817 14.6748 91.1822 15.2475C92.4312 15.8034 93.5641 16.5933 94.5204 17.5752V15.58C94.5018 15.4766 94.5083 15.3702 94.5394 15.2699C94.5705 15.1696 94.6252 15.0784 94.699 15.0041C94.7727 14.9298 94.8633 14.8747 94.9628 14.8433C95.0624 14.812 95.168 14.8055 95.2706 14.8243H96.9885C97.5136 14.8243 97.7387 15.0737 97.7387 15.58V35.4716C97.7433 35.5709 97.727 35.6701 97.6908 35.7626C97.6546 35.8551 97.5993 35.9388 97.5286 36.0082C97.3884 36.1404 97.2031 36.2135 97.011 36.2122H95.2706C95.1681 36.2158 95.066 36.1983 94.9705 36.1606C94.875 36.1229 94.7882 36.0659 94.7155 35.993C94.5814 35.8529 94.5062 35.6662 94.5054 35.4716L94.5504 33.3706ZM94.7155 25.4804C94.7183 24.4425 94.5142 23.4145 94.1153 22.4574C93.349 20.5761 91.8968 19.0617 90.0569 18.2252C89.1261 17.8012 88.1153 17.5846 87.0938 17.5903C86.0794 17.5838 85.0758 17.8005 84.1531 18.2252C82.3257 19.0647 80.8887 20.58 80.1397 22.4574C79.7455 23.4158 79.5427 24.443 79.5427 25.4804C79.5427 26.5178 79.7455 27.5451 80.1397 28.5035C80.5176 29.4472 81.0643 30.3131 81.7526 31.0579C82.4361 31.7894 83.2505 32.3843 84.1531 32.8113C85.0717 33.2508 86.0769 33.4755 87.0938 33.4688C88.1177 33.4741 89.1299 33.2494 90.0569 32.8113C90.9675 32.3866 91.7897 31.7916 92.48 31.0579C93.1751 30.314 93.7293 29.4483 94.1153 28.5035C94.5144 27.5465 94.7185 26.5185 94.7155 25.4804Z" fill="black"/>
<path d="M104.903 15.4515C105.113 16.0183 105.39 16.7288 105.72 17.5903L106.808 20.3866L108.016 23.4928L109.216 26.5158L110.267 29.1459L111.017 31.0201C111.189 30.5591 111.437 29.9319 111.767 29.1459C112.097 28.3599 112.419 27.4756 112.787 26.5007L113.965 23.4777C114.38 22.4146 114.778 21.3792 115.158 20.3715C115.548 19.3664 115.908 18.4368 116.23 17.5752C116.553 16.7136 116.83 15.9957 117.041 15.4364C117.109 15.2584 117.223 15.1019 117.371 14.983C117.531 14.8653 117.727 14.8066 117.926 14.8167H119.779C120.266 14.8167 120.529 15.0132 120.529 15.4062C120.535 15.4437 120.535 15.482 120.529 15.5195C120.529 15.5649 120.529 15.6178 120.484 15.6707C120.458 15.7311 120.441 15.7946 120.431 15.8596L112.465 35.5849C112.465 35.6454 112.404 35.7058 112.374 35.7814C112.342 35.857 112.296 35.9262 112.239 35.9855C112.169 36.052 112.088 36.1057 111.999 36.1442C111.865 36.1951 111.722 36.2182 111.579 36.2122H110.477C110.336 36.2182 110.195 36.1951 110.064 36.1442C109.973 36.1057 109.89 36.052 109.816 35.9855C109.759 35.9279 109.716 35.8582 109.689 35.7814C109.662 35.713 109.63 35.6473 109.591 35.5849L101.565 15.9352C101.565 15.9352 101.565 15.8596 101.565 15.8143C101.538 15.7055 101.525 15.5938 101.527 15.4818C101.527 15.0888 101.782 14.8923 102.277 14.8923H104.025C104.223 14.8873 104.417 14.9455 104.58 15.0585C104.718 15.1615 104.828 15.2963 104.903 15.4515V15.4515Z" fill="black"/>
<path d="M139.861 33.3706C138.906 34.3542 137.773 35.1443 136.522 35.6983C135.224 36.2701 133.821 36.5586 132.404 36.5447C131.43 36.5483 130.461 36.4161 129.523 36.1518C128.608 35.8924 127.731 35.5139 126.913 35.0257C126.095 34.5412 125.339 33.9575 124.662 33.2874C123.993 32.6075 123.411 31.8459 122.929 31.0202C122.445 30.1916 122.072 29.3021 121.819 28.375C121.43 26.9614 121.327 25.4832 121.518 24.0287C121.709 22.5743 122.189 21.1736 122.929 19.9105C123.412 19.0859 123.994 18.3244 124.662 17.6432C126.02 16.306 127.697 15.343 129.531 14.8469C130.471 14.5813 131.443 14.4491 132.419 14.4539C133.836 14.4401 135.239 14.7286 136.537 15.3004C137.788 15.8543 138.921 16.6445 139.876 17.6281V15.58C139.859 15.4769 139.867 15.3713 139.898 15.2718C139.93 15.1724 139.985 15.0819 140.058 15.0081C140.131 14.9342 140.221 14.879 140.32 14.847C140.419 14.8151 140.524 14.8073 140.626 14.8243H142.284C142.809 14.8243 143.071 15.0737 143.071 15.58V35.4716C143.075 35.5714 143.057 35.6708 143.019 35.7632C142.982 35.8557 142.926 35.9392 142.854 36.0082C142.714 36.1404 142.528 36.2135 142.336 36.2122H140.596C140.493 36.2158 140.391 36.1983 140.296 36.1606C140.2 36.1229 140.113 36.0659 140.041 35.993C139.907 35.8529 139.831 35.6662 139.831 35.4716L139.861 33.3706ZM140.033 25.4804C140.04 24.4421 139.836 23.4134 139.433 22.4574C139.039 21.5384 138.479 20.7006 137.783 19.9861C137.086 19.266 136.262 18.6841 135.352 18.2705C134.424 17.8467 133.416 17.6301 132.397 17.6357C131.382 17.6292 130.379 17.8458 129.456 18.2705C128.555 18.6847 127.741 19.2668 127.055 19.9861C126.362 20.7144 125.812 21.5683 125.435 22.5028C125.041 23.4612 124.838 24.4884 124.838 25.5258C124.838 26.5632 125.041 27.5904 125.435 28.5488C125.815 29.4932 126.364 30.359 127.055 31.1033C127.737 31.8364 128.552 32.4315 129.456 32.8566C130.374 33.2961 131.38 33.5209 132.397 33.5142C133.418 33.5195 134.428 33.2949 135.352 32.8566C136.27 32.4141 137.095 31.7984 137.783 31.0428C138.473 30.2966 139.024 29.4313 139.411 28.4884C139.819 27.5388 140.031 26.5153 140.033 25.4804V25.4804Z" fill="black"/>
<path d="M32.759 44.6616H12.3394C9.31359 44.5841 6.43758 43.3186 4.3247 41.1352C2.21183 38.9518 1.0293 36.0231 1.0293 32.9738C1.0293 29.9245 2.21183 26.9958 4.3247 24.8123C6.43758 22.6289 9.31359 21.3635 12.3394 21.286H32.759C35.7848 21.3635 38.6608 22.6289 40.7737 24.8123C42.8866 26.9958 44.0691 29.9245 44.0691 32.9738C44.0691 36.0231 42.8866 38.9518 40.7737 41.1352C38.6608 43.3186 35.7848 44.5841 32.759 44.6616V44.6616ZM12.3394 24.0974C10.0471 24.1648 7.8712 25.1295 6.27347 26.7868C4.67574 28.4441 3.78201 30.6635 3.78201 32.9738C3.78201 35.2841 4.67574 37.5034 6.27347 39.1607C7.8712 40.818 10.0471 41.7828 12.3394 41.8502H32.759C35.0512 41.7828 37.2272 40.818 38.8249 39.1607C40.4226 37.5034 41.3164 35.2841 41.3164 32.9738C41.3164 30.6635 40.4226 28.4441 38.8249 26.7868C37.2272 25.1295 35.0512 24.1648 32.759 24.0974H12.3394Z" fill="url(#paint0_linear_1_6)"/>
<path style="mix-blend-mode:multiply" d="M32.759 44.6616H12.3394C9.31359 44.5841 6.43758 43.3186 4.3247 41.1352C2.21183 38.9518 1.0293 36.0231 1.0293 32.9738C1.0293 29.9245 2.21183 26.9958 4.3247 24.8123C6.43758 22.6289 9.31359 21.3635 12.3394 21.286H32.759C35.7848 21.3635 38.6608 22.6289 40.7737 24.8123C42.8866 26.9958 44.0691 29.9245 44.0691 32.9738C44.0691 36.0231 42.8866 38.9518 40.7737 41.1352C38.6608 43.3186 35.7848 44.5841 32.759 44.6616V44.6616ZM12.3394 24.0974C10.0471 24.1648 7.8712 25.1295 6.27347 26.7868C4.67574 28.4441 3.78201 30.6635 3.78201 32.9738C3.78201 35.2841 4.67574 37.5034 6.27347 39.1607C7.8712 40.818 10.0471 41.7828 12.3394 41.8502H32.759C35.0512 41.7828 37.2272 40.818 38.8249 39.1607C40.4226 37.5034 41.3164 35.2841 41.3164 32.9738C41.3164 30.6635 40.4226 28.4441 38.8249 26.7868C37.2272 25.1295 35.0512 24.1648 32.759 24.0974H12.3394Z" fill="url(#paint1_linear_1_6)"/>
<path d="M21.1464 25.5031V32.9776C21.1464 35.3307 20.2185 37.5875 18.5669 39.2514C16.9152 40.9154 14.6751 41.8502 12.3394 41.8502C10.0036 41.8502 7.76353 40.9154 6.1119 39.2514C4.46027 37.5875 3.53239 35.3307 3.53239 32.9776V12.3C3.53239 9.94686 4.46027 7.69008 6.1119 6.02614C7.76353 4.36221 10.0036 3.42742 12.3394 3.42742C14.6751 3.42742 16.9152 4.36221 18.5669 6.02614C20.2185 7.69008 21.1464 9.94686 21.1464 12.3V19.8576H23.937V12.3C23.937 9.20122 22.7151 6.22935 20.5401 4.03817C18.3652 1.84699 15.4153 0.615997 12.3394 0.615997C9.2635 0.615997 6.3136 1.84699 4.13862 4.03817C1.96365 6.22935 0.74176 9.20122 0.74176 12.3V32.9776C0.74176 36.0764 1.96365 39.0482 4.13862 41.2394C6.3136 43.4306 9.2635 44.6616 12.3394 44.6616C15.4153 44.6616 18.3652 43.4306 20.5401 41.2394C22.7151 39.0482 23.937 36.0764 23.937 32.9776V25.5031H21.1464Z" fill="url(#paint2_linear_1_6)"/>
<defs>
<linearGradient id="paint0_linear_1_6" x1="0.741766" y1="32.9776" x2="44.3491" y2="32.9776" gradientUnits="userSpaceOnUse">
<stop stop-color="#E2205C"/>
<stop offset="0.53" stop-color="#E6213C"/>
<stop offset="0.99" stop-color="#F07F3E"/>
</linearGradient>
<linearGradient id="paint1_linear_1_6" x1="4.84519" y1="43.271" x2="40.3691" y2="22.9125" gradientUnits="userSpaceOnUse">
<stop offset="0.02" stop-color="#2A2A28"/>
<stop offset="0.08" stop-color="#1D1D1B" stop-opacity="0.5"/>
<stop offset="0.45" stop-color="white"/>
</linearGradient>
<linearGradient id="paint2_linear_1_6" x1="12.3394" y1="44.6616" x2="12.3394" y2="0.615997" gradientUnits="userSpaceOnUse">
<stop stop-color="#E2205C"/>
<stop offset="0.53" stop-color="#E6213C"/>
<stop offset="1" stop-color="#C7559A"/>
</linearGradient>
</defs>
</svg>
