<svg width="28" height="28" viewBox="0 0 28 28" fill="none" xmlns="http://www.w3.org/2000/svg">
<circle cx="14" cy="14" r="14" fill="#E6E6E6"/>
<path d="M20.3579 7.55921C19.5217 7.55921 18.6937 7.72404 17.9213 8.04428C17.1489 8.36452 16.4472 8.83389 15.8564 9.42554C15.2655 10.0172 14.7971 10.7195 14.4779 11.4923C14.1586 12.2652 13.9949 13.0934 13.996 13.9295C13.961 15.5939 13.2751 17.1784 12.0856 18.3431C10.8961 19.5078 9.29757 20.1601 7.63278 20.1601C5.96798 20.1601 4.36945 19.5078 3.17993 18.3431C1.99041 17.1784 1.3046 15.5939 1.26953 13.9295C1.31932 10.5874 2.68189 7.39911 5.06289 5.05331C7.44389 2.70751 10.6522 1.39258 13.9946 1.39258C17.3371 1.39258 20.5453 2.70751 22.9263 5.05331C25.3073 7.39911 26.6699 10.5874 26.7197 13.9295C26.7208 13.0934 26.5571 12.2652 26.2379 11.4923C25.9186 10.7195 25.4502 10.0172 24.8594 9.42554C24.2685 8.83389 23.5668 8.36452 22.7944 8.04428C22.022 7.72404 21.194 7.55921 20.3579 7.55921Z" fill="white"/>
<path d="M7.63184 21.5621C5.6112 21.5576 3.6746 20.7529 2.24578 19.3241C0.816969 17.8953 0.0122879 15.9587 0.0078125 13.938C0.0600488 10.2605 1.55758 6.75138 4.17661 4.16929C6.79564 1.58719 10.3257 0.139648 14.0036 0.139648C17.6814 0.139648 21.2115 1.58719 23.8305 4.16929C26.4495 6.75138 27.9471 10.2605 27.9993 13.938H25.458C25.458 12.5878 24.9216 11.2928 23.9668 10.338C23.012 9.38324 21.7171 8.84686 20.3668 8.84686C19.0165 8.84686 17.7216 9.38324 16.7668 10.338C15.812 11.2928 15.2756 12.5878 15.2756 13.938C15.2712 15.9621 14.4638 17.9017 13.0307 19.3311C11.5976 20.7604 9.65591 21.5628 7.63184 21.5621ZM13.9965 2.47655C10.9596 2.47953 8.04797 3.68706 5.90031 5.83418C3.75266 7.98131 2.54442 10.8927 2.54069 13.9295C2.54069 15.2802 3.07722 16.5755 4.03226 17.5305C4.98731 18.4856 6.28262 19.0221 7.63326 19.0221C8.98389 19.0221 10.2792 18.4856 11.2342 17.5305C12.1893 16.5755 12.7258 15.2802 12.7258 13.9295C12.7303 11.9089 13.535 9.9723 14.9638 8.54348C16.3926 7.11467 18.3292 6.30998 20.3499 6.30551C21.2156 6.30391 22.0752 6.451 22.8912 6.74036C21.821 5.41063 20.4666 4.33745 18.9274 3.59962C17.3883 2.86179 15.7034 2.47804 13.9965 2.47655Z" fill="black"/>
<path d="M13.996 26.6021C12.3249 26.6025 10.6701 26.2736 9.12602 25.6344C7.58199 24.9951 6.17901 24.058 4.99721 22.8764C3.8154 21.6949 2.87793 20.2921 2.23833 18.7482C1.59873 17.2043 1.26953 15.5496 1.26953 13.8784C1.3046 15.5429 1.99041 17.1273 3.17993 18.292C4.36945 19.4568 5.96798 20.109 7.63278 20.109C9.29757 20.109 10.8961 19.4568 12.0856 18.292C13.2751 17.1273 13.961 15.5429 13.996 13.8784C13.996 13.043 14.1606 12.2157 14.4803 11.4439C14.8 10.672 15.2686 9.97069 15.8594 9.37994C16.4501 8.78919 17.1514 8.32058 17.9233 8.00087C18.6951 7.68115 19.5224 7.5166 20.3579 7.5166C21.1933 7.5166 22.0206 7.68115 22.7924 8.00087C23.5643 8.32058 24.2656 8.78919 24.8564 9.37994C25.4471 9.97069 25.9157 10.672 26.2354 11.4439C26.5551 12.2157 26.7197 13.043 26.7197 13.8784C26.7197 17.253 25.3792 20.4893 22.993 22.8754C20.6069 25.2616 17.3705 26.6021 13.996 26.6021Z" fill="#6300FF"/>
<path d="M13.9972 27.8729C10.2865 27.8692 6.72889 26.3937 4.1048 23.7701C1.48071 21.1466 0.004485 17.5892 0 13.8786H2.54135C2.54135 15.2292 3.07788 16.5245 4.03293 17.4796C4.98797 18.4346 6.28329 18.9712 7.63392 18.9712C8.98456 18.9712 10.2799 18.4346 11.2349 17.4796C12.19 16.5245 12.7265 15.2292 12.7265 13.8786C12.7265 11.8543 13.5306 9.91297 14.962 8.4816C16.3934 7.05023 18.3347 6.24609 20.359 6.24609C22.3833 6.24609 24.3246 7.05023 25.756 8.4816C27.1874 9.91297 27.9915 11.8543 27.9915 13.8786C27.987 17.5888 26.5112 21.1457 23.8877 23.7691C21.2642 26.3926 17.7073 27.8685 13.9972 27.8729ZM5.09399 21.0763C6.58227 22.9181 8.60499 24.2532 10.8836 24.8977C13.1622 25.5422 15.5845 25.4644 17.817 24.675C20.0496 23.8856 21.9824 22.4234 23.3495 20.4899C24.7165 18.5564 25.4504 16.2466 25.4502 13.8786C25.4502 13.21 25.3185 12.548 25.0626 11.9303C24.8068 11.3126 24.4318 10.7514 23.959 10.2786C23.4863 9.80585 22.925 9.43083 22.3073 9.17498C21.6896 8.91912 21.0276 8.78744 20.359 8.78744C19.6904 8.78744 19.0284 8.91912 18.4107 9.17498C17.793 9.43083 17.2318 9.80585 16.759 10.2786C16.2863 10.7514 15.9112 11.3126 15.6554 11.9303C15.3995 12.548 15.2678 13.21 15.2678 13.8786C15.2626 15.899 14.4577 17.8352 13.0291 19.2638C11.6004 20.6925 9.66422 21.4974 7.64381 21.5026C6.77569 21.5079 5.91315 21.3637 5.09399 21.0763Z" fill="black"/>
</svg>
