<?xml version="1.0" encoding="utf-8"?>
<!-- Generator: Adobe Illustrator 24.0.1, SVG Export Plug-In . SVG Version: 6.00 Build 0)  -->
<svg version="1.1" id="Layer_1" xmlns="http://www.w3.org/2000/svg" xmlns:xlink="http://www.w3.org/1999/xlink" x="0px" y="0px"
	 viewBox="0 0 16 16" style="enable-background:new 0 0 16 16;" xml:space="preserve">
<style type="text/css">
	.st0{fill-rule:evenodd;clip-rule:evenodd;}
	.st1{fill:none;}
</style>
<g id="filter" transform="translate(25)">
	<path id="Shape_5_" class="st0" d="M-22,0c0.3,0,0.5,0.2,0.5,0.5v10l0,0c1.1,0.3,1.7,1.3,1.5,2.4c-0.2,0.7-0.7,1.2-1.3,1.4l-0.1,0
		v1.2c0,0.3-0.2,0.5-0.5,0.5c-0.3,0-0.5-0.2-0.5-0.5v-1.2l0,0c-1.1-0.3-1.7-1.3-1.5-2.4c0.2-0.7,0.7-1.2,1.3-1.4l0.1,0v-10
		C-22.5,0.2-22.3,0-22,0C-22,0-22,0-22,0z M-12,0c0.3,0,0.5,0.2,0.5,0.5v10l0,0c1.1,0.3,1.7,1.3,1.5,2.4c-0.2,0.7-0.7,1.2-1.3,1.4
		l-0.1,0v1.2c0,0.3-0.2,0.5-0.5,0.5s-0.5-0.2-0.5-0.5v-1.2l0,0c-1.1-0.3-1.7-1.3-1.5-2.4c0.2-0.7,0.7-1.2,1.3-1.4l0.1,0v-10
		C-12.5,0.2-12.3,0-12,0z M-17,0c0.3,0,0.5,0.2,0.5,0.5v1.2l0,0c1.1,0.3,1.7,1.3,1.5,2.4c-0.2,0.7-0.7,1.2-1.3,1.4l-0.1,0v10
		c0,0.3-0.2,0.5-0.5,0.5c-0.3,0-0.5-0.2-0.5-0.5v-10l0,0c-1.1-0.3-1.7-1.3-1.5-2.4c0.2-0.7,0.7-1.2,1.3-1.4l0.1,0V0.5
		C-17.5,0.2-17.3,0-17,0z M-22,11.2c-0.7,0-1.2,0.5-1.2,1.2s0.5,1.2,1.2,1.2c0.7,0,1.2-0.5,1.2-1.2l0,0
		C-20.8,11.7-21.3,11.2-22,11.2z M-12,11.2c-0.7,0-1.2,0.5-1.2,1.2s0.5,1.2,1.2,1.2s1.2-0.5,1.2-1.2l0,0
		C-10.8,11.7-11.3,11.2-12,11.2z M-17,2.4c-0.7,0-1.2,0.5-1.2,1.2s0.5,1.2,1.2,1.2c0.7,0,1.2-0.5,1.2-1.2v0
		C-15.8,2.9-16.3,2.4-17,2.4z"/>
</g>
</svg>
