<svg width="197" height="44" viewBox="0 0 197 44" fill="none" xmlns="http://www.w3.org/2000/svg">
<g clip-path="url(#clip0_539:2185)">
<path d="M54.958 10.2942C54.958 9.7131 55.2071 9.21499 55.6222 8.79989C56.0372 8.3848 56.5354 8.13574 57.1995 8.13574C57.7806 8.13574 58.2788 8.3848 58.7769 8.79989C59.192 9.21499 59.441 9.7131 59.441 10.2942V16.5206C61.2674 15.1923 63.3429 14.5282 65.7505 14.5282C68.7391 14.5282 71.2297 15.5244 73.3052 17.5999C75.3807 19.6754 76.4599 22.1659 76.4599 25.0716C76.4599 27.9773 75.3807 30.4678 73.3052 32.5433C71.2297 34.6188 68.7391 35.615 65.7505 35.615C62.7618 35.615 60.2712 34.6188 58.1957 32.5433C56.1203 30.5508 55.124 28.0603 55.041 25.1546L54.958 10.2942ZM61.1844 29.4716C62.4297 30.7169 63.924 31.298 65.6674 31.298C67.4108 31.298 68.9052 30.7169 70.1505 29.4716C71.3957 28.2263 71.9769 26.732 71.9769 25.0716C71.9769 23.3282 71.3957 21.8339 70.1505 20.5886C68.9052 19.3433 67.4108 18.7622 65.6674 18.7622C63.924 18.7622 62.4297 19.3433 61.1844 20.5886C60.1052 21.6678 59.524 22.8301 59.358 24.2414V25.0716C59.358 25.2376 59.358 25.3207 59.358 25.4867C59.441 27.064 60.0222 28.3923 61.1844 29.4716Z" fill="white"/>
<path d="M82.8519 12.3697C82.2707 12.3697 81.7726 12.1207 81.2745 11.7056C80.8594 11.2905 80.6104 10.7924 80.6104 10.2112C80.6104 9.63009 80.8594 9.13198 81.2745 8.71688C81.6896 8.30179 82.1877 8.05273 82.8519 8.05273C83.433 8.05273 83.9311 8.30179 84.4292 8.71688C84.8443 9.13198 85.0934 9.63009 85.0934 10.2112C85.0934 10.7924 84.8443 11.2905 84.4292 11.7056C84.0141 12.1207 83.433 12.3697 82.8519 12.3697ZM82.8519 35.615C82.2707 35.615 81.7726 35.3659 81.2745 34.9508C80.8594 34.5358 80.6104 34.0376 80.6104 33.4565V16.5207C80.6104 15.9395 80.8594 15.4414 81.2745 15.0263C81.6896 14.6112 82.1877 14.3622 82.8519 14.3622C83.433 14.3622 83.9311 14.6112 84.4292 15.0263C84.8443 15.4414 85.0934 15.9395 85.0934 16.5207V33.4565C85.0934 34.0376 84.8443 34.5358 84.4292 34.9508C84.0141 35.3659 83.516 35.615 82.8519 35.615Z" fill="white"/>
<path d="M94.3092 14.3621V10.3772C94.3092 9.79611 94.5583 9.29799 94.9734 8.8829C95.3885 8.46781 95.8866 8.21875 96.5507 8.21875C97.1319 8.21875 97.63 8.46781 98.1281 8.8829C98.5432 9.29799 98.7922 9.79611 98.7922 10.3772V14.3621H101.2C101.781 14.3621 102.279 14.6112 102.777 15.0263C103.192 15.4414 103.441 15.9395 103.441 16.5206C103.441 17.1018 103.192 17.5999 102.777 18.015C102.362 18.4301 101.864 18.6791 101.2 18.6791H98.7922V33.3735C98.7922 33.9546 98.5432 34.4527 98.1281 34.8678C97.713 35.2829 97.2149 35.532 96.5507 35.532C95.9696 35.532 95.4715 35.2829 94.9734 34.8678C94.5583 34.4527 94.3092 33.9546 94.3092 33.3735V18.6791H91.8187C91.2375 18.6791 90.7394 18.4301 90.2413 18.015C89.8262 17.5999 89.5771 17.1018 89.5771 16.5206C89.5771 15.9395 89.8262 15.4414 90.2413 15.0263C90.6564 14.6112 91.1545 14.3621 91.8187 14.3621H94.3092Z" fill="white"/>
<path d="M111.992 14.4453C112.573 14.4453 113.071 14.6113 113.487 15.0264C113.902 15.4415 114.068 15.9397 114.068 16.5208C114.068 17.1019 113.902 17.6 113.487 18.0151C113.071 18.4302 112.573 18.6793 111.992 18.6793C111.66 18.6793 111.411 18.7623 111.245 19.0114C111.079 19.1774 110.913 19.4264 110.913 19.7585C110.913 20.0906 110.996 20.3397 111.245 20.5057C111.411 20.6717 111.743 20.8378 111.992 20.8378C114.068 20.8378 115.811 21.5849 117.305 22.9963C118.8 24.4076 119.464 26.151 119.464 28.2264C119.464 30.3019 118.717 32.0453 117.305 33.4566C115.811 34.868 114.068 35.6151 111.992 35.6151C109.917 35.6151 108.173 34.868 106.679 33.4566C105.185 32.0453 104.521 30.3019 104.521 28.2264C104.521 27.6453 104.77 27.1472 105.185 26.7321C105.6 26.317 106.098 26.151 106.679 26.151C107.26 26.151 107.758 26.317 108.173 26.7321C108.588 27.1472 108.754 27.6453 108.754 28.2264C108.754 29.1397 109.087 29.8868 109.668 30.468C110.249 31.0491 111.079 31.3812 111.909 31.3812C112.822 31.3812 113.57 31.0491 114.151 30.468C114.815 29.8868 115.064 29.1397 115.064 28.2264C115.064 27.3132 114.732 26.5661 114.151 25.9849C113.487 25.4038 112.739 25.0717 111.909 25.0717C110.415 25.0717 109.17 24.5736 108.09 23.4944C107.011 22.4981 106.513 21.2529 106.513 19.7585C106.513 18.2642 107.011 17.0189 108.09 16.0227C109.253 14.9434 110.498 14.4453 111.992 14.4453Z" fill="white"/>
<path d="M142.044 17.517C144.12 19.5925 145.199 22.083 145.199 24.9887C145.199 27.8944 144.12 30.3849 142.044 32.4604C139.969 34.5359 137.478 35.5321 134.49 35.5321C131.501 35.5321 129.01 34.5359 126.935 32.4604C124.86 30.3849 123.78 27.8944 123.78 24.9887C123.78 22.083 124.86 19.5925 126.935 17.517C129.01 15.4415 131.501 14.4453 134.49 14.4453C137.395 14.4453 139.886 15.5246 142.044 17.517ZM134.49 18.7623C132.746 18.7623 131.252 19.3434 130.007 20.5887C128.761 21.834 128.18 23.3283 128.18 24.9887C128.18 26.7321 128.761 28.2264 130.007 29.4717C131.252 30.717 132.746 31.2981 134.49 31.2981C136.233 31.2981 137.727 30.717 138.973 29.4717C140.218 28.2264 140.799 26.7321 140.799 24.9887C140.799 23.2453 140.218 21.751 138.973 20.5887C137.727 19.3434 136.233 18.7623 134.49 18.7623Z" fill="white"/>
<path d="M160.392 14.4453C163.381 14.6114 165.871 15.6906 167.781 17.6C169.856 19.5925 170.852 22.083 170.936 24.9887V33.1246C170.936 33.9548 170.686 34.5359 170.271 34.951C169.856 35.3661 169.358 35.6151 168.694 35.6151C168.113 35.6151 167.615 35.3661 167.117 34.951C166.702 34.5359 166.452 33.9548 166.452 33.1246V24.9887C166.452 24.8227 166.452 24.7397 166.452 24.5736C166.369 22.9963 165.788 21.668 164.626 20.5887C163.381 19.3434 161.886 18.7623 160.143 18.7623H160.06C158.317 18.7623 156.822 19.3434 155.577 20.5887C154.415 21.668 153.834 22.9963 153.751 24.5736C153.751 24.7397 153.751 24.8227 153.751 24.9887V33.1246C153.751 33.9548 153.502 34.5359 153.086 34.951C152.671 35.3661 152.173 35.6151 151.509 35.6151C150.928 35.6151 150.43 35.3661 149.932 34.951C149.517 34.5359 149.268 33.8717 149.268 33.1246V24.9887C149.268 22.083 150.347 19.6755 152.422 17.6C154.332 15.6906 156.822 14.6114 159.811 14.4453H160.392Z" fill="white"/>
<path d="M192.188 33.5397C190.361 34.868 188.286 35.5321 185.878 35.5321C182.89 35.5321 180.399 34.5359 178.324 32.4604C176.248 30.3849 175.169 27.8944 175.169 24.9887C175.169 22.083 176.248 19.5925 178.324 17.517C180.399 15.4415 182.89 14.4453 185.878 14.4453C188.867 14.4453 191.358 15.4415 193.433 17.517C195.509 19.5925 196.588 22.083 196.588 24.9887V33.3736C196.588 33.4566 196.588 33.6227 196.588 33.7057C196.505 36.5283 195.509 38.9359 193.433 40.9283C191.358 43.0038 188.867 44 185.878 44H185.795C185.214 44 184.716 43.751 184.218 43.3359C183.72 42.9208 183.554 42.4227 183.554 41.8415C183.554 41.2604 183.803 40.7623 184.218 40.3472C184.633 39.9321 185.131 39.6831 185.795 39.6831C185.878 39.6831 185.961 39.6831 186.127 39.6831C187.788 39.6 189.199 39.0189 190.444 37.8566C191.607 36.6944 192.188 35.2 192.188 33.5397ZM185.878 18.6793C184.135 18.6793 182.641 19.2604 181.395 20.5057C180.15 21.751 179.569 23.2453 179.569 24.9057C179.569 26.6491 180.15 28.1434 181.395 29.3887C182.641 30.634 184.135 31.2151 185.878 31.2151C187.622 31.2151 189.116 30.634 190.361 29.3887C191.607 28.1434 192.188 26.6491 192.188 24.9057C192.188 23.1623 191.607 21.668 190.361 20.5057C189.116 19.3434 187.622 18.6793 185.878 18.6793Z" fill="white"/>
<path d="M22.083 0C20.4226 0 18.7623 0.166038 17.1019 0.581133C17.1019 0.664152 17.1019 0.74717 17.1019 0.830189V27.8113C17.1019 28.3925 16.6038 28.8075 16.1057 28.8075H14.1132C13.6981 28.8075 13.366 28.4755 13.366 28.0604V1.7434C5.47924 5.06415 0 12.8679 0 21.834C0 33.9547 9.87925 43.7509 22.166 43.7509C34.4528 43.7509 44.2491 33.9547 44.2491 21.917C44.2491 9.87925 34.2868 0 22.083 0ZM21.6679 30.966C21.6679 31.4642 21.2528 31.8792 20.7547 31.8792H18.7623C18.2642 31.8792 17.8491 31.4642 17.8491 30.966V17.1019C17.8491 16.6038 18.2642 16.1887 18.7623 16.1887H20.7547C21.2528 16.1887 21.6679 16.6038 21.6679 17.1019V30.966ZM26.1509 32.2943C26.1509 32.7925 25.7358 33.2075 25.2377 33.2075H23.2453C22.7472 33.2075 22.3321 32.7925 22.3321 32.2943V15.7736C22.3321 15.2755 22.7472 14.8604 23.2453 14.8604H25.2377C25.7358 14.8604 26.1509 15.2755 26.1509 15.7736V32.2943ZM30.634 29.8038C30.634 30.3019 30.2189 30.717 29.7208 30.717H27.7283C27.2302 30.717 26.8151 30.3019 26.8151 29.8038V18.4302C26.8151 17.9321 27.2302 17.517 27.7283 17.517H29.7208C30.2189 17.517 30.634 17.9321 30.634 18.4302V29.8038Z" fill="white"/>
</g>
<defs>
<clipPath id="clip0_539:2185">
<rect width="196.589" height="44" fill="white"/>
</clipPath>
</defs>
</svg>
