<svg width="215" height="40" viewBox="0 0 215 40" fill="none" xmlns="http://www.w3.org/2000/svg">
<path d="M108.433 19.7587C109.237 18.4735 109.718 17.0277 109.718 15.5819C109.718 14.1361 109.397 12.851 108.594 11.5659C107.791 10.4414 106.827 9.47751 105.702 8.83494C104.417 8.19238 103.132 7.87109 101.686 7.87109H89.7988V31.6462H95.1V23.2928H99.7587L104.578 31.6462H111.004L105.542 22.4895C106.666 21.847 107.63 21.0438 108.433 19.7587ZM103.453 17.9915C102.971 18.4735 102.329 18.7948 101.365 18.7948H94.9395V12.6904H100.722C101.847 12.6904 102.65 13.0116 103.293 13.4936C103.935 13.9755 104.257 14.7787 104.257 15.7426C104.257 16.7065 103.935 17.349 103.453 17.9915Z" fill="white"/>
<path d="M124.338 7.87109H118.876V31.6462H124.338V7.87109Z" fill="white"/>
<path d="M151.486 11.7265L151.325 11.5659L151.486 11.7265V11.5659V7.87109H133.333V13.0116H143.936L132.53 27.9515V31.6462H151.968V26.6663H140.08L151.486 11.7265Z" fill="white"/>
<path d="M180.561 10.9238C179.438 9.7993 178.153 8.99608 176.706 8.35352C175.261 7.71093 173.655 7.38965 171.886 7.38965C170.12 7.38965 168.513 7.71093 166.908 8.35352C165.461 8.99608 164.176 9.7993 163.052 10.9238C161.927 12.0483 161.124 13.3334 160.481 14.7792C159.839 16.225 159.518 17.8315 159.518 19.5985C159.518 21.3655 159.839 22.972 160.481 24.5783C161.124 26.0242 161.927 27.3093 163.052 28.4338C164.176 29.5583 165.461 30.3615 166.908 31.0042C168.353 31.6467 170.12 31.968 171.886 31.968C173.655 31.968 175.261 31.6467 176.706 31.0042C178.153 30.3615 179.438 29.5583 180.561 28.4338C181.686 27.3093 182.49 26.0242 183.131 24.5783C183.775 23.1327 184.096 21.5262 184.096 19.7592C184.096 17.992 183.775 16.3856 183.131 14.9399C182.49 13.4941 181.526 12.0483 180.561 10.9238ZM177.51 23.4538C176.866 24.5783 176.225 25.3817 175.1 26.0242C174.136 26.6668 173.011 26.988 171.726 26.988C170.441 26.988 169.316 26.6668 168.193 26.0242C167.228 25.3817 166.425 24.5783 165.783 23.4538C165.14 22.3293 164.979 21.205 164.979 19.7592C164.979 18.3133 165.301 17.1888 165.783 16.0643C166.425 14.9398 167.068 14.1366 168.193 13.4941C169.156 12.8515 170.281 12.5302 171.726 12.5302C173.011 12.5302 174.136 12.8515 175.1 13.4941C176.065 14.1366 176.866 14.9398 177.51 16.0643C178.153 17.1888 178.313 18.3133 178.313 19.7592C178.313 21.0443 177.991 22.3293 177.51 23.4538Z" fill="white"/>
<path d="M207.872 14.7787C207.872 16.7065 207.872 18.4735 208.032 20.08C208.032 20.5618 208.032 21.2045 208.032 21.6863C208.032 22.1683 208.032 22.6502 208.032 23.1322L196.787 8.19238V8.03173H191.969V31.8068H197.43V22.9715C197.43 22.329 197.43 21.847 197.43 21.2045C197.43 20.8832 197.43 20.7225 197.43 20.4012C197.43 20.08 197.43 19.598 197.43 19.116V18.4735C197.43 17.9915 197.43 17.6703 197.43 17.0277L208.675 31.6462V31.8068H213.655V7.87109H208.194V14.7787H207.872Z" fill="white"/>
<path d="M73.735 19.759C73.735 17.3493 63.1325 14.7791 48.3533 13.9759C57.1888 13.1727 63.1325 11.5663 63.1325 9.95983C63.1325 8.03213 54.4578 6.10442 42.8915 5.46185C47.2288 4.97992 50.2812 4.01607 50.2812 2.89157C50.2812 1.60643 44.3373 0 36.7872 0C29.3977 0 23.2932 1.44578 23.2932 2.89157C23.2932 4.1767 26.0242 4.97992 30.2008 5.46185C18.9558 5.94378 10.4418 7.87148 10.4418 9.7992C10.4418 11.4056 16.3856 13.012 25.0602 13.8153C10.6024 14.7791 0 17.1888 0 19.759C0 22.49 10.4418 24.739 24.8997 25.7028C16.3855 26.506 10.4418 28.1125 10.4418 29.7188C10.4418 31.8072 18.7952 33.5743 30.2008 34.2168C26.1847 34.6988 23.2932 35.502 23.2932 36.7872C23.2932 38.0723 29.237 39.6787 36.7872 39.6787C44.1767 39.6787 50.2812 38.0723 50.2812 36.7872C50.2812 35.6627 47.2288 34.6988 42.8915 34.2168C54.4578 33.735 63.1325 31.6467 63.1325 29.7188C63.1325 28.1125 57.1888 26.506 48.514 25.7028C63.1325 24.739 73.735 22.3293 73.735 19.759ZM26.988 12.5301C27.1487 12.5301 27.1487 12.3695 27.1487 12.3695L27.3092 12.2088L35.02 7.71085C35.502 7.38957 36.1445 7.22892 36.7872 7.22892C37.4297 7.22892 38.0723 7.38957 38.5542 7.71085C38.5542 7.71085 46.1043 12.0482 46.265 12.0482C46.9077 12.3695 47.3895 13.012 47.5502 13.8153C47.5502 13.9759 47.7108 14.4578 47.5502 14.6185C47.5502 14.6185 47.5502 14.6185 47.3895 14.6185C47.2288 14.6185 46.9077 14.6185 46.747 14.6185C46.4257 14.6185 46.265 14.6185 45.9438 14.6185C45.4618 14.6185 44.98 14.4578 44.498 14.4578C43.8555 14.4578 43.2128 14.2972 42.5703 14.2972C41.6065 14.1365 40.6425 14.1365 39.6787 13.9759C38.5542 13.8153 37.4297 13.6546 36.3052 13.6546C35.1807 13.494 34.0562 13.3333 32.9317 13.3333C31.9678 13.1727 31.004 13.1727 30.0402 13.012C29.3977 13.012 28.755 12.8514 28.1125 12.8514C27.9518 12.8514 27.7912 12.8514 27.6305 12.8514C27.6305 12.8514 27.6305 12.8514 27.4698 12.8514C27.3092 12.8514 27.3092 12.8514 27.1487 12.6908C26.988 12.6908 26.988 12.6908 26.988 12.5301ZM47.5502 26.0242C47.5502 26.0242 47.5502 26.1847 47.3895 26.1847V26.3453C47.0683 26.6667 46.9077 26.988 46.4257 27.3092L38.5542 31.8072C38.0723 32.1285 37.4297 32.2892 36.7872 32.2892C36.1445 32.2892 35.502 32.1285 35.02 31.8072L28.1125 27.7912C27.9518 27.7912 27.9518 27.6305 27.9518 27.6305C27.7912 27.4698 27.7912 27.4698 27.7912 27.3092C27.9518 26.988 28.4337 26.988 28.4337 26.988C28.5943 26.988 28.755 26.988 28.9157 26.988H29.0763C29.3977 26.988 29.5582 26.988 29.8795 26.8273C30.2008 26.8273 30.3615 26.8273 30.6827 26.6667C31.6467 26.506 32.6105 26.3453 33.5743 26.3453C34.5382 26.1847 35.502 26.1847 36.3052 26.0242C37.269 25.8635 38.233 25.8635 39.0362 25.8635C40 25.8635 40.8032 25.7028 41.6065 25.7028C42.4097 25.7028 43.3735 25.7028 44.1767 25.7028C44.3373 25.7028 44.3373 25.7028 44.498 25.7028H44.8193C45.4618 25.7028 46.1043 25.7028 46.747 25.7028C46.9077 25.7028 46.9077 25.7028 47.0683 25.7028H47.2288C47.5502 25.7028 47.7108 25.8635 47.7108 25.8635C47.5502 25.8635 47.5502 25.8635 47.5502 26.0242ZM48.0322 21.6867C48.0322 22.6507 48.0322 22.6507 46.1045 22.9718L44.8193 23.1325C44.6587 23.1325 44.498 23.1325 44.3373 23.1325H43.8555C40.6425 23.4538 37.269 23.7752 34.0562 23.9357C32.6105 24.0963 31.1647 24.0963 29.7188 24.0963C29.0763 24.0963 28.4337 24.0963 27.6305 24.0963C27.3092 24.0963 26.988 24.0963 26.6667 24.0963C26.3453 24.0963 26.0242 24.257 25.8635 23.9357C25.7028 23.7752 25.7028 23.4538 25.7028 23.1325V16.5462C25.7028 15.5823 26.0242 15.4217 27.7912 15.261C28.1125 15.261 28.4337 15.261 28.9157 15.261C34.3775 15.261 40.3213 16.0642 47.3895 17.8313H47.5502C47.8715 17.992 48.0322 17.8313 48.0322 18.7952V21.6867Z" fill="url(#paint0_linear_930_2013)"/>
<defs>
<linearGradient id="paint0_linear_930_2013" x1="61.5725" y1="2.38088" x2="14.9491" y2="35.107" gradientUnits="userSpaceOnUse">
<stop offset="0.0403439" stop-color="#5FF19D"/>
<stop offset="0.205" stop-color="#59EEA3"/>
<stop offset="0.4266" stop-color="#49E5B4"/>
<stop offset="0.6806" stop-color="#2FD6D0"/>
<stop offset="0.9567" stop-color="#0AC2F7"/>
<stop offset="1" stop-color="#04BEFE"/>
</linearGradient>
</defs>
</svg>
