<svg width="28" height="28" viewBox="0 0 28 28" fill="none" xmlns="http://www.w3.org/2000/svg">
<rect width="28" height="28" rx="14" fill="#FFFC38"/>
<mask id="mask0_2317_73" style="mask-type:luminance" maskUnits="userSpaceOnUse" x="3" y="3" width="23" height="22">
<path d="M25.0905 3H3V25H25.0905V3Z" fill="white"/>
</mask>
<g mask="url(#mask0_2317_73)">
<path d="M18.3295 14.001H14.1992V18.1144H18.3295V14.001Z" fill="black"/>
<path d="M10.0667 9.88574C12.3464 9.88574 14.197 11.729 14.197 13.9992H10.0667V9.88574Z" fill="black"/>
<path d="M10.0667 14.001L7.68201 18.1147H12.4514L10.0667 14.001Z" fill="black"/>
<path d="M18.3445 13.9977C19.4845 13.9977 20.4085 13.0774 20.4085 11.9422C20.4085 10.807 19.4845 9.88672 18.3445 9.88672C17.2046 9.88672 16.2805 10.807 16.2805 11.9422C16.2805 13.0774 17.2046 13.9977 18.3445 13.9977Z" fill="black"/>
<path d="M14.0454 25C11.095 25 8.32137 23.8558 6.23513 21.7781C4.14889 19.7007 3 16.9382 3 14.0001C3 11.0621 4.14889 8.29956 6.23513 6.22187C8.32137 4.14418 11.095 3 14.0454 3C16.9958 3 19.7694 4.14418 21.8556 6.22187C23.9419 8.29956 25.0908 11.0618 25.0908 14.0001C25.0908 16.9385 23.9419 19.7007 21.8556 21.7784C19.7694 23.8561 16.9958 25.0003 14.0454 25.0003V25ZM14.0454 4.36304C11.4608 4.36304 9.03074 5.36545 7.20296 7.18574C5.37519 9.00576 4.36864 11.4259 4.36864 14.0001C4.36864 16.5744 5.37519 18.9943 7.20296 20.8146C9.03074 22.6348 11.4608 23.6373 14.0454 23.6373C16.63 23.6373 19.0601 22.6348 20.8878 20.8146C22.7156 18.9943 23.7222 16.5742 23.7222 14.0001C23.7222 11.4261 22.7156 9.00603 20.8878 7.18574C19.0601 5.36545 16.63 4.36304 14.0454 4.36304Z" fill="black"/>
</g>
</svg>

