<svg width="211" height="44" viewBox="0 0 211 44" fill="none" xmlns="http://www.w3.org/2000/svg">
<g clip-path="url(#clip0_1284_11783)">
<path fill-rule="evenodd" clip-rule="evenodd" d="M22.009 0.0585978C25.7787 0.0563036 29.4856 1.02421 32.7723 2.86908C36.0593 4.71396 38.8155 7.37364 40.7754 10.592C39.2595 10.5704 37.7544 10.8501 36.3478 11.415C34.941 11.9798 33.6607 12.8185 32.581 13.8822C31.5014 14.9459 30.6441 16.2136 30.0589 17.6113C29.4738 19.0091 29.1725 20.5092 29.1725 22.0244C29.1725 23.5396 29.4738 25.0396 30.0589 26.4373C30.6441 27.8352 31.5014 29.1028 32.581 30.1665C33.6607 31.2302 34.941 32.0689 36.3478 32.6338C37.7544 33.1986 39.2595 33.4784 40.7754 33.4568C38.7791 36.7308 35.9603 39.4257 32.5989 41.2734C29.2376 43.1211 25.4509 44.0573 21.6154 43.989C17.7798 43.9208 14.0288 42.8504 10.7355 40.8842C7.44207 38.918 4.72093 36.1248 2.84253 32.7818C0.964116 29.4389 -0.00613206 25.6627 0.0282255 21.8288C0.0625833 17.995 1.10035 14.2368 3.03837 10.928C4.97638 7.61919 7.74715 4.87497 11.0752 2.96811C14.4033 1.06126 18.1728 0.0581812 22.009 0.0585978Z" fill="#FFC780"/>
<path fill-rule="evenodd" clip-rule="evenodd" d="M40.7759 10.5849C39.2602 10.5633 37.7551 10.8431 36.3483 11.408C34.9416 11.9728 33.6612 12.8115 32.5815 13.8752C31.5019 14.939 30.6446 16.2065 30.0595 17.6042C29.4743 19.0021 29.173 20.5021 29.173 22.0173C29.173 23.5325 29.4743 25.0327 30.0595 26.4304C30.6446 27.8281 31.5019 29.0957 32.5815 30.1594C33.6612 31.2233 34.9416 32.0618 36.3483 32.6267C37.7551 33.1915 39.2602 33.4713 40.7759 33.4497L40.7087 33.5611C38.4748 35.5855 35.7005 36.9174 32.723 37.3946C29.7457 37.8717 26.6937 37.4736 23.9386 36.2486C21.1836 35.0236 18.8442 33.0246 17.2052 30.495C15.5662 27.9653 14.6983 25.0139 14.7071 22.0002C14.7159 18.9865 15.6011 16.0405 17.255 13.5204C18.9087 11.0003 21.2598 9.01507 24.022 7.80624C26.7842 6.59743 29.8385 6.21716 32.813 6.71173C35.7876 7.2063 38.5541 8.55438 40.7759 10.5919V10.5849Z" fill="url(#paint0_linear_1284_11783)"/>
<path d="M124.046 34.7027C129.85 34.7027 133.754 33.0785 133.754 29.0253C133.754 21.8328 120.81 25.487 120.81 23.2412C120.81 22.4662 122.131 22.0324 125.17 22.0324C127.644 22.0324 130.063 22.4546 132.433 22.8885V18.0696C129.562 17.5105 126.166 17.1416 124.179 17.1416C118.375 17.1416 114.473 18.9235 114.473 22.8839C114.473 29.7793 127.415 26.0648 127.415 28.719C127.415 29.517 126.094 29.9973 123.055 29.9973C120.151 29.9973 117.971 29.4289 115.197 28.3733V33.4103C118.08 34.2127 121.054 34.6471 124.046 34.7027Z" fill="white"/>
<path d="M61.4795 34.6987C69.8366 34.6987 75.408 30.7313 75.408 24.3626H68.6758C68.4112 27.6943 65.5396 29.0238 61.4795 29.0238C57.1221 29.0238 54.2157 26.8452 54.2157 22.6201C54.2157 18.3952 57.1221 16.219 61.4795 16.219C65.5071 16.219 68.3811 17.6319 68.6758 20.9636H75.408C75.408 14.5949 69.8366 10.5439 61.4795 10.5439C53.1223 10.5439 47.5508 15.3606 47.5508 22.6201C47.5508 29.8798 53.1269 34.6987 61.4795 34.6987Z" fill="white"/>
<path d="M144.345 34.6979C147.614 34.6979 149.529 34.104 152.203 32.916V27.3478C150.15 28.6543 147.768 29.3525 145.334 29.3617C142.727 29.3617 141.074 27.9418 141.074 25.9302C141.074 23.9186 142.627 22.4964 145.237 22.4964C148.041 22.4964 150.321 23.4245 152.201 24.5428V18.9235C149.558 17.7356 147.347 17.1416 144.375 17.1416C138.135 17.1416 134.734 20.6078 134.734 25.9209C134.737 31.1992 138.368 34.6979 144.345 34.6979Z" fill="white"/>
<path d="M175.406 34.1644H182.076V28.6262C182.076 24.9627 183.991 22.1578 186.665 22.1578C189.339 22.1578 190.461 23.2481 190.461 27.5705V34.1644H197.142V27.009C197.142 18.7912 195.129 17.2088 190.504 17.1416C185.288 17.1416 183.077 19.0557 182.217 24.4685H181.887V17.6705H175.406V34.1644Z" fill="white"/>
<path d="M205.619 34.5013C207.304 34.5132 208.984 34.2907 210.607 33.84V29.8796C210.078 29.9145 209.648 29.9469 209.287 29.9469C207.338 29.9469 207.338 29.2857 207.338 27.2416V22.5643H210.607V17.6712H207.337V13.0518L201.321 13.7107V17.6712H198.785V22.5643H200.667V28.2392C200.667 32.9491 201.321 34.5013 205.619 34.5013Z" fill="white"/>
<path d="M77.4023 34.1647H84.0719V28.6311C84.0719 23.3181 86.8436 22.8308 92.7864 22.8308V17.1465C87.6028 17.1465 85.0607 19.0606 84.1972 24.4735H83.8675L84.0672 17.6755H77.4023V34.1647Z" fill="white"/>
<path d="M103.21 34.7029C107.832 34.7029 109.845 34.0416 112.421 33.0788V27.9745C110.875 29.1625 108.682 30.1391 104.86 30.1391C102.054 30.1391 100.436 28.7936 99.874 27.3411H113.148V24.6382C113.048 20.1487 109.118 17.1465 103.21 17.1465C97.2322 17.1465 93.2695 20.6452 93.2695 25.9236C93.2695 31.2018 97.2322 34.7029 103.21 34.7029ZM99.7091 25.0326C100.071 23.3181 101.525 21.7983 103.21 21.7983C105.025 21.7983 106.745 23.2183 106.924 24.8679L99.7091 25.0326Z" fill="white"/>
<path d="M163.482 34.7029C168.107 34.7029 170.119 34.0416 172.694 33.0788V27.8376C171.149 29.0256 168.955 30.1415 165.132 30.1415C162.326 30.1415 160.708 28.7958 160.148 27.3435H173.418V24.6382C173.315 20.1487 169.388 17.1465 163.478 17.1465C157.502 17.1465 153.539 20.6452 153.539 25.9236C153.539 31.2018 157.502 34.7029 163.482 34.7029ZM159.977 25.0326C160.341 23.3181 161.794 21.7983 163.478 21.7983C165.293 21.7983 166.813 23.2183 166.978 24.8679L159.977 25.0326Z" fill="white"/>
</g>
<defs>
<linearGradient id="paint0_linear_1284_11783" x1="27.7365" y1="37.5912" x2="27.7365" y2="6.49223" gradientUnits="userSpaceOnUse">
<stop stop-color="#FFC780"/>
<stop offset="1" stop-color="#964B48"/>
</linearGradient>
<clipPath id="clip0_1284_11783">
<rect width="210.635" height="44" fill="white"/>
</clipPath>
</defs>
</svg>
