<svg width="21" height="21" viewBox="0 0 21 21" fill="none" xmlns="http://www.w3.org/2000/svg">
<path opacity="0.5" fill-rule="evenodd" clip-rule="evenodd" d="M18.2803 5.92343C18.2803 7.46964 17.0544 8.72309 15.5423 8.72309C14.0301 8.72309 12.8043 7.46964 12.8043 5.92343C12.8043 4.37723 14.0301 3.12378 15.5423 3.12378C17.0544 3.12378 18.2803 4.37723 18.2803 5.92343ZM15.5422 9.71191C18.6345 9.71191 20.4384 11.8199 20.986 15.3442C21.2053 16.6895 18.7131 17.2249 15.8204 17.223C15.6842 17.2229 15.5488 17.1164 15.5427 16.9802C15.5421 16.967 15.5411 16.9514 15.539 16.9383C15.121 14.3589 14.2273 12.3311 12.9209 10.9193C12.9075 10.9048 12.8906 10.8899 12.8751 10.8776C12.706 10.7436 12.7335 10.4858 12.9185 10.3745C13.6526 9.93277 14.5134 9.71191 15.5422 9.71191Z" fill="#5E6773"/>
<path fill-rule="evenodd" clip-rule="evenodd" d="M10.9693 5.06733C10.9693 7.14107 9.32523 8.82216 7.29716 8.82216C5.26908 8.82216 3.625 7.14107 3.625 5.06733C3.625 2.99359 5.26908 1.3125 7.29716 1.3125C9.32523 1.3125 10.9693 2.99359 10.9693 5.06733ZM0.0166301 17.1557C-0.273277 18.9672 3.27003 19.6918 7.29652 19.6918C11.323 19.6918 14.8663 18.9672 14.5764 17.1557C13.8033 12.4456 11.3874 9.646 7.29652 9.646C3.20561 9.646 0.789716 12.4127 0.0166301 17.1557Z" fill="#5E6773"/>
</svg>
