<?xml version="1.0" encoding="utf-8"?>
<!-- Generator: Adobe Illustrator 24.0.1, SVG Export Plug-In . SVG Version: 6.00 Build 0)  -->
<svg version="1.1" id="Layer_1" xmlns="http://www.w3.org/2000/svg" xmlns:xlink="http://www.w3.org/1999/xlink" x="0px" y="0px"
	 viewBox="0 0 16 16" style="enable-background:new 0 0 16 16;" xml:space="preserve">
<style type="text/css">
	.st0{fill-rule:evenodd;clip-rule:evenodd;}
	.st1{fill:none;}
</style>
<g id="copy" transform="translate(-1)">
	<path id="Shape_4_" class="st0" d="M10.5,0.3L10.5,0.3c0.1,0,0.1,0,0.1,0l0,0c0,0,0,0,0,0c0,0,0.1,0.1,0.1,0.1l4.6,4.6l0.1,0.1
		c0-0.1,0-0.1,0-0.1l0,0l0,0.1c0,0,0,0,0,0.1c0,0,0,0,0,0v0c0,0,0,0.1,0,0.1c0,0,0,0,0,0v6.1c0,1.1-0.9,2-2,2h-1.1v0.3
		c0,1.1-0.9,2-2,2H4.4c-1.1,0-2-0.9-2-2V4.5c0-1.1,0.8-1.9,1.9-2c0,0,0.1,0,0.1,0h1.1V2.3c0-1.1,0.9-2,2-2H10.5z M7,3.5H4.4
		c-0.6,0-1.1,0.5-1.1,1.1v9.2c0,0.6,0.5,1.1,1.1,1.1h6.1c0.6,0,1.1-0.5,1.1-1.1V8.1H9c-1.1,0-2-0.9-2-2L7,3.5z M10.9,1.8v2
		c0,0.6,0.5,1.1,1.1,1.1c0,0,0,0,0,0h2L10.9,1.8z M7.9,4.1v2c0,0.6,0.5,1.1,1.1,1.1h2L7.9,4.1z M13.6,12.5c0.6,0,1.1-0.5,1.1-1.1
		V5.8H12c-1.1,0-2-0.9-2-2V1.2H7.5c-0.6,0-1.1,0.5-1.1,1.1v0.3h1.1l0,0c0,0,0.1,0,0.1,0l0,0l0,0c0,0,0.1,0.1,0.1,0.1l4.6,4.6l0,0
		l0,0l0,0c0,0,0.1,0.1,0.1,0.1c0,0,0,0,0,0v0c0,0,0,0.1,0,0.1c0,0,0,0,0,0v4.9L13.6,12.5z"/>
</g>
</svg>
