<?xml version="1.0" encoding="utf-8"?>
<!-- Generator: Adobe Illustrator 24.0.1, SVG Export Plug-In . SVG Version: 6.00 Build 0)  -->
<svg version="1.1" id="Layer_1" xmlns="http://www.w3.org/2000/svg" xmlns:xlink="http://www.w3.org/1999/xlink" x="0px" y="0px"
	 viewBox="0 0 16 16" style="enable-background:new 0 0 16 16;" xml:space="preserve">
<style type="text/css">
	.st0{fill-rule:evenodd;clip-rule:evenodd;}
	.st1{fill:none;}
</style>
<g id="next-screen" transform="translate(13.7 -2.4)">
	<path id="Combined-Shape_4_" d="M-5.9,4.7c0.1,0,0.3,0.1,0.3,0.1l0,0l5.5,5.2c0.2,0.2,0.2,0.5,0,0.7c0,0,0,0,0,0l0,0L-5.6,16
		c-0.1,0.1-0.2,0.1-0.3,0.1c-0.3,0-0.5-0.2-0.5-0.5c0,0,0,0,0,0c0-0.1,0-0.3,0.1-0.3l0,0l5.1-4.9l-5.1-4.9c-0.1-0.1-0.1-0.2-0.1-0.3
		C-6.4,4.9-6.2,4.7-5.9,4.7C-6,4.7-5.9,4.7-5.9,4.7z M-10.9,4.7c0.1,0,0.3,0.1,0.3,0.1l0,0l5.5,5.2c0.2,0.2,0.2,0.5,0,0.7
		c0,0,0,0,0,0l0,0l-5.5,5.2c-0.1,0.1-0.2,0.1-0.3,0.1c-0.3,0-0.5-0.2-0.5-0.5c0,0,0,0,0,0c0-0.1,0-0.3,0.1-0.3l0,0l5.1-4.9l-5.1-4.9
		c-0.1-0.1-0.1-0.2-0.1-0.3C-11.4,4.9-11.2,4.7-10.9,4.7C-11,4.7-10.9,4.7-10.9,4.7z"/>
</g>
</svg>
