<?xml version="1.0" encoding="utf-8"?>
<!-- Generator: Adobe Illustrator 24.0.1, SVG Export Plug-In . SVG Version: 6.00 Build 0)  -->
<svg version="1.1" id="Layer_1" xmlns="http://www.w3.org/2000/svg" xmlns:xlink="http://www.w3.org/1999/xlink" x="0px" y="0px"
	 viewBox="0 0 16 16" style="enable-background:new 0 0 16 16;" xml:space="preserve">
<style type="text/css">
	.st0{fill-rule:evenodd;clip-rule:evenodd;}
	.st1{fill:none;}
</style>
<path d="M4.5,6C4.8,6,5,6.2,5,6.5S4.8,7,4.5,7H3v8h10V7h-1.5C11.2,7,11,6.8,11,6.5S11.2,6,11.5,6H13c0.6,0,1,0.4,1,1v8
	c0,0.6-0.4,1-1,1H3c-0.6,0-1-0.4-1-1V7c0-0.6,0.4-1,1-1H4.5z M8.4,0.2L12,3.7c0.2,0.2,0.2,0.5,0,0.7c-0.2,0.2-0.5,0.2-0.7,0L8.6,1.7
	v9.8c0,0.3-0.2,0.5-0.5,0.5c-0.3,0-0.5-0.2-0.5-0.5V1.7L4.8,4.5C4.6,4.6,4.3,4.6,4.2,4.4C4,4.3,4,4,4.1,3.8l3.7-3.7
	C8-0.1,8.3,0,8.4,0.2z"/>
</svg>
