<svg width="21" height="21" viewBox="0 0 21 21" fill="none" xmlns="http://www.w3.org/2000/svg">
<path fill-rule="evenodd" clip-rule="evenodd" d="M19.2523 4.38355L17.416 6.66426C17.6825 7.1973 17.9195 7.76011 18.0974 8.35244L21 8.64871L20.9998 12.4102L18.0972 12.7064C17.949 13.2692 17.7123 13.832 17.416 14.365L19.2228 16.5867L16.5867 19.2228L14.306 17.3864C13.7729 17.6825 13.2397 17.8899 12.6474 18.0676L12.3511 20.9702H8.61915L8.32287 18.0676C7.76011 17.9195 7.1973 17.6827 6.66426 17.3864L4.38355 19.2228L1.74747 16.5867L3.58379 14.306C3.28771 13.7729 3.08029 13.2397 2.9026 12.6474L0 12.3511V8.61915L2.9026 8.32287C3.05075 7.76011 3.28751 7.1973 3.58379 6.66426L1.74747 4.38355L4.38355 1.74746L6.66426 3.58379C7.1973 3.28771 7.73055 3.08029 8.32287 2.9026L8.61915 0H12.3808L12.6771 2.9026C13.2398 3.05075 13.8027 3.28751 14.3357 3.58379L16.6162 1.74746L19.2523 4.38355ZM13.2393 13.2691C11.7288 14.7796 9.27046 14.7796 7.75984 13.2691C6.24932 11.7586 6.24932 9.30024 7.75984 7.78962C9.27035 6.27911 11.7287 6.27911 13.2393 7.78962C14.75 9.27057 14.75 11.7587 13.2393 13.2691Z" fill="#5E6773"/>
</svg>
