<svg width="24" height="24" viewBox="0 0 24 24" fill="none" xmlns="http://www.w3.org/2000/svg">
<path fill-rule="evenodd" clip-rule="evenodd" d="M10.1155 3.17395H1C0.447715 3.17395 0 3.62167 0 4.17395C0 4.72623 0.447715 5.17395 1 5.17395L10.1155 5.17395C10.5449 6.99619 12.1212 8.34783 14 8.34783C15.8788 8.34783 17.4551 6.99619 17.8845 5.17395L23 5.17395C23.5523 5.17395 24 4.72623 24 4.17395C24 3.62167 23.5523 3.17395 23 3.17395H17.8845C17.4551 1.35167 15.8788 0 14 0C12.1212 0 10.5449 1.35167 10.1155 3.17395ZM14 6.34783C12.9748 6.34783 12 5.45561 12 4.17391C12 2.89222 12.9748 2 14 2C15.0252 2 16 2.89222 16 4.17391C16 5.45561 15.0252 6.34783 14 6.34783ZM3.11554 13.5216C3.54494 15.3438 5.1212 16.6955 7 16.6955C8.88101 16.6955 10.4588 15.3407 10.886 13.5152C10.9234 13.5194 10.9614 13.5216 11 13.5216H23C23.5523 13.5216 24 13.0739 24 12.5216C24 11.9693 23.5523 11.5216 23 11.5216H11C10.9614 11.5216 10.9234 11.5238 10.886 11.528C10.4588 9.70251 8.88103 8.34766 7 8.34766C5.12117 8.34766 3.54489 9.69933 3.11552 11.5216H1C0.447715 11.5216 0 11.9693 0 12.5216C0 13.0739 0.447715 13.5216 1 13.5216H3.11554ZM7 14.6955C5.97481 14.6955 5.00002 13.8033 5 12.5216C5 11.2399 5.9748 10.3477 7 10.3477C8.0252 10.3477 9 11.2399 9 12.5216C9 13.8033 8.0252 14.6955 7 14.6955ZM1 18.8262H13.1156C13.545 17.004 15.1212 15.6523 17 15.6523C18.881 15.6523 20.4587 17.0071 20.886 18.8326C20.9234 18.8284 20.9614 18.8262 21 18.8262H23C23.5523 18.8262 24 19.2739 24 19.8262C24 20.3785 23.5523 20.8262 23 20.8262H21C20.9615 20.8262 20.9234 20.824 20.886 20.8197C20.4588 22.6453 18.8811 24.0002 17 24.0002C15.1212 24.0002 13.5449 22.6485 13.1155 20.8262H1C0.447715 20.8262 0 20.3785 0 19.8262C0 19.2739 0.447715 18.8262 1 18.8262ZM15 19.8263C15 21.1079 15.9748 22.0002 17 22.0002C18.0252 22.0002 19 21.108 19 19.8263C19 18.5446 18.0252 17.6523 17 17.6523C15.9748 17.6523 15 18.5446 15 19.8263Z" fill="#999999"/>
</svg>
