<?xml version="1.0" encoding="utf-8"?>
<!-- Generator: Adobe Illustrator 24.0.1, SVG Export Plug-In . SVG Version: 6.00 Build 0)  -->
<svg width="24" version="1.1" id="Layer_1" xmlns="http://www.w3.org/2000/svg" xmlns:xlink="http://www.w3.org/1999/xlink" x="0px" y="0px"
	 viewBox="0 0 24 24" style="enable-background:new 0 0 24 24;" xml:space="preserve">
<style type="text/css">
	.st0{fill-rule:evenodd;clip-rule:evenodd;}
	.st1{fill:none;}
</style>
<path d="M20.5,3.6C18.3,1.3,15.3,0,12.1,0C12.1,0,12,0,12,0C9.5,0,7,0.8,5,2.2C3,3.7,1.5,5.6,0.7,7.9L0.5,8.5C0.2,9.6,0,10.8,0,12
	c0,3.2,1.3,6.3,3.5,8.5c2.3,2.3,5.5,3.6,8.7,3.5l0.1,0c0,0,0.1,0,0.1,0c0.1,0,0.1,0,0.2,0c2.4-0.1,4.7-0.9,6.6-2.4
	c1.9-1.4,3.3-3.3,4.1-5.5l0.2-0.6c0.3-1.1,0.5-2.3,0.5-3.5C24,8.8,22.8,5.8,20.5,3.6z M21.4,7.3l-3.9,0C17.2,6,16.7,4.7,16,3.6
	C15.7,3,15.4,2.4,15,1.9C17.7,2.7,20.1,4.7,21.4,7.3z M16.6,12.1c0,1-0.1,2.1-0.3,3.1H8.2c-0.2-1-0.3-2.1-0.3-3.1
	C8,11,8.1,9.9,8.2,8.8h8C16.5,9.9,16.6,11,16.6,12.1z M12.1,1.5c0.2,0,0.9,0.4,1.8,1.6L14,3.2c0.9,1.3,1.5,2.6,1.9,4.1H8.6
	c0.4-1.5,1-3,1.9-4.3C11.3,1.9,11.9,1.5,12.1,1.5z M9.6,1.8c-0.4,0.5-0.7,1-1.1,1.6L7.9,4.8C7.5,5.6,7.3,6.4,7,7.3H2.6
	C4,4.5,6.6,2.5,9.6,1.8z M1.5,12c0-1.1,0.2-2.2,0.5-3.2h4.7c-0.2,1-0.3,2-0.3,3c0,1.1,0.1,2.2,0.3,3.3H2C1.7,14.1,1.5,13.1,1.5,12z
	 M2.6,16.7h4.4c0.3,1.4,0.8,2.7,1.5,3.9c0.3,0.6,0.7,1.1,1.1,1.6C6.6,21.5,4,19.5,2.6,16.7z M12.3,22.5c-0.2,0-0.9-0.4-1.7-1.6
	c-0.9-1.3-1.6-2.7-2-4.2H16c-0.4,1.5-1,3-1.9,4.2C13.2,22.2,12.5,22.5,12.3,22.5z M15.1,22c1.1-1.6,2-3.4,2.4-5.3h3.9
	C20.1,19.2,17.8,21.2,15.1,22z M22,15.2h-4.2c0.2-1.1,0.3-2.2,0.3-3.3c0-1-0.1-2-0.3-3H22c0.3,1,0.5,2.1,0.5,3.2
	C22.5,13.1,22.3,14.1,22,15.2z"/>
</svg>
