<?xml version="1.0" encoding="utf-8"?>
<!-- Generator: Adobe Illustrator 24.0.1, SVG Export Plug-In . SVG Version: 6.00 Build 0)  -->
<svg version="1.1" id="Layer_1" xmlns="http://www.w3.org/2000/svg" xmlns:xlink="http://www.w3.org/1999/xlink" x="0px" y="0px"
	 viewBox="0 0 24 24" style="enable-background:new 0 0 24 24;" xml:space="preserve">
<style type="text/css">
	.st0{fill-rule:evenodd;clip-rule:evenodd;}
	.st1{fill:none;}
</style>
<g id="txs" transform="translate(494.5 -3)">
	<path id="Combined-Shape-10" d="M-487.4,25.5c0.4-0.4,0.4-1,0.1-1.4c0,0,0,0,0,0l-3-3.3h16.4c0.6,0,1-0.5,1-1.1c0-0.5-0.5-1-1-1
		h-18.8c-0.6,0-1,0.5-1,1c0,0.3,0.1,0.5,0.3,0.7l4.6,5C-488.4,25.8-487.8,25.9-487.4,25.5C-487.4,25.5-487.4,25.5-487.4,25.5z
		 M-479.1,8.1c-0.4,0.4-0.4,1-0.1,1.4c0,0,0,0,0,0l3,3.3h-16.4c-0.6,0-1,0.5-1,1.1c0,0.5,0.5,1,1,1h18.8c0.6,0,1-0.5,1-1
		c0-0.3-0.1-0.5-0.3-0.7l-4.6-5C-478,7.7-478.6,7.7-479.1,8.1C-479.1,8.1-479.1,8.1-479.1,8.1L-479.1,8.1z"/>
</g>
</svg>
