<?xml version="1.0" encoding="utf-8"?>
<!-- Generator: Adobe Illustrator 24.0.1, SVG Export Plug-In . SVG Version: 6.00 Build 0)  -->
<svg version="1.1" id="Layer_1" xmlns="http://www.w3.org/2000/svg" xmlns:xlink="http://www.w3.org/1999/xlink" x="0px" y="0px"
	 viewBox="0 0 24 24" style="enable-background:new 0 0 24 24;" xml:space="preserve">
<style type="text/css">
	.st0{fill-rule:evenodd;clip-rule:evenodd;}
	.st1{fill:none;}
</style>
<g id="blocks">
	<path id="Shape_2_" d="M11.2,0.5c0.5-0.3,1-0.3,1.5-0.1l0.1,0.1l8.8,5c0.5,0.3,0.8,0.8,0.8,1.3l0,0.1v10c0,0.5-0.3,1.1-0.7,1.4
		l-0.1,0.1l-8.8,5c-0.5,0.3-1,0.3-1.5,0.1l-0.1-0.1l-8.8-5c-0.5-0.3-0.8-0.8-0.8-1.3l0-0.1V7c0-0.5,0.3-1.1,0.7-1.4l0.1-0.1
		L11.2,0.5z M20.6,8.1l-7.7,5.1v8l7.7-4.4V8.1z M3.4,8.1v8.8l7.7,4.4v-8L3.4,8.1z M12,2.2L4.4,6.5l7.6,5.1l7.6-5.1L12,2.2z"/>
</g>
</svg>
