<svg width="21" height="21" viewBox="0 0 21 21" fill="none" xmlns="http://www.w3.org/2000/svg">
<path opacity="0.15" d="M0 10.5C0 16.299 4.70101 21 10.5 21C16.299 21 21 16.299 21 10.5C21 4.70101 16.299 0 10.5 0C4.70101 0 0 4.70101 0 10.5Z" fill="#25D695"/>
<path d="M6.52525 4.925C6.19418 4.925 5.925 5.1943 5.925 5.52513C5.925 5.85633 6.19419 6.12538 6.52525 6.12538C11.1291 6.12538 14.8745 9.87103 14.8745 14.4749C14.8745 14.806 15.1437 15.075 15.4749 15.075C15.8059 15.075 16.0751 14.806 16.0751 14.4749C16.075 9.20902 11.7911 4.925 6.52525 4.925Z" fill="#25D695" stroke="#25D695" stroke-width="0.15"/>
<path d="M7.14799 8.77775C6.7503 8.77775 6.42695 9.1011 6.42695 9.49879C6.42695 9.89635 6.75029 10.2198 7.14799 10.2198C9.37436 10.2198 11.1854 12.031 11.1854 14.257C11.1854 14.6547 11.5087 14.9781 11.9065 14.9781C12.3042 14.9781 12.6274 14.6547 12.6274 14.257C12.6273 11.2358 10.1694 8.77775 7.14799 8.77775Z" fill="#25D695" stroke="#25D695" stroke-width="0.15"/>
<path d="M9.00204 14.6729C9.00204 13.2922 7.88249 12.1729 6.50195 12.1729V14.6729H9.00204Z" fill="#25D695"/>
</svg>
