<svg width="16" height="16" viewBox="0 0 16 16" fill="none" xmlns="http://www.w3.org/2000/svg">
<path d="M0.304688 18.4508V9.5593C0.304688 7.95449 1.06025 6.44357 2.34415 5.48059L8.97175 0.509757C9.41302 0.178808 9.94964 0 10.5012 0C11.0528 0 11.5895 0.178808 12.0307 0.509757L18.6583 5.48059C19.9422 6.44357 20.6978 7.95449 20.6978 9.5593V18.4508C20.6978 19.127 20.4292 19.7752 19.9512 20.2534C19.473 20.7314 18.8246 21 18.1486 21H15.217C14.879 21 14.5549 20.8658 14.3159 20.6266C14.0767 20.3876 13.9425 20.0635 13.9425 19.7255V15.2644C13.9425 14.3196 13.5541 13.4161 12.8681 12.7664C12.1823 12.1165 11.2595 11.777 10.3159 11.828C9.41416 11.908 8.57622 12.3275 7.97175 13.0015C7.36749 13.6756 7.04144 14.5539 7.05979 15.4592V19.7255C7.05979 20.0635 6.92558 20.3876 6.68638 20.6266C6.4474 20.8658 6.12326 21 5.78529 21H2.8537C2.17772 21 1.52927 20.7314 1.05109 20.2534C0.573124 19.7752 0.304688 19.127 0.304688 18.4508Z" fill="#5E6773"/>
</svg>
