<svg width="21" height="21" viewBox="0 0 21 21" fill="none" xmlns="http://www.w3.org/2000/svg" style="transform: scale(1.15); transform-origin: center;">
<path d="M1.70343 15.7686L9.10343 18.9401C9.43337 19.0815 9.8004 18.8394 9.8004 18.4805V9.89089C9.8004 9.69088 9.6812 9.51012 9.49736 9.43132L2.09736 6.25972C1.76742 6.11831 1.40039 6.36032 1.40039 6.71929V15.309C1.40039 15.509 1.51959 15.6898 1.70343 15.7686Z" fill="#5E6773"/>
<path d="M3.54975 5.35951L10.3034 8.25458C10.4292 8.30851 10.5716 8.30851 10.6974 8.25458L17.451 5.35951C17.8551 5.18632 17.855 4.61354 17.451 4.44038L10.6974 1.54584C10.5716 1.49194 10.4292 1.49194 10.3034 1.54584L3.54978 4.44038C3.14575 4.61354 3.14573 5.18632 3.54975 5.35951Z" fill="#5E6773"/>
<path d="M11.8974 18.9401L19.2974 15.7686C19.4812 15.6898 19.6004 15.509 19.6004 15.309V6.71927C19.6004 6.36031 19.2334 6.1183 18.9034 6.2597L11.5034 9.43117C11.3196 9.50996 11.2004 9.69073 11.2004 9.89074V18.4805C11.2004 18.8394 11.5674 19.0815 11.8974 18.9401Z" fill="#5E6773"/>
</svg>
