<?xml version="1.0" encoding="utf-8"?>
<!-- Generator: Adobe Illustrator 24.0.1, SVG Export Plug-In . SVG Version: 6.00 Build 0)  -->
<svg version="1.1" id="Layer_1" xmlns="http://www.w3.org/2000/svg" xmlns:xlink="http://www.w3.org/1999/xlink" x="0px" y="0px"
	 viewBox="0 0 24 24" style="enable-background:new 0 0 24 24;" xml:space="preserve">
<style type="text/css">
	.st0{fill-rule:evenodd;clip-rule:evenodd;}
	.st1{fill:none;}
</style>
<g>
	<path d="M14.3,7.8c0.3-0.1,0.5-0.4,0.5-0.7c0-0.3-0.2-0.6-0.5-0.7C13.6,6.1,12.8,6,12,6c-3.5,0-6,2.5-6,6s2.5,6,6,6
		c0.8,0,1.6-0.1,2.3-0.4c0.3-0.1,0.5-0.4,0.5-0.7c0-0.3-0.2-0.6-0.5-0.7c-1.6-0.6-3.3-2-3.3-4.2S12.7,8.4,14.3,7.8z M9.5,12
		c0,1.8,0.9,3.4,2.3,4.5c-2.5-0.1-4.3-2-4.3-4.5c0-2.5,1.8-4.4,4.3-4.5C10.4,8.6,9.5,10.2,9.5,12z"/>
	<path d="M23.2,10.1l-1.9-1.9V5.5c0-1.5-1.2-2.8-2.8-2.8h-2.7l-1.9-1.9c-1.1-1.1-2.8-1.1-3.9,0L8.2,2.7H5.5c-1.5,0-2.8,1.2-2.8,2.8
		v2.7l-1.9,1.9C0.3,10.6,0,11.3,0,12c0,0.7,0.3,1.4,0.8,1.9l1.9,1.9v2.7c0,1.5,1.2,2.8,2.8,2.8h2.7l1.9,1.9c0.5,0.5,1.2,0.8,1.9,0.8
		c0.7,0,1.4-0.3,1.9-0.8l1.9-1.9h2.7c1.5,0,2.8-1.2,2.8-2.8v-2.7l1.9-1.9c0.5-0.5,0.8-1.2,0.8-1.9C24,11.3,23.7,10.6,23.2,10.1z
		 M22.1,12.9L20,15c-0.1,0.1-0.2,0.3-0.2,0.5v3c0,0.7-0.6,1.3-1.3,1.3h-3c-0.2,0-0.4,0.1-0.5,0.2l-2.1,2.1c-0.5,0.5-1.3,0.5-1.8,0
		L9,20c-0.1-0.1-0.3-0.2-0.5-0.2h-3c-0.7,0-1.3-0.6-1.3-1.3v-3c0-0.2-0.1-0.4-0.2-0.5l-2.1-2.1c-0.2-0.2-0.4-0.6-0.4-0.9
		c0-0.3,0.1-0.6,0.4-0.9L4,9c0.1-0.1,0.2-0.3,0.2-0.5v-3c0-0.7,0.6-1.3,1.3-1.3h3C8.7,4.2,8.9,4.1,9,4l2.1-2.1
		c0.5-0.5,1.3-0.5,1.8,0L15,4c0.1,0.1,0.3,0.2,0.5,0.2h3c0.7,0,1.3,0.6,1.3,1.3v3c0,0.2,0.1,0.4,0.2,0.5l2.1,2.1
		c0.2,0.2,0.4,0.6,0.4,0.9C22.5,12.3,22.4,12.6,22.1,12.9z"/>
</g>
</svg>
