<svg width="21" height="21" viewBox="0 0 21 21" fill="none" xmlns="http://www.w3.org/2000/svg">
<path d="M3.14879 0C2.96286 0.00031248 2.78489 0.0746881 2.65379 0.206564C2.5227 0.338284 2.44942 0.516876 2.4502 0.702805V20.3028V20.3027C2.45083 20.4877 2.52473 20.6649 2.65567 20.7955C2.78661 20.9261 2.96379 20.9997 3.14879 21H17.8488C18.0338 20.9997 18.211 20.9261 18.3419 20.7955C18.4729 20.6648 18.5468 20.4877 18.5474 20.3027V7.70426H12.599C12.2102 7.70582 11.8948 7.39035 11.8963 7.00161V7.78199e-06L3.14879 0ZM13.2972 0.44436V6.30437L18.1808 6.30421L13.2972 0.44436ZM6.9988 10.5H14.0016C14.1863 10.5008 14.3632 10.5743 14.4938 10.705C14.6244 10.8356 14.698 11.0125 14.6988 11.1973C14.6996 11.383 14.6265 11.5612 14.4957 11.693C14.3649 11.8248 14.1872 11.8992 14.0016 11.9H6.99879C6.81223 11.9008 6.63301 11.8269 6.50115 11.695C6.36912 11.563 6.29537 11.3839 6.29615 11.1974C6.29678 11.0116 6.37131 10.8339 6.50303 10.7032C6.63475 10.5724 6.81319 10.4993 6.99883 10.5L6.9988 10.5ZM6.9988 13.3014H14.0016C14.1863 13.302 14.3632 13.3757 14.4938 13.5064C14.6244 13.637 14.698 13.8139 14.6988 13.9986C14.6996 14.1842 14.6265 14.3626 14.4957 14.4944C14.3649 14.6262 14.1872 14.7006 14.0016 14.7014H6.99879C6.81223 14.702 6.63301 14.6283 6.50115 14.4964C6.36912 14.3644 6.29537 14.1852 6.29615 13.9986C6.29678 13.813 6.37131 13.6352 6.50303 13.5045C6.63475 13.3737 6.81319 13.3006 6.99883 13.3014L6.9988 13.3014Z" fill="#5E6773"/>
</svg>
