<svg width="94" height="19" viewBox="0 0 94 19" fill="none" xmlns="http://www.w3.org/2000/svg">
<path d="M8.42666 3.29363C7.00559 3.29363 5.91937 3.82412 5.168 4.8851C4.41663 5.94608 4.04094 7.39881 4.04094 9.24329C4.04094 11.1041 4.38396 12.5487 5.06999 13.577C5.77236 14.589 6.89125 15.095 8.42666 15.095C9.12903 15.095 9.83957 15.0134 10.5583 14.8502C11.277 14.6869 12.0528 14.4584 12.8859 14.1646V17.2741C12.1182 17.5842 11.3586 17.8128 10.6073 17.9597C9.8559 18.1066 9.01469 18.18 8.08364 18.18C6.27055 18.18 4.78415 17.8128 3.62442 17.0782C2.4647 16.3274 1.60715 15.2827 1.05179 13.9443C0.496431 12.5895 0.21875 11.0143 0.21875 9.21881C0.21875 7.45594 0.537266 5.89712 1.1743 4.54232C1.81133 3.18753 2.73421 2.12655 3.94294 1.35938C5.168 0.592204 6.66257 0.208618 8.42666 0.208618C9.29237 0.208618 10.1581 0.322878 11.0238 0.551397C11.9058 0.763594 12.747 1.0574 13.5474 1.43283L12.3469 4.44439C11.6935 4.13425 11.032 3.86493 10.3623 3.63641C9.70889 3.40789 9.06369 3.29363 8.42666 3.29363Z" fill="white"/>
<path d="M28.4618 11.2265C28.4618 13.4464 27.8737 15.1603 26.6977 16.3682C25.538 17.5761 23.9535 18.18 21.9444 18.18C20.7031 18.18 19.5923 17.9107 18.6123 17.372C17.6486 16.8334 16.889 16.0499 16.3337 15.0216C15.7783 13.9769 15.5006 12.7119 15.5006 11.2265C15.5006 9.00661 16.0805 7.30088 17.2402 6.10931C18.3999 4.91775 19.9925 4.32196 22.018 4.32196C23.2757 4.32196 24.3864 4.59129 25.3501 5.12994C26.3138 5.6686 27.0734 6.45209 27.6287 7.48043C28.1841 8.50876 28.4618 9.75746 28.4618 11.2265ZM19.2248 11.2265C19.2248 12.5487 19.4372 13.5525 19.8618 14.2381C20.3029 14.9073 21.0134 15.2419 21.9934 15.2419C22.9572 15.2419 23.6514 14.9073 24.0761 14.2381C24.5171 13.5525 24.7376 12.5487 24.7376 11.2265C24.7376 9.90436 24.5171 8.91684 24.0761 8.26392C23.6514 7.59469 22.949 7.26007 21.9689 7.26007C21.0052 7.26007 20.3029 7.59469 19.8618 8.26392C19.4372 8.91684 19.2248 9.90436 19.2248 11.2265Z" fill="white"/>
<path d="M38.9517 4.32196C39.1314 4.32196 39.3438 4.33013 39.5888 4.34645C39.8338 4.36277 40.0298 4.38726 40.1768 4.4199L39.9073 7.84769C39.7766 7.81504 39.6051 7.79056 39.3928 7.77424C39.1804 7.74159 38.9926 7.72527 38.8292 7.72527C38.2085 7.72527 37.6123 7.83953 37.0406 8.06805C36.469 8.28025 36.0034 8.63119 35.6441 9.12087C35.3011 9.61055 35.1296 10.2798 35.1296 11.1286V17.9352H31.4789V4.56681H34.2475L34.7865 6.81936H34.958C35.3501 6.1338 35.8891 5.54618 36.5751 5.05649C37.2612 4.56681 38.0534 4.32196 38.9517 4.32196Z" fill="white"/>
<path d="M47.6392 4.32196C49.4849 4.32196 50.9468 4.85246 52.0249 5.91344C53.1029 6.9581 53.642 8.45164 53.642 10.394V12.1569H45.0175C45.0502 13.1852 45.3524 13.9932 45.9241 14.5808C46.5121 15.1685 47.3206 15.4623 48.3497 15.4623C49.1991 15.4623 49.9749 15.3807 50.6773 15.2174C51.396 15.0379 52.131 14.7686 52.8824 14.4095V17.2251C52.2127 17.5516 51.5185 17.7883 50.7998 17.9352C50.0811 18.0984 49.2072 18.18 48.1782 18.18C46.8388 18.18 45.6546 17.9352 44.6255 17.4455C43.5965 16.9395 42.7879 16.1886 42.1999 15.193C41.6119 14.1809 41.3178 12.8996 41.3178 11.3489C41.3178 9.79827 41.5792 8.5006 42.1019 7.45594C42.6409 6.41128 43.3841 5.62779 44.3315 5.10546C45.2789 4.58313 46.3814 4.32196 47.6392 4.32196ZM47.6637 6.91729C46.9449 6.91729 46.3569 7.14581 45.8996 7.60285C45.4422 8.05989 45.1727 8.76993 45.091 9.73298H50.2118C50.1954 8.93316 49.9749 8.26392 49.5502 7.72527C49.1419 7.18662 48.513 6.91729 47.6637 6.91729Z" fill="white"/>
<path d="M68.8773 4.56681V17.9352H66.0842L65.5941 16.2213H65.3981C64.9734 16.9068 64.3854 17.4047 63.634 17.7148C62.899 18.025 62.115 18.18 61.2819 18.18C59.8445 18.18 58.693 17.7964 57.8273 17.0293C56.9615 16.2458 56.5287 14.9971 56.5287 13.2832V4.56681H60.1794V12.3773C60.1794 13.3403 60.3509 14.0667 60.6939 14.5564C61.0369 15.0297 61.5841 15.2664 62.3355 15.2664C63.4462 15.2664 64.2057 14.891 64.6141 14.1401C65.0224 13.373 65.2266 12.2793 65.2266 10.8592V4.56681H68.8773Z" fill="white"/>
<path d="M88.4103 4.32196C89.9294 4.32196 91.0728 4.71371 91.8405 5.49721C92.6245 6.26438 93.0166 7.50491 93.0166 9.21881V17.9352H89.3659V10.1247C89.3659 8.19863 88.6962 7.23559 87.3568 7.23559C86.3931 7.23559 85.707 7.57837 85.2987 8.26392C84.8903 8.94948 84.6861 9.93701 84.6861 11.2265V17.9352H81.0355V10.1247C81.0355 8.19863 80.3658 7.23559 79.0264 7.23559C78.0136 7.23559 77.3113 7.61917 76.9193 8.38634C76.5436 9.13719 76.3557 10.2227 76.3557 11.6427V17.9352H72.7051V4.56681H75.4982L75.9882 6.2807H76.1842C76.5926 5.59514 77.1479 5.0973 77.8503 4.78717C78.569 4.47703 79.3122 4.32196 80.0799 4.32196C81.06 4.32196 81.8848 4.48519 82.5545 4.81165C83.2406 5.12178 83.7714 5.61147 84.1471 6.2807H84.4656C84.874 5.59514 85.4375 5.0973 86.1562 4.78717C86.8913 4.47703 87.6426 4.32196 88.4103 4.32196Z" fill="white"/>
</svg>
