<svg width="120" height="24" viewBox="0 0 120 24" fill="none" xmlns="http://www.w3.org/2000/svg">
<path d="M34.4267 6.29351C33.0056 6.29351 31.9194 6.824 31.168 7.88498C30.4166 8.94596 30.0409 10.3987 30.0409 12.2432C30.0409 14.104 30.384 15.5485 31.07 16.5769C31.7724 17.5889 32.8913 18.0949 34.4267 18.0949C35.129 18.0949 35.8396 18.0133 36.5583 17.8501C37.277 17.6868 38.0528 17.4583 38.8859 17.1645V20.274C38.1182 20.5841 37.3586 20.8126 36.6073 20.9595C35.8559 21.1065 35.0147 21.1799 34.0836 21.1799C32.2706 21.1799 30.7841 20.8126 29.6244 20.0781C28.4647 19.3273 27.6072 18.2826 27.0518 16.9441C26.4964 15.5893 26.2188 14.0142 26.2188 12.2187C26.2188 10.4558 26.5373 8.89699 27.1743 7.5422C27.8113 6.18741 28.7342 5.12643 29.9429 4.35925C31.168 3.59208 32.6626 3.2085 34.4267 3.2085C35.2924 3.2085 36.1581 3.32276 37.0238 3.55127C37.9058 3.76347 38.747 4.05728 39.5474 4.43271L38.3469 7.44426C37.6935 7.13413 37.032 6.8648 36.3623 6.63628C35.7089 6.40777 35.0637 6.29351 34.4267 6.29351Z" fill="white"/>
<path d="M54.4618 14.2264C54.4618 16.4463 53.8737 18.1602 52.6977 19.3681C51.538 20.576 49.9535 21.1799 47.9444 21.1799C46.7031 21.1799 45.5923 20.9106 44.6123 20.3719C43.6486 19.8333 42.889 19.0498 42.3337 18.0214C41.7783 16.9768 41.5006 15.7118 41.5006 14.2264C41.5006 12.0065 42.0805 10.3008 43.2402 9.10919C44.3999 7.91762 45.9925 7.32184 48.018 7.32184C49.2757 7.32184 50.3864 7.59117 51.3501 8.12982C52.3138 8.66848 53.0734 9.45197 53.6287 10.4803C54.1841 11.5086 54.4618 12.7573 54.4618 14.2264ZM45.2248 14.2264C45.2248 15.5485 45.4372 16.5524 45.8618 17.2379C46.3029 17.9072 47.0134 18.2418 47.9934 18.2418C48.9572 18.2418 49.6514 17.9072 50.0761 17.2379C50.5171 16.5524 50.7376 15.5485 50.7376 14.2264C50.7376 12.9042 50.5171 11.9167 50.0761 11.2638C49.6514 10.5946 48.949 10.2599 47.9689 10.2599C47.0052 10.2599 46.3029 10.5946 45.8618 11.2638C45.4372 11.9167 45.2248 12.9042 45.2248 14.2264Z" fill="white"/>
<path d="M64.9517 7.32184C65.1314 7.32184 65.3438 7.33 65.5888 7.34633C65.8338 7.36265 66.0298 7.38713 66.1768 7.41978L65.9073 10.8476C65.7766 10.8149 65.6051 10.7904 65.3928 10.7741C65.1804 10.7415 64.9926 10.7251 64.8292 10.7251C64.2085 10.7251 63.6123 10.8394 63.0406 11.0679C62.469 11.2801 62.0034 11.6311 61.6441 12.1207C61.3011 12.6104 61.1296 13.2797 61.1296 14.1285V20.9351H57.4789V7.56669H60.2475L60.7865 9.81923H60.958C61.3501 9.13368 61.8891 8.54605 62.5751 8.05637C63.2612 7.56668 64.0534 7.32184 64.9517 7.32184Z" fill="white"/>
<path d="M73.6392 7.32184C75.4849 7.32184 76.9468 7.85233 78.0249 8.91332C79.1029 9.95798 79.642 11.4515 79.642 13.3939V15.1568H71.0175C71.0502 16.1851 71.3524 16.9931 71.9241 17.5807C72.5121 18.1683 73.3206 18.4622 74.3497 18.4622C75.1991 18.4622 75.9749 18.3805 76.6773 18.2173C77.396 18.0378 78.131 17.7684 78.8824 17.4093V20.225C78.2127 20.5515 77.5185 20.7882 76.7998 20.9351C76.0811 21.0983 75.2072 21.1799 74.1782 21.1799C72.8388 21.1799 71.6546 20.9351 70.6255 20.4454C69.5965 19.9394 68.7879 19.1885 68.1999 18.1928C67.6119 17.1808 67.3178 15.8995 67.3178 14.3488C67.3178 12.7981 67.5792 11.5005 68.1019 10.4558C68.6409 9.41116 69.3841 8.62767 70.3315 8.10534C71.2789 7.58301 72.3814 7.32184 73.6392 7.32184ZM73.6637 9.91717C72.9449 9.91717 72.3569 10.1457 71.8996 10.6027C71.4422 11.0598 71.1727 11.7698 71.091 12.7329H76.2118C76.1954 11.933 75.9749 11.2638 75.5502 10.7251C75.1419 10.1865 74.513 9.91717 73.6637 9.91717Z" fill="white"/>
<path d="M94.8773 7.56669V20.9351H92.0842L91.5941 19.2212H91.3981C90.9734 19.9067 90.3854 20.4046 89.634 20.7147C88.899 21.0248 88.115 21.1799 87.2819 21.1799C85.8445 21.1799 84.693 20.7963 83.8273 20.0291C82.9615 19.2457 82.5287 17.997 82.5287 16.2831V7.56669H86.1794V15.3771C86.1794 16.3402 86.3509 17.0666 86.6939 17.5562C87.0369 18.0296 87.5841 18.2663 88.3355 18.2663C89.4462 18.2663 90.2057 17.8909 90.6141 17.14C91.0224 16.3728 91.2266 15.2792 91.2266 13.8591V7.56669H94.8773Z" fill="white"/>
<path d="M114.41 7.32184C115.929 7.32184 117.073 7.71359 117.841 8.49709C118.625 9.26426 119.017 10.5048 119.017 12.2187V20.9351H115.366V13.1246C115.366 11.1985 114.696 10.2355 113.357 10.2355C112.393 10.2355 111.707 10.5782 111.299 11.2638C110.89 11.9494 110.686 12.9369 110.686 14.2264V20.9351H107.035V13.1246C107.035 11.1985 106.366 10.2355 105.026 10.2355C104.014 10.2355 103.311 10.6191 102.919 11.3862C102.544 12.1371 102.356 13.2225 102.356 14.6426V20.9351H98.7051V7.56669H101.498L101.988 9.28058H102.184C102.593 8.59502 103.148 8.09718 103.85 7.78704C104.569 7.47691 105.312 7.32184 106.08 7.32184C107.06 7.32184 107.885 7.48507 108.555 7.81153C109.241 8.12166 109.771 8.61134 110.147 9.28058H110.466C110.874 8.59502 111.438 8.09718 112.156 7.78704C112.891 7.47691 113.643 7.32184 114.41 7.32184Z" fill="white"/>
<path d="M8.48633 9C7.89299 9 7.31297 9.17595 6.81962 9.50559C6.32627 9.83523 5.94175 10.3038 5.71469 10.8519C5.48763 11.4001 5.42822 12.0033 5.54397 12.5853C5.65973 13.1672 5.94545 13.7018 6.36501 14.1213C6.78457 14.5409 7.31911 14.8266 7.90106 14.9424C8.483 15.0581 9.0862 14.9987 9.63438 14.7716C10.1826 14.5446 10.6511 14.1601 10.9807 13.6667C11.3104 13.1734 11.4863 12.5933 11.4863 12C11.4863 11.2043 11.1703 10.4413 10.6076 9.87868C10.045 9.31607 9.28198 9 8.48633 9Z" fill="#25D695"/>
<path d="M8.4855 9.06757e-06C6.90933 -0.00193127 5.34832 0.30755 3.89211 0.910677C2.43591 1.5138 1.11321 2.39869 0 3.51451L4.245 7.75951C5.08387 6.91979 6.15296 6.34774 7.31701 6.11574C8.48106 5.88374 9.68777 6.0022 10.7845 6.45615C11.8812 6.9101 12.8186 7.67913 13.4782 8.66596C14.1377 9.65278 14.4898 10.8131 14.4898 12C14.4898 13.1869 14.1377 14.3472 13.4782 15.3341C12.8186 16.3209 11.8812 17.0899 10.7845 17.5439C9.68777 17.9978 8.48106 18.1163 7.31701 17.8843C6.15296 17.6523 5.08387 17.0802 4.245 16.2405L0 20.4855C1.39543 21.8809 3.11343 22.9105 5.00185 23.4833C6.89027 24.0562 8.89081 24.1544 10.8263 23.7694C12.7617 23.3844 14.5724 22.528 16.0978 21.2761C17.6232 20.0242 18.8164 18.4154 19.5716 16.5923C20.3268 14.7691 20.6207 12.7878 20.4273 10.824C20.2339 8.86008 19.5591 6.9742 18.4628 5.33337C17.3665 3.69254 15.8825 2.34741 14.1421 1.41712C12.4018 0.486821 10.4589 8.09751e-05 8.4855 9.06757e-06Z" fill="#25D695"/>
</svg>
