<svg width="160" height="162" viewBox="0 0 160 162" fill="none" xmlns="http://www.w3.org/2000/svg">
<circle cx="78.4587" cy="79.1272" r="69.1032" fill="url(#paint0_radial_802_6742)"/>
<path d="M74.3673 115.277C93.2492 119.082 111.614 106.728 115.386 87.682C119.159 68.6364 106.91 50.1123 88.0284 46.3072C69.1466 42.5021 50.7817 54.8569 47.0093 73.9025C43.2369 92.948 55.4855 111.472 74.3673 115.277Z" fill="url(#paint1_linear_802_6742)"/>
<path d="M71.5744 114.714C90.4562 118.519 108.821 106.164 112.593 87.1185C116.366 68.073 104.117 49.5489 85.2354 45.7438C66.3536 41.9387 47.9887 54.2935 44.2163 73.339C40.444 92.3845 52.6926 110.909 71.5744 114.714Z" fill="url(#paint2_linear_802_6742)"/>
<path d="M64.5072 106.297C78.7808 114.038 96.573 108.642 104.247 94.2445C111.921 79.8471 106.571 61.9006 92.2978 54.1599C78.0242 46.4192 60.232 51.8155 52.5578 66.2129C44.8837 80.6103 50.2336 98.5567 64.5072 106.297Z" fill="url(#paint3_linear_802_6742)"/>
<g filter="url(#filter0_b_802_6742)">
<path d="M111.153 64.1221C111.501 64.7454 111.855 65.3686 112.17 66.0198C128.4 66.6895 139.257 69.2337 139.585 73.1266C139.895 76.8547 130.468 80.9716 115.708 84.2691C105.894 86.4605 93.7269 88.2909 80.484 89.4016C67.2411 90.5124 54.9417 90.7329 44.9007 90.206C29.7999 89.4132 19.8192 86.9236 19.509 83.1955C19.1837 79.3003 29.4805 74.9825 45.3858 71.6177C45.5884 70.9329 45.799 70.2539 46.0398 69.5842C18.3398 74.7817 -0.611188 82.8276 0.0150697 90.2849C0.651746 97.9187 21.6019 102.748 50.8334 103.066C60.3257 103.17 70.6965 102.799 81.5293 101.892C92.3621 100.984 102.638 99.6226 111.983 97.9454C140.758 92.7653 160.622 84.5129 159.985 76.8779C159.36 69.4124 139.336 64.6339 111.153 64.1221Z" fill="white" fill-opacity="0.07"/>
</g>
<g opacity="0.5">
<path opacity="0.75" d="M6.53906 46.9666C4.70634 47.4317 3.70359 48.5503 3.31086 50.4912C2.84482 48.5697 1.91798 47.3708 -0.0011441 47.0054C1.79493 46.4655 2.9443 45.4355 3.28205 43.406C3.7219 45.3773 4.71943 46.5181 6.53906 46.9666ZM3.303 45.5711C2.91027 46.0225 2.43638 46.5679 2.09602 46.9583C2.46518 47.3653 2.95477 47.8997 3.42604 48.4174C3.79259 48.0076 4.27958 47.4622 4.64875 47.0524C4.15653 46.5098 3.69049 45.9975 3.303 45.5711Z" fill="url(#paint4_linear_802_6742)"/>
<path d="M113.363 115.901C112.448 116.116 111.945 116.632 111.75 117.528C111.517 116.643 111.055 116.088 110.093 115.919C110.99 115.671 111.566 115.195 111.735 114.258C111.955 115.17 112.453 115.693 113.363 115.901ZM111.745 115.258C111.548 115.466 111.312 115.719 111.141 115.898C111.325 116.086 111.571 116.334 111.807 116.572C111.991 116.382 112.235 116.131 112.419 115.941C112.17 115.691 111.937 115.456 111.745 115.258Z" fill="url(#paint5_linear_802_6742)"/>
<path opacity="0.25" d="M76.3041 26.5105C74.4981 26.5105 73.034 27.9745 73.034 29.7806C73.034 31.5866 74.4981 33.0507 76.3041 33.0507C78.1101 33.0507 79.5742 31.5866 79.5742 29.7806C79.5742 27.9745 78.1101 26.5105 76.3041 26.5105Z" stroke="url(#paint6_linear_802_6742)" stroke-width="0.5" stroke-miterlimit="10"/>
<path opacity="0.5" d="M18.4476 109.652L22.1875 110.919L23.4543 107.179L19.7144 105.912L18.4476 109.652Z" stroke="url(#paint7_linear_802_6742)" stroke-width="0.5" stroke-miterlimit="10"/>
<path d="M104.622 47.748C104.622 47.748 114.522 48.5857 112.564 38.8592C112.05 33.5729 101.466 35.6809 103.202 40.6824C104.391 44.0058 107.107 43.784 108.505 42.8943C109.903 42.0046 109.727 39.664 108.634 38.9988C107.544 38.3336 105.561 39.1904 105.575 40.1321C105.589 41.0738 106.305 42.0347 107.063 41.7911" stroke="#7C7C7C" stroke-miterlimit="10"/>
<path opacity="0.75" d="M95.924 134.676C95.924 134.676 95.6393 146.143 106.79 143.209C112.888 142.248 109.706 130.2 104.023 132.546C100.25 134.147 100.698 137.262 101.826 138.813C102.953 140.364 105.657 139.995 106.353 138.692C107.05 137.389 105.917 135.163 104.825 135.246C103.736 135.328 102.669 136.218 103.003 137.075" stroke="#7C7C7C" stroke-miterlimit="10"/>
<path d="M40.332 131.6C40.332 131.6 39.1057 138.328 33.0477 135.255C29.657 133.949 32.9498 127.303 35.9326 129.369C37.9093 130.766 37.2731 132.529 36.4383 133.297C35.6009 134.064 34.0918 133.52 33.8498 132.672C33.6078 131.825 34.5296 130.664 35.1468 130.846C35.764 131.027 36.2698 131.677 35.9734 132.136" stroke="#7C7C7C" stroke-miterlimit="10"/>
<path opacity="0.5" d="M38.6101 47.7661C38.6101 47.7661 27.2229 45.773 32.4257 35.9292C34.6364 30.4199 45.8817 35.7682 42.3863 40.6149C40.0227 43.8249 37.0389 42.7927 35.7403 41.4358C34.4417 40.0763 35.3649 37.6213 36.797 37.228C38.2291 36.8347 40.1923 38.3314 39.8864 39.3346C39.5805 40.3377 38.4794 41.1587 37.7035 40.6756" stroke="#7C7C7C" stroke-miterlimit="10"/>
<path opacity="0.25" d="M137.353 108.659C137.353 108.659 136.81 101.518 144.277 103.021C148.342 103.442 146.611 111.047 142.777 109.749C140.23 108.861 140.428 106.905 141.127 105.906C141.825 104.907 143.625 105.056 144.128 105.849C144.628 106.643 143.947 108.062 143.225 108.044C142.501 108.025 141.768 107.498 141.963 106.956" stroke="#7C7C7C" stroke-miterlimit="10"/>
</g>
<defs>
<filter id="filter0_b_802_6742" x="-2" y="62.1221" width="164" height="42.9611" filterUnits="userSpaceOnUse" color-interpolation-filters="sRGB">
<feFlood flood-opacity="0" result="BackgroundImageFix"/>
<feGaussianBlur in="BackgroundImage" stdDeviation="1"/>
<feComposite in2="SourceAlpha" operator="in" result="effect1_backgroundBlur_802_6742"/>
<feBlend mode="normal" in="SourceGraphic" in2="effect1_backgroundBlur_802_6742" result="shape"/>
</filter>
<radialGradient id="paint0_radial_802_6742" cx="0" cy="0" r="1" gradientUnits="userSpaceOnUse" gradientTransform="translate(78.4587 79.1272) rotate(90) scale(69.1032)">
<stop stop-color="#999999" stop-opacity="0.15"/>
<stop offset="0.848111" stop-color="#1B1D23" stop-opacity="0"/>
</radialGradient>
<linearGradient id="paint1_linear_802_6742" x1="91.9759" y1="82.9642" x2="152.939" y2="95.0394" gradientUnits="userSpaceOnUse">
<stop stop-color="#1D222C"/>
<stop offset="0.99" stop-color="#2B3138"/>
</linearGradient>
<linearGradient id="paint2_linear_802_6742" x1="98.8906" y1="111.21" x2="55.8697" y2="47.2523" gradientUnits="userSpaceOnUse">
<stop offset="0.0349894" stop-color="#191D26"/>
<stop offset="0.99" stop-color="#2B3138"/>
</linearGradient>
<linearGradient id="paint3_linear_802_6742" x1="62.0706" y1="50.2602" x2="112.291" y2="182.861" gradientUnits="userSpaceOnUse">
<stop stop-color="#2E333E"/>
<stop offset="0.519038" stop-color="#1F262E"/>
</linearGradient>
<linearGradient id="paint4_linear_802_6742" x1="6.53943" y1="46.9482" x2="0.0012645" y2="46.9482" gradientUnits="userSpaceOnUse">
<stop stop-color="#F2F2F2"/>
<stop offset="0.8992" stop-color="#DBDBDB"/>
</linearGradient>
<linearGradient id="paint5_linear_802_6742" x1="113.363" y1="115.894" x2="110.093" y2="115.894" gradientUnits="userSpaceOnUse">
<stop stop-color="#F2F2F2"/>
<stop offset="0.8992" stop-color="#DBDBDB"/>
</linearGradient>
<linearGradient id="paint6_linear_802_6742" x1="79.8437" y1="29.7819" x2="72.7629" y2="29.7819" gradientUnits="userSpaceOnUse">
<stop stop-color="#F2F2F2"/>
<stop offset="0.8992" stop-color="#DBDBDB"/>
</linearGradient>
<linearGradient id="paint7_linear_802_6742" x1="23.6482" y1="109.331" x2="18.2523" y2="107.504" gradientUnits="userSpaceOnUse">
<stop stop-color="#F2F2F2"/>
<stop offset="0.8992" stop-color="#DBDBDB"/>
</linearGradient>
</defs>
</svg>
