<svg width="36" height="36" viewBox="0 0 36 36" fill="none" xmlns="http://www.w3.org/2000/svg">
<rect width="36" height="36" rx="4" fill="#6D6ACF"/>
<path d="M26.3169 16.2381C26.2345 16.0627 26.0582 15.9507 25.8643 15.9507H10.1366C9.94286 15.9507 9.76652 16.0627 9.68411 16.2381L7 21.9507H29L26.3169 16.2381ZM24.1602 19.8653H11.8398C11.3053 19.9395 10.8186 19.5141 10.7533 18.9159C10.687 18.3178 11.0671 17.7729 11.6015 17.6999C11.6803 17.6895 11.761 17.6895 11.8398 17.6999H24.1602C24.6947 17.6257 25.1814 18.0511 25.2467 18.6493C25.313 19.2474 24.9329 19.7923 24.3985 19.8653C24.3197 19.8757 24.24 19.8757 24.1602 19.8653Z" fill="#E1E0FF"/>
<path d="M14.156 7H21.6065C22.5205 7 23.2625 7.74093 23.2625 8.65601V19.1969H12.5V8.65601C12.5 7.74093 13.2409 7 14.156 7Z" fill="#F4F2FF"/>
<path d="M7 21.9502V29.4502C7 29.7263 7.22386 29.9502 7.5 29.9502H28.5C28.7761 29.9502 29 29.7263 29 29.4502V21.9502H7ZM26.3072 26.9877C26.3072 27.2639 26.0834 27.4877 25.8072 27.4877H10.1938C9.91767 27.4877 9.69381 27.2639 9.69381 26.9877V24.914C9.69381 24.6379 9.91767 24.414 10.1938 24.414H25.8072C26.0834 24.414 26.3072 24.6379 26.3072 24.914V26.9877Z" fill="#AEABFF"/>
<circle cx="18" cy="13" r="4" fill="#6D6ACF"/>
<path d="M20.4038 11.0664C20.3155 10.978 20.1723 10.9778 20.0841 11.066L17.3713 13.7717L16.3925 12.7086C16.3079 12.6168 16.1649 12.6109 16.073 12.6955C15.9811 12.78 15.9752 12.9231 16.0598 13.015L17.198 14.2511C17.2396 14.2964 17.298 14.3227 17.3595 14.324C17.3611 14.324 17.3627 14.324 17.3643 14.324C17.4241 14.324 17.4816 14.3003 17.524 14.2581L20.4034 11.3862C20.4919 11.2981 20.492 11.1548 20.4038 11.0664Z" fill="#F4F2FF"/>
</svg>
