<svg width="28" height="28" viewBox="0 0 28 28" fill="none" xmlns="http://www.w3.org/2000/svg">
<g clip-path="url(#clip0)">
<path d="M13.9746 28C21.7066 28 27.9746 21.732 27.9746 14C27.9746 6.26801 21.7066 0 13.9746 0C6.24262 0 -0.0253906 6.26801 -0.0253906 14C-0.0253906 21.732 6.24262 28 13.9746 28Z" fill="#4520E6"/>
<path fill-rule="evenodd" clip-rule="evenodd" d="M18.8833 17.0902C18.8833 18.5335 17.7313 19.7074 16.3151 19.7074H11.391L16.5084 14.4926C17.833 14.5954 18.8833 15.7144 18.8833 17.0902ZM10.7395 14.1667V8.13707H16.476C16.574 8.13707 16.6707 8.14245 16.7659 8.1531L10.7395 14.1667ZM20.0437 10.8006C20.0437 9.58456 19.4477 8.50581 18.5335 7.84289L21.0007 5.3667L19.5248 5.37514L17.5646 7.34238C17.2018 7.22006 16.8136 7.15374 16.4103 7.15374H9.66214V16.7467L17.7866 8.59252C18.5183 9.05383 19.0058 9.87118 19.0058 10.8006C19.0058 12.2371 17.8416 13.4057 16.4103 13.4057H16.1954L7.15625 22.4778H8.62381L10.396 20.6992H16.4103C18.4137 20.6992 20.0437 19.0633 20.0437 17.0526C20.0437 15.7265 19.3325 14.567 18.2753 13.9287C19.3336 13.2905 20.0437 12.1274 20.0437 10.8006Z" fill="white"/>
</g>
<defs>
<clipPath id="clip0">
<rect width="28" height="28" fill="white"/>
</clipPath>
</defs>
</svg>
