<svg width="132" height="40" viewBox="0 0 132 40" fill="none" xmlns="http://www.w3.org/2000/svg">
<g clip-path="url(#clip0)">
<path d="M20 39.9999C8.97204 39.9999 0 31.0279 0 20H3.44611C3.44611 29.1281 10.8727 36.5547 20.0008 36.5547L20 39.9999Z" fill="#CBF7EE"/>
<path d="M131.668 20H128.222C128.223 10.8715 120.797 3.44611 111.668 3.44611V0C122.696 0 131.668 8.97164 131.668 20Z" fill="#CBF7EE"/>
<path d="M32.7422 6.39954H36.8982L43.7665 21.963L50.8399 6.39954H54.3773V27.0332H50.9291V13.1795L44.7667 27.0332H42.232L36.1907 13.1795V27.0332H32.7422V6.39954Z" fill="#CBF7EE"/>
<path d="M71.6421 19.841C71.6421 24.115 68.3703 27.328 64.1551 27.328C59.9399 27.328 56.6953 24.115 56.6953 19.841C56.6953 15.5671 59.9387 12.3245 64.1551 12.3245C68.3715 12.3245 71.6421 15.5683 71.6421 19.841ZM59.9399 19.841C59.9399 22.2878 61.7676 24.1742 64.1563 24.1742C66.5451 24.1742 68.4007 22.2878 68.4007 19.841C68.4007 17.3651 66.5439 15.4787 64.1563 15.4787C61.7688 15.4787 59.9399 17.3651 59.9399 19.841Z" fill="#CBF7EE"/>
<path d="M87.5515 18.8093V27.0333H84.2501V19.3388C84.2501 17.01 82.8944 15.5951 80.8604 15.5951C79.3867 15.5951 77.9717 16.3614 77.2351 17.5995V27.0333H73.9629V12.6193H77.2339V14.5653C78.1177 13.18 79.8286 12.325 81.653 12.325C85.2524 12.325 87.5515 14.8301 87.5515 18.8093Z" fill="#CBF7EE"/>
<path d="M103.976 20.6074H93.0105C93.364 22.9361 94.9565 24.3511 97.2845 24.3511C98.9062 24.3511 100.379 23.6436 101.057 22.5234L103.681 24.2039C102.619 26.1499 100.203 27.3285 97.2253 27.3285C93.0693 27.3285 89.7383 24.0567 89.7383 19.7531C89.7383 15.5683 93.0105 12.325 97.1665 12.325C101.059 12.325 104.094 15.3316 104.094 19.1928C104.094 19.576 104.064 20.1651 103.976 20.6074ZM100.645 18.1018C100.468 16.3038 98.9645 15.0364 96.9897 15.0364C95.0149 15.0364 93.6291 16.217 93.1264 18.1018H100.645Z" fill="#CBF7EE"/>
<path d="M119.066 12.6193L110.931 32.1032H107.393L109.988 26.2651L104.271 12.6177H107.808L111.67 22.4334L115.531 12.6177L119.066 12.6193Z" fill="#CBF7EE"/>
<path d="M27.0048 18.1023C26.494 14.7798 23.6763 12.325 20.1613 12.325C16.5712 12.325 13.6424 14.7457 12.9111 18.1027H9.7832V20.6082H12.7789C13.1871 24.4824 16.3466 27.3285 20.2205 27.3285C23.1971 27.3285 25.6126 26.1491 26.6752 24.2039L24.0517 22.5238C23.3743 23.644 21.9001 24.3511 20.2788 24.3511C17.9505 24.3511 16.3588 22.9365 16.0053 20.6082H29.3295L30.1566 18.1027L27.0048 18.1023ZM19.9845 15.0368C21.9593 15.0368 23.4622 16.3038 23.6394 18.1023H16.1228C16.6239 16.217 18.0097 15.0368 19.9845 15.0368Z" fill="#CBF7EE"/>
</g>
<defs>
<clipPath id="clip0">
<rect width="131.668" height="40" fill="white"/>
</clipPath>
</defs>
</svg>
