<svg width="592" height="160" viewBox="0 0 592 160" fill="none" xmlns="http://www.w3.org/2000/svg">
<path fill-rule="evenodd" clip-rule="evenodd" d="M72.7511 0.795352C70.9143 -0.265118 68.6513 -0.265117 66.8145 0.795353L2.9683 37.657C1.13151 38.7174 0 40.6773 0 42.7982V116.521C0 118.642 1.13151 120.602 2.9683 121.663L28.8234 136.59V100.573V79.5507V61.8443C28.8234 59.7838 29.8919 57.8706 31.6462 56.7899L49.2978 45.9158L66.6584 35.2209C68.5677 34.0447 70.9767 34.0447 72.886 35.2209L90.2466 45.9158L107.898 56.7899C109.653 57.8706 110.721 59.7838 110.721 61.8443V79.5507V97.2571C110.721 99.3176 109.653 101.231 107.898 102.312L90.2466 113.186L72.886 123.881C71.2228 124.905 69.5506 123.213 69.5506 121.259V107.236C69.5506 105.325 71.2587 103.861 72.886 102.859L87.4238 93.9028C89.1781 92.822 90.2466 90.9089 90.2466 88.8483V74.4575C90.2466 72.3969 89.1781 70.4837 87.4238 69.403L72.886 60.4471C70.9767 59.2709 68.5677 59.2709 66.6584 60.4471L52.1206 69.403C50.3663 70.4837 49.2978 72.3969 49.2978 74.4575V84.8973C49.2978 84.9019 49.2941 84.9056 49.2895 84.9056C49.2849 84.9056 49.2812 84.9094 49.2812 84.914V128.827C49.2812 128.831 49.2849 128.835 49.2895 128.835C49.2941 128.835 49.2978 128.839 49.2978 128.843V147.599C49.2978 147.866 49.2809 148.127 49.2482 148.382L66.8145 158.524C68.6513 159.585 70.9143 159.585 72.7511 158.524L136.597 121.663C138.434 120.602 139.566 118.642 139.566 116.521V42.7982C139.566 40.6773 138.434 38.7174 136.597 37.657L72.7511 0.795352Z" fill="#4E7FDC"/>
<path d="M183.743 69.6904H195.354V55.4049H208.27C218.381 55.4049 225.491 49.7951 225.491 39.7496C225.491 29.7693 218.25 24.029 208.27 24.029H183.743V69.6904ZM195.354 45.4899V33.9441H207.422C211.14 33.9441 213.88 35.4444 213.88 39.6191C213.88 43.6634 210.814 45.4899 207.291 45.4899H195.354ZM229.329 69.6904H240.614V54.6222C240.614 47.9034 243.745 44.6419 249.224 44.6419C251.116 44.6419 252.421 44.8376 254.443 45.2942L256.4 35.2487C254.508 34.7268 252.616 34.4007 250.203 34.4007C246.159 34.4007 242.571 35.6401 240.092 38.445H239.962V35.1182H229.329V69.6904ZM276.775 70.9298C288.451 70.9298 296.866 63.1021 296.866 52.4043C296.866 41.7065 288.451 33.8789 276.775 33.8789C265.099 33.8789 256.684 41.7065 256.684 52.4043C256.684 63.1021 265.099 70.9298 276.775 70.9298ZM276.775 61.08C271.361 61.08 267.969 57.3619 267.969 52.4043C267.969 47.3816 271.361 43.7287 276.775 43.7287C282.124 43.7287 285.581 47.3816 285.581 52.4043C285.581 57.3619 282.124 61.08 276.775 61.08ZM311.889 69.6904H322.717L339.677 35.1182H327.023L317.369 56.84H317.238L307.649 35.1182H294.994L311.889 69.6904ZM358.245 70.9298C365.42 70.9298 370.639 68.7772 375.336 64.4068L369.073 57.2314C365.616 60.4929 362.224 62.0585 358.637 62.0585C353.092 62.0585 349.83 59.7102 349.504 55.7963H377.358V52.4696C377.358 41.9022 369.4 33.8789 357.919 33.8789C346.699 33.8789 338.35 41.837 338.35 52.4696C338.35 63.624 346.047 70.9298 358.245 70.9298ZM349.569 48.36C350.026 44.8376 353.418 42.4241 358.049 42.4241C362.811 42.4241 365.942 44.6419 366.399 48.36H349.569ZM381.895 69.6904H393.18V51.8173C393.18 47.1207 396.637 43.9896 401.855 43.9896C407.139 43.9896 410.074 46.7945 410.074 51.8173V69.6904H421.359V50.5779C421.359 40.7281 414.641 34.1398 404.53 34.1398C400.029 34.1398 395.919 35.5748 392.919 38.3145H392.788V35.1182H381.895V69.6904ZM438.739 70.6689C443.827 70.6689 447.936 69.1034 450.545 66.2332H450.676V69.6904H460.917V48.1643C460.917 39.3582 454.264 33.8789 443.566 33.8789C434.172 33.8789 426.671 38.9668 425.432 46.2074L435.738 48.0339C436.521 44.381 439.587 42.1631 443.892 42.1631C447.219 42.1631 449.436 43.4025 449.436 45.2942C449.436 46.9902 447.545 47.9034 441.087 48.8166C430.063 50.317 425.497 53.6437 425.497 59.9711C425.497 66.4941 430.65 70.6689 438.739 70.6689ZM441.217 61.9932C437.956 61.9932 436.39 61.1452 436.39 59.384C436.39 57.6228 438.152 56.7095 443.37 55.6659C447.545 54.8179 449.176 54.1656 449.893 53.1219H450.024V56.5791C450.024 59.5145 446.044 61.9932 441.217 61.9932ZM466.491 69.6904H477.776V51.8173C477.776 47.1207 481.233 43.9896 486.451 43.9896C491.735 43.9896 494.67 46.7945 494.67 51.8173V69.6904H505.955V50.5779C505.955 40.7281 499.236 34.1398 489.126 34.1398C484.625 34.1398 480.515 35.5748 477.515 38.3145H477.384V35.1182H466.491V69.6904ZM529.662 70.9298C538.794 70.9298 546.165 65.9071 548.187 58.536L537.685 55.3397C536.576 58.9274 533.771 61.08 529.662 61.08C524.704 61.08 521.247 57.5575 521.247 52.4043C521.247 47.1859 524.704 43.7287 529.662 43.7287C533.771 43.7287 536.642 45.9465 537.685 49.469L548.187 46.2727C546.165 38.9016 538.794 33.8789 529.662 33.8789C518.377 33.8789 509.962 41.7065 509.962 52.4043C509.962 63.1021 518.377 70.9298 529.662 70.9298ZM570.754 70.9298C577.929 70.9298 583.148 68.7772 587.844 64.4068L581.582 57.2314C578.125 60.4929 574.733 62.0585 571.145 62.0585C565.601 62.0585 562.339 59.7102 562.013 55.7963H589.867V52.4696C589.867 41.9022 581.909 33.8789 570.428 33.8789C559.208 33.8789 550.859 41.837 550.859 52.4696C550.859 63.624 558.556 70.9298 570.754 70.9298ZM562.078 48.36C562.535 44.8376 565.927 42.4241 570.558 42.4241C575.32 42.4241 578.451 44.6419 578.908 48.36H562.078Z" fill="#282A2B"/>
<path d="M183.743 132.206H207.422C219.49 132.206 225.36 127.575 225.36 118.051C225.36 113.354 222.947 109.441 219.098 107.549V107.418C221.968 105.657 223.73 102.591 223.73 98.8732C223.73 91.6326 217.859 86.5447 209.64 86.5447H183.743V132.206ZM195.159 104.222V96.3292H207.552C210.618 96.3292 212.184 97.7643 212.184 100.243C212.184 102.852 210.618 104.222 207.552 104.222H195.159ZM195.159 122.421V113.093H208.596C212.118 113.093 213.88 114.724 213.88 117.66C213.88 120.856 212.249 122.421 208.596 122.421H195.159ZM233.647 132.206H244.932V84.5877H233.647V132.206ZM273.066 133.445C284.742 133.445 293.157 125.618 293.157 114.92C293.157 104.222 284.742 96.3945 273.066 96.3945C261.389 96.3945 252.975 104.222 252.975 114.92C252.975 125.618 261.389 133.445 273.066 133.445ZM273.066 123.596C267.651 123.596 264.259 119.877 264.259 114.92C264.259 109.897 267.651 106.244 273.066 106.244C278.414 106.244 281.872 109.897 281.872 114.92C281.872 119.877 278.414 123.596 273.066 123.596ZM319.615 133.445C328.747 133.445 336.118 128.423 338.14 121.052L327.638 117.855C326.529 121.443 323.724 123.596 319.615 123.596C314.657 123.596 311.2 120.073 311.2 114.92C311.2 109.702 314.657 106.244 319.615 106.244C323.724 106.244 326.594 108.462 327.638 111.985L338.14 108.788C336.118 101.417 328.747 96.3945 319.615 96.3945C308.33 96.3945 299.915 104.222 299.915 114.92C299.915 125.618 308.33 133.445 319.615 133.445ZM346.128 132.206H357.413V123.139L363.284 118.312H363.414L374.177 132.206H387.484L370.851 111.658L387.289 97.6339H371.829L357.543 110.223H357.413V84.5877H346.128V132.206ZM409.037 133.445C418.169 133.445 425.54 128.423 427.563 121.052L417.06 117.855C415.951 121.443 413.147 123.596 409.037 123.596C404.08 123.596 400.622 120.073 400.622 114.92C400.622 109.702 404.08 106.244 409.037 106.244C413.147 106.244 416.017 108.462 417.06 111.985L427.563 108.788C425.54 101.417 418.169 96.3945 409.037 96.3945C397.752 96.3945 389.337 104.222 389.337 114.92C389.337 125.618 397.752 133.445 409.037 133.445ZM435.55 132.206H446.835V114.333C446.835 109.636 450.292 106.505 455.511 106.505C460.795 106.505 463.73 109.31 463.73 114.333V132.206H475.015V112.18C475.015 102.983 468.231 96.6554 458.185 96.6554C453.684 96.6554 449.901 98.0905 446.966 100.83H446.835V84.5877H435.55V132.206ZM496.145 133.185C501.233 133.185 505.343 131.619 507.952 128.749H508.082V132.206H518.324V110.68C518.324 101.874 511.67 96.3945 500.972 96.3945C491.579 96.3945 484.077 101.482 482.838 108.723L493.145 110.55C493.927 106.897 496.993 104.679 501.298 104.679C504.625 104.679 506.843 105.918 506.843 107.81C506.843 109.506 504.951 110.419 498.493 111.332C487.469 112.833 482.903 116.159 482.903 122.487C482.903 129.01 488.057 133.185 496.145 133.185ZM498.624 124.509C495.362 124.509 493.797 123.661 493.797 121.9C493.797 120.138 495.558 119.225 500.776 118.181C504.951 117.333 506.582 116.681 507.3 115.637H507.43V119.095C507.43 122.03 503.451 124.509 498.624 124.509ZM527.322 92.2849H538.607V81.7176H527.322V92.2849ZM527.387 132.206H538.672V97.6339H527.387V132.206ZM548.28 132.206H559.565V114.333C559.565 109.636 563.022 106.505 568.241 106.505C573.524 106.505 576.46 109.31 576.46 114.333V132.206H587.744V113.093C587.744 103.244 581.026 96.6554 570.915 96.6554C566.414 96.6554 562.305 98.0905 559.304 100.83H559.173V97.6339H548.28V132.206Z" fill="#282A2B"/>
</svg>
