<?xml version="1.0" encoding="utf-8"?>
<svg viewBox="0 0 228 52" fill="none" xmlns="http://www.w3.org/2000/svg">
<path d="M39.5579 3.42818L41.7888 10.371L44.5775 7.33169V2.07419L39.3577 0L35.0388 3.47139L39.5579 3.42818Z" fill="#B18F45"/>
<path d="M40.4162 14.1315L37.7991 5.94995H30.7345L32.565 11.726H23.4696V51.9999L46.966 32.3527L40.4162 14.1315ZM30.2482 26.7927V23.0332L35.4967 20.9158L36.2689 23.2925L30.2482 26.7927Z" fill="#B18F45"/>
<path d="M7.38033 3.42818L5.14939 10.371L2.36072 7.33169V2.07419L7.58055 0L11.8994 3.47139L7.38033 3.42818Z" fill="#CAA93A"/>
<path d="M14.3867 11.726L16.2172 5.94995H9.16688L6.54981 14.1315L0 32.3671L23.4678 51.9999V11.726H14.3867ZM16.7035 26.7927L10.6828 23.2925L11.455 20.9158L16.7035 23.0332V26.7927V26.7927Z" fill="#CAA93A"/>
<path d="M67.6981 4.20225H76.368C78.0538 4.11796 79.7155 4.63574 81.0762 5.64723C82.2442 6.57442 82.9186 7.99532 82.8584 9.48846C82.8704 10.3916 82.6175 11.2826 82.1118 12.0413C81.606 12.8119 80.8956 13.414 80.0768 13.8114C81.0883 14.1846 81.9914 14.8228 82.6657 15.6657C83.3039 16.4846 83.6411 17.484 83.629 18.5196C83.6772 20.1211 82.9788 21.6383 81.7385 22.6498C80.3056 23.7456 78.5355 24.2995 76.7413 24.2032H67.7102L67.6981 4.20225ZM76.1874 6.743H70.6965V12.6795H76.1874C77.1507 12.7276 78.102 12.4507 78.8726 11.8847C80.0768 10.8612 80.2092 9.05497 79.1857 7.86286C79.0894 7.75449 78.981 7.64611 78.8726 7.54978C78.0899 6.98383 77.1507 6.69484 76.1874 6.743ZM76.5004 21.6624C77.5721 21.7226 78.6198 21.3975 79.4747 20.7593C80.7872 19.6635 80.9678 17.7128 79.8721 16.4003C79.7517 16.2558 79.6192 16.1233 79.4747 16.0029C78.6198 15.3527 77.5721 15.0396 76.5004 15.0878H70.6965V21.6624H76.5004Z" fill="#CAA93A"/>
<path d="M87.4703 24.2031V4.20215H90.4687V24.2031H87.4703Z" fill="#CAA93A"/>
<path d="M114.804 14.4613C114.816 15.8219 114.563 17.1826 114.046 18.447C113.564 19.6271 112.866 20.7108 111.975 21.638C111.083 22.5411 110.012 23.2636 108.844 23.7573C107.603 24.2751 106.279 24.54 104.942 24.5279C103.533 24.54 102.149 24.263 100.848 23.7332C98.3436 22.7217 96.3567 20.7469 95.3091 18.2664C93.6715 14.377 94.5385 9.88549 97.5127 6.8992C98.464 5.95996 99.5838 5.21339 100.812 4.71969C102.113 4.17782 103.497 3.91291 104.906 3.92495C106.447 3.91291 107.977 4.22599 109.398 4.84011C110.758 5.4181 111.987 6.28508 112.974 7.3929L110.915 9.35566C110.168 8.50072 109.253 7.8264 108.218 7.36882C107.182 6.91124 106.05 6.67041 104.918 6.67041C103.919 6.65837 102.931 6.86308 102.016 7.23636C101.137 7.59761 100.342 8.13947 99.6681 8.82584C99.0058 9.5122 98.476 10.331 98.1268 11.2221C97.7535 12.1734 97.5609 13.1849 97.5729 14.2084C97.5609 15.2319 97.7535 16.2434 98.1509 17.1947C98.5121 18.0857 99.042 18.9046 99.7042 19.5909C100.367 20.2773 101.173 20.8192 102.052 21.1924C102.98 21.5898 103.979 21.7825 104.978 21.7825C106.64 21.8186 108.254 21.2527 109.506 20.1689C110.734 19.1334 111.505 17.6643 111.661 16.0748H104.99V13.4377H114.804V14.4613Z" fill="#CAA93A"/>
<path d="M125.401 24.203V4.20207H132.469C133.902 4.19003 135.323 4.4429 136.66 4.96068C137.9 5.4303 139.032 6.14075 140.007 7.04386C140.958 7.93493 141.717 9.03071 142.223 10.2349C142.765 11.4992 143.03 12.8599 143.018 14.2326C143.03 15.5933 142.753 16.954 142.223 18.2063C141.705 19.3984 140.958 20.4701 140.019 21.3612C139.056 22.2643 137.912 22.9748 136.672 23.4444C135.335 23.9622 133.902 24.215 132.469 24.203H125.401ZM132.505 6.88732H128.387V21.5177H132.505C133.505 21.5177 134.492 21.3371 135.419 20.9638C136.298 20.6146 137.105 20.0848 137.78 19.4225C138.442 18.7602 138.972 17.9775 139.333 17.1105C139.718 16.2074 139.911 15.22 139.911 14.2447C139.923 13.2452 139.718 12.2578 139.333 11.3427C138.972 10.4636 138.442 9.66891 137.78 9.00663C137.117 8.32026 136.31 7.79044 135.431 7.44123C134.504 7.06795 133.505 6.88732 132.505 6.88732Z" fill="#CAA93A"/>
<path d="M146.907 24.2031V4.20215H149.905V24.2031H146.907Z" fill="#CAA93A"/>
<path d="M154.312 24.2028V4.21393H163.572C165.306 4.14169 167.004 4.73172 168.305 5.8877C169.509 6.99552 170.171 8.57295 170.123 10.2106C170.171 11.8362 169.509 13.4016 168.293 14.4974C166.992 15.6293 165.306 16.2313 163.572 16.1591H157.311V24.2148L154.312 24.2028ZM163.259 6.83898H157.311V13.6063H163.259C164.271 13.6545 165.27 13.3293 166.053 12.6791C166.751 12.0529 167.137 11.1498 167.101 10.2106C167.137 9.27136 166.751 8.36825 166.053 7.75413C165.27 7.10389 164.271 6.77877 163.259 6.83898Z" fill="#CAA93A"/>
<path d="M173.519 24.2028V4.21393H182.779C184.513 4.14169 186.211 4.73172 187.511 5.8877C188.715 6.99552 189.377 8.57295 189.329 10.2106C189.377 11.8362 188.715 13.4016 187.499 14.4974C186.198 15.6293 184.513 16.2313 182.779 16.1591H176.517V24.2148L173.519 24.2028ZM182.478 6.83898H176.529V13.6063H182.478C183.489 13.6545 184.489 13.3293 185.271 12.6791C185.97 12.0529 186.355 11.1498 186.319 10.2106C186.355 9.27136 185.97 8.36825 185.271 7.75413C184.477 7.10389 183.489 6.77877 182.478 6.83898Z" fill="#CAA93A"/>
<path d="M192.809 24.2031V4.20215H207.56V6.82719H195.808V12.8239H203.526V15.3887H195.808V21.5539H207.668V24.179L192.809 24.2031Z" fill="#CAA93A"/>
<path d="M211.546 24.2027V4.20178H220.637C222.395 4.11749 224.117 4.70753 225.454 5.83943C227.597 7.85035 227.91 11.1497 226.188 13.5219C225.417 14.4973 224.37 15.2197 223.19 15.593L227.645 24.1907H224.334L220.191 15.9904H214.556V24.1907L211.546 24.2027ZM220.384 6.83887H214.544V13.5219H220.372C221.396 13.5701 222.395 13.2449 223.19 12.5947C224.526 11.3785 224.623 9.31942 223.419 7.97077C223.346 7.89852 223.274 7.81423 223.19 7.74198C222.395 7.11582 221.396 6.7907 220.384 6.83887Z" fill="#CAA93A"/>
<path d="M72.0499 47.95C74.1534 47.95 75.7703 46.4116 75.7703 44.0883C75.7703 41.8277 74.2162 40.1166 72.0499 40.1166C70.8882 40.1166 69.915 40.6347 69.3341 41.5452H69.3184V36.302H68.0469V47.8558H69.2556V46.4744H69.287C69.8522 47.3849 70.794 47.95 72.0499 47.95ZM71.8772 46.7883C70.4173 46.7883 69.2556 45.7052 69.2556 44.0883C69.2556 42.5185 70.3074 41.2783 71.8615 41.2783C73.3057 41.2783 74.4831 42.3929 74.4831 44.0883C74.4831 45.6267 73.4156 46.7883 71.8772 46.7883Z" fill="#CAA93A"/>
<path d="M78.7213 50.964H80.04L84.3727 40.2108H83.0383L80.7307 46.0191H80.6993L78.219 40.2108H76.8376L80.0871 47.5576L78.7213 50.964Z" fill="#CAA93A"/>
<path d="M90.8013 47.8558H92.167V43.115H97.0334V41.8748H92.167V37.9503H97.9125V36.7102H90.8013V47.8558Z" fill="#CAA93A"/>
<path d="M105.067 47.95C108.191 47.95 110.624 45.6738 110.624 42.283C110.624 38.8765 108.191 36.6003 105.067 36.6003C101.817 36.6003 99.4625 38.9707 99.4625 42.283C99.4625 45.5953 101.817 47.95 105.067 47.95ZM105.067 46.6628C102.649 46.6628 100.891 44.7947 100.891 42.283C100.891 39.7556 102.649 37.8875 105.067 37.8875C107.374 37.8875 109.195 39.6928 109.195 42.283C109.195 44.8575 107.374 46.6628 105.067 46.6628Z" fill="#CAA93A"/>
<path d="M113.374 47.8558H114.74V43.6016H116.733L119.685 47.8558H121.317L118.24 43.476C119.999 43.115 121.019 42.0318 121.019 40.1637C121.019 38.1858 119.904 36.7102 117.33 36.7102H113.374V47.8558ZM114.74 42.3615V37.9503H117.142C118.68 37.9503 119.606 38.7038 119.606 40.1323C119.606 41.4196 118.806 42.3615 116.953 42.3615H114.74Z" fill="#CAA93A"/>
<path d="M123.917 47.8558H127.983C130.51 47.8558 131.703 46.6 131.703 44.8261C131.703 43.2092 130.683 42.2673 129.38 42.0004V41.969C130.589 41.5452 131.154 40.5091 131.154 39.4259C131.154 37.5265 129.725 36.7102 127.559 36.7102H123.917V47.8558ZM125.283 41.5138V37.9503L127.418 37.9346C129.05 37.9346 129.757 38.6253 129.757 39.6928C129.757 41.0428 128.721 41.5138 127.575 41.5138H125.283ZM125.283 46.6157V42.7068H127.653C129.38 42.7068 130.275 43.4603 130.275 44.7162C130.275 46.0034 129.317 46.6157 127.857 46.6157H125.283Z" fill="#CAA93A"/>
<path d="M139.317 47.95C142.441 47.95 144.874 45.6738 144.874 42.283C144.874 38.8765 142.441 36.6003 139.317 36.6003C136.067 36.6003 133.713 38.9707 133.713 42.283C133.713 45.5953 136.067 47.95 139.317 47.95ZM139.317 46.6628C136.899 46.6628 135.141 44.7947 135.141 42.283C135.141 39.7556 136.899 37.8875 139.317 37.8875C141.624 37.8875 143.445 39.6928 143.445 42.283C143.445 44.8575 141.624 46.6628 139.317 46.6628Z" fill="#CAA93A"/>
<path d="M147.624 47.8558H154.5V46.6157H148.99V36.7102H147.624V47.8558Z" fill="#CAA93A"/>
<path d="M156.833 47.8558H163.992V46.6157H158.199V42.9266H162.673V41.6865H158.199V37.9503H163.662V36.7102H156.833V47.8558Z" fill="#CAA93A"/>
</svg>
