<?xml version="1.0" encoding="utf-8"?>
<!-- Generator: Adobe Illustrator 24.3.0, SVG Export Plug-In . SVG Version: 6.00 Build 0)  -->
<svg version="1.1" id="home" xmlns="http://www.w3.org/2000/svg" xmlns:xlink="http://www.w3.org/1999/xlink" x="0px" y="0px"
	 viewBox="0 0 175.81 36.11" style="enable-background:new 0 0 175.81 36.11;" xml:space="preserve">
<style type="text/css">
	.st0{fill:none;}
	.st1{stroke:#000000;stroke-width:0.14;stroke-miterlimit:10;}
	.st2{fill:#FD3B4C;}
	.st3{fill-rule:evenodd;clip-rule:evenodd;fill:#F4863B;}
	.st4{fill:#FFFFFF;}
	.st5{fill-rule:evenodd;clip-rule:evenodd;fill:#5C7BFC;}
	.st6{fill-rule:evenodd;clip-rule:evenodd;fill:#FEB92B;}
	.st7{fill-rule:evenodd;clip-rule:evenodd;fill:#3EAF66;}
	.st8{fill:#8F4DDB;}
	.st9{fill:#1D1E22;}
	.st10{fill:#FD565F;}
	.st11{fill:#25282D;}
	.st12{fill:#E6E6E6;}
	.st13{fill-rule:evenodd;clip-rule:evenodd;fill:#FD3B4C;}
	.st14{fill-rule:evenodd;clip-rule:evenodd;fill:#FFFFFF;}
	.st15{fill:#12B263;}
	.st16{fill:#3EAF66;}
	.st17{fill:#DC001A;}
	.st18{fill:#F6504B;}
</style>
<g>
	<polygon class="st12" points="29.23,7.21 31.19,5.09 31.19,1.45 27.54,0 24.52,2.41 27.68,2.39 	"/>
	<path class="st12" d="M26.44,4.14H21.5l1.28,4.02h-6.35v27.96l16.43-13.64L28.27,9.82L26.44,4.14z M21.16,18.6v-2.61l3.67-1.47
		l0.54,1.65L21.16,18.6z"/>
	<polygon class="st12" points="5.17,2.39 8.34,2.41 5.32,0 1.67,1.45 1.67,5.09 3.62,7.21 	"/>
	<path class="st12" d="M11.35,4.14H6.42L4.58,9.82L0,22.47l16.43,13.64V8.15l-6.35,0L11.35,4.14z M11.69,15.99v2.61l-4.21-2.43
		l0.54-1.65L11.69,15.99z"/>
	<path class="st12" d="M53.26,18c0.68-0.32,1.27-0.83,1.69-1.46c0.41-0.63,0.63-1.37,0.62-2.12c0.04-1.24-0.51-2.42-1.48-3.19
		c-1.12-0.84-2.5-1.27-3.91-1.2h-7.2l0.01,16.61h7.5c1.49,0.07,2.97-0.38,4.16-1.29c1.03-0.83,1.61-2.1,1.57-3.43
		c0.01-0.86-0.27-1.7-0.8-2.37C54.85,18.84,54.11,18.31,53.26,18z M45.47,12.14h4.56c0.8-0.04,1.59,0.19,2.23,0.66
		c0.09,0.08,0.18,0.17,0.26,0.26c0.85,1,0.73,2.49-0.26,3.34c-0.65,0.47-1.43,0.71-2.23,0.66h-4.56V12.14z M52.76,23.78
		c-0.71,0.53-1.58,0.79-2.47,0.75h-4.82v-5.46h4.82c0.89-0.05,1.76,0.22,2.47,0.76c0.12,0.1,0.23,0.21,0.33,0.33
		C54,21.25,53.85,22.87,52.76,23.78z"/>
	<rect x="59.4" y="10.03" class="st12" width="2.49" height="16.61"/>
	<path class="st12" d="M73.96,19.89h5.54c-0.13,1.32-0.78,2.54-1.79,3.4c-1.05,0.9-2.39,1.37-3.76,1.34
		c-0.84,0.01-1.66-0.16-2.43-0.49c-0.73-0.31-1.39-0.76-1.95-1.33c-0.56-0.58-0.99-1.25-1.29-1.99c-0.32-0.79-0.48-1.63-0.47-2.48
		c-0.01-0.85,0.15-1.69,0.46-2.48c0.29-0.74,0.73-1.42,1.28-1.99c0.55-0.57,1.22-1.01,1.95-1.32c0.76-0.32,1.58-0.48,2.41-0.47
		c0.94,0,1.88,0.2,2.74,0.58c0.86,0.38,1.63,0.94,2.24,1.65l1.71-1.66c-0.82-0.91-1.84-1.64-2.97-2.12
		c-1.18-0.51-2.45-0.77-3.73-0.76c-1.17-0.01-2.32,0.22-3.4,0.66c-1.02,0.42-1.96,1.04-2.74,1.82c-2.47,2.49-3.19,6.21-1.83,9.44
		c0.86,2.07,2.52,3.7,4.59,4.54c1.08,0.45,2.23,0.67,3.4,0.66c1.11,0.01,2.22-0.21,3.24-0.64c0.97-0.41,1.86-1,2.6-1.75
		c0.74-0.76,1.32-1.66,1.72-2.65c0.43-1.05,0.64-2.18,0.63-3.31v-0.85h-8.15V19.89z"/>
	<path class="st12" d="M103.02,12.39c-0.81-0.75-1.75-1.34-2.78-1.73c-1.11-0.43-2.29-0.64-3.48-0.63H90.9v16.6l5.86,0
		c1.19,0.01,2.38-0.2,3.49-0.63c1.03-0.39,1.97-0.98,2.78-1.73c0.78-0.74,1.4-1.63,1.83-2.62c0.45-1.04,0.68-2.17,0.67-3.3
		c0.01-1.14-0.22-2.27-0.67-3.32C104.44,14.04,103.81,13.14,103.02,12.39z M102.48,20.74c-0.3,0.72-0.74,1.37-1.29,1.92
		c-0.56,0.55-1.23,0.99-1.96,1.28c-0.77,0.31-1.59,0.47-2.42,0.46h-3.42V12.26h3.42v0c0.83,0,1.65,0.15,2.42,0.46
		c0.73,0.29,1.4,0.73,1.96,1.28c0.55,0.56,0.99,1.22,1.29,1.95c0.32,0.76,0.48,1.58,0.47,2.41
		C102.97,19.17,102.8,19.99,102.48,20.74z"/>
	<rect x="108.77" y="10.03" class="st12" width="2.49" height="16.61"/>
	<path class="st12" d="M122.61,10.03h-7.69v16.6l2.49,0v-6.69h5.2c1.43,0.06,2.84-0.43,3.92-1.38c1.01-0.9,1.56-2.21,1.52-3.56
		c0.05-1.36-0.5-2.67-1.51-3.59C125.46,10.47,124.05,9.97,122.61,10.03z M124.66,17.06c-0.65,0.54-1.47,0.81-2.32,0.77h-4.94v-5.62
		h4.94c0.84-0.04,1.66,0.23,2.32,0.76c0.58,0.51,0.9,1.26,0.87,2.04C125.56,15.79,125.24,16.54,124.66,17.06z"/>
	<path class="st12" d="M138.56,10.03h-7.69v16.6l2.49,0v-6.69h5.2c1.43,0.06,2.84-0.43,3.92-1.38c1.01-0.9,1.56-2.21,1.52-3.56
		c0.05-1.36-0.5-2.67-1.51-3.59C141.41,10.47,140,9.97,138.56,10.03z M140.62,17.06c-0.65,0.54-1.47,0.81-2.31,0.77h-4.94v-5.62
		h4.94h0c0.84-0.04,1.66,0.23,2.31,0.76c0.58,0.51,0.9,1.26,0.87,2.04C141.52,15.79,141.2,16.54,140.62,17.06z"/>
	<polygon class="st12" points="149.38,19.33 155.79,19.33 155.79,17.2 149.38,17.2 149.38,12.21 159.14,12.21 159.14,10.03 
		146.89,10.03 146.89,26.64 159.23,26.64 159.23,24.45 149.38,24.45 	"/>
	<path class="st12" d="M172.11,19.5c0.99-0.31,1.86-0.91,2.49-1.72c1.44-1.98,1.18-4.71-0.6-6.38c-1.11-0.94-2.54-1.43-4-1.36h-7.55
		v16.61l2.49,0v-6.81h4.68l3.44,6.81h2.75L172.11,19.5z M164.93,17.77v-5.55h4.85v0c0.84-0.04,1.67,0.23,2.33,0.76
		c0.06,0.06,0.13,0.12,0.19,0.19c1.01,1.11,0.92,2.83-0.19,3.84c-0.66,0.54-1.49,0.81-2.34,0.77H164.93z"/>
</g>
</svg>
