<?xml version="1.0" encoding="utf-8"?>
<!-- Generator: Adobe Illustrator 24.3.0, SVG Export Plug-In . SVG Version: 6.00 Build 0)  -->
<svg version="1.1" id="home" xmlns="http://www.w3.org/2000/svg" xmlns:xlink="http://www.w3.org/1999/xlink" x="0px" y="0px"
	 viewBox="0 0 175.81 36.11" style="enable-background:new 0 0 175.81 36.11;" xml:space="preserve">
<style type="text/css">
	.st0{fill:none;}
	.st1{stroke:#000000;stroke-width:0.14;stroke-miterlimit:10;}
	.st2{fill:#FD3B4C;}
	.st3{fill-rule:evenodd;clip-rule:evenodd;fill:#F4863B;}
	.st4{fill:#FFFFFF;}
	.st5{fill-rule:evenodd;clip-rule:evenodd;fill:#5C7BFC;}
	.st6{fill-rule:evenodd;clip-rule:evenodd;fill:#FEB92B;}
	.st7{fill-rule:evenodd;clip-rule:evenodd;fill:#3EAF66;}
	.st8{fill:#8F4DDB;}
	.st9{fill:#1D1E22;}
	.st10{fill:#FD565F;}
	.st11{fill:#25282D;}
	.st12{fill:#E6E6E6;}
	.st13{fill-rule:evenodd;clip-rule:evenodd;fill:#FD3B4C;}
	.st14{fill-rule:evenodd;clip-rule:evenodd;fill:#FFFFFF;}
	.st15{fill:#12B263;}
	.st16{fill:#3EAF66;}
	.st17{fill:#DC001A;}
	.st18{fill:#F6504B;}
</style>
<g>
	<g id="Group_20765_1_" transform="translate(11.553 9.938)">
		<path id="Path_45208_3_" class="st17" d="M16.12-7.55l1.56,4.82l1.95-2.11v-3.65l-3.65-1.44l-3.02,2.41L16.12-7.55z"/>
		<path id="Path_45209_3_" class="st17" d="M16.72-0.12L16.72-0.12L14.89-5.8H9.95l1.28,4.01H4.87v27.96L21.3,12.53L16.72-0.12z
			 M9.61,8.67V6.06l3.67-1.47l0.54,1.65L9.61,8.67z"/>
		<path id="Path_45210_3_" class="st18" d="M-6.38-7.55l-1.56,4.82l-1.95-2.11v-3.65l3.65-1.44l3.02,2.41L-6.38-7.55z"/>
		<path id="Path_45211_3_" class="st18" d="M-1.48-1.79L-0.2-5.8h-4.93l-1.83,5.68l0,0l-4.58,12.66L4.87,26.17V-1.79L-1.48-1.79z
			 M0.14,8.67l-4.21-2.43l0.54-1.65l3.67,1.47V8.67z"/>
	</g>
	<g id="Group_20766_1_" transform="translate(54.536 19.708)">
		<path id="Path_45212_1_" class="st18" d="M-11.55-9.68h7.2c1.4-0.07,2.78,0.36,3.91,1.2c0.97,0.77,1.53,1.95,1.48,3.19
			c0.01,0.75-0.2,1.49-0.62,2.12C0-2.53-0.59-2.03-1.27-1.7c0.84,0.31,1.59,0.84,2.15,1.54c0.53,0.68,0.81,1.51,0.8,2.37
			C1.72,3.54,1.14,4.8,0.11,5.64c-1.19,0.91-2.66,1.37-4.15,1.29h-7.5L-11.55-9.68z M-4.5-7.57h-4.56v4.93h4.56
			c0.8,0.04,1.59-0.19,2.23-0.66c1-0.85,1.11-2.35,0.26-3.34C-2.09-6.73-2.18-6.82-2.27-6.9C-2.92-7.37-3.7-7.61-4.5-7.57z
			 M-4.24,4.82c0.89,0.05,1.76-0.22,2.47-0.75c1.09-0.91,1.24-2.53,0.33-3.62c-0.1-0.12-0.21-0.23-0.33-0.33
			c-0.71-0.54-1.58-0.8-2.47-0.76h-4.82v5.46H-4.24z"/>
		<path id="Path_45213_1_" class="st18" d="M4.87,6.93V-9.68h2.49V6.93H4.87z"/>
		<path id="Path_45214_1_" class="st18" d="M27.57-1.16c0.01,1.13-0.2,2.26-0.63,3.31c-0.4,0.98-0.98,1.88-1.72,2.65
			c-0.74,0.75-1.63,1.35-2.6,1.76c-1.03,0.43-2.13,0.65-3.24,0.64c-1.17,0.01-2.32-0.22-3.4-0.66c-2.08-0.84-3.73-2.48-4.6-4.54
			c-1.36-3.23-0.64-6.96,1.83-9.44c0.79-0.78,1.72-1.4,2.74-1.81c1.08-0.45,2.23-0.67,3.4-0.66c1.28-0.01,2.55,0.25,3.73,0.76
			c1.13,0.48,2.15,1.2,2.97,2.12L24.34-5.4c-0.62-0.71-1.38-1.27-2.24-1.65c-0.86-0.38-1.8-0.58-2.74-0.58
			c-0.83-0.01-1.65,0.16-2.41,0.47c-0.73,0.3-1.39,0.75-1.95,1.32c-0.55,0.57-0.99,1.25-1.28,1.99c-0.31,0.79-0.47,1.63-0.46,2.48
			c-0.01,0.85,0.15,1.69,0.48,2.48c0.3,0.74,0.74,1.42,1.29,1.99c0.55,0.57,1.22,1.02,1.95,1.33c0.77,0.33,1.6,0.49,2.43,0.49
			c1.38,0.03,2.72-0.44,3.76-1.34c1.02-0.86,1.66-2.08,1.79-3.4h-5.54v-2.19h8.15V-1.16z"/>
		<path id="Path_45215_1_" class="st18" d="M36.37,6.93V-9.68h5.87c1.19-0.01,2.37,0.2,3.48,0.63c1.03,0.39,1.97,0.98,2.78,1.73
			c0.79,0.74,1.42,1.65,1.84,2.65c0.45,1.05,0.67,2.18,0.66,3.32c0.01,1.13-0.22,2.26-0.66,3.3c-0.43,0.99-1.05,1.88-1.83,2.62
			c-0.8,0.75-1.75,1.34-2.78,1.73c-1.11,0.43-2.3,0.64-3.49,0.63L36.37,6.93z M42.27-7.45h-3.42V4.7h3.42
			c0.83,0,1.65-0.15,2.42-0.46c0.73-0.29,1.4-0.73,1.96-1.28c0.55-0.55,0.99-1.2,1.29-1.92c0.32-0.75,0.48-1.57,0.48-2.38
			c0.01-0.83-0.16-1.65-0.48-2.41c-0.3-0.73-0.74-1.39-1.29-1.94C46.1-6.26,45.43-6.7,44.7-6.99C43.93-7.3,43.1-7.45,42.27-7.45
			L42.27-7.45z"/>
		<path id="Path_45216_1_" class="st18" d="M54.23,6.93V-9.68h2.49V6.93H54.23z"/>
		<path id="Path_45217_1_" class="st18" d="M60.38,6.93v-16.6h7.69c1.44-0.06,2.85,0.43,3.93,1.39c1,0.92,1.55,2.23,1.51,3.59
			c0.04,1.35-0.51,2.65-1.52,3.56c-1.08,0.94-2.48,1.44-3.92,1.38h-5.2v6.69L60.38,6.93z M67.81-7.49h-4.94v5.62h4.94
			c0.84,0.04,1.67-0.23,2.32-0.77c0.58-0.52,0.9-1.27,0.87-2.05c0.03-0.78-0.29-1.53-0.87-2.04C69.48-7.27,68.65-7.54,67.81-7.49z"
			/>
		<path id="Path_45218_1_" class="st18" d="M76.33,6.93v-16.6h7.69c1.44-0.06,2.85,0.43,3.93,1.39c1,0.92,1.55,2.23,1.51,3.59
			c0.04,1.35-0.51,2.65-1.52,3.56c-1.08,0.94-2.48,1.44-3.92,1.38h-5.2v6.69L76.33,6.93z M83.77-7.49h-4.94v5.62h4.94
			c0.84,0.04,1.67-0.23,2.32-0.77c0.58-0.52,0.9-1.27,0.87-2.05c0.03-0.78-0.29-1.53-0.87-2.04C85.43-7.27,84.61-7.54,83.77-7.49
			L83.77-7.49z"/>
		<path id="Path_45219_1_" class="st18" d="M92.35,6.93V-9.68h12.25v2.18h-9.76v4.98h6.41v2.13h-6.41v5.12h9.85v2.18L92.35,6.93z"/>
		<path id="Path_45220_1_" class="st18" d="M107.91,6.93V-9.68h7.55c1.46-0.07,2.89,0.42,4,1.36c1.78,1.67,2.04,4.41,0.61,6.38
			c-0.64,0.81-1.51,1.41-2.49,1.72l3.7,7.14h-2.75l-3.44-6.81h-4.68v6.81L107.91,6.93z M115.25-7.49h-4.85v5.55h4.84
			c0.85,0.04,1.68-0.23,2.34-0.77c1.11-1.01,1.19-2.72,0.19-3.84c-0.06-0.06-0.12-0.13-0.19-0.19
			C116.92-7.26,116.09-7.53,115.25-7.49L115.25-7.49z"/>
	</g>
</g>
</svg>
