<svg width="21" height="21" viewBox="0 0 21 21" fill="none" xmlns="http://www.w3.org/2000/svg">
<path fill-rule="evenodd" clip-rule="evenodd" d="M2.65543 0.207121C2.7862 0.075247 2.96401 0.00087302 3.14978 0.000248028L12.6004 0C12.8082 0.000467994 13.0053 0.0932787 13.1379 0.253121L18.3879 6.55223C18.4922 6.67863 18.549 6.83769 18.548 7.00175V20.3024C18.5474 20.4872 18.4736 20.6642 18.343 20.795C18.2123 20.9256 18.0352 20.9994 17.8504 21H3.14978C2.96496 20.9994 2.78793 20.9256 2.65715 20.795C2.52653 20.6642 2.45278 20.4872 2.45215 20.3024V0.703034C2.45152 0.517273 2.5245 0.338839 2.65543 0.207121ZM11.8981 1.40055H3.85257V19.6047H17.148V7.70474H12.6008C12.2121 7.70614 11.8965 7.39069 11.8981 7.00195V1.40055ZM13.2984 2.63477V6.30431H16.356L13.2984 2.63477Z" fill="#5E6773"/>
<path d="M6.99798 10.4973C6.81236 10.4981 6.63455 10.5726 6.50391 10.7043C6.37313 10.8361 6.3 11.0145 6.30079 11.2001C6.30141 11.3848 6.37516 11.5617 6.50578 11.6923C6.63641 11.823 6.81328 11.8967 6.99798 11.8973H14.0007C14.1854 11.8967 14.3622 11.823 14.4929 11.6923C14.6235 11.5617 14.6972 11.3848 14.6979 11.2001C14.6987 11.0145 14.6255 10.8361 14.4948 10.7043C14.3641 10.5726 14.1863 10.4981 14.0007 10.4973H6.99798ZM6.99798 13.2987C6.81236 13.2995 6.63455 13.3738 6.50391 13.5057C6.37313 13.6374 6.3 13.8159 6.30079 14.0015C6.30141 14.1862 6.37516 14.3631 6.50578 14.4937C6.63641 14.6243 6.81328 14.6981 6.99798 14.6987H14.0007C14.1854 14.6981 14.3622 14.6243 14.4929 14.4937C14.6235 14.3631 14.6972 14.1862 14.6979 14.0015C14.6987 13.8159 14.6255 13.6374 14.4948 13.5057C14.3641 13.3738 14.1863 13.2995 14.0007 13.2987H6.99798Z" fill="#868991"/>
</svg>
