<svg width="21" height="21" viewBox="0 0 21 21" fill="none" xmlns="http://www.w3.org/2000/svg">
<path d="M14.7223 20.2198L14.7227 20.2202C14.8537 20.3514 15.0315 20.425 15.217 20.425H18.1486C18.672 20.425 19.1743 20.217 19.5447 19.8467C19.9149 19.4763 20.1228 18.9743 20.1228 18.4508V9.5593C20.1228 8.13551 19.4525 6.79499 18.3133 5.94059L11.6857 0.969754C11.344 0.713487 10.9285 0.575 10.5012 0.575C10.074 0.575 9.65845 0.713486 9.31676 0.969752L2.68916 5.94059C2.68916 5.94059 2.68916 5.94059 2.68916 5.94059C1.55002 6.795 0.879687 8.13551 0.879687 9.5593V18.4508C0.879687 18.9745 1.08758 19.4765 1.45777 19.8469C1.82817 20.217 2.33035 20.425 2.8537 20.425H5.78529C5.97079 20.425 6.14856 20.3514 6.27961 20.2202L6.27998 20.2198C6.41115 20.0888 6.48479 19.911 6.48479 19.7255V15.4648C6.46505 14.4159 6.84348 13.3987 7.54359 12.6177L7.54367 12.6176C8.24541 11.8351 9.21818 11.3481 10.2651 11.2552L10.275 11.2544L10.2849 11.2538C11.3862 11.1943 12.4632 11.5906 13.2635 12.349L14.7223 20.2198ZM14.7223 20.2198C14.5911 20.0888 14.5175 19.911 14.5175 19.7255M14.7223 20.2198L14.5175 19.7255M14.5175 19.7255V15.2644M14.5175 19.7255V15.2644M14.5175 15.2644C14.5175 14.1619 14.0643 13.1075 13.2637 12.3491L14.5175 15.2644Z" stroke="#868991" stroke-width="1.15"/>
</svg>
