<svg width="21" height="21" viewBox="0 0 21 21" fill="none" xmlns="http://www.w3.org/2000/svg">
<path d="M10.3943 5.06745C10.3943 6.83576 8.99567 8.24728 7.29716 8.24728C5.59865 8.24728 4.2 6.83576 4.2 5.06745C4.2 3.29915 5.59865 1.88762 7.29716 1.88762C8.99567 1.88762 10.3943 3.29915 10.3943 5.06745Z" stroke="#868991" stroke-width="1.15" stroke-linejoin="round"/>
<path d="M17.7057 5.92331C17.7057 7.16409 16.7253 8.14796 15.5427 8.14796C14.3601 8.14796 13.3797 7.16409 13.3797 5.92331C13.3797 4.68253 14.3601 3.69866 15.5427 3.69866C16.7253 3.69866 17.7057 4.68253 17.7057 5.92331Z" stroke="#5E6773" stroke-width="1.15" stroke-linejoin="round"/>
<path d="M20.4182 15.4323L20.4182 15.4323L20.4189 15.4365C20.4391 15.5602 20.4122 15.6634 20.2793 15.7917C20.1233 15.9423 19.8386 16.1013 19.3977 16.2403C18.5751 16.4996 17.3957 16.6325 16.0736 16.6466C15.6474 14.1859 14.7853 12.1754 13.5058 10.7094C14.0746 10.4325 14.7403 10.2868 15.5426 10.2868C16.9449 10.2868 18.0118 10.7586 18.7991 11.5993C19.6001 12.4548 20.1553 13.74 20.4182 15.4323Z" stroke="#5E6773" stroke-width="1.15" stroke-linejoin="round"/>
<path d="M7.29652 19.1169C5.30519 19.1169 3.47776 18.9364 2.2038 18.5526C1.56253 18.3594 1.11523 18.1302 0.852739 17.8912C0.613492 17.6733 0.548339 17.4733 0.58429 17.2474C0.959705 14.9449 1.72384 13.19 2.83062 12.0169C3.92368 10.8584 5.39373 10.2211 7.29652 10.2211C9.19734 10.2211 10.6677 10.8653 11.7618 12.0286C12.8694 13.2064 13.6335 14.9621 14.0088 17.2476C14.0447 17.4734 13.9795 17.6734 13.7403 17.8912C13.4778 18.1302 13.0305 18.3594 12.3892 18.5526C11.1153 18.9364 9.28785 19.1169 7.29652 19.1169Z" stroke="#868991" stroke-width="1.15" stroke-linejoin="round"/>
</svg>
