<svg width="53" height="53" viewBox="0 0 53 53" fill="none" xmlns="http://www.w3.org/2000/svg">
<path d="M26.5 0C21.2588 0 16.1353 1.5542 11.7774 4.46605C7.4195 7.37791 4.02293 11.5166 2.0172 16.3589C0.0114819 21.2011 -0.513306 26.5294 0.509202 31.6699C1.53171 36.8104 4.05559 41.5322 7.76168 45.2383C11.4678 48.9444 16.1896 51.4683 21.3301 52.4908C26.4706 53.5133 31.7989 52.9885 36.6411 50.9828C41.4834 48.9771 45.6221 45.5805 48.5339 41.2226C51.4458 36.8647 53 31.7412 53 26.5C53 19.4718 50.208 12.7314 45.2383 7.76167C40.2686 2.79196 33.5282 0 26.5 0ZM43.8078 17.6059L22.0447 39.3525L9.1922 26.5C8.75293 26.0607 8.50616 25.465 8.50616 24.8437C8.50616 24.2225 8.75293 23.6268 9.1922 23.1875C9.63146 22.7482 10.2272 22.5015 10.8484 22.5015C11.4697 22.5015 12.0654 22.7482 12.5047 23.1875L22.0778 32.7606L40.5284 14.3266C40.7459 14.1091 41.0042 13.9365 41.2883 13.8188C41.5725 13.7011 41.8771 13.6405 42.1847 13.6405C42.4923 13.6405 42.7969 13.7011 43.081 13.8188C43.3652 13.9365 43.6234 14.1091 43.8409 14.3266C44.0584 14.5441 44.231 14.8023 44.3487 15.0865C44.4664 15.3706 44.527 15.6752 44.527 15.9828C44.527 16.2904 44.4664 16.595 44.3487 16.8792C44.231 17.1633 44.0584 17.4216 43.8409 17.6391L43.8078 17.6059Z" fill="#CDCDCD"/>
</svg>
