<svg width="24" viewBox="0 0 24 18" fill="none" xmlns="http://www.w3.org/2000/svg">
<path fill-rule="evenodd" clip-rule="evenodd" d="M1.32313 7.28276H17.9803C18.1891 7.28276 18.3871 7.36556 18.5311 7.51316L21.1663 10.1664C21.6523 10.656 21.3067 11.4912 20.6155 11.4912H3.95833C3.74953 11.4912 3.55153 11.4084 3.40753 11.2608L0.772332 8.60756C0.282732 8.11796 0.631932 7.28276 1.32313 7.28276ZM0.772332 3.76556L3.40753 1.11236C3.55513 0.964758 3.75313 0.881958 3.95833 0.881958H20.6119C21.3031 0.881958 21.6523 1.71716 21.1627 2.20676L18.5311 4.85996C18.3835 5.00756 18.1855 5.09036 17.9803 5.09036H1.32313C0.631932 5.09036 0.282732 4.25516 0.772332 3.76556ZM21.1627 15.0084L18.5275 17.6616C18.3799 17.8092 18.1819 17.892 17.9767 17.892H1.32313C0.631932 17.892 0.282732 17.0568 0.772332 16.5672L3.40753 13.914C3.55513 13.7664 3.75313 13.6836 3.95833 13.6836H20.6119C21.3031 13.6836 21.6523 14.5188 21.1627 15.0084Z" fill="url(#paint0_linear)"/>
<defs>
<linearGradient id="paint0_linear" x1="1.73064" y1="18.6238" x2="20.2044" y2="0.150064" gradientUnits="userSpaceOnUse">
<stop stop-color="#CB4EE8"/>
<stop offset="1" stop-color="#10F4B1"/>
</linearGradient>
</defs>
</svg>
