<svg width="24" height="24" viewBox="0 0 24 24" fill="none" xmlns="http://www.w3.org/2000/svg">
<g clip-path="url(#clip0)">
<path fill-rule="evenodd" clip-rule="evenodd" d="M5.31757 21.9832C7.28519 23.298 9.5985 23.9998 11.965 24C13.5369 24.0041 15.0941 23.6965 16.5463 23.0949C17.9986 22.4933 19.3171 21.6096 20.4256 20.4951C21.5516 19.3873 22.447 18.0676 23.0604 16.612C23.6738 15.1564 23.9929 13.5938 23.9993 12.0143C24.0057 10.4347 23.6994 8.86956 23.0979 7.40904C22.4964 5.94851 21.6117 4.62152 20.4948 3.50462C19.3779 2.38772 18.0509 1.50301 16.5904 0.901522C15.1298 0.300032 13.5647 -0.00633246 11.9852 9.92043e-05C10.4056 0.00653087 8.84301 0.325632 7.38743 0.938995C5.93185 1.55236 4.61211 2.44785 3.50435 3.57381C1.83105 5.24721 0.691535 7.37922 0.229889 9.70023C-0.231757 12.0212 0.00519929 14.427 0.910796 16.6134C1.81639 18.7997 3.34996 20.6684 5.31757 21.9832ZM6.42523 3.74362C8.065 2.64796 9.99284 2.06316 11.965 2.06316C14.6086 2.06606 17.1432 3.11754 19.0125 4.98688C20.8819 6.85623 21.9333 9.39078 21.9362 12.0344C21.9362 14.0066 21.3514 15.9344 20.2558 17.5742C19.1601 19.2139 17.6028 20.492 15.7808 21.2467C13.9588 22.0014 11.9539 22.1989 10.0197 21.8141C8.08544 21.4294 6.30873 20.4797 4.91422 19.0852C3.51971 17.6907 2.57004 15.914 2.18529 13.9797C1.80055 12.0455 1.99801 10.0406 2.75272 8.21859C3.50742 6.39658 4.78546 4.83928 6.42523 3.74362ZM11.1843 17.0315C11.4257 17.1316 11.6846 17.183 11.946 17.1826C12.2079 17.1834 12.4674 17.1322 12.7094 17.0321C12.9514 16.932 13.1712 16.7849 13.356 16.5993L16.5288 13.4304C16.7141 13.2452 16.8611 13.0253 16.9613 12.7833C17.0616 12.5413 17.1132 12.2819 17.1132 12.02C17.1132 11.758 17.0616 11.4986 16.9613 11.2566C16.8611 11.0146 16.7141 10.7947 16.5288 10.6095L13.3599 7.43267C13.1748 7.2474 12.9549 7.10043 12.7129 7.00016C12.4709 6.89989 12.2115 6.84828 11.9495 6.84828C11.6876 6.84828 11.4282 6.89989 11.1862 7.00016C10.9441 7.10043 10.7243 7.2474 10.5391 7.43267L7.36223 10.6055C7.17696 10.7907 7.02999 11.0106 6.92972 11.2526C6.82945 11.4946 6.77784 11.754 6.77784 12.016C6.77784 12.2779 6.82945 12.5373 6.92972 12.7793C7.02999 13.0213 7.17696 13.2412 7.36223 13.4264L10.5391 16.5993C10.7235 16.7845 10.9428 16.9314 11.1843 17.0315ZM8.78911 12.0324L11.962 8.85956L15.1348 12.0324L11.962 15.2053L8.78911 12.0324Z" fill="#999999"/>
</g>
<defs>
<clipPath id="clip0">
<rect width="24" height="24" fill="white"/>
</clipPath>
</defs>
</svg>
