<svg width="33" height="32" viewBox="0 0 33 32" fill="none" xmlns="http://www.w3.org/2000/svg">
<path d="M14.2818 8.4668H13.3294C13.0286 8.47347 12.7429 8.59923 12.5348 8.81647C12.3267 9.03371 12.2134 9.32465 12.2197 9.62539V11.9491H11.6654C11.2141 11.959 10.7852 12.1477 10.473 12.4737C10.1608 12.7996 9.9908 13.2362 10.0004 13.6875V22.3746C9.99408 22.6753 10.1074 22.9662 10.3155 23.1835C10.5235 23.4007 10.8093 23.5265 11.11 23.5332H22.7627C23.0635 23.5265 23.3493 23.4007 23.5573 23.1835C23.7654 22.9662 23.8787 22.6753 23.8724 22.3746V15.9962C23.8787 15.6955 23.7654 15.4045 23.5573 15.1873C23.3493 14.9701 23.0635 14.8443 22.7627 14.8376H21.6522V9.62915C21.6558 9.47993 21.6299 9.33145 21.5761 9.19223C21.5223 9.05301 21.4415 8.92577 21.3384 8.8178C21.2354 8.70983 21.112 8.62326 20.9755 8.56303C20.8389 8.50279 20.6918 8.47009 20.5426 8.4668H14.2818ZM15.8874 9.49268H20.6272V14.8329H13.2465V9.49644H15.8874V9.49268ZM11.0263 13.5934L11.031 13.519C11.0447 13.3705 11.1128 13.2323 11.2223 13.131C11.3318 13.0297 11.4748 12.9725 11.6239 12.9703H12.2206V14.8367H11.0263V13.5934ZM22.8465 19.6668H20.5209L20.4512 19.6611C20.2899 19.6105 20.1509 19.5058 20.0577 19.3648C19.9644 19.2237 19.9226 19.0548 19.9392 18.8866C19.9392 18.4555 20.2 18.1063 20.5209 18.1063H22.8465V19.6668ZM22.8465 17.0729H20.4936C20.0457 17.1306 19.6352 17.3525 19.3416 17.6957C19.0481 18.0389 18.8924 18.4788 18.9048 18.9303C18.9172 19.3817 19.0968 19.8124 19.4088 20.1389C19.7208 20.4654 20.1429 20.6645 20.5933 20.6974H22.8437V22.5092H11.591H11.5232C11.3817 22.4864 11.2532 22.4129 11.1617 22.3024C11.0703 22.192 11.0222 22.052 11.0263 21.9087V15.8626H22.8465V17.0729Z" fill="#AFAFAF"/>
<path d="M17.5949 12.42L17.3427 12.7457V10.7259C17.3453 10.6706 17.3367 10.6152 17.3173 10.5633C17.298 10.5114 17.2683 10.4639 17.2301 10.4238C17.1918 10.3837 17.1458 10.3518 17.0949 10.3299C17.044 10.3081 16.9891 10.2969 16.9337 10.2969C16.8783 10.2969 16.8235 10.3081 16.7725 10.3299C16.7216 10.3518 16.6756 10.3837 16.6374 10.4238C16.5991 10.4639 16.5694 10.5114 16.5501 10.5633C16.5307 10.6152 16.5221 10.6706 16.5248 10.7259V12.7466L16.2716 12.42C16.2388 12.3772 16.1976 12.3416 16.1506 12.3152C16.1035 12.2889 16.0516 12.2724 15.9979 12.2667C15.9443 12.2611 15.8901 12.2665 15.8386 12.2824C15.7871 12.2984 15.7394 12.3248 15.6984 12.3598C15.6509 12.4015 15.6128 12.4529 15.5866 12.5105C15.5605 12.5681 15.5469 12.6307 15.5469 12.6939C15.5469 12.7923 15.5801 12.8878 15.641 12.965L16.6207 14.2261C16.6561 14.2686 16.7007 14.3023 16.7511 14.3249C16.8015 14.3474 16.8564 14.358 16.9116 14.356C17.0254 14.3564 17.1363 14.3201 17.2278 14.2525C17.5488 13.8581 18.2292 12.965 18.233 12.9612C18.3004 12.8714 18.331 12.7594 18.3186 12.6478C18.3081 12.5363 18.2544 12.4333 18.169 12.3607C18.128 12.3255 18.0803 12.299 18.0288 12.2828C17.9772 12.2667 17.9229 12.2612 17.8692 12.2668C17.8155 12.2723 17.7634 12.2888 17.7162 12.3151C17.6691 12.3415 17.6278 12.3772 17.5949 12.42V12.42Z" fill="#AFAFAF"/>
</svg>
