<?xml version="1.0" encoding="utf-8"?>
<!-- Generator: Adobe Illustrator 24.0.1, SVG Export Plug-In . SVG Version: 6.00 Build 0)  -->
<svg version="1.1" id="Layer_1" xmlns="http://www.w3.org/2000/svg" xmlns:xlink="http://www.w3.org/1999/xlink" x="0px" y="0px"
	 viewBox="0 0 24 24" style="enable-background:new 0 0 24 24;" xml:space="preserve">
<style type="text/css">
	.st0{fill-rule:evenodd;clip-rule:evenodd;}
	.st1{fill:none;}
</style>
<g id="proposal_1_" transform="translate(90)">
	<path id="Shape_7_" d="M-68.6,0c0.5,0,1,0.5,1,1c0,0.5-0.4,0.9-0.9,1l-0.1,0h-16.5c-0.4,0-0.7,0.1-1,0.4c-0.2,0.2-0.4,0.5-0.4,0.8
		l0,0.2v17.3c0,0.4,0.1,0.7,0.4,1c0.2,0.2,0.5,0.4,0.8,0.4l0.2,0h14.1c0.4,0,0.7-0.1,1-0.4c0.2-0.2,0.4-0.5,0.4-0.8l0-0.2V4.9
		c0-0.5,0.4-1,1-1c0.5,0,0.9,0.4,1,0.9l0,0.1v15.8c0,1.8-1.4,3.3-3.2,3.4h-0.2h-14.1c-1.8,0-3.3-1.4-3.3-3.2v-0.2V3.4
		c0-1.8,1.4-3.3,3.2-3.4h0.2H-68.6z M-76.8,12.8c0.5,0,1,0.5,1,1c0,0.5-0.4,0.9-0.9,1l-0.1,0h-5.9c-0.5,0-1-0.5-1-1
		c0-0.5,0.4-0.9,0.9-1l0.1,0H-76.8z M-73.3,8c0.5,0,1,0.5,1,1c0,0.5-0.4,0.9-0.9,1l-0.1,0h-9.4c-0.5,0-1-0.5-1-1
		c0-0.5,0.4-0.9,0.9-1l0.1,0H-73.3z"/>
</g>
</svg>
