<svg width="25" height="25" viewBox="0 0 25 25" fill="none" xmlns="http://www.w3.org/2000/svg">
<g clip-path="url(#clip0_241_11535)">
<path d="M9.87305 12.8417C12.3583 12.8417 14.373 10.827 14.373 8.34167C14.373 5.85639 12.3583 3.84167 9.87305 3.84167C7.38777 3.84167 5.37305 5.85639 5.37305 8.34167C5.37305 10.827 7.38777 12.8417 9.87305 12.8417Z" stroke="#AFAFAF" stroke-width="1.6" stroke-linecap="round" stroke-linejoin="round"/>
<path d="M16.4902 4.2417C17.3484 4.47479 18.109 5.00425 18.6522 5.7466C19.1954 6.48894 19.4902 7.40196 19.4902 8.3417C19.4902 9.28144 19.1954 10.1945 18.6522 10.9368C18.109 11.6792 17.3484 12.2086 16.4902 12.4417" stroke="#AFAFAF" stroke-width="1.6" stroke-linecap="round" stroke-linejoin="round"/>
<path d="M21.1597 21.8417V19.6195C21.1554 18.6385 20.8586 17.8108 20.4064 17.037C19.9542 16.2632 18.8668 15.5716 18.3711 15.3417" stroke="#AFAFAF" stroke-width="1.6" stroke-linecap="round" stroke-linejoin="round"/>
<path d="M3.18359 21.8417V19.675C3.18359 18.5257 3.64014 17.4235 4.4528 16.6109C5.26546 15.7982 6.36766 15.3417 7.51693 15.3417H11.8503C12.9995 15.3417 14.1017 15.7982 14.9144 16.6109C15.727 17.4235 16.1836 18.5257 16.1836 19.675V21.8417" stroke="#AFAFAF" stroke-width="1.6" stroke-linecap="round" stroke-linejoin="round"/>
</g>
<defs>
<clipPath id="clip0_241_11535">
<rect width="24" height="24" fill="white" transform="translate(0.183594 0.841675)"/>
</clipPath>
</defs>
</svg>
