<svg width="24" height="25" viewBox="0 0 24 25" fill="none" xmlns="http://www.w3.org/2000/svg">
<g clip-path="url(#clip0_1730_42043)">
<path d="M19 5.5H5C3.89543 5.5 3 6.39543 3 7.5V17.5C3 18.6046 3.89543 19.5 5 19.5H19C20.1046 19.5 21 18.6046 21 17.5V7.5C21 6.39543 20.1046 5.5 19 5.5Z" fill="#FFBBB5" stroke="#FFBBB5" stroke-width="1.6" stroke-linecap="round" stroke-linejoin="round"/>
<path d="M19 5.5H5C3.89543 5.5 3 6.39543 3 7.5H21C21 6.39543 20.1046 5.5 19 5.5Z" fill="#FF6557" stroke="#FF6557" stroke-width="1.6" stroke-linecap="round" stroke-linejoin="round"/>
<path d="M3 7.5L12 13.5L21 7.5" fill="#FF6557"/>
<path d="M3 7.5L12 13.5L21 7.5" stroke="#FF6557" stroke-width="1.6" stroke-linecap="round" stroke-linejoin="round"/>
</g>
<defs>
<clipPath id="clip0_1730_42043">
<rect width="24" height="24" fill="white" transform="translate(0 0.5)"/>
</clipPath>
</defs>
</svg>
