<svg width="24" height="24" viewBox="0 0 24 24" fill="none" xmlns="http://www.w3.org/2000/svg">
<path d="M22.8665 14.2688L20.8885 12.7245C20.9097 12.5024 20.9203 12.2591 20.9203 12.0159C20.9203 11.7726 20.9097 11.5187 20.8885 11.3072L22.8665 9.76289C23.4059 9.3398 23.554 8.57823 23.2155 7.95416L20.9943 4.11459C20.6664 3.51168 19.9154 3.23667 19.249 3.49052L16.9114 4.43191C16.5201 4.1569 16.1076 3.9242 15.6845 3.72323L15.3248 1.21639C15.2402 0.51829 14.6373 0 13.9286 0H9.47557C8.76689 0 8.16398 0.51829 8.07936 1.20582L7.71973 3.69149C7.30722 3.89246 6.90528 4.12516 6.50334 4.40018L4.15517 3.45879C3.4888 3.20494 2.74838 3.46937 2.42048 4.07228L0.199241 7.92243C-0.160389 8.52534 -0.0123062 9.30806 0.537716 9.75231L2.51568 11.2966C2.49452 11.5505 2.48395 11.7832 2.48395 12.0053C2.48395 12.2274 2.49452 12.4601 2.51568 12.714L0.527138 14.2688C-0.0123061 14.6919 -0.160389 15.4535 0.188663 16.0776L2.40991 19.9171C2.74838 20.5306 3.47822 20.7951 4.15517 20.5412L6.49276 19.5998C6.88412 19.8748 7.29664 20.1075 7.71973 20.3085L8.07936 22.7836C8.16398 23.4817 8.76689 24 9.47557 24H13.9392C14.6479 24 15.2508 23.4817 15.3354 22.7942L15.6951 20.3085C16.1076 20.1075 16.5095 19.8748 16.922 19.5998L19.2702 20.5412C19.926 20.7951 20.677 20.5306 21.0049 19.9277L23.2473 16.0564C23.554 15.4535 23.4059 14.6919 22.8665 14.2688ZM19.5875 18.8488L17.1018 17.8546C16.8374 17.7488 16.5095 17.7911 16.2662 17.9603C15.6951 18.394 15.1345 18.7113 14.5739 18.944C14.2883 19.0604 14.0873 19.3142 14.0556 19.6104L13.6219 22.3076L9.72943 22.2653L9.34865 19.621C9.30634 19.3248 9.10537 19.071 8.83036 18.9546C8.23802 18.7113 7.67742 18.3834 7.14856 17.9815C6.91586 17.8017 6.5668 17.7594 6.31295 17.8651L3.75323 18.8277L1.807 15.4641L3.9542 13.7929C4.1869 13.613 4.31383 13.3063 4.27152 13.0101C4.21863 12.6082 4.1869 12.2909 4.1869 12.0053C4.1869 11.7303 4.20805 11.413 4.26094 11.0216C4.30325 10.7254 4.17632 10.4293 3.94362 10.2494L1.82815 8.52534L3.81669 5.17232L6.29179 6.16659C6.5668 6.28294 6.88412 6.24063 7.1274 6.06082C7.69858 5.62715 8.25918 5.29925 8.83036 5.06655C9.10537 4.9502 9.30634 4.69634 9.34865 4.40018L9.78232 1.71353L13.6748 1.75584L14.0556 4.40018C14.0979 4.69634 14.2988 4.96078 14.5739 5.06655C15.1662 5.30983 15.7268 5.63773 16.2662 6.05024C16.5095 6.23006 16.8268 6.27237 17.1018 6.16659L19.6616 5.20405L21.6078 8.56765L19.4606 10.2389C19.2279 10.4187 19.101 10.7254 19.1433 11.0216C19.175 11.3072 19.2173 11.6457 19.2173 12.0053C19.2173 12.3649 19.175 12.7034 19.1433 12.989C19.1115 13.2851 19.2279 13.5813 19.4606 13.7717L21.5972 15.4429L19.5875 18.8488Z" fill="black"/>
<path d="M11.6971 6.79053C8.82002 6.79053 6.48242 9.12812 6.48242 12.0052C6.48242 14.8822 8.82002 17.2198 11.6971 17.2198C14.5741 17.2198 16.9117 14.8822 16.9117 12.0052C16.9117 9.12812 14.5741 6.79053 11.6971 6.79053ZM11.6971 15.5168C9.7614 15.5168 8.18537 13.9408 8.18537 12.0052C8.18537 10.0695 9.7614 8.49348 11.6971 8.49348C13.6327 8.49348 15.2087 10.0695 15.2087 12.0052C15.2087 13.9408 13.6327 15.5168 11.6971 15.5168Z" fill="black"/>
</svg>
