<svg width="21" height="21" viewBox="0 0 21 21" fill="none" xmlns="http://www.w3.org/2000/svg">
<g clip-path="url(#clip0_711_164)">
<path fill-rule="evenodd" clip-rule="evenodd" d="M4.66663 11.8768H16.3333C18.7906 11.8768 20.79 13.8762 20.79 16.3335C20.79 18.7908 18.7906 20.7902 16.3333 20.7902H4.66663C2.20936 20.7902 0.209961 18.7908 0.209961 16.3335C0.209961 13.8762 2.20936 11.8768 4.66663 11.8768ZM4.66663 19.6543H16.3333C18.1648 19.6543 19.6543 18.1648 19.6543 16.3333C19.6543 14.5019 18.1648 13.0123 16.3333 13.0123H4.66663C2.83515 13.0123 1.34563 14.5019 1.34563 16.3333C1.34563 18.1648 2.83515 19.6543 4.66663 19.6543Z" fill="#5E6773"/>
<path fill-rule="evenodd" clip-rule="evenodd" d="M4.66663 9.12329H16.3333C18.7906 9.12329 20.79 7.1239 20.79 4.66663C20.79 2.20936 18.7906 0.209961 16.3333 0.209961H4.66663C2.20936 0.209961 0.209961 2.20936 0.209961 4.66663C0.209961 7.1239 2.20936 9.12329 4.66663 9.12329ZM4.66709 1.34584H16.3338C18.1652 1.34584 19.6548 2.83536 19.6548 4.66684C19.6548 6.49832 18.1652 7.98784 16.3338 7.98784H4.66709C2.83561 7.98784 1.34609 6.49832 1.34609 4.66684C1.34609 2.83536 2.83561 1.34584 4.66709 1.34584Z" fill="#868991"/>
<path fill-rule="evenodd" clip-rule="evenodd" d="M4.66728 6.79012C5.83792 6.79012 6.79061 5.83744 6.79061 4.66679C6.79061 3.49615 5.83792 2.54346 4.66728 2.54346C3.49663 2.54346 2.54395 3.49615 2.54395 4.66679C2.54395 5.83744 3.49663 6.79012 4.66728 6.79012ZM4.66775 3.67908C5.2126 3.67908 5.65541 4.12189 5.65541 4.66674C5.65541 5.21159 5.2126 5.65441 4.66775 5.65441C4.12289 5.65441 3.68008 5.21159 3.68008 4.66674C3.68008 4.12189 4.12289 3.67908 4.66775 3.67908Z" fill="#868991"/>
<path fill-rule="evenodd" clip-rule="evenodd" d="M16.3333 14.2098C15.1625 14.2098 14.21 15.1624 14.21 16.3332C14.21 17.504 15.1625 18.4565 16.3333 18.4565C17.5041 18.4565 18.4566 17.504 18.4566 16.3332C18.4566 15.1624 17.5041 14.2098 16.3333 14.2098ZM16.3338 17.3208C15.7889 17.3208 15.3461 16.878 15.3461 16.3331C15.3461 15.7883 15.7889 15.3455 16.3338 15.3455C16.8786 15.3455 17.3214 15.7883 17.3214 16.3331C17.3214 16.878 16.8786 17.3208 16.3338 17.3208Z" fill="#5E6773"/>
</g>
<defs>
<clipPath id="clip0_711_164">
<rect width="21" height="21" fill="white"/>
</clipPath>
</defs>
</svg>
