<svg width="20" height="20" viewBox="0 0 20 20" fill="none" xmlns="http://www.w3.org/2000/svg">
<g clip-path="url(#clip0_2515_60015)">
<path d="M9.99992 14.1666C12.3011 14.1666 14.1666 12.3011 14.1666 9.99992C14.1666 7.69873 12.3011 5.83325 9.99992 5.83325C7.69873 5.83325 5.83325 7.69873 5.83325 9.99992C5.83325 12.3011 7.69873 14.1666 9.99992 14.1666Z" stroke="#F7F7FF" stroke-width="1.6" stroke-linecap="round" stroke-linejoin="round"/>
<path d="M5.25 14.75L4.66667 15.3333M2.5 10H3.33333H2.5ZM10 2.5V3.33333V2.5ZM16.6667 10H17.5H16.6667ZM10 16.6667V17.5V16.6667ZM4.66667 4.66667L5.25 5.25L4.66667 4.66667ZM15.3333 4.66667L14.75 5.25L15.3333 4.66667ZM14.75 14.75L15.3333 15.3333L14.75 14.75Z" stroke="#F7F7FF" stroke-width="1.6" stroke-linecap="round" stroke-linejoin="round"/>
</g>
<defs>
<clipPath id="clip0_2515_60015">
<rect width="20" height="20" fill="white"/>
</clipPath>
</defs>
</svg>
