<svg width="16" height="16" viewBox="0 0 16 16" fill="none" xmlns="http://www.w3.org/2000/svg">
<path d="M10.6719 3.1414V1.6014C10.6718 1.35277 10.573 1.11436 10.3971 0.938581C10.2213 0.762806 9.98284 0.664062 9.73421 0.664063H1.60954C1.36086 0.664063 1.12236 0.762852 0.946511 0.938699C0.770665 1.11455 0.671875 1.35304 0.671875 1.60173V9.72673C0.671963 9.97536 0.770791 10.2138 0.946628 10.3895C1.12247 10.5653 1.36091 10.6641 1.60954 10.6641H3.16621" stroke="#777777" stroke-width="1.33333" stroke-linecap="round" stroke-linejoin="round"/>
<path d="M4.27327 3.32813H12.3989C12.6475 3.3283 12.8858 3.42717 13.0615 3.603C13.2372 3.77882 13.3359 4.01722 13.3359 4.26579V12.3905C13.3359 12.6391 13.2371 12.8776 13.0613 13.0535C12.8855 13.2293 12.647 13.3281 12.3983 13.3281H4.27327C4.02464 13.328 3.78623 13.2292 3.61046 13.0534C3.43468 12.8775 3.33594 12.6391 3.33594 12.3905V4.26613C3.33589 4.14296 3.36011 4.02099 3.40722 3.90719C3.45432 3.79339 3.52338 3.68998 3.61046 3.60288C3.69753 3.51577 3.80091 3.44668 3.9147 3.39953C4.02848 3.35239 4.15044 3.32812 4.2736 3.32813H4.27327Z" stroke="#777777" stroke-width="1.33333" stroke-linejoin="round"/>
</svg>
