<svg width="16" height="16" viewBox="0 0 16 16" fill="none" xmlns="http://www.w3.org/2000/svg">
<path d="M6.66675 9.33318C6.884 9.55491 7.14331 9.73106 7.4295 9.85132C7.71568 9.97158 8.02299 10.0335 8.33341 10.0335C8.64384 10.0335 8.95114 9.97158 9.23733 9.85132C9.52352 9.73106 9.78283 9.55491 10.0001 9.33318L12.6667 6.66651C13.1088 6.22448 13.3571 5.62497 13.3571 4.99984C13.3571 4.37472 13.1088 3.77521 12.6667 3.33318C12.2247 2.89115 11.6252 2.64282 11.0001 2.64282C10.375 2.64282 9.77544 2.89115 9.33341 3.33318L9.00008 3.66651" stroke="#AFAFAF" stroke-width="1.6" stroke-linecap="round" stroke-linejoin="round"/>
<path d="M9.33367 6.66689C9.11641 6.44516 8.8571 6.26901 8.57091 6.14875C8.28473 6.0285 7.97742 5.96655 7.667 5.96655C7.35657 5.96655 7.04927 6.0285 6.76308 6.14875C6.4769 6.26901 6.21759 6.44516 6.00033 6.66689L3.33367 9.33356C2.89164 9.77559 2.64331 10.3751 2.64331 11.0002C2.64331 11.6253 2.89164 12.2249 3.33367 12.6669C3.77569 13.1089 4.37521 13.3572 5.00033 13.3572C5.62545 13.3572 6.22497 13.1089 6.667 12.6669L7.00033 12.3336" stroke="#AFAFAF" stroke-width="1.6" stroke-linecap="round" stroke-linejoin="round"/>
</svg>
