<svg width="21" height="21" viewBox="0 0 21 21" fill="none" xmlns="http://www.w3.org/2000/svg">
<g clip-path="url(#clip0_711_175)">
<path d="M14.8544 4.43297C14.9626 4.32469 15.0232 4.17769 15.0228 4.02455C15.0223 3.87142 14.9607 3.72481 14.8518 3.61722L12.9007 1.69081C12.6757 1.46869 12.3136 1.46985 12.0901 1.6934L5.07244 8.71144L2.46193 6.59298C2.28974 6.45324 2.05254 6.42498 1.85234 6.52034C1.65213 6.61571 1.52461 6.8177 1.52461 7.03946V16.3748C1.52461 16.6074 1.66471 16.817 1.87957 16.906C2.09443 16.995 2.34175 16.9458 2.5062 16.7814L14.8544 4.43297Z" stroke="#868991" stroke-width="1.15" stroke-linejoin="round"/>
<path d="M6.43562 16.5419C6.32761 16.6497 6.26687 16.796 6.2668 16.9486C6.26672 17.1012 6.32731 17.2476 6.43521 17.3555L8.38627 19.3066C8.4941 19.4144 8.64036 19.475 8.79286 19.475C8.94536 19.475 9.09162 19.4144 9.19945 19.3065L16.1752 12.3305L18.4852 14.6615C18.6493 14.827 18.897 14.8772 19.1125 14.7885C19.328 14.6998 19.4687 14.4898 19.4687 14.2567V4.92139C19.4687 4.68893 19.3287 4.47933 19.114 4.39027C18.8992 4.3012 18.652 4.35018 18.4875 4.51439L6.43562 16.5419Z" stroke="#5E6773" stroke-width="1.15" stroke-linejoin="round"/>
</g>
<defs>
<clipPath id="clip0_711_175">
<rect width="21" height="21" fill="white"/>
</clipPath>
</defs>
</svg>
