<svg width="33" height="33" viewBox="0 0 33 33" fill="none" xmlns="http://www.w3.org/2000/svg">
<path fill-rule="evenodd" clip-rule="evenodd" d="M18.1267 10.4864C17.3791 10.3833 16.6179 10.5133 15.947 10.8588C15.2761 11.2043 14.7281 11.7483 14.3778 12.4168C14.0275 13.0852 13.892 13.8454 13.9897 14.5937C14.0874 15.342 14.4136 16.0419 14.9238 16.598C15.0576 16.7438 15.0479 16.9705 14.902 17.1042C14.7562 17.238 14.5296 17.2283 14.3958 17.0825C13.7859 16.4178 13.3959 15.581 13.2791 14.6865C13.1623 13.792 13.3243 12.8832 13.7431 12.0841C14.1618 11.2851 14.8169 10.6347 15.619 10.2217C16.421 9.80868 17.3309 9.65321 18.2246 9.77646C19.1183 9.89971 19.9522 10.2957 20.6125 10.9104C21.2728 11.525 21.7274 12.3285 21.9142 13.2111C22.101 14.0936 22.011 15.0124 21.6564 15.8419C21.3018 16.6714 20.6999 17.3713 19.9329 17.8461C19.7646 17.9503 19.5438 17.8983 19.4396 17.7301C19.3355 17.5618 19.3874 17.341 19.5557 17.2368C20.1974 16.8396 20.7009 16.2541 20.9975 15.5602C21.2941 14.8663 21.3694 14.0978 21.2131 13.3595C21.0568 12.6212 20.6766 11.9491 20.1242 11.4349C19.5718 10.9207 18.8743 10.5895 18.1267 10.4864Z" fill="#AFAFAF"/>
<path fill-rule="evenodd" clip-rule="evenodd" d="M15.552 10.101C16.3789 9.67522 17.317 9.51492 18.2384 9.64199C19.1598 9.76906 20.0195 10.1773 20.7003 10.811C21.381 11.4448 21.8497 12.2731 22.0423 13.183C22.235 14.093 22.1421 15.0402 21.7766 15.8954C21.411 16.7506 20.7904 17.4722 19.9996 17.9617C19.7675 18.1054 19.463 18.0337 19.3193 17.8017C19.1757 17.5696 19.2474 17.265 19.4794 17.1214C20.0973 16.7389 20.5822 16.1751 20.8678 15.5069C21.1534 14.8387 21.226 14.0986 21.0755 13.3877C20.925 12.6768 20.5588 12.0296 20.0269 11.5344C19.495 11.0393 18.8232 10.7203 18.1034 10.621C17.3835 10.5218 16.6505 10.647 16.0044 10.9797C15.3584 11.3124 14.8307 11.8363 14.4933 12.4799C14.156 13.1236 14.0255 13.8556 14.1196 14.5762C14.2137 15.2968 14.5278 15.9708 15.0191 16.5063C15.2036 16.7073 15.1902 17.0199 14.9891 17.2044C14.788 17.389 14.4754 17.3755 14.2909 17.1744C13.6621 16.4891 13.2601 15.6265 13.1396 14.7042C13.0192 13.7819 13.1862 12.845 13.618 12.0212C14.0497 11.1973 14.7251 10.5268 15.552 10.101ZM18.2013 9.91114C17.3353 9.79171 16.4536 9.94237 15.6764 10.3426C14.8992 10.7428 14.2644 11.373 13.8586 12.1473C13.4528 12.9216 13.2958 13.8022 13.409 14.669C13.5222 15.5358 13.9001 16.3466 14.4911 16.9907C14.5742 17.0813 14.7149 17.0873 14.8054 17.0043C14.896 16.9212 14.902 16.7805 14.8189 16.6899C14.2898 16.1133 13.9515 15.3874 13.8502 14.6114C13.7489 13.8354 13.8894 13.047 14.2527 12.3538C14.616 11.6606 15.1843 11.0964 15.8801 10.7381C16.5758 10.3798 17.3652 10.245 18.1405 10.3519C18.9158 10.4588 19.6392 10.8023 20.212 11.3356C20.7848 11.8688 21.1792 12.5658 21.3413 13.3314C21.5033 14.0971 21.4252 14.8941 21.1176 15.6137C20.81 16.3333 20.2879 16.9405 19.6224 17.3524C19.518 17.4171 19.4857 17.5542 19.5504 17.6587C19.615 17.7631 19.7521 17.7954 19.8566 17.7307C20.5999 17.2706 21.1831 16.5924 21.5267 15.7886C21.8703 14.9848 21.9576 14.0945 21.7765 13.2393C21.5955 12.3841 21.155 11.6055 20.5151 11.0099C19.8753 10.4143 19.0673 10.0306 18.2013 9.91114Z" fill="#AFAFAF"/>
<path d="M17.7375 13.0215L18.2963 13.3441C18.451 13.4335 18.5463 13.5985 18.5463 13.7772V14.4224C18.5463 14.6011 18.451 14.7661 18.2963 14.8555L17.7375 15.1781C17.5828 15.2674 17.3922 15.2674 17.2375 15.1781L16.6787 14.8555C16.524 14.7661 16.4287 14.6011 16.4287 14.4224V13.7771C16.4287 13.5985 16.524 13.4335 16.6787 13.3441L17.2375 13.0215C17.3922 12.9322 17.5828 12.9322 17.7375 13.0215Z" stroke="#AFAFAF"/>
<path fill-rule="evenodd" clip-rule="evenodd" d="M11.9755 16.9395C12.1734 16.9395 12.3338 17.0999 12.3338 17.2978V23.4415C12.3338 23.6394 12.1734 23.7998 11.9755 23.7998C11.7776 23.7998 11.6172 23.6394 11.6172 23.4415V17.2978C11.6172 17.0999 11.7776 16.9395 11.9755 16.9395Z" fill="#AFAFAF"/>
<path fill-rule="evenodd" clip-rule="evenodd" d="M11.4766 17.2979C11.4766 17.025 11.6978 16.8037 11.9707 16.8037C12.2436 16.8037 12.4649 17.025 12.4649 17.2979V23.4416C12.4649 23.7145 12.2436 23.9358 11.9707 23.9358C11.6978 23.9358 11.4766 23.7145 11.4766 23.4416V17.2979ZM11.9707 17.0754C11.8479 17.0754 11.7483 17.175 11.7483 17.2979V23.4416C11.7483 23.5645 11.8479 23.6641 11.9707 23.6641C12.0936 23.6641 12.1932 23.5645 12.1932 23.4416V17.2979C12.1932 17.175 12.0936 17.0754 11.9707 17.0754Z" fill="#AFAFAF"/>
<path fill-rule="evenodd" clip-rule="evenodd" d="M9.8766 17.7771C9.81943 17.8606 9.78693 17.9941 9.78693 18.1454V22.571C9.78693 22.6306 9.83591 22.7639 9.96626 22.8997C10.0973 23.0363 10.2219 23.0835 10.276 23.0835C10.4739 23.0835 10.6343 23.2439 10.6343 23.4418C10.6343 23.6396 10.4739 23.8001 10.276 23.8001C9.94464 23.8001 9.64547 23.6004 9.44921 23.3959C9.25225 23.1907 9.07031 22.8885 9.07031 22.571V18.1454C9.07031 17.9175 9.11513 17.6209 9.28518 17.3724C9.4703 17.1018 9.77462 16.9321 10.1863 16.9397H11.9709C12.1688 16.9397 12.3292 17.1001 12.3292 17.298C12.3292 17.4959 12.1688 17.6563 11.9709 17.6563H10.1828L10.1752 17.6562C9.98946 17.6523 9.91808 17.7164 9.8766 17.7771Z" fill="#AFAFAF"/>
<path fill-rule="evenodd" clip-rule="evenodd" d="M10.1906 16.804C9.73644 16.796 9.3883 16.9857 9.1761 17.2958C8.98464 17.5756 8.9375 17.9031 8.9375 18.1455V22.5711C8.9375 22.9377 9.14477 23.2718 9.35423 23.4901C9.56269 23.7073 9.89496 23.936 10.2791 23.936C10.552 23.936 10.7732 23.7148 10.7732 23.4419C10.7732 23.169 10.552 22.9477 10.2791 22.9477C10.2799 22.9477 10.2797 22.9477 10.2785 22.9474C10.2736 22.9464 10.2525 22.9419 10.2168 22.923C10.176 22.9013 10.1235 22.8643 10.0673 22.8058C10.0115 22.7476 9.97477 22.6917 9.95253 22.6467C9.9414 22.6242 9.93432 22.6052 9.93019 22.5909C9.92626 22.5773 9.92586 22.5708 9.92582 22.5708C9.92582 22.5707 9.92581 22.5708 9.92582 22.5708L9.92581 18.1455C9.92581 18.0089 9.95595 17.9062 9.99176 17.8539C10.0036 17.8366 10.0157 17.824 10.0356 17.8141C10.0571 17.8033 10.0982 17.7905 10.1754 17.7922L10.1768 17.7922L10.1844 17.7923L11.9739 17.7923C12.2468 17.7923 12.4681 17.571 12.4681 17.2981C12.4681 17.0252 12.2468 16.804 11.9739 16.804H10.1906ZM10.1869 17.0756C9.81823 17.0688 9.55817 17.2185 9.40033 17.4492C9.2517 17.6665 9.2092 17.9321 9.2092 18.1455V22.5711C9.2092 22.8396 9.3658 23.1097 9.55026 23.3019C9.73433 23.4938 10.0004 23.6643 10.2791 23.6643C10.4019 23.6643 10.5015 23.5647 10.5015 23.4419C10.5015 23.319 10.4019 23.2194 10.2791 23.2194C10.2208 23.2194 10.1534 23.1969 10.0892 23.1629C10.0215 23.1268 9.94618 23.0719 9.87128 22.9939C9.79676 22.9162 9.74381 22.8376 9.70897 22.7671C9.67585 22.7001 9.65411 22.6303 9.65411 22.5711V18.1455C9.65411 17.9796 9.68899 17.8152 9.76752 17.7005C9.79718 17.6571 9.84152 17.6073 9.91409 17.571C9.98491 17.5356 10.0722 17.5183 10.1804 17.5205L10.1866 17.5206H11.9739C12.0968 17.5206 12.1964 17.421 12.1964 17.2981C12.1964 17.1752 12.0968 17.0757 11.9739 17.0757L10.1869 17.0756Z" fill="#AFAFAF"/>
<path fill-rule="evenodd" clip-rule="evenodd" d="M24.0491 18.9786C23.9322 18.9322 23.8019 18.9327 23.6853 18.9799C23.6817 18.9814 23.6782 18.9828 23.6746 18.9841L19.8612 20.3887C19.8215 20.4033 19.7796 20.4108 19.7374 20.4108H15.5723C15.3744 20.4108 15.214 20.2503 15.214 20.0524C15.214 19.8546 15.3744 19.6941 15.5723 19.6941H19.6735L23.422 18.3134C23.7079 18.1993 24.0268 18.1989 24.3132 18.3124C24.6015 18.4266 24.8347 18.6476 24.9643 18.9293C25.0939 19.2111 25.11 19.5319 25.0092 19.8252C24.9084 20.1185 24.6984 20.3617 24.423 20.5042C24.419 20.5062 24.415 20.5082 24.4109 20.5101L17.3583 23.8299C17.2871 23.8633 17.2069 23.8725 17.1301 23.8559L11.9312 22.7331C11.7378 22.6913 11.6148 22.5006 11.6566 22.3072C11.6984 22.1138 11.889 21.9908 12.0825 22.0326L17.1628 23.1298L24.0988 19.865C24.208 19.8068 24.2912 19.7094 24.3315 19.5923C24.3724 19.4733 24.3659 19.3431 24.3133 19.2288C24.2607 19.1146 24.1661 19.0249 24.0491 18.9786Z" fill="#AFAFAF"/>
<path fill-rule="evenodd" clip-rule="evenodd" d="M23.3764 18.1867C23.6941 18.0604 24.0482 18.0601 24.3663 18.1862C24.6871 18.3133 24.9466 18.5592 25.0908 18.8727C25.235 19.1861 25.2529 19.5432 25.1407 19.8695C25.0285 20.1958 24.7949 20.4664 24.4885 20.6249C24.483 20.6278 24.4774 20.6305 24.4718 20.6331L17.4192 23.9529C17.3211 23.9991 17.2105 24.0117 17.1045 23.9888L11.9056 22.866C11.6388 22.8083 11.4693 22.5454 11.5269 22.2786C11.5845 22.0119 11.8474 21.8423 12.1142 21.8999L17.1496 22.9874L24.0407 19.7437C24.1183 19.7016 24.1773 19.6318 24.2061 19.5482C24.2356 19.4623 24.2309 19.3683 24.1929 19.2857L24.3163 19.2289L24.1929 19.2857C24.1549 19.2032 24.0866 19.1384 24.0022 19.105C23.9177 19.0715 23.8236 19.0718 23.7393 19.106C23.7345 19.1079 23.7295 19.1098 23.7246 19.1117L19.9112 20.5163L19.8643 20.3888L19.9112 20.5163C19.8565 20.5364 19.7987 20.5467 19.7404 20.5467H15.5754C15.3025 20.5467 15.0812 20.3255 15.0812 20.0526C15.0812 19.7796 15.3025 19.5584 15.5754 19.5584H19.6523L23.3764 18.1867ZM24.2662 18.4388C24.0121 18.3381 23.7291 18.3384 23.4754 18.4397L23.472 18.4411L23.472 18.441L19.7235 19.8217C19.7085 19.8273 19.6926 19.8301 19.6765 19.8301H15.5754C15.4525 19.8301 15.3529 19.9297 15.3529 20.0526C15.3529 20.1754 15.4525 20.275 15.5754 20.275H19.7404C19.7667 20.275 19.7927 20.2704 19.8173 20.2613L23.6307 18.8567L23.673 18.9715L23.6307 18.8567L23.6373 18.8541C23.7863 18.7938 23.9528 18.7932 24.1023 18.8524C24.2517 18.9116 24.3726 19.0261 24.4398 19.1722C24.5069 19.3182 24.5153 19.4845 24.463 19.6365C24.4116 19.7862 24.3053 19.9107 24.1657 19.985L24.1598 19.9881L24.1597 19.988L17.2237 23.2529C17.1968 23.2656 17.1664 23.269 17.1372 23.2627L12.0568 22.1655C11.9368 22.1396 11.8184 22.2159 11.7924 22.336C11.7665 22.4561 11.8428 22.5745 11.9629 22.6004L17.1618 23.7232C17.2095 23.7335 17.2593 23.7278 17.3035 23.707L24.3561 20.3873L24.3561 20.3873L24.3636 20.3836L24.426 20.5043L24.3636 20.3836C24.608 20.2572 24.7943 20.0414 24.8838 19.7812C24.9732 19.5209 24.959 19.2362 24.8439 18.9862C24.7289 18.7362 24.522 18.5402 24.2662 18.4388Z" fill="#AFAFAF"/>
<path fill-rule="evenodd" clip-rule="evenodd" d="M11.6172 18.1454C11.6172 17.9475 11.7776 17.7871 11.9755 17.7871H17.6955C17.8934 17.7871 18.0539 17.9475 18.0539 18.1454C18.0539 18.3433 17.8934 18.5037 17.6955 18.5037H11.9755C11.7776 18.5037 11.6172 18.3433 11.6172 18.1454Z" fill="#AFAFAF"/>
<path fill-rule="evenodd" clip-rule="evenodd" d="M11.4766 18.1455C11.4766 17.8726 11.6978 17.6514 11.9707 17.6514H17.6908C17.9637 17.6514 18.1849 17.8726 18.1849 18.1455C18.1849 18.4184 17.9637 18.6397 17.6908 18.6397H11.9707C11.6978 18.6397 11.4766 18.4184 11.4766 18.1455ZM11.9707 17.9231C11.8479 17.9231 11.7483 18.0227 11.7483 18.1455C11.7483 18.2684 11.8479 18.368 11.9707 18.368H17.6908C17.8136 18.368 17.9132 18.2684 17.9132 18.1455C17.9132 18.0227 17.8136 17.9231 17.6908 17.9231H11.9707Z" fill="#AFAFAF"/>
</svg>
