<svg width="20" height="20" viewBox="0 0 20 20" fill="none" xmlns="http://www.w3.org/2000/svg">
<g clip-path="url(#clip0_2904_61963)">
<path d="M20.0002 9.9559C20.0089 11.9337 19.4309 13.8696 18.3394 15.519C17.2478 17.1683 15.6917 18.4569 13.8678 19.2218C12.0439 19.9867 10.0342 20.1937 8.09269 19.8164C6.15121 19.4391 4.36519 18.4946 2.96051 17.1023C1.55582 15.7099 0.595546 13.9323 0.20112 11.9943C-0.193306 10.0562 -0.00417068 8.04467 0.744609 6.21409C1.49339 4.3835 2.76818 2.81606 4.40779 1.70998C6.04739 0.603904 7.97816 0.00885984 9.95595 9.81342e-05C11.2692 -0.00571952 12.5707 0.247181 13.7862 0.744361C15.0016 1.24154 16.1073 1.97326 17.04 2.89775C17.9727 3.82223 18.7142 4.92137 19.2221 6.13241C19.73 7.34345 19.9944 8.64267 20.0002 9.9559Z" fill="#8DC63F"/>
<path d="M19.2502 9.95983C19.2592 11.7891 18.7255 13.58 17.7166 15.106C16.7077 16.632 15.2689 17.8245 13.5823 18.5327C11.8956 19.2409 10.0367 19.4331 8.24087 19.0848C6.445 18.7365 4.79275 17.8634 3.49309 16.576C2.19344 15.2886 1.30476 13.6447 0.939457 11.8523C0.574152 10.0598 0.748628 8.1992 1.44082 6.50587C2.13301 4.81255 3.31183 3.36254 4.82817 2.33922C6.34451 1.31591 8.13027 0.765261 9.95959 0.756926C12.4117 0.746136 14.7678 1.70946 16.5099 3.43516C18.2521 5.16086 19.2377 7.5077 19.2502 9.95983Z" fill="#F9E988"/>
<path d="M10.1704 1.35268C10.7583 1.24833 11.36 1.24833 11.9479 1.35268C12.5415 1.44679 13.1153 1.63903 13.6458 1.92152C14.1733 2.21137 14.6291 2.60485 15.0827 2.97369C15.5363 3.34253 15.9878 3.72007 16.4175 4.13311C16.8562 4.53969 17.239 5.00266 17.5559 5.50992C17.8821 6.01321 18.1496 6.55224 18.353 7.11645C18.7392 8.25123 18.8733 9.47369 18.6805 10.6396H18.6233C18.4298 9.48384 18.1675 8.38239 17.7537 7.33456C17.5595 6.80787 17.331 6.29445 17.0697 5.79761C16.7971 5.298 16.4967 4.81414 16.1697 4.34833C15.8373 3.87912 15.4299 3.46783 14.9639 3.13094C14.4943 2.79616 13.9545 2.57949 13.432 2.37369C12.9095 2.1679 12.3914 1.95703 11.8465 1.80051C11.3016 1.64398 10.7479 1.52659 10.1697 1.41282L10.1704 1.35268Z" fill="white"/>
<path d="M14.6915 6.69517C14.0205 6.50096 13.3249 6.2256 12.6205 5.94734C12.5799 5.77053 12.4234 5.55024 12.1067 5.2814C11.6466 4.88212 10.7821 4.89227 10.035 5.06908C9.21036 4.87488 8.39587 4.80604 7.61398 4.99662C1.21905 6.75821 4.84514 11.056 2.49731 15.3763C2.83137 16.085 6.4321 20.2198 11.6422 19.1104C11.6422 19.1104 9.86036 14.8285 13.8814 12.7734C17.143 11.1002 19.4995 8.00459 14.6915 6.69517Z" fill="#8BC53F"/>
<path d="M15.4812 9.50758C15.4816 9.58425 15.4593 9.65933 15.417 9.72333C15.3748 9.78732 15.3145 9.83734 15.2439 9.86708C15.1732 9.89682 15.0953 9.90494 15.02 9.8904C14.9447 9.87586 14.8754 9.83933 14.8209 9.78541C14.7664 9.7315 14.7291 9.66263 14.7137 9.58751C14.6983 9.5124 14.7055 9.43441 14.7345 9.3634C14.7634 9.2924 14.8128 9.23157 14.8763 9.18862C14.9398 9.14566 15.0146 9.1225 15.0913 9.12207C15.1941 9.12169 15.2928 9.16204 15.3659 9.2343C15.4389 9.30655 15.4804 9.40482 15.4812 9.50758Z" fill="white"/>
<path d="M10.0349 5.06654C10.5009 5.09987 12.1856 5.64625 12.6204 5.9448C12.2581 4.89407 11.0385 4.75422 10.0349 5.06654Z" fill="#009345"/>
<path d="M10.4784 7.72323C10.4786 8.07694 10.3738 8.42275 10.1774 8.71694C9.98103 9.01112 9.70181 9.24045 9.37508 9.37595C9.04835 9.51144 8.68877 9.547 8.34183 9.47814C7.99488 9.40927 7.67615 9.23907 7.42594 8.98906C7.17572 8.73905 7.00526 8.42045 6.93612 8.07356C6.86697 7.72668 6.90224 7.36707 7.03747 7.04023C7.1727 6.71339 7.40181 6.43398 7.69583 6.23735C7.98985 6.04072 8.33558 5.93569 8.68929 5.93555C9.16336 5.93555 9.61803 6.12377 9.95337 6.45885C10.2887 6.79392 10.4773 7.24844 10.4777 7.7225L10.4784 7.72323Z" fill="white"/>
<path d="M9.94783 7.73942C9.94783 7.98822 9.87405 8.23144 9.73582 8.43831C9.59759 8.64518 9.40112 8.80642 9.17126 8.90163C8.9414 8.99684 8.68846 9.02175 8.44444 8.97322C8.20042 8.92468 7.97627 8.80487 7.80034 8.62894C7.62441 8.45301 7.5046 8.22886 7.45606 7.98483C7.40752 7.74081 7.43243 7.48788 7.52764 7.25801C7.62286 7.02815 7.78409 6.83168 7.99096 6.69345C8.19784 6.55522 8.44105 6.48145 8.68986 6.48145C9.02349 6.48145 9.34346 6.61398 9.57938 6.8499C9.81529 7.08581 9.94783 7.40578 9.94783 7.73942Z" fill="#58595B"/>
<path d="M16.9298 10.296C15.4805 11.317 13.8327 12.0917 11.495 12.0917C10.4008 12.0917 10.179 10.9322 9.45585 11.4989C9.08266 11.7931 7.76672 12.4511 6.72252 12.4011C5.67831 12.3511 3.98556 11.7395 3.51382 9.50977C3.32686 11.7395 3.23121 13.3808 2.39136 15.2627C4.05802 17.9315 8.03194 19.9902 11.6392 19.1032C11.2544 16.3967 13.6232 13.746 14.9522 12.3916C15.4595 11.8779 16.4232 11.0395 16.9298 10.2967V10.296Z" fill="#8BC53F"/>
<path d="M16.8732 10.3623C16.4232 10.7725 15.8877 11.0761 15.3428 11.3442C14.7911 11.6058 14.2161 11.8152 13.6254 11.9696C13.0341 12.1225 12.4174 12.2377 11.7928 12.1811C11.1681 12.1246 10.5297 11.9123 10.116 11.4442L10.1355 11.4217C10.6428 11.7507 11.2283 11.8667 11.8109 11.8833C12.4014 11.9015 12.9921 11.8529 13.5718 11.7384C14.1573 11.6157 14.73 11.4386 15.2826 11.2094C15.8355 10.9811 16.3826 10.7167 16.8536 10.3398L16.8732 10.3623Z" fill="#58595B"/>
</g>
<defs>
<clipPath id="clip0_2904_61963">
<rect width="20" height="20" fill="white"/>
</clipPath>
</defs>
</svg>
