<svg width="21" height="21" viewBox="0 0 21 21" fill="none" xmlns="http://www.w3.org/2000/svg">
<path d="M16.9681 6.30366L16.7366 6.59122L16.9017 6.92142C17.157 7.43202 17.3803 7.96382 17.5467 8.51783L17.6571 8.88549L18.039 8.92447L20.425 9.168L20.4248 11.8909L18.0388 12.1344L17.6425 12.1749L17.5411 12.5601C17.407 13.0696 17.1901 13.5879 16.9134 14.0857L16.7243 14.4259L16.9699 14.7278L18.4493 16.547L16.5452 18.4511L14.6666 16.9386L14.3651 16.6958L14.0268 16.8838C13.5387 17.1548 13.0459 17.3478 12.4821 17.5169L12.1143 17.6272L12.0753 18.0092L11.8318 20.3952H9.13844L8.8949 18.0092L8.85445 17.613L8.46925 17.5116C7.9597 17.3774 7.44138 17.1605 6.94361 16.8839L6.60522 16.6958L6.30366 16.9386L4.42508 18.4511L2.51911 16.5452L4.03166 14.6666L4.27438 14.3651L4.08645 14.0268C3.81538 13.5387 3.62247 13.0459 3.45336 12.4821L3.34302 12.1143L2.96099 12.0753L0.575 11.8318V9.13844L2.96099 8.8949L3.35725 8.85445L3.45866 8.46925C3.5928 7.9597 3.8097 7.44139 4.08637 6.94361L4.27446 6.60522L4.03166 6.30366L2.51911 4.42508L4.42508 2.51911L6.30366 4.03166L6.60512 4.27438L6.94347 4.08645C7.43148 3.81538 7.92432 3.62247 8.48808 3.45336L8.85591 3.34302L8.8949 2.96099L9.13844 0.575H11.8615L12.1051 2.96099L12.1455 3.35725L12.5307 3.45866C13.0403 3.5928 13.5586 3.8097 14.0563 4.08637L14.3948 4.27447L14.6963 4.03164L16.5747 2.51913L18.4806 4.42508L16.9681 6.30366Z" stroke="#5E6773" stroke-width="1.15"/>
<path d="M12.8328 12.8627L12.8328 12.8626C14.1211 11.5745 14.1153 9.45367 12.8368 8.20035L12.8328 8.19637L12.8328 8.19635C11.5467 6.91036 9.45238 6.91038 8.16644 8.19632C6.88045 9.48239 6.88047 11.5767 8.16641 12.8627C8.16642 12.8627 8.16642 12.8627 8.16642 12.8627M12.8328 12.8627L13.2393 13.2693C11.7288 14.7798 9.27046 14.7798 7.75984 13.2693L8.16642 12.8627M12.8328 12.8627C11.5468 14.1486 9.4525 14.1486 8.16642 12.8627M12.8328 12.8627L8.16642 12.8627" stroke="#868991" stroke-width="1.15"/>
</svg>
