<svg width="16" height="17" viewBox="0 0 16 17" fill="none" xmlns="http://www.w3.org/2000/svg">
<path d="M6.66667 12.75C6.66667 13.1642 7.00245 13.5 7.41667 13.5H8.58333C8.99755 13.5 9.33333 13.1642 9.33333 12.75C9.33333 12.3358 8.99755 12 8.58333 12H7.41667C7.00245 12 6.66667 12.3358 6.66667 12.75ZM2.75 4.5C2.33579 4.5 2 4.83579 2 5.25C2 5.66421 2.33579 6 2.75 6H13.25C13.6642 6 14 5.66421 14 5.25C14 4.83579 13.6642 4.5 13.25 4.5H2.75ZM4 9C4 9.41421 4.33579 9.75 4.75 9.75H11.25C11.6642 9.75 12 9.41421 12 9C12 8.58579 11.6642 8.25 11.25 8.25H4.75C4.33579 8.25 4 8.58579 4 9Z" fill="#AFAFAF"/>
</svg>
