<svg width="21" height="21" viewBox="0 0 21 21" fill="none" xmlns="http://www.w3.org/2000/svg">
<path d="M3.14782 0C2.96188 0.00031248 2.78391 0.0746881 2.65282 0.206564C2.52172 0.338284 2.44844 0.516876 2.44922 0.702805V20.3028V20.3027C2.44985 20.4877 2.52376 20.6649 2.65469 20.7955C2.78563 20.9261 2.96282 20.9997 3.14781 21H17.8478C18.0328 20.9997 18.21 20.9261 18.3409 20.7955C18.4719 20.6648 18.5458 20.4877 18.5464 20.3027V7.70426H12.598C12.2093 7.70582 11.8938 7.39035 11.8954 7.00161V7.78199e-06L3.14782 0ZM13.2962 0.44436V6.30437L18.1798 6.30421L13.2962 0.44436ZM6.99782 10.5H14.0006C14.1853 10.5008 14.3622 10.5743 14.4928 10.705C14.6235 10.8356 14.6971 11.0125 14.6978 11.1973C14.6986 11.383 14.6255 11.5612 14.4947 11.693C14.3639 11.8248 14.1863 11.8992 14.0006 11.9H6.99782C6.81125 11.9008 6.63204 11.8269 6.50018 11.695C6.36814 11.563 6.2944 11.3839 6.29518 11.1974C6.2958 11.0116 6.37033 10.8339 6.50205 10.7032C6.63377 10.5724 6.81221 10.4993 6.99785 10.5L6.99782 10.5ZM6.99782 13.3014H14.0006C14.1853 13.302 14.3622 13.3757 14.4928 13.5064C14.6235 13.637 14.6971 13.8139 14.6978 13.9986C14.6986 14.1842 14.6255 14.3626 14.4947 14.4944C14.3639 14.6262 14.1863 14.7006 14.0006 14.7014H6.99782C6.81125 14.702 6.63204 14.6283 6.50018 14.4964C6.36814 14.3644 6.2944 14.1852 6.29518 13.9986C6.2958 13.813 6.37033 13.6352 6.50205 13.5045C6.63377 13.3737 6.81221 13.3006 6.99785 13.3014L6.99782 13.3014Z" fill="url(#paint0_linear_775_2772)"/>
<defs>
<linearGradient id="paint0_linear_775_2772" x1="18.5464" y1="0" x2="-1.73258" y2="15.5445" gradientUnits="userSpaceOnUse">
<stop stop-color="#25D695"/>
<stop offset="1" stop-color="#179B69"/>
</linearGradient>
</defs>
</svg>
