<svg width="21" height="21" viewBox="0 0 21 21" fill="none" xmlns="http://www.w3.org/2000/svg">
<path opacity="0.35" fill-rule="evenodd" clip-rule="evenodd" d="M18.2813 5.92343C18.2813 7.46964 17.0554 8.72309 15.5432 8.72309C14.0311 8.72309 12.8052 7.46964 12.8052 5.92343C12.8052 4.37723 14.0311 3.12378 15.5432 3.12378C17.0554 3.12378 18.2813 4.37723 18.2813 5.92343ZM15.5431 9.71191C18.6355 9.71191 20.4394 11.8199 20.987 15.3442C21.2062 16.6895 18.714 17.2249 15.8214 17.223C15.6851 17.2229 15.5498 17.1164 15.5437 16.9802C15.5431 16.967 15.5421 16.9514 15.54 16.9383C15.122 14.3589 14.2283 12.3311 12.9218 10.9193C12.9085 10.9048 12.8915 10.8899 12.8761 10.8776C12.707 10.7436 12.7345 10.4858 12.9194 10.3745C13.6536 9.93277 14.5144 9.71191 15.5431 9.71191Z" fill="#25D695"/>
<path fill-rule="evenodd" clip-rule="evenodd" d="M10.9693 5.06733C10.9693 7.14107 9.32523 8.82216 7.29716 8.82216C5.26908 8.82216 3.625 7.14107 3.625 5.06733C3.625 2.99359 5.26908 1.3125 7.29716 1.3125C9.32523 1.3125 10.9693 2.99359 10.9693 5.06733ZM0.0166301 17.1557C-0.273277 18.9672 3.27003 19.6918 7.29652 19.6918C11.323 19.6918 14.8663 18.9672 14.5764 17.1557C13.8033 12.4456 11.3874 9.646 7.29652 9.646C3.20561 9.646 0.789716 12.4127 0.0166301 17.1557Z" fill="url(#paint0_linear_762_1223)"/>
<defs>
<linearGradient id="paint0_linear_762_1223" x1="14.593" y1="1.3125" x2="-3.30788" y2="15.5257" gradientUnits="userSpaceOnUse">
<stop stop-color="#25D695"/>
<stop offset="1" stop-color="#179B69"/>
</linearGradient>
</defs>
</svg>
