<svg width="21" height="21" viewBox="0 0 21 21" fill="none" xmlns="http://www.w3.org/2000/svg">
<g clip-path="url(#clip0_775_1680)">
<path fill-rule="evenodd" clip-rule="evenodd" d="M16.3343 9.12329H4.6676C2.21033 9.12329 0.210938 7.1239 0.210938 4.66663C0.210938 2.20936 2.21033 0.209961 4.6676 0.209961H16.3343C18.7915 0.209961 20.7909 2.20936 20.7909 4.66663C20.7909 7.1239 18.7915 9.12329 16.3343 9.12329ZM6.79159 4.66679C6.79159 5.83744 5.8389 6.79012 4.66826 6.79012C3.49761 6.79012 2.54492 5.83744 2.54492 4.66679C2.54492 3.49615 3.49761 2.54346 4.66826 2.54346C5.8389 2.54346 6.79159 3.49615 6.79159 4.66679Z" fill="url(#paint0_linear_775_1680)"/>
<path opacity="0.35" fill-rule="evenodd" clip-rule="evenodd" d="M16.3343 11.877H4.6676C2.21033 11.877 0.210938 13.8763 0.210938 16.3336C0.210938 18.7909 2.21033 20.7903 4.6676 20.7903H16.3343C18.7915 20.7903 20.7909 18.7909 20.7909 16.3336C20.7909 13.8763 18.7915 11.877 16.3343 11.877ZM14.209 16.3333C14.209 15.1625 15.1615 14.21 16.3323 14.21C17.5031 14.21 18.4557 15.1625 18.4557 16.3333C18.4557 17.5041 17.5031 18.4566 16.3323 18.4566C15.1615 18.4566 14.209 17.5041 14.209 16.3333Z" fill="#25D695"/>
</g>
<defs>
<linearGradient id="paint0_linear_775_1680" x1="20.7909" y1="0.209961" x2="14.2896" y2="15.2209" gradientUnits="userSpaceOnUse">
<stop stop-color="#25D695"/>
<stop offset="1" stop-color="#179B69"/>
</linearGradient>
<clipPath id="clip0_775_1680">
<rect width="21" height="21" fill="white"/>
</clipPath>
</defs>
</svg>
