<svg width="24" height="24" viewBox="0 0 24 24" fill="#999" xmlns="http://www.w3.org/2000/svg">
<g clip-path="url(#clip0_2340_23078)">
<path d="M14.1384 16.8874L17.193 13.8329L14.1384 10.7783" stroke="currentcolor" stroke-width="2" stroke-linecap="round" stroke-linejoin="round"/>
<path d="M9.86191 10.7783L6.80737 13.8329L9.86191 16.8874" stroke="currentcolor" stroke-width="2" stroke-linecap="round" stroke-linejoin="round"/>
<path d="M14.4436 1.00391V5.89116C14.4436 6.21521 14.5723 6.52598 14.8015 6.75512C15.0306 6.98425 15.3414 7.11298 15.6654 7.11298H20.5527" stroke="currentcolor" stroke-width="2" stroke-linecap="round" stroke-linejoin="round"/>
<path d="M18.109 22.9966H5.89089C5.2428 22.9966 4.62126 22.7391 4.16299 22.2808C3.70472 21.8226 3.44727 21.201 3.44727 20.5529V3.44754C3.44727 2.79944 3.70472 2.1779 4.16299 1.71963C4.62126 1.26136 5.2428 1.00391 5.89089 1.00391H14.4436L20.5527 7.11298V20.5529C20.5527 21.201 20.2952 21.8226 19.8369 22.2808C19.3787 22.7391 18.7571 22.9966 18.109 22.9966Z" stroke="currentcolor" stroke-width="2" stroke-linecap="round" stroke-linejoin="round" style="fill:transparent"/>
</g>
<defs>
<clipPath id="clip0_2340_23078">
<rect width="24" height="24.0002" fill="black"/>
</clipPath>
</defs>
</svg>
