<?xml version="1.0" encoding="utf-8"?>
<!-- Generator: Adobe Illustrator 24.0.1, SVG Export Plug-In . SVG Version: 6.00 Build 0)  -->
<svg version="1.1" id="Layer_1" xmlns="http://www.w3.org/2000/svg" xmlns:xlink="http://www.w3.org/1999/xlink" x="0px" y="0px"
	 viewBox="0 0 24 24" style="enable-background:new 0 0 24 24;" xml:space="preserve">
<style type="text/css">
	.st0{fill-rule:evenodd;clip-rule:evenodd;}
	.st1{fill:none;}
</style>
<g id="news_1_" transform="translate(-1 -2)">
	<path id="Combined-Shape_3_" d="M15.4,3.5L15.4,3.5c0.2,0,0.4,0.1,0.5,0.2l0.1,0.1l3.7,3.8l0,0h0.4l0.3,0c0.1,0,0.3,0,0.4,0
		c1.1,0.1,2,0.7,2.6,1.6c0.4,0.5,0.6,1.2,0.7,1.8l0,0.3v9.4c0,0.8-0.3,1.5-0.8,2.2c-0.5,0.6-1.1,1.1-1.8,1.3
		c-0.3,0.1-0.6,0.2-0.9,0.2l-0.3,0H5.6c-0.9,0-1.7-0.3-2.4-0.9c-0.8-0.7-1.3-1.7-1.4-2.7l0-0.2v-9.1c0-0.8,0.3-1.6,0.8-2.3
		C3,8.6,3.7,8.1,4.5,7.9c0.3-0.1,0.7-0.2,1-0.2l0.3,0h11.4l-2.5-2.6c-0.4-0.4-0.4-1,0-1.3c0.1-0.1,0.3-0.2,0.4-0.2l0.1,0H15.4z
		 M20.3,9.6H5.5C4.7,9.6,4,10.1,3.8,10.9c-0.1,0.2-0.1,0.4-0.1,0.6v0.2v8.9c0,0.3,0.1,0.6,0.2,0.8c0.3,0.7,1,1.2,1.7,1.2l0.7,0h14
		c0.5,0,1-0.2,1.4-0.5c0.4-0.4,0.7-1,0.7-1.5v-8.9c0-0.5-0.2-0.9-0.5-1.3C21.5,9.8,20.9,9.6,20.3,9.6L20.3,9.6z M8.1,12.8
		c1.2-0.2,2.4,0.3,3.3,1.2l0.2,0.2l0.2,0.2c1,1.4,1,3.3,0,4.7c-1.3,1.7-3.7,2.1-5.4,0.8c-0.1,0-0.1-0.1-0.2-0.1
		c-0.7-0.6-1.2-1.4-1.3-2.2c-0.2-1,0-2,0.5-2.9c0.4-0.7,1.1-1.3,1.9-1.6C7.5,12.9,7.8,12.8,8.1,12.8z M17.4,12.8
		c0.5-0.1,1,0.1,1.2,0.6c0,0,0,0.1,0,0.1l0,0.1V15v4.3c0,0.2-0.1,0.5-0.2,0.6c-0.3,0.4-0.9,0.5-1.3,0.2C17.1,20.1,17,20,17,20
		c-0.1-0.2-0.2-0.4-0.2-0.6v-5.6C16.8,13.3,17,12.9,17.4,12.8L17.4,12.8z M15,14c0.5-0.1,1,0.2,1.1,0.7c0,0,0,0.1,0,0.1v0.1v3.3
		c0,0.4-0.2,0.8-0.6,0.9c-0.4,0.1-0.8,0-1-0.3c-0.1-0.1-0.2-0.3-0.2-0.5v-0.1v-3.2C14.3,14.5,14.6,14.1,15,14L15,14z M20.1,14
		c0.3-0.1,0.7,0,0.9,0.3l0.1,0.1l0.1,0.1c0,0.1,0.1,0.2,0.1,0.2l0,0.1l0,0.1v3.2c0,0.2-0.1,0.5-0.2,0.7c-0.3,0.3-0.7,0.4-1.1,0.2
		c-0.3-0.2-0.5-0.5-0.5-0.9V15C19.4,14.5,19.7,14.1,20.1,14L20.1,14z M8.6,14.6l-0.2,0c-0.7,0.1-1.3,0.5-1.6,1.1
		c-0.3,0.5-0.3,1.1-0.1,1.7c0.2,0.5,0.5,0.9,1,1.1c0.4,0.2,0.8,0.2,1.2,0.2c0.5-0.1,0.9-0.3,1.2-0.7c0.7-0.9,0.6-2.2-0.3-2.9
		c0,0-0.1,0-0.1-0.1c-0.3-0.2-0.6-0.3-1-0.4L8.6,14.6z"/>
</g>
</svg>
