<svg width="16" height="16" viewBox="0 0 16 16" fill="none" xmlns="http://www.w3.org/2000/svg">
<path d="M10.15 6.5C10.15 6.14101 9.85898 5.85 9.5 5.85H7C6.16457 5.85 5.36335 6.18187 4.77261 6.77261C4.18187 7.36335 3.85 8.16457 3.85 9V10.999C3.85 11.8344 4.18187 12.6356 4.77261 13.2264C5.36335 13.8171 6.16457 14.149 7 14.149H12C12.8354 14.149 13.6366 13.8171 14.2274 13.2264C14.8181 12.6356 15.15 11.8344 15.15 10.999V8.999C15.15 7.91891 14.606 6.96594 13.7779 6.39872C13.5676 6.25474 13.3289 6.27018 13.1477 6.38657C12.9701 6.50072 12.85 6.7092 12.85 6.94971C12.85 7.20382 12.9899 7.42054 13.1672 7.56474C13.3414 7.70641 13.489 7.87915 13.6021 8.07503C13.7645 8.35626 13.85 8.67527 13.85 9V11C13.85 11.4907 13.6551 11.9612 13.3081 12.3081C12.9612 12.6551 12.4907 12.85 12 12.85H7C6.50935 12.85 6.03879 12.6551 5.69185 12.3081C5.34491 11.9612 5.15 11.4907 5.15 11V9C5.15 8.50935 5.34491 8.03879 5.69185 7.69185C6.03879 7.34491 6.50935 7.15 7 7.15H9.5C9.85899 7.15 10.15 6.85898 10.15 6.5Z" fill="#AFAFAF" stroke="#AFAFAF" stroke-width="0.3"/>
<path d="M5.85 9.5C5.85 9.85899 6.14102 10.15 6.5 10.15H9C9.83543 10.15 10.6366 9.81813 11.2274 9.22739C11.8181 8.63665 12.15 7.83543 12.15 7V5C12.15 4.16457 11.8181 3.36335 11.2274 2.77261C10.6366 2.18187 9.83543 1.85 9 1.85H4C3.16457 1.85 2.36335 2.18187 1.77261 2.77261C1.18187 3.36335 0.85 4.16457 0.85 5L0.85 6.99996C0.85 6.99997 0.85 6.99999 0.85 7C0.849821 7.65162 1.05167 8.28728 1.42774 8.81942C1.64518 9.12709 1.91467 9.39141 2.22205 9.60167C2.43236 9.74551 2.67115 9.72992 2.85226 9.61347C3.0299 9.49927 3.15 9.29077 3.15 9.05025C3.15 8.79617 3.01012 8.57946 2.83281 8.43528C2.65859 8.29361 2.51096 8.12086 2.39786 7.92497C2.23549 7.64374 2.15001 7.32473 2.15 7V5C2.15 4.50935 2.34491 4.03879 2.69185 3.69185C3.03879 3.34491 3.50935 3.15 4 3.15H9C9.49065 3.15 9.96121 3.34491 10.3081 3.69185C10.6551 4.03879 10.85 4.50935 10.85 5V7C10.85 7.49065 10.6551 7.9612 10.3081 8.30815C9.96121 8.65509 9.49065 8.85 9 8.85H6.5C6.14102 8.85 5.85 9.14101 5.85 9.5Z" fill="#AFAFAF" stroke="#AFAFAF" stroke-width="0.3"/>
</svg>
