<svg width="20" height="20" viewBox="0 0 20 20" fill="none" xmlns="http://www.w3.org/2000/svg">
<path d="M9.99087 3.19234C10.0908 3.19234 10.1901 3.19234 10.2885 3.19234C9.31555 4.09642 8.69015 5.31287 8.52103 6.63023C8.35191 7.94759 8.64976 9.28256 9.36281 10.4031C10.0759 11.5236 11.159 12.3589 12.424 12.7636C13.689 13.1684 15.0558 13.1171 16.2869 12.6186C15.8134 13.7581 15.0394 14.7476 14.0475 15.4817C13.0557 16.2158 11.8831 16.6668 10.655 16.7867C9.42691 16.9067 8.18928 16.691 7.07414 16.1627C5.959 15.6344 5.00819 14.8133 4.32313 13.7869C3.63806 12.7606 3.24445 11.5676 3.18426 10.3351C3.12408 9.10263 3.39958 7.87692 3.98139 6.78874C4.56319 5.70056 5.42948 4.79072 6.48784 4.15627C7.54619 3.52183 8.75692 3.18658 9.99087 3.18628V3.19234Z" stroke="white" stroke-width="1.6" stroke-linecap="round" stroke-linejoin="round"/>
<path d="M13.7643 3.47534C13.7643 3.87708 13.9238 4.26236 14.2079 4.54643C14.492 4.8305 14.8773 4.99009 15.279 4.99009C14.8773 4.99009 14.492 5.14968 14.2079 5.43375C13.9238 5.71782 13.7643 6.1031 13.7643 6.50484C13.7643 6.1031 13.6047 5.71782 13.3206 5.43375C13.0365 5.14968 12.6512 4.99009 12.2495 4.99009C12.6512 4.99009 13.0365 4.8305 13.3206 4.54643C13.6047 4.26236 13.7643 3.87708 13.7643 3.47534Z" fill="white" stroke="white" stroke-width="1.3" stroke-linecap="round" stroke-linejoin="round"/>
<path d="M16.6667 8.48535V10.0001M15.9093 9.24273H17.424H15.9093Z" stroke="white" stroke-width="1.3" stroke-linecap="round" stroke-linejoin="round"/>
</svg>
