<svg xmlns="http://www.w3.org/2000/svg" xmlns:xlink="http://www.w3.org/1999/xlink" style="enable-background:new 12 12 24 24" id="Layer_1" x="0" y="0" version="1.1" viewBox="12 12 24 24" xml:space="preserve">
<g clip-path="url(#clip0_2133_40541)">
<path fill-rule="evenodd" clip-rule="evenodd" d="M14.8611 27.5628V33.9377C14.8611 33.9378 14.8612 33.9379 14.8612 33.938C14.8622 33.9401 14.8662 33.9476 14.8768 33.9575C14.8985 33.9777 14.9403 34.0005 15.0019 34.0005H19.5653C19.6269 34.0005 19.6687 33.9777 19.6904 33.9575C19.701 33.9476 19.705 33.9401 19.7059 33.938C19.706 33.9379 19.7061 33.9378 19.7061 33.9377V27.5628C19.7061 27.5627 19.706 27.5626 19.7059 27.5624C19.705 27.5603 19.701 27.5529 19.6904 27.543C19.6687 27.5228 19.6269 27.5 19.5653 27.5H15.0019C14.9403 27.5 14.8985 27.5228 14.8768 27.543C14.8662 27.5529 14.8622 27.5603 14.8612 27.5624C14.8612 27.5626 14.8611 27.5627 14.8611 27.5628ZM12.8611 27.5626C12.8611 26.3577 13.8877 25.5 15.0019 25.5H19.5653C20.6795 25.5 21.7061 26.3577 21.7061 27.5626V33.9379C21.7061 35.1428 20.6795 36.0005 19.5653 36.0005H15.0019C13.8877 36.0005 12.8611 35.1428 12.8611 33.9379V27.5626Z"/>
<path fill-rule="evenodd" clip-rule="evenodd" d="M21.7065 23.3128V33.9379C21.7066 33.938 21.7066 33.9381 21.7067 33.9383C21.7077 33.9404 21.7116 33.9478 21.7222 33.9577C21.744 33.9779 21.7858 34.0007 21.8474 34.0007H26.4107C26.4724 34.0007 26.5142 33.9779 26.5359 33.9577C26.5465 33.9478 26.5504 33.9404 26.5514 33.9383C26.5515 33.9381 26.5515 33.938 26.5516 33.9379V23.3128C26.5515 23.3127 26.5515 23.3126 26.5514 23.3124C26.5504 23.3103 26.5465 23.3029 26.5359 23.293C26.5142 23.2728 26.4724 23.25 26.4107 23.25H21.8474C21.7858 23.25 21.744 23.2728 21.7222 23.293C21.7116 23.3029 21.7077 23.3103 21.7067 23.3124C21.7066 23.3126 21.7066 23.3127 21.7065 23.3128ZM19.7065 23.3126C19.7065 22.1077 20.7332 21.25 21.8474 21.25H26.4107C27.5249 21.25 28.5516 22.1077 28.5516 23.3126V33.9381C28.5516 35.143 27.5249 36.0007 26.4107 36.0007H21.8474C20.7332 36.0007 19.7065 35.143 19.7065 33.9381V23.3126Z"/>
<path fill-rule="evenodd" clip-rule="evenodd" d="M28.552 19.0628V33.9381C28.552 33.9382 28.5521 33.9384 28.5522 33.9385C28.5531 33.9406 28.5571 33.9481 28.5677 33.958C28.5894 33.9782 28.6312 34.0009 28.6928 34.0009H33.2562C33.3178 34.0009 33.3596 33.9782 33.3813 33.958C33.3919 33.9481 33.3959 33.9406 33.3969 33.9385C33.3969 33.9384 33.397 33.9382 33.397 33.9381V19.0628C33.397 19.0627 33.3969 19.0626 33.3969 19.0624C33.3959 19.0603 33.3919 19.0529 33.3813 19.043C33.3596 19.0228 33.3178 19 33.2562 19H28.6928C28.6312 19 28.5894 19.0228 28.5677 19.043C28.5571 19.0529 28.5531 19.0603 28.5522 19.0624C28.5521 19.0626 28.552 19.0627 28.552 19.0628ZM26.552 19.0626C26.552 17.8577 27.5786 17 28.6928 17H33.2562C34.3704 17 35.397 17.8577 35.397 19.0626V33.9384C35.397 35.1433 34.3704 36.0009 33.2562 36.0009H28.6928C27.5786 36.0009 26.552 35.1433 26.552 33.9384V19.0626Z"/>
<path fill-rule="evenodd" clip-rule="evenodd" d="M14.0034 35.002C14.0034 34.4497 14.4511 34.002 15.0034 34.002H30.9751C31.5274 34.002 31.9751 34.4497 31.9751 35.002C31.9751 35.5542 31.5274 36.002 30.9751 36.002H15.0034C14.4511 36.002 14.0034 35.5542 14.0034 35.002Z"/>
<path fill-rule="evenodd" clip-rule="evenodd" d="M16.5 12.1992C16.8101 12.1992 17.0923 12.3784 17.2241 12.6592L18.1247 14.577L20.121 14.8824C20.4174 14.9278 20.6635 15.1351 20.7586 15.4194C20.8538 15.7038 20.7819 16.0174 20.5725 16.232L19.1045 17.736L19.4525 19.8705C19.5018 20.1729 19.3741 20.4768 19.1237 20.6533C18.8732 20.8297 18.544 20.8476 18.2759 20.6993L16.5 19.7174L14.7241 20.6993C14.456 20.8476 14.1267 20.8297 13.8763 20.6533C13.6258 20.4768 13.4981 20.1729 13.5474 19.8705L13.8954 17.736L12.4275 16.232C12.218 16.0174 12.1462 15.7038 12.2413 15.4194C12.3364 15.1351 12.5826 14.9278 12.879 14.8824L14.8752 14.577L15.7758 12.6592C15.9077 12.3784 16.1899 12.1992 16.5 12.1992ZM16.5 14.8812L16.1421 15.6433C16.0287 15.8847 15.8026 16.0537 15.539 16.094L14.6599 16.2285L15.3225 16.9074C15.4999 17.0892 15.5804 17.3443 15.5395 17.595L15.3917 18.5019L16.1129 18.1031C16.3537 17.9699 16.6462 17.9699 16.8871 18.1031L17.6083 18.5019L17.4604 17.595C17.4195 17.3443 17.5001 17.0892 17.6775 16.9074L18.3401 16.2285L17.461 16.094C17.1974 16.0537 16.9712 15.8847 16.8578 15.6433L16.5 14.8812Z"/>
</g>
<defs>
<clipPath id="clip0_2133_40541">
<rect width="24" height="24" fill="white" transform="translate(12 12)"/>
</clipPath>
</defs>
</svg>
