<svg width="21" height="21" viewBox="0 0 21 21" fill="none" xmlns="http://www.w3.org/2000/svg">
<g clip-path="url(#clip0_711_186)">
<path d="M20.5759 4.25665L10.7807 0.0566017C10.6046 -0.0188672 10.4052 -0.0188672 10.2291 0.0566017L0.433908 4.25665H0.434064C0.309688 4.31368 0.203284 4.404 0.126876 4.51743C0.0503119 4.63087 0.006408 4.76322 0 4.89994V16.1001C0 16.2371 0.0401558 16.371 0.115624 16.4854C0.191092 16.5998 0.29828 16.6895 0.424216 16.7434L10.2242 20.9434C10.3995 21.0189 10.5983 21.0189 10.7737 20.9434L20.5737 16.7434C20.7 16.6898 20.8077 16.6001 20.8834 16.4857C20.9594 16.3715 20.9998 16.2373 21 16.1001V4.89994C20.9984 4.76337 20.9577 4.62994 20.8825 4.51587C20.8072 4.40181 20.7008 4.3118 20.5758 4.25665L20.5759 4.25665ZM9.80027 19.2388L1.40027 15.6388V5.96107L9.80027 9.56127V19.2388ZM10.5003 8.3391L2.47747 4.89998L10.5003 1.4615L18.5231 4.89998L10.5003 8.3391ZM19.6003 15.6388L11.2003 19.2388V9.56111L19.6003 5.96107V15.6388Z" fill="#868991"/>
</g>
<defs>
<clipPath id="clip0_711_186">
<rect width="21" height="21" fill="white"/>
</clipPath>
</defs>
</svg>
