<svg width="270" height="194" viewBox="0 0 270 194" fill="none" xmlns="http://www.w3.org/2000/svg">
<circle opacity="0.05" cx="138" cy="97" r="97" fill="url(#paint0_linear_818_6559)"/>
<mask id="mask0_818_6559" style="mask-type:alpha" maskUnits="userSpaceOnUse" x="41" y="0" width="194" height="194">
<circle opacity="0.3" cx="138" cy="97" r="97" fill="url(#paint1_linear_818_6559)"/>
</mask>
<g mask="url(#mask0_818_6559)">
<path d="M228.513 139.918L222.115 114L216.316 137.495C216.224 137.48 216.128 137.461 216.036 137.446L212.513 123.164L209.896 133.767L206.131 118.509L202.899 131.596L201.418 125.59L199.115 134.917C198.585 134.852 198.056 134.784 197.526 134.719L196.279 129.669L195.104 134.429C190.376 133.881 185.495 133.397 180.471 132.978L177.696 121.731L175.025 132.556C173.44 132.441 171.847 132.335 170.239 132.232L168.6 125.586L167.008 132.038C156.749 131.459 146.03 131.15 135.004 131.15C123.978 131.15 113.259 131.459 103 132.038L101.407 125.586L99.7686 132.232C98.1605 132.331 96.564 132.441 94.9828 132.556L92.3117 121.731L89.5369 132.978C84.517 133.397 79.6314 133.881 74.9032 134.429L73.7288 129.669L72.4815 134.719C71.9481 134.784 71.4184 134.848 70.8927 134.917L68.5899 125.59L67.1085 131.596L63.8771 118.509L60.1121 133.767L57.4947 123.164L53.9716 137.446C53.8795 137.461 53.7835 137.48 53.6914 137.495L47.8848 114L41.4871 139.918C15.9194 145.634 0 153.674 0 162.579C0 179.931 60.4422 194 135 194C209.558 194 270 179.931 270 162.579C270 153.674 254.081 145.634 228.509 139.918H228.513Z" fill="#6D6D6D"/>
<g clip-path="url(#clip0_818_6559)">
<path d="M178.762 46.4494C179.958 46.4494 180.927 45.4743 180.927 44.2714C180.927 43.0686 179.958 42.0935 178.762 42.0935C177.566 42.0935 176.596 43.0686 176.596 44.2714C176.596 45.4743 177.566 46.4494 178.762 46.4494Z" fill="#979797" fill-opacity="0.7"/>
<path d="M216.935 72.8089C218.131 72.8089 219.101 71.8338 219.101 70.6309C219.101 69.4281 218.131 68.453 216.935 68.453C215.739 68.453 214.77 69.4281 214.77 70.6309C214.77 71.8338 215.739 72.8089 216.935 72.8089Z" fill="#979797"/>
<path d="M186.502 41.4494C187.698 41.4494 188.667 40.4743 188.667 39.2714C188.667 38.0686 187.698 37.0935 186.502 37.0935C185.306 37.0935 184.336 38.0686 184.336 39.2714C184.336 40.4743 185.306 41.4494 186.502 41.4494Z" fill="#979797"/>
<path d="M61.4967 83.8202C62.6927 83.8202 63.6622 82.8451 63.6622 81.6423C63.6622 80.4395 62.6927 79.4644 61.4967 79.4644C60.3008 79.4644 59.3313 80.4395 59.3313 81.6423C59.3313 82.8451 60.3008 83.8202 61.4967 83.8202Z" fill="#979797"/>
<path d="M87.8755 41.4494C89.0715 41.4494 90.041 40.4743 90.041 39.2714C90.041 38.0686 89.0715 37.0935 87.8755 37.0935C86.6796 37.0935 85.7101 38.0686 85.7101 39.2714C85.7101 40.4743 86.6796 41.4494 87.8755 41.4494Z" fill="#979797"/>
<path opacity="0.8" d="M105.002 53.3292C106.198 53.3292 107.167 52.3541 107.167 51.1512C107.167 49.9484 106.198 48.9733 105.002 48.9733C103.806 48.9733 102.836 49.9484 102.836 51.1512C102.836 52.3541 103.806 53.3292 105.002 53.3292Z" fill="#979797" fill-opacity="0.8"/>
<path d="M112.68 43.6274C113.876 43.6274 114.845 42.6523 114.845 41.4494C114.845 40.2466 113.876 39.2715 112.68 39.2715C111.484 39.2715 110.514 40.2466 110.514 41.4494C110.514 42.6523 111.484 43.6274 112.68 43.6274Z" fill="#979797" fill-opacity="0.3"/>
<path d="M57.1654 29.3559C58.3614 29.3559 59.3309 28.3808 59.3309 27.1779C59.3309 25.9751 58.3614 25 57.1654 25C55.9695 25 55 25.9751 55 27.1779C55 28.3808 55.9695 29.3559 57.1654 29.3559Z" fill="#979797" fill-opacity="0.3"/>
<path opacity="0.5" d="M191.165 72.3559C192.361 72.3559 193.331 71.3808 193.331 70.1779C193.331 68.9751 192.361 68 191.165 68C189.97 68 189 68.9751 189 70.1779C189 71.3808 189.97 72.3559 191.165 72.3559Z" fill="#717171" fill-opacity="0.7"/>
</g>
</g>
<g opacity="0.3">
<path d="M138 163C162.853 163 183 159.241 183 154.604C183 149.967 162.853 146.207 138 146.207C113.147 146.207 93 149.967 93 154.604C93 159.241 113.147 163 138 163Z" fill="#717171"/>
<path opacity="0.5" d="M138 161.403C158.129 161.403 174.446 158.359 174.446 154.604C174.446 150.849 158.129 147.805 138 147.805C117.871 147.805 101.554 150.849 101.554 154.604C101.554 158.359 117.871 161.403 138 161.403Z" fill="#B5B5B5"/>
<path opacity="0.5" d="M138 159.51C152.526 159.51 164.301 157.313 164.301 154.604C164.301 151.894 152.526 149.698 138 149.698C123.474 149.698 111.699 151.894 111.699 154.604C111.699 157.313 123.474 159.51 138 159.51Z" fill="#CECECE"/>
</g>
<path opacity="0.2" d="M129.533 45.7675H146.467L155.132 154.604H120.868L129.533 45.7675Z" fill="#ADADAD"/>
<path d="M120.896 42.218C120.896 42.707 118.788 43.1014 116.183 43.1014C113.578 43.1014 111.47 42.707 111.47 42.218C111.47 41.729 113.578 41.3346 116.183 41.3346C118.788 41.3346 120.896 41.729 120.896 42.218Z" fill="#9FBB38"/>
<path d="M155.104 42.218C155.104 42.707 157.212 43.1014 159.817 43.1014C162.422 43.1014 164.53 42.707 164.53 42.218C164.53 41.729 162.422 41.3346 159.817 41.3346C157.212 41.3346 155.104 41.729 155.104 42.218Z" fill="#9FBB38"/>
<path d="M150.02 46.1381H125.98L121.267 42.218H154.733L150.02 46.1381Z" fill="#0267C1"/>
<path d="M122.838 43.5234H153.162L154.733 42.218H121.267L122.838 43.5234Z" fill="#034E91"/>
<path d="M138 23C132.217 23 127.532 27.6813 127.532 33.4589H148.468C148.468 27.6813 143.783 23 138 23Z" fill="#02B2ED"/>
<path d="M138.829 23.0355C134.226 23.4575 130.603 27.9613 130.603 33.4589H148.468C148.468 27.9613 144.221 23.4575 138.829 23.0355Z" fill="#06FFFF"/>
<path d="M126.288 34.0504H149.712V31.9957L126.288 31.9957V34.0504Z" fill="#0267C1"/>
<path d="M126.288 34.0465H149.712V32.749H126.288V34.0465Z" fill="#034E91"/>
<path d="M126.876 33.4589H149.12C164.037 33.4589 168.225 42.218 168.225 42.218H107.775C107.775 42.218 111.963 33.4589 126.88 33.4589H126.876Z" fill="#00B2EE"/>
<path d="M144.963 42.218C144.963 42.707 141.845 43.1014 138 43.1014C134.155 43.1014 131.037 42.707 131.037 42.218C131.037 41.729 134.155 41.3346 138 41.3346C141.845 41.3346 144.963 41.729 144.963 42.218Z" fill="#D9FF5B"/>
<path d="M149.124 33.4589H136.603C121.686 33.4589 117.497 42.218 117.497 42.218H168.225C168.225 42.218 164.037 33.4589 149.12 33.4589H149.124Z" fill="#00FEFA"/>
<path d="M140.85 31.4831C142.827 31.4831 144.43 29.8816 144.43 27.9061C144.43 25.9306 142.827 24.3291 140.85 24.3291C138.873 24.3291 137.27 25.9306 137.27 27.9061C137.27 29.8816 138.873 31.4831 140.85 31.4831Z" fill="#FEFEFE"/>
<path d="M120.896 42.218C120.896 42.707 118.788 43.1014 116.183 43.1014C113.578 43.1014 111.47 42.707 111.47 42.218C111.47 41.729 113.578 41.3346 116.183 41.3346C118.788 41.3346 120.896 41.729 120.896 42.218Z" fill="#A4A4A4"/>
<path d="M155.104 42.218C155.104 42.707 157.212 43.1014 159.817 43.1014C162.422 43.1014 164.53 42.707 164.53 42.218C164.53 41.729 162.422 41.3346 159.817 41.3346C157.212 41.3346 155.104 41.729 155.104 42.218Z" fill="#A4A4A4"/>
<path d="M150.02 46.1381H125.98L121.267 42.218H154.733L150.02 46.1381Z" fill="#C2C2C2"/>
<path d="M122.838 43.5234H153.162L154.733 42.218H121.267L122.838 43.5234Z" fill="#9A9A9A"/>
<path d="M138 23C132.217 23 127.532 27.6813 127.532 33.4589H148.468C148.468 27.6813 143.783 23 138 23Z" fill="#B5B5B5"/>
<path d="M138.829 23.0355C134.226 23.4575 130.603 27.9613 130.603 33.4589H148.468C148.468 27.9613 144.221 23.4575 138.829 23.0355Z" fill="#CCCCCC"/>
<path d="M126.288 34.0504H149.712V31.9957L126.288 31.9957V34.0504Z" fill="white"/>
<path d="M126.288 34.0465H149.712V32.749H126.288V34.0465Z" fill="#BEBEBE"/>
<path d="M126.876 33.4589H149.12C164.037 33.4589 168.225 42.218 168.225 42.218H107.775C107.775 42.218 111.963 33.4589 126.88 33.4589H126.876Z" fill="#B5B5B5"/>
<path d="M144.963 42.218C144.963 42.707 141.845 43.1014 138 43.1014C134.155 43.1014 131.037 42.707 131.037 42.218C131.037 41.729 134.155 41.3346 138 41.3346C141.845 41.3346 144.963 41.729 144.963 42.218Z" fill="#E2E2E2"/>
<path d="M149.124 33.4589H136.603C121.686 33.4589 117.497 42.218 117.497 42.218H168.225C168.225 42.218 164.037 33.4589 149.12 33.4589H149.124Z" fill="#CCCCCC"/>
<path opacity="0.5" d="M140.85 31.4831C142.827 31.4831 144.43 29.8816 144.43 27.9061C144.43 25.9306 142.827 24.3291 140.85 24.3291C138.873 24.3291 137.27 25.9306 137.27 27.9061C137.27 29.8816 138.873 31.4831 140.85 31.4831Z" fill="#FEFEFE"/>
<path opacity="0.5" d="M138 157.708C147.189 157.708 154.638 156.318 154.638 154.604C154.638 152.89 147.189 151.5 138 151.5C128.811 151.5 121.362 152.89 121.362 154.604C121.362 156.318 128.811 157.708 138 157.708Z" fill="white"/>
<defs>
<linearGradient id="paint0_linear_818_6559" x1="138" y1="0" x2="138" y2="194" gradientUnits="userSpaceOnUse">
<stop stop-color="#C5C5C5"/>
<stop offset="1" stop-color="white" stop-opacity="0"/>
</linearGradient>
<linearGradient id="paint1_linear_818_6559" x1="138" y1="0" x2="138" y2="194" gradientUnits="userSpaceOnUse">
<stop stop-color="white"/>
<stop offset="1" stop-color="white" stop-opacity="0"/>
</linearGradient>
<clipPath id="clip0_818_6559">
<rect width="286" height="72" fill="white" transform="translate(-10 20)"/>
</clipPath>
</defs>
</svg>
