<svg width="36" height="36" viewBox="0 0 36 36" fill="none" xmlns="http://www.w3.org/2000/svg">
<rect width="36" height="36" rx="4" fill="#24CB83"/>
<path d="M18.5 5C22.6415 5 26 8.3585 26 12.5C26 16.6415 22.6415 20 18.5 20C14.3585 20 11 16.6415 11 12.5C11 8.3585 14.3585 5 18.5 5Z" fill="white"/>
<path fill-rule="evenodd" clip-rule="evenodd" d="M14.4683 11.7847H21.4088C21.4958 11.7847 21.5783 11.8192 21.6383 11.8807L22.7363 12.9862C22.9388 13.1902 22.7948 13.5382 22.5068 13.5382H15.5663C15.4793 13.5382 15.3968 13.5037 15.3368 13.4422L14.2388 12.3367C14.0348 12.1327 14.1803 11.7847 14.4683 11.7847ZM14.2388 10.3192L15.3368 9.21368C15.3983 9.15218 15.4808 9.11768 15.5663 9.11768H22.5053C22.7933 9.11768 22.9388 9.46568 22.7348 9.66968L21.6383 10.7752C21.5768 10.8367 21.4943 10.8712 21.4088 10.8712H14.4683C14.1803 10.8712 14.0348 10.5232 14.2388 10.3192ZM22.7348 15.0037L21.6368 16.1092C21.5753 16.1707 21.4928 16.2052 21.4073 16.2052H14.4683C14.1803 16.2052 14.0348 15.8572 14.2388 15.6532L15.3368 14.5477C15.3983 14.4862 15.4808 14.4517 15.5663 14.4517H22.5053C22.7933 14.4517 22.9388 14.7997 22.7348 15.0037Z" fill="#24CB83"/>
<path d="M6.71091 23.4219C6.31849 23.4219 6 23.7399 6 24.1328V31.2893C6 31.6817 6.31849 32.0002 6.71091 32.0002H9.55454C9.94697 32.0002 10.2655 31.6817 10.2655 31.2893V30.4949L10.9764 29.0817V24.7238L10.2655 23.4219H6.71091Z" fill="#C1F3DD"/>
<path d="M30.0573 23.6302L30.054 23.6269C29.2749 22.8487 28.0237 22.8231 27.2123 23.5677L22.8781 27.5004C22.6989 27.6654 22.4525 27.7208 22.234 27.6677L15.8638 26.1606C15.4818 26.0705 15.2458 25.6876 15.3363 25.3051C15.4254 24.9231 15.8055 24.6866 16.1918 24.7776L20.616 25.8246C21.7041 26.0819 22.7989 25.4227 23.079 24.3402C23.0824 24.3279 23.0852 24.316 23.088 24.3037C23.1824 23.9231 22.9506 23.5378 22.57 23.4435L16.8828 22.0217C16.769 21.9928 16.6524 21.9928 16.5382 22.0217L10.2656 23.4217V30.4948L22.3098 31.9943C22.544 32.0209 22.7525 31.9393 22.9013 31.7915L30.0578 24.635C30.3351 24.3577 30.3351 23.9075 30.0573 23.6302Z" fill="#EDFFF7"/>
</svg>
