<svg width="65" height="64" viewBox="0 0 65 64" fill="none" xmlns="http://www.w3.org/2000/svg">
<rect x="0.5" width="64" height="64" rx="32" fill="white"/>
<g clip-path="url(#clip0_860_113061)">
<path d="M20.3943 24.3385C27.0821 17.7882 37.9287 17.7882 44.6165 24.3385L45.4208 25.1215C45.7594 25.4496 45.7594 25.9787 45.4208 26.3067L42.6694 29.0051C42.5001 29.1639 42.2356 29.1639 42.0663 29.0051L40.9552 27.9152C36.2885 23.3438 28.7223 23.3438 24.0557 27.9152L22.8705 29.0792C22.7012 29.2379 22.4366 29.2379 22.2673 29.0792L19.5054 26.3914C19.1668 26.0633 19.1668 25.5342 19.5054 25.2062L20.3943 24.3385ZM50.3097 29.9152L52.7647 32.3173C53.1033 32.6454 53.1033 33.1745 52.7647 33.5025L41.7065 44.3279C41.3678 44.6559 40.8282 44.6559 40.5001 44.3279L32.6589 36.6454C32.5742 36.5607 32.4366 36.5607 32.352 36.6454L24.5107 44.3279C24.1721 44.6559 23.6324 44.6559 23.3044 44.3279L12.2462 33.5025C11.9075 33.1745 11.9075 32.6454 12.2462 32.3173L14.7012 29.9152C15.0398 29.5872 15.5795 29.5872 15.9075 29.9152L23.7488 37.5977C23.8335 37.6824 23.971 37.6824 24.0557 37.5977L31.897 29.9152C32.2356 29.5872 32.7753 29.5872 33.1033 29.9152L40.9446 37.5977C41.0292 37.6824 41.1668 37.6824 41.2514 37.5977L49.0927 29.9152C49.4313 29.5872 49.971 29.5872 50.3097 29.9152Z" fill="#3B99FC"/>
</g>
<defs>
<clipPath id="clip0_860_113061">
<rect width="41.0159" height="25.1429" fill="white" transform="translate(11.9922 19.4297)"/>
</clipPath>
</defs>
</svg>
