<svg width="28" height="28" viewBox="0 0 28 28" fill="none" xmlns="http://www.w3.org/2000/svg">
  <g clip-path="url(#clip0_1_26)">
  <circle cx="14" cy="14" r="14" fill="white"/>
  <path fill-rule="evenodd" clip-rule="evenodd" d="M13.9084 7.8517C12.8471 7.8517 11.9839 6.98781 11.9839 5.92585C11.9839 4.86393 12.8471 4 13.9084 4C14.9696 4 15.8329 4.86393 15.8329 5.92585C15.8329 6.98781 14.9696 7.8517 13.9084 7.8517ZM13.9084 5.04933C13.4254 5.04933 13.0325 5.44254 13.0325 5.92585C13.0325 6.40916 13.4254 6.80237 13.9084 6.80237C14.3913 6.80237 14.7843 6.40916 14.7843 5.92585C14.7843 5.44254 14.3913 5.04933 13.9084 5.04933Z" fill="url(#paint0_linear_1_26)"/>
  <path d="M13.4125 8.17021C13.5778 8.20834 13.75 8.22851 13.9267 8.22851C14.1035 8.22851 14.2757 8.20834 14.441 8.17017V11.7726C14.2757 11.7344 14.1035 11.7142 13.9267 11.7142C13.75 11.7142 13.5778 11.7344 13.4125 11.7725V8.17021Z" fill="url(#paint1_linear_1_26)"/>
  <path d="M12.256 12.4416L9.13514 10.6398C9.08549 10.802 9.01688 10.9612 8.92848 11.1144C8.84009 11.2674 8.73656 11.4064 8.62085 11.5305L11.7406 13.3317C11.8436 12.9957 12.022 12.6924 12.256 12.4416Z" fill="url(#paint2_linear_1_26)"/>
  <path d="M11.7406 14.6683L8.62085 16.4695C8.73661 16.5936 8.84014 16.7327 8.92853 16.8858C9.01692 17.0389 9.08554 17.198 9.13514 17.3603L12.256 15.5585C12.022 15.3077 11.8435 15.0044 11.7406 14.6683Z" fill="url(#paint3_linear_1_26)"/>
  <path d="M13.4125 16.2273V19.8297C13.5779 19.7915 13.75 19.7714 13.9269 19.7714C14.1036 19.7714 14.2757 19.7915 14.441 19.8297V16.2273C14.2757 16.2655 14.1035 16.2856 13.9267 16.2856C13.75 16.2856 13.5778 16.2655 13.4125 16.2273Z" fill="url(#paint4_linear_1_26)"/>
  <path d="M15.5974 15.5584L18.7183 17.3603C18.768 17.198 18.8366 17.0388 18.925 16.8857C19.0134 16.7326 19.1169 16.5936 19.2326 16.4695L16.1129 14.6683C16.0099 15.0043 15.8315 15.3077 15.5974 15.5584Z" fill="url(#paint5_linear_1_26)"/>
  <path d="M16.1129 13.3318L19.2326 11.5305C19.1169 11.4064 19.0134 11.2674 18.925 11.1143C18.8366 10.9612 18.7679 10.802 18.7183 10.6398L15.5974 12.4416C15.8315 12.6924 16.0099 12.9958 16.1129 13.3318Z" fill="url(#paint6_linear_1_26)"/>
  <path fill-rule="evenodd" clip-rule="evenodd" d="M8.59294 10.9418C8.06236 11.8609 6.8826 12.1765 5.96291 11.6456C5.04327 11.1146 4.7267 9.93502 5.2573 9.016C5.7879 8.09698 6.96777 7.78127 7.88741 8.31225C8.8071 8.84323 9.12357 10.0228 8.59294 10.9418ZM6.16604 9.54069C5.92454 9.95895 6.06863 10.4958 6.48719 10.7375C6.90575 10.9791 7.44272 10.8355 7.68424 10.4172C7.92571 9.9989 7.78169 9.46198 7.36312 9.22033C6.94456 8.97868 6.40754 9.12238 6.16604 9.54069Z" fill="url(#paint7_linear_1_26)"/>
  <path fill-rule="evenodd" clip-rule="evenodd" d="M8.61141 17.0901C9.14199 18.0091 8.82547 19.1887 7.90578 19.7196C6.98614 20.2506 5.80634 19.935 5.27574 19.0159C4.74515 18.0969 5.06166 16.9173 5.98131 16.3863C6.901 15.8554 8.08083 16.1711 8.61141 17.0901ZM6.18449 18.4913C6.42599 18.9096 6.96297 19.0532 7.3815 18.8116C7.80007 18.5699 7.94417 18.033 7.70266 17.6148C7.46118 17.1965 6.92415 17.0528 6.50559 17.2944C6.08703 17.5361 5.94298 18.073 6.18449 18.4913Z" fill="url(#paint8_linear_1_26)"/>
  <path fill-rule="evenodd" clip-rule="evenodd" d="M13.9452 20.1483C15.0064 20.1483 15.8696 21.0122 15.8696 22.0742C15.8696 23.1361 15.0064 24 13.9452 24C12.884 24 12.0206 23.1361 12.0206 22.0742C12.0206 21.0122 12.884 20.1483 13.9452 20.1483ZM13.9452 22.9507C14.4282 22.9507 14.8211 22.5575 14.8211 22.0742C14.8211 21.5909 14.4282 21.1976 13.9452 21.1976C13.4622 21.1976 13.0692 21.5909 13.0692 22.0742C13.0692 22.5575 13.4622 22.9507 13.9452 22.9507Z" fill="url(#paint9_linear_1_26)"/>
  <path fill-rule="evenodd" clip-rule="evenodd" d="M19.2606 17.0582C19.7912 16.1392 20.971 15.8235 21.8907 16.3545C22.8103 16.8855 23.1269 18.065 22.5963 18.9841C22.0657 19.9031 20.8858 20.2188 19.9662 19.6878C19.0465 19.1568 18.73 17.9772 19.2606 17.0582ZM21.6876 18.4594C21.929 18.0411 21.785 17.5042 21.3664 17.2626C20.9478 17.0209 20.4109 17.1645 20.1693 17.5828C19.9279 18.0011 20.0719 18.5381 20.4905 18.7797C20.909 19.0214 21.446 18.8777 21.6876 18.4594Z" fill="url(#paint10_linear_1_26)"/>
  <path fill-rule="evenodd" clip-rule="evenodd" d="M19.2422 10.9099C18.7116 9.99092 19.0281 8.81136 19.9478 8.28038C20.8674 7.74944 22.0472 8.06507 22.5778 8.98409C23.1084 9.9031 22.7919 11.0827 21.8722 11.6137C20.9526 12.1447 19.7727 11.829 19.2422 10.9099ZM21.6691 9.50873C21.4276 9.09042 20.8906 8.94681 20.4721 9.18846C20.0535 9.43011 19.9094 9.96699 20.1509 10.3852C20.3924 10.8035 20.9294 10.9473 21.348 10.7056C21.7665 10.464 21.9106 9.92703 21.6691 9.50873Z" fill="url(#paint11_linear_1_26)"/>
  <path fill-rule="evenodd" clip-rule="evenodd" d="M13.9084 13.1065C13.4254 13.1065 13.0325 13.4997 13.0325 13.983C13.0325 14.4663 13.4254 14.8595 13.9084 14.8595C14.3913 14.8595 14.7843 14.4663 14.7843 13.983C14.7843 13.4997 14.3913 13.1065 13.9084 13.1065ZM13.9084 15.9088C12.8471 15.9088 11.9839 15.0449 11.9839 13.983C11.9839 12.9211 12.8471 12.0571 13.9084 12.0571C14.9696 12.0571 15.8329 12.9211 15.8329 13.983C15.8329 15.0449 14.9696 15.9088 13.9084 15.9088Z" fill="url(#paint12_linear_1_26)"/>
  </g>
  <defs>
  <linearGradient id="paint0_linear_1_26" x1="13.9143" y1="4" x2="13.9268" y2="24" gradientUnits="userSpaceOnUse">
  <stop offset="0.0479894" stop-color="#C01AEA"/>
  <stop offset="1" stop-color="#4251FA"/>
  </linearGradient>
  <linearGradient id="paint1_linear_1_26" x1="13.9143" y1="3.99994" x2="13.9268" y2="23.9999" gradientUnits="userSpaceOnUse">
  <stop offset="0.0479894" stop-color="#C01AEA"/>
  <stop offset="1" stop-color="#4251FA"/>
  </linearGradient>
  <linearGradient id="paint2_linear_1_26" x1="13.9142" y1="4.00004" x2="13.9267" y2="24" gradientUnits="userSpaceOnUse">
  <stop offset="0.0479894" stop-color="#C01AEA"/>
  <stop offset="1" stop-color="#4251FA"/>
  </linearGradient>
  <linearGradient id="paint3_linear_1_26" x1="13.9142" y1="4.00003" x2="13.9267" y2="24" gradientUnits="userSpaceOnUse">
  <stop offset="0.0479894" stop-color="#C01AEA"/>
  <stop offset="1" stop-color="#4251FA"/>
  </linearGradient>
  <linearGradient id="paint4_linear_1_26" x1="13.9143" y1="3.99993" x2="13.9268" y2="23.9999" gradientUnits="userSpaceOnUse">
  <stop offset="0.0479894" stop-color="#C01AEA"/>
  <stop offset="1" stop-color="#4251FA"/>
  </linearGradient>
  <linearGradient id="paint5_linear_1_26" x1="13.9143" y1="4.00003" x2="13.9268" y2="24" gradientUnits="userSpaceOnUse">
  <stop offset="0.0479894" stop-color="#C01AEA"/>
  <stop offset="1" stop-color="#4251FA"/>
  </linearGradient>
  <linearGradient id="paint6_linear_1_26" x1="13.9143" y1="4.00004" x2="13.9268" y2="24" gradientUnits="userSpaceOnUse">
  <stop offset="0.0479894" stop-color="#C01AEA"/>
  <stop offset="1" stop-color="#4251FA"/>
  </linearGradient>
  <linearGradient id="paint7_linear_1_26" x1="13.9143" y1="4.00006" x2="13.9268" y2="24.0001" gradientUnits="userSpaceOnUse">
  <stop offset="0.0479894" stop-color="#C01AEA"/>
  <stop offset="1" stop-color="#4251FA"/>
  </linearGradient>
  <linearGradient id="paint8_linear_1_26" x1="13.9143" y1="4.00001" x2="13.9268" y2="24" gradientUnits="userSpaceOnUse">
  <stop offset="0.0479894" stop-color="#C01AEA"/>
  <stop offset="1" stop-color="#4251FA"/>
  </linearGradient>
  <linearGradient id="paint9_linear_1_26" x1="13.9143" y1="4.00001" x2="13.9268" y2="24" gradientUnits="userSpaceOnUse">
  <stop offset="0.0479894" stop-color="#C01AEA"/>
  <stop offset="1" stop-color="#4251FA"/>
  </linearGradient>
  <linearGradient id="paint10_linear_1_26" x1="13.9143" y1="3.99999" x2="13.9268" y2="24" gradientUnits="userSpaceOnUse">
  <stop offset="0.0479894" stop-color="#C01AEA"/>
  <stop offset="1" stop-color="#4251FA"/>
  </linearGradient>
  <linearGradient id="paint11_linear_1_26" x1="13.9143" y1="4.00002" x2="13.9268" y2="24" gradientUnits="userSpaceOnUse">
  <stop offset="0.0479894" stop-color="#C01AEA"/>
  <stop offset="1" stop-color="#4251FA"/>
  </linearGradient>
  <linearGradient id="paint12_linear_1_26" x1="13.9143" y1="3.99999" x2="13.9268" y2="24" gradientUnits="userSpaceOnUse">
  <stop offset="0.0479894" stop-color="#C01AEA"/>
  <stop offset="1" stop-color="#4251FA"/>
  </linearGradient>
  <clipPath id="clip0_1_26">
  <rect width="28" height="28" fill="white"/>
  </clipPath>
  </defs>
  </svg>
  