<svg width="228" height="48" viewBox="0 0 228 48" fill="none" xmlns="http://www.w3.org/2000/svg">
<path fill-rule="evenodd" clip-rule="evenodd" d="M78.4444 30.9022L76.1678 28.5966C75.3032 29.4034 74.429 30.0426 73.5448 30.5134C72.6614 30.9838 71.6046 31.219 70.375 31.219C69.4144 31.219 68.5258 31.032 67.7092 30.6572C66.8928 30.2824 66.1866 29.7688 65.591 29.1152C64.9952 28.462 64.5346 27.6984 64.2076 26.8244C63.8808 25.9504 63.718 25.0134 63.718 24.015C63.718 23.0158 63.8808 22.0838 64.2076 21.219C64.5346 20.3548 64.9952 19.6009 65.591 18.957C66.1866 18.3135 66.8928 17.8046 67.7092 17.4298C68.5258 17.0554 69.4144 16.8679 70.375 16.8679C71.5276 16.8679 72.5556 17.0985 73.4586 17.5596C74.3618 18.0204 75.2168 18.6257 76.0232 19.375L78.3002 16.7529C77.82 16.2917 77.311 15.8691 76.7728 15.4846C76.2352 15.1004 75.6492 14.7688 75.015 14.4904C74.3808 14.2116 73.6844 13.9959 72.9254 13.8423C72.1664 13.6883 71.3258 13.6113 70.4038 13.6113C68.8668 13.6113 67.4644 13.8854 66.1964 14.4329C64.928 14.9803 63.833 15.7295 62.9108 16.6805C61.9884 17.6316 61.273 18.7408 60.7636 20.009C60.2542 21.277 60 22.6316 60 24.0724C60 25.5324 60.2594 26.8964 60.778 28.1646C61.2968 29.4322 62.0126 30.532 62.9252 31.464C63.8378 32.3956 64.9182 33.1304 66.1672 33.6686C67.4162 34.2066 68.7806 34.4754 70.2596 34.4754C71.2014 34.4754 72.061 34.3936 72.8392 34.2304C73.6172 34.067 74.333 33.8272 74.9862 33.5104C75.6394 33.193 76.2496 32.8182 76.8164 32.3862C77.383 31.954 77.9258 31.459 78.4444 30.9022Z" fill="white"/>
<path fill-rule="evenodd" clip-rule="evenodd" d="M124.175 19.3235C124.175 18.6524 124.461 18.0822 125.035 17.6128C125.608 17.1427 126.411 16.908 127.442 16.908C128.36 16.908 129.267 17.0857 130.165 17.4402C131.063 17.7948 131.971 18.3076 132.888 18.9783L134.78 16.3044C133.748 15.4801 132.645 14.8524 131.47 14.4215C130.294 13.9901 128.971 13.7744 127.5 13.7744C126.506 13.7744 125.589 13.9133 124.753 14.1914C123.912 14.4692 123.196 14.8668 122.598 15.3843C122.001 15.9021 121.533 16.5201 121.189 17.2389C120.85 17.9577 120.678 18.758 120.678 19.6397C120.678 20.5788 120.826 21.3744 121.122 22.0262C121.418 22.6778 121.853 23.2336 122.417 23.6938C122.98 24.1538 123.683 24.537 124.514 24.844C125.35 25.1508 126.301 25.4282 127.375 25.6776C128.312 25.9076 129.071 26.128 129.659 26.3386C130.242 26.5496 130.7 26.775 131.039 27.0142C131.374 27.254 131.603 27.5174 131.727 27.8048C131.852 28.0926 131.913 28.4182 131.913 28.7824C131.913 29.5686 131.594 30.1916 130.954 30.6514C130.313 31.1118 129.449 31.3414 128.36 31.3414C127.099 31.3414 125.971 31.116 124.977 30.6658C123.984 30.2154 123 29.5686 122.025 28.725L119.904 31.2554C121.108 32.3478 122.417 33.1576 123.831 33.6848C125.245 34.212 126.726 34.4754 128.273 34.4754C129.324 34.4754 130.29 34.3412 131.169 34.0732C132.043 33.8044 132.797 33.4114 133.419 32.8938C134.044 32.3764 134.532 31.7442 134.885 30.9966C135.234 30.2492 135.411 29.396 135.411 28.4376C135.411 27.5942 135.272 26.861 134.995 26.238C134.718 25.615 134.307 25.0692 133.772 24.5992C133.237 24.1298 132.559 23.7318 131.746 23.406C130.935 23.0804 129.998 22.7834 128.947 22.5148C127.987 22.2848 127.199 22.0642 126.573 21.8534C125.952 21.6428 125.465 21.4128 125.106 21.1634C124.753 20.9144 124.509 20.646 124.375 20.3584C124.242 20.0706 124.175 19.7258 124.175 19.3235Z" fill="white"/>
<path fill-rule="evenodd" clip-rule="evenodd" d="M163.41 19.6084V33.9866H166.912V13.9375H163.152L157.037 23.418L150.923 13.9375H147.162V33.9866H150.664V19.6656L156.951 29.0602H157.066L163.41 19.6084Z" fill="white"/>
<path fill-rule="evenodd" clip-rule="evenodd" d="M196.336 24.0726C196.336 25.0522 196.168 25.9792 195.832 26.8536C195.497 27.7276 195.032 28.4862 194.437 29.1296C193.843 29.7732 193.128 30.2824 192.294 30.6572C191.46 31.0322 190.544 31.2192 189.547 31.2192C188.55 31.2192 187.629 31.027 186.786 30.643C185.942 30.2584 185.218 29.7398 184.614 29.087C184.01 28.4334 183.54 27.6698 183.204 26.7956C182.869 25.9216 182.701 24.9944 182.701 24.015C182.701 23.0348 182.869 22.1078 183.204 21.2338C183.54 20.3594 184.005 19.6009 184.599 18.957C185.194 18.3135 185.909 17.8046 186.743 17.4298C187.577 17.0554 188.492 16.868 189.49 16.868C190.487 16.868 191.408 17.06 192.251 17.4446C193.095 17.8287 193.819 18.3474 194.423 19.0006C195.027 19.6534 195.497 20.4174 195.832 21.2914C196.168 22.1654 196.336 23.0928 196.336 24.0726ZM200.047 24.015C200.047 22.593 199.787 21.2482 199.27 19.9799C198.752 18.7124 198.033 17.6075 197.113 16.6662C196.192 15.7245 195.089 14.9803 193.804 14.4329C192.519 13.8854 191.101 13.6113 189.547 13.6113C187.994 13.6113 186.575 13.8901 185.29 14.4473C184.005 15.0044 182.893 15.7583 181.953 16.7093C181.013 17.6603 180.285 18.77 179.767 20.0378C179.249 21.3058 178.99 22.6506 178.99 24.0724C178.99 25.494 179.249 26.8384 179.767 28.1068C180.285 29.375 181.004 30.4796 181.924 31.4208C182.844 32.3622 183.947 33.1068 185.232 33.6542C186.517 34.2016 187.936 34.4754 189.49 34.4754C191.043 34.4754 192.462 34.1966 193.747 33.6398C195.032 33.0826 196.144 32.3288 197.084 31.3774C198.023 30.4268 198.752 29.317 199.27 28.0492C199.787 26.7812 200.047 25.4364 200.047 24.015Z" fill="white"/>
<path fill-rule="evenodd" clip-rule="evenodd" d="M214.764 19.3235C214.764 18.6524 215.05 18.0822 215.624 17.6128C216.198 17.1427 217 16.908 218.032 16.908C218.948 16.908 219.856 17.0857 220.754 17.4402C221.652 17.7948 222.56 18.3076 223.478 18.9783L225.37 16.3044C224.338 15.4801 223.234 14.8524 222.058 14.4215C220.884 13.9901 219.56 13.7744 218.09 13.7744C217.096 13.7744 216.178 13.9133 215.342 14.1914C214.502 14.4692 213.786 14.8668 213.188 15.3843C212.59 15.9021 212.122 16.5201 211.778 17.2389C211.44 17.9577 211.268 18.758 211.268 19.6397C211.268 20.5788 211.416 21.3744 211.712 22.0262C212.008 22.6778 212.442 23.2336 213.006 23.6938C213.57 24.1538 214.272 24.537 215.104 24.844C215.94 25.1508 216.89 25.4282 217.966 25.6776C218.902 25.9076 219.66 26.128 220.248 26.3386C220.83 26.5496 221.29 26.775 221.63 27.0142C221.964 27.254 222.192 27.5174 222.318 27.8048C222.442 28.0926 222.504 28.4182 222.504 28.7824C222.504 29.5686 222.182 30.1916 221.544 30.6514C220.902 31.1118 220.038 31.3414 218.948 31.3414C217.688 31.3414 216.56 31.116 215.568 30.6658C214.574 30.2154 213.59 29.5686 212.614 28.725L210.494 31.2554C211.698 32.3478 213.006 33.1576 214.42 33.6848C215.834 34.212 217.314 34.4754 218.862 34.4754C219.914 34.4754 220.878 34.3412 221.758 34.0732C222.632 33.8044 223.388 33.4114 224.008 32.8938C224.634 32.3764 225.122 31.7442 225.474 30.9966C225.824 30.2492 226 29.396 226 28.4376C226 27.5942 225.862 26.861 225.584 26.238C225.308 25.615 224.896 25.0692 224.362 24.5992C223.826 24.1298 223.148 23.7318 222.336 23.406C221.524 23.0804 220.588 22.7834 219.536 22.5148C218.576 22.2848 217.788 22.0642 217.162 21.8534C216.542 21.6428 216.054 21.4128 215.696 21.1634C215.342 20.9144 215.098 20.646 214.964 20.3584C214.832 20.0706 214.764 19.7258 214.764 19.3235Z" fill="white"/>
<path fill-rule="evenodd" clip-rule="evenodd" d="M102.468 17.9516L92.8723 27.5346C92.7487 27.2948 92.6369 27.045 92.5369 26.7858C92.2017 25.9152 92.0343 24.9914 92.0343 24.0156C92.0343 23.0392 92.2017 22.1158 92.5369 21.245C92.8723 20.374 93.3371 19.6183 93.9313 18.9768C94.5255 18.3358 95.2395 17.8288 96.0731 17.4554C96.9071 17.0824 97.8221 16.8957 98.8185 16.8957C99.8153 16.8957 100.735 17.087 101.578 17.4701C101.892 17.6122 102.188 17.7726 102.468 17.9516ZM101.622 30.633C100.788 31.0064 99.8727 31.1926 98.8763 31.1926C97.8795 31.1926 96.9593 31.0012 96.1161 30.6186C95.8031 30.476 95.5065 30.3156 95.2267 30.1364L104.822 20.554C104.946 20.7934 105.058 21.0428 105.158 21.3024C105.493 22.1732 105.661 23.097 105.661 24.073C105.661 25.049 105.493 25.9724 105.158 26.8436C104.822 27.7144 104.358 28.47 103.764 29.111C103.169 29.7522 102.456 30.2596 101.622 30.633ZM103.073 33.6042C104.358 33.0492 105.469 32.298 106.408 31.3502C107.347 30.4032 108.075 29.2978 108.593 28.0346C109.111 26.7716 109.369 25.4318 109.369 24.0156C109.369 22.5992 109.111 21.2594 108.593 19.9959C108.286 19.2468 107.908 18.555 107.46 17.9202L113.701 11.6876L111.221 9.21094L104.961 15.4625C104.399 15.0799 103.789 14.7491 103.131 14.4698C101.847 13.9244 100.429 13.6514 98.8763 13.6514C97.3235 13.6514 95.9055 13.9291 94.6213 14.4841C93.3371 15.0392 92.2255 15.7902 91.2863 16.7376C90.3473 17.6851 89.6189 18.7905 89.1015 20.0536C88.5841 21.3168 88.3253 22.6566 88.3253 24.073C88.3253 25.4892 88.5841 26.8286 89.1015 28.092C89.4087 28.8414 89.7865 29.5332 90.2349 30.1686L83.9941 36.4004L86.4741 38.877L92.7339 32.6258C93.2959 33.0084 93.9061 33.3392 94.5639 33.6184C95.8481 34.1638 97.2661 34.4366 98.8185 34.4366C100.371 34.4366 101.789 34.1588 103.073 33.6042Z" fill="white"/>
<path fill-rule="evenodd" clip-rule="evenodd" d="M24.0008 0.0458984C37.2302 0.0458984 47.9548 10.7704 47.9548 23.9998C47.9548 37.2292 37.2302 47.9538 24.0008 47.9538C10.7714 47.9538 0.046875 37.2292 0.046875 23.9998C0.046875 10.7704 10.7714 0.0458984 24.0008 0.0458984Z" fill="#171717"/>
<path fill-rule="evenodd" clip-rule="evenodd" d="M23.9544 10.1807C31.5866 10.1807 37.774 16.3679 37.774 24.0002C37.774 31.6326 31.5866 37.8198 23.9544 37.8198C16.322 37.8198 10.1348 31.6326 10.1348 24.0002C10.1348 16.3679 16.322 10.1807 23.9544 10.1807Z" fill="black"/>
<path opacity="0.67" fill-rule="evenodd" clip-rule="evenodd" d="M24.3766 4.14328C24.1862 3.96816 24.088 3.96484 24.0716 3.96484C24.055 3.96484 23.9568 3.96816 23.7666 4.14328C23.5712 4.32302 23.3378 4.63318 23.0862 5.11172C22.584 6.0669 22.1034 7.51064 21.6892 9.37358C21.2234 11.4685 20.8552 14.0291 20.623 16.8955C21.7446 17.4382 22.898 18.0281 24.0712 18.6617C25.2446 18.028 26.3982 17.438 27.52 16.8952C27.2878 14.0289 26.9196 11.4684 26.4538 9.37358C26.0396 7.51064 25.559 6.0669 25.0568 5.11172C24.8054 4.63318 24.5718 4.32302 24.3766 4.14328ZM23.0896 19.1994C22.228 18.7415 21.3792 18.3085 20.548 17.9016C20.485 18.8244 20.436 19.7756 20.4018 20.7502C20.8414 20.487 21.2874 20.2246 21.7394 19.9639C22.1914 19.7031 22.6418 19.4482 23.0896 19.1994ZM19.7182 16.4646C20.3912 8.60458 22.0866 3.02734 24.0716 3.02734C26.0564 3.02734 27.7516 8.60446 28.4248 16.4644C35.5724 13.1171 41.2528 11.7959 42.2454 13.5138C43.2378 15.2317 39.2526 19.4875 32.778 24C39.2526 28.5126 43.2378 32.7682 42.2454 34.4862C41.2528 36.2042 35.5724 34.883 28.4248 31.5356C27.7516 39.3956 26.0564 44.9726 24.0716 44.9726C22.0866 44.9726 20.3912 39.3954 19.7182 31.5354C12.5703 34.8828 6.88956 36.2042 5.89706 34.4862C4.9046 32.7682 8.88986 28.5126 15.3644 24C8.88986 19.4875 4.9046 15.2317 5.89706 13.5138C6.88956 11.7958 12.5703 13.1172 19.7182 16.4646ZM16.1905 23.432C13.8225 21.7978 11.7875 20.1988 10.2049 18.7481C8.79758 17.458 7.78676 16.3202 7.2101 15.408C6.92118 14.9509 6.7692 14.5938 6.71112 14.335C6.65456 14.083 6.7008 13.9967 6.70882 13.9828V13.9828C6.71692 13.9688 6.76878 13.8854 7.01578 13.8083C7.26934 13.729 7.655 13.682 8.19558 13.7036C9.27454 13.7466 10.7661 14.0525 12.5876 14.6255C14.636 15.2698 17.039 16.2315 19.639 17.4637C19.5486 18.7056 19.4832 19.9986 19.4455 21.3306C18.3098 22.0294 17.2217 22.7326 16.1905 23.432ZM16.1905 24.568C13.8225 26.2022 11.7875 27.8012 10.2049 29.252C8.79758 30.542 7.78676 31.6798 7.2101 32.592C6.92118 33.049 6.7692 33.4062 6.71112 33.665C6.65456 33.917 6.7008 34.0034 6.70882 34.0172C6.71688 34.0312 6.7687 34.1146 7.01578 34.1918C7.26934 34.271 7.655 34.318 8.19558 34.2964C9.27454 34.2534 10.7661 33.9476 12.5876 33.3746C14.636 32.7302 17.039 31.7686 19.639 30.5364C19.5486 29.2944 19.4832 28.0014 19.4455 26.6694C18.3098 25.9706 17.2217 25.2674 16.1905 24.568ZM19.4207 25.551C18.593 25.0342 17.7931 24.516 17.0248 24C17.7931 23.484 18.593 22.9658 19.4207 22.449C19.4123 22.9612 19.4081 23.4784 19.4081 24C19.4081 24.5216 19.4123 25.039 19.4207 25.551ZM20.3698 26.1356C20.3538 25.434 20.3456 24.7216 20.3456 24C20.3456 23.2786 20.3538 22.566 20.3698 21.8644C20.9698 21.4998 21.583 21.1366 22.208 20.7758C22.8334 20.415 23.455 20.0658 24.0712 19.7287C24.6874 20.0658 25.309 20.415 25.9344 20.7758C26.5598 21.1366 27.1732 21.5 27.7732 21.8648C27.7892 22.5662 27.7974 23.2786 27.7974 24C27.7974 24.7214 27.7892 25.4338 27.7732 26.1352C27.1732 26.5 26.5598 26.8634 25.9344 27.2242C25.309 27.585 24.6874 27.9342 24.0712 28.2714C23.455 27.9342 22.8334 27.585 22.208 27.2242C21.583 26.8634 20.9698 26.5002 20.3698 26.1356ZM20.4018 27.2498C20.436 28.2244 20.485 29.1756 20.548 30.0984C21.3792 29.6916 22.228 29.2584 23.0896 28.8006C22.6418 28.5518 22.1914 28.297 21.7394 28.0362C21.2874 27.7754 20.8414 27.513 20.4018 27.2498ZM24.0712 29.3384C22.898 29.9718 21.7446 30.5618 20.623 31.1046C20.8552 33.971 21.2234 36.5316 21.6892 38.6264C22.1034 40.4894 22.584 41.9332 23.0862 42.8884C23.3378 43.3668 23.5712 43.677 23.7666 43.8568C23.9568 44.0318 24.055 44.0352 24.0716 44.0352C24.088 44.0352 24.1862 44.0318 24.3766 43.8568C24.5718 43.677 24.8054 43.3668 25.0568 42.8884C25.559 41.9332 26.0396 40.4894 26.4538 38.6264C26.9196 36.5316 27.2878 33.971 27.52 31.1048C26.3982 30.562 25.2446 29.972 24.0712 29.3384ZM28.504 30.5366C31.1038 31.7686 33.5066 32.7304 35.5548 33.3746C37.3764 33.9476 38.8678 34.2534 39.9468 34.2964C40.4874 34.318 40.873 34.271 41.1266 34.1918C41.3738 34.1146 41.4256 34.0312 41.4336 34.0172C41.4416 34.0034 41.4878 33.9172 41.4312 33.665C41.3732 33.4062 41.2212 33.049 40.9324 32.592C40.3556 31.6798 39.3448 30.542 37.9376 29.252C36.355 27.8012 34.3198 26.2022 31.9518 24.568C30.9208 25.2672 29.833 25.9704 28.6974 26.669C28.6598 28.0012 28.5944 29.2946 28.504 30.5366ZM31.9518 23.432C34.3198 21.7978 36.355 20.1988 37.9376 18.7481C39.3448 17.458 40.3556 16.3202 40.9324 15.408C41.2212 14.9509 41.3732 14.5938 41.4312 14.335C41.4878 14.0829 41.4416 13.9966 41.4336 13.9828C41.4256 13.9688 41.3738 13.8855 41.1266 13.8083C40.873 13.729 40.4874 13.682 39.9468 13.7036C38.8678 13.7466 37.3764 14.0525 35.5548 14.6255C33.5066 15.2697 31.1038 16.2314 28.504 17.4634C28.5944 18.7055 28.6598 19.9987 28.6974 21.331C29.833 22.0296 30.9208 22.7328 31.9518 23.432ZM28.7224 22.4494C29.5498 22.966 30.3494 23.4842 31.1176 24C30.3494 24.5158 29.5498 25.034 28.7224 25.5506C28.7306 25.0386 28.7348 24.5216 28.7348 24C28.7348 23.4784 28.7306 22.9614 28.7224 22.4494ZM27.7412 20.7506C27.7072 19.7757 27.658 18.8243 27.595 17.9013C26.7636 18.3083 25.9146 18.7414 25.0528 19.1994C25.5008 19.4482 25.951 19.7031 26.403 19.9639C26.8552 20.2248 27.3014 20.4872 27.7412 20.7506ZM27.595 30.0988C26.7636 29.6918 25.9146 29.2586 25.0528 28.8006C25.5008 28.5518 25.951 28.297 26.403 28.0362C26.8552 27.7752 27.3014 27.5128 27.7412 27.2494C27.7072 28.2244 27.658 29.1758 27.595 30.0988Z" fill="white"/>
<path fill-rule="evenodd" clip-rule="evenodd" d="M10.6662 18.127C11.4807 18.127 12.141 18.7876 12.141 19.6025C12.141 20.4174 11.4807 21.078 10.6662 21.078C9.85169 21.078 9.19141 20.4174 9.19141 19.6025C9.19141 18.7876 9.85169 18.127 10.6662 18.127Z" fill="white"/>
<path fill-rule="evenodd" clip-rule="evenodd" d="M34.1045 13.0742C34.9195 13.0742 35.5801 13.7348 35.5801 14.5498C35.5801 15.3647 34.9195 16.0253 34.1045 16.0253C33.2895 16.0253 32.6289 15.3647 32.6289 14.5498C32.6289 13.7348 33.2895 13.0742 34.1045 13.0742Z" fill="white"/>
<path fill-rule="evenodd" clip-rule="evenodd" d="M21.0986 36.2334C21.9134 36.2334 22.574 36.8936 22.574 37.7082C22.574 38.5226 21.9134 39.183 21.0986 39.183C20.2836 39.183 19.623 38.5226 19.623 37.7082C19.623 36.8936 20.2836 36.2334 21.0986 36.2334Z" fill="white"/>
<path fill-rule="evenodd" clip-rule="evenodd" d="M23.9882 21.4912C25.368 21.4912 26.4864 22.6096 26.4864 23.9892C26.4864 25.369 25.368 26.4874 23.9882 26.4874C22.6086 26.4874 21.4902 25.369 21.4902 23.9892C21.4902 22.6096 22.6086 21.4912 23.9882 21.4912Z" fill="white"/>
</svg>
