<?xml version="1.0" encoding="utf-8"?>
<!-- Generator: Adobe Illustrator 24.0.1, SVG Export Plug-In . SVG Version: 6.00 Build 0)  -->
<svg version="1.1" id="Layer_1" xmlns="http://www.w3.org/2000/svg" xmlns:xlink="http://www.w3.org/1999/xlink" x="0px" y="0px"
	 viewBox="0 0 24 24" style="enable-background:new 0 0 24 24;" xml:space="preserve">
<style type="text/css">
	.st0{fill-rule:evenodd;clip-rule:evenodd;}
	.st1{fill:none;}
</style>
<g>
	<path d="M23.6,11.3L12.7,1.4c-0.4-0.4-1-0.4-1.4,0L0.4,11.3c-0.4,0.4-0.4,1,0,1.4s1,0.4,1.4,0L12,3.5l10.2,9.2c0.4,0.4,1,0.4,1.4,0
		C24,12.3,24,11.7,23.6,11.3z"/>
	<path d="M19.6,14.1L19.6,14.1c-0.5,0-1,0.4-1,1V20l0,0.1c0,0,0,0,0,0.1c-0.1,0.5-0.5,0.8-1,0.8H12v0H6.3c-0.1,0-0.1,0-0.2,0
		c-0.5,0-0.9-0.5-0.8-1v-4.9c0,0,0,0,0,0c0-0.5-0.4-1-1-1c-0.5,0-1,0.4-1,1V20c0,0.1,0,0.1,0,0.2c0.1,1.6,1.4,2.8,3,2.8H12v0h5.7
		h0.2c0,0,0,0,0,0c1.6-0.1,2.8-1.4,2.7-2.9v-4.9l0-0.1C20.6,14.4,20.1,14.1,19.6,14.1z"/>
</g>
<rect id="Rectangle_361" x="0" y="0.6" class="st1" width="24" height="24"/>
</svg>
