<?xml version="1.0" standalone="no"?>
<!DOCTYPE svg PUBLIC "-//W3C//DTD SVG 20010904//EN"
 "http://www.w3.org/TR/2001/REC-SVG-20010904/DTD/svg10.dtd">
<svg version="1.0" xmlns="http://www.w3.org/2000/svg"
 width="576.000000pt" height="576.000000pt" viewBox="0 0 576.000000 576.000000"
 preserveAspectRatio="xMidYMid meet">
<metadata>
Created by potrace 1.11, written by Peter Selinger 2001-2013
</metadata>
<g transform="translate(0.000000,576.000000) scale(0.100000,-0.100000)"
fill="#000000" stroke="none">
<path d="M895 5678 c-110 -44 -213 -86 -230 -93 -16 -7 -52 -20 -78 -30 -26
-10 -51 -23 -55 -29 -3 -6 -7 -137 -7 -291 l-1 -280 30 -35 c16 -19 73 -82
127 -140 54 -58 108 -118 121 -133 13 -15 27 -27 30 -27 5 0 200 576 203 600
0 3 11 40 25 82 l24 76 248 -1 c136 -1 248 0 248 3 0 5 -42 40 -120 99 -25 19
-47 38 -48 43 -2 4 -8 6 -13 2 -5 -3 -9 -1 -9 4 0 5 -51 49 -112 98 -62 48
-115 91 -118 94 -9 11 -54 40 -60 39 -3 -1 -95 -37 -205 -81z"/>
<path d="M4560 5689 c-47 -39 -98 -80 -113 -92 -16 -12 -34 -26 -40 -32 -7 -5
-39 -31 -72 -58 -33 -26 -75 -59 -94 -75 -18 -15 -40 -31 -47 -35 -8 -4 -14
-11 -14 -15 0 -4 112 -7 250 -6 l249 1 7 -31 c4 -17 10 -37 15 -46 4 -8 24
-69 45 -135 33 -108 98 -310 109 -343 2 -7 5 -16 7 -20 1 -4 14 -45 29 -92 29
-87 38 -95 68 -61 40 45 200 219 236 255 l39 40 1 279 c0 153 -3 286 -6 295
-4 11 -46 33 -105 56 -220 85 -350 137 -369 145 -26 12 -105 41 -108 40 -1 0
-40 -32 -87 -70z"/>
<path d="M1264 5043 c-10 -32 -18 -60 -19 -63 -1 -3 -30 -93 -65 -200 -35
-107 -64 -197 -65 -200 -1 -6 -69 -221 -102 -320 -14 -41 -58 -165 -98 -275
-117 -322 -215 -592 -256 -710 -22 -60 -42 -117 -46 -125 -3 -8 -7 -18 -8 -22
-2 -5 -4 -10 -5 -13 -1 -3 -3 -8 -5 -12 -1 -5 -4 -15 -8 -23 -3 -8 -44 -121
-90 -250 -47 -129 -97 -269 -112 -310 -15 -41 -43 -117 -61 -167 -18 -51 -38
-102 -44 -113 -6 -11 -8 -20 -5 -20 3 0 1 -9 -5 -19 -12 -24 -4 -33 141 -150
57 -47 106 -88 109 -91 3 -3 27 -24 55 -45 27 -22 61 -50 75 -62 14 -12 113
-94 220 -183 107 -89 209 -174 226 -188 17 -15 45 -38 63 -52 18 -14 45 -36
59 -50 15 -14 63 -54 107 -90 44 -35 82 -67 85 -70 3 -3 41 -34 85 -69 44 -35
85 -69 90 -76 6 -6 33 -29 60 -51 28 -21 61 -49 75 -61 14 -12 59 -49 100 -83
41 -34 95 -79 120 -100 56 -47 92 -77 105 -88 12 -9 129 -106 147 -121 14 -12
40 -34 103 -86 22 -18 87 -72 145 -120 58 -48 125 -104 149 -124 24 -20 98
-82 165 -138 68 -56 126 -98 132 -95 7 4 31 23 54 42 22 19 49 42 59 50 64 53
118 98 138 115 13 11 35 29 49 40 14 11 35 28 47 38 12 11 40 34 62 52 41 34
105 87 140 117 11 9 81 67 155 128 74 62 155 129 180 150 87 73 296 246 345
285 28 22 55 44 60 50 6 6 35 31 65 55 30 25 66 54 80 66 14 12 81 69 150 125
130 107 133 110 215 179 61 51 62 52 205 169 63 52 120 99 125 105 6 7 19 18
31 26 11 8 45 35 74 60 118 100 137 116 174 145 21 17 48 39 61 51 12 11 50
42 83 68 57 45 60 50 51 74 -6 15 -10 27 -9 27 3 0 -46 137 -66 183 -8 18 -14
37 -14 42 0 5 -5 21 -12 37 -6 15 -12 30 -13 33 -4 18 -19 60 -30 85 -12 31
-48 129 -105 290 -17 50 -35 99 -40 110 -5 11 -41 110 -80 220 -40 110 -87
241 -105 290 -18 50 -46 126 -61 170 -15 44 -31 86 -37 93 -5 6 -6 12 -3 12 4
0 1 10 -6 23 -6 12 -13 27 -14 32 -3 13 -63 184 -74 210 -4 11 -13 34 -19 50
-6 17 -16 44 -22 60 -7 17 -13 35 -15 42 -1 6 -27 87 -57 180 -72 223 -214
662 -222 691 l-6 22 -396 0 c-323 0 -394 -2 -390 -13 10 -26 129 -402 131
-412 1 -5 7 -23 13 -40 21 -56 54 -167 50 -171 -5 -5 -2009 -5 -2014 0 -2 2 8
41 23 87 63 200 108 341 139 434 18 55 30 103 28 108 -2 4 -179 7 -393 7
l-389 0 -17 -57z m574 -1718 l287 -115 0 -199 c0 -110 -3 -202 -6 -206 -5 -5
-262 138 -349 193 -14 9 -27 17 -30 17 -5 0 -94 52 -215 123 -33 20 -63 40
-66 45 -4 5 7 46 23 90 16 45 32 93 34 106 5 26 22 61 29 61 3 0 134 -52 293
-115z m2392 92 c0 -13 3 -27 7 -30 9 -9 63 -178 63 -198 0 -14 -158 -113 -246
-154 -11 -5 -27 -15 -35 -21 -8 -7 -36 -24 -64 -39 -27 -14 -63 -35 -80 -45
-16 -10 -46 -27 -65 -38 -72 -40 -112 -63 -136 -79 -14 -8 -28 -13 -32 -9 -11
12 -9 396 3 405 5 4 98 43 205 85 107 42 204 81 215 86 53 24 141 58 153 59 6
1 12 -9 12 -22z"/>
</g>
</svg>
