<svg id="root" width="28" height="28" viewBox="0 0 28 28" fill="none" xmlns="http://www.w3.org/2000/svg"><g clip-path="url(#a-logo-evmos)"><path d="M28 14c0 7.732-6.268 14-14 14S0 21.732 0 14 6.268 0 14 0s14 6.268 14 14Z" fill="#2D2925"/><path fill-rule="evenodd" clip-rule="evenodd" d="M13.247 7.016a9.047 9.047 0 0 0-1.192.234c-1.63.467-2.923 1.45-3.827 2.905-.39.626-.663 1.207-1.213 2.574-.455 1.133-.644 1.509-.973 1.938-.364.473-.801.886-1.716 1.617C3.289 17.112 3 17.436 3 17.764c0 .245.14.412.424.512.2.07.95.074 2.123.012.643-.034.891-.035 1.24-.007.966.077 1.284.18 2.76.902 1.255.614 1.83.855 2.518 1.055a6.362 6.362 0 0 0 1.971.288c2.692-.002 5.162-1.715 6.184-4.289.112-.281.112-.394 0-.52-.074-.082-.108-.097-.22-.097-.165 0-.235.057-.35.286a5.994 5.994 0 0 1-.293.477 5.352 5.352 0 0 1-9.219-.614c-.143-.289-.362-.846-.34-.865.03-.026.4-.197.962-.446 2.8-1.238 5.917-2.356 8.523-3.055.678-.182.778-.199.875-.147.066.035.257.601.357 1.057.035.164.078.333.094.376.03.079.134.146.228.146.119 0 1.482-.792 2.222-1.29 1.161-.783 1.75-1.39 1.758-1.813.01-.58-1.118-.706-3.173-.352-2.372.409-5.764 1.44-9.157 2.784-.902.357-2.117.868-2.648 1.114l-.265.123.018-.395c.102-2.188 1.715-4.18 3.878-4.787a5.347 5.347 0 0 1 3.134.071c.405.132.492.134.607.02.066-.067.087-.115.087-.203 0-.203-.103-.292-.588-.51a7.205 7.205 0 0 0-1.953-.555 10.643 10.643 0 0 0-1.51-.026Z" fill="#FAF1E4"/></g><defs><clipPath id="a-logo-evmos"><path fill="#fff" d="M0 0h28v28H0z"/></clipPath></defs></svg>