<svg id="root" width="28" height="28" viewBox="0 0 28 28" fill="none" xmlns="http://www.w3.org/2000/svg"><circle cx="14" cy="14" r="14" fill="#000"/><path d="M14.035 23.31a9.275 9.275 0 1 1 9.275-9.275 9.281 9.281 0 0 1-9.275 9.275Zm0-18.14a8.865 8.865 0 1 0 0 17.73 8.865 8.865 0 0 0 0-17.73Z" fill="#fff"/><path d="M14.794 22.4a8.334 8.334 0 1 1 0-16.67 8.334 8.334 0 0 1 0 16.67Zm0-16.308a7.98 7.98 0 1 0 7.98 7.98 7.991 7.991 0 0 0-7.98-7.98Z" fill="#fff"/><path d="M15.554 21.496a7.395 7.395 0 1 1 0-14.79 7.395 7.395 0 0 1 0 14.79Zm0-14.464a7.093 7.093 0 1 0 7.093 7.07 7.1 7.1 0 0 0-7.093-7.088" fill="#fff"/><path d="M16.313 20.586a6.448 6.448 0 1 1 0-12.897 6.448 6.448 0 0 1 0 12.897Zm0-12.656a6.208 6.208 0 1 0 0 12.415 6.208 6.208 0 0 0 0-12.415Z" fill="#fff"/><path d="M17.072 19.682a5.509 5.509 0 1 1 5.509-5.508 5.515 5.515 0 0 1-5.509 5.508Zm0-10.848a5.322 5.322 0 1 0 4.913 3.286 5.315 5.315 0 0 0-4.913-3.286Z" fill="#fff"/><path d="M17.832 18.772a4.568 4.568 0 1 1 0-9.135 4.568 4.568 0 0 1 0 9.135Zm0-8.998a4.435 4.435 0 1 0 4.405 4.436 4.436 4.436 0 0 0-4.43-4.43" fill="#fff"/></svg>