<svg width="28" height="28" viewBox="0 0 28 28" fill="none" xmlns="http://www.w3.org/2000/svg">
<path d="M0 14C0 6.26801 6.26801 0 14 0C21.732 0 28 6.26801 28 14C28 21.732 21.732 28 14 28C6.26801 28 0 21.732 0 14Z" fill="white"/>
<path d="M14 0.9375C21.2025 0.9375 27.0625 6.7975 27.0625 14C27.0625 21.2025 21.2025 27.0625 14 27.0625C6.7975 27.0625 0.9375 21.2025 0.9375 14C0.9375 6.7975 6.7975 0.9375 14 0.9375ZM14 0C6.2675 0 0 6.2675 0 14C0 21.7325 6.2675 28 14 28C21.7325 28 28 21.7325 28 14C28 6.2675 21.7325 0 14 0Z" fill="black"/>
<path d="M14.132 5.9525L18.087 9.9075L22.042 13.8625L14.1308 21.7738L6.21953 13.8625L14.1308 5.95125L14.132 5.9525ZM14.1308 4.625L4.89453 13.8638L14.1308 23.1L23.367 13.8638L18.7483 9.245L14.1295 4.62625L14.1308 4.625Z" fill="black"/>
<path fill-rule="evenodd" clip-rule="evenodd" d="M19.0812 9.576L11.1824 17.4747L10.5195 16.8118L18.4183 8.91309L19.0812 9.576Z" fill="black"/>
<path fill-rule="evenodd" clip-rule="evenodd" d="M14.4638 13.5322L19.0813 18.151L18.4183 18.8138L13.8008 14.195L14.4638 13.5322Z" fill="black"/>
<path fill-rule="evenodd" clip-rule="evenodd" d="M12.4748 12.8672L9.18359 9.576L9.84651 8.91309L13.1378 12.2043L12.4748 12.8672Z" fill="black"/>
</svg>
