<svg width="259" height="44" viewBox="0 0 259 44" fill="none" xmlns="http://www.w3.org/2000/svg">
<path d="M14.1703 1.30519C12.9332 2.00246 11.2688 2.94715 10.459 3.37451C9.6493 3.77937 7.78242 4.88151 6.29791 5.8037C3.28391 7.67058 1.12463 8.97515 0.449851 9.31254C0 9.53746 0 9.78488 0 24.495V39.4076L3.82373 41.6568C5.93803 42.8714 7.78242 43.9286 7.93987 43.996C8.1423 44.086 8.20978 42.669 8.20978 37.3382C8.20978 33.6045 8.27725 30.568 8.34473 30.568C8.41221 30.568 10.2116 31.5802 12.3484 32.8172C16.0822 34.9765 16.8694 35.2914 17.3417 34.8641C17.4542 34.7516 19.1187 33.8744 21.0305 32.9297C22.9424 31.9625 26.5187 30.0057 28.9479 28.5662L33.4014 25.957L33.3339 17.7697L33.289 9.58245L28.1832 6.52346C25.3716 4.83652 22.695 3.26204 22.2226 3.01463C21.7503 2.76721 20.3333 1.97997 19.0737 1.26021C17.8141 0.562939 16.6895 -0.0218658 16.5995 0.00062561C16.5095 0.00062561 15.4074 0.58543 14.1703 1.30519ZM20.9406 11.8317L25.0792 14.2384L25.0342 18.6244L24.9667 22.988L21.5928 24.9898C16.3746 28.0713 17.2518 27.9364 14.2603 26.047C12.8432 25.1698 10.9089 23.9327 9.9642 23.3254L8.20978 22.1783V18.2196V14.2609L10.9764 12.6414C12.4834 11.7642 14.1253 10.8195 14.6202 10.5496C15.115 10.2797 15.7223 9.89734 15.9697 9.73989C16.2171 9.55996 16.487 9.425 16.5995 9.425C16.712 9.425 18.6688 10.5046 20.9406 11.8317Z" fill="white"/>
<path d="M100.204 12.3488C98.3148 12.7537 96.8753 13.6534 95.7956 15.0929C94.4461 16.9373 93.9062 18.7817 93.9062 21.5482C93.9287 24.0449 94.1537 25.2595 94.9409 26.8565C96.223 29.4206 98.3598 30.7927 101.351 30.9726C106.345 31.265 109.516 28.0936 109.808 22.4704C110.123 16.5099 107.402 12.6862 102.543 12.2588C101.801 12.1914 100.766 12.2363 100.204 12.3488ZM104.005 16.5999C104.883 17.2297 105.467 18.3543 105.827 20.0862C106.48 23.2352 105.063 26.6091 102.858 27.2164C99.6643 28.0711 97.3701 24.9896 97.8424 20.5586C98.0224 18.8042 99.057 16.9823 100.204 16.3525C101.239 15.7902 103.016 15.9026 104.005 16.5999Z" fill="white"/>
<path d="M230.729 12.3491C227.175 13.0913 224.949 16.2852 224.656 21.0087C224.409 25.3947 226.141 29.106 229.065 30.4106C229.717 30.703 230.752 30.9054 231.899 30.9729C234.216 31.0853 235.768 30.5455 237.117 29.1735C238.129 28.1163 239.074 26.4969 238.804 26.2719C238.714 26.2045 237.927 25.8671 237.027 25.5522L235.408 24.9674L234.913 25.7771C234.306 26.7443 232.776 27.509 231.854 27.2841C230.639 26.9917 230.077 26.5418 229.425 25.3497C228.795 24.2251 228.75 24.0227 228.75 21.571C228.75 19.2318 228.795 18.8944 229.312 17.9722C229.627 17.4324 230.212 16.7351 230.639 16.4652C232.034 15.5205 234.126 15.9479 235.07 17.4099C235.273 17.7248 235.52 17.9722 235.633 17.9722C235.745 17.9722 236.532 17.6573 237.409 17.2749L238.961 16.5777L238.534 15.7454C237.972 14.6208 236.6 13.3612 235.385 12.8214C234.171 12.3041 232.034 12.0791 230.729 12.3491Z" fill="white"/>
<path d="M51.6661 21.616L51.7336 30.6805L53.7129 30.748L55.6698 30.8154V27.5765V24.3376L58.4813 24.2251C61.023 24.1351 61.4278 24.0452 62.575 23.4604C66.5786 21.4135 66.7361 15.453 62.8449 13.2488C61.8777 12.7089 61.7202 12.6864 56.7269 12.619L51.6211 12.5515L51.6661 21.616ZM61.0905 16.8251C61.5628 17.3199 61.7427 17.7023 61.7427 18.3096C61.7427 18.9169 61.5628 19.2993 61.0905 19.7941C60.4382 20.4239 60.3707 20.4464 58.054 20.4464H55.6698V18.3096V16.1728H58.054C60.3707 16.1728 60.4382 16.1953 61.0905 16.8251Z" fill="white"/>
<path d="M72.5391 21.661V30.793H74.4509H76.3628V27.4191V24.0452H77.8923L79.3993 24.0677L81.0188 27.4191L82.6382 30.793H84.7975C85.9671 30.793 86.9343 30.748 86.9343 30.6805C86.9343 30.613 86.147 28.9936 85.2024 27.0592C83.5604 23.7528 83.4704 23.5279 83.8753 23.2805C85.7872 22.1333 86.7768 20.3789 86.7768 18.1971C86.7543 15.9029 85.8546 14.1935 84.1677 13.2263C83.2455 12.709 83.0656 12.6865 77.8923 12.619L72.5391 12.5515V21.661ZM81.8285 16.4202C82.9756 16.9376 83.2455 18.7595 82.3233 19.6592C81.806 20.199 81.6485 20.2215 79.0619 20.2215H76.3628V18.1971V16.1728H78.837C80.1865 16.1728 81.5361 16.2853 81.8285 16.4202Z" fill="white"/>
<path d="M115.071 12.8441C115.071 13.0015 116.466 17.0727 118.152 21.9086L121.234 30.6807H123.033H124.81L127.914 21.7961C129.624 16.9152 131.018 12.8441 131.018 12.7316C131.018 12.6416 130.118 12.5742 128.994 12.5742H126.992L125.148 18.2423C124.158 21.3688 123.236 24.0229 123.146 24.1128C123.056 24.2253 122.089 21.6612 121.009 18.4447L119.052 12.5742H117.05C115.588 12.5742 115.048 12.6416 115.071 12.8441Z" fill="white"/>
<path d="M137.543 21.6835V30.793H143.841H150.139V28.9936V27.1942L145.82 27.1492L141.479 27.0817L141.412 25.1024L141.344 23.1455H143.953H146.54V21.3461V19.5467H143.953H141.367V17.8598V16.1728H145.528H149.689V14.3734V12.574H143.616H137.543V21.6835Z" fill="white"/>
<path d="M157.785 21.6835V30.793H159.697H161.609V25.3723V19.9516L164.33 24.0902C165.837 26.3394 167.434 28.7911 167.884 29.4884L168.694 30.793H170.426H172.18V21.6835V12.574H170.269H168.357V17.7473C168.357 20.5814 168.289 22.9206 168.199 22.9206C168.087 22.9206 166.512 20.5814 164.668 17.7473L161.316 12.574H159.562H157.785V21.6835Z" fill="white"/>
<path d="M185.271 13.1813C185.136 13.5187 183.651 17.4549 181.987 21.9084C180.323 26.3619 178.883 30.1857 178.816 30.4106C178.658 30.7705 178.816 30.8155 180.727 30.748L182.819 30.6805L183.494 28.8136L184.169 26.9467L187.318 27.0142L190.489 27.0817L191.141 28.9261L191.816 30.793H193.796C194.898 30.793 195.797 30.748 195.797 30.6805C195.797 30.5905 194.695 27.5765 190.062 15.1607L189.162 12.6865L187.34 12.619C185.518 12.5515 185.518 12.5515 185.271 13.1813ZM188.24 20.8513C188.69 22.0659 189.05 23.1455 189.05 23.213C189.05 23.303 188.24 23.3704 187.25 23.3704H185.473L186.261 21.1887C187.025 19.0519 187.205 18.647 187.34 18.647C187.385 18.647 187.79 19.6367 188.24 20.8513Z" fill="white"/>
<path d="M202.547 21.6835V30.793H204.459H206.371L206.416 25.4622L206.483 20.109L209.969 25.4397L213.456 30.7705L215.21 30.793H216.942V21.6835V12.574H215.03H213.118V17.7473C213.118 20.5814 213.051 22.9206 212.961 22.9206C212.848 22.9206 211.274 20.5814 209.43 17.7473L206.101 12.574H204.324H202.547V21.6835Z" fill="white"/>
<path d="M246.18 21.6835V30.793H252.59H259V28.9936V27.1942L254.569 27.1492L250.116 27.0817L250.048 25.1024L249.981 23.1455H252.59H255.177V21.3461V19.5467H252.59H250.003V17.8598V16.1728H254.165H258.326V14.3734V12.574H252.253H246.18V21.6835Z" fill="white"/>
</svg>
