<svg width="932" height="392" viewBox="0 0 932 392" fill="none" xmlns="http://www.w3.org/2000/svg">
<path d="M510.88 226.71H487.46C487.271 226.729 487.08 226.705 486.901 226.641C486.721 226.577 486.559 226.473 486.425 226.338C486.291 226.203 486.188 226.04 486.125 225.86C486.062 225.681 486.04 225.489 486.06 225.3V176.05C486.1 175.67 486.054 175.287 485.926 174.927C485.798 174.568 485.591 174.241 485.321 173.972C485.051 173.703 484.724 173.497 484.364 173.37C484.004 173.244 483.62 173.199 483.24 173.24H475.18C474.801 173.199 474.418 173.243 474.058 173.37C473.699 173.497 473.372 173.702 473.102 173.972C472.833 174.242 472.627 174.568 472.5 174.928C472.374 175.287 472.329 175.671 472.37 176.05V233.82C472.37 237.4 474.37 239.45 478 239.45H510.88C511.259 239.491 511.643 239.447 512.002 239.32C512.362 239.193 512.689 238.988 512.958 238.718C513.228 238.448 513.434 238.122 513.56 237.762C513.687 237.402 513.731 237.019 513.69 236.64V229.52C513.731 229.141 513.687 228.757 513.56 228.398C513.434 228.038 513.228 227.712 512.958 227.442C512.689 227.172 512.362 226.967 512.002 226.84C511.643 226.713 511.259 226.669 510.88 226.71V226.71Z" fill="#28646E"/>
<path d="M855.49 198.88H846.49C846.116 198.846 845.739 198.896 845.387 199.026C845.035 199.157 844.716 199.364 844.455 199.634C844.193 199.903 843.995 200.227 843.875 200.583C843.755 200.939 843.715 201.317 843.76 201.69V236.64C843.715 237.013 843.755 237.391 843.875 237.747C843.995 238.103 844.193 238.427 844.455 238.696C844.716 238.966 845.035 239.173 845.387 239.303C845.739 239.434 846.116 239.484 846.49 239.45H855.49C855.864 239.484 856.242 239.433 856.594 239.303C856.947 239.173 857.266 238.966 857.528 238.696C857.791 238.427 857.99 238.103 858.111 237.747C858.233 237.392 858.273 237.013 858.23 236.64V201.69C858.273 201.317 858.233 200.938 858.111 200.583C857.99 200.227 857.791 199.903 857.528 199.634C857.266 199.364 856.947 199.157 856.594 199.027C856.242 198.896 855.864 198.846 855.49 198.88Z" fill="#28646E"/>
<path d="M846.758 189.77C847.528 189.31 847.408 188.51 847.328 187.88C846.928 184.77 843.868 171.49 842.928 168.77C842.885 168.513 842.789 168.269 842.646 168.051C842.504 167.833 842.318 167.648 842.1 167.506C841.881 167.364 841.636 167.269 841.38 167.226C841.123 167.184 840.86 167.196 840.608 167.26C839.278 167.52 837.548 168.38 834.828 170.02C832.108 171.66 830.528 172.79 829.688 173.85C829.514 174.043 829.382 174.271 829.3 174.518C829.218 174.764 829.187 175.026 829.211 175.285C829.234 175.544 829.311 175.795 829.436 176.023C829.561 176.251 829.732 176.451 829.938 176.61C831.938 178.71 842.238 187.61 844.808 189.4C845.328 189.76 845.978 190.25 846.738 189.78L846.758 189.77Z" fill="#28646E"/>
<path d="M854.76 172.22C855.55 172.64 856.17 172.12 856.67 171.73C861.665 167.506 866.397 162.981 870.84 158.18C871.038 158.011 871.198 157.803 871.312 157.568C871.426 157.334 871.489 157.079 871.5 156.819C871.51 156.559 871.467 156.3 871.372 156.057C871.277 155.815 871.134 155.594 870.95 155.41C870.05 154.41 868.42 153.35 865.62 151.86C862.82 150.37 861.04 149.59 859.7 149.4C859.444 149.35 859.181 149.353 858.927 149.409C858.672 149.465 858.432 149.573 858.221 149.726C858.01 149.879 857.833 150.074 857.7 150.298C857.567 150.522 857.482 150.771 857.45 151.03C856.66 153.8 854.31 167.22 854.08 170.35C854.03 170.98 853.95 171.78 854.74 172.21L854.76 172.22Z" fill="#28646E"/>
<path d="M549.491 198.88H540.491C540.117 198.846 539.74 198.896 539.387 199.027C539.034 199.157 538.715 199.364 538.453 199.634C538.191 199.903 537.991 200.227 537.87 200.583C537.749 200.938 537.708 201.317 537.751 201.69V236.64C537.708 237.013 537.749 237.392 537.87 237.747C537.991 238.103 538.191 238.427 538.453 238.696C538.715 238.966 539.034 239.173 539.387 239.303C539.74 239.433 540.117 239.484 540.491 239.45H549.491C549.865 239.484 550.242 239.434 550.594 239.303C550.946 239.173 551.265 238.966 551.526 238.696C551.788 238.427 551.986 238.103 552.106 237.747C552.227 237.391 552.266 237.013 552.221 236.64V201.69C552.266 201.317 552.227 200.939 552.106 200.583C551.986 200.227 551.788 199.903 551.526 199.634C551.265 199.364 550.946 199.157 550.594 199.026C550.242 198.896 549.865 198.846 549.491 198.88V198.88Z" fill="#28646E"/>
<path d="M540.758 189.77C541.528 189.31 541.398 188.51 541.318 187.88C540.928 184.77 537.868 171.49 536.928 168.77C536.884 168.514 536.787 168.27 536.644 168.053C536.501 167.836 536.315 167.651 536.097 167.51C535.879 167.368 535.635 167.273 535.379 167.23C535.122 167.187 534.86 167.197 534.608 167.26C533.278 167.52 531.538 168.38 528.828 170.02C526.118 171.66 524.528 172.79 523.688 173.85C523.514 174.043 523.382 174.271 523.3 174.517C523.218 174.764 523.187 175.025 523.211 175.284C523.234 175.544 523.311 175.795 523.436 176.023C523.561 176.251 523.732 176.451 523.938 176.61C525.938 178.71 536.238 187.61 538.808 189.4C539.328 189.76 539.968 190.25 540.738 189.78L540.758 189.77Z" fill="#28646E"/>
<path d="M548.76 172.22C549.55 172.64 550.17 172.12 550.67 171.73C555.665 167.506 560.397 162.981 564.84 158.18C565.039 158.011 565.2 157.803 565.313 157.568C565.427 157.333 565.49 157.078 565.499 156.817C565.509 156.557 565.464 156.297 565.368 156.055C565.271 155.813 565.126 155.593 564.94 155.41C564.05 154.41 562.42 153.35 559.61 151.86C556.8 150.37 555.04 149.59 553.7 149.4C553.444 149.35 553.181 149.353 552.927 149.409C552.672 149.465 552.432 149.573 552.221 149.726C552.01 149.879 551.833 150.074 551.7 150.298C551.567 150.522 551.482 150.771 551.45 151.03C550.66 153.8 548.31 167.22 548.08 170.35C548.03 170.98 547.95 171.78 548.74 172.21L548.76 172.22Z" fill="#28646E"/>
<path d="M623.452 239.4H615.382C615.003 239.441 614.619 239.397 614.26 239.27C613.9 239.143 613.573 238.938 613.304 238.668C613.034 238.398 612.828 238.072 612.702 237.712C612.575 237.352 612.531 236.969 612.572 236.59V224.68C612.492 222.254 611.473 219.955 609.729 218.267C607.985 216.579 605.654 215.636 603.227 215.636C600.8 215.636 598.468 216.579 596.724 218.267C594.98 219.955 593.961 222.254 593.882 224.68V236.59C593.921 236.97 593.875 237.353 593.747 237.713C593.619 238.072 593.413 238.399 593.142 238.668C592.872 238.937 592.545 239.143 592.185 239.27C591.825 239.396 591.441 239.441 591.062 239.4H583.002C582.622 239.441 582.238 239.396 581.878 239.27C581.518 239.143 581.191 238.937 580.921 238.668C580.651 238.399 580.444 238.072 580.316 237.713C580.188 237.353 580.142 236.97 580.182 236.59V177.25C580.143 176.87 580.189 176.486 580.316 176.126C580.444 175.766 580.651 175.439 580.921 175.169C581.191 174.899 581.518 174.693 581.878 174.565C582.238 174.437 582.622 174.391 583.002 174.43H591.062C591.442 174.389 591.827 174.434 592.188 174.561C592.548 174.688 592.876 174.894 593.147 175.165C593.417 175.435 593.624 175.763 593.751 176.124C593.878 176.485 593.923 176.87 593.882 177.25V202.41C593.881 202.669 593.934 202.925 594.035 203.164C594.137 203.402 594.285 203.617 594.472 203.797C594.659 203.976 594.88 204.116 595.122 204.207C595.365 204.299 595.623 204.341 595.882 204.33C596.622 204.219 597.329 203.943 597.948 203.522C598.568 203.102 599.085 202.547 599.462 201.9L610.312 185.9C611.622 184.09 612.752 183.21 614.542 183.21H624.002C626.002 183.21 627.072 184.87 625.922 186.66L613.762 203.17C613.122 204.17 612.992 205.09 614.532 205.86C618.062 207.574 621.038 210.247 623.119 213.574C625.201 216.901 626.303 220.746 626.302 224.67V236.58C626.346 236.964 626.302 237.352 626.174 237.716C626.045 238.08 625.836 238.411 625.562 238.682C625.287 238.954 624.955 239.16 624.589 239.284C624.224 239.408 623.835 239.448 623.452 239.4V239.4Z" fill="#28646E"/>
<path d="M668.798 181.9C655.718 181.9 646.988 191.35 646.988 202.13V220.06C646.988 230.84 655.718 240.29 668.798 240.29C680.718 240.29 685.288 234.66 687.618 229.97C687.949 229.377 688.057 228.686 687.923 228.02C687.789 227.355 687.422 226.759 686.888 226.34L681.198 222.58C680.929 222.358 680.615 222.197 680.278 222.107C679.941 222.017 679.588 222.001 679.244 222.059C678.9 222.116 678.573 222.247 678.284 222.443C677.994 222.638 677.751 222.893 677.568 223.19C675.268 227.06 672.568 228.78 668.798 228.78C667.639 228.811 666.485 228.608 665.405 228.182C664.326 227.757 663.344 227.118 662.518 226.303C661.691 225.489 661.038 224.516 660.596 223.444C660.155 222.371 659.934 221.22 659.948 220.06V217.88C659.929 217.7 659.951 217.518 660.011 217.347C660.072 217.176 660.171 217.021 660.299 216.893C660.428 216.766 660.583 216.669 660.755 216.609C660.926 216.55 661.108 216.53 661.288 216.55H685.288C688.678 216.55 690.618 214.61 690.618 211.22V202.13C690.598 191.35 681.878 181.9 668.798 181.9ZM677.638 204.31C677.659 204.49 677.639 204.672 677.579 204.844C677.52 205.015 677.423 205.171 677.295 205.299C677.167 205.428 677.012 205.526 676.841 205.587C676.671 205.648 676.489 205.669 676.308 205.65H661.308C661.128 205.669 660.945 205.647 660.774 205.586C660.603 205.526 660.447 205.428 660.319 205.299C660.191 205.171 660.093 205.015 660.032 204.844C659.971 204.673 659.949 204.491 659.968 204.31V202.13C660.045 199.836 661.011 197.661 662.661 196.065C664.312 194.47 666.518 193.577 668.813 193.577C671.109 193.577 673.315 194.47 674.965 196.065C676.615 197.661 677.581 199.836 677.658 202.13L677.638 204.31Z" fill="#28646E"/>
<path d="M735.829 184.21C741.399 184.21 743.669 187.88 746.079 191.92C746.959 193.32 748.479 193.44 749.869 192.56L755.809 188.64C757.329 187.64 756.949 185.73 756.569 184.84C754.169 178.64 747.089 172.19 735.829 172.19C722.169 172.19 713.059 182.06 713.059 193.32V219.17C713.059 230.43 722.169 240.29 735.829 240.29C747.089 240.29 754.169 233.84 756.569 227.64C756.949 226.76 757.329 224.86 755.809 223.85L749.869 219.93C749.588 219.699 749.26 219.53 748.909 219.436C748.557 219.342 748.189 219.324 747.83 219.384C747.471 219.443 747.129 219.579 746.827 219.782C746.525 219.985 746.27 220.25 746.079 220.56C743.669 224.61 741.399 228.27 735.829 228.27C734.619 228.301 733.416 228.088 732.29 227.643C731.165 227.198 730.141 226.531 729.279 225.682C728.418 224.832 727.736 223.818 727.276 222.699C726.815 221.58 726.585 220.38 726.599 219.17V193.32C726.583 192.109 726.813 190.908 727.273 189.788C727.733 188.668 728.414 187.652 729.276 186.802C730.137 185.951 731.162 185.283 732.288 184.838C733.414 184.392 734.618 184.179 735.829 184.21Z" fill="#28646E"/>
<path d="M796.32 182.51C783.24 182.51 774.52 191.96 774.52 202.74V220.06C774.52 230.84 783.24 240.29 796.32 240.29C809.4 240.29 818.13 230.84 818.13 220.06V202.74C818.13 192 809.41 182.51 796.32 182.51ZM805.169 220.06C805.092 222.354 804.127 224.529 802.476 226.125C800.826 227.721 798.62 228.613 796.325 228.613C794.029 228.613 791.823 227.721 790.173 226.125C788.522 224.529 787.557 222.354 787.479 220.06V202.74C787.557 200.446 788.522 198.271 790.173 196.675C791.823 195.079 794.029 194.187 796.325 194.187C798.62 194.187 800.826 195.079 802.476 196.675C804.127 198.271 805.092 200.446 805.169 202.74V220.06Z" fill="#28646E"/>
<path d="M908.469 182.55C904.565 182.531 900.725 183.545 897.339 185.49C897.19 185.584 897.024 185.645 896.85 185.67C896.676 185.695 896.499 185.683 896.33 185.635C896.161 185.586 896.004 185.503 895.87 185.39C895.735 185.278 895.626 185.138 895.549 184.98C895.298 184.603 894.953 184.299 894.547 184.097C894.142 183.895 893.691 183.803 893.239 183.83H888.239C887.859 183.79 887.476 183.836 887.116 183.964C886.757 184.092 886.43 184.299 886.161 184.569C885.891 184.84 885.686 185.167 885.559 185.527C885.433 185.887 885.388 186.271 885.429 186.65V236.65C885.388 237.029 885.432 237.412 885.559 237.772C885.686 238.132 885.891 238.458 886.161 238.728C886.431 238.998 886.757 239.203 887.117 239.33C887.476 239.457 887.86 239.501 888.239 239.46H896.299C896.678 239.501 897.062 239.456 897.422 239.33C897.782 239.203 898.109 238.997 898.38 238.728C898.65 238.459 898.857 238.132 898.985 237.773C899.112 237.413 899.158 237.03 899.119 236.65V203.92C899.119 201.443 900.103 199.067 901.855 197.316C903.606 195.564 905.982 194.58 908.459 194.58C910.936 194.58 913.312 195.564 915.063 197.316C916.815 199.067 917.799 201.443 917.799 203.92V236.64C917.758 237.019 917.802 237.402 917.929 237.762C918.056 238.122 918.261 238.448 918.531 238.718C918.801 238.988 919.127 239.193 919.487 239.32C919.846 239.447 920.23 239.491 920.609 239.45H928.669C929.048 239.491 929.432 239.446 929.792 239.32C930.152 239.193 930.479 238.987 930.75 238.718C931.02 238.449 931.227 238.122 931.355 237.763C931.482 237.403 931.528 237.02 931.489 236.64V203.92C931.499 192.53 922.289 182.55 908.469 182.55Z" fill="#28646E"/>
<path d="M196.5 392C304.748 392 392.5 304.248 392.5 196C392.5 87.7522 304.748 0 196.5 0C88.2522 0 0.5 87.7522 0.5 196C0.5 304.248 88.2522 392 196.5 392Z" fill="url(#paint0_linear)"/>
<path d="M196.5 379.75C95.18 379.75 12.75 297.32 12.75 196C12.75 94.68 95.18 12.25 196.5 12.25C297.82 12.25 380.25 94.68 380.25 196C380.25 297.32 297.82 379.75 196.5 379.75ZM196.5 27.81C103.76 27.81 28.31 103.26 28.31 196C28.31 288.74 103.76 364.19 196.5 364.19C289.24 364.19 364.7 288.74 364.7 196C364.7 103.26 289.24 27.81 196.5 27.81Z" fill="#28646E"/>
<path d="M184.35 162.43C183.288 162.433 182.251 162.111 181.376 161.509C180.501 160.906 179.831 160.051 179.455 159.058C179.079 158.065 179.015 156.98 179.272 155.95C179.528 154.919 180.093 153.991 180.89 153.29C195.65 140.29 202.18 129.55 203.34 127.53C207.68 119.97 214.65 116.06 221.97 117.06C223.343 117.247 224.585 117.972 225.423 119.074C226.261 120.177 226.627 121.567 226.44 122.94C226.253 124.312 225.529 125.554 224.426 126.393C223.323 127.231 221.933 127.597 220.56 127.41C216.29 126.84 213.43 130.94 212.4 132.74C211.1 135.01 203.79 147.03 187.81 161.13C186.853 161.968 185.623 162.43 184.35 162.43Z" fill="#28646E"/>
<path d="M96.3905 251C95.3173 250.998 94.2706 250.667 93.3924 250.05C92.5142 249.433 91.8469 248.561 91.4811 247.553C91.1154 246.544 91.0688 245.447 91.3478 244.411C91.6267 243.374 92.2177 242.449 93.0405 241.76C99.0995 236.973 105.53 232.676 112.27 228.91C113.502 228.356 114.9 228.3 116.172 228.754C117.444 229.207 118.491 230.135 119.094 231.343C119.698 232.551 119.811 233.946 119.409 235.235C119.008 236.524 118.123 237.608 116.94 238.26C110.928 241.674 105.175 245.528 99.7305 249.79C98.795 250.575 97.6118 251.004 96.3905 251Z" fill="#28646E"/>
<path d="M227.771 201.43C229.841 203.37 232.251 202.53 234.471 200.43C249.611 186 265.651 163.34 271.001 151.58C272.141 149.07 274.451 147.67 276.931 148.66C279.841 149.84 279.801 154.85 277.161 160.29C270.161 174.69 260.461 190.55 241.301 210.39C240.896 210.771 240.574 211.232 240.358 211.745C240.141 212.257 240.033 212.809 240.042 213.365C240.05 213.921 240.174 214.469 240.407 214.975C240.639 215.48 240.974 215.931 241.391 216.3C243.081 217.82 245.821 217.72 248.391 215.11C258.341 204.96 265.041 197.11 270.801 188.96C272.271 186.82 274.051 185.96 275.801 186.35C278.321 186.85 278.721 189.27 277.951 192.18C276.701 196.88 263.481 214.18 258.251 220.05C244.051 235.89 229.841 244.57 202.511 258.78C192.971 263.78 185.831 268.48 181.511 275.78C177.581 282.42 176.401 284.59 176.001 285.43C175.231 286.991 175.104 288.792 175.648 290.445C176.192 292.098 177.364 293.472 178.911 294.27C179.7 294.647 180.557 294.86 181.431 294.895C182.304 294.929 183.176 294.786 183.992 294.472C184.808 294.158 185.552 293.682 186.178 293.071C186.803 292.46 187.298 291.728 187.631 290.92C187.631 290.84 187.431 291.03 192.571 282.34C196.43 276.131 202.029 271.193 208.671 268.14C236.011 255.68 247.211 245.82 263.071 229.96C270.311 222.72 280.311 207.21 283.071 202.62C290.711 189.76 286.701 178.73 279.801 176.86C279.668 176.827 279.544 176.764 279.44 176.675C279.335 176.586 279.253 176.474 279.2 176.348C279.146 176.222 279.123 176.085 279.132 175.948C279.141 175.811 279.182 175.678 279.251 175.56C284.591 166.41 287.021 160.09 288.031 155.19C289.391 148.53 287.501 140.45 278.361 138.48C278.246 138.452 278.139 138.401 278.044 138.331C277.949 138.261 277.87 138.172 277.81 138.07C277.75 137.969 277.712 137.856 277.696 137.739C277.681 137.622 277.689 137.504 277.721 137.39C278.291 135.28 278.861 132.62 279.251 130.87C281.171 122.22 275.701 114.39 269.131 112.98C267.013 112.506 264.818 112.49 262.693 112.933C260.568 113.376 258.563 114.268 256.811 115.55C256.566 115.714 256.271 115.784 255.979 115.748C255.686 115.711 255.417 115.57 255.221 115.35C254.359 114.385 253.31 113.606 252.138 113.059C250.965 112.512 249.694 112.21 248.401 112.17C242.671 112.07 237.041 113.83 232.921 122.63C229.971 128.92 225.581 137.37 212.721 151.63C200.791 164.86 184.181 177.76 173.931 184.49C172.131 185.67 169.611 185.39 169.931 182.98C170.411 179.14 174.521 153.39 175.221 145.8C176.361 133.47 169.731 127.8 162.291 126.8C156.171 125.97 146.881 127.73 141.791 141.67C138.791 149.84 132.591 163.26 127.321 184.88C123.611 200.09 123.001 217.82 126.391 238.19C126.606 239.419 126.368 240.684 125.721 241.75C121.661 248.43 115.721 257.22 112.401 264.89C111.739 266.377 111.651 268.057 112.156 269.605C112.66 271.152 113.72 272.458 115.131 273.27C115.901 273.691 116.749 273.949 117.623 274.031C118.496 274.112 119.377 274.014 120.212 273.742C121.046 273.471 121.816 273.031 122.474 272.451C123.133 271.872 123.666 271.163 124.041 270.37C126.041 266.21 130.041 258.37 131.651 255.16C134.411 249.51 136.241 245.78 136.991 243.43C137.671 241.29 138.071 238.81 136.841 233.17C134.761 223.68 134.031 205.84 137.901 190.12C142.121 173.841 147.262 157.815 153.301 142.12C154.861 138.27 157.071 137.07 159.301 137.27C161.531 137.47 165.731 138.54 164.521 146.38C162.361 160.47 159.301 178.38 158.291 184.38C157.801 187.33 157.231 194.23 162.681 197.38C166.931 199.84 171.611 198.47 176.781 195.02C188.421 187.26 208.471 171.45 221.071 157.3C234.291 142.45 238.501 133.61 241.901 125.61C243.451 121.96 247.431 121.99 248.841 122.4C250.251 122.81 251.951 124.71 250.751 128.73C247.821 138.49 235.751 160.85 212.491 181.82C209.861 184.2 210.231 187.01 211.571 188.48C212.911 189.95 215.281 190.83 217.991 188.48C238.891 170.66 250.821 149.36 256.181 137.97C257.966 134.176 259.496 130.268 260.761 126.27C261.901 122.96 264.451 121.78 266.231 122.15C268.771 122.69 270.451 125.3 269.641 129.59C268.343 135.079 266.434 140.406 263.951 145.47C257.251 159.69 243.101 178.72 227.841 195.06C227.391 195.457 227.029 195.945 226.779 196.491C226.529 197.037 226.396 197.629 226.39 198.229C226.383 198.83 226.503 199.425 226.741 199.976C226.979 200.528 227.33 201.023 227.771 201.43V201.43Z" fill="#28646E"/>
<path d="M133.282 130.61C134.092 129.9 133.772 128.99 133.542 128.26C132.422 124.67 126.012 109.65 124.332 106.63C123.482 105.11 122.412 104.9 121.262 105.34C119.752 105.92 117.882 107.34 115.022 109.82C112.162 112.3 110.542 114 109.772 115.42C109.182 116.51 109.252 117.6 110.652 118.63C113.422 120.69 127.482 129 130.902 130.63C131.592 130.95 132.452 131.38 133.262 130.63L133.282 130.61Z" fill="#28646E"/>
<path d="M249.171 263.57C248.101 263.64 247.801 264.57 247.541 265.27C246.251 268.81 242.211 284.64 241.721 288.06C241.471 289.77 242.191 290.59 243.371 290.94C244.921 291.4 247.251 291.43 251.051 291.17C254.851 290.91 257.141 290.58 258.621 289.91C259.751 289.41 260.351 288.5 259.871 286.83C258.921 283.52 252.801 268.37 251.051 265.03C250.701 264.36 250.271 263.49 249.201 263.57H249.171Z" fill="#28646E"/>
<path d="M258.312 256.23C257.822 257.18 258.442 257.92 258.922 258.51C261.272 261.45 272.702 273.12 275.362 275.32C276.702 276.43 277.772 276.24 278.682 275.41C279.882 274.32 281.122 272.35 282.872 268.97C284.622 265.59 285.532 263.45 285.732 261.85C285.892 260.63 285.422 259.64 283.732 259.18C280.402 258.27 264.282 255.62 260.522 255.39C259.762 255.34 258.802 255.25 258.302 256.21L258.312 256.23Z" fill="#28646E"/>
<path d="M127.739 140.41C127.549 139.35 126.599 139.15 125.869 138.97C122.209 138.07 106.029 135.79 102.579 135.66C100.849 135.6 100.109 136.41 99.8887 137.66C99.5987 139.25 99.8287 141.57 100.499 145.31C101.169 149.05 101.749 151.31 102.569 152.71C103.199 153.77 104.169 154.27 105.769 153.62C108.969 152.31 123.359 144.62 126.479 142.48C127.109 142.05 127.929 141.54 127.739 140.48V140.41Z" fill="#28646E"/>
<path d="M196.502 350.02C199.722 350.02 202.332 347.41 202.332 344.19C202.332 340.97 199.722 338.36 196.502 338.36C193.282 338.36 190.672 340.97 190.672 344.19C190.672 347.41 193.282 350.02 196.502 350.02Z" fill="#28646E"/>
<path d="M196.502 53.64C199.722 53.64 202.332 51.0298 202.332 47.81C202.332 44.5902 199.722 41.98 196.502 41.98C193.282 41.98 190.672 44.5902 190.672 47.81C190.672 51.0298 193.282 53.64 196.502 53.64Z" fill="#28646E"/>
<path d="M234.861 344.97C238.081 344.97 240.691 342.36 240.691 339.14C240.691 335.92 238.081 333.31 234.861 333.31C231.641 333.31 229.031 335.92 229.031 339.14C229.031 342.36 231.641 344.97 234.861 344.97Z" fill="#28646E"/>
<path d="M158.15 58.69C161.37 58.69 163.98 56.0799 163.98 52.86C163.98 49.6402 161.37 47.03 158.15 47.03C154.93 47.03 152.32 49.6402 152.32 52.86C152.32 56.0799 154.93 58.69 158.15 58.69Z" fill="#28646E"/>
<path d="M270.6 330.17C273.819 330.17 276.43 327.56 276.43 324.34C276.43 321.12 273.819 318.51 270.6 318.51C267.38 318.51 264.77 321.12 264.77 324.34C264.77 327.56 267.38 330.17 270.6 330.17Z" fill="#28646E"/>
<path d="M122.408 73.49C125.628 73.49 128.238 70.8798 128.238 67.66C128.238 64.4401 125.628 61.83 122.408 61.83C119.188 61.83 116.578 64.4401 116.578 67.66C116.578 70.8798 119.188 73.49 122.408 73.49Z" fill="#28646E"/>
<path d="M301.291 306.62C304.511 306.62 307.121 304.01 307.121 300.79C307.121 297.57 304.511 294.96 301.291 294.96C298.071 294.96 295.461 297.57 295.461 300.79C295.461 304.01 298.071 306.62 301.291 306.62Z" fill="#28646E"/>
<path d="M91.7089 97.04C94.9287 97.04 97.5389 94.4298 97.5389 91.21C97.5389 87.9902 94.9287 85.38 91.7089 85.38C88.4891 85.38 85.8789 87.9902 85.8789 91.21C85.8789 94.4298 88.4891 97.04 91.7089 97.04Z" fill="#28646E"/>
<path d="M324.842 275.93C328.062 275.93 330.672 273.32 330.672 270.1C330.672 266.88 328.062 264.27 324.842 264.27C321.622 264.27 319.012 266.88 319.012 270.1C319.012 273.32 321.622 275.93 324.842 275.93Z" fill="#28646E"/>
<path d="M68.1581 127.73C71.3779 127.73 73.9881 125.12 73.9881 121.9C73.9881 118.68 71.3779 116.07 68.1581 116.07C64.9383 116.07 62.3281 118.68 62.3281 121.9C62.3281 125.12 64.9383 127.73 68.1581 127.73Z" fill="#28646E"/>
<path d="M339.639 240.18C342.858 240.18 345.469 237.57 345.469 234.35C345.469 231.13 342.858 228.52 339.639 228.52C336.419 228.52 333.809 231.13 333.809 234.35C333.809 237.57 336.419 240.18 339.639 240.18Z" fill="#28646E"/>
<path d="M53.3613 163.48C56.5811 163.48 59.1913 160.87 59.1913 157.65C59.1913 154.43 56.5811 151.82 53.3613 151.82C50.1414 151.82 47.5312 154.43 47.5312 157.65C47.5312 160.87 50.1414 163.48 53.3613 163.48Z" fill="#28646E"/>
<path d="M344.689 201.83C347.909 201.83 350.519 199.22 350.519 196C350.519 192.78 347.909 190.17 344.689 190.17C341.47 190.17 338.859 192.78 338.859 196C338.859 199.22 341.47 201.83 344.689 201.83Z" fill="#28646E"/>
<path d="M48.3105 201.83C51.5303 201.83 54.1405 199.22 54.1405 196C54.1405 192.78 51.5303 190.17 48.3105 190.17C45.0907 190.17 42.4805 192.78 42.4805 196C42.4805 199.22 45.0907 201.83 48.3105 201.83Z" fill="#28646E"/>
<path d="M339.639 163.48C342.858 163.48 345.469 160.87 345.469 157.65C345.469 154.43 342.858 151.82 339.639 151.82C336.419 151.82 333.809 154.43 333.809 157.65C333.809 160.87 336.419 163.48 339.639 163.48Z" fill="#28646E"/>
<path d="M53.3613 240.18C56.5811 240.18 59.1913 237.57 59.1913 234.35C59.1913 231.13 56.5811 228.52 53.3613 228.52C50.1414 228.52 47.5312 231.13 47.5312 234.35C47.5312 237.57 50.1414 240.18 53.3613 240.18Z" fill="#28646E"/>
<path d="M324.842 127.73C328.062 127.73 330.672 125.12 330.672 121.9C330.672 118.68 328.062 116.07 324.842 116.07C321.622 116.07 319.012 118.68 319.012 121.9C319.012 125.12 321.622 127.73 324.842 127.73Z" fill="#28646E"/>
<path d="M68.1581 275.93C71.3779 275.93 73.9881 273.32 73.9881 270.1C73.9881 266.88 71.3779 264.27 68.1581 264.27C64.9383 264.27 62.3281 266.88 62.3281 270.1C62.3281 273.32 64.9383 275.93 68.1581 275.93Z" fill="#28646E"/>
<path d="M301.291 97.04C304.511 97.04 307.121 94.4298 307.121 91.21C307.121 87.9902 304.511 85.38 301.291 85.38C298.071 85.38 295.461 87.9902 295.461 91.21C295.461 94.4298 298.071 97.04 301.291 97.04Z" fill="#28646E"/>
<path d="M91.7089 306.62C94.9287 306.62 97.5389 304.01 97.5389 300.79C97.5389 297.57 94.9287 294.96 91.7089 294.96C88.4891 294.96 85.8789 297.57 85.8789 300.79C85.8789 304.01 88.4891 306.62 91.7089 306.62Z" fill="#28646E"/>
<path d="M270.6 73.49C273.819 73.49 276.43 70.8798 276.43 67.66C276.43 64.4401 273.819 61.83 270.6 61.83C267.38 61.83 264.77 64.4401 264.77 67.66C264.77 70.8798 267.38 73.49 270.6 73.49Z" fill="#28646E"/>
<path d="M122.408 330.17C125.628 330.17 128.238 327.56 128.238 324.34C128.238 321.12 125.628 318.51 122.408 318.51C119.188 318.51 116.578 321.12 116.578 324.34C116.578 327.56 119.188 330.17 122.408 330.17Z" fill="#28646E"/>
<path d="M234.861 58.69C238.081 58.69 240.691 56.0799 240.691 52.86C240.691 49.6402 238.081 47.03 234.861 47.03C231.641 47.03 229.031 49.6402 229.031 52.86C229.031 56.0799 231.641 58.69 234.861 58.69Z" fill="#28646E"/>
<path d="M158.15 344.97C161.37 344.97 163.98 342.36 163.98 339.14C163.98 335.92 161.37 333.31 158.15 333.31C154.93 333.31 152.32 335.92 152.32 339.14C152.32 342.36 154.93 344.97 158.15 344.97Z" fill="#28646E"/>
<defs>
<linearGradient id="paint0_linear" x1="0.5" y1="196" x2="392.5" y2="196" gradientUnits="userSpaceOnUse">
<stop stop-color="#D2F0F0"/>
<stop offset="1" stop-color="#F0E6B4"/>
</linearGradient>
</defs>
</svg>
