<svg width="198" height="44" viewBox="0 0 198 44" fill="none" xmlns="http://www.w3.org/2000/svg">
<path d="M44.0292 30.5794H14.8086V14.7329H10.3131V32.7635C10.3131 33.9628 11.3268 34.9479 12.5608 34.9479H38.1674L32.8784 39.5734H4.49547V13.3625H10.269H14.7645H33.7159C34.289 13.3625 34.8179 13.1483 35.2145 12.8057L45.5275 3.81173C46.2327 3.21212 46.453 2.22707 46.1447 1.41333C45.7921 0.556765 44.9547 0 44.0292 0H12.5608C11.3268 0 10.3131 0.985053 10.3131 2.18424V7.62343H14.8086V4.36848H38.1674L32.8784 8.99398H14.8086H10.3131H2.24773C1.01368 8.99398 0 9.97897 0 11.1782V41.7577C0 42.9567 1.01368 43.9418 2.24773 43.9418H33.7159C34.289 43.9418 34.8179 43.7276 35.2145 43.3852L45.5275 34.3912C46.2327 33.7914 46.453 32.8066 46.1447 31.9926C45.7921 31.1361 44.9547 30.5794 44.0292 30.5794Z" fill="#FE4350"/>
<path d="M67.6745 9.8457C72.5965 9.8457 77.9283 12.4558 78.8656 18.5841C76.8147 18.5841 74.9403 18.5841 72.8894 18.5841C72.0106 16.2576 70.2526 15.1795 67.6745 15.1795C64.1013 15.1795 61.7574 17.7897 61.7574 21.5915C61.7574 24.9961 64.0422 27.9466 67.6745 28.0033C70.2526 28.0033 72.3623 26.7551 73.0064 24.2583C75.0573 24.2583 76.9322 24.2583 78.9825 24.2583C78.1037 30.7837 72.7725 33.3372 67.6745 33.3372C61.6402 33.3939 55.4883 29.4218 55.4883 21.5915C55.4883 13.7609 61.5814 9.8457 67.6745 9.8457Z" fill="white"/>
<path d="M80.7988 21.6479C80.7988 5.70329 105.23 5.70329 105.23 21.6479C105.172 37.6493 80.7988 37.6493 80.7988 21.6479ZM98.961 21.6479C98.961 13.3635 87.0089 13.3635 87.0089 21.6479C87.0089 30.0457 98.961 30.0457 98.961 21.6479Z" fill="white"/>
<path d="M128.785 10.0156H130.953V33.1666C128.902 33.1666 126.793 33.1666 124.743 33.1666V22.8963L119.704 28.0599H119.001L113.962 22.8963V33.1666C111.911 33.1666 109.802 33.1666 107.752 33.1666V10.0156H109.978L119.294 20.0024L128.785 10.0156Z" fill="white"/>
<path d="M143.902 33.1677H134.938V10.0732H143.902C159.428 10.1868 159.428 33.1109 143.902 33.1677ZM141.031 27.7769H143.902C151.46 27.7769 151.46 15.4639 143.902 15.4639H141.031V27.7769Z" fill="white"/>
<path d="M173.019 15.3504C169.503 15.3504 167.686 15.3504 164.231 15.3504V18.6414H172.316C172.316 20.4005 172.316 22.1595 172.316 23.8618H164.172C164.172 25.2236 164.172 26.5286 164.172 27.8906C167.686 27.8906 169.738 27.8906 173.312 27.8906C173.312 29.5926 173.312 31.4085 173.312 33.1109C167.746 33.1109 163.645 33.1109 158.137 33.1109C158.137 25.3938 158.137 17.6768 158.137 10.0732C163.645 10.0732 167.394 10.0732 173.019 10.0732C173.019 11.8323 173.019 13.5913 173.019 15.3504Z" fill="white"/>
<path d="M186.844 25.9045L182.275 33.1677H175.889V32.2599L183.564 20.9112L176.708 10.9811V10.0732H182.919L186.786 16.088H186.961L190.946 10.0732H197.039V10.9811L190.243 20.9112L197.977 32.2599V33.1677H191.591L187.02 25.9045H186.844Z" fill="white"/>
</svg>
