<svg width="1087" height="240" viewBox="0 0 1087 240" fill="none" xmlns="http://www.w3.org/2000/svg">
<path d="M620.768 198.94C624.419 198.935 628.112 198.93 631.86 198.93C631.158 197.837 630.588 196.917 630.08 196.098L630.078 196.094L630.077 196.092L630.076 196.09C629.48 195.128 628.969 194.304 628.43 193.5C624.954 188.285 621.486 183.069 618.017 177.853C607.705 162.344 597.397 146.84 586.92 131.41C585 128.61 585.02 126.81 586.92 124.04C600.43 104.34 613.79 84.5501 627.18 64.6901C627.708 63.9033 628.212 63.0924 628.773 62.189L628.776 62.1848L628.777 62.1827C629.235 61.4458 629.731 60.6472 630.31 59.7501C626.091 59.7501 621.935 59.7561 617.825 59.7622H617.822C606.124 59.7793 594.802 59.7958 583.48 59.67C580.21 59.64 578.11 60.5501 576.21 63.4301C569.724 73.3334 563.07 83.1166 556.415 92.9007L556.414 92.9021C554.482 95.7437 552.549 98.5854 550.62 101.43C549.995 102.36 549.307 103.253 548.621 104.144C548.362 104.479 548.104 104.814 547.85 105.15L546.76 104.84V0.0500488H504.32V198.55H547.04V150.46C548.545 151.466 549.803 152.799 550.72 154.36C552.844 157.556 554.965 160.755 557.086 163.954L557.088 163.957C564.045 174.45 571.005 184.946 578.07 195.36C579.13 196.92 581.22 198.77 582.86 198.77C595.342 198.973 607.781 198.957 620.752 198.94H620.768Z" fill="white"/>
<path fill-rule="evenodd" clip-rule="evenodd" d="M790.06 60.0299V198.83H747.65C747.583 197.824 747.516 196.867 747.446 195.865L747.446 195.859C747.369 194.761 747.289 193.607 747.2 192.27C727.14 203.99 706.2 207.05 684.2 200.18C669.129 195.572 655.971 186.178 646.72 173.42C637.309 160.631 632.234 145.168 632.234 129.29C632.234 113.412 637.309 97.9491 646.72 85.16C658.42 69.38 674.08 59.68 693.34 56.04C712.41 52.44 730.28 56.28 747.23 66.3C747.362 64.4303 747.464 62.9278 747.568 61.3862L747.57 61.3558L747.571 61.348L747.571 61.3433L747.66 60.0299H790.06ZM675.06 127.7C675.064 135.254 677.312 142.637 681.519 148.911C685.725 155.186 691.701 160.07 698.687 162.943C705.673 165.816 713.356 166.549 720.76 165.05C728.163 163.55 734.955 159.885 740.272 154.52C745.59 149.154 749.194 142.33 750.627 134.913C752.061 127.496 751.259 119.821 748.323 112.861C745.387 105.9 740.45 99.9687 734.138 95.8185C727.826 91.6684 720.424 89.4866 712.87 89.55C707.876 89.5484 702.93 90.5367 698.32 92.4576C693.71 94.3784 689.526 97.1939 686.01 100.741C682.495 104.289 679.717 108.497 677.837 113.125C675.958 117.752 675.014 122.706 675.06 127.7Z" fill="white"/>
<path fill-rule="evenodd" clip-rule="evenodd" d="M436.65 66.28L437.18 60.1301H479.36V198.86H437.36L436.61 192.42C414.52 205.04 391.71 207.52 368.12 198.15C353.608 192.423 341.333 182.164 333.12 168.9C324.691 155.536 320.744 139.831 321.854 124.07C322.964 108.308 329.072 93.3116 339.29 81.2601C351.29 67.1201 366.52 58.7 384.81 55.74C403.1 52.78 420.11 56.64 436.65 66.28ZM402.51 165.55C407.499 165.599 412.449 164.66 417.074 162.789C421.7 160.917 425.909 158.149 429.46 154.644C433.012 151.14 435.835 146.967 437.767 142.367C439.7 137.767 440.703 132.83 440.72 127.84C440.769 122.847 439.831 117.893 437.96 113.264C436.09 108.634 433.323 104.419 429.819 100.861C426.315 97.3037 422.143 94.473 417.543 92.5319C412.942 90.5908 408.003 89.5775 403.01 89.55C397.978 89.4784 392.982 90.4089 388.313 92.2874C383.644 94.1658 379.395 96.9546 375.815 100.491C372.234 104.028 369.393 108.242 367.458 112.887C365.522 117.533 364.53 122.517 364.54 127.55C364.522 132.543 365.491 137.49 367.392 142.107C369.293 146.724 372.089 150.919 375.618 154.451C379.147 157.983 383.34 160.782 387.955 162.687C392.571 164.591 397.517 165.565 402.51 165.55Z" fill="white"/>
<path d="M1007.43 198.55H964.94V0.0600586H1007.43V63.86C1008.43 63.2932 1009.18 62.8999 1009.82 62.5672L1009.82 62.5667L1009.82 62.5662C1010.3 62.3123 1010.72 62.0937 1011.13 61.86C1043.57 42.71 1083.83 63.09 1085.44 100.61C1086.4 122.944 1086.17 145.33 1085.94 167.717V167.72C1085.84 177.548 1085.74 187.376 1085.74 197.2C1085.64 197.646 1085.49 198.079 1085.29 198.49H1042.95V192.73C1042.95 183.103 1042.96 173.477 1042.96 163.85C1042.97 144.597 1042.98 125.343 1042.95 106.09C1042.95 93.28 1032.81 84.8701 1020.95 87.5701C1012.71 89.4601 1007.46 96.47 1007.42 106.1C1007.37 120.707 1007.38 135.313 1007.4 149.92C1007.41 157.223 1007.42 164.527 1007.42 171.83L1007.43 198.55Z" fill="white"/>
<path d="M900.09 102.34H943.31C943.08 86.91 936.29 75.31 924.07 66.96C906.04 54.64 885.64 52.99 864.69 55.32C853.734 56.5495 843.245 60.4428 834.14 66.66C811.67 81.8 805.19 115.83 835.54 134.05C845.95 140.3 857.43 143.55 869.07 146.39C878.24 148.65 887.35 151 896.35 154C898.31 154.64 900.68 157.86 900.6 159.86C900.51 162.15 898.43 165.23 896.34 166.39C892.808 168.23 888.979 169.435 885.03 169.95C868.42 172.48 857.6 167.15 852.53 154.48H810.81C811.08 166.87 816.29 177.84 825.74 186.48C848.66 207.47 894.37 210.91 922.74 193.62C936.68 185.13 944.76 172.98 943.97 156.24C943.22 140.15 934.23 129 920.04 122.9C912.086 119.472 903.619 117.211 895.164 114.953C892.224 114.168 889.285 113.383 886.37 112.55C883.387 111.697 880.357 110.985 877.33 110.273C872.441 109.123 867.559 107.975 862.89 106.24C856.69 103.92 856.18 96.39 861.69 92.81C864.594 90.8818 867.89 89.6215 871.34 89.12C888.37 87.02 897.21 91.22 900.09 102.34Z" fill="white"/>
<path fill-rule="evenodd" clip-rule="evenodd" d="M89.295 0L228.199 239.925L274.2 159.65L181.297 0H89.295Z" fill="white"/>
<path fill-rule="evenodd" clip-rule="evenodd" d="M89.295 164.159L137.1 239.925H232.709L184.904 164.159H89.295Z" fill="white" fill-opacity="0.4"/>
<path fill-rule="evenodd" clip-rule="evenodd" d="M47.8047 75.7667L0 157.846L47.8047 239.926L144.316 75.7667H47.8047Z" fill="white"/>
</svg>
