<svg width="28" height="28" viewBox="0 0 28 28" fill="none" xmlns="http://www.w3.org/2000/svg">
  <g clip-path="url(#clip0_606_152)">
  <path d="M23.898 4.10208C18.438 -1.37192 9.56196 -1.37192 4.10196 4.10208C-1.37204 9.57608 -1.37204 18.4381 4.10196 23.8981C9.57596 29.3721 18.438 29.3721 23.898 23.8981C29.372 18.4381 29.372 9.56208 23.898 4.10208ZM22.694 22.6941C17.892 27.4961 10.094 27.4961 5.29196 22.6941C0.48996 17.8921 0.48996 10.0941 5.29196 5.29208C10.094 0.490082 17.892 0.490082 22.694 5.29208C27.51 10.1081 27.51 17.8921 22.694 22.6941Z" fill="white"/>
  <path d="M22.6941 5.30609C17.8921 0.50409 10.0941 0.50409 5.29205 5.30609C0.490052 10.1081 0.490052 17.9061 5.29205 22.7081C10.0941 27.5101 17.8921 27.5101 22.6941 22.7081C27.5101 17.8921 27.5101 10.1081 22.6941 5.30609ZM8.82005 23.8981C7.95205 23.4361 7.15405 22.8481 6.45405 22.1761V5.83809C7.18205 5.13809 8.00805 4.55009 8.90405 4.07409L19.1801 19.7261V4.10209C20.0481 4.56409 20.8461 5.15209 21.5461 5.82409V22.1621C20.8181 22.8621 19.9921 23.4501 19.0961 23.9261L8.82005 8.27409V23.8981Z" fill="#141521"/>
  <path d="M21.5599 22.1621V5.83806C20.8459 5.16606 20.0479 4.57806 19.1939 4.11606V19.7261L8.88994 4.06006C7.99394 4.53606 7.16794 5.12406 6.43994 5.82406V22.1621C7.15394 22.8341 7.95194 23.4221 8.80594 23.8841V8.27406L19.1099 23.9401C20.0059 23.4641 20.8319 22.8621 21.5599 22.1621Z" fill="white"/>
  </g>
  <defs>
  <clipPath id="clip0_606_152">
  <rect width="28" height="28" fill="white"/>
  </clipPath>
  </defs>
  </svg>
  