<svg width="173" height="44" viewBox="0 0 173 44" fill="none" xmlns="http://www.w3.org/2000/svg">
  <path fill-rule="evenodd" clip-rule="evenodd" d="M19.2227 1.5242L1.49017 11.7621V32.2379L19.2227 42.4758L36.9554 32.2379V11.7621L19.2227 1.5242ZM38.2754 11L19.2227 0L0.170166 11V33L19.2227 44L38.2754 33V11Z" fill="white"/>
  <path fill-rule="evenodd" clip-rule="evenodd" d="M19.2151 14.11C17.8532 14.11 16.7454 13.0014 16.7454 11.6385C16.7454 10.2757 17.8532 9.16697 19.2151 9.16697C20.577 9.16697 21.6849 10.2757 21.6849 11.6385C21.6849 13.0014 20.577 14.11 19.2151 14.11ZM19.2151 10.5136C18.5952 10.5136 18.0911 11.0183 18.0911 11.6385C18.0911 12.2587 18.5952 12.7634 19.2151 12.7634C19.835 12.7634 20.3393 12.2587 20.3393 11.6385C20.3393 11.0183 19.835 10.5136 19.2151 10.5136Z" fill="white"/>
  <path d="M18.5788 14.5188C18.7909 14.5678 19.0118 14.5936 19.2387 14.5936C19.4656 14.5936 19.6865 14.5677 19.8988 14.5188V19.1418C19.6865 19.0929 19.4656 19.067 19.2387 19.067C19.0118 19.067 18.7909 19.0928 18.5788 19.1418V14.5188Z" fill="white"/>
  <path d="M17.0947 20.0004L13.0896 17.688C13.0259 17.8963 12.9378 18.1006 12.8244 18.297C12.7109 18.4935 12.5781 18.6719 12.4296 18.8311L16.4333 21.1427C16.5654 20.7115 16.7943 20.3222 17.0947 20.0004Z" fill="white"/>
  <path d="M16.4333 22.8578L12.4296 25.1696C12.5781 25.3289 12.711 25.5073 12.8244 25.7037C12.9379 25.9002 13.0259 26.1043 13.0896 26.3127L17.0947 24.0003C16.7943 23.6784 16.5654 23.2892 16.4333 22.8578Z" fill="white"/>
  <path d="M18.5788 24.8587V29.4818C18.791 29.4327 19.0119 29.407 19.2388 29.407C19.4657 29.407 19.6866 29.4327 19.8988 29.4818V24.8587C19.6865 24.9078 19.4656 24.9335 19.2387 24.9335C19.0118 24.9335 18.7909 24.9078 18.5788 24.8587Z" fill="white"/>
  <path d="M21.3827 24.0003L25.388 26.3127C25.4516 26.1043 25.5398 25.9 25.6531 25.7035C25.7666 25.507 25.8995 25.3286 26.048 25.1694L22.0442 22.8578C21.9121 23.2892 21.6832 23.6784 21.3827 24.0003Z" fill="white"/>
  <path d="M22.0442 21.1427L26.048 18.8311C25.8995 18.6718 25.7666 18.4934 25.6531 18.2969C25.5396 18.1004 25.4516 17.8962 25.388 17.688L21.3827 20.0004C21.6831 20.3222 21.9121 20.7115 22.0442 21.1427Z" fill="white"/>
  <path fill-rule="evenodd" clip-rule="evenodd" d="M12.3937 18.0756C11.7128 19.255 10.1988 19.6601 9.01849 18.9786C7.83827 18.2973 7.43202 16.7835 8.11294 15.6041C8.79389 14.4247 10.308 14.0195 11.4882 14.7009C12.6685 15.3823 13.0746 16.8962 12.3937 18.0756ZM9.27916 16.2774C8.96925 16.8142 9.15416 17.5032 9.69131 17.8133C10.2285 18.1234 10.9176 17.9391 11.2275 17.4023C11.5374 16.8654 11.3526 16.1764 10.8154 15.8663C10.2783 15.5561 9.5891 15.7406 9.27916 16.2774Z" fill="white"/>
  <path fill-rule="evenodd" clip-rule="evenodd" d="M12.4174 25.9659C13.0983 27.1453 12.6921 28.6589 11.5118 29.3405C10.3316 30.0218 8.81752 29.6168 8.13659 28.4374C7.45565 27.258 7.86186 25.7442 9.04207 25.0626C10.2223 24.3813 11.7364 24.7865 12.4174 25.9659ZM9.30281 27.764C9.61273 28.3008 10.3019 28.4851 10.839 28.1752C11.3761 27.865 11.5611 27.1759 11.2511 26.6391C10.9412 26.1023 10.252 25.918 9.7149 26.2279C9.17774 26.5381 8.99288 27.2272 9.30281 27.764Z" fill="white"/>
  <path fill-rule="evenodd" clip-rule="evenodd" d="M19.2624 29.8905C20.6242 29.8905 21.7321 30.9993 21.7321 32.362C21.7321 33.7249 20.6242 34.8335 19.2624 34.8335C17.9005 34.8335 16.7926 33.7249 16.7926 32.362C16.7926 30.9993 17.9005 29.8905 19.2624 29.8905ZM19.2624 33.4868C19.8822 33.4868 20.3864 32.9824 20.3864 32.362C20.3864 31.7418 19.8822 31.2371 19.2624 31.2371C18.6425 31.2371 18.1382 31.7418 18.1382 32.362C18.1382 32.9824 18.6425 33.4868 19.2624 33.4868Z" fill="white"/>
  <path fill-rule="evenodd" clip-rule="evenodd" d="M26.0839 25.9249C26.7648 24.7455 28.2788 24.3402 29.4591 25.0218C30.6392 25.7031 31.0455 27.217 30.3646 28.3964C29.6837 29.5758 28.1695 29.9808 26.9894 29.2995C25.8091 28.6181 25.403 27.1043 26.0839 25.9249ZM29.1984 27.7229C29.5084 27.1861 29.3234 26.4973 28.7861 26.1871C28.2491 25.8769 27.5598 26.0613 27.2501 26.5981C26.9401 27.1349 27.1249 27.8239 27.6621 28.1341C28.1992 28.4443 28.8884 28.2597 29.1984 27.7229Z" fill="white"/>
  <path fill-rule="evenodd" clip-rule="evenodd" d="M26.0601 18.0345C25.3792 16.8551 25.7853 15.3414 26.9656 14.6599C28.1459 13.9786 29.66 14.3836 30.3409 15.563C31.0218 16.7424 30.6156 18.2563 29.4356 18.9377C28.2553 19.6191 26.741 19.2139 26.0601 18.0345ZM29.1746 16.2363C28.8649 15.6995 28.1756 15.5152 27.6386 15.8253C27.1014 16.1354 26.9166 16.8244 27.2263 17.3612C27.5363 17.898 28.2256 18.0825 28.7626 17.7723C29.2998 17.4622 29.4846 16.7732 29.1746 16.2363Z" fill="white"/>
  <path fill-rule="evenodd" clip-rule="evenodd" d="M19.2151 20.8536C18.5952 20.8536 18.0911 21.3582 18.0911 21.9784C18.0911 22.5986 18.5952 23.1033 19.2151 23.1033C19.835 23.1033 20.3393 22.5986 20.3393 21.9784C20.3393 21.3582 19.835 20.8536 19.2151 20.8536ZM19.2151 24.4499C17.8533 24.4499 16.7454 23.3413 16.7454 21.9784C16.7454 20.6156 17.8533 19.5069 19.2151 19.5069C20.577 19.5069 21.6849 20.6156 21.6849 21.9784C21.6849 23.3413 20.577 24.4499 19.2151 24.4499Z" fill="white"/>
  <path d="M57.1861 28.5124C59.2131 28.5124 61.0795 27.6494 62.404 26.2647L60.6179 24.6191C59.7549 25.6024 58.5307 26.2246 57.1861 26.2246C54.6374 26.2246 52.49 24.017 52.49 21.3679C52.49 18.7389 54.6374 16.5313 57.1861 16.5313C58.5107 16.5313 59.7549 17.1534 60.6179 18.1368L62.404 16.4711C61.0795 15.1064 59.2131 14.2435 57.1861 14.2435C53.2727 14.2435 49.9413 17.4946 49.9413 21.3679C49.9413 25.2412 53.2727 28.5124 57.1861 28.5124Z" fill="white"/>
  <path d="M69.7952 28.5124C72.8456 28.5124 75.3342 26.064 75.3342 23.0737C75.3342 20.0835 72.8456 17.6552 69.7952 17.6552C66.7246 17.6552 64.216 20.0835 64.216 23.0737C64.216 26.064 66.7246 28.5124 69.7952 28.5124ZM69.7952 26.4252C68.0492 26.4252 66.6243 24.9201 66.6243 23.0737C66.6243 21.2274 68.0492 19.7423 69.7952 19.7423C71.5211 19.7423 72.9259 21.2274 72.9259 23.0737C72.9259 24.9201 71.5211 26.4252 69.7952 26.4252Z" fill="white"/>
  <path d="M80.8953 28.5124C83.3035 28.5124 84.9693 27.228 84.9693 25.2211C84.9693 23.0738 83.0627 22.4918 81.3167 22.0101C79.7313 21.5284 79.0891 21.3478 79.0891 20.6655C79.0891 19.943 79.8116 19.5216 80.7347 19.5216C81.678 19.5216 82.7617 19.9229 83.7451 20.5451L84.6883 18.8994C83.5644 18.1569 82.1395 17.6552 80.7347 17.6552C78.4067 17.6552 76.8213 18.9797 76.8213 20.9063C76.8213 22.7928 78.2462 23.4149 80.4939 24.017C81.7382 24.3381 82.7015 24.6191 82.7015 25.4419C82.7015 26.1644 82.0392 26.6259 80.9354 26.6259C79.7915 26.6259 78.487 26.1644 77.3832 25.3616L76.3396 26.9671C77.5839 27.9505 79.2898 28.5124 80.8953 28.5124Z" fill="white"/>
  <path d="M99.2667 17.6552C97.7214 17.6552 96.4772 18.3375 95.7748 19.4212C95.1125 18.3174 93.9686 17.6552 92.5838 17.6552C91.2793 17.6552 90.2358 18.2974 89.714 19.3008V17.896H87.2656V28.2716H89.714V21.9098C89.714 20.6454 90.6572 19.7423 91.9818 19.7423C93.1658 19.7423 94.0087 20.7056 94.0087 22.0703V28.2716H96.3768V21.9098C96.3768 20.6454 97.3201 19.7423 98.6446 19.7423C99.8487 19.7423 100.672 20.7056 100.672 22.0703V28.2716H103.06V21.6689C103.06 19.3209 101.434 17.6552 99.2667 17.6552Z" fill="white"/>
  <path d="M110.719 28.5124C113.769 28.5124 116.258 26.064 116.258 23.0737C116.258 20.0835 113.769 17.6552 110.719 17.6552C107.648 17.6552 105.139 20.0835 105.139 23.0737C105.139 26.064 107.648 28.5124 110.719 28.5124ZM110.719 26.4252C108.973 26.4252 107.548 24.9201 107.548 23.0737C107.548 21.2274 108.973 19.7423 110.719 19.7423C112.444 19.7423 113.849 21.2274 113.849 23.0737C113.849 24.9201 112.444 26.4252 110.719 26.4252Z" fill="white"/>
  <path d="M121.819 28.5124C124.227 28.5124 125.893 27.228 125.893 25.2211C125.893 23.0738 123.986 22.4918 122.24 22.0101C120.655 21.5284 120.012 21.3478 120.012 20.6655C120.012 19.943 120.735 19.5216 121.658 19.5216C122.601 19.5216 123.685 19.9229 124.668 20.5451L125.612 18.8994C124.488 18.1569 123.063 17.6552 121.658 17.6552C119.33 17.6552 117.745 18.9797 117.745 20.9063C117.745 22.7928 119.17 23.4149 121.417 24.017C122.662 24.3381 123.625 24.6191 123.625 25.4419C123.625 26.1644 122.963 26.6259 121.859 26.6259C120.715 26.6259 119.41 26.1644 118.307 25.3616L117.263 26.9671C118.507 27.9505 120.213 28.5124 121.819 28.5124Z" fill="white"/>
  <path d="M143.972 14.4843V20.1036H137.088V14.4843H134.58V28.2716H137.088V22.3914H143.972V28.2716H146.46V14.4843H143.972Z" fill="white"/>
  <path d="M156.56 17.896V24.1775C156.56 25.4419 155.456 26.4252 154.052 26.4252C152.767 26.4252 151.864 25.4419 151.864 24.017V17.896H149.496V24.4986C149.496 26.8668 151.081 28.5124 153.349 28.5124C154.734 28.5124 155.938 27.8702 156.56 26.9069V28.2716H159.029V17.896H156.56Z" fill="white"/>
  <path d="M168.001 17.6552C166.476 17.6552 165.212 18.3576 164.409 19.5216V14.2435H161.961V28.2716H164.409V26.646C165.212 27.81 166.476 28.5124 168.001 28.5124C170.751 28.5124 172.778 26.2647 172.778 23.0737C172.778 19.9029 170.751 17.6552 168.001 17.6552ZM167.339 26.4252C165.633 26.4252 164.409 25.0204 164.409 23.0737C164.409 21.1271 165.633 19.7423 167.339 19.7423C169.105 19.7423 170.35 21.1271 170.35 23.0737C170.35 25.0204 169.105 26.4252 167.339 26.4252Z" fill="white"/>
  </svg>
  