<svg width="26" height="24" viewBox="0 0 26 24" fill="none" xmlns="http://www.w3.org/2000/svg">
<path d="M25 4.17395L18 4.17395" stroke="#999999" stroke-width="2" stroke-linecap="round"/>
<path d="M12 4.17395L1 4.17395" stroke="#999999" stroke-width="2" stroke-linecap="round"/>
<path d="M25 12.5217L11 12.5217" stroke="#999999" stroke-width="2" stroke-linecap="round"/>
<path d="M4 12.5217L1 12.5217" stroke="#999999" stroke-width="2" stroke-linecap="round"/>
<path d="M16 19.826L1 19.826" stroke="#999999" stroke-width="2" stroke-linecap="round"/>
<path d="M25 19.826L23 19.826" stroke="#999999" stroke-width="2" stroke-linecap="round"/>
<path d="M7 15.6956C5.38283 15.6956 4 14.3151 4 12.5217C4 10.7283 5.38283 9.34778 7 9.34778C8.61717 9.34778 10 10.7283 10 12.5217C10 14.3151 8.61717 15.6956 7 15.6956Z" stroke="#999999" stroke-width="2"/>
<path d="M15 7.34783C13.3828 7.34783 12 5.96735 12 4.17391C12 2.38047 13.3828 1 15 1C16.6172 1 18 2.38047 18 4.17391C18 5.96735 16.6172 7.34783 15 7.34783Z" stroke="#999999" stroke-width="2"/>
<path d="M19 23C17.3828 23 16 21.6196 16 19.8261C16 18.0327 17.3828 16.6522 19 16.6522C20.6172 16.6522 22 18.0327 22 19.8261C22 21.6196 20.6172 23 19 23Z" stroke="#999999" stroke-width="2"/>
</svg>
