<svg xmlns="http://www.w3.org/2000/svg" xmlns:xlink="http://www.w3.org/1999/xlink" style="enable-background:new 0 0 24 24" id="home" x="0" y="0" version="1.1" viewBox="0 0 24 24" xml:space="preserve"><style type="text/css"/><g><g><path d="M12.4,18.1c-3.4,0-6.2-2.8-6.2-6.2c0-0.1,0-0.3,0-0.4c0.2-2.7,2.1-5,4.7-5.6c0.2,0,0.4-0.1,0.6-0.1l0.7-0.1l0.1,0 c0.5,0,1,0.3,1.4,0.7c0.4,0.4,0.5,0.9,0.5,1.5c0,0.7-0.4,1.3-1,1.6c-0.5,0.3-0.8,0.9-0.7,1.5c0.1,0.7,0.6,1.2,1.3,1.3 c0.4,0.1,0.8-0.1,1.2-0.3l0.2-0.1c0.5-0.4,1-0.5,1.5-0.5l0,0c0.5,0.1,1,0.3,1.3,0.8c0.4,0.5,0.5,1.2,0.3,1.9 C17.4,16.4,15,18.1,12.4,18.1z M12.2,7.6l-0.5,0c-0.1,0-0.2,0-0.3,0.1c-1.9,0.5-3.2,2-3.3,3.9c0,0.1,0,0.2,0,0.3 c0,2.4,2,4.3,4.3,4.3c1.9,0,3.5-1.2,4.1-2.9c0,0,0-0.1,0-0.1c0,0-0.1-0.1-0.1-0.1c0,0-0.1,0-0.1,0l-0.1,0.1 c-0.7,0.6-1.7,0.9-2.6,0.8c-1.5-0.2-2.7-1.4-2.9-2.9c-0.1-1.3,0.5-2.6,1.7-3.3c0.1,0,0.1-0.1,0.1-0.1C12.3,7.7,12.3,7.7,12.2,7.6 C12.3,7.6,12.2,7.6,12.2,7.6z"/></g><path d="M12,0C5.4,0,0,5.4,0,12s5.4,12,12,12s12-5.4,12-12S18.6,0,12,0z M22.2,12c0,5.6-4.6,10.2-10.2,10.2S1.8,17.6,1.8,12 S6.4,1.8,12,1.8S22.2,6.4,22.2,12z"/></g></svg>