<svg width="24" height="24" viewBox="0 0 24 24" fill="none" xmlns="http://www.w3.org/2000/svg">
<path fill-rule="evenodd" clip-rule="evenodd" d="M6.06877 5.62214C6.15645 5.03426 6.66127 4.59915 7.25565 4.59915H16.626C17.2152 4.59915 17.7173 5.02692 17.8108 5.60867L19.0473 13.2999H4.92378L6.06877 5.62214ZM3.06882 14.9373C3.06943 14.9026 3.0723 14.8676 3.07756 14.8323L4.48628 5.38614C4.69084 4.01442 5.86876 2.99915 7.25565 2.99915H16.626C18.0009 2.99915 19.1723 3.99729 19.3905 5.3547L20.8887 14.6733C20.891 14.688 20.893 14.7026 20.8945 14.7171C20.9309 14.9018 20.9488 15.0935 20.9488 15.2854V18.8417C20.9488 19.2728 20.8581 19.7028 20.6724 20.054C20.5057 20.3692 20.1378 20.8272 19.5219 20.8272H4.47575C3.85984 20.8272 3.49196 20.3692 3.32525 20.054C3.13951 19.7028 3.04883 19.2728 3.04883 18.8417V15.2854C3.04883 15.1688 3.05546 15.0522 3.06882 14.9373ZM4.64883 15.2854C4.64883 15.1207 4.67576 14.989 4.7064 14.8999H19.2913C19.3219 14.989 19.3488 15.1207 19.3488 15.2854V18.8417C19.3488 19.0064 19.3219 19.1381 19.2913 19.2272H4.7064C4.67576 19.1381 4.64883 19.0064 4.64883 18.8417V15.2854ZM5.03652 16.7245C5.03652 16.2827 5.3947 15.9245 5.83652 15.9245H11.931C12.3728 15.9245 12.731 16.2827 12.731 16.7245C12.731 17.1664 12.3728 17.5245 11.931 17.5245H5.83652C5.3947 17.5245 5.03652 17.1664 5.03652 16.7245ZM16.5018 15.9245C16.06 15.9245 15.7018 16.2827 15.7018 16.7245C15.7018 17.1664 16.06 17.5245 16.5018 17.5245H17.2636C17.7054 17.5245 18.0636 17.1664 18.0636 16.7245C18.0636 16.2827 17.7054 15.9245 17.2636 15.9245H16.5018Z" fill="#AFAFAF"/>
</svg>
