<svg xmlns="http://www.w3.org/2000/svg" xmlns:xlink="http://www.w3.org/1999/xlink" style="enable-background:new 0 0 16 16" id="Layer_1" x="0" y="0" version="1.1" viewBox="0 0 16 16" xml:space="preserve"><style type="text/css"/><g id="next-copy" transform="translate(-5 -2)"><path id="Symbol" d="M10.3,15.7c0.1,0,0.2-0.1,0.3-0.1l5.5-5.2c0.2-0.2,0.2-0.5,0.1-0.7c0,0,0,0,0,0l-5.5-5.2 c-0.1-0.1-0.2-0.1-0.3-0.1c-0.3,0-0.5,0.2-0.5,0.5c0,0,0,0,0,0c0,0.1,0,0.2,0.1,0.3l5.1,4.9l-5.1,4.9c-0.1,0.1-0.1,0.2-0.1,0.3 C9.8,15.5,10,15.7,10.3,15.7C10.2,15.7,10.3,15.7,10.3,15.7L10.3,15.7z"/></g></svg>