<svg width="17" height="16" viewBox="0 0 17 16" fill="none" xmlns="http://www.w3.org/2000/svg">
<mask id="mask0_1631_39800" style="mask-type:alpha" maskUnits="userSpaceOnUse" x="2" y="1" width="14" height="14">
<circle cx="8.70707" cy="8.00065" r="6.66667" fill="#D9D9D9"/>
</mask>
<g mask="url(#mask0_1631_39800)">
<path fill-rule="evenodd" clip-rule="evenodd" d="M5.73638 12.1055C6.55117 12.1432 7.16092 12.3724 7.77447 12.603C8.22913 12.7739 8.68589 12.9456 9.22969 13.0407C10.4016 12.9206 11.4552 12.4011 12.2521 11.6206C11.6306 11.8528 10.9851 12.0702 10.1011 12.068C9.13366 12.0656 8.45176 11.8093 7.77448 11.5547C7.07489 11.2918 6.38023 11.0307 5.38093 11.0532C5.13954 11.0586 4.91629 11.0788 4.70669 11.1104C5.00111 11.4886 5.34798 11.8239 5.73638 12.1055ZM3.70732 12.4106C3.48288 12.1564 3.27753 11.8849 3.09352 11.5983C3.04762 11.6171 3.00174 11.636 2.95581 11.6549C2.29467 11.9271 1.62048 12.2046 0.660771 12.2804C-0.763617 12.3929 -2.11002 12.1533 -3.1301 11.9717L-3.13012 11.9717C-3.53612 11.8994 -3.89044 11.8364 -4.1774 11.8084L-7.08519 17.0899C-6.89986 17.0932 -6.71022 17.0983 -6.51646 17.1052L-4.1774 12.8567C-3.89043 12.8847 -3.53612 12.9477 -3.13011 13.02C-2.11002 13.2016 -0.763618 13.4412 0.660771 13.3287C1.62048 13.2529 2.29467 12.9754 2.95581 12.7032C3.20338 12.6013 3.44911 12.5002 3.70732 12.4106ZM3.97366 9.81167C4.38491 9.68836 4.83682 9.601 5.38093 9.58876C6.38023 9.56627 7.07489 9.82736 7.77448 10.0903C8.45176 10.3449 9.13366 10.6012 10.1011 10.6036C11.0591 10.606 11.7371 10.3504 12.4079 10.0976C12.7499 9.96871 13.0901 9.84051 13.4645 9.74757C13.5986 9.38256 13.6919 8.99785 13.7388 8.59896C13.2812 8.69233 12.8804 8.84341 12.4769 8.99547C11.8061 9.24829 11.1281 9.50383 10.1701 9.50144C9.20267 9.49902 8.52076 9.24272 7.84348 8.98815C7.14389 8.72521 6.44924 8.46412 5.44994 8.4866C4.75381 8.50226 4.2086 8.64088 3.70638 8.82042C3.76222 9.16363 3.85253 9.49527 3.97366 9.81167ZM2.18974 9.41036C2.26166 9.74446 2.35862 10.0693 2.47856 10.3827C1.95809 10.5832 1.39239 10.7582 0.66077 10.816C-0.763618 10.9285 -2.11002 10.6889 -3.13011 10.5073C-3.53612 10.435 -3.89043 10.372 -4.1774 10.344L-7.89022 17.0877C-8.07774 17.0903 -8.25981 17.0952 -8.4362 17.1026L-4.10839 9.24183C-3.82142 9.26982 -3.46711 9.33289 -3.0611 9.40516L-3.06109 9.40516C-2.04101 9.58673 -0.694607 9.82639 0.729783 9.71384C1.29756 9.66898 1.7654 9.55353 2.18974 9.41036ZM2.12445 6.93918C1.73372 7.06293 1.30311 7.16073 0.791306 7.20117C-0.633083 7.31372 -1.97949 7.07406 -2.99957 6.89249C-3.40558 6.82022 -3.7599 6.75715 -4.04686 6.72916L-9.82906 17.2315C-9.41701 17.1661 -8.95077 17.124 -8.4362 17.1026L-9.89058 19.7442C-9.70556 19.7148 -9.5114 19.6881 -9.30855 19.6638L-9.95959 20.8463C-9.68392 20.8026 -9.38981 20.7573 -9.07859 20.7105L-9.95959 22.3107C-9.75883 22.2789 -9.54829 22.2462 -9.32848 22.2127L-9.95959 23.359C-7.75488 23.0091 -4.37052 22.5613 -0.492389 22.0482L-0.492348 22.0482C3.62142 21.5039 8.29078 20.886 12.6971 20.2335C14.7204 20.3275 16.7015 20.4012 18.5666 20.4315C24.3534 21.1879 29.3914 21.5618 31.9282 20.7666C39.0576 18.5319 25.9901 7.3236 24.3921 6.50495C23.5097 6.05287 22.7622 6.40581 21.9385 6.79474C21.2706 7.1101 20.5526 7.44911 19.672 7.40178C18.6944 7.34923 18.0083 7.02323 17.324 6.69803C16.6594 6.38223 15.9964 6.06719 15.0696 6.00411C14.2212 3.29759 11.6934 1.33398 8.70707 1.33398C5.38643 1.33398 2.63283 3.76178 2.12445 6.93918ZM3.95311 6.24425C4.66736 4.31172 6.52633 2.93398 8.70707 2.93398C10.8617 2.93398 12.7022 4.27893 13.4349 6.1751C13.1223 6.26272 12.8311 6.3725 12.5384 6.4828C11.8676 6.73562 11.1896 6.99116 10.2316 6.98876C9.26419 6.98635 8.58229 6.73005 7.90501 6.47548C7.20542 6.21254 6.51077 5.95145 5.51147 5.97393C4.89994 5.98769 4.40488 6.09633 3.95311 6.24425ZM15.3512 8.55281C15.3207 8.92483 15.2597 9.28821 15.1706 9.64042C15.979 9.73575 16.5855 10.024 17.1934 10.3129C17.8778 10.6381 18.5638 10.9641 19.5414 11.0166C20.4221 11.0639 21.1401 10.7249 21.808 10.4096C22.6317 10.0206 23.3791 9.6677 24.2616 10.1198C24.5722 10.2789 25.1431 10.4742 25.8088 10.7018C26.2791 10.8627 26.7968 11.0397 27.3036 11.2317C26.0212 10.1064 24.8066 9.26149 24.3306 9.01762C23.4482 8.56554 22.7007 8.91849 21.877 9.30741C21.2091 9.62277 20.4911 9.96179 19.6104 9.91445C18.6328 9.8619 17.9468 9.5359 17.2625 9.2107C16.6828 8.93527 16.1045 8.66043 15.3512 8.55281ZM14.6257 11.0719C14.4225 11.4627 14.1817 11.8308 13.9082 12.1715C14.1861 12.1296 14.4866 12.1104 14.8213 12.1251C15.8104 12.1683 16.501 12.4965 17.1934 12.8256C17.8778 13.1508 18.5638 13.4768 19.5414 13.5293C20.4221 13.5766 21.1401 13.2376 21.808 12.9223C22.6317 12.5333 23.3791 12.1804 24.2616 12.6325C24.5722 12.7916 25.1431 12.9868 25.8088 13.2145C26.7531 13.5375 27.8884 13.9258 28.7428 14.369C29.1071 14.1973 29.3846 14.0289 29.5865 13.8639C30.0391 14.2532 30.1916 14.6752 29.7997 15.1248C30.3817 15.8169 29.9386 16.6041 27.2117 17.4588C24.617 18.2721 20.0131 19.1122 14.8329 19.911C16.0997 20.0965 17.3497 20.2725 18.5666 20.4315C22.8717 20.5015 26.5588 20.3403 28.7199 19.6629C32.3261 18.5325 31.57 16.0315 29.7351 13.7297C29.6911 13.7742 29.6416 13.8189 29.5865 13.8639C28.8033 13.1904 27.1215 12.6152 25.8088 12.1662C25.1431 11.9385 24.5722 11.7433 24.2616 11.5842C23.3791 11.1321 22.6317 11.485 21.808 11.874C21.1401 12.1893 20.4221 12.5283 19.5414 12.481C18.5638 12.4285 17.8778 12.1024 17.1934 11.7773C16.501 11.4482 15.8104 11.12 14.8213 11.0768C14.7547 11.0738 14.6896 11.0723 14.6257 11.0719ZM-9.07859 20.7105C-8.87624 20.6801 -8.66666 20.6491 -8.45021 20.6175L-7.85644 19.539C-8.0622 19.5511 -8.26223 19.5648 -8.45625 19.5802L-9.07859 20.7105Z" fill="white"/>
</g>
</svg>
