<svg width="182" height="44" viewBox="0 0 182 44" fill="none" xmlns="http://www.w3.org/2000/svg">
<path d="M75.4954 31.246C75.5156 32.0957 75.3241 32.94 74.932 33.7287C74.5399 34.5174 73.9554 35.2343 73.2131 35.8369C71.7803 36.9838 69.8454 37.6285 67.8279 37.6312H67.5677C66.6921 37.6242 65.8223 37.5153 64.9852 37.3079C64.0702 37.1042 63.1895 36.8111 62.3626 36.435H62.2225V32.5877L62.6028 32.7817C63.4211 33.1977 64.2939 33.5392 65.2054 33.8001C65.9837 34.093 66.848 34.2043 67.7005 34.1215C68.5531 34.0386 69.36 33.7649 70.0301 33.3313C70.6821 32.7535 71.0335 31.9951 71.011 31.2137C71.011 29.9043 69.6897 28.3848 67.0071 26.6066L66.2664 26.1378C64.7999 25.2499 63.545 24.1545 62.5628 22.9048C61.8632 21.8459 61.5052 20.6618 61.5218 19.4617C61.4719 17.7669 62.2484 16.124 63.6839 14.887C64.3546 14.3055 65.1665 13.8418 66.0689 13.5247C66.9713 13.2077 67.9449 13.0441 68.929 13.0442H69.2093C71.0339 13.0337 72.8296 13.4129 74.4143 14.1434H74.5745V17.8452L74.134 17.6027C73.4628 17.2165 72.737 16.8964 71.9719 16.649C71.1766 16.3716 70.3021 16.2762 69.4442 16.3731C68.5862 16.4701 67.7777 16.7556 67.1072 17.1986C66.7454 17.4801 66.4674 17.8242 66.294 18.205C66.1206 18.5857 66.0564 18.9933 66.1062 19.397C66.1062 20.6741 67.4676 22.1936 70.2703 24.0526L70.8709 24.4243C72.3179 25.3101 73.5469 26.4066 74.4944 27.6574C75.1902 28.7684 75.5341 30.0014 75.4954 31.246Z" fill="#333333"/>
<path d="M97.3149 13.3193V37.3406H92.8305V25.6856H86.3042V37.3406H81.8398V13.3193H86.3042V22.2748H92.8305V13.3193H97.3149Z" fill="#333333"/>
<path d="M109.449 16.6008V23.1477H116.536V26.3807H109.449V33.9298H117.176V37.3406H104.984V13.3193H117.176V16.6008H109.449Z" fill="#333333"/>
<path d="M139.498 13.3193V37.3406H135.334L128.107 21.7898V37.3083H123.863V13.3193H127.927L135.214 28.7085V13.3193H139.498Z" fill="#333333"/>
<path d="M160.358 13.3193V16.6817H154.953V37.3406H150.449V16.6817H145.023V13.3193H160.358Z" fill="#333333"/>
<path d="M181.618 13.3193V30.8261C181.784 32.6827 181.069 34.5208 179.616 35.9666C177.892 37.031 175.781 37.6077 173.611 37.6077C171.44 37.6077 169.329 37.031 167.605 35.9666C166.149 34.5224 165.433 32.6831 165.603 30.8261V13.3193H170.007V31.1009C169.918 31.957 170.241 32.8078 170.908 33.4771C171.256 33.7315 171.664 33.9258 172.108 34.0481C172.552 34.1705 173.023 34.2182 173.49 34.1884C173.985 34.2254 174.484 34.1799 174.955 34.0548C175.427 33.9296 175.862 33.7275 176.233 33.461C176.863 32.784 177.169 31.9457 177.094 31.1009V13.3193H181.618Z" fill="#333333"/>
<path d="M29.2323 19.7356L29.3324 18.0221L22.7861 14.7406L16.3198 18.0221L16.56 21.4814H34.6576L33.5765 35.6905H12.0957L11.4951 27.7858H17.0405L17.3007 31.229H28.3515L28.7719 25.9592H11.355L10.5742 15.6459L22.7861 9.43848L35.078 15.6459L34.7577 19.7356H29.2323Z" fill="#E1AB4C"/>
<path d="M44.407 10.4736L24.3875 0.354289C23.9355 0.122872 23.4113 0 22.8761 0C22.3408 0 21.8166 0.122872 21.3646 0.354289L1.34519 10.4736C0.910905 10.7003 0.55827 11.0154 0.322796 11.3872C0.0873229 11.7589 -0.0226742 12.1742 0.00388423 12.5912L2.20602 41.8176C2.25169 42.4066 2.57274 42.9597 3.10422 43.3648C3.63569 43.7699 4.33791 43.997 5.0688 43.9999H40.7034C41.4306 44.0052 42.1326 43.7853 42.6651 43.3854C43.1976 42.9855 43.5201 42.436 43.5662 41.85L45.7683 12.5589C45.8005 12.1439 45.6906 11.7297 45.4504 11.3618C45.2103 10.994 44.8492 10.6866 44.407 10.4736ZM39.6624 39.5707C39.6469 39.8709 39.4882 40.1546 39.2195 40.3625C38.9509 40.5704 38.5931 40.6863 38.221 40.6861H7.45111C7.07842 40.6827 6.721 40.566 6.45013 40.3593C6.17926 40.1525 6.01485 39.871 5.98969 39.5707L4.02779 13.5935C4.01327 13.3805 4.06854 13.1683 4.18805 12.9781C4.30756 12.788 4.48706 12.6266 4.70845 12.5104L22.0253 3.73278C22.2628 3.61396 22.5366 3.55101 22.816 3.55101C23.0954 3.55101 23.3693 3.61396 23.6068 3.73278L40.9436 12.4942C41.1679 12.604 41.3503 12.7618 41.4704 12.9501C41.5905 13.1384 41.6438 13.3499 41.6243 13.5611L39.6624 39.5707Z" fill="#E1AB4C"/>
</svg>
