<svg width="28" height="28" viewBox="0 0 28 28" fill="none" xmlns="http://www.w3.org/2000/svg">
<circle cx="14" cy="14" r="14" fill="white"/>
<path d="M20.8846 16.8332H11.1345V11.5397H9.63453V17.5628C9.63453 17.9635 9.97276 18.2925 10.3845 18.2925H18.9286L17.1639 19.8377H7.69336V11.0819H9.61982H11.1198H17.4433C17.6345 11.0819 17.811 11.0104 17.9433 10.8959L21.3845 7.89148C21.6198 7.69117 21.6933 7.36212 21.5904 7.09029C21.4728 6.80415 21.1933 6.61816 20.8846 6.61816H10.3845C9.97276 6.61816 9.63453 6.94722 9.63453 7.34781V9.16478H11.1345V8.07746H18.9286L17.1639 9.62261H11.1345H9.63453H6.94336C6.53159 9.62261 6.19336 9.95164 6.19336 10.3522V20.5674C6.19336 20.9679 6.53159 21.297 6.94336 21.297H17.4433C17.6345 21.297 17.811 21.2254 17.9433 21.111L21.3845 18.1066C21.6198 17.9062 21.6933 17.5772 21.5904 17.3053C21.4728 17.0192 21.1933 16.8332 20.8846 16.8332Z" fill="#FE4350"/>
</svg>
