<svg width="28" height="29" viewBox="0 0 28 29" fill="none" xmlns="http://www.w3.org/2000/svg">
<g clip-path="url(#clip0_1402_148)">
<path d="M28 14.9097C28 7.17774 21.732 0.909729 14 0.909729C6.26801 0.909729 0 7.17774 0 14.9097C0 22.6417 6.26801 28.9097 14 28.9097C21.732 28.9097 28 22.6417 28 14.9097Z" fill="#FF4D00"/>
<path d="M7.93335 14.1183C7.93335 10.7409 10.6494 8.00306 14 8.00306C17.3505 8.00306 20.0667 10.7409 20.0667 14.1183V20.1303C20.0634 16.7826 17.3485 14.0697 14 14.0697C10.6495 14.0697 7.93336 16.7858 7.93336 20.1364L7.93335 14.1183Z" fill="white"/>
</g>
<defs>
<clipPath id="clip0_1402_148">
<rect width="28" height="28" fill="white" transform="translate(0 0.909729)"/>
</clipPath>
</defs>
</svg>
