<svg id="root" width="28" height="28" viewBox="0 0 28 28" fill="none" xmlns="http://www.w3.org/2000/svg"><g clip-path="url(#a-logo-desmos)"><circle cx="14" cy="14" r="14" fill="#F3725A"/><path fill-rule="evenodd" clip-rule="evenodd" d="M11.276 23.237c1.19 0 2.552-.302 3.934-.867a3.547 3.547 0 0 0 .246-.108l.017-.008.003-.001c.583-.145 1.19-.343 1.797-.594 3.898-1.604 5.545-4.167 5.784-6.052.287-2.306-1.177-4.511-3.018-6.166C19.164 8.42 18.08 7.525 17 6.836c-1.365-.877-2.764-1.478-3.994-1.755-1.226-.276-2.303-.234-3.009.2-.678.416-1.177 1.206-1.521 2.387-.503.585-.873 1.47-1.126 2.67-.255 1.213-.392 2.758-.419 4.66-.027 1.99.11 3.618.411 4.874.301 1.254.77 2.15 1.417 2.658.592.466 1.467.707 2.517.707Zm4.858-2.737c1.278-.526 2.315-1.157 3.143-1.833-.808 1.066-2.101 2.137-4.013 2.978a9.236 9.236 0 0 1-1.226.211 6.419 6.419 0 0 1-1.146.02c-.694-.056-1.265-.243-1.665-.556l-.047-.04c.315.057.656.087 1.02.087 1.19 0 2.552-.302 3.934-.867Zm4.208-4.264a2.889 2.889 0 0 1-.04.252c-.015.08-.034.161-.056.246-.841 1.14-2.24 2.294-4.358 3.169-1.087.448-2.141.714-3.07.797-.918.082-1.707-.013-2.29-.28-.62-1.201-.922-3.245-.88-6.124.026-1.816.155-3.293.388-4.445.227-1.126.552-1.932.97-2.44 1.304.095 3.018.736 4.717 1.828 1.234.793 2.477 1.86 3.367 3.071.89 1.213 1.422 2.562 1.252 3.926ZM16.077 8.7c-1.5-.963-3.042-1.594-4.356-1.827.148-.06.314-.104.5-.132.159-.024.332-.036.518-.036 1.372 0 3.261.682 5.06 1.837.611.39 1.223.851 1.794 1.366 1.135 1.333 1.872 2.89 1.678 4.46a4.173 4.173 0 0 1-.26 1.004c-.095-1.283-.687-2.514-1.53-3.61-.931-1.215-2.174-2.272-3.404-3.062Zm-7.015-.72c.111-.114.231-.21.356-.286.104-.064.22-.118.348-.16a2.37 2.37 0 0 1 .437-.1c-.372.617-.653 1.452-.849 2.517-.214 1.16-.33 2.6-.354 4.337-.031 2.126.128 3.838.476 5.126-.287-.496-.513-1.16-.674-1.993-.219-1.13-.318-2.56-.294-4.29.03-2.211.214-3.921.554-5.151ZM11.6 5.54c.978 0 2.226.35 3.517.974a8.833 8.833 0 0 0-1.654-.397c-.937-.123-1.751-.03-2.32.324a2.387 2.387 0 0 0-.42.332c-.487-.006-.925.06-1.295.204.256-.553.566-.93.92-1.146.304-.191.723-.291 1.252-.291ZM9.945 20.83l.031.02.086.05c.218.38.473.687.766.918.439.346 1.033.566 1.738.658a7.031 7.031 0 0 1-1.746.101c-.691-.056-1.26-.243-1.657-.554-.539-.425-.95-1.219-1.217-2.397-.267-1.175-.388-2.719-.362-4.627.027-1.866.162-3.372.407-4.537-.075.795-.119 1.68-.13 2.66-.03 1.99.106 3.618.408 4.874.302 1.254.772 2.15 1.42 2.658l.001.001c.063.047.128.092.195.136l.06.039Zm11.966-6.383a4.994 4.994 0 0 0-.124-1.834c.493.934.744 1.924.618 2.918-.175 1.39-1.25 3.248-3.71 4.705 1.178-1.06 1.859-2.208 2.148-3.228.637-.89.97-1.784 1.068-2.56Z" fill="#fff"/></g><defs><clipPath id="a-logo-desmos"><path fill="#fff" d="M0 0h28v28H0z"/></clipPath></defs></svg>