<svg id="root" width="28" height="28" viewBox="0 0 28 28" fill="none" xmlns="http://www.w3.org/2000/svg"><rect width="28" height="28" rx="14" fill="#fff"/><path d="m21.033 17.343-.044.046a2.74 2.74 0 0 1-.933.617h-.018c-.322.126-.665.19-1.01.191a3.273 3.273 0 0 1-1.465-.317h-.028l-.067-.035-.02-.01a2.465 2.465 0 0 1-1-.999l-.043-.076-.935 1.004s-.187.96-.27 1.43v.032l.022.023.014.015a5.024 5.024 0 0 0 3.71 1.635l.077.004.061.003a5.466 5.466 0 0 0 2.64-.684l.025-.013a5.442 5.442 0 0 0 1.21-.929l.044-.045-1.97-1.892ZM7.824 12.697v.018l.382 1.426.077-.122a2.766 2.766 0 0 1 1.747-1.149h.032c.25-.051.504-.071.759-.059.383.025.755.134 1.092.318l.027.016c.464.26.874.607 1.21 1.02l.053.07.895-1.26.286-1.331-.03-.023-.103-.089a5.532 5.532 0 0 0-2.037-1.193 4.624 4.624 0 0 0-1.257-.197h-.02a5.802 5.802 0 0 0-2.746.702l-.027.015-.378 1.69.038.148Z" fill="#3CC194"/><path d="M16.212 16.333v-.025c.005-.105-.018-.516-.023-.756l.005-.064a2.723 2.723 0 0 1 .59-1.751l.012-.017a2.743 2.743 0 0 1 2.144-1.042 2.97 2.97 0 0 1 .353.018h.02c.608.08 1.173.355 1.611.783l.045.046 1.895-1.91-.045-.045a5.58 5.58 0 0 0-3.549-1.564h-.02l-.359-.018a5.987 5.987 0 0 0-2.332.45 4.535 4.535 0 0 0-1.326.862l-.02.019h-.024v.012l-.015.013-.02.018c-.134.133-.26.274-.376.423v.011l-.305 1.335-1.01 1.394v.973a2.81 2.81 0 0 1-1.6 2.516l-.02.009a2.819 2.819 0 0 1-3.969-2.493l-.013-.908.003-.059-.496-1.947.42-1.808-.045-2.84L5 7l.105 6.28v.028l.036 2.236c0 .077.003.153.01.23a.29.29 0 0 0-.002.04 5.458 5.458 0 0 0 2.068 3.904l.019.015a5.6 5.6 0 0 0 3.511 1.211l.198-.004.042.003a5.122 5.122 0 0 0 3.447-1.344l.017-.015a5.48 5.48 0 0 0 .37-.393l.01-.014.295-1.568 1.084-1.244.002-.03Z" fill="#3CC194"/></svg>