<svg id="root" width="28" height="28" viewBox="0 0 28 28" fill="none" xmlns="http://www.w3.org/2000/svg"><path d="M14 28c7.732 0 14-6.268 14-14S21.732 0 14 0 0 6.268 0 14s6.268 14 14 14Z" fill="#fff"/><path d="M19.39 19.053a.572.572 0 0 1-.57.576h-1.252a.572.572 0 0 1-.569-.576v-7.27c0-.317.255-.575.569-.575h1.253c.314 0 .569.258.569.576v7.27Zm-2.838 1.588a.572.572 0 0 1-.57.575H14.73a.572.572 0 0 1-.57-.575V10.096c0-.318.256-.575.57-.575h1.252c.315 0 .57.257.57.575V20.64Zm-2.83-.815a.572.572 0 0 1-.57.576H11.9a.572.572 0 0 1-.57-.576v-8.862c0-.318.255-.575.57-.575h1.252c.315 0 .57.257.57.575v8.862ZM14 0a14.04 14.04 0 0 0-3.128.351c.011.046.02.093.02.142v17.286a.655.655 0 0 1-.652.658H8.974a.502.502 0 0 1-.499-.504v-16.8C3.491 3.276 0 8.23 0 14c0 7.732 6.268 14 14 14s14-6.268 14-14S21.732 0 14 0Z" fill="#FF1744"/></svg>