<svg id="root" width="28" height="28" viewBox="0 0 28 28" fill="none" xmlns="http://www.w3.org/2000/svg"><circle cx="14" cy="14" r="14" fill="#E2AB42"/><path fill-rule="evenodd" clip-rule="evenodd" d="m21.52 8.759.095.573c.075.533.11 1.07.103 1.608a14.86 14.86 0 0 1-.427 3.529 13.226 13.226 0 0 1-1.968 4.382c-1.06 1.526-2.595 3.027-4.83 4.233l-.274.147-.274-.148c-2.236-1.205-3.769-2.706-4.83-4.232a13.226 13.226 0 0 1-1.968-4.382 14.852 14.852 0 0 1-.427-3.528c-.005-.538.03-1.076.106-1.609l.095-.572a.36.36 0 1 0-.712-.118l-.095.573c-.081.572-.12 1.149-.113 1.726 0 1.247.15 2.49.448 3.701a13.954 13.954 0 0 0 2.077 4.622c1.12 1.611 2.744 3.196 5.081 4.454l.445.239a.357.357 0 0 0 .34 0l.444-.24c2.335-1.258 3.96-2.842 5.081-4.453a13.95 13.95 0 0 0 2.076-4.621c.297-1.211.448-2.454.448-3.701a11.427 11.427 0 0 0-.113-1.726l-.095-.573a.36.36 0 0 0-.71.117l-.003-.001Z" fill="#fff"/><path fill-rule="evenodd" clip-rule="evenodd" d="m8.88 8.369 5.34-1.631 5.458 1.666a.36.36 0 0 0 .21-.69l-5.564-1.698a.361.361 0 0 0-.21 0L8.672 7.677a.36.36 0 1 0 .21.69v.002Z" fill="#fff"/><path fill-rule="evenodd" clip-rule="evenodd" d="m6.245 8.864 7.653 14.939a.36.36 0 0 0 .636.006l4.668-8.73.007-.014 2.987-6.21a.359.359 0 0 0-.302-.517.36.36 0 0 0-.345.203l-2.982 6.205-4.338 8.118L6.884 8.537a.36.36 0 0 0-.64.327v.001Z" fill="#fff"/><path fill-rule="evenodd" clip-rule="evenodd" d="M9.908 15.518h8.512a.36.36 0 0 0 0-.719H9.908a.357.357 0 0 0-.345.218.36.36 0 0 0 .345.5Z" fill="#fff"/></svg>