<svg id="root" width="28" height="28" viewBox="0 0 28 28" fill="none" xmlns="http://www.w3.org/2000/svg"><g clip-path="url(#b-logo-cosmos)"><circle cx="14" cy="14" r="14" fill="#fff"/><path fill-rule="evenodd" clip-rule="evenodd" d="M13.994 5.956a8.065 8.065 0 1 1 0 16.13 8.065 8.065 0 0 1 0-16.13Z" fill="#E6E6E6"/><path fill-rule="evenodd" clip-rule="evenodd" d="M14.24 2.433c-.11-.102-.168-.104-.177-.104-.01 0-.067.002-.178.104-.114.105-.25.286-.397.565-.293.558-.574 1.4-.816 2.487-.272 1.223-.486 2.717-.622 4.39.655.317 1.328.661 2.012 1.03a52.23 52.23 0 0 1 2.013-1.03c-.135-1.673-.35-3.167-.622-4.39-.242-1.087-.522-1.93-.815-2.487-.147-.279-.283-.46-.397-.565Zm-.75 8.787a50.23 50.23 0 0 0-1.484-.758 50.108 50.108 0 0 0-.085 1.663 54.741 54.741 0 0 1 1.569-.905Zm-1.968-1.596c.393-4.587 1.382-7.842 2.54-7.842 1.159 0 2.148 3.255 2.541 7.841C20.774 7.67 24.09 6.9 24.668 7.902c.58 1.002-1.746 3.486-5.524 6.12 3.778 2.632 6.104 5.116 5.524 6.118-.579 1.003-3.894.232-8.065-1.721-.393 4.587-1.382 7.841-2.54 7.841-1.159 0-2.148-3.255-2.54-7.841-4.172 1.953-7.487 2.724-8.066 1.721-.58-1.002 1.746-3.486 5.524-6.119-3.778-2.633-6.104-5.117-5.524-6.12.579-1.002 3.894-.23 8.065 1.723ZM9.463 13.69c-1.381-.954-2.569-1.887-3.493-2.734-.82-.753-1.41-1.417-1.747-1.949-.169-.267-.258-.475-.291-.626-.033-.147-.006-.198-.002-.206.005-.008.035-.057.18-.102.147-.046.372-.073.688-.06.63.024 1.5.203 2.563.537 1.195.376 2.598.938 4.115 1.657a50.59 50.59 0 0 0-.113 2.256c-.663.408-1.298.818-1.9 1.227Zm0 .662c-1.381.954-2.569 1.887-3.493 2.734-.82.753-1.41 1.417-1.747 1.95-.169.266-.258.474-.291.625-.033.147-.006.198-.002.206.005.008.035.057.18.102.147.046.372.073.688.06.63-.024 1.5-.203 2.563-.537 1.195-.376 2.598-.937 4.115-1.657a50.96 50.96 0 0 1-.113-2.256 50.976 50.976 0 0 1-1.9-1.227Zm1.886.574a50.19 50.19 0 0 1-1.399-.905c.449-.301.916-.604 1.399-.905a56.386 56.386 0 0 0 0 1.81Zm.553.341a54.892 54.892 0 0 1 0-2.492 55.513 55.513 0 0 1 2.16-1.247 55.482 55.482 0 0 1 2.16 1.247 54.307 54.307 0 0 1 0 2.492 53.685 53.685 0 0 1-2.16 1.247 54.748 54.748 0 0 1-2.16-1.247Zm.02.65c.019.57.048 1.124.084 1.663.486-.237.98-.49 1.484-.757a55.666 55.666 0 0 1-1.569-.905Zm2.14 1.22c-.684.369-1.357.713-2.012 1.03.136 1.673.35 3.167.622 4.39.242 1.087.522 1.93.816 2.487.146.279.283.46.397.565.11.102.168.104.178.104.01 0 .066-.002.178-.104.114-.105.25-.286.397-.565.293-.558.573-1.4.815-2.487.272-1.223.487-2.717.622-4.39a50.81 50.81 0 0 1-2.013-1.03Zm2.587.699c1.517.719 2.92 1.28 4.115 1.656 1.063.334 1.933.513 2.563.538.315.012.54-.015.688-.061.145-.045.175-.094.18-.102.004-.008.031-.059-.002-.206-.034-.15-.122-.36-.29-.626-.337-.532-.927-1.196-1.748-1.949-.924-.847-2.112-1.78-3.494-2.733-.601.408-1.236.818-1.899 1.226-.022.777-.06 1.532-.113 2.257Zm2.012-4.146c1.382-.954 2.57-1.887 3.493-2.734.822-.753 1.412-1.417 1.748-1.949.169-.267.257-.475.291-.626.033-.147.006-.198.002-.206-.005-.008-.035-.057-.18-.102-.148-.046-.373-.073-.688-.06-.63.024-1.5.203-2.563.537-1.195.376-2.598.937-4.115 1.656.053.725.091 1.48.113 2.258a51 51 0 0 1 1.9 1.226Zm-1.884-.574c.483.302.95.604 1.397.905-.448.301-.914.603-1.397.905a57.534 57.534 0 0 0 0-1.81Zm-.573-.991a49.877 49.877 0 0 0-.085-1.663c-.485.238-.98.49-1.484.758a55.679 55.679 0 0 1 1.57.905Zm-.085 5.455c-.485-.237-.98-.49-1.484-.757a55.666 55.666 0 0 0 1.57-.906 49.87 49.87 0 0 1-.086 1.663Z" fill="#000"/><path fill-rule="evenodd" clip-rule="evenodd" d="M6.24 10.594a.86.86 0 1 1 0 1.721.86.86 0 0 1 0-1.721Zm13.678-2.949a.861.861 0 1 1 0 1.722.861.861 0 0 1 0-1.722ZM12.329 21.16a.86.86 0 1 1 0 1.722.86.86 0 0 1 0-1.722Zm1.686-8.603a1.458 1.458 0 1 1 0 2.916 1.458 1.458 0 0 1 0-2.916Z" fill="#000"/></g><defs><clipPath id="b-logo-cosmos"><path fill="#fff" d="M0 0h28v28H0z"/></clipPath></defs></svg>