<svg id="root" width="28" height="28" viewBox="0 0 28 28" fill="none" xmlns="http://www.w3.org/2000/svg"><g clip-path="url(#a-logo-cosmos)"><path d="M14 28c7.732 0 14-6.268 14-14S21.732 0 14 0 0 6.268 0 14s6.268 14 14 14Z" fill="#2E3148"/><path d="M14 22.123a8.123 8.123 0 1 0 0-16.246 8.123 8.123 0 0 0 0 16.247Z" fill="#1B1E36"/><path d="M14.029 1.786c-1.511 0-2.737 5.481-2.737 12.243 0 6.762 1.226 12.243 2.737 12.243 1.511 0 2.736-5.481 2.736-12.243 0-6.762-1.225-12.243-2.736-12.243Zm.189 23.795c-.173.23-.346.058-.346.058-.696-.807-1.044-2.305-1.044-2.305-1.217-3.918-.927-12.33-.927-12.33.572-6.677 1.612-8.255 1.967-8.605a.216.216 0 0 1 .277-.022c.514.364.944 1.887.944 1.887 1.273 4.724 1.158 9.16 1.158 9.16.115 3.86-.638 8.181-.638 8.181-.58 3.284-1.391 3.976-1.391 3.976Z" fill="#6F7390"/><path d="M24.648 7.936c-.752-1.311-6.116.354-11.984 3.719C6.796 15.019 2.657 18.81 3.41 20.12c.752 1.31 6.116-.354 11.984-3.718 5.868-3.365 10.007-7.156 9.255-8.467ZM4.103 19.941c-.288-.036-.223-.273-.223-.273.354-1.005 1.478-2.052 1.478-2.052 2.794-3.006 10.235-6.94 10.235-6.94 6.076-2.827 7.963-2.708 8.442-2.576a.216.216 0 0 1 .157.23c-.058.627-1.167 1.759-1.167 1.759-3.462 3.456-7.367 5.564-7.367 5.564-3.291 2.021-7.414 3.518-7.414 3.518-3.137 1.13-4.14.77-4.14.77Z" fill="#6F7390"/><path d="M24.621 20.165c.759-1.308-3.37-5.116-9.217-8.506-5.847-3.39-11.21-5.076-11.968-3.766-.757 1.31 3.37 5.116 9.221 8.506 5.85 3.39 11.207 5.076 11.964 3.765ZM3.94 8.398c-.113-.265.124-.33.124-.33 1.047-.197 2.517.254 2.517.254 4 .91 11.133 5.378 11.133 5.378 5.491 3.843 6.334 5.536 6.46 6.016a.216.216 0 0 1-.12.252c-.573.262-2.106-.129-2.106-.129-4.727-1.267-8.508-3.59-8.508-3.59-3.397-1.832-6.756-4.65-6.756-4.65C4.131 9.448 3.94 8.4 3.94 8.4v-.003Z" fill="#6F7390"/><path d="M14 15.44a1.44 1.44 0 1 0 0-2.88 1.44 1.44 0 0 0 0 2.88Zm5.905-6.107c.462 0 .836-.387.836-.864s-.374-.864-.836-.864c-.461 0-.835.387-.835.864s.374.864.835.864ZM6.193 12.272c.462 0 .836-.387.836-.865 0-.477-.374-.864-.836-.864-.461 0-.835.387-.835.864 0 .478.374.865.835.865Zm6.107 10.6c.462 0 .836-.387.836-.864s-.374-.864-.836-.864c-.461 0-.835.387-.835.864s.374.864.835.864Z" fill="#B7B9C8"/></g><defs><clipPath id="a-logo-cosmos"><path fill="#fff" d="M0 0h28v28H0z"/></clipPath></defs></svg>