<svg id="root" width="28" height="28" viewBox="0 0 28 28" fill="none" xmlns="http://www.w3.org/2000/svg"><g clip-path="url(#a-logo-cosmosHub)"><circle cx="14" cy="14" r="14" fill="#fff"/><path fill-rule="evenodd" clip-rule="evenodd" d="M13.908 7.852a1.927 1.927 0 0 1-1.924-1.926c0-1.062.863-1.926 1.924-1.926 1.062 0 1.925.864 1.925 1.926a1.927 1.927 0 0 1-1.925 1.926Zm0-2.803a.877.877 0 0 0 0 1.753.877.877 0 0 0 0-1.753Z" fill="url(#b-logo-cosmosHub)"/><path d="M13.412 8.17a2.286 2.286 0 0 0 1.029 0v3.603a2.282 2.282 0 0 0-1.029 0V8.17Z" fill="url(#c-logo-cosmosHub)"/><path d="m12.256 12.442-3.12-1.802a2.29 2.29 0 0 1-.515.89l3.12 1.802c.103-.336.281-.64.515-.89Z" fill="url(#d-logo-cosmosHub)"/><path d="M11.74 14.668 8.62 16.47a2.283 2.283 0 0 1 .515.89l3.121-1.801a2.287 2.287 0 0 1-.515-.89Z" fill="url(#e-logo-cosmosHub)"/><path d="M13.412 16.227v3.603a2.283 2.283 0 0 1 1.029 0v-3.603a2.282 2.282 0 0 1-1.029 0Z" fill="url(#f-logo-cosmosHub)"/><path d="m15.597 15.558 3.121 1.802a2.288 2.288 0 0 1 .515-.89l-3.12-1.802c-.103.336-.281.64-.516.89Z" fill="url(#g-logo-cosmosHub)"/><path d="m16.113 13.332 3.12-1.802a2.285 2.285 0 0 1-.515-.89l-3.12 1.802c.233.25.412.554.515.89Z" fill="url(#h-logo-cosmosHub)"/><path fill-rule="evenodd" clip-rule="evenodd" d="M8.593 10.942a1.927 1.927 0 0 1-2.63.704 1.927 1.927 0 0 1-.706-2.63 1.927 1.927 0 0 1 2.63-.704c.92.531 1.237 1.71.706 2.63ZM6.166 9.54a.877.877 0 0 0 1.518.876.877.877 0 0 0-1.518-.876Z" fill="url(#i-logo-cosmosHub)"/><path fill-rule="evenodd" clip-rule="evenodd" d="M8.611 17.09c.531.92.214 2.099-.705 2.63-.92.53-2.1.215-2.63-.704a1.927 1.927 0 0 1 .705-2.63c.92-.53 2.1-.215 2.63.704Zm-2.427 1.401a.877.877 0 0 0 1.519-.876.877.877 0 0 0-1.519.876Z" fill="url(#j-logo-cosmosHub)"/><path fill-rule="evenodd" clip-rule="evenodd" d="M13.945 20.148c1.061 0 1.925.864 1.925 1.926A1.927 1.927 0 0 1 13.945 24a1.927 1.927 0 0 1-1.924-1.926c0-1.062.863-1.926 1.924-1.926Zm0 2.803a.877.877 0 0 0 0-1.753.877.877 0 0 0 0 1.753Z" fill="url(#k-logo-cosmosHub)"/><path fill-rule="evenodd" clip-rule="evenodd" d="M19.26 17.058a1.927 1.927 0 0 1 2.63-.703c.92.53 1.237 1.71.706 2.63a1.927 1.927 0 0 1-2.63.703 1.927 1.927 0 0 1-.705-2.63Zm2.428 1.401a.877.877 0 0 0-1.519-.876.877.877 0 0 0 1.519.876Z" fill="url(#l-logo-cosmosHub)"/><path fill-rule="evenodd" clip-rule="evenodd" d="M19.242 10.91a1.927 1.927 0 0 1 .706-2.63c.92-.53 2.1-.215 2.63.704a1.927 1.927 0 0 1-3.336 1.926Zm2.427-1.401a.877.877 0 0 0-1.518.876.877.877 0 0 0 1.518-.876Z" fill="url(#m-logo-cosmosHub)"/><path fill-rule="evenodd" clip-rule="evenodd" d="M13.908 13.107a.877.877 0 0 0 0 1.753.877.877 0 0 0 0-1.753Zm0 2.802a1.927 1.927 0 0 1-1.924-1.926c0-1.062.863-1.926 1.924-1.926 1.062 0 1.925.864 1.925 1.926a1.927 1.927 0 0 1-1.925 1.926Z" fill="url(#n-logo-cosmosHub)"/></g><defs><linearGradient id="b-logo-cosmosHub" x1="13.914" y1="4" x2="13.927" y2="24" gradientUnits="userSpaceOnUse"><stop offset=".048" stop-color="#C01AEA"/><stop offset="1" stop-color="#4251FA"/></linearGradient><linearGradient id="c-logo-cosmosHub" x1="13.914" y1="4" x2="13.927" y2="24" gradientUnits="userSpaceOnUse"><stop offset=".048" stop-color="#C01AEA"/><stop offset="1" stop-color="#4251FA"/></linearGradient><linearGradient id="d-logo-cosmosHub" x1="13.914" y1="4" x2="13.927" y2="24" gradientUnits="userSpaceOnUse"><stop offset=".048" stop-color="#C01AEA"/><stop offset="1" stop-color="#4251FA"/></linearGradient><linearGradient id="e-logo-cosmosHub" x1="13.914" y1="4" x2="13.927" y2="24" gradientUnits="userSpaceOnUse"><stop offset=".048" stop-color="#C01AEA"/><stop offset="1" stop-color="#4251FA"/></linearGradient><linearGradient id="f-logo-cosmosHub" x1="13.914" y1="4" x2="13.927" y2="24" gradientUnits="userSpaceOnUse"><stop offset=".048" stop-color="#C01AEA"/><stop offset="1" stop-color="#4251FA"/></linearGradient><linearGradient id="g-logo-cosmosHub" x1="13.914" y1="4" x2="13.927" y2="24" gradientUnits="userSpaceOnUse"><stop offset=".048" stop-color="#C01AEA"/><stop offset="1" stop-color="#4251FA"/></linearGradient><linearGradient id="h-logo-cosmosHub" x1="13.914" y1="4" x2="13.927" y2="24" gradientUnits="userSpaceOnUse"><stop offset=".048" stop-color="#C01AEA"/><stop offset="1" stop-color="#4251FA"/></linearGradient><linearGradient id="i-logo-cosmosHub" x1="13.914" y1="4" x2="13.927" y2="24" gradientUnits="userSpaceOnUse"><stop offset=".048" stop-color="#C01AEA"/><stop offset="1" stop-color="#4251FA"/></linearGradient><linearGradient id="j-logo-cosmosHub" x1="13.914" y1="4" x2="13.927" y2="24" gradientUnits="userSpaceOnUse"><stop offset=".048" stop-color="#C01AEA"/><stop offset="1" stop-color="#4251FA"/></linearGradient><linearGradient id="k-logo-cosmosHub" x1="13.914" y1="4" x2="13.927" y2="24" gradientUnits="userSpaceOnUse"><stop offset=".048" stop-color="#C01AEA"/><stop offset="1" stop-color="#4251FA"/></linearGradient><linearGradient id="l-logo-cosmosHub" x1="13.914" y1="4" x2="13.927" y2="24" gradientUnits="userSpaceOnUse"><stop offset=".048" stop-color="#C01AEA"/><stop offset="1" stop-color="#4251FA"/></linearGradient><linearGradient id="m-logo-cosmosHub" x1="13.914" y1="4" x2="13.927" y2="24" gradientUnits="userSpaceOnUse"><stop offset=".048" stop-color="#C01AEA"/><stop offset="1" stop-color="#4251FA"/></linearGradient><linearGradient id="n-logo-cosmosHub" x1="13.914" y1="4" x2="13.927" y2="24" gradientUnits="userSpaceOnUse"><stop offset=".048" stop-color="#C01AEA"/><stop offset="1" stop-color="#4251FA"/></linearGradient><clipPath id="a-logo-cosmosHub"><path fill="#fff" d="M0 0h28v28H0z"/></clipPath></defs></svg>