<svg id="root" width="28" height="28" viewBox="0 0 28 28" xmlns="http://www.w3.org/2000/svg"><circle cx="14" cy="14" r="14" fill="#1A46C2"/><path fill-rule="evenodd" clip-rule="evenodd" d="M10.905 9.058c.931-.616 1.958-.904 3.095-.917a5.6 5.6 0 0 1 3.095.917l1.971-1.972C17.52 5.91 15.848 5.32 14 5.32c-1.849 0-3.547.589-5.053 1.766l1.958 1.972Zm8.353-.26c-.068-.068-.11-.137-.11-.233s.042-.164.11-.233a.393.393 0 0 1 .507 0c.068.069.11.137.11.233s-.042.165-.11.233a.427.427 0 0 1-.247.096.276.276 0 0 1-.26-.096Zm-.876.945a.357.357 0 0 1-.096-.233c0-.096.04-.164.096-.233a.34.34 0 0 1 .465 0 .357.357 0 0 1 .096.233.357.357 0 0 1-.096.233.357.357 0 0 1-.233.096.357.357 0 0 1-.232-.096Zm-1.055.67a.33.33 0 0 0 .096.234.33.33 0 0 0 .233.095.3.3 0 0 0 .233-.095.357.357 0 0 0 .096-.233.33.33 0 0 0-.096-.233.34.34 0 0 0-.466 0 .357.357 0 0 0-.096.233Zm-.821 1.151a.292.292 0 0 1-.11-.233c0-.096.041-.164.11-.233a.393.393 0 0 1 .506 0c.069.055.11.137.11.233a.293.293 0 0 1-.11.233.352.352 0 0 1-.246.096c-.096 0-.178-.014-.26-.096Zm-.973.685c0 .095.028.178.096.232a.23.23 0 0 0 .233.096c.096 0 .178-.027.233-.096a.33.33 0 0 0 .096-.232c0-.096-.028-.178-.096-.233a.34.34 0 0 0-.466 0 .357.357 0 0 0-.095.233Zm-.958.917c0-.096.041-.164.096-.233a.34.34 0 0 1 .465 0 .3.3 0 0 1 .096.233.357.357 0 0 1-.096.233.33.33 0 0 1-.232.096.358.358 0 0 1-.233-.096c-.069-.055-.096-.137-.096-.233Zm-1.807 1.794a.33.33 0 0 0 .095.233c.069.082.151.11.233.096.096 0 .178-.028.233-.096a.357.357 0 0 0 .096-.233.3.3 0 0 0-.096-.233.34.34 0 0 0-.466 0 .357.357 0 0 0-.095.233Zm-.85 1.15a.293.293 0 0 1-.109-.233c0-.096.041-.164.11-.232a.393.393 0 0 1 .506 0c.069.068.11.136.11.232s-.041.165-.11.233a.351.351 0 0 1-.246.096.298.298 0 0 1-.26-.096Zm-.985.698a.33.33 0 0 0 .095.233l.016.01c.074.05.127.086.217.086a.3.3 0 0 0 .233-.096.357.357 0 0 0 .096-.233.33.33 0 0 0-.096-.232.34.34 0 0 0-.466 0 .33.33 0 0 0-.095.232Zm-.822 1.15c-.068-.054-.096-.136-.096-.232s.041-.164.096-.233a.34.34 0 0 1 .466 0 .357.357 0 0 1 .095.233.33.33 0 0 1-.095.233.3.3 0 0 1-.233.096c-.082 0-.178-.028-.233-.096Zm-1.054.685c0 .096.04.178.11.233.054.069.136.096.232.096a.426.426 0 0 0 .246-.096.292.292 0 0 0 .11-.233c0-.096-.041-.164-.11-.233-.123-.123-.342-.123-.479 0-.068.069-.11.137-.11.233Zm-.795 1.15a.3.3 0 0 1-.095-.232c0-.096.04-.165.095-.233a.34.34 0 0 1 .466 0 .3.3 0 0 1 .096.233.357.357 0 0 1-.096.233.33.33 0 0 1-.233.095c-.068.014-.15-.027-.233-.095Zm.562-11.228a.357.357 0 0 1-.096.233c-.055.082-.137.11-.233.096a.33.33 0 0 1-.233-.096.357.357 0 0 1-.095-.233.3.3 0 0 1 .095-.233.34.34 0 0 1 .466 0 .357.357 0 0 1 .096.233Zm.821 1.178c.069-.069.11-.137.11-.233s-.041-.164-.11-.233a.393.393 0 0 0-.506 0c-.069.069-.11.137-.11.233s.041.164.11.233a.426.426 0 0 0 .246.096.542.542 0 0 0 .26-.096Zm1.027.67a.33.33 0 0 1-.095.234.389.389 0 0 1-.233.095.3.3 0 0 1-.233-.095.358.358 0 0 1-.096-.233.33.33 0 0 1 .096-.233.34.34 0 0 1 .466 0 .357.357 0 0 1 .095.233Zm.822 1.151a.33.33 0 0 0 .096-.233.357.357 0 0 0-.096-.233.34.34 0 0 0-.466 0 .33.33 0 0 0 0 .466.3.3 0 0 0 .233.096c.082 0 .165-.014.233-.096Zm1.013.685a.292.292 0 0 1-.11.232.232.232 0 0 1-.232.096.351.351 0 0 1-.246-.096.293.293 0 0 1-.11-.232c0-.096.041-.178.11-.233a.357.357 0 0 1 .479 0c.068.068.11.137.11.233Zm.918.917a.357.357 0 0 0-.096-.233.34.34 0 0 0-.466 0 .3.3 0 0 0-.095.233c0 .096.04.164.095.233a.33.33 0 0 0 .233.096.357.357 0 0 0 .233-.096c.068-.055.096-.137.096-.233Zm.917.931a.3.3 0 0 1-.096.233.33.33 0 0 1-.465 0 .357.357 0 0 1-.096-.233.3.3 0 0 1 .096-.233.34.34 0 0 1 .465 0 .358.358 0 0 1 .096.233Zm.822 1.096a.292.292 0 0 0 .11-.233c0-.096-.042-.164-.11-.233-.137-.123-.356-.123-.48 0-.068.069-.109.137-.109.233s.041.164.11.233a.352.352 0 0 0 .246.096.253.253 0 0 0 .233-.096Zm1.027.684a.33.33 0 0 1-.096.233c-.069.069-.164.11-.233.096a.3.3 0 0 1-.233-.096.357.357 0 0 1-.095-.233c0-.096.04-.164.095-.232a.34.34 0 0 1 .466 0 .357.357 0 0 1 .096.232Zm.821 1.164a.33.33 0 0 0 0-.465.34.34 0 0 0-.465 0 .33.33 0 0 0-.096.232c0 .096.041.165.096.233a.3.3 0 0 0 .233.096.357.357 0 0 0 .232-.096Zm.959.685c0 .096-.027.178-.096.233-.055.068-.15.096-.233.096a.3.3 0 0 1-.232-.096.33.33 0 0 1-.096-.233c0-.096.04-.164.096-.233a.34.34 0 0 1 .465 0 .357.357 0 0 1 .096.233Zm.876 1.15c.069-.055.096-.137.096-.233a.357.357 0 0 0-.096-.233.34.34 0 0 0-.465 0 .3.3 0 0 0-.096.233.33.33 0 0 0 .329.329c.095 0 .177-.027.232-.096Zm1.027.685c0 .096-.04.164-.11.233-.081.068-.164.11-.232.095a.426.426 0 0 1-.247-.095c-.068-.069-.11-.137-.11-.233s.042-.165.11-.233c.124-.123.343-.123.48 0 .068.068.11.137.11.233ZM8.002 14.084c0 1.095.302 2.108.931 3.067L6.99 19.15c-1.164-1.534-1.739-3.218-1.739-5.053 0-1.862.575-3.533 1.725-5.039l1.958 1.958a5.356 5.356 0 0 0-.93 3.068Zm9.079 5.025a5.502 5.502 0 0 1-3.067.972c-1.137 0-2.178-.301-3.109-.958L8.933 21.08c1.52 1.191 3.218 1.78 5.08 1.766 1.85-.014 3.52-.616 5.026-1.766l-1.958-1.972Zm2.862-4.998c.027-1.123-.302-2.164-.931-3.122l1.971-2c1.192 1.52 1.78 3.219 1.767 5.08 0 1.836-.603 3.506-1.767 5.012l-1.971-1.958a5.503 5.503 0 0 0 .93-3.012Zm1.122 5.614c.754 0 1.383.616 1.383 1.383 0 .753-.616 1.383-1.383 1.383a1.388 1.388 0 0 1-1.383-1.383 1.38 1.38 0 0 1 1.384-1.383ZM8.332 21.108c0-.767-.616-1.383-1.37-1.383-.752 0-1.369.616-1.369 1.383s.617 1.383 1.37 1.383c.753 0 1.369-.63 1.369-1.383ZM21.093 5.621c.753 0 1.37.616 1.37 1.383s-.617 1.383-1.37 1.383c-.753 0-1.37-.616-1.37-1.383s.617-1.383 1.37-1.383ZM8.317 6.991c0-.754-.63-1.37-1.383-1.37-.767 0-1.383.616-1.383 1.37 0 .753.63 1.369 1.383 1.369.767 0 1.383-.616 1.383-1.37Z" fill="#FFFEFF"/></svg>