<svg id="root" width="28" height="28" viewBox="0 0 28 28" xmlns="http://www.w3.org/2000/svg"><circle cx="14" cy="14" r="14" fill="#fff"/><g clip-path="url(#a-logo-elrond)" fill-rule="evenodd" clip-rule="evenodd" fill="#0D022B"><path d="M18.788 9.175c-.063-.062-.1-.125-.1-.212 0-.088.037-.15.1-.213a.359.359 0 0 1 .462 0c.063.063.1.125.1.213 0 .087-.038.15-.1.212a.39.39 0 0 1-.225.088.252.252 0 0 1-.237-.088Zm-.8.862a.326.326 0 0 1-.088-.212c0-.088.038-.15.088-.213a.31.31 0 0 1 .425 0c.05.063.087.125.087.213 0 .087-.038.15-.087.213a.326.326 0 0 1-.213.087.326.326 0 0 1-.212-.088Zm-.875.826a.302.302 0 0 1-.088-.213c0-.088.038-.15.088-.213a.31.31 0 0 1 .425 0c.05.05.087.126.087.213 0 .088-.038.15-.087.213a.274.274 0 0 1-.213.087.302.302 0 0 1-.212-.087Zm-.838.837a.267.267 0 0 1-.1-.212c0-.088.037-.15.1-.213a.359.359 0 0 1 .463 0c.062.05.1.125.1.213a.267.267 0 0 1-.1.212.32.32 0 0 1-.226.088c-.087 0-.162-.013-.237-.088Zm-.8.837c-.063-.05-.088-.125-.088-.212s.038-.15.088-.212a.31.31 0 0 1 .425 0c.063.05.088.125.088.212a.302.302 0 0 1-.088.213c-.05.062-.125.087-.213.087a.211.211 0 0 1-.212-.088Zm-.963.625c0-.087.038-.15.088-.212a.31.31 0 0 1 .425 0 .274.274 0 0 1 .088.213c0 .087-.038.15-.088.212a.302.302 0 0 1-.213.088.326.326 0 0 1-.212-.088c-.063-.05-.088-.125-.088-.213Zm-1.562 1.85a.302.302 0 0 1-.087-.212c0-.088.037-.15.087-.213a.31.31 0 0 1 .425 0 .274.274 0 0 1 .088.213c0 .087-.038.15-.088.212-.05.063-.125.088-.213.088-.075.013-.15-.012-.212-.088Zm-.862.838a.267.267 0 0 1-.1-.213c0-.087.037-.15.1-.212a.359.359 0 0 1 .462 0c.063.063.1.125.1.212 0 .088-.037.15-.1.213a.32.32 0 0 1-.225.088.272.272 0 0 1-.237-.088Zm-.813.85a.302.302 0 0 1 0-.425.31.31 0 0 1 .425 0c.05.05.088.125.088.213 0 .087-.038.15-.088.212a.274.274 0 0 1-.212.088c-.088 0-.138-.038-.213-.088Zm-.837.837c-.063-.05-.088-.125-.088-.212 0-.088.037-.15.088-.212a.31.31 0 0 1 .425 0c.05.062.087.124.087.212a.302.302 0 0 1-.087.212.274.274 0 0 1-.213.088c-.075 0-.162-.025-.213-.088Zm-.863.838a.267.267 0 0 1-.1-.212c0-.088.037-.15.1-.213.125-.113.325-.113.438 0 .062.063.1.125.1.213a.267.267 0 0 1-.1.212.39.39 0 0 1-.226.087c-.087 0-.162-.024-.212-.087Zm-.825.837A.274.274 0 0 1 8.662 19c0-.087.038-.15.088-.212a.31.31 0 0 1 .425 0 .274.274 0 0 1 .087.212c0 .087-.037.15-.087.212a.302.302 0 0 1-.213.088c-.062.012-.137-.025-.212-.088Zm.425-10.037a.326.326 0 0 0 .087-.212.326.326 0 0 0-.087-.213.31.31 0 0 0-.425 0 .274.274 0 0 0-.088.213c0 .087.038.15.088.212.05.05.125.088.212.088.088.012.163-.013.213-.088Zm.837.862c.063-.062.1-.125.1-.212 0-.088-.037-.15-.1-.213a.36.36 0 0 0-.462 0c-.063.063-.1.125-.1.213 0 .087.037.15.1.213a.39.39 0 0 0 .225.087.495.495 0 0 0 .237-.088Zm.851.826a.302.302 0 0 0 .087-.213.326.326 0 0 0-.087-.213.31.31 0 0 0-.425 0 .302.302 0 0 0-.088.213c0 .088.037.15.088.213a.274.274 0 0 0 .212.087c.075 0 .15-.037.213-.087Zm.837.837a.302.302 0 0 0 .088-.212.326.326 0 0 0-.088-.213.31.31 0 0 0-.425 0 .302.302 0 0 0 0 .425.274.274 0 0 0 .213.088c.075 0 .15-.013.212-.088Zm.825.837c.063-.05.1-.125.1-.212s-.037-.15-.1-.212a.326.326 0 0 0-.438 0 .267.267 0 0 0-.1.212c0 .088.038.163.1.213a.32.32 0 0 0 .226.087.211.211 0 0 0 .212-.088Zm.938.625a.326.326 0 0 0-.088-.212.31.31 0 0 0-.425 0 .274.274 0 0 0-.087.213c0 .087.037.15.087.212.05.05.125.088.213.088.087 0 .15-.038.212-.088.063-.05.088-.125.088-.213Zm.75 1.063a.274.274 0 0 0 .087-.213.326.326 0 0 0-.088-.212.31.31 0 0 0-.425 0 .274.274 0 0 0-.087.212c0 .088.038.15.088.213a.302.302 0 0 0 .425 0Zm.837.787c.063-.05.1-.125.1-.212 0-.088-.037-.15-.1-.213-.125-.112-.325-.112-.438 0-.062.063-.1.126-.1.213s.038.15.1.212a.32.32 0 0 0 .226.088.23.23 0 0 0 .212-.088Zm.85.838a.302.302 0 0 0 .088-.213.326.326 0 0 0-.088-.212.31.31 0 0 0-.425 0 .326.326 0 0 0-.088.212c0 .088.038.15.088.213a.274.274 0 0 0 .213.088c.062.012.15-.026.212-.088Zm.838.85a.302.302 0 0 0 0-.425.31.31 0 0 0-.425 0 .302.302 0 0 0-.088.213c0 .087.037.15.087.212a.274.274 0 0 0 .213.088c.088 0 .15-.038.213-.088Zm.787.837c.063-.05.088-.125.088-.212a.326.326 0 0 0-.088-.212.31.31 0 0 0-.425 0 .326.326 0 0 0-.088.212c0 .087.038.162.088.212a.274.274 0 0 0 .212.088c.075 0 .163-.025.213-.088Zm.888.838c.062-.05.087-.125.087-.212a.326.326 0 0 0-.087-.213.31.31 0 0 0-.425 0 .274.274 0 0 0-.088.213.302.302 0 0 0 .3.3c.088 0 .163-.026.213-.088Zm.837.837c.063-.062.1-.125.1-.212s-.038-.15-.1-.212c-.125-.113-.325-.113-.438 0-.062.062-.1.125-.1.212s.038.15.1.212a.39.39 0 0 0 .226.088c.062.012.137-.025.212-.088Zm-8.088-9.8c.85-.562 1.788-.825 2.825-.837 1.013 0 1.95.275 2.825.838l1.8-1.8C17.2 6.537 15.676 6 13.989 6c-1.688 0-3.238.537-4.613 1.612l1.787 1.8ZM9.363 16.8a4.976 4.976 0 0 1-.85-2.8c0-1.012.274-1.95.85-2.8L7.575 9.412C6.525 10.787 6 12.312 6 14.012c0 1.675.525 3.213 1.588 4.613L9.363 16.8Zm7.437 1.787a5.023 5.023 0 0 1-2.8.888c-1.037 0-1.988-.275-2.838-.875l-1.8 1.787C10.75 21.476 12.3 22.012 14 22c1.688-.012 3.212-.563 4.587-1.613l-1.787-1.8Zm1.763-7.412c.575.875.875 1.825.85 2.85-.013 1-.3 1.912-.85 2.75l1.8 1.788c1.062-1.375 1.612-2.9 1.612-4.575.012-1.7-.525-3.25-1.613-4.638l-1.8 1.825Zm1.875 7.975c.687 0 1.262.563 1.262 1.263 0 .687-.563 1.262-1.262 1.262a1.267 1.267 0 0 1-1.263-1.262c0-.7.563-1.263 1.262-1.263Zm-12.875 0c.687 0 1.25.563 1.25 1.263 0 .687-.563 1.262-1.25 1.262-.688 0-1.25-.563-1.25-1.262 0-.7.562-1.263 1.25-1.263ZM20.462 6.275c.688 0 1.25.563 1.25 1.263S21.15 8.8 20.462 8.8c-.687 0-1.25-.562-1.25-1.262s.563-1.263 1.25-1.263Zm-12.924 0c.687 0 1.262.563 1.262 1.25 0 .688-.562 1.25-1.262 1.25a1.264 1.264 0 0 1-1.263-1.25c0-.687.563-1.25 1.263-1.25Z"/></g><defs><clipPath id="a-logo-elrond"><path fill="#fff" transform="translate(6 6)" d="M0 0h15.963v16H0z"/></clipPath></defs></svg>