<svg id="root" width="28" height="28" viewBox="0 0 28 28" fill="none" xmlns="http://www.w3.org/2000/svg" xmlns:xlink="http://www.w3.org/1999/xlink"><g clip-path="url(#d-logo-eMeney)"><circle cx="14" cy="14" r="14" fill="#fff"/><path d="M13.972 10.267c-1.942 0-3.476 1.23-3.885 3.003H8.4v1.28h1.585c.204 2.018 1.891 3.494 3.987 3.494 1.585 0 2.914-.59 3.476-1.624l-1.43-.886c-.359.59-1.177.935-2.046.935-1.227 0-2.096-.738-2.3-1.92h7.157l.46-1.28h-1.636c-.256-1.722-1.79-3.002-3.68-3.002Zm-2.198 3.003c.307-.985 1.023-1.576 2.096-1.576 1.074 0 1.84.64 1.943 1.575h-4.039Zm-2.55 7.554-.989 1.412c-4.549-3.185-5.655-9.451-2.47-14l1.411.988c-2.635 3.765-1.717 8.965 2.048 11.6Zm10.54-15.06-.988 1.412c3.765 2.635 4.683 7.835 2.048 11.6l1.411.988c3.185-4.549 2.079-10.815-2.47-14Z" fill="#CBF7EE"/></g><defs><clipPath id="d-logo-eMeney"><path fill="#fff" d="M0 0h28v28H0z"/></clipPath></defs></svg>