<svg width="28" height="28" viewBox="0 0 28 28" fill="none" xmlns="http://www.w3.org/2000/svg">
<circle cx="14" cy="14" r="14" fill="black"/>
<path fill-rule="evenodd" clip-rule="evenodd" d="M13.2468 7.01612C12.9624 7.04424 12.3608 7.16226 12.0553 7.24992C10.4259 7.71728 9.1317 8.69958 8.22784 10.1549C7.83894 10.7811 7.56549 11.3617 7.01538 12.7293C6.55978 13.8619 6.37102 14.2375 6.04184 14.6665C5.67847 15.14 5.24057 15.5527 4.32553 16.2841C3.28923 17.1124 3 17.4355 3 17.7649C3 18.0087 3.13908 18.1764 3.42354 18.2755C3.62369 18.3453 4.3745 18.3497 5.54681 18.288C6.19009 18.2542 6.43831 18.2527 6.78694 18.2806C7.7527 18.3577 8.07119 18.4619 9.54694 19.1833C10.8022 19.7969 11.3773 20.0378 12.0654 20.2382C12.7938 20.4504 13.3187 20.5272 14.0362 20.5265C16.7279 20.5241 19.1978 18.8109 20.2203 16.237C20.3319 15.956 20.3317 15.8426 20.2195 15.717C20.1458 15.6346 20.1122 15.6197 19.9992 15.6197C19.8352 15.6197 19.7651 15.6772 19.6493 15.9063C19.6028 15.9983 19.4713 16.2128 19.357 16.3828C18.3735 17.8464 16.6935 18.7349 14.9157 18.7319C12.8927 18.7284 11.0383 17.5782 10.1384 15.7686C9.99506 15.4803 9.77594 14.9234 9.79825 14.9041C9.82866 14.8778 10.1975 14.7067 10.7596 14.4581C13.5598 13.2196 16.6765 12.1025 19.2832 11.4031C19.9611 11.2212 20.0612 11.2044 20.1579 11.2561C20.224 11.2915 20.4147 11.857 20.5145 12.3133C20.5503 12.4771 20.5928 12.6463 20.6089 12.6892C20.6384 12.768 20.7428 12.8346 20.8369 12.8346C20.9555 12.8346 22.3194 12.0427 23.0592 11.5442C24.2201 10.7621 24.8092 10.1545 24.8167 9.7315C24.827 9.15112 23.6992 9.02629 21.6439 9.38034C19.2724 9.78884 15.8804 10.8199 12.4872 12.1636C11.5855 12.5207 10.3703 13.0321 9.83915 13.2781L9.57404 13.4008L9.59239 13.006C9.69409 10.8181 11.3075 8.82621 13.4697 8.21905C14.5018 7.92925 15.5612 7.95341 16.6039 8.29048C17.0094 8.42157 17.0958 8.42423 17.2108 8.30922C17.2769 8.24309 17.2979 8.19451 17.2979 8.10732C17.2979 7.90429 17.1946 7.8146 16.7104 7.59709C16.1065 7.32579 15.4027 7.12577 14.757 7.04192C14.4396 7.00072 13.5554 6.98562 13.2468 7.01612Z" fill="white"/>
</svg>