<svg id="root" width="28" height="28" viewBox="0 0 28 28" fill="none" xmlns="http://www.w3.org/2000/svg"><circle cx="14" cy="14" r="14" fill="#102DA2"/><mask id="a-logo-gravityBridgeGrav" style="mask-type:alpha" maskUnits="userSpaceOnUse" x="0" y="0" width="28" height="28"><circle cx="14" cy="14" r="14" fill="#102DA2"/></mask><g mask="url(#a-logo-gravityBridgeGrav)" fill="#fff"><path d="m20.527 20.063-.352.057h-.026c-.026.007-.052.007-.076.014l-.092.012c-4.614.756-8.518.854-11.925.306-.919-.153-2.268-.404-3.421-.9-1.364-.585-2.139-1.377-2.302-2.363-.412-2.405 3.151-4.333 4.328-4.966 3.114-1.684 6.954-2.9 11.73-3.709 4.777-.809 8.803-.931 12.299-.364 2.278.371 5.357 1.104 5.722 3.262.365 2.158-2.296 3.865-4.328 4.966-3.039 1.643-6.751 2.832-11.36 3.643l-.09.014c-.026.006-.053.006-.077.012-.024.007-.024.016-.03.016Zm-.398-.13h.012l.36-.065h.006c.025-.007.052-.007.077-.013l.09-.014c4.582-.802 8.278-1.99 11.301-3.623 4.615-2.496 4.32-4.203 4.23-4.764-.377-2.268-4.274-2.9-5.552-3.102-3.472-.56-7.473-.443-12.23.367-4.757.81-8.571 2.012-11.673 3.687-4.614 2.495-4.32 4.203-4.23 4.763.383 2.268 4.286 2.894 5.562 3.102 3.39.548 7.27.45 11.867-.306l.092-.013c.026-.006.053-.006.077-.012l.011-.007Z"/><path d="M20.187 19.144c-.091.014-.19.033-.294.046-.195.032-.416.065-.658.104l-.026.007c-.104.012-.215.033-.332.045-.105.013-.215.033-.333.046h-.022c-.175.026-.364.045-.554.072h-.025l-.242.025c-.065.007-.137.014-.201.027h-.01c-1.479.163-2.887.26-4.177.28-2.346.032-4.23-.183-5.586-.639-1.296-.436-2.124-1.102-2.444-1.975a2.552 2.552 0 0 1-.124-.459c-.115-.684.052-1.361.502-2.006.623-.903 1.809-1.764 3.525-2.555 1.607-.745 3.636-1.415 6.035-2a44.263 44.263 0 0 1 3.33-.69 57.54 57.54 0 0 1 3.376-.45c1.694-.171 4.171-.326 6.367-.11 1.883.182 3.29.606 4.178 1.264.62.46.995 1.037 1.108 1.72.026.164.038.33.032.496-.026.931-.58 1.824-1.643 2.651-1.13.878-2.837 1.705-5.073 2.45a44.545 44.545 0 0 1-4.209 1.146l-.5.109c-.132.025-.256.052-.383.077l-.124.026-.208.04c-.07.012-.153.032-.23.045l-.123.026c-.241.046-.463.085-.658.123a1.714 1.714 0 0 1-.274.059Zm-2.256.13h.033c.183-.02.365-.045.54-.071h.018c.112-.013.222-.033.333-.046.111-.012.23-.032.332-.046l.026-.006c.241-.04.46-.072.652-.098.21-.032.371-.058.58-.098.195-.032.417-.076.658-.123l.124-.027c.072-.012.15-.026.222-.045l.202-.04.124-.025c.123-.027.248-.053.378-.077l.502-.11c.052-.014.098-.02.153-.034a42.833 42.833 0 0 0 4.036-1.109c2.219-.736 3.902-1.55 5.011-2.418 1.015-.794 1.543-1.635 1.57-2.51a2.188 2.188 0 0 0-.033-.458c-.104-.63-.46-1.167-1.037-1.598-.86-.63-2.228-1.049-4.079-1.224-2.183-.209-4.646-.057-6.328.111-1.538.153-2.77.344-3.363.443-.593.1-1.811.325-3.317.689-2.35.573-4.432 1.257-6.002 1.99-1.682.779-2.84 1.613-3.447 2.486-.417.6-.573 1.231-.47 1.863.025.147.064.291.116.43.306.822 1.089 1.447 2.332 1.865 1.336.449 3.194.658 5.52.625a42.2 42.2 0 0 0 4.164-.28h.013c.068-.005.136-.014.203-.026l.234-.032Z"/><path d="m12.57 17.234-.02-.006h-.018l.018.182c.057-.006.11-.006.171-.013.153-.011.307-.013.46-.006a5.253 5.253 0 0 1-.612-.157Zm2.129.313.022-.005-.022.005Zm.076-.011h-.006v.01h.013m18.785-5.635c-.11-.69-.488-1.259-1.107-1.72-.886-.659-2.296-1.082-4.178-1.265-2.196-.215-4.669-.057-6.364.111a48.194 48.194 0 0 0-3.376.45c-.6.105-1.814.32-3.333.688-2.398.587-4.432 1.258-6.035 2.001-1.715.79-2.896 1.65-3.526 2.55-.45.644-.619 1.323-.502 2.006.02.119.048.235.085.35.013.038.025.076.04.114.008.024.018.048.027.071.344.842 1.16 1.479 2.423 1.904 1.356.459 3.239.67 5.586.639h.039l.025-.033c.338-.358.703-.728 1.067-1.043l.022-.02.202-.176h-.31c-1.74.017-3.143-.138-4.17-.473h-.009l.012-.004c.901-.362 1.647-.563 2.335-.64a7.73 7.73 0 0 0 1.84.299 9.09 9.09 0 0 1-1.262-.153l-.221-.05-.09-.025a2.926 2.926 0 0 1-.25-.077l-.02-.005h-.007a3.21 3.21 0 0 1-.35-.13c-.67.111-1.41.337-2.282.704l-.213.091-.014.007.23.084c1.022.383 2.465.58 4.275.574-.306.274-.6.58-.88.873-2.304.034-4.142-.18-5.467-.625-1.2-.4-1.97-.994-2.296-1.776a1.122 1.122 0 0 1-.036-.088c-.01-.031-.024-.065-.034-.097a2.416 2.416 0 0 1-.083-.334c-.104-.63.052-1.264.469-1.864.603-.872 1.76-1.706 3.443-2.482 1.57-.73 3.65-1.415 6.002-1.99a46.746 46.746 0 0 1 3.318-.689 52.712 52.712 0 0 1 3.362-.443c1.684-.172 4.145-.32 6.328-.11 1.852.175 3.22.592 4.08 1.224.58.43.932.964 1.036 1.597.027.151.039.305.033.459-.026.873-.554 1.713-1.57 2.508-1.102.86-2.777 1.676-4.974 2.406a19.728 19.728 0 0 0-1.148-.554c1.7-.6 2.997-1.252 3.857-1.943l.19-.153h-.04l-.208-.011c-1.212-.077-2.118-.013-2.841.195l-.02.007-.02.013a8.17 8.17 0 0 1-1.63.857l-.092.032a9.936 9.936 0 0 1-.553.208l-.118.04.004-.021a5.204 5.204 0 0 0 .057-1.05c-.006-.042-.005-.083-.009-.126l-.01-.128a4.26 4.26 0 0 0-.041-.3c-.011-.057-.025-.114-.035-.171a4.729 4.729 0 0 0-.833-1.863 1.013 1.013 0 0 0-.077-.098c-.028-.033-.053-.07-.08-.103a4.861 4.861 0 0 0-1.064-.973 4.655 4.655 0 0 0-1.017-.515 4.85 4.85 0 0 0-2.326-.241c-.077.007-.154.02-.23.036h-.02a4.856 4.856 0 0 0-2.117.994 4.403 4.403 0 0 0-.757.772l-.018.026a4.907 4.907 0 0 0-.47.74 1.936 1.936 0 0 0-.051.105c-.017.036-.03.057-.042.088a4.538 4.538 0 0 0-.172.437c-.014.04-.027.076-.04.12-.013.043-.024.076-.036.12l-.026.093a.028.028 0 0 1 0 .018c0 .01-.006.02-.008.031-.008.027-.014.058-.02.083v.018l-.015.066-.013.058a6.016 6.016 0 0 0-.064.41c0 .032-.007.065-.01.097l-.01.13a4.936 4.936 0 0 0 .019.81 5.425 5.425 0 0 0 .038.273v.007c0 .01.002.02.004.031 0 .023.007.045.012.068a5.025 5.025 0 0 0 .539 1.504h.004l.077.136.029.046h-.032l-.235.011h.327l.172-.006-.09-.142a4.404 4.404 0 0 1-.443-.945 4.526 4.526 0 0 1-.177-.704c-.012-.084-.026-.162-.033-.247a4.471 4.471 0 0 1 .04-1.323 4.585 4.585 0 0 1 .879-2.025c.063-.077.128-.159.196-.235a4.53 4.53 0 0 1 .546-.527 4.674 4.674 0 0 1 2.031-.953l.02-.004.098-.017.115-.019a4.64 4.64 0 0 1 4.12 1.52 4.586 4.586 0 0 1 1.036 2.032c.012.076.032.153.045.241.038.216.06.433.066.652a4.73 4.73 0 0 1-.097 1.06l-.032.17.163-.053.066-.023.213-.076c.196-.065.379-.137.56-.208l.092-.033A8.591 8.591 0 0 0 26.737 15c.652-.182 1.473-.248 2.516-.202l-.007.006c-.874.656-2.162 1.273-3.826 1.836l-.255.085.245.098.021.007c.474.192.937.411 1.387.654l.039.02h.026c2.236-.745 3.943-1.57 5.07-2.448 1.067-.829 1.621-1.719 1.645-2.651a2.495 2.495 0 0 0-.03-.495Zm-18.795 5.625h-.006v.01h.013m-.056 0H14.7h.023Zm-.01.194h.011l.112.004h.09c-.077 0-.154-.005-.225-.008h-.088m-2.08-.502.019.182c.057-.006.11-.006.172-.012.152-.013.306-.015.459-.008a5.217 5.217 0 0 1-.612-.153l-.02-.006-.018-.003Zm.038.006-.02-.006h-.018l.019.182c.057-.006.11-.006.172-.012.152-.013.306-.015.459-.008a5.251 5.251 0 0 1-.612-.162v.006Zm2.13.306.022-.005-.022.005Zm.077-.01h-.006v.01h.013m-.007-.01h-.006v.01h.013m-.077 0 .022-.005-.022.005Zm-2.13-.312-.019-.006h-.018l.018.182c.058-.006.11-.006.172-.013.152-.012.306-.014.459-.007a5.247 5.247 0 0 1-.612-.153v-.003Z"/><path d="m12.57 17.234-.02-.006h-.018l.018.182c.057-.006.11-.006.171-.013.153-.011.307-.013.46-.006a5.253 5.253 0 0 1-.612-.157Zm2.129.313.022-.005-.022.005Zm.076-.011h-.006v.01h.013m18.785-5.635c-.11-.69-.488-1.259-1.107-1.72-.886-.659-2.296-1.082-4.178-1.265-2.196-.215-4.669-.057-6.364.111a48.194 48.194 0 0 0-3.376.45c-.6.105-1.814.32-3.333.688-2.398.587-4.432 1.258-6.035 2.001-1.715.79-2.896 1.65-3.526 2.55-.45.644-.619 1.323-.502 2.006.02.119.048.235.085.35.013.038.025.076.04.114.008.024.018.048.027.071.344.842 1.16 1.479 2.423 1.904 1.356.459 3.239.67 5.586.639h.039l.025-.033c.338-.358.703-.728 1.067-1.043l.022-.02.202-.176h-.31c-1.74.017-3.143-.138-4.17-.473h-.009l.012-.004c.901-.362 1.647-.563 2.335-.64a7.73 7.73 0 0 0 1.84.299 9.09 9.09 0 0 1-1.262-.153l-.221-.05-.09-.025a2.926 2.926 0 0 1-.25-.077l-.02-.005h-.007a3.21 3.21 0 0 1-.35-.13c-.67.111-1.41.337-2.282.704l-.213.091-.014.007.23.084c1.022.383 2.465.58 4.275.574-.306.274-.6.58-.88.873-2.304.034-4.142-.18-5.467-.625-1.2-.4-1.97-.994-2.296-1.776a1.122 1.122 0 0 1-.036-.088c-.01-.031-.024-.065-.034-.097a2.416 2.416 0 0 1-.083-.334c-.104-.63.052-1.264.469-1.864.603-.872 1.76-1.706 3.443-2.482 1.57-.73 3.65-1.415 6.002-1.99a46.746 46.746 0 0 1 3.318-.689 52.712 52.712 0 0 1 3.362-.443c1.684-.172 4.145-.32 6.328-.11 1.852.175 3.22.592 4.08 1.224.58.43.932.964 1.036 1.597.027.151.039.305.033.459-.026.873-.554 1.713-1.57 2.508-1.102.86-2.777 1.676-4.974 2.406a19.728 19.728 0 0 0-1.148-.554c1.7-.6 2.997-1.252 3.857-1.943l.19-.153h-.04l-.208-.011c-1.212-.077-2.118-.013-2.841.195l-.02.007-.02.013a8.17 8.17 0 0 1-1.63.857l-.092.032a9.936 9.936 0 0 1-.553.208l-.118.04.004-.021a5.204 5.204 0 0 0 .057-1.05c-.006-.042-.005-.083-.009-.126l-.01-.128a4.26 4.26 0 0 0-.041-.3c-.011-.057-.025-.114-.035-.171a4.729 4.729 0 0 0-.833-1.863 1.013 1.013 0 0 0-.077-.098c-.028-.033-.053-.07-.08-.103a4.861 4.861 0 0 0-1.064-.973 4.655 4.655 0 0 0-1.017-.515 4.85 4.85 0 0 0-2.326-.241c-.077.007-.154.02-.23.036h-.02a4.856 4.856 0 0 0-2.117.994 4.403 4.403 0 0 0-.757.772l-.018.026a4.907 4.907 0 0 0-.47.74 1.936 1.936 0 0 0-.051.105c-.017.036-.03.057-.042.088a4.538 4.538 0 0 0-.172.437c-.014.04-.027.076-.04.12-.013.043-.024.076-.036.12l-.026.093a.028.028 0 0 1 0 .018c0 .01-.006.02-.008.031-.008.027-.014.058-.02.083v.018l-.015.066-.013.058a6.016 6.016 0 0 0-.064.41c0 .032-.007.065-.01.097l-.01.13a4.936 4.936 0 0 0 .019.81 5.425 5.425 0 0 0 .038.273v.007c0 .01.002.02.004.031 0 .023.007.045.012.068a5.025 5.025 0 0 0 .539 1.504h.004l.077.136.029.046h-.032l-.235.011h.327l.172-.006-.09-.142a4.404 4.404 0 0 1-.443-.945 4.526 4.526 0 0 1-.177-.704c-.012-.084-.026-.162-.033-.247a4.471 4.471 0 0 1 .04-1.323 4.585 4.585 0 0 1 .879-2.025c.063-.077.128-.159.196-.235a4.53 4.53 0 0 1 .546-.527 4.674 4.674 0 0 1 2.031-.953l.02-.004.098-.017.115-.019a4.64 4.64 0 0 1 4.12 1.52 4.586 4.586 0 0 1 1.036 2.032c.012.076.032.153.045.241.038.216.06.433.066.652a4.73 4.73 0 0 1-.097 1.06l-.032.17.163-.053.066-.023.213-.076c.196-.065.379-.137.56-.208l.092-.033A8.591 8.591 0 0 0 26.737 15c.652-.182 1.473-.248 2.516-.202l-.007.006c-.874.656-2.162 1.273-3.826 1.836l-.255.085.245.098.021.007c.474.192.937.411 1.387.654l.039.02h.026c2.236-.745 3.943-1.57 5.07-2.448 1.067-.829 1.621-1.719 1.645-2.651a2.495 2.495 0 0 0-.03-.495Zm-18.795 5.625h-.006v.01h.013m-.056 0H14.7h.023Zm-.01.194h.011l.112.004h.09c-.077 0-.154-.005-.225-.008h-.088m-2.08-.502.019.182c.057-.006.11-.006.172-.012.152-.013.306-.015.459-.008a5.217 5.217 0 0 1-.612-.153l-.02-.006-.018-.003Zm.038.006-.02-.006h-.018l.019.182c.057-.006.11-.006.172-.012.152-.013.306-.015.459-.008a5.251 5.251 0 0 1-.612-.162v.006Zm2.13.306.022-.005-.022.005Zm0 0 .022-.005-.022.005Zm-2.13-.312-.019-.006h-.018l.018.182c.058-.006.11-.006.172-.013.153-.012.306-.014.459-.007a5.237 5.237 0 0 1-.612-.153v-.003Z"/><path d="m14.715 17.529-.034.005h-.007c-.12 0-.238-.009-.352-.016-.147-.009-.288-.02-.425-.034a7.546 7.546 0 0 1-.643-.09 5.386 5.386 0 0 1-.695-.173l-.02-.006h-.02a5.097 5.097 0 0 0-.382.057c-.66.115-1.383.334-2.236.689-.883-.334-1.439-.82-1.656-1.44a1.63 1.63 0 0 1-.032-.105 1.72 1.72 0 0 1-.023-.09l-.023-.119c-.091-.535.052-1.061.424-1.563l.026-.033c.503-.666 1.416-1.306 2.72-1.899a20.536 20.536 0 0 1 2.164-.825 34.216 34.216 0 0 1 2.62-.733c.416-.1.797-.187 1.142-.258l.05-.01a4.627 4.627 0 0 0-.847.554 4.44 4.44 0 0 0-.765.781l-.01.018a4.71 4.71 0 0 0-.735 1.37c-.014.04-.027.076-.04.12-.013.043-.024.076-.036.12l-.014.054a.312.312 0 0 1-.012.04v.017c0 .005-.006.02-.008.031-.008.027-.014.058-.02.083a.02.02 0 0 0 0 .01v.008l-.015.066a1.133 1.133 0 0 1-.017.078 4.123 4.123 0 0 0-.06.39c0 .032-.007.065-.01.097 0 .043-.007.086-.01.13a4.895 4.895 0 0 0 .048 1.038l.012.076c.01.057.019.115.032.172a.035.035 0 0 0 0 .017c.007.032.014.065.022.095.029.125.062.242.097.354l.028.09.038.108.04.108c.03.07.058.142.089.212l.041.09.043.086c.039.077.082.16.126.237l.077.136.028.046h-.032l-.235.01h.337l.169-.006-.083-.142-.03-.047a4.423 4.423 0 0 1-.425-.893 4.542 4.542 0 0 1-.172-.704c-.013-.084-.026-.163-.032-.247a4.468 4.468 0 0 1 .042-1.323 4.576 4.576 0 0 1 .881-2.02 3.8 3.8 0 0 1 .153-.183 4.592 4.592 0 0 1 2.627-1.53v-.001l-.031-.182v-.004l-.34.061c-.502.092-1.267.243-2.178.46-1.91.458-3.526.984-4.816 1.57-1.307.597-2.245 1.242-2.773 1.926l-.027.033c-.423.56-.586 1.147-.482 1.747.007.04.016.076.025.114.009.039.017.077.027.11.01.034.017.058.026.083.212.646.745 1.154 1.585 1.515l.015.007c.068.029.14.057.213.085l.039.012.032-.012.23-.096.013-.005c.895-.36 1.637-.564 2.328-.642h.01c.082.026.168.05.257.077a2.875 2.875 0 0 1-.25-.077l-.02-.004h-.007a3.301 3.301 0 0 1-.351-.13c.126-.022.25-.04.37-.053l.019.183c.057-.006.11-.006.172-.013.152-.012.306-.014.459-.007.268.052.538.09.81.115a11.53 11.53 0 0 0 .706.042h.006l.021-.004h.044v.01h.082c.106 0 .212.006.312.006h.164a.029.029 0 0 1-.004-.007h-.172c-.1 0-.204-.005-.31-.005h-.075m-.042.202.109.004h.094c-.076 0-.153-.004-.224-.007h-.076m.088-.203.013.004-.013-.004Zm.607.018h-.172c-.1 0-.203-.004-.306-.005h-.043l-.018-.005h-.013v.006h.08c.107 0 .213.006.314.006h.163v-.006l-.005.004ZM24 16.276l.034-.172a4.76 4.76 0 0 0 .097-1.062 4.391 4.391 0 0 0-.065-.648c-.013-.085-.032-.163-.046-.241a4.6 4.6 0 0 0-2.92-3.32 4.64 4.64 0 0 0-2.237-.234l-.035-.187a38.616 38.616 0 0 1 2.542-.326c1.322-.13 3.265-.248 5.011-.092h.013c1.46.131 2.569.437 3.304.913l.033.02c.58.382.925.873 1.023 1.466.015.086.024.173.026.26.026.75-.378 1.48-1.204 2.158l-.033.026h-.039c-1.159-.072-2.066-.013-2.77.189a8.638 8.638 0 0 1-1.654.873l-.091.033c-.183.071-.365.143-.561.208l-.28.098-.147.038Zm-3.813-5.874a4.9 4.9 0 0 1 .974.241 4.847 4.847 0 0 1 2.567 2.2c.221.397.384.825.482 1.27.019.084.032.171.05.253.039.225.06.451.067.678a5.07 5.07 0 0 1-.066.945l.118-.039c.189-.065.378-.137.554-.208l.09-.033a8.224 8.224 0 0 0 1.63-.868l.02-.013.02-.007c.716-.208 1.606-.268 2.801-.196.756-.63 1.128-1.301 1.102-1.974a1.502 1.502 0 0 0-.026-.242c-.091-.527-.398-.97-.913-1.323l-.026-.019c-.704-.459-1.792-.765-3.232-.9h-.013c-1.733-.153-3.67-.039-4.992.092-.443.048-.848.093-1.207.143Z"/><path d="M14.778 17.541v.006h.02l-.02-.006Zm.545.006h-.173c-.1 0-.204-.004-.31-.006l.01.007c.107 0 .212.006.313.006h.163a.033.033 0 0 1-.003-.007Zm-.595-.013-.042.007c-.12 0-.237-.01-.35-.017a7.43 7.43 0 0 1-.383-.03 7.555 7.555 0 0 1-.742-.104 5.223 5.223 0 0 1-.648-.163l-.02-.006h-.006l-.014-.004c-.68-.23-1.14-.57-1.373-1.026a1.41 1.41 0 0 1-.087-.205 1.56 1.56 0 0 1-.065-.248c-.057-.313.046-.631.306-.959.225-.268.487-.504.78-.697a8.906 8.906 0 0 1 1.224-.705 18.873 18.873 0 0 1 2.191-.887l.015-.006a4.491 4.491 0 0 0-.343.6c-.017.035-.029.057-.041.088a4.87 4.87 0 0 0-.172.437c-.014.04-.027.077-.04.12-.013.044-.025.077-.036.12-.012.044-.018.063-.025.094a.029.029 0 0 1-.005.018c0 .01-.006.02-.008.03-.008.028-.014.058-.02.084v.018l-.015.066-.017.076c-.004.023-.014.066-.019.1-.017.096-.03.193-.041.29 0 .032-.007.064-.01.097a4.893 4.893 0 0 0 .01.94 6.658 6.658 0 0 0 .029.209v.018l.01.077c.01.057.02.115.033.172a.034.034 0 0 0 0 .017l.021.095c.03.124.062.241.097.354.01.03.02.057.029.09l.038.107.04.108c.029.071.058.143.09.212.012.03.026.058.04.09.014.032.028.057.043.087.04.076.082.16.126.236.025.046.053.09.077.136l.028.046H15.4l-.235.011h.337l.17-.007-.077-.134a4.434 4.434 0 0 1-.443-.948 4.354 4.354 0 0 1-.176-.704c-.013-.085-.026-.163-.033-.248a4.516 4.516 0 0 1 .039-1.323 4.585 4.585 0 0 1 .887-2.02l.152-.18.045-.058-.018.005-.282.09-.046.016h-.007a.021.021 0 0 0-.016.005c-.46.153-.89.309-1.292.466-.419.165-.807.335-1.164.508-.99.476-1.694.965-2.079 1.454-.293.372-.41.75-.344 1.115a2.066 2.066 0 0 0 .107.358c.009.02.016.04.025.058.205.464.606.827 1.197 1.084h.009l.015.007c.125-.021.25-.039.37-.053l.019.183c.057-.007.11-.007.171-.013.153-.012.306-.014.46-.007.267.052.537.09.808.114a13.662 13.662 0 0 0 .706.043h.007l.022-.004h.043m.56.017a.03.03 0 0 1-.003-.007h-.172c-.1 0-.205-.004-.306-.005l.009.006c.106 0 .212.006.313.006h.16Zm-.546-.009.018-.004h-.019v.004Zm-.058.192.109.005h.088c-.077 0-.153-.005-.224-.009h-.088m.697-.18h-.172c-.1 0-.204-.005-.31-.006h-.076v.006h.09c.107 0 .213.006.313.006h.164a.027.027 0 0 1-.002-.01l-.007.004ZM24 16.277l.034-.173a4.76 4.76 0 0 0 .097-1.062 4.391 4.391 0 0 0-.065-.648c-.013-.085-.032-.163-.045-.241a4.6 4.6 0 0 0-1.95-2.832l-.26-.175.313-.007c.885-.014 1.77.024 2.651.115 1.095.13 1.913.351 2.449.678.417.247.658.56.717.925.019.125.026.252.02.378-.034.631-.438 1.225-1.2 1.767l-.02.012c-.43.306-.99.594-1.648.867l-.091.033c-.183.071-.365.143-.56.208a9.844 9.844 0 0 1-.281.098l-.16.057Zm-1.575-4.946a4.828 4.828 0 0 1 1.785 2.776c.019.085.032.172.05.254.039.224.06.45.067.678a5.07 5.07 0 0 1-.066.945l.118-.039c.189-.065.378-.137.554-.209l.09-.032a8.22 8.22 0 0 0 1.63-.863l.02-.013c.697-.502 1.07-1.043 1.094-1.607a1.43 1.43 0 0 0-.019-.333c-.051-.306-.26-.563-.624-.787-.508-.306-1.301-.52-2.373-.65a20.755 20.755 0 0 0-2.326-.12Z"/><path d="M15.323 17.547h-.173c-.1 0-.204-.005-.31-.006l.01.006c.107 0 .212.006.313.006h.163a.016.016 0 0 1-.003-.006Zm.347.18-.076-.134a4.444 4.444 0 0 1-.443-.947 4.365 4.365 0 0 1-.177-.705c-.013-.084-.026-.162-.033-.247l-.016-.157-.017.012-.111.072-.07.046h-.004a3.27 3.27 0 0 0-.466.383c-.243.242-.36.485-.353.716v.033c0 .055.01.11.026.163.004.018.01.035.016.053a.953.953 0 0 0 .189.32c.057.065.122.125.191.177l.01.006a.046.046 0 0 1 .007.007c.114.007.233.013.356.016h.005l-.014-.007-.011-.006-.013-.006-.026-.019h-.007l-.056-.034a1.148 1.148 0 0 1-.354-.306.693.693 0 0 1-.115-.242c0-.016-.006-.035-.008-.058l-.012-.076c-.02-.183.085-.383.294-.6.115-.116.24-.222.373-.316v.073a3.278 3.278 0 0 0 .037.197.034.034 0 0 0 0 .018l.02.094c.03.125.063.242.098.355l.03.09.037.108.04.107c.029.071.058.142.089.213.014.03.027.056.04.089.014.032.029.057.044.087.04.076.081.16.126.236.025.045.052.09.076.136l.029.046h-.033l-.235.011h.338l.17-.007.009.003Zm-.344-.172a.016.016 0 0 1-.003-.006h-.173c-.1 0-.204-.005-.31-.005l.01.006c.107 0 .212.005.313.005h.163Zm-.003-.006h-.173c-.1 0-.204-.005-.31-.005h-.043l-.019.003h.07c.107 0 .213.006.314.006h.163v-.006l-.002.002ZM24 16.276l.034-.172c.072-.35.104-.705.097-1.062a4.39 4.39 0 0 0-.065-.648c-.013-.085-.032-.163-.045-.241l-.033-.154.157.039c.21.05.415.12.612.209.352.163.56.372.619.612.007.033.013.066.019.105.046.319-.071.63-.358.932l-.013.012-.02.007c-.182.072-.364.144-.56.209-.091.032-.183.065-.28.097l-.163.055Zm.242-2.013.019.097c.038.224.06.45.066.678.007.316-.015.633-.066.945l.118-.039c.182-.065.358-.13.535-.202.23-.254.327-.508.294-.756-.007-.026-.007-.052-.013-.085-.046-.182-.222-.344-.516-.482a2.929 2.929 0 0 0-.437-.156Zm3.819 3.839c-.294-.125-.646-.307-1.017-.496l-.215-.11.091-.173.215.111c.372.19.717.372 1.004.49l-.078.178Z"/><path d="m25.117 15.866-.124-.153a4.82 4.82 0 0 1 1.63-.872.487.487 0 0 0 .056-.02l.046.189c-.013.006-.033.006-.046.013a4.68 4.68 0 0 0-1.562.843Z"/><path d="m24.483 16.094-.153-.115c.332-.43.619-.765.892-1.071.834-.905 1.656-1.466 2.587-1.765l.02-.007c.93-.284 1.883-.48 2.848-.587.946-.114 1.91-.189 2.832-.254l.098-.007c.945-.068 1.83-.133 2.678-.244l.026.196c-.854.11-1.746.176-2.691.241l-.098.006c-.925.066-1.883.137-2.831.255-1.108.136-2.034.326-2.816.58l-.019.006c-.89.288-1.681.837-2.5 1.717-.261.286-.54.625-.873 1.05Z"/><path d="m24.307 15.097-.165-.103c.176-.274.333-.51.482-.717.786-1.09 1.558-1.826 2.458-2.321l.013-.006a.184.184 0 0 0 .033-.02c.684-.378 1.51-.711 2.515-1.033h.006c.854-.267 1.707-.482 2.731-.736l.058-.013c.841-.208 1.635-.402 2.391-.63l.057.182c-.755.23-1.557.43-2.398.639l-.057.013c-1.02.258-1.874.47-2.728.736h-.008c-.99.314-1.805.646-2.483 1.018-.013.007-.02.013-.026.013l-.013.006c-.867.483-1.63 1.199-2.392 2.268-.141.202-.298.437-.474.704Zm-.581-2.169-.17-.098a7.614 7.614 0 0 1 1.037-1.44c.033-.034.065-.073.098-.105a9.008 9.008 0 0 1 1.642-1.29l.02-.013c.593-.379 1.231-.717 1.883-1.062l.098-.053c.527-.28 1.032-.541 1.49-.808l.1.171c-.469.274-.97.536-1.499.815l-.097.052c-.659.344-1.297.684-1.892 1.063l-.02.012a8.45 8.45 0 0 0-1.593 1.25l-.097.097c-.38.435-.714.907-1 1.409Zm-2.508-2.158-.182-.072c.072-.177.157-.353.26-.574.176-.358.372-.717.555-1.049l.064-.11c.164-.3.34-.607.49-.907l.173.086c-.153.3-.327.612-.489.913l-.065.11c-.183.333-.378.685-.554 1.044-.103.213-.187.39-.252.558Zm-4.758.808c-.13-.153-.273-.294-.43-.45-.267-.268-.547-.516-.86-.795l-.086-.076c-.274-.247-.536-.476-.782-.717l.138-.133c.241.235.502.47.776.71l.084.072c.313.28.593.536.867.802.153.153.3.306.437.46l-.144.127Zm10.277 3.428a8.589 8.589 0 0 1-1.655.873l-.091.033c-.182.071-.365.143-.561.208l-.213.077-.066.023-.163.052.032-.17a.448.448 0 0 0 .008-.042c-.201.066-.418.133-.653.206-.417.123-.867.24-1.362.358-.496.117-1.01.23-1.545.325a24.38 24.38 0 0 1-.645.115c-.182.026-.404.065-.652.104-.56.091-1.062.163-1.537.215-.51.057-.991.105-1.447.13-.209.012-.422.018-.626.024h-.023l.029.047.09.142h.012c.122 0 .243-.009.362-.014l.182-.01a30.284 30.284 0 0 0 2.998-.346c.105-.013.205-.028.3-.044l.165-.027.058-.01.127-.022c.19-.033.41-.072.652-.118a30.956 30.956 0 0 0 2.192-.485h.012c.253-.067.495-.136.729-.204.253-.071.489-.15.71-.221l.058-.02.221-.077c.196-.065.378-.137.56-.21l.092-.031a8.645 8.645 0 0 0 1.656-.873c.648-.183 1.464-.248 2.501-.203l.008-.006c-1.038-.047-1.863.019-2.515.2ZM14.728 17.53l-.042.007c-.12 0-.236-.01-.35-.017a7.32 7.32 0 0 1-.383-.029 7.555 7.555 0 0 1-.742-.104 5.247 5.247 0 0 1-.648-.163l-.02-.006h-.02c-.121.014-.245.03-.372.052-.67.112-1.407.336-2.28.703l-.213.091-.014.007.014.006.21.077c1.077.4 2.602.6 4.536.573h.037c.563-.008 1.17-.033 1.795-.077l.111-.006c.039-.006.084-.006.13-.013l.052-.007c.261-.019.516-.038.766-.064.153-.013.294-.033.43-.046l.28-.033c.124-.013.248-.032.366-.046l.032-.006c.39-.046.769-.098 1.134-.157.195-.025.359-.052.495-.076s.306-.053.47-.092a37.06 37.06 0 0 0 1.14-.235c.13-.025.26-.052.397-.084l.267-.065c.124-.033.248-.057.378-.091.235-.053.476-.118.724-.183l.153-.039c.057-.013.11-.032.169-.046l.02-.007c.59-.167 1.161-.34 1.695-.519l.025-.008h.007c1.827-.62 3.203-1.301 4.098-2.036l.176-.145.012-.011-.248-.014c-1.211-.076-2.117-.013-2.841.196l-.02.007-.018.013a8.154 8.154 0 0 1-1.63.86l-.092.032a11.32 11.32 0 0 1-.553.209l-.088.031-.183.064-.051.019c-.2.066-.418.133-.653.206-.417.123-.867.24-1.362.358-.495.118-1.01.23-1.544.325-.242.046-.457.084-.645.115-.183.026-.404.066-.652.104a28.98 28.98 0 0 1-1.538.215c-.509.057-.99.105-1.447.13-.208.012-.421.018-.626.024h-.076c-.053 0-.105.004-.153.006h-.176c-.1 0-.203-.005-.306-.006h-.076v.013h.064c.106 0 .211.007.312.007h.163l-.004-.007h.004c.026.046.053.09.077.136l.028.047h.238c.122-.004.243-.01.362-.015l.181-.01c.46-.026.945-.071 1.454-.13.476-.052.98-.12 1.547-.213.105-.013.205-.028.3-.043l.165-.028.057-.01.128-.022c.19-.033.41-.072.652-.118a30.282 30.282 0 0 0 2.192-.484h.01c.255-.067.497-.136.73-.204.254-.072.49-.153.711-.222l.057-.02c.076-.026.153-.051.222-.077.196-.065.378-.137.56-.209l.092-.032a8.614 8.614 0 0 0 1.656-.873c.648-.182 1.464-.247 2.501-.203h.014c-.873.658-2.157 1.271-3.826 1.837h-.006l-.258.086a29.97 29.97 0 0 1-1.454.436l-.02.006c-.057.013-.11.033-.172.046l-.182.046c-.235.064-.47.123-.69.175-.13.033-.252.058-.377.092l-.267.065c-.137.026-.267.057-.398.084-.378.077-.756.157-1.134.23l-.489.084a9.172 9.172 0 0 1-.488.077c-.363.054-.745.112-1.128.158l-.032.006c-.115.02-.241.033-.365.046l-.28.032a7.86 7.86 0 0 1-.424.046c-.247.02-.501.046-.756.065l-.045.007c-.046.006-.085.006-.13.013l-.112.006c-.565.041-1.11.066-1.626.077l-.199.004h-.045c-1.737.017-3.137-.139-4.163-.472h-.014c.899-.362 1.638-.564 2.34-.643h-.008a3.34 3.34 0 0 1-.35-.13c.126-.021.25-.039.37-.052l.019.183c.057-.007.11-.007.172-.013.152-.012.306-.015.459-.008.267.053.537.09.809.115a9.463 9.463 0 0 0 .706.043l.023-.005h.044m.043-3.128a7.584 7.584 0 0 0-1.42-.975l-.154-.077a9.101 9.101 0 0 0-1.949-.652c-.665-.153-1.362-.26-2.073-.37l-.114-.02c-.598-.093-1.157-.178-1.698-.282l.04-.19c.54.105 1.1.19 1.683.28l.115.02c.717.112 1.414.215 2.086.372.686.146 1.354.37 1.99.665l.157.076a7.513 7.513 0 0 1 1.46 1.004l-.123.149Zm.182 2.318c-.26-.202-.5-.383-.736-.547-1.062-.744-2.004-1.186-2.978-1.382l-.065-.013c-.746-.143-1.607-.195-2.66-.153h-.006c-.945.032-1.929.13-2.796.215h-.02c-.898.088-1.744.173-2.534.206l-.007-.195c.782-.032 1.63-.115 2.525-.208h.02c.864-.086 1.849-.184 2.8-.217h.006c1.062-.04 1.95.013 2.705.163l.066.013c.994.202 1.968.652 3.05 1.414.234.172.481.344.744.554l-.114.15Z"/><path d="M15.222 17.554h-.057c-.101 0-.207-.005-.313-.006l-.01-.007a13.19 13.19 0 0 0-.875-.509l-.023-.011c-1.007-.536-1.897-.797-2.797-.831h-.209c-.765 0-1.649.112-2.694.332l-.098.02-.076.017a43.61 43.61 0 0 0-2.566.657l-.108.03-.095.024c-.926.261-1.8.503-2.614.672l-.044-.193c.802-.17 1.673-.408 2.587-.668l.013-.003.098-.026.09-.026a54.862 54.862 0 0 1 2.58-.666l.086-.02.09-.018c1.035-.222 1.913-.333 2.678-.339h.192c.927.02 1.837.27 2.84.787l.154.076.043.024c.331.177.693.396 1.12.674l.008.01Z"/><path d="M14.747 17.539h-.025l-.021.005h-.005a13.39 13.39 0 0 1-.707-.043l-.039-.01a4.038 4.038 0 0 0-.695-.102h-.073a3.824 3.824 0 0 0-.459.009c-.057.006-.11.006-.172.012l-.018-.182v-.015c.058-.007.117-.011.176-.012.479-.033.96.014 1.424.138.145.039.292.083.441.134l.057.02h.014l.019.014.053.02.013.005a.063.063 0 0 0 .018.005v.002Zm-8.733 2.453-.073-.177a31.962 31.962 0 0 0 1.767-.828l.046-.02c.689-.338 1.4-.689 2.118-.99l.072.176c-.71.3-1.421.645-2.106.984l-.045.026c-.626.307-1.209.594-1.779.829Zm14.173-.848c-.091.014-.19.033-.294.046-.195.032-.417.065-.658.104l-.058.007-.3.039c-.104.013-.214.033-.331.045h-.024c-.175.027-.364.046-.554.076h-.019l-.241.026a43.75 43.75 0 0 1-4.396.3l-.23.006.153-.172a15.19 15.19 0 0 1 1.101-1.076l.026-.026h.032a29.483 29.483 0 0 0 2.066-.098l.053-.006c.26-.019.516-.046.756-.065.154-.014.3-.033.444-.046l.26-.032c.124-.014.24-.027.352-.046l.04-.006c.39-.046.765-.105 1.127-.157.189-.026.352-.051.489-.076.143-.026.306-.052.488-.085.378-.071.756-.153 1.134-.23.13-.027.261-.057.397-.085l.294-.072a6.68 6.68 0 0 0 .352-.085c.221-.052.45-.11.683-.176l.183-.045a34.31 34.31 0 0 0 1.897-.573l.04-.007.025.007c.487.2.963.423 1.428.67l.208.105-.219.077a44.09 44.09 0 0 1-4.285 1.166l-.39.085c-.145.033-.282.057-.412.085l-.124.026-.208.039c-.072.013-.153.032-.222.046l-.123.025c-.242.046-.46.085-.659.124a1.42 1.42 0 0 1-.281.06Zm-2.256.13h.026c.183-.02.365-.045.541-.071h.024c.11-.013.222-.033.325-.045l.3-.04.052-.006c.242-.04.46-.072.652-.098.097-.021.195-.036.294-.046.091-.013.189-.032.287-.052.195-.032.416-.077.658-.124l.123-.026c.072-.012.144-.026.222-.045l.202-.04.124-.026c.13-.026.267-.058.41-.084l.383-.085a45.185 45.185 0 0 0 4.047-1.09 13.945 13.945 0 0 0-1.166-.54c-.586.196-1.22.39-1.877.567l-.154.039c-.247.066-.488.13-.723.183-.117.026-.235.056-.352.084l-.3.072c-.137.033-.267.057-.397.085-.378.085-.765.163-1.14.234-.183.033-.344.066-.49.085-.144.019-.3.052-.494.076-.366.06-.744.112-1.134.157l-.04.007a6.438 6.438 0 0 0-.358.045l-.26.033c-.144.013-.294.032-.45.046-.248.025-.502.045-.766.064l-.052.007c-.718.052-1.4.084-2.04.098-.306.267-.612.573-.9.873a44.412 44.412 0 0 0 4.146-.3l.273-.039.004.003Z"/><path d="m12.413 20.754-.13-.144c.235-.208.508-.501.795-.807l.163-.176.143.137-.162.171c-.294.31-.567.603-.809.819Zm11.804-4.73 1.282.628-.086.176-1.282-.628.086-.176Zm-8.807 1.707-.006.007a72.06 72.06 0 0 0-.803.79l-.01.01-.104.104-.142-.098.013-.012.013-.014s.64-.689.794-.775l.236-.012h.01Z"/><path d="M15.49 17.73h-.09l-.235.01h-.24c-.076 0-.153-.004-.223-.007h-.337a9.197 9.197 0 0 1-1.262-.153 5.98 5.98 0 0 1-.22-.05l-.09-.038a2.926 2.926 0 0 1-.251-.076l-.02-.005h-.006a3.21 3.21 0 0 1-.35-.13c.125-.021.249-.039.37-.052l.018.182c.057-.006.11-.006.172-.012.153-.012.306-.015.46-.008.267.052.537.09.808.115a11.587 11.587 0 0 0 .707.043h.006l.022-.005h.043v.008h.085c.106 0 .212.006.313.006h.163l-.004-.007h.004c.025.046.052.09.076.137l.028.046.053-.004Z"/><path d="m24.284 15.836-.022.138c-.01.058-.023.118-.036.177l-.009.041v.013l-.052.018a21.338 21.338 0 0 1-1.445.424h-.011c-.2.052-.41.103-.63.153a30.95 30.95 0 0 1-1.556.327c-.201.038-.41.076-.653.117l-.132.024-.057.01-.165.028c-.093.014-.195.029-.3.043a31.71 31.71 0 0 1-3.007.346l-.17.01c-.12.006-.241.01-.363.015h-.24l-.03-.047c-.027-.046-.054-.09-.077-.135a3.632 3.632 0 0 1-.169-.324l-.041-.09a3.31 3.31 0 0 1-.089-.212l-.04-.107-.04-.115-.027-.081a5.826 5.826 0 0 1-.096-.355c-.008-.03-.015-.063-.022-.095a.03.03 0 0 0 0-.017l-.021-.099a1.878 1.878 0 0 1-.015-.083l-.014-.085-.026-.172c0-.013 0-.025-.004-.037a4.701 4.701 0 0 1 .044-1.345 4.767 4.767 0 0 1 .924-2.102 5.23 5.23 0 0 1 .765-.795 4.866 4.866 0 0 1 2.115-.998l.237-.04a4.795 4.795 0 0 1 4.433 1.742c.028.034.057.068.081.102.025.035.05.066.077.098a5.463 5.463 0 0 1 .312.483c.22.398.383.823.485 1.266.012.04.025.077.034.118.014.053.025.105.033.16v.01a3.2 3.2 0 0 1 .026.171c.007.042.011.085.016.128l.01.128a10.557 10.557 0 0 1 .013.24v.01a4.4 4.4 0 0 1-.046.794Z"/></g></svg>