<svg id="root" width="28" height="28" viewBox="0 0 28 28" fill="none" xmlns="http://www.w3.org/2000/svg"><circle cx="14" cy="14" r="14" fill="#000"/><path d="M6.45 7.457c.126-.156.259-.307.392-.457.006-.007.02-.009.025-.016.012-.015.032-.024.044-.039l.011-.015c.093-.085.192-.177.306-.257.402-.303.82-.532 1.26-.683 1.412-.491 2.984-.189 4.217.963 1.722 1.597 1.567 4.17.193 5.88-1.736 2.548-4.72 6.104-.588 9.29.742.573 1.293 1.045 3.634 1.714-1.53.28-2.95.192-4.53-.207-1.117-.624-2.874-1.96-3.471-3.765-.903-2.737 1.59-6.828 2.795-8.404 1.655-2.181-1.022-4.542-2.993-1.906-1.03 1.373-2.833 5.26-2.207 8.143.366 1.635.855 2.827 2.79 4.464a9.15 9.15 0 0 1-1.046-.713C2.785 17.303 3.307 10.893 6.45 7.457Z" fill="url(#a-logo-injective)"/><path d="M21.76 20.543c-.126.156-.259.307-.392.457-.006.007-.02.009-.025.016-.012.015-.032.024-.044.039l-.012.015c-.092.085-.191.177-.305.257-.402.302-.82.532-1.26.683-1.412.491-2.984.188-4.217-.963-1.722-1.597-1.568-4.17-.193-5.88 1.736-2.548 4.72-6.104.588-9.29-.742-.573-1.294-1.045-3.634-1.714 1.53-.28 2.95-.193 4.53.207 1.117.624 2.873 1.96 3.471 3.765.903 2.737-1.59 6.828-2.795 8.404-1.655 2.181 1.022 4.542 2.993 1.906 1.03-1.373 2.833-5.26 2.207-8.143-.366-1.635-.855-2.827-2.79-4.464.359.21.707.447 1.045.713 4.498 4.146 3.976 10.556.833 13.992Z" fill="url(#b-logo-injective)"/><defs><linearGradient id="a-logo-injective" x1="4" y1="14" x2="24.21" y2="14" gradientUnits="userSpaceOnUse"><stop stop-color="#0082FA"/><stop offset="1" stop-color="#00F2FE"/></linearGradient><linearGradient id="b-logo-injective" x1="4" y1="14" x2="24.21" y2="14" gradientUnits="userSpaceOnUse"><stop stop-color="#0082FA"/><stop offset="1" stop-color="#00F2FE"/></linearGradient></defs></svg>