<svg id="root" width="28" height="28" viewBox="0 0 28 28" fill="none" xmlns="http://www.w3.org/2000/svg"><rect width="28" height="28" rx="14" fill="#2E3148"/><path d="m9.285 19.392-5.505.622 3.235-7.456L3.703 8.04l8.046-.918L13.934 2.1l4.789 6.507 5.504-.622-3.218 7.425 3.288 4.478-8.007.91-2.216 5.1-4.79-6.507Zm2.285-.49a4.59 4.59 0 0 1-.668.256l-.21.063 3.102 4.221 1.104-2.534-.202-.024a3.987 3.987 0 0 1-2.706-1.601l-.31-.428-.11.047Zm-1.08-3.825 2.503 3.46a2.722 2.722 0 0 0 2.504 1.103l6.53-.746-2.604-3.545a2.863 2.863 0 0 0-.443-.474l-.156-.125-1.866 4.206-3.242-4.291-3.226.412Zm.109-4.222a2.703 2.703 0 0 0-2.2 1.625L5.77 18.536l4.361-.49a2.86 2.86 0 0 0 .63-.147l.186-.07-2.697-3.724 5.318-.676 1.267-3.025-4.237.451Zm4.12 3.056 1.975 2.612 1.205-2.713.529-1.198a2.752 2.752 0 0 0-.296-2.729l-3.91-5.31-1.758 4.035a3.001 3.001 0 0 0-.186.622l-.031.195 4.556-.482-2.084 4.968ZM19.5 9.775l.078.186a4.01 4.01 0 0 1-.03 3.157l-.21.482.1.07c.195.132.381.287.552.458l.156.156 2.083-4.813-2.729.304ZM5.973 9.036l1.664 2.262.124-.155a3.963 3.963 0 0 1 2.713-1.524l.521-.054.008-.125c.015-.264.062-.52.132-.777l.062-.218-5.224.591Z" fill="#fff"/><path d="M12.838 26a11.91 11.91 0 0 1-8.591-4.976l1.391-.155c.234.28.475.552.731.808a10.691 10.691 0 0 0 5.473 2.962L12.838 26Zm2.9-1.283a10.746 10.746 0 0 0 5.9-3.04c.148-.147.288-.303.436-.466l1.687-.194c-2.03 2.845-5.124 4.649-8.583 4.983l.56-1.283Zm8.365-6.865a10.953 10.953 0 0 0 .156-7.269l.676-1.563a12.04 12.04 0 0 1 1.073 4.984c0 1.741-.358 3.413-1.065 4.976l-.84-1.128Zm-21.03 1.143A11.955 11.955 0 0 1 2 14.004c0-1.757.365-3.444 1.088-5.022l.825 1.127a10.845 10.845 0 0 0-.716 3.895c0 1.174.187 2.332.552 3.436l-.676 1.555Zm1.22-12.081A11.93 11.93 0 0 1 12.83 2l-.56 1.29a10.643 10.643 0 0 0-6.274 3.43l-1.703.194Zm18.077.225a12.06 12.06 0 0 0-.732-.809 10.765 10.765 0 0 0-5.457-2.962L15.178 2a11.91 11.91 0 0 1 8.583 4.976l-1.392.163Z" fill="#fff"/></svg>