<svg id="root" width="28" height="28" viewBox="0 0 28 28" fill="none" xmlns="http://www.w3.org/2000/svg"><g clip-path="url(#a-logo-irisnet)"><path d="m8.498 20.292-6.423.722 3.771-8.702-3.86-5.264 9.388-1.07 2.55-5.866 5.59 7.596 6.422-.722-3.754 8.66 3.833 5.228-9.341 1.064-2.59 5.95-5.586-7.596Zm2.668-.577a4.59 4.59 0 0 1-.78.297l-.247.067L13.759 25l1.285-2.957-.232-.03a4.627 4.627 0 0 1-3.158-1.868l-.362-.498-.126.067Zm-1.26-4.463 2.92 4.04a3.178 3.178 0 0 0 2.918 1.29l7.622-.867-3.035-4.141a3.226 3.226 0 0 0-.518-.552l-.18-.148-2.172 4.908-3.78-5.004-3.775.474Zm.126-4.92a3.174 3.174 0 0 0-2.57 1.893l-3.06 7.064 5.084-.57c.252-.029.499-.088.737-.175l.218-.08-3.147-4.346 6.205-.787 1.475-3.525-4.942.526Zm4.802 3.564 2.3 3.044 1.402-3.167.616-1.394a3.192 3.192 0 0 0-.347-3.18l-4.556-6.2-2.05 4.71a3.26 3.26 0 0 0-.218.727l-.039.23 5.317-.563-2.425 5.793ZM20.42 9.07l.09.216a4.679 4.679 0 0 1-.034 3.685l-.249.56.12.08c.23.155.446.334.645.533l.182.18 2.433-5.615-3.187.361ZM4.634 8.207l1.938 2.643.142-.185c.77-1 1.927-1.649 3.167-1.78l.608-.065.011-.148c.02-.306.073-.61.154-.908l.07-.252-6.09.695Z" fill="url(#b-logo-irisnet)"/><path d="M12.645 28c-4.032-.39-7.655-2.486-10.027-5.81l1.624-.182c.269.33.554.647.848.944a12.503 12.503 0 0 0 6.382 3.455L12.645 28Z" fill="url(#c-logo-irisnet)"/><path d="M16.027 26.496a12.46 12.46 0 0 0 6.883-3.544c.168-.171.338-.353.51-.544l1.968-.224c-2.364 3.321-5.981 5.421-10.013 5.816l.652-1.504Z" fill="url(#d-logo-irisnet)"/><path d="M25.788 18.488A12.7 12.7 0 0 0 26.6 14c0-1.366-.216-2.71-.638-3.993l.79-1.82A13.979 13.979 0 0 1 28 14c0 2.027-.42 3.979-1.246 5.807l-.966-1.319Z" fill="url(#e-logo-irisnet)"/><path d="M1.254 19.827A14.004 14.004 0 0 1 0 14c0-2.047.426-4.015 1.268-5.855l.964 1.316A12.673 12.673 0 0 0 1.4 14c0 1.372.216 2.719.641 4.007l-.787 1.82Z" fill="url(#f-logo-irisnet)"/><path d="M2.677 5.729C5.046 2.459 8.64.386 12.637 0l-.653 1.5a12.46 12.46 0 0 0-7.322 4.002l-1.985.227Z" fill="url(#g-logo-irisnet)"/><path d="M23.76 5.992c-.268-.33-.554-.647-.85-.944a12.497 12.497 0 0 0-6.37-3.452L15.366 0c4.03.392 7.647 2.49 10.016 5.81l-1.621.182Z" fill="url(#h-logo-irisnet)"/></g><defs><linearGradient id="b-logo-irisnet" x1="2.691" y1="25.27" x2="24.53" y2="3.431" gradientUnits="userSpaceOnUse"><stop stop-color="#009DDE"/><stop offset=".5" stop-color="#694D9F"/><stop offset="1" stop-color="#ED3554"/></linearGradient><linearGradient id="c-logo-irisnet" x1="5.074" y1="27.653" x2="26.913" y2="5.813" gradientUnits="userSpaceOnUse"><stop stop-color="#009DDE"/><stop offset=".5" stop-color="#694D9F"/><stop offset="1" stop-color="#ED3554"/></linearGradient><linearGradient id="d-logo-irisnet" x1="11.304" y1="33.883" x2="33.144" y2="12.044" gradientUnits="userSpaceOnUse"><stop stop-color="#009DDE"/><stop offset=".5" stop-color="#694D9F"/><stop offset="1" stop-color="#ED3554"/></linearGradient><linearGradient id="e-logo-irisnet" x1="9.085" y1="31.665" x2="30.925" y2="9.825" gradientUnits="userSpaceOnUse"><stop stop-color="#009DDE"/><stop offset=".5" stop-color="#694D9F"/><stop offset="1" stop-color="#ED3554"/></linearGradient><linearGradient id="f-logo-irisnet" x1="-3.666" y1="18.913" x2="18.173" y2="-2.926" gradientUnits="userSpaceOnUse"><stop stop-color="#009DDE"/><stop offset=".5" stop-color="#694D9F"/><stop offset="1" stop-color="#ED3554"/></linearGradient><linearGradient id="g-logo-irisnet" x1="-5.88" y1="16.699" x2="15.959" y2="-5.141" gradientUnits="userSpaceOnUse"><stop stop-color="#009DDE"/><stop offset=".5" stop-color="#694D9F"/><stop offset="1" stop-color="#ED3554"/></linearGradient><linearGradient id="h-logo-irisnet" x1=".35" y1="22.929" x2="22.189" y2="1.09" gradientUnits="userSpaceOnUse"><stop stop-color="#009DDE"/><stop offset=".5" stop-color="#694D9F"/><stop offset="1" stop-color="#ED3554"/></linearGradient><clipPath id="a-logo-irisnet"><path fill="#fff" d="M0 0h28v28H0z"/></clipPath></defs></svg>