<svg width="28" height="28" viewBox="0 0 28 28" fill="none" xmlns="http://www.w3.org/2000/svg">
<g clip-path="url(#clip0_804_83)">
<rect width="28" height="28" rx="14" fill="white"/>
<path d="M4.39176 24.3814C10.0902 29.7435 19.0565 29.4709 24.4186 23.7724C29.7807 18.074 29.5081 9.10765 23.8096 3.74556C18.1112 -1.61654 9.14486 -1.34388 3.78276 4.35455C-1.57933 10.053 -1.30668 19.0193 4.39176 24.3814Z" fill="url(#paint0_linear_804_83)"/>
<path fill-rule="evenodd" clip-rule="evenodd" d="M7.37531 5.55566C7.37531 5.55566 11.2707 7.81748 12.5422 10.3927C13.0044 10.2657 13.4901 10.1966 13.9853 10.1966C14.4899 10.1966 14.9844 10.2683 15.4544 10.3999C16.7222 7.82169 20.6248 5.55566 20.6248 5.55566C20.7628 7.02535 20.6338 10.553 19.0939 13.5038C19.0048 13.3509 18.9188 13.208 18.833 13.0711C19.3451 12.0133 19.4945 11.3315 19.507 10.0309C19.2117 11.2114 19.0394 11.876 18.4995 12.57C18.1674 12.1016 17.7813 11.6442 17.1848 11.0006L17.1853 10.9836C17.3836 9.78012 17.6879 9.05535 18.323 7.73875C17.0816 9.19463 16.4885 10.3758 16.5063 11.4285L16.4962 11.4186C16.5041 12.015 16.7078 12.57 17.1005 13.1101L17.1754 12.544L17.5142 12.7511C17.4721 12.6234 17.4299 12.517 17.3904 12.417C17.3476 12.3088 17.3078 12.2082 17.2742 12.0962C17.2785 12.0999 17.283 12.1036 17.2875 12.1073C17.2863 12.1036 17.2852 12.0999 17.2841 12.0962C17.7709 12.5005 18.2086 12.9624 18.9442 13.7807L18.9344 13.798L18.9248 13.7887C18.9599 13.9785 18.9782 14.1715 18.9782 14.3666C18.9782 14.6813 18.9307 15.0756 18.8417 15.5204C18.9812 15.6012 19.1187 15.7118 19.2081 15.8855C19.0195 15.8887 18.8895 15.9044 18.7457 15.954C18.7406 15.9751 18.7354 15.9962 18.7302 16.0175C19.2408 16.5106 19.4724 16.8604 19.8056 17.5148C19.2816 17.0789 18.9502 16.8094 18.5764 16.5863C18.5595 16.6439 18.5423 16.7019 18.5245 16.7601C18.8117 17.268 18.8672 17.6424 18.7357 18.2881C18.4888 18.0744 18.3111 17.9242 18.1531 17.8408C18.0371 18.1449 17.9106 18.451 17.7747 18.7535C17.6834 18.8417 17.6101 18.9375 17.5377 19.032C17.3439 19.2854 17.156 19.5308 16.6449 19.6032C16.6724 20.3031 16.5176 20.6098 16.3531 20.9359C16.2706 21.0993 16.1857 21.2676 16.12 21.4927C15.9904 21.6441 15.858 21.7851 15.7234 21.914C14.8906 22.3308 14.8472 22.3102 14.0694 21.9415L13.9721 21.8954C13.1001 22.3079 13.0373 22.3299 12.2977 21.9615C12.1209 21.7971 11.948 21.6115 11.78 21.4087C11.7187 21.2245 11.645 21.0783 11.5731 20.9359C11.4085 20.6098 11.2538 20.3031 11.2812 19.6032C10.7702 19.5308 10.5823 19.2854 10.3884 19.032C10.3399 18.9686 10.2909 18.9048 10.2365 18.8429C10.0868 18.5151 9.9482 18.1826 9.82195 17.8523C9.66288 17.9353 9.48414 18.0862 9.23492 18.302C9.10303 17.6542 9.15935 17.2795 9.44898 16.769C9.43144 16.7117 9.41435 16.6548 9.39775 16.5981C9.02248 16.8215 8.69069 17.0913 8.16506 17.5287C8.49881 16.873 8.73067 16.5231 9.24326 16.0286C9.23833 16.0087 9.23347 15.9889 9.22868 15.9692C9.08345 15.9185 8.95272 15.9026 8.76254 15.8993C8.85249 15.7246 8.9911 15.6137 9.13148 15.5329C9.04087 15.0829 8.9925 14.6842 8.9925 14.3666C8.9925 14.1729 9.01049 13.9813 9.04508 13.7928C9.78714 12.9669 10.2268 12.5025 10.7159 12.0962C10.6823 12.2082 10.6425 12.3088 10.5997 12.4169C10.5601 12.5169 10.518 12.6233 10.4759 12.7511L10.8147 12.5439L10.8896 13.1101C11.9738 11.6188 11.6173 10.0142 9.67708 7.73876C10.3121 9.05535 10.6165 9.78015 10.8147 10.9836L10.8154 11.0006C10.2188 11.6442 9.83267 12.1016 9.50061 12.57C8.9607 11.876 8.78836 11.2114 8.49312 10.0309C8.50563 11.3315 8.65507 12.0133 9.1671 13.0711C9.08127 13.2079 8.99541 13.3508 8.9063 13.5037C7.36637 10.5529 7.23728 7.02534 7.37531 5.55566ZM12.6159 16.5482L12.1737 15.7198L10.9326 15.4988C10.9867 16.376 11.5745 16.7139 12.6159 16.5482ZM15.9682 15.7198L15.526 16.5482C16.5674 16.7139 17.1551 16.376 17.2093 15.4988L15.9682 15.7198ZM13.191 20.0377C12.9981 20.1699 12.879 20.3513 12.879 20.5515C12.879 20.9557 13.3644 21.2832 13.9631 21.2832C14.5619 21.2832 15.0473 20.9557 15.0473 20.5515C15.0473 20.3409 14.9155 20.151 14.7046 20.0176C14.4908 20.101 14.2178 20.151 13.9204 20.151C13.6478 20.151 13.3957 20.109 13.191 20.0377Z" fill="white"/>
</g>
<defs>
<linearGradient id="paint0_linear_804_83" x1="3.78276" y1="4.35455" x2="24.4186" y2="23.7724" gradientUnits="userSpaceOnUse">
<stop stop-color="#032963"/>
<stop offset="0.604502" stop-color="#040D21"/>
</linearGradient>
<clipPath id="clip0_804_83">
<rect width="28" height="28" rx="14" fill="white"/>
</clipPath>
</defs>
</svg>
