<svg id="root" width="28" height="28" viewBox="0 0 28 28" fill="none" xmlns="http://www.w3.org/2000/svg"><circle cx="14" cy="14" r="14" fill="#fff"/><path d="M21.065 9.522c-.24-.19-.528-.449-1.051-.514-.49-.064-.99.264-1.329.482-.338.217-.977.856-1.24 1.05-.264.195-.94.376-2.028 1.029-1.088.652-5.357 3.393-5.357 3.393l1.111.014-4.953 2.55h.495L6 18.07s.63.166 1.157-.167v.153s5.899-2.325 7.037-1.723l-.694.204c.06 0 1.18.074 1.18.074s.038.7.713 1.148c.676.445.69.69.69.69s-.351.144-.351.324c0 0 .518-.157 1-.143.481.014.902.143.902.143s-.037-.194-.504-.324c-.473-.134-.93-.639-1.158-.916a1.298 1.298 0 0 1-.19-1.27c.162-.42.727-.652 1.894-1.254 1.375-.713 1.69-1.24 1.884-1.652.195-.412.482-1.232.644-1.616.203-.496.453-.76.662-.917.203-.157 1.134-.505 1.134-.505s-.708-.615-.935-.796Z" fill="#000"/></svg>