<svg id="root" width="28" height="28" viewBox="0 0 28 28" fill="none" xmlns="http://www.w3.org/2000/svg"><g clip-path="url(#a-logo-likeCoin)"><path d="M14 28c7.732 0 14-6.268 14-14S21.732 0 14 0 0 6.268 0 14s6.268 14 14 14Z" fill="url(#b-logo-likeCoin)"/><path d="M14 27.125C6.763 27.125.875 21.237.875 14S6.763.875 14 .875 27.125 6.763 27.125 14 21.237 27.125 14 27.125Zm0-25.139C7.375 1.986 1.986 7.376 1.986 14S7.376 26.014 14 26.014 26.014 20.624 26.014 14 20.624 1.986 14 1.986Z" fill="#28646E"/><path d="M13.132 11.602a.373.373 0 0 1-.247-.653c1.054-.928 1.52-1.695 1.603-1.84.31-.54.808-.819 1.331-.748a.373.373 0 0 1-.1.74c-.305-.04-.51.252-.583.38-.093.162-.615 1.021-1.757 2.028a.374.374 0 0 1-.247.093ZM6.849 17.93a.373.373 0 0 1-.24-.66c.434-.342.893-.65 1.374-.918a.374.374 0 0 1 .334.668c-.43.244-.84.519-1.23.823a.37.37 0 0 1-.238.087Z" fill="#28646E"/><path d="M16.233 14.388c.148.138.32.078.479-.072 1.082-1.03 2.227-2.649 2.61-3.489.08-.18.246-.28.423-.208.208.084.205.441.016.83-.5 1.028-1.193 2.162-2.561 3.58a.284.284 0 0 0-.064.326c.017.036.04.069.07.095.121.108.317.101.5-.085.711-.725 1.19-1.286 1.601-1.868.105-.153.232-.214.357-.187.18.036.208.21.153.417-.088.336-1.033 1.572-1.407 1.99-1.014 1.132-2.029 1.752-3.98 2.767-.682.357-1.192.693-1.501 1.214-.28.475-.365.63-.394.69a.475.475 0 0 0 .208.631.46.46 0 0 0 .623-.239c0-.006-.014.008.353-.613a2.665 2.665 0 0 1 1.15-1.014c1.953-.89 2.753-1.594 3.886-2.727.517-.518 1.231-1.625 1.428-1.953.546-.919.26-1.706-.233-1.84a.062.062 0 0 1-.04-.093c.382-.653.555-1.105.628-1.455.097-.476-.038-1.053-.69-1.194a.063.063 0 0 1-.047-.077c.04-.151.082-.341.11-.466.136-.618-.254-1.177-.723-1.278a1.089 1.089 0 0 0-.88.184.088.088 0 0 1-.114-.015.683.683 0 0 0-.487-.227c-.41-.007-.812.119-1.106.747-.21.45-.524 1.053-1.442 2.072-.853.945-2.04 1.866-2.771 2.347-.129.084-.309.064-.286-.108.034-.274.328-2.113.378-2.656.082-.88-.392-1.286-.924-1.357-.437-.06-1.1.067-1.464 1.062-.215.584-.657 1.543-1.034 3.087-.265 1.086-.308 2.353-.066 3.808a.367.367 0 0 1-.048.254c-.29.477-.714 1.105-.951 1.653a.47.47 0 0 0 .195.598.46.46 0 0 0 .636-.207c.143-.297.429-.857.544-1.086.197-.404.328-.67.381-.838.048-.153.077-.33-.01-.733-.15-.678-.202-1.952.075-3.075a31.696 31.696 0 0 1 1.1-3.429c.111-.274.27-.36.429-.346.159.014.459.09.372.65-.154 1.007-.372 2.286-.445 2.715-.035.21-.075.704.314.928.304.176.638.078 1.007-.168.832-.554 2.264-1.684 3.164-2.694.944-1.061 1.245-1.692 1.487-2.264.111-.26.396-.258.496-.229.101.03.223.165.137.452-.21.697-1.072 2.294-2.733 3.792-.188.17-.162.37-.066.476.096.105.265.168.459 0 1.492-1.273 2.345-2.794 2.727-3.608.128-.271.238-.55.328-.835.081-.237.263-.321.39-.295.182.039.302.225.244.532-.093.392-.23.772-.407 1.134-.478 1.015-1.489 2.375-2.578 3.542a.308.308 0 0 0-.005.455ZM9.484 9.329c.058-.05.035-.115.018-.168a17.917 17.917 0 0 0-.657-1.545c-.06-.108-.137-.123-.22-.091-.107.04-.24.142-.446.319-.203.178-.319.299-.374.4-.042.078-.037.156.063.23.198.147 1.202.74 1.446.857.05.023.111.053.169 0l.001-.002Zm8.278 9.497c-.076.005-.098.072-.116.122a17.684 17.684 0 0 0-.416 1.628c-.018.122.033.18.118.205.11.033.277.035.548.017.272-.018.435-.042.541-.09.08-.036.123-.1.09-.22a18.023 18.023 0 0 0-.63-1.557c-.026-.049-.057-.11-.133-.105h-.002Zm.653-.524c-.035.068.009.12.044.163.167.21.984 1.044 1.174 1.2.095.08.172.066.237.007.086-.078.174-.219.3-.46.124-.241.189-.394.203-.508.012-.088-.021-.158-.143-.191a17.941 17.941 0 0 0-1.658-.271c-.053-.004-.122-.01-.158.059v.001ZM9.088 10.03c-.013-.075-.081-.09-.133-.103A17.789 17.789 0 0 0 7.29 9.69c-.123-.004-.176.054-.192.143-.02.114-.005.279.044.547.048.267.089.428.147.528.046.075.115.111.23.065.228-.094 1.255-.643 1.478-.796.046-.03.104-.067.09-.143v-.005ZM14 25.001a.417.417 0 1 0 .027-.833.417.417 0 0 0-.027.833Zm0-21.17A.417.417 0 1 0 14 3a.417.417 0 0 0 0 .833Zm2.74 20.81a.417.417 0 1 0 0-.834.417.417 0 0 0 0 .834ZM11.26 4.192a.417.417 0 1 0 0-.833.417.417 0 0 0 0 .833Zm8.033 19.392a.414.414 0 0 0 .43-.417.416.416 0 1 0-.43.416ZM8.708 5.248a.416.416 0 1 0 .027-.832.416.416 0 0 0-.027.832ZM21.485 21.9a.417.417 0 1 0 .027-.833.417.417 0 0 0-.027.833ZM6.515 6.931a.416.416 0 1 0 .027-.832.416.416 0 0 0-.027.832Zm17.71 10.225a.417.417 0 1 0 0-.834.417.417 0 0 0 0 .834Zm-1.058 2.553a.417.417 0 1 0 0-.834.417.417 0 0 0 0 .834ZM4.833 9.124a.417.417 0 1 0 0-.833.417.417 0 0 0 0 .833Zm-1.057 2.553a.417.417 0 1 0 0-.833.417.417 0 0 0 0 .833Zm20.809 2.74a.416.416 0 1 0 0-.833.416.416 0 0 0 0 .832Zm-21.17 0a.416.416 0 1 0 0-.833.416.416 0 0 0 0 .832Zm20.81-2.74a.416.416 0 1 0 0-.833.417.417 0 0 0 0 .833Zm-20.45 5.479a.417.417 0 1 0 0-.833.417.417 0 0 0 0 .833Zm19.392-8.032a.416.416 0 1 0 0-.833.416.416 0 0 0 0 .833ZM4.833 19.709a.417.417 0 1 0 0-.834.417.417 0 0 0 0 .834ZM21.485 6.931a.417.417 0 1 0 .027-.832.417.417 0 0 0-.027.832Zm-14.97 14.97a.417.417 0 1 0 .027-.833.417.417 0 0 0-.027.833ZM19.293 5.25a.416.416 0 1 0 .027-.83.416.416 0 0 0-.027.83ZM8.708 23.584a.415.415 0 0 0 .397-.58.417.417 0 1 0-.397.58ZM16.74 4.192a.416.416 0 1 0 0-.833.416.416 0 0 0 0 .833Zm-5.48 20.449a.417.417 0 1 0 0-.833.417.417 0 0 0 0 .833Z" fill="#28646E"/></g><defs><linearGradient id="b-logo-likeCoin" x1="0" y1="14" x2="28" y2="14" gradientUnits="userSpaceOnUse"><stop stop-color="#D2F0F0"/><stop offset="1" stop-color="#F0E6B4"/></linearGradient><clipPath id="a-logo-likeCoin"><path fill="#fff" d="M0 0h28v28H0z"/></clipPath></defs></svg>