<svg width="28" height="28" viewBox="0 0 28 28" fill="none" xmlns="http://www.w3.org/2000/svg">
<circle cx="14" cy="14" r="14" fill="black"/>
<path d="M7.98099 9.76043C7.76373 10.1846 7.54129 10.6036 7.48439 10.7019C7.43266 10.795 7.39127 10.883 7.40162 10.8881C7.41197 10.8933 8.7259 11.5917 10.3295 12.44C11.928 13.2884 13.2367 13.9971 13.2367 14.0178C13.2367 14.0385 11.928 14.7472 10.3295 15.5955C8.7259 16.4439 7.41197 17.1422 7.40679 17.1474C7.39127 17.1578 8.32241 18.9424 8.37414 18.9993C8.39483 19.02 9.63117 18.5493 11.121 17.9492C12.8591 17.2457 13.8989 16.8526 14.0127 16.8526C14.1265 16.8526 15.1766 17.2509 16.9044 17.9441C18.3942 18.5493 19.6357 19.02 19.6564 18.9993C19.7081 18.9424 20.6392 17.1578 20.6237 17.1474C20.6134 17.1422 19.2994 16.4387 17.701 15.5904C16.0974 14.7472 14.7886 14.0333 14.7886 14.0178C14.7886 14.0023 16.0974 13.2884 17.701 12.4452C19.2994 11.5968 20.6134 10.8933 20.6237 10.8881C20.6392 10.8778 19.7081 9.09311 19.6512 9.03621C19.6305 9.01552 18.3942 9.48626 16.9044 10.0863C15.1714 10.7898 14.1265 11.183 14.0127 11.183C13.8989 11.183 12.8591 10.7898 11.1313 10.0915C9.64669 9.49143 8.41552 9 8.40518 9C8.38966 9 8.20343 9.34142 7.98099 9.76043Z" fill="#24F7DE"/>
</svg>
