<?xml version="1.0" encoding="UTF-8"?><svg id="Layer_1" xmlns="http://www.w3.org/2000/svg" viewBox="0 0 833.33 833.33"><defs><style>.cls-1{fill:#ff0;}</style></defs><g><rect class="cls-1" x="422.47" y="416.7" width="155.81" height="155.81"/><path class="cls-1" d="M266.58,260.82h0c86,0,155.81,69.82,155.81,155.81h-155.81v-155.81h0Z"/><polygon class="cls-1" points="266.58 416.7 176.62 572.52 356.54 572.52 266.58 416.7"/><circle class="cls-1" cx="578.85" cy="338.72" r="77.86"/></g><path class="cls-1" d="M416.67,833.33c-111.3,0-215.93-43.34-294.63-122.04C43.34,632.6,0,527.96,0,416.67S43.34,200.74,122.04,122.04C200.74,43.34,305.37,0,416.67,0s215.93,43.34,294.63,122.04c78.7,78.7,122.04,183.33,122.04,294.63s-43.34,215.93-122.04,294.63c-78.7,78.7-183.33,122.04-294.63,122.04Zm0-781.7c-97.5,0-189.17,37.97-258.12,106.92C89.6,227.49,51.63,319.16,51.63,416.67s37.97,189.17,106.92,258.12c68.95,68.95,160.62,106.92,258.12,106.92s189.17-37.97,258.12-106.92c68.95-68.95,106.92-160.62,106.92-258.12s-37.97-189.17-106.92-258.12c-68.95-68.95-160.62-106.92-258.12-106.92Z"/></svg>