<svg id="root" width="28" height="28" viewBox="0 0 28 28" fill="none" xmlns="http://www.w3.org/2000/svg"><circle cx="14" cy="14" r="14" fill="#000"/><path d="M20.359 7.56a6.362 6.362 0 0 0-6.362 6.37 6.365 6.365 0 0 1-12.726 0 12.726 12.726 0 0 1 25.45 0 6.362 6.362 0 0 0-6.362-6.37Z" fill="#fff"/><path d="M7.632 21.562a7.641 7.641 0 0 1-7.624-7.624 13.997 13.997 0 0 1 27.992 0h-2.541a5.091 5.091 0 1 0-10.183 0 7.64 7.64 0 0 1-7.644 7.624Zm6.365-19.085A11.467 11.467 0 0 0 2.541 13.93a5.092 5.092 0 1 0 10.185 0 7.641 7.641 0 0 1 7.624-7.624 7.562 7.562 0 0 1 2.542.435 11.431 11.431 0 0 0-8.895-4.264Z" fill="#000"/><path d="M13.997 26.603A12.722 12.722 0 0 1 1.271 13.879a6.364 6.364 0 0 0 12.726 0 6.362 6.362 0 0 1 12.724 0 12.723 12.723 0 0 1-12.724 12.724Z" fill="#6300FF"/><path d="M13.997 27.873A14.01 14.01 0 0 1 0 13.88h2.541a5.093 5.093 0 0 0 10.186 0 7.632 7.632 0 1 1 15.264 0 14.011 14.011 0 0 1-13.994 13.994Zm-8.903-6.796a11.45 11.45 0 0 0 20.356-7.198 5.09 5.09 0 1 0-10.182 0 7.644 7.644 0 0 1-7.624 7.624 7.56 7.56 0 0 1-2.55-.426Z" fill="#000"/></svg>