<svg id="root" width="28" height="28" viewBox="0 0 28 28" fill="none" xmlns="http://www.w3.org/2000/svg"><g clip-path="url(#a2-logo-nym)"><path d="M23.898 4.102c-5.46-5.474-14.336-5.474-19.796 0-5.474 5.474-5.474 14.336 0 19.796 5.474 5.474 14.336 5.474 19.796 0 5.474-5.46 5.474-14.336 0-19.796Zm-1.204 18.592c-4.802 4.802-12.6 4.802-17.402 0-4.802-4.802-4.802-12.6 0-17.402 4.802-4.802 12.6-4.802 17.402 0 4.816 4.816 4.816 12.6 0 17.402Z" fill="#fff"/><path d="M22.694 5.306c-4.802-4.802-12.6-4.802-17.402 0-4.802 4.802-4.802 12.6 0 17.402 4.802 4.802 12.6 4.802 17.402 0 4.816-4.816 4.816-12.6 0-17.402ZM8.82 23.898a10.675 10.675 0 0 1-2.366-1.722V5.838c.728-.7 1.554-1.288 2.45-1.764L19.18 19.726V4.102c.868.462 1.666 1.05 2.366 1.722v16.338c-.728.7-1.554 1.288-2.45 1.764L8.82 8.274v15.624Z" fill="#141521"/><path d="M21.56 22.162V5.838a11.366 11.366 0 0 0-2.366-1.722v15.61L8.89 4.06a10.905 10.905 0 0 0-2.45 1.764v16.338c.714.672 1.512 1.26 2.366 1.722V8.274L19.11 23.94a10.963 10.963 0 0 0 2.45-1.778Z" fill="#fff"/></g><defs><clipPath id="a2-logo-nym"><path fill="#fff" d="M0 0h28v28H0z"/></clipPath></defs></svg>