<svg id="root" width="28" height="28" viewBox="0 0 28 28" fill="none" xmlns="http://www.w3.org/2000/svg"><circle cx="14" cy="14" r="14" fill="#fff"/><g clip-path="url(#b-logo-onomy)"><path d="M10.708 10.408C8.003 8.9 6.95 10.078 6.71 12.174c-.62-4.031.65-5.555 2.905-4.534a10.724 10.724 0 0 1 2.675 1.752 2.5 2.5 0 0 0 1.689.62" fill="#353340"/><path d="M13.967 10.013a2.675 2.675 0 0 0 1.7-.642 11.47 11.47 0 0 1 2.713-1.73c2.26-1.022 3.531.502 2.909 4.533-.282.2-.558.402-.85.623.027-.635-.06-1.372-.07-1.925-.03-1.804-2.567-1.15-3.877.369-.76.882.275 2.088 1.458 2.89.212.06.428.104.646.131a330.6 330.6 0 0 0-1.681 1.388c-.822-.772-1.874-1.761-2.926-2.69" fill="#353340"/><path d="M14 10.012a2.667 2.667 0 0 1-1.676-.64 11.462 11.462 0 0 0-2.709-1.73c-2.257-1.022-3.526.501-2.904 4.532.281.2.556.401.848.622-.026-.634.06-1.37.07-1.925.031-1.804 2.564-1.15 3.87.369.76.882-.274 2.089-1.455 2.89a4.28 4.28 0 0 1-.646.131c.477.392 1.026.846 1.68 1.389.82-.772 1.872-1.763 2.922-2.692 1.05-.929 0-2.946 0-2.946Zm.992 8.176a6.237 6.237 0 0 0 2.431 2.808c2.58 1.275 4.078-.708 3.424-2.84-.294-.956-1.393-2.848-3.102-3.544-.429-.175-3.228 2.437-2.753 3.576Zm1.17-1.888c.122-.683.452-.627.634-.549.739.317 1.627 1.094 1.94 1.878.45 1.12-.32 1.823-1.325 1.17-.916-.595-1.417-1.55-1.248-2.5Z" fill="#353340"/><path d="M10.256 14.612c-1.71.696-2.808 2.588-3.102 3.544-.654 2.131.844 4.115 3.424 2.84a6.238 6.238 0 0 0 2.431-2.808c.475-1.14-2.324-3.75-2.753-3.576Zm.333 4.187c-1.004.653-1.774-.05-1.325-1.17.314-.784 1.203-1.561 1.941-1.878.182-.078.512-.134.633.549.169.95-.332 1.904-1.249 2.5Z" fill="#353340"/><path d="M18.385 7.641c4.93-1.706 2.018 7.036-4.385 7.036S4.686 5.934 9.615 7.64c-5.373-2.79-6.765 4.203-.323 8.028 1.914 1.137 3.842 3.23 1.286 5.327 1.619-.806 2.02-2.263 3.422-2.263 1.402 0 1.803 1.457 3.422 2.263-2.556-2.097-.628-4.19 1.286-5.327 6.442-3.825 5.05-10.819-.323-8.028Z" fill="#00000E"/></g><defs><clipPath id="b-logo-onomy"><path fill="#fff" transform="translate(5 7)" d="M0 0h18v14.397H0z"/></clipPath></defs></svg>