<svg id="root" width="28" height="28" viewBox="0 0 28 28" fill="none" xmlns="http://www.w3.org/2000/svg"><circle cx="14" cy="14" r="14" fill="#fff"/><path d="M22.536 8.317c-.182-.686-.765-1.373-1.815-2.138-.842-.609-1.736-.959-2.449-.959-.142 0-.272.013-.402.04-.324.064-.609.297-.79.647-.22.415-.272.972-.13 1.309.052.104.117.233.195.35-.687.414-1.076.531-1.128.544a7.675 7.675 0 0 1 4.212 3.46l.013-.155c.039-.428.168-.92.35-1.426.181.052.363.078.544.078.48 0 .894-.195 1.153-.544.26-.35.363-.817.247-1.206Z" fill="#5E12A0"/><path d="M20.67 9.614c1.179.323 1.658-.584 1.503-1.193-.169-.609-.713-1.23-1.672-1.93s-1.93-.985-2.553-.856c-.622.13-.803 1.076-.648 1.439a3 3 0 0 0 .402.583c-.246.168-.48.298-.674.414a7.663 7.663 0 0 1 3.007 2.398c.09-.35.22-.661.337-.933.09.013.194.039.297.078Z" fill="url(#a2-logo-osmosis)"/><path d="M13.918 22.313a7.244 7.244 0 1 0 0-14.488 7.244 7.244 0 0 0 0 14.488Z" fill="url(#b2-logo-osmosis)"/><path opacity=".6" d="M21.577 7.825c-.985-1.037-1.815-1.309-2.813-1.53-.777-.18-.57-.621.376-.53-.453-.156-.88-.195-1.192-.13-.622.13-.803 1.076-.648 1.438.065.143.207.35.402.584a9.86 9.86 0 0 1-.894.53c.116.053.259.118.427.208.441.233.92.622.92.622-.725-.622-.57-.907.428-1.607.311-.22.881-.194 1.413.078.531.272 1.153.96 1.153.96l-.596 1.14.116.038c.376.104.674.078.908-.013.272-.168.984-.738 0-1.788Z" fill="#A98698"/><path d="M18.752 6.918c.259.104.596.285 1.01.557.493.324.92.687 1.193.972-.454.596-.752 1.413-.933 1.983.09.13.194.259.285.389.09-.325.246-.804.453-1.283.052.013.117.013.182.013.155 0 .337-.026.48-.143.103-.078.22-.22.206-.48 0-.246-.194-.557-.596-.933a9.507 9.507 0 0 0-1.062-.842c-1.115-.739-1.892-.946-2.242-.596-.233.233-.207.518-.13.726-.414.272-.764.466-.997.596.155.052.297.116.453.181.415-.22 1.01-.596 1.698-1.14ZM21.2 8.77c.039.065.052.13.052.168 0 .117-.04.156-.065.182a.46.46 0 0 1-.246.065 3.22 3.22 0 0 1 .259-.415ZM18 6.841c.039-.04.143-.066.311-.04-.13.104-.26.195-.389.285-.013-.09 0-.181.078-.246Z" fill="#5E12A0"/><path d="M13.918 7.397a7.67 7.67 0 0 0-7.672 7.672 7.671 7.671 0 0 0 7.672 7.672 7.67 7.67 0 1 0 0-15.344Zm0 14.916a7.24 7.24 0 0 1-7.244-7.244 7.24 7.24 0 0 1 7.244-7.244 7.24 7.24 0 0 1 7.244 7.244 7.248 7.248 0 0 1-7.244 7.244Z" fill="#5E12A0"/><path opacity=".6" d="M13.918 22.313a7.244 7.244 0 1 0 0-14.488 7.244 7.244 0 0 0 0 14.488Z" fill="url(#c2-logo-osmosis)"/><path opacity=".6" d="M13.866 21.432a7.225 7.225 0 0 1-5.987-8.307 7.202 7.202 0 0 1 2.41-4.315 7.23 7.23 0 0 0-3.524 5.106c-.635 3.952 2.047 7.671 5.987 8.306 2.203.363 4.328-.324 5.896-1.671a7.265 7.265 0 0 1-4.782.88Z" fill="#A98698"/><path opacity=".6" d="M15.071 7.929a7.229 7.229 0 0 0-5.054 1.036l-.051.052c.557-.337 1.373-.635 1.373-.635-2.1 1.218-2.747 2.605-2.747 2.605.816-1.581 3.214-2.695 5.093-2.773 1.879-.078 3.11.48 4.613 1.684 1.503 1.219 2.41 3.707 2.32 5.677-.078 1.97-1.115 3.563-1.115 3.563.713-.92 1.14-1.594 1.413-2.28.052-.208.104-.415.13-.636A7.21 7.21 0 0 0 15.07 7.93Z" fill="url(#d2-logo-osmosis)"/><path d="M20.8 15.004a6.886 6.886 0 0 1-6.882 6.881c-3.797 0-6.894-3.084-6.894-6.88h13.775Z" fill="url(#e2-logo-osmosis)"/><path opacity=".6" d="M20.255 15.004a6.884 6.884 0 0 1-6.61 6.881h.273a6.886 6.886 0 0 0 6.881-6.88h-.544Z" fill="url(#f2-logo-osmosis)"/><path opacity=".7" d="M7.996 15.004h-.972a6.886 6.886 0 0 0 6.88 6.881c.17 0 .325 0 .48-.013-3.563-.259-6.388-3.24-6.388-6.868Z" fill="url(#g2-logo-osmosis)"/><path d="M20.786 15.069c0-.79-1.374-1.244-3.2-1.4-1.323-.103-2.657.026-4.186.493-1.322.389-2.514.324-3.383.22-1.93-.22-2.993-.246-2.993.687 0 1.348 2.747 3.032 6.868 2.45 2.086-.299 3.162-.908 4.393-1.322 1.335-.441 2.501-.428 2.501-1.128Z" fill="url(#h2-logo-osmosis)"/><path d="M16.173 11.804a1.166 1.166 0 1 0 0-2.333 1.166 1.166 0 0 0 0 2.333Zm1.905.868a.492.492 0 1 0 0-.985.492.492 0 0 0 0 .985Z" fill="#fff"/><path opacity=".6" d="M19.84 9.704h-.026c-.078-.013-.13-.09-.116-.181.116-.597.609-1.167.635-1.193a.145.145 0 0 1 .207-.013.145.145 0 0 1 .013.208c-.013.013-.467.544-.57 1.062-.013.078-.078.117-.143.117Z" fill="url(#i2-logo-osmosis)"/><path d="M18.272 5.22c.726 0 1.62.35 2.45.96 1.05.764 1.632 1.438 1.814 2.138a1.41 1.41 0 0 1-.247 1.192c-.272.35-.673.544-1.153.544-.168 0-.35-.026-.544-.078a6.201 6.201 0 0 0-.272.881 7.667 7.667 0 0 1 1.257 4.212 7.67 7.67 0 0 1-7.672 7.672c-4.238 0-7.659-3.434-7.659-7.672a7.67 7.67 0 0 1 7.672-7.672c.933 0 1.827.169 2.657.48.155-.078.35-.182.57-.311-.078-.117-.156-.233-.195-.35-.142-.35-.09-.894.13-1.309.181-.337.454-.57.79-.648a1.92 1.92 0 0 1 .402-.039Zm0-.22c-.155 0-.31.013-.453.052-.39.09-.726.35-.946.764-.247.48-.311 1.102-.143 1.504.026.051.052.116.09.181-.09.052-.18.104-.271.143a7.984 7.984 0 0 0-2.644-.454 7.78 7.78 0 0 0-3.071.622A7.903 7.903 0 0 0 8.32 9.51a7.903 7.903 0 0 0-1.698 2.514A7.791 7.791 0 0 0 6 15.095c0 1.063.207 2.1.622 3.071A7.903 7.903 0 0 0 8.32 20.68a7.904 7.904 0 0 0 2.514 1.698 7.79 7.79 0 0 0 3.071.622 7.79 7.79 0 0 0 3.071-.622 7.905 7.905 0 0 0 2.514-1.698 7.902 7.902 0 0 0 1.698-2.514 7.79 7.79 0 0 0 .622-3.071 7.83 7.83 0 0 0-1.244-4.25 4.94 4.94 0 0 1 .168-.584c.13.026.272.04.402.04.544 0 1.024-.221 1.335-.636.298-.389.415-.933.285-1.386-.207-.752-.803-1.465-1.905-2.255C19.983 5.363 19.037 5 18.272 5Z" fill="#fff"/><path opacity=".2" d="M13.44 20.473a.363.363 0 1 0 0-.726.363.363 0 0 0 0 .726Z" fill="#fff"/><g opacity=".4"><path opacity=".6" d="M13.231 20.343a.368.368 0 0 1 0-.518c.026-.026.052-.039.078-.065a.268.268 0 0 0-.13.078.368.368 0 0 0 0 .518.374.374 0 0 0 .44.065.362.362 0 0 1-.388-.078Z" fill="url(#j2-logo-osmosis)"/></g><path opacity=".3" d="M13.568 20.007a.078.078 0 1 0 0-.156.078.078 0 0 0 0 .156Z" fill="#fff"/><path opacity=".2" d="M15.331 20.292a.363.363 0 1 0 0-.726.363.363 0 0 0 0 .726Z" fill="#fff"/><g opacity=".4"><path opacity=".6" d="M15.123 20.162a.368.368 0 0 1 0-.518c.026-.026.052-.04.078-.065a.268.268 0 0 0-.13.078.368.368 0 0 0 0 .518.374.374 0 0 0 .44.065.362.362 0 0 1-.388-.078Z" fill="url(#k2-logo-osmosis)"/></g><path opacity=".3" d="M15.46 19.825a.078.078 0 1 0 0-.156.078.078 0 0 0 0 .156Z" fill="#fff"/><path opacity=".2" d="M14.397 21.134a.272.272 0 1 0 0-.544.272.272 0 0 0 0 .544Z" fill="#fff"/><g opacity=".4"><path opacity=".6" d="M14.242 21.03a.282.282 0 0 1 0-.389c.013-.012.039-.025.052-.038a.233.233 0 0 0-.091.064.282.282 0 0 0 0 .39c.09.09.22.103.337.038a.282.282 0 0 1-.298-.065Z" fill="url(#l2-logo-osmosis)"/></g><path opacity=".3" d="M14.488 20.771a.052.052 0 1 0 0-.104.052.052 0 0 0 0 .104Z" fill="#fff"/><path opacity=".2" d="M16.07 20.94a.272.272 0 1 0 0-.545.272.272 0 0 0 0 .544Z" fill="#fff"/><g opacity=".4"><path opacity=".6" d="M15.914 20.836a.282.282 0 0 1 0-.389c.013-.013.039-.026.052-.039-.04.013-.065.04-.091.065a.282.282 0 0 0 0 .389c.09.09.22.103.337.039a.282.282 0 0 1-.298-.065Z" fill="url(#m2-logo-osmosis)"/></g><path opacity=".3" d="M16.16 20.577a.052.052 0 1 0 0-.104.052.052 0 0 0 0 .104Z" fill="#fff"/><path opacity=".2" d="M11.896 20.343a.596.596 0 1 0 0-1.192.596.596 0 0 0 0 1.192Z" fill="#fff"/><g opacity=".4"><path opacity=".6" d="M11.56 20.123a.595.595 0 0 1 0-.842.468.468 0 0 1 .129-.091.681.681 0 0 0-.207.13.594.594 0 0 0 0 .842.59.59 0 0 0 .725.09.577.577 0 0 1-.648-.129Z" fill="url(#n2-logo-osmosis)"/></g><path opacity=".3" d="M12.104 19.566a.13.13 0 1 0 0-.26.13.13 0 0 0 0 .26Z" fill="#fff"/><path opacity=".2" d="M17.223 18.879a.596.596 0 1 0 0-1.192.596.596 0 0 0 0 1.192Z" fill="#fff"/><g opacity=".4"><path opacity=".6" d="M16.873 18.659a.594.594 0 0 1 0-.843.464.464 0 0 1 .13-.09.694.694 0 0 0-.208.13.595.595 0 0 0 0 .841.59.59 0 0 0 .725.091.581.581 0 0 1-.647-.13Z" fill="url(#o2-logo-osmosis)"/></g><path opacity=".3" d="M17.43 18.102a.13.13 0 1 0 0-.26.13.13 0 0 0 0 .26Z" fill="#fff"/><defs><linearGradient id="c2-logo-osmosis" x1="12.756" y1="22.211" x2="15.073" y2="7.916" gradientUnits="userSpaceOnUse"><stop stop-color="#81FFFF"/><stop offset=".62" stop-color="#fff" stop-opacity="0"/></linearGradient><linearGradient id="d2-logo-osmosis" x1="19.023" y1="10.149" x2="13.033" y2="15.646" gradientUnits="userSpaceOnUse"><stop offset=".289" stop-color="#fff"/><stop offset=".78" stop-color="#fff" stop-opacity="0"/></linearGradient><linearGradient id="e2-logo-osmosis" x1="7.03" y1="18.441" x2="20.796" y2="18.441" gradientUnits="userSpaceOnUse"><stop stop-color="#0002E9"/><stop offset=".995" stop-color="#FF00C7"/></linearGradient><linearGradient id="f2-logo-osmosis" x1="21.447" y1="15.608" x2="13.954" y2="22.689" gradientUnits="userSpaceOnUse"><stop offset=".289" stop-color="#fff"/><stop offset=".78" stop-color="#fff" stop-opacity="0"/></linearGradient><linearGradient id="g2-logo-osmosis" x1="7.03" y1="18.441" x2="14.394" y2="18.441" gradientUnits="userSpaceOnUse"><stop stop-color="#000292"/><stop offset=".995" stop-color="#7D00C7"/></linearGradient><linearGradient id="h2-logo-osmosis" x1="7.039" y1="15.641" x2="20.787" y2="15.641" gradientUnits="userSpaceOnUse"><stop stop-color="#000292"/><stop offset=".995" stop-color="#BE00C7"/></linearGradient><linearGradient id="i2-logo-osmosis" x1="20.561" y1="8.267" x2="19.573" y2="9.873" gradientUnits="userSpaceOnUse"><stop offset=".289" stop-color="#fff"/><stop offset=".78" stop-color="#fff" stop-opacity="0"/></linearGradient><linearGradient id="j2-logo-osmosis" x1="13.072" y1="20.121" x2="13.62" y2="20.121" gradientUnits="userSpaceOnUse"><stop offset=".289" stop-color="#fff"/><stop offset=".78" stop-color="#fff" stop-opacity="0"/></linearGradient><linearGradient id="k2-logo-osmosis" x1="14.963" y1="19.937" x2="15.511" y2="19.937" gradientUnits="userSpaceOnUse"><stop offset=".289" stop-color="#fff"/><stop offset=".78" stop-color="#fff" stop-opacity="0"/></linearGradient><linearGradient id="l2-logo-osmosis" x1="14.123" y1="20.865" x2="14.535" y2="20.865" gradientUnits="userSpaceOnUse"><stop offset=".289" stop-color="#fff"/><stop offset=".78" stop-color="#fff" stop-opacity="0"/></linearGradient><linearGradient id="m2-logo-osmosis" x1="15.79" y1="20.67" x2="16.201" y2="20.67" gradientUnits="userSpaceOnUse"><stop offset=".289" stop-color="#fff"/><stop offset=".78" stop-color="#fff" stop-opacity="0"/></linearGradient><linearGradient id="n2-logo-osmosis" x1="11.301" y1="19.762" x2="12.196" y2="19.762" gradientUnits="userSpaceOnUse"><stop offset=".289" stop-color="#fff"/><stop offset=".78" stop-color="#fff" stop-opacity="0"/></linearGradient><linearGradient id="o2-logo-osmosis" x1="16.619" y1="18.298" x2="17.514" y2="18.298" gradientUnits="userSpaceOnUse"><stop offset=".289" stop-color="#fff"/><stop offset=".78" stop-color="#fff" stop-opacity="0"/></linearGradient><radialGradient id="a2-logo-osmosis" cx="0" cy="0" r="1" gradientUnits="userSpaceOnUse" gradientTransform="translate(21.936 7.605) scale(5.79193)"><stop stop-color="#FFEAFF" stop-opacity=".6"/><stop offset=".681" stop-color="#A087C9"/><stop offset="1" stop-color="#10002F"/></radialGradient><radialGradient id="b2-logo-osmosis" cx="0" cy="0" r="1" gradientUnits="userSpaceOnUse" gradientTransform="translate(18.714 10.075) scale(14.1708)"><stop stop-color="#FFEAFF" stop-opacity=".6"/><stop offset=".681" stop-color="#A087C9"/><stop offset="1" stop-color="#10002F"/></radialGradient></defs></svg>