<svg id="root" width="28" height="28" viewBox="0 0 28 28" fill="none" xmlns="http://www.w3.org/2000/svg"><circle cx="14" cy="14" r="14" fill="#060607"/><path d="M24.38 13.932c0-.674-2.97-1.394-7.108-1.619 2.474-.225 4.138-.675 4.138-1.124 0-.54-2.428-1.08-5.667-1.26 1.214-.135 2.069-.405 2.069-.72 0-.36-1.664-.81-3.778-.81-2.07 0-3.779.406-3.779.81 0 .36.765.585 1.934.72-3.148.135-5.532.675-5.532 1.215 0 .45 1.664.9 4.093 1.124-4.048.27-7.017.945-7.017 1.664 0 .765 2.924 1.395 6.972 1.665-2.384.225-4.048.674-4.048 1.124 0 .585 2.339 1.08 5.533 1.26-1.125.135-1.935.36-1.935.72s1.665.809 3.779.809c2.069 0 3.778-.45 3.778-.81 0-.315-.855-.584-2.07-.72 3.24-.134 5.668-.719 5.668-1.259 0-.45-1.664-.9-4.093-1.124 4.093-.27 7.062-.945 7.062-1.665Zm-13.09-2.024c.045 0 .045-.045.045-.045l.045-.045 2.159-1.26a.907.907 0 0 1 .495-.134c.18 0 .36.045.494.135 0 0 2.114 1.214 2.16 1.214a.7.7 0 0 1 .36.495c0 .045.044.18 0 .225h-.451c-.135 0-.27-.045-.405-.045-.18 0-.36-.045-.54-.045-.27-.045-.54-.045-.81-.09-.315-.045-.63-.09-.944-.09a6.707 6.707 0 0 0-.945-.09c-.27-.045-.54-.045-.81-.09-.18 0-.36-.045-.54-.045h-.179c-.045 0-.045 0-.09-.045-.045 0-.045 0-.045-.045Zm5.757 3.779s0 .045-.045.045v.045c-.09.09-.135.18-.27.27l-2.204 1.259a.906.906 0 0 1-.494.135.906.906 0 0 1-.495-.135l-1.934-1.125c-.045 0-.045-.045-.045-.045-.045-.044-.045-.044-.045-.09.045-.09.18-.09.18-.09h.18c.09 0 .135 0 .225-.044.09 0 .135 0 .224-.045.27-.045.54-.09.81-.09.27-.045.54-.045.765-.09.27-.045.54-.045.764-.045.27 0 .495-.045.72-.045h1.574c.09 0 .135.045.135.045-.045 0-.045 0-.045.045Zm.135-1.215c0 .27 0 .27-.54.36l-.36.045h-.269c-.9.09-1.844.18-2.744.225-.405.045-.81.045-1.214.045H11.2c-.09 0-.18.045-.225-.045-.045-.045-.045-.135-.045-.225v-1.844c0-.27.09-.315.585-.36h.315c1.529 0 3.193.225 5.172.72h.045c.09.045.135 0 .135.27v.81Z" fill="url(#a-logo-rizon)"/><defs><linearGradient id="a-logo-rizon" x1="20.974" y1="9.067" x2="7.919" y2="18.23" gradientUnits="userSpaceOnUse"><stop offset=".04" stop-color="#5FF19D"/><stop offset=".205" stop-color="#59EEA3"/><stop offset=".427" stop-color="#49E5B4"/><stop offset=".681" stop-color="#2FD6D0"/><stop offset=".957" stop-color="#0AC2F7"/><stop offset="1" stop-color="#04BEFE"/></linearGradient></defs></svg>