<svg width="28" height="28" viewBox="0 0 28 28" fill="none" xmlns="http://www.w3.org/2000/svg">
  <g clip-path="url(#clip0_120_123)">
  <path d="M14 0C21.732 0 28 6.26798 28 14C28 21.732 21.732 28 14 28C6.26798 28 0 21.732 0 14C0 6.26798 6.26798 0 14 0Z" fill="black"/>
  <path d="M22.1434 18.2459L19.4263 21.1593C19.3675 21.2226 19.2963 21.2731 19.2172 21.3076C19.1381 21.3422 19.0526 21.3601 18.9663 21.3602H6.08608C6.02465 21.3601 5.96456 21.3422 5.91317 21.3085C5.86178 21.2749 5.82133 21.2269 5.79675 21.1706C5.77218 21.1143 5.76456 21.0521 5.77483 20.9915C5.78509 20.931 5.81279 20.8747 5.85454 20.8296L8.56858 17.9162C8.62736 17.853 8.69852 17.8025 8.77767 17.7679C8.85681 17.7334 8.94223 17.7155 9.02859 17.7154H21.9088C21.9707 17.7141 22.0318 17.7312 22.084 17.7645C22.1363 17.7978 22.1777 17.8458 22.2027 17.9025C22.2279 17.9592 22.2355 18.0221 22.225 18.0832C22.2144 18.1443 22.186 18.2009 22.1434 18.2459ZM19.4263 12.3778C19.3673 12.3148 19.2961 12.2645 19.217 12.2299C19.1379 12.1954 19.0526 12.1774 18.9663 12.1769H6.08608C6.02465 12.1769 5.96456 12.1949 5.91317 12.2286C5.86178 12.2622 5.82133 12.3101 5.79675 12.3664C5.77218 12.4227 5.76456 12.485 5.77483 12.5455C5.78509 12.6061 5.81279 12.6624 5.85454 12.7075L8.56858 15.6224C8.62757 15.6854 8.6988 15.7356 8.77789 15.7702C8.85698 15.8047 8.94229 15.8228 9.02859 15.8232H21.9088C21.9701 15.8229 22.0299 15.8047 22.0811 15.771C22.1324 15.7372 22.1725 15.6892 22.1969 15.633C22.2213 15.5768 22.2288 15.5146 22.2184 15.4542C22.2081 15.3938 22.1805 15.3376 22.1388 15.2927L19.4263 12.3778ZM6.08608 10.2847H18.9663C19.0526 10.2847 19.1381 10.2668 19.2172 10.2322C19.2963 10.1977 19.3675 10.1471 19.4263 10.0839L22.1434 7.1705C22.186 7.1255 22.2144 7.06889 22.225 7.00778C22.2355 6.94668 22.2279 6.88382 22.2027 6.82711C22.1777 6.77039 22.1363 6.72237 22.084 6.68906C22.0318 6.65576 21.9707 6.63868 21.9088 6.63996H9.02859C8.94223 6.64005 8.85681 6.65793 8.77767 6.69249C8.69852 6.72705 8.62736 6.77755 8.56858 6.84083L5.85454 9.7542C5.81279 9.79926 5.78509 9.85554 5.77483 9.9161C5.76456 9.97667 5.77218 10.0389 5.79675 10.0952C5.82133 10.1515 5.86178 10.1994 5.91317 10.2331C5.96456 10.2668 6.02465 10.2847 6.08608 10.2847Z" fill="url(#paint0_linear_120_123)"/>
  </g>
  <defs>
  <linearGradient id="paint0_linear_120_123" x1="7.15943" y1="21.7113" x2="20.6652" y2="6.48508" gradientUnits="userSpaceOnUse">
  <stop offset="0.08" stop-color="#9945FF"/>
  <stop offset="0.3" stop-color="#8752F3"/>
  <stop offset="0.5" stop-color="#5497D5"/>
  <stop offset="0.6" stop-color="#43B4CA"/>
  <stop offset="0.72" stop-color="#28E0B9"/>
  <stop offset="0.97" stop-color="#19FB9B"/>
  </linearGradient>
  <clipPath id="clip0_120_123">
  <rect width="28" height="28" fill="white"/>
  </clipPath>
  </defs>
  </svg>
  