<svg id="root" width="28" height="28" viewBox="0 0 28 28" fill="none" xmlns="http://www.w3.org/2000/svg"><g clip-path="url(#a-logo-starname)"><circle cx="14" cy="14" r="14" fill="#fff"/><path d="M11.81 22.183c-.18.456-.36.915-.537 1.375l-.172.438h-.106c-.29-.138-.606-.22-.903-.34-.12-.047-.3-.048-.345-.153-.043-.096.07-.231.117-.348l1.759-4.366a.595.595 0 0 1 .03-.056c.058.044.097.093.036.162a.06.06 0 0 0-.013.071c.023.058.08.123-.035.148-.01 0-.012.012-.008.022.062.137-.026.3.078.43a.148.148 0 0 1 .014.152c-.034.081-.052.152.017.227a.095.095 0 0 1-.003.123c-.034.043-.068-.003-.117-.019.038.201.056.406.053.611a.655.655 0 0 1-.022.22c-.02.056-.036.117.043.157.08.04.064.09.031.154-.068.136-.14.27-.127.431 0 .021-.01.046 0 .065.078.159.059.362.21.496Z" fill="#2F69BC"/><path d="m22.732 16.408 1.26.484v.106c-.152.379-.267.77-.395 1.158-.037.112-.072.139-.184.086-.208-.096-.422-.176-.635-.263-.112-.133-.113-.282-.105-.45.005-.131.035-.26.029-.393a2.121 2.121 0 0 1 .03-.454.28.28 0 0 0-.006-.155c-.016-.039-.037-.081.006-.12Z" fill="#4154AD"/><path d="m16.888 23.996-.09-.258a.105.105 0 0 0 .009-.101c-.053-.086-.02-.176-.026-.263-.022-.308.058-.62-.025-.925a.137.137 0 0 1-.005-.078c.068-.192.033-.391.037-.585.004-.252.019-.507-.018-.76a.602.602 0 0 1 .013-.26.403.403 0 0 0 .009-.195c-.022-.105-.053-.21.013-.315.026-.043-.01-.094-.024-.139-.026-.077-.043-.154.028-.219.173.388.324.785.474 1.18 0 .028-.014.062.028.073a.222.222 0 0 1 .047.113.122.122 0 0 0-.032.084c0 .235-.053.474 0 .706.017.079-.008.158-.006.235.007.39.011.778-.015 1.167-.009.137.062.275.006.414l-.316.13-.107-.004Z" fill="#93309D"/><path d="m23.991 11.104-1.023.394c-.035.006-.033-.02-.033-.04.006-.418.004-.837-.003-1.255 0-.085-.014-.176.036-.256.168-.07.338-.137.504-.21.09-.04.082.036.096.075.127.357.249.715.373 1.072.014.04.015.086.053.115l-.003.105Z" fill="#B32498"/><path d="M11.81 22.183c-.097-.059-.192-.119-.158-.257a.094.094 0 0 0-.03-.084c-.098-.121-.06-.273-.048-.4a.563.563 0 0 1 .13-.27c.04-.047.041-.109-.016-.11-.126 0-.092-.09-.08-.14.072-.274.032-.545-.01-.817-.007-.047-.016-.088.032-.112.076-.038.034.066.09.07a.105.105 0 0 0-.036-.15c-.06-.04-.052-.073-.016-.128.052-.08.074-.162-.016-.245-.05-.045-.028-.127-.028-.19 0-.086.028-.173-.053-.243a.028.028 0 0 1 0-.045c.043-.029.067.033.112.026.028-.053-.033-.073-.04-.112-.004-.024-.036-.063-.017-.069.135-.04.034-.113.03-.172a600.683 600.683 0 0 1 1.235-3.075c.007-.02.02-.037.03-.056a.142.142 0 0 1 .043.13c-.022.353-.071.702-.096 1.053a.248.248 0 0 0 .016.116.25.25 0 0 1-.012.249c-.053.088-.006.181.014.268.032.139.047.275-.01.41-.035.085.035.162.017.245-.053.233.003.467-.004.701-.004.11.03.223-.005.335-.027.083.065.063.094.1-.082.289-.21.56-.32.841-.26.674-.523 1.346-.806 2.01a1.2 1.2 0 0 0-.042.121Z" fill="#3167BA"/><path d="M16.02 10.057c-.166.453-.35.9-.538 1.344-.087.207-.17.416-.256.624-.115.025-.118-.066-.128-.134-.025-.164-.053-.338-.019-.493a1.06 1.06 0 0 0-.013-.496.33.33 0 0 1 .02-.156.105.105 0 0 0-.015-.11c-.067-.064-.053-.12-.016-.198a.796.796 0 0 0 .069-.383c-.01-.117-.026-.232-.026-.35 0-.088-.025-.17.028-.254.028-.043 0-.092-.016-.138-.033-.105-.053-.206.02-.313.074-.106.038-.192-.083-.29l.644-1.656c.09-.23.186-.458.279-.684.016-.032.04-.053.073-.028a.13.13 0 0 1 .047.129c-.007.06-.031.117-.044.177-.037.175-.003.348.003.52.01.254-.011.505-.022.757-.008.096-.002.193.017.287.037.153.021.306.014.456 0 .102-.009.204-.03.304a.81.81 0 0 0-.008.364c.03.152.01.305.04.455.02.091-.018.18-.04.266Z" fill="#3661B6"/><path d="M12.81 8.368a1982.488 1982.488 0 0 1 1.187 2.969c.009.01.013.024.012.038-.065.203-.148.4-.227.6-.149.372-.293.747-.443 1.12-.02.052-.03.11-.084.143h-.02l-.49-1.24-.059-.157a.476.476 0 0 0 .019-.368c-.058-.177.004-.357 0-.535a.853.853 0 0 0-.008-.183.324.324 0 0 1 .032-.266c.021-.033.041-.079.021-.112-.083-.139-.044-.285-.021-.421.033-.208-.036-.407-.024-.613.007-.105-.003-.21 0-.315.006-.126.023-.253-.02-.378a.332.332 0 0 1 .022-.219c.015-.047.037-.096.103-.063Z" fill="#8037A0"/><path d="M13.995 11.367v-.03l.652-1.632.4-1c.05-.013.085-.014.116.045.05.094.069.2 0 .27-.1.106-.046.199-.008.294a.193.193 0 0 1 .009.163c-.084.158-.023.316-.005.47a.756.756 0 0 1-.006.11c-.005.159 0 .317-.106.449-.04.052.012.07.042.088.041.027.072.053.048.106a.46.46 0 0 0 .009.391c.03.071.052.152-.028.215a.052.052 0 0 0-.018.046c.052.129-.04.269.03.394.02.037-.003.067-.005.1-.003.078.005.152.1.174-.11.331-.255.649-.382.973-.016.04-.026.082-.04.124-.012.042-.01.085-.044.117a.057.057 0 0 1-.037 0c-.109-.12-.123-.282-.186-.421-.123-.357-.274-.702-.41-1.053-.047-.127-.117-.25-.13-.393Z" fill="#3463B8"/><path d="M12.973 19.208c-.162.02-.158.022-.121-.142.015-.072.038-.141-.004-.224-.049-.096.034-.206-.006-.32-.053-.153.046-.324.007-.468-.053-.187.061-.35.026-.52a1.72 1.72 0 0 0-.058-.236.173.173 0 0 1 .032-.193.086.086 0 0 0 .023-.117c-.106-.158-.014-.328-.024-.49-.014-.224.087-.44.053-.672-.01-.066.039-.146.015-.224l.27-.693a.397.397 0 0 0 .045-.148l.018-.006a.077.077 0 0 1 .032.022c.093.191.15.396.237.589.164.415.335.829.488 1.247a.064.064 0 0 1-.012.057l-.526 1.313c-.164.408-.329.817-.495 1.225Z" fill="#3365B9"/><path d="M12.81 8.368a.257.257 0 0 0-.088.29.414.414 0 0 1 .022.2c-.015.231-.042.47 0 .694.033.208.027.42-.02.626a.162.162 0 0 0 .042.12.175.175 0 0 1-.01.217.21.21 0 0 0-.03.196c.045.184.01.372-.005.556-.006.078-.011.162.026.211.069.094 0 .185.023.276.009.034-.028.081-.083.085l-.585-1.441c-.04-.097-.075-.195-.111-.293a.352.352 0 0 0 .02-.168c-.027-.316.016-.627.016-.94 0-.389-.02-.777-.012-1.165.006-.297-.003-.594-.006-.891 0-.11.013-.219.017-.328a.14.14 0 0 1 .047-.115c.258.62.505 1.242.737 1.87Z" fill="#7B39A1"/><path d="M16.02 10.057c-.007-.158-.017-.322-.01-.477.006-.131-.063-.246-.034-.381.015-.072-.005-.161.025-.24a.1.1 0 0 0-.011-.11c-.012-.015-.024-.044-.017-.058.121-.24.033-.484.013-.726 0-.026.001-.051.005-.077a6.6 6.6 0 0 0 .013-1.089 1.022 1.022 0 0 1 .052-.41c.015-.047.044-.153-.086-.121l.552-1.422c.03-.08.068-.157.102-.237a.125.125 0 0 1 .078.112c.024.225.053.449-.014.673-.064.21-.139.425-.017.645a.239.239 0 0 1 .013.142c-.047.334.008.663.043.994.001.04 0 .078-.005.117-.003.14-.085.278.006.418.02.03.005.08-.01.116-.061.152 0 .32-.061.473-.007.017.006.033.016.048-.21.54-.42 1.08-.652 1.61Z" fill="#3760B6"/><path d="M16.674 8.445a.06.06 0 0 1-.055-.062c0-.01.003-.02.008-.029.06-.146-.007-.307.06-.452.029-.064.032-.127-.038-.173a.065.065 0 0 1-.016-.084.826.826 0 0 0 .024-.533c-.03-.111.012-.232-.004-.35-.01-.067.005-.137-.042-.2a.1.1 0 0 1-.006-.087c.083-.158.052-.316-.011-.466a.316.316 0 0 1-.014-.264c.053-.1.02-.22.095-.309.028-.034.039-.07.005-.105-.033-.036-.016-.07.014-.1.012-.013.03-.036.026-.043-.094-.148.021-.337-.095-.48.083-.22.168-.438.25-.658.02-.053.049-.061.098-.037.121.057.244.112.366.167a.203.203 0 0 0 .053.182.158.158 0 0 1 .037.17c-.096.19-.048.386-.045.58a.97.97 0 0 0 .052.36.158.158 0 0 1-.04.158.202.202 0 0 0-.043.197c.071.199-.01.41.058.608.014.038-.016.075-.033.11a.364.364 0 0 0-.044.24c-.059.24-.186.45-.27.68-.12.333-.26.656-.39.98Z" fill="#385FB5"/><path d="M10.936 4.05c.106-.077.167-.058.215.073.153.416.316.829.474 1.243 0 .228.065.458-.017.684a.327.327 0 0 0 .008.158c.024.169.023.339.031.507.014.238-.066.474.008.712a.429.429 0 0 1 .006.17 5.43 5.43 0 0 0 0 .91c.004.127-.011.254-.045.377-.01.043-.011.114-.094.09l-.607-1.526c-.02-.225.073-.436.04-.67-.035-.245-.004-.505.028-.757.003-.026.017-.052.008-.077-.105-.27.053-.557-.053-.827a.052.052 0 0 1 0-.038c.113-.253-.034-.517.038-.774.025-.083-.056-.165-.04-.255Z" fill="#773BA2"/><path d="M8.284 11.262c.48.182.956.369 1.426.575.018.173.056.344.053.52 0 .03.022.071-.007.086-.11.06-.052.117-.022.199.045.11.05.231.012.344-.031.087-.092.182.013.273.034.03.007.073-.028.099l-1.447-.574a.162.162 0 0 1-.076-.182c.035-.143-.016-.288.024-.428.004-.017.006.002 0-.013-.057-.186.03-.385-.053-.569a.503.503 0 0 1-.027-.207c.006-.084.042-.132.132-.123Z" fill="#2C6DBE"/><path d="M10.936 4.05c.06.115.12.231.065.368a.084.084 0 0 0-.005.026c-.01.157.067.33.032.46a.963.963 0 0 0-.01.45c.022.113-.008.225-.03.336-.005.03-.022.056-.01.088.115.316-.043.639.015.948.04.216-.033.416-.017.623.004.053 0 .086-.058.096-.161-.332-.276-.684-.42-1.022-.088-.21-.166-.421-.248-.632.008-.236-.042-.474-.01-.71.027-.21-.012-.424.008-.637.006-.056-.005-.113.032-.163.215-.088.434-.166.656-.232Z" fill="#733CA2"/><path d="M11.525 8.971c.106-.105.078-.246.1-.373.025-.14-.029-.278-.024-.418.007-.229.033-.459.02-.687-.01-.166 0-.332-.008-.494-.011-.297.053-.601-.052-.893-.02-.058.021-.1.034-.148a.777.777 0 0 0 .003-.384.316.316 0 0 1 .029-.21c.161.374.31.753.446 1.134a8.197 8.197 0 0 0-.01 1.25c.005.094.003.189-.006.282-.025.32.006.64.005.96 0 .327-.046.655-.016.983.005.053.005.105-.058.132-.17-.37-.31-.753-.463-1.134Z" fill="#793AA1"/><path d="M8.284 11.262c-.163.053-.095.185-.078.278.017.092.045.193.062.292.005.027.012.052-.01.072-.056.05-.043.08.005.136.062.074-.03.166-.01.25.039.164-.062.335.03.494l-1.24-.487a.06.06 0 0 1 0-.063.61.61 0 0 0 .066-.453.39.39 0 0 1 .02-.182c.044-.171-.052-.348.024-.517a.06.06 0 0 0-.01-.053c-.064-.105-.016-.163.088-.192.355.14.711.266 1.053.425Z" fill="#2A6FC0"/><path d="M9.733 13.357c0-.032.043-.079.005-.095-.19-.077-.042-.194-.023-.276.026-.113.03-.301-.053-.39-.042-.047-.058-.112 0-.13.088-.03.067-.06.063-.134-.005-.136 0-.27-.043-.402a.076.076 0 0 1 .03-.093c.374.134.738.287 1.103.444.025.175.053.35.016.526a.541.541 0 0 0 .011.273c.074.238.005.468-.03.7l-1.08-.422Z" fill="#2E6ABD"/><path d="M5.137 9.996c.316.118.632.236.94.375a.271.271 0 0 1 .111.239c0 .018-.008.038 0 .053.127.267-.035.53-.008.794.011.109.053.215.05.33 0 .135.008.135-.13.135a12.47 12.47 0 0 1-1.057-.421c.009-.053 0-.095.062-.14.073-.052.047-.157-.012-.221a.267.267 0 0 1-.06-.206c0-.052.019-.105-.016-.152a.053.053 0 0 1 0-.062c.096-.098.047-.234.092-.347.035-.089-.047-.174-.049-.263-.004-.057-.032-.135.077-.114Z" fill="#2773C3"/><path d="M20.833 12.34a14.92 14.92 0 0 1-1.021.402.105.105 0 0 1-.078-.108 9.41 9.41 0 0 0-.073-1.288.098.098 0 0 1 .016-.074l1.053-.425a.48.48 0 0 1 .077.285 5.018 5.018 0 0 0-.009.61c.016.199-.07.406.035.598Z" fill="#A32A9B"/><path d="M6.1 11.919c.08-.014.104-.035.092-.138-.02-.189-.064-.375-.062-.566a.18.18 0 0 1 .047-.12.178.178 0 0 0 .024-.23.309.309 0 0 1-.047-.252c.018-.094-.053-.162-.077-.244.39.145.776.3 1.157.468-.048.059-.154.105-.037.198a.041.041 0 0 1 .006.037.48.48 0 0 0-.015.364.52.52 0 0 1-.03.216c-.02.068-.04.14.017.205a.054.054 0 0 1 .02.04.053.053 0 0 1-.02.041.1.1 0 0 0-.018.15c.028.037 0 .057-.024.076a.376.376 0 0 0-.085.13 12.588 12.588 0 0 1-.949-.375Z" fill="#2970C1"/><path d="M6.258 16.017c.259-.113.52-.22.79-.31.114-.014.131.07.128.147-.017.322-.02.645-.019.967 0 .062.016.12.02.18.005.07.02.15-.048.205-.302.135-.609.261-.921.369-.066-.105-.048-.222-.048-.331 0-.28.003-.558-.022-.837a.503.503 0 0 1 .12-.39Z" fill="#5F44A5"/><path d="M5.137 9.996c-.135.06-.038.166-.017.22a.295.295 0 0 1 .003.236.357.357 0 0 0-.019.167c0 .026.023.058-.006.072-.069.035-.1.053-.017.12.026.021-.02.132-.016.204 0 .026-.007.049.02.066.125.082.076.207.082.319v.013c-.088-.035-.074.072-.124.089-.341-.105-.665-.26-1-.382-.05-.018-.049-.053-.034-.093l.43-1.237c.014-.043.025-.081.089-.052.2.087.405.172.61.258Z" fill="#2674C4"/><path d="M10.81 13.781a.402.402 0 0 1 .01-.303c.059-.142 0-.263-.016-.386a1.405 1.405 0 0 1-.005-.335c.01-.102.047-.207-.011-.313a.175.175 0 0 1 .025-.163c.29.115.585.214.866.348.165.106.145.276.143.436a.949.949 0 0 0 .009.26.172.172 0 0 1-.012.15.086.086 0 0 0-.018.074c.052.139-.035.23-.106.327-.098.072-.213.1-.326.136a.053.053 0 0 1-.037-.014l-.522-.217Z" fill="#2F69BC"/><path d="M7.129 17.206c.032-.201-.025-.4-.015-.602.011-.237.003-.474.024-.712.009-.096-.006-.15-.091-.184.31-.137.627-.262.947-.375.05.072.074.16.064.247-.011.136 0 .27-.003.405a.25.25 0 0 1 0 .09c-.077.191-.003.38.006.568.003.071.01.14-.035.2-.295.136-.595.253-.897.363Z" fill="#6442A5"/><path d="M19.677 11.272c.044.198.07.4.076.603 0 .255.049.51.007.764-.007.043.04.066.053.103a13.12 13.12 0 0 1-.895.356.066.066 0 0 1-.033-.053c.02-.219-.07-.433-.02-.653a1.76 1.76 0 0 0 .007-.635.22.22 0 0 1 .016-.164l.79-.321Z" fill="#9E2C9B"/><path d="M20.833 12.34a.073.073 0 0 1-.076-.086c.005-.094-.022-.191.024-.282.006-.011.016-.028.012-.037-.1-.218-.01-.446-.02-.669-.007-.142-.052-.278-.044-.42l.843-.339c.013.012.029.028.025.043-.049.218.042.427.034.645-.008.2-.035.407.007.609a.285.285 0 0 1-.067.243c-.24.115-.49.202-.738.293Z" fill="#A8289A"/><path d="M6.258 16.017c.022.065-.04.102-.053.155-.056.198-.017.393 0 .588.013.13-.01.258-.008.388 0 .143.026.285.01.428a9.893 9.893 0 0 1-.843.34c-.053-.119.004-.239.006-.358.002-.118.016-.25-.023-.375a.703.703 0 0 1 .004-.388c.045-.153-.008-.272-.042-.403.311-.14.629-.262.949-.375Z" fill="#5B46A6"/><path d="M18.884 11.592c.04.218.055.44.044.662-.01.114-.027.227-.049.339-.003.025-.025.052-.01.074.099.136.027.288.045.431l-.79.316c-.09-.13-.032-.28-.059-.421a1.132 1.132 0 0 0-.036-.218.134.134 0 0 1-.012-.09c.084-.224.012-.46.053-.684a.264.264 0 0 1 .025-.088l.79-.321Z" fill="#9A2D9C"/><path d="M22.968 9.948c-.008.245.018.489-.01.732.001.05.01.1.024.148.024.177-.053.353.006.527.019.055-.053.092-.02.145-.24.11-.487.206-.737.29-.105-.006-.122-.09-.105-.158.06-.284-.005-.567.011-.85a5.81 5.81 0 0 0 .012-.407.13.13 0 0 1 .053-.114c.25-.117.503-.22.766-.313Z" fill="#AD2699"/><path d="M18.095 11.91c-.027.245.053.496-.04.737a.152.152 0 0 0 .002.101c.059.149.05.302.048.457.003.068.01.137.02.205l-.816.32a.142.142 0 0 1-.034-.122c.003-.395-.004-.79-.007-1.186 0-.06-.04-.106-.04-.163.284-.13.575-.24.867-.349Z" fill="#962F9D"/><path d="M17.336 6.79c-.084-.092-.034-.182.016-.26.035-.055.052-.105.014-.154-.039-.049-.01-.118-.017-.176-.016-.134.023-.27-.035-.404a.137.137 0 0 1 .011-.124c.11-.097.073-.192.045-.316-.052-.232-.034-.474-.031-.71a.11.11 0 0 1 .023-.072c.09-.083.047-.147-.023-.21-.062-.06-.089-.122 0-.181l.846.352c.07.029.042.07.023.117-.1.245-.201.49-.3.737-.182.447-.362.894-.542 1.34a.507.507 0 0 1-.03.06Z" fill="#395DB4"/><path d="M5.31 16.393c.041.006.086.017.07.07a.14.14 0 0 0 .04.131c.02.027.032.058.012.085-.062.078-.044.163-.046.255-.007.328.076.658-.02.984-.243.105-.481.22-.737.288a.093.093 0 0 1-.026-.095c.034-.13.009-.26.015-.39.014-.29-.02-.58.014-.87.008-.068-.036-.113-.058-.168.241-.11.485-.208.736-.29Z" fill="#5747A7"/><path d="m9.417 16.288-.712.284c-.105-.046-.123-.115-.102-.23a1.58 1.58 0 0 0 0-.66.119.119 0 0 1-.007-.052c.042-.183.039-.369.053-.555.266-.122.541-.224.815-.326.048.047.02.098.01.148a2.12 2.12 0 0 0-.033.714.475.475 0 0 1 0 .158c-.027.133-.031.27-.012.404.005.037.017.077-.012.115Z" fill="#6B40A4"/><path d="M9.417 16.288a.917.917 0 0 1-.015-.47c.04-.14-.013-.274-.014-.412.005-.22.032-.438.079-.653.194-.088.394-.165.597-.231.091 0 .07.075.072.124.012.182.013.366.005.549-.008.203.036.41-.041.609-.028.07.059.154-.024.22l-.659.264Z" fill="#6F3EA3"/><path d="M11.33 13.998h.033c.202.039.385.128.572.206a.108.108 0 0 1 .063.078c.018.13.018.262 0 .392a1.55 1.55 0 0 0-.005.379.262.262 0 0 1-.047.21c-.232.11-.47.205-.715.285a.164.164 0 0 1-.078-.155c-.016-.269-.01-.539-.013-.806a4.402 4.402 0 0 0-.018-.486l.209-.103Z" fill="#773BA2"/><path d="M17.231 12.26c.165.086.068.239.074.353.018.372.007.745.007 1.118l-.642.268a.04.04 0 0 1-.04 0 .087.087 0 0 1-.026-.057c-.027-.346.006-.69.012-1.036.002-.13-.006-.26-.024-.389a6.76 6.76 0 0 1 .639-.256Z" fill="#92309D"/><path d="M8.652 15.077a.71.71 0 0 1 0 .419.39.39 0 0 0 .007.254c.043.133.004.271 0 .407 0 .089.013.186-.044.278-.037.06.098.064.09.139a6.915 6.915 0 0 1-.685.271 2.297 2.297 0 0 0-.049-.533.191.191 0 0 1 .006-.115c.072-.158.016-.324.034-.484.014-.13-.016-.252-.02-.378a6.66 6.66 0 0 1 .661-.258Z" fill="#6841A4"/><path d="M22.201 10.258c-.044.099-.015.205-.02.305-.017.295-.011.59.018.885a.202.202 0 0 1-.027.112.166.166 0 0 0 .059.229 6.416 6.416 0 0 1-.66.26c.03-.262.03-.527 0-.79a.28.28 0 0 1 .011-.076.483.483 0 0 0-.024-.304c-.058-.119.022-.246.01-.371a6.36 6.36 0 0 1 .633-.25Z" fill="#AB2799"/><path d="M11.679 13.867c0-.046.037-.067.059-.1.037-.057.083-.112.027-.188a.106.106 0 0 1 0-.088c.087-.175-.005-.357.023-.537a.377.377 0 0 0-.11-.323l1.554.608a.03.03 0 0 1 .004.02.03.03 0 0 1-.009.017c-.188.11-.403.158-.6.248-.067.031-.136.056-.205.084-.2.077-.397.158-.595.237-.046.016-.093.047-.148.021Z" fill="#3167BA"/><path d="M11.123 14.101c.062.127.122.254.056.399-.057.122 0 .25.012.368.017.178-.035.35-.006.527.009.057.05.098.047.154l-.603.25a1.004 1.004 0 0 1-.044-.41c.015-.241-.005-.484 0-.727a3.18 3.18 0 0 0 .005-.352c.173-.082.35-.151.533-.209Z" fill="#743CA2"/><path d="M16.589 12.519a.176.176 0 0 1 .06.151 9.84 9.84 0 0 0-.011.582c0 .202-.049.407.006.609.009.033-.012.075-.02.113a.1.1 0 0 1-.11.005c-.19-.075-.38-.148-.568-.228-.032-.013-.063-.03-.072-.068.034-.178.057-.359.07-.54a.26.26 0 0 0-.013-.115.289.289 0 0 1 .036-.26 6.3 6.3 0 0 1 .622-.249Z" fill="#8F329E"/><path d="M10.593 14.31c.087.127.012.268.031.402.022.158-.044.316.017.474.02.053-.014.11-.022.162-.025.152.032.3.01.449a5.54 5.54 0 0 1-.556.223c-.03-.29.058-.574.032-.867-.014-.165-.007-.335-.007-.503 0-.046.016-.099-.036-.13.172-.082.35-.152.53-.21Z" fill="#723DA2"/><path d="m11.944 15.264.024-1.003c.106-.031.183.035.271.063.062.02.122.045.182.07.269.109.545.201.806.328a.03.03 0 0 1 .01.018.03.03 0 0 1-.002.02l-1.166.463c-.042.018-.084.028-.125.041Z" fill="#7C39A1"/><path d="M4.574 16.68c.094.02.117.09.099.168a.81.81 0 0 0-.02.282c.031.291-.027.583.01.875.007.063-.048.13-.035.202-.073.059-.124.04-.158-.044-.147-.385-.291-.77-.45-1.149-.032-.081-.028-.12.063-.15.168-.055.328-.122.49-.183Z" fill="#5449A7"/><path d="M15.968 12.768c-.024.243.033.489-.022.733a.782.782 0 0 1-.058.184c-.052.04-.098.007-.145-.01-.13-.046-.253-.108-.387-.143-.175-.073-.347-.158-.527-.219-.034-.011-.077-.024-.072-.077.018-.031.053-.01.078-.028l.985-.388c.049-.019.098-.035.148-.052Z" fill="#8C339E"/><path d="M10.284 4.283c-.012.316.025.628-.021.941a.683.683 0 0 0 .027.244c.023.105-.008.217-.037.324-.17-.414-.339-.83-.51-1.244-.021-.053-.004-.08.047-.096l.494-.17Z" fill="#703FA3"/><path d="M14.835 13.209a.084.084 0 0 1-.078.026.214.214 0 0 1 .053-.115c0 .032-.006.066.025.089Z" fill="#FEFEFE"/><path d="M15.262 19.84a215.87 215.87 0 0 0-.53-1.328c-.019-.048-.034-.098-.05-.147.017-.453-.03-.906-.004-1.361.025-.425.048-.855-.006-1.282-.025-.195.005-.393.005-.59a.281.281 0 0 0-.02-.14c-.004-.092-.007-.184.1-.228l.56 1.41c.018.045.031.09.047.136 0 .316.052.632-.006.947a.693.693 0 0 0 .009.287c.06.238.063.487.011.726a1.092 1.092 0 0 0 0 .38c.02.182.019.366-.005.549a2.346 2.346 0 0 0-.026.522c.007.055.016.133-.085.118Z" fill="#88349F"/><path d="M15.262 19.84c.056-.013.062-.05.053-.1-.035-.22.01-.438.04-.656.03-.218-.01-.425-.027-.636-.011-.154.039-.296.045-.447 0-.15-.015-.3-.045-.448a1.001 1.001 0 0 1 0-.348c.027-.164.03-.331.008-.496a1.109 1.109 0 0 1 .029-.398c.207.478.402.96.584 1.448.038.222-.038.439-.027.662.016.332-.006.666.01.997.01.201-.016.404.015.604.017.11-.025.218-.02.327.014.253-.007.505-.005.758 0 .079.041.182-.065.237-.21-.498-.406-1-.595-1.505Z" fill="#8C339E"/><path d="M17.073 14.182c.452.164.9.342 1.342.527a.37.37 0 0 0 .013.077c.07.245.076.304.036.552-.016.097.013.186.024.279.028.175.027.354-.004.53a.096.096 0 0 1-.072.07 28.034 28.034 0 0 1-1.34-.538.106.106 0 0 1-.064-.071.104.104 0 0 1 .02-.093.143.143 0 0 0 .03-.112c-.056-.174.014-.345.01-.516 0-.112-.053-.218-.062-.331-.012-.133-.019-.262.067-.374Z" fill="#395DB4"/><path d="m20.468 15.518 1.297.507.045.024c.023.075-.03.123-.066.176-.064.096-.061.153.033.22.083.06.053.13.038.2a1.542 1.542 0 0 0-.027.561c.015.123.013.253.018.38a29.502 29.502 0 0 1-1.34-.538c-.036-.047-.02-.105-.013-.151.032-.193-.013-.39.04-.58a.281.281 0 0 0-.026-.203.213.213 0 0 1 .01-.22c.04-.074.053-.144-.011-.217a.11.11 0 0 1-.034-.08.108.108 0 0 1 .036-.079Z" fill="#3E57B0"/><path d="M15.856 21.34a.56.56 0 0 0 .029-.286.491.491 0 0 1 .003-.23c.046-.153-.024-.305 0-.46.036-.209.037-.422.004-.632a.112.112 0 0 1 .03-.097c.01-.01-.04-.034-.037-.047-.057-.03.004-.03 0-.042-.112-.206.04-.405.02-.616-.02-.248 0-.497-.019-.745a.26.26 0 0 1 .014-.14.197.197 0 0 0 .021-.17.095.095 0 0 1 .03-.12c.168.388.33.777.47 1.175a.139.139 0 0 1 0 .105c-.07.154-.04.314-.005.464a.772.772 0 0 1 0 .388c-.066.232-.007.46 0 .688a.532.532 0 0 1 0 .144 1.208 1.208 0 0 0-.008.481c.008.026.01.052.003.078-.087.2.007.397 0 .595a9.322 9.322 0 0 1-.034.61c-.006.053-.037.053-.07.014a23.054 23.054 0 0 1-.451-1.156Z" fill="#8E329E"/><path d="M16.308 22.499c.015 0 .047.012.044 0-.038-.124.024-.244 0-.373-.02-.097.043-.207.019-.325-.02-.1-.03-.206-.042-.31-.004-.035-.013-.072.007-.1.074-.1.038-.21.022-.311a.79.79 0 0 1 .005-.256c.03-.186.022-.376-.021-.559a.394.394 0 0 1 .005-.194c.067-.225.072-.463.012-.69-.041-.166.008-.302.061-.447.148.316.27.637.391.962a.341.341 0 0 0 .033.275c.02.036.037.084.005.11-.09.075-.049.158-.025.238.022.062.026.13.01.194-.072.203.02.403-.006.6-.024.186.045.368-.01.555a.258.258 0 0 0 .006.155.255.255 0 0 1 0 .18.45.45 0 0 0-.016.316.97.97 0 0 1 .021.507c-.036.158.058.31-.034.45-.027.041.006.073.032.106.053.063.053.117-.029.157-.18-.408-.331-.826-.49-1.24Z" fill="#91319D"/><path d="M17.073 14.182c.004.097-.06.181-.038.283.022.102.01.201.046.302a.573.573 0 0 1-.025.418c-.013.032-.02.044.005.075a.2.2 0 0 1 .007.247c-.055.073-.026.117.003.173a32.015 32.015 0 0 1-1.368-.551 1.705 1.705 0 0 1-.02-.73c.01-.043.048-.06.084-.076.25-.115.51-.203.765-.306a.474.474 0 0 1 .116-.014h.017l.408.18Z" fill="#3760B6"/><path d="M18.412 16.216a.355.355 0 0 0 .058-.195c.013-.113-.063-.23.017-.34a.039.039 0 0 0-.004-.037c-.143-.186-.17-.375-.103-.551.021-.058.044-.098 0-.134-.056-.046.044-.12 0-.17-.031-.04 0-.063.035-.08.401.146.8.299 1.191.473-.075.019-.018.064-.022.098a3.09 3.09 0 0 1-.041.324c-.053.203-.011.407-.022.61-.008.15-.039.283-.138.396-.329-.12-.654-.248-.971-.394Z" fill="#3B5BB2"/><path d="M19.383 16.608c-.007-.062.038-.105.06-.158.073-.17.05-.352.042-.526-.01-.211.045-.412.065-.617 0-.02.022-.039.004-.06-.045-.017-.025.068-.081.043 0-.09.058-.11.133-.114l.77.294c.031.012.061.03.092.044-.005.072-.01.143.065.185a.057.057 0 0 1 .023.088c-.074.124-.106.257-.034.388.056.1-.02.18-.018.272a2.9 2.9 0 0 1-.038.596l-.92-.369c-.025-.091-.106-.053-.162-.07l-.001.004Z" fill="#3C59B1"/><path d="M21.806 17.584c-.053-.11-.027-.236-.053-.343a1.105 1.105 0 0 1-.022-.272c0-.09-.01-.197.035-.293.036-.073.106-.168-.052-.226-.06-.022-.084-.142-.021-.214a.968.968 0 0 0 .116-.19c.313.106.618.234.922.362.09.158.02.328.023.49.006.117.002.235-.014.352-.017.096-.05.173.003.264.016.028-.034.055-.045.095-.04.145.07.244.08.369l-.972-.394Z" fill="#4055AE"/><path d="M17.312 23.867a1.58 1.58 0 0 1-.046-.412c.03-.388.014-.774.02-1.158 0-.161-.03-.32-.023-.478.006-.158.016-.33.025-.496 0-.033.009-.087.072-.06l.79 1.945c.044.11.14.242.108.325-.03.084-.203.091-.315.13-.208.068-.42.134-.631.204Z" fill="#952F9D"/><path d="M14.757 14.764a.48.48 0 0 0-.079.207c-.017.031.01.105-.071.076a.14.14 0 0 1-.065-.123c.006-.112-.06-.125-.15-.125-.275.002-.55.002-.825 0-.105-.008-.21.029-.31-.035a.17.17 0 0 1-.021-.005.166.166 0 0 1-.005-.023.098.098 0 0 1 .04-.029c.217-.029.436-.009.654-.013.193-.003.385 0 .58 0 .182 0 .187-.006.188-.194v-.998c0-.176 0-.176-.17-.216-.008-.003-.02-.007-.021-.013-.02-.142-.072-.283-.027-.428.014-.048.046-.092.1-.03.065.138.078.3.183.42.083.072.193.077.286.125.105.052.214.093.321.139.04.13.03.269.025.397-.006.201.007.399.016.598a.064.064 0 0 1-.037.053c-.192.077-.378.172-.584.21l-.028.007Z" fill="#575494"/><path d="M14.783 14.757c.158-.098.336-.135.502-.21.034-.016.078-.014.105-.049.093-.07.189-.134.316-.105.036.08.01.158-.01.238-.02.08-.052.168.022.263.044.053.03.158-.011.236a16.2 16.2 0 0 1-.924-.373Z" fill="#3662B7"/><path d="M19.384 16.607c.067-.01.175-.111.162.07a.44.44 0 0 1-.162-.07Z" fill="#3B5BB2"/><path d="M17.314 21.147c-.02.029-.036.018-.048-.005a.05.05 0 0 1-.005-.036.047.047 0 0 1 .023-.028.091.091 0 0 1 .03.07Z" fill="#952F9D"/><path d="m14.626 15.05.053-.08c.1.115.027.25.033.37.009.157 0 .31.01.468.013.303.03.607-.003.912-.018.161 0 .327-.009.491-.022.278-.015.557.02.833a.582.582 0 0 1-.047.316c-.169-.369-.3-.753-.452-1.129-.077-.19-.136-.385-.234-.566v-.04a.31.31 0 0 1 .028-.127c.182-.446.35-.898.534-1.344.015-.035.025-.077.067-.103Z" fill="#86359F"/><path d="M11.762 21.501a.126.126 0 0 1-.04.018c-.018 0-.037-.01-.028-.03.005-.01.03-.013.045-.017.017-.003.026.004.023.03Z" fill="#2F69BC"/><path d="M14.573 12.814c-.039-.02-.08-.011-.074.032.014.082-.065.168.031.249.053.045-.058.098-.036.162a.108.108 0 0 1-.091.042c-.377 0-.755.02-1.131-.01a.092.092 0 0 1-.042-.03l.001-.024c.141-.266.222-.556.34-.832.149-.343.264-.7.422-1.038.078.182.158.364.232.549.12.3.233.6.348.9Z" fill="#555594"/><path d="M14.626 15.05c-.167.432-.333.865-.503 1.295-.039.096-.06.201-.127.285-.165-.337-.275-.697-.421-1.042-.03-.072-.053-.147-.08-.221a.777.777 0 0 0-.044-.264c-.043-.105.03-.274.123-.343h.914c.072 0 .122.004.089.098-.027.072.019.132.049.193Z" fill="#565594"/><path d="M13.573 14.761c-.085.14-.158.28-.043.44.048.068-.04.104-.036.165a4.599 4.599 0 0 1-.237-.602l.316-.003Z" fill="#515794"/><path d="m12.416 14.42-.447-.159c-.164-.091-.345-.139-.517-.21a.199.199 0 0 1-.089-.053c.096-.068.21-.084.316-.134l.737-.288c.032.038.008.075-.004.111a.21.21 0 0 0-.01.128c.05.192.037.387.029.582 0 .01-.008.016-.015.022Z" fill="#4F5995"/><path d="m15.705 14.393-.316.105c-.033-.164-.077-.327-.033-.498a.292.292 0 0 0 0-.155c-.038-.118-.013-.23.007-.346.183.039.34.15.526.185.24.112.485.21.737.29l.025.027c-.311.142-.643.234-.946.392Z" fill="#5A5294"/><path d="M12.416 14.42a4.93 4.93 0 0 0-.02-.486c-.013-.125-.039-.24.02-.356.267-.118.538-.223.814-.319l.03.003c.044.052.04.113.04.174v1.125c0 .06.003.123-.042.173h-.028a8.385 8.385 0 0 1-.814-.315Z" fill="#515794"/><path d="M13.258 14.734v-1.473l1.236-.005c.238.012.238.012.238.256v1.117c0 .087-.024.11-.11.109-.452-.004-.908-.002-1.364-.004Z" fill="#FEFEFE"/></g><defs><clipPath id="a-logo-starname"><path fill="#fff" d="M0 0h28v28H0z"/></clipPath></defs></svg>