<svg id="root" width="28" height="28" viewBox="0 0 28 28" fill="none" xmlns="http://www.w3.org/2000/svg"><g clip-path="url(#a-logo-straightEdge)"><circle cx="14" cy="14" r="14" fill="#fff"/><path fill-rule="evenodd" clip-rule="evenodd" d="m4.538 16.758-.438-.452 1.202-1.238c.66-.68 1.255-1.277 1.321-1.325.066-.049-.497-.686-1.252-1.416L4 10.999l.488-.499.489-.499 1.296 1.277c.713.703 1.364 1.276 1.445 1.273.082-.002.729-.574 1.437-1.27l1.288-1.268.451.447.452.446-1.358 1.35-1.357 1.35 1.357 1.349 1.358 1.35-.49.483-.489.485-1.363-1.344-1.364-1.343-1.332 1.312-1.333 1.312-.437-.452Zm12.569-.007-.439-.453 1.354-1.347 1.354-1.346-1.354-1.346-1.354-1.346.442-.457.442-.456 1.297 1.278c.713.702 1.363 1.278 1.443 1.278.08 0 .729-.575 1.442-1.277L23.03 10l.485.495.485.495-1.362 1.342-1.362 1.341 1.32 1.312 1.32 1.312-.442.456-.442.456-1.324-1.303c-1.515-1.493-1.214-1.514-2.893.2-.591.603-1.119 1.097-1.172 1.097-.054 0-.295-.204-.536-.453Z" fill="#000"/></g><defs><clipPath id="a-logo-straightEdge"><path fill="#fff" d="M0 0h28v28H0z"/></clipPath></defs></svg>