<svg id="root" width="28" height="28" viewBox="0 0 28 28" fill="none" xmlns="http://www.w3.org/2000/svg"><circle cx="14" cy="14" r="14" fill="#000"/><path fill-rule="evenodd" clip-rule="evenodd" d="M6.547 7.547a1.867 1.867 0 0 0 1.32 3.187h3.72v4.203c0 .273.285.464.56.464a1.493 1.493 0 0 1 1.37 2.078c-.186.437-.17 1.095.305 1.095.375 0 .515-.455.515-.83v-.206a1.204 1.204 0 0 1 1.616-1.131c.049.018.103-.015.103-.068v-5.605h3.72a1.867 1.867 0 0 0 0-3.734H7.866c-.494 0-.97.197-1.32.547Zm9.33 10.489a.56.56 0 1 0-.793-.792.56.56 0 0 0 .792.792Zm-1.161 2.223a.78.78 0 1 0 1.104-1.104.78.78 0 0 0-1.104 1.104Zm.399 2.098a.546.546 0 1 0 .772-.772.546.546 0 0 0-.772.772Zm-.794-.79a.577.577 0 1 1-.815-.815.577.577 0 0 1 .815.816Zm-.688 2.607a.858.858 0 1 1 .003-1.716.858.858 0 0 1-.003 1.716Zm-.856-.859Zm-1.457-2.584a1.093 1.093 0 1 0 1.545-1.546 1.093 1.093 0 0 0-1.545 1.546Zm.81-4.585a.746.746 0 1 0 .002 1.493.746.746 0 0 0-.003-1.493Z" fill="#fff"/></svg>