<svg width="28" height="28" viewBox="0 0 28 28" fill="none" xmlns="http://www.w3.org/2000/svg">
<circle cx="14" cy="14" r="14" fill="black"/>
<path d="M14.035 23.31C12.2006 23.31 10.4074 22.766 8.8821 21.7469C7.35683 20.7277 6.16803 19.2792 5.46603 17.5844C4.76403 15.8896 4.58035 14.0247 4.93823 12.2256C5.29611 10.4264 6.17947 8.77373 7.4766 7.4766C8.77373 6.17947 10.4264 5.29611 12.2255 4.93823C14.0247 4.58035 15.8896 4.76403 17.5844 5.46603C19.2792 6.16803 20.7277 7.35683 21.7469 8.8821C22.766 10.4074 23.31 12.2006 23.31 14.035C23.3084 16.4944 22.3307 18.8526 20.5917 20.5917C18.8526 22.3307 16.4944 23.3084 14.035 23.31ZM14.035 5.16983C12.2816 5.16983 10.5677 5.68976 9.10978 6.66388C7.65191 7.638 6.51563 9.02255 5.84465 10.6425C5.17366 12.2624 4.9981 14.0448 5.34017 15.7645C5.68223 17.4842 6.52656 19.0638 7.76638 20.3036C9.0062 21.5435 10.5858 22.3878 12.3055 22.7299C14.0252 23.0719 15.8077 22.8964 17.4276 22.2254C19.0475 21.5544 20.432 20.4181 21.4061 18.9602C22.3803 17.5024 22.9002 15.7884 22.9002 14.035C22.8986 11.6843 21.9641 9.43034 20.3019 7.76814C18.6397 6.10594 16.3857 5.17142 14.035 5.16983Z" fill="white"/>
<path d="M14.7943 22.4C13.1458 22.4 11.5344 21.9112 10.1637 20.9953C8.79307 20.0795 7.72477 18.7778 7.09393 17.2548C6.46308 15.7318 6.29803 14.0559 6.61963 12.4391C6.94123 10.8223 7.73505 9.33719 8.9007 8.17154C10.0663 7.00589 11.5515 6.21207 13.1683 5.89047C14.7851 5.56887 16.4609 5.73393 17.9839 6.36477C19.5069 6.99562 20.8086 8.06391 21.7245 9.43457C22.6403 10.8052 23.1292 12.4167 23.1292 14.0652C23.1276 16.2752 22.2489 18.3943 20.6862 19.957C19.1234 21.5198 17.0044 22.3984 14.7943 22.4ZM14.7943 6.09192C13.2162 6.09192 11.6735 6.55989 10.3613 7.43667C9.04909 8.31344 8.02637 9.55963 7.42243 11.0177C6.8185 12.4757 6.66049 14.08 6.96837 15.6279C7.27625 17.1757 8.0362 18.5975 9.15212 19.7134C10.268 20.8293 11.6898 21.5893 13.2376 21.8971C14.7855 22.205 16.3898 22.047 17.8479 21.4431C19.3059 20.8391 20.5521 19.8164 21.4288 18.5042C22.3056 17.192 22.7736 15.6493 22.7736 14.0712C22.7704 11.9559 21.9287 9.92823 20.433 8.43251C18.9373 6.9368 16.9096 6.09511 14.7943 6.09192Z" fill="white"/>
<path d="M15.5537 21.496C14.0912 21.496 12.6615 21.0623 11.4455 20.2498C10.2294 19.4372 9.28163 18.2823 8.72195 16.9311C8.16226 15.5799 8.01582 14.0931 8.30115 12.6587C8.58647 11.2242 9.29075 9.90663 10.3249 8.87246C11.3591 7.8383 12.6767 7.13402 14.1111 6.84869C15.5455 6.56337 17.0324 6.70981 18.3836 7.26949C19.7348 7.82918 20.8897 8.77698 21.7022 9.99303C22.5147 11.2091 22.9484 12.6388 22.9484 14.1013C22.9468 16.062 22.1672 17.9419 20.7808 19.3284C19.3944 20.7148 17.5145 21.4944 15.5537 21.496ZM15.5537 7.03205C14.1498 7.03205 12.7774 7.44869 11.6104 8.22919C10.4434 9.00969 9.53423 10.1189 8.99807 11.4165C8.4619 12.714 8.32285 14.1415 8.5985 15.5181C8.87416 16.8948 9.55214 18.1586 10.5466 19.1497C11.541 20.1407 12.8072 20.8144 14.1847 21.0854C15.5623 21.3564 16.9893 21.2124 18.285 20.6719C19.5807 20.1313 20.6869 19.2184 21.4634 18.0487C22.2399 16.879 22.6519 15.5052 22.6471 14.1013C22.6439 12.2216 21.8954 10.4198 20.5656 9.09119C19.2359 7.76258 17.4335 7.01556 15.5537 7.01397" fill="white"/>
<path d="M16.313 20.586C15.0376 20.586 13.7909 20.2078 12.7304 19.4992C11.67 18.7906 10.8434 17.7835 10.3554 16.6052C9.8673 15.4269 9.73959 14.1303 9.98841 12.8794C10.2372 11.6285 10.8514 10.4795 11.7532 9.57769C12.6551 8.67585 13.8041 8.06169 15.055 7.81287C16.3059 7.56406 17.6024 7.69176 18.7807 8.17983C19.9591 8.6679 20.9662 9.49442 21.6747 10.5549C22.3833 11.6153 22.7615 12.8621 22.7615 14.1375C22.7615 14.9843 22.5947 15.8228 22.2706 16.6052C21.9466 17.3876 21.4716 18.0985 20.8728 18.6973C20.274 19.2961 19.5631 19.771 18.7807 20.0951C17.9984 20.4192 17.1598 20.586 16.313 20.586ZM16.313 7.93003C15.0853 7.93003 13.8851 8.29409 12.8643 8.97618C11.8435 9.65826 11.0479 10.6277 10.5781 11.762C10.1083 12.8962 9.98533 14.1444 10.2248 15.3485C10.4644 16.5526 11.0556 17.6587 11.9237 18.5268C12.7918 19.3949 13.8979 19.9861 15.102 20.2256C16.3061 20.4652 17.5542 20.3422 18.6885 19.8724C19.8228 19.4026 20.7922 18.6069 21.4743 17.5861C22.1564 16.5653 22.5204 15.3652 22.5204 14.1375C22.5212 13.3221 22.3612 12.5145 22.0495 11.7611C21.7379 11.0076 21.2807 10.323 20.7041 9.74638C20.1275 9.16981 19.4429 8.7126 18.6894 8.40093C17.936 8.08926 17.1284 7.92924 16.313 7.93003Z" fill="white"/>
<path d="M17.0724 19.682C15.983 19.682 14.918 19.3589 14.0122 18.7536C13.1063 18.1484 12.4003 17.2881 11.9834 16.2816C11.5665 15.275 11.4574 14.1675 11.6699 13.099C11.8825 12.0305 12.4071 11.049 13.1774 10.2786C13.9478 9.50826 14.9293 8.98364 15.9978 8.7711C17.0663 8.55856 18.1739 8.66764 19.1804 9.08455C20.1869 9.50147 21.0472 10.2075 21.6525 11.1133C22.2577 12.0192 22.5808 13.0842 22.5808 14.1736C22.5792 15.634 21.9983 17.0342 20.9657 18.0668C19.933 19.0995 18.5329 19.6804 17.0724 19.682ZM17.0724 8.834C16.0197 8.83281 14.9902 9.1439 14.1143 9.72791C13.2384 10.3119 12.5554 11.1426 12.1517 12.1149C11.748 13.0872 11.6418 14.1573 11.8464 15.19C12.0511 16.2227 12.5574 17.1714 13.3014 17.9163C14.0454 18.6611 14.9936 19.1685 16.026 19.3744C17.0585 19.5802 18.1287 19.4751 19.1015 19.0725C20.0742 18.6699 20.9057 17.9879 21.4907 17.1126C22.0757 16.2374 22.3879 15.2083 22.3879 14.1555C22.3887 13.457 22.2518 12.7651 21.985 12.1195C21.7183 11.4739 21.3269 10.8872 20.8332 10.393C20.3395 9.89878 19.7533 9.5067 19.108 9.23919C18.4627 8.97169 17.771 8.834 17.0724 8.834Z" fill="white"/>
<path d="M17.8317 18.7719C16.9282 18.7719 16.045 18.504 15.2938 18.0021C14.5426 17.5001 13.957 16.7867 13.6113 15.9519C13.2655 15.1172 13.1751 14.1987 13.3513 13.3125C13.5276 12.4264 13.9627 11.6124 14.6015 10.9736C15.2404 10.3347 16.0544 9.8996 16.9405 9.72334C17.8267 9.54707 18.7452 9.63754 19.5799 9.98329C20.4146 10.3291 21.1281 10.9146 21.6301 11.6658C22.132 12.417 22.3999 13.3003 22.3999 14.2038C22.3999 15.4153 21.9186 16.5773 21.0619 17.434C20.2052 18.2907 19.0433 18.7719 17.8317 18.7719ZM17.8317 9.77417C16.9532 9.76821 16.0927 10.0233 15.3593 10.507C14.6259 10.9908 14.0527 11.6814 13.7124 12.4914C13.372 13.3013 13.2799 14.1941 13.4476 15.0565C13.6153 15.9189 14.0354 16.7121 14.6545 17.3354C15.2736 17.9588 16.0639 18.3842 16.9251 18.5578C17.7864 18.7314 18.6798 18.6454 19.492 18.3106C20.3043 17.9757 20.9988 17.4072 21.4875 16.6772C21.9763 15.9471 22.2372 15.0883 22.2372 14.2098C22.2356 13.0355 21.7684 11.9097 20.9381 11.0794C20.1077 10.249 18.9819 9.7818 17.8076 9.7802" fill="white"/>
</svg>
